G04 #@! TF.FileFunction,Legend,Top*
%FSLAX46Y46*%
G04 Gerber Fmt 4.6, Leading zero omitted, Abs format (unit mm)*
G04 Created by KiCad (PCBNEW 4.0.6+dfsg1-1) date Mon Jan 22 22:12:03 2018*
%MOMM*%
%LPD*%
G01*
G04 APERTURE LIST*
%ADD10C,0.100000*%
%ADD11C,0.150000*%
G04 APERTURE END LIST*
D10*
D11*
X130100000Y-89800000D02*
G75*
G03X139500000Y-80400000I0J9400000D01*
G01*
X120700000Y-80400000D02*
G75*
G03X130100000Y-89800000I9400000J0D01*
G01*
X139500000Y-60400000D02*
G75*
G03X130100000Y-51000000I-9400000J0D01*
G01*
X130100000Y-51000000D02*
G75*
G03X120700000Y-60400000I0J-9400000D01*
G01*
X139500000Y-60400000D02*
X139500000Y-80400000D01*
X120700000Y-60400000D02*
X120700000Y-80400000D01*
X139200000Y-88400000D02*
G75*
G03X139200000Y-88400000I-1100000J0D01*
G01*
X123200000Y-88400000D02*
G75*
G03X123200000Y-88400000I-1100000J0D01*
G01*
X139200000Y-52400000D02*
G75*
G03X139200000Y-52400000I-1100000J0D01*
G01*
X123100000Y-52200000D02*
G75*
G03X123100000Y-52200000I-1000000J0D01*
G01*
X140100000Y-50400000D02*
X120100000Y-50400000D01*
X120100000Y-90400000D02*
X140100000Y-90400000D01*
X120100000Y-90400000D02*
X120100000Y-50400000D01*
X140100000Y-90400000D02*
X140100000Y-50400000D01*
X140695238Y-71652381D02*
X140695238Y-70652381D01*
X141266667Y-71652381D02*
X140838095Y-71080952D01*
X141266667Y-70652381D02*
X140695238Y-71223810D01*
X141647619Y-70747619D02*
X141695238Y-70700000D01*
X141790476Y-70652381D01*
X142028572Y-70652381D01*
X142123810Y-70700000D01*
X142171429Y-70747619D01*
X142219048Y-70842857D01*
X142219048Y-70938095D01*
X142171429Y-71080952D01*
X141600000Y-71652381D01*
X142219048Y-71652381D01*
X142838095Y-70652381D02*
X142933334Y-70652381D01*
X143028572Y-70700000D01*
X143076191Y-70747619D01*
X143123810Y-70842857D01*
X143171429Y-71033333D01*
X143171429Y-71271429D01*
X143123810Y-71461905D01*
X143076191Y-71557143D01*
X143028572Y-71604762D01*
X142933334Y-71652381D01*
X142838095Y-71652381D01*
X142742857Y-71604762D01*
X142695238Y-71557143D01*
X142647619Y-71461905D01*
X142600000Y-71271429D01*
X142600000Y-71033333D01*
X142647619Y-70842857D01*
X142695238Y-70747619D01*
X142742857Y-70700000D01*
X142838095Y-70652381D01*
X143600000Y-71557143D02*
X143647619Y-71604762D01*
X143600000Y-71652381D01*
X143552381Y-71604762D01*
X143600000Y-71557143D01*
X143600000Y-71652381D01*
X144504762Y-70985714D02*
X144504762Y-71652381D01*
X144266666Y-70604762D02*
X144028571Y-71319048D01*
X144647619Y-71319048D01*
X145219047Y-70652381D02*
X145314286Y-70652381D01*
X145409524Y-70700000D01*
X145457143Y-70747619D01*
X145504762Y-70842857D01*
X145552381Y-71033333D01*
X145552381Y-71271429D01*
X145504762Y-71461905D01*
X145457143Y-71557143D01*
X145409524Y-71604762D01*
X145314286Y-71652381D01*
X145219047Y-71652381D01*
X145123809Y-71604762D01*
X145076190Y-71557143D01*
X145028571Y-71461905D01*
X144980952Y-71271429D01*
X144980952Y-71033333D01*
X145028571Y-70842857D01*
X145076190Y-70747619D01*
X145123809Y-70700000D01*
X145219047Y-70652381D01*
M02*
