%FSLAX45Y45*%
G04 Gerber Fmt 4.5, Leading zero omitted, Abs format (unit mm)*
G04 Created by KiCad (PCBNEW 4.0.6+dfsg1-1) date Mon Mar 12 13:09:10 2018*
%MOMM*%
%LPD*%
G01*
G04 APERTURE LIST*
%ADD10C,0.127000*%
%ADD11C,0.200000*%
%ADD12C,0.150000*%
%ADD13C,0.300000*%
G04 APERTURE END LIST*
D10*
D11*
X13240000Y-5320000D02*
G75*
G03X13325000Y-5235000I0J85000D01*
G01*
X13325000Y-5230000D02*
G75*
G03X13240000Y-5145000I-85000J0D01*
G01*
X12695000Y-5235000D02*
G75*
G03X12780000Y-5320000I85000J0D01*
G01*
X12780000Y-5145000D02*
G75*
G03X12695000Y-5230000I0J-85000D01*
G01*
X13240000Y-5145000D02*
X12780000Y-5145000D01*
X13240000Y-8765000D02*
X12780000Y-8765000D01*
X13240000Y-8940000D02*
G75*
G03X13325000Y-8855000I0J85000D01*
G01*
X12780000Y-8765000D02*
G75*
G03X12695000Y-8850000I0J-85000D01*
G01*
X13325000Y-8850000D02*
G75*
G03X13240000Y-8765000I-85000J0D01*
G01*
X12695000Y-8855000D02*
G75*
G03X12780000Y-8940000I85000J0D01*
G01*
X13240000Y-8940000D02*
X12780000Y-8940000D01*
X13240000Y-5320000D02*
X12780000Y-5320000D01*
X13840000Y-8440000D02*
G75*
G03X13715000Y-8315000I-125000J0D01*
G01*
X13715000Y-8565000D02*
G75*
G03X13840000Y-8440000I0J125000D01*
G01*
X13720000Y-8565000D02*
X13255000Y-8565000D01*
X13260000Y-8315000D02*
X13720000Y-8315000D01*
X13135000Y-8440000D02*
G75*
G03X13260000Y-8565000I125000J0D01*
G01*
X13265000Y-8315000D02*
G75*
G03X13135000Y-8435000I-5000J-125000D01*
G01*
X12760000Y-8565000D02*
X12295000Y-8565000D01*
X12300000Y-8315000D02*
X12760000Y-8315000D01*
X12760000Y-8565000D02*
G75*
G03X12885000Y-8440000I0J125000D01*
G01*
X12305000Y-5770000D02*
X12300000Y-5770000D01*
X13260000Y-5770000D02*
X13685000Y-5770000D01*
X13685000Y-5520000D02*
X13265000Y-5520000D01*
X12760000Y-5770000D02*
X12300000Y-5770000D01*
X12305000Y-5520000D02*
X12760000Y-5520000D01*
X12885000Y-8440000D02*
G75*
G03X12760000Y-8315000I-125000J0D01*
G01*
X12170000Y-8440000D02*
G75*
G03X12295000Y-8565000I125000J0D01*
G01*
X12300000Y-8315000D02*
G75*
G03X12170000Y-8435000I-5000J-125000D01*
G01*
X13135000Y-5645000D02*
G75*
G03X13260000Y-5770000I125000J0D01*
G01*
X13265000Y-5520000D02*
G75*
G03X13135000Y-5640000I-5000J-125000D01*
G01*
X12760000Y-5770000D02*
G75*
G03X12885000Y-5645000I0J125000D01*
G01*
X12885000Y-5645000D02*
G75*
G03X12760000Y-5520000I-125000J0D01*
G01*
X13685000Y-5770000D02*
G75*
G03X13810000Y-5645000I0J125000D01*
G01*
X13810000Y-5645000D02*
G75*
G03X13685000Y-5520000I-125000J0D01*
G01*
X12175000Y-5645000D02*
G75*
G03X12300000Y-5770000I125000J0D01*
G01*
X12305000Y-5520000D02*
G75*
G03X12175000Y-5640000I-5000J-125000D01*
G01*
X12735000Y-6720000D02*
G75*
G03X12860000Y-6595000I0J125000D01*
G01*
X12860000Y-6595000D02*
G75*
G03X12735000Y-6470000I-125000J0D01*
G01*
X12735000Y-6720000D02*
X12195000Y-6720000D01*
X12200000Y-6470000D02*
X12735000Y-6470000D01*
X12070000Y-6595000D02*
G75*
G03X12195000Y-6720000I125000J0D01*
G01*
X12200000Y-6470000D02*
G75*
G03X12070000Y-6590000I-5000J-125000D01*
G01*
X13165000Y-6595000D02*
G75*
G03X13290000Y-6720000I125000J0D01*
G01*
X13295000Y-6470000D02*
G75*
G03X13165000Y-6590000I-5000J-125000D01*
G01*
X13825000Y-6720000D02*
G75*
G03X13950000Y-6595000I0J125000D01*
G01*
X13290000Y-6720000D02*
X13825000Y-6720000D01*
X13295000Y-6470000D02*
X13830000Y-6470000D01*
X13825000Y-7815000D02*
X12195000Y-7815000D01*
X13950000Y-7940000D02*
G75*
G03X13825000Y-7815000I-125000J0D01*
G01*
X13160000Y-7490000D02*
G75*
G03X13285000Y-7615000I125000J0D01*
G01*
X13290000Y-7365000D02*
G75*
G03X13160000Y-7485000I-5000J-125000D01*
G01*
X13290000Y-7615000D02*
X13825000Y-7615000D01*
X13290000Y-7365000D02*
X13825000Y-7365000D01*
X13825000Y-7615000D02*
G75*
G03X13950000Y-7490000I0J125000D01*
G01*
X13950000Y-7490000D02*
G75*
G03X13825000Y-7365000I-125000J0D01*
G01*
X12735000Y-7615000D02*
X12195000Y-7615000D01*
X12200000Y-7365000D02*
X12735000Y-7365000D01*
X12735000Y-7615000D02*
G75*
G03X12860000Y-7490000I0J125000D01*
G01*
X12860000Y-7490000D02*
G75*
G03X12735000Y-7365000I-125000J0D01*
G01*
X12070000Y-7490000D02*
G75*
G03X12195000Y-7615000I125000J0D01*
G01*
X12200000Y-7365000D02*
G75*
G03X12070000Y-7485000I-5000J-125000D01*
G01*
X12195000Y-6270000D02*
X13825000Y-6270000D01*
X13825000Y-6020000D02*
X12200000Y-6020000D01*
X13825000Y-6270000D02*
G75*
G03X13950000Y-6145000I0J125000D01*
G01*
X13950000Y-6145000D02*
G75*
G03X13825000Y-6020000I-125000J0D01*
G01*
X12070000Y-6145000D02*
G75*
G03X12195000Y-6270000I125000J0D01*
G01*
X12200000Y-6020000D02*
G75*
G03X12070000Y-6140000I-5000J-125000D01*
G01*
X13825000Y-8065000D02*
X12195000Y-8065000D01*
X13950000Y-6595000D02*
G75*
G03X13825000Y-6470000I-125000J0D01*
G01*
X13825000Y-8065000D02*
G75*
G03X13950000Y-7940000I0J125000D01*
G01*
X12200000Y-7815000D02*
G75*
G03X12070000Y-7935000I-5000J-125000D01*
G01*
X12070000Y-7940000D02*
G75*
G03X12195000Y-8065000I125000J0D01*
G01*
X12195000Y-7165000D02*
X13825000Y-7165000D01*
X13825000Y-6915000D02*
X12200000Y-6915000D01*
X13950000Y-7040000D02*
G75*
G03X13825000Y-6915000I-125000J0D01*
G01*
X13825000Y-7165000D02*
G75*
G03X13950000Y-7040000I0J125000D01*
G01*
X12200000Y-6915000D02*
G75*
G03X12070000Y-7035000I-5000J-125000D01*
G01*
X12070000Y-7040000D02*
G75*
G03X12195000Y-7165000I125000J0D01*
G01*
D12*
X15000000Y-11000000D02*
X10000000Y-11000000D01*
D11*
X12324017Y-8840000D02*
G75*
G03X12324017Y-8840000I-114018J0D01*
G01*
X13921803Y-8840000D02*
G75*
G03X13921803Y-8840000I-111803J0D01*
G01*
X12312956Y-5220000D02*
G75*
G03X12312956Y-5220000I-102956J0D01*
G01*
X13924017Y-5240000D02*
G75*
G03X13924017Y-5240000I-114018J0D01*
G01*
D12*
X15000000Y-5000000D02*
X10000000Y-5000000D01*
X15000000Y-11000000D02*
X15000000Y-5000000D01*
X10000000Y-5000000D02*
X10000000Y-11000000D01*
D11*
X10424962Y-5324962D02*
X10525038Y-5425038D01*
X10525038Y-5324962D02*
X10424962Y-5425038D01*
X10424962Y-10574962D02*
X10525038Y-10675038D01*
X10525038Y-10574962D02*
X10424962Y-10675038D01*
X14474962Y-5324962D02*
X14575038Y-5425038D01*
X14575038Y-5324962D02*
X14474962Y-5425038D01*
X14474962Y-10574962D02*
X14575038Y-10675038D01*
X14575038Y-10574962D02*
X14474962Y-10675038D01*
D13*
X10263929Y-11473214D02*
X10263929Y-11173214D01*
X10335357Y-11173214D01*
X10378214Y-11187500D01*
X10406786Y-11216071D01*
X10421071Y-11244643D01*
X10435357Y-11301786D01*
X10435357Y-11344643D01*
X10421071Y-11401786D01*
X10406786Y-11430357D01*
X10378214Y-11458929D01*
X10335357Y-11473214D01*
X10263929Y-11473214D01*
X10563929Y-11473214D02*
X10563929Y-11273214D01*
X10563929Y-11330357D02*
X10578214Y-11301786D01*
X10592500Y-11287500D01*
X10621071Y-11273214D01*
X10649643Y-11273214D01*
X10749643Y-11473214D02*
X10749643Y-11273214D01*
X10749643Y-11173214D02*
X10735357Y-11187500D01*
X10749643Y-11201786D01*
X10763929Y-11187500D01*
X10749643Y-11173214D01*
X10749643Y-11201786D01*
X10935357Y-11473214D02*
X10906786Y-11458929D01*
X10892500Y-11430357D01*
X10892500Y-11173214D01*
X11092500Y-11473214D02*
X11063929Y-11458929D01*
X11049643Y-11430357D01*
X11049643Y-11173214D01*
X11435357Y-11473214D02*
X11435357Y-11173214D01*
X11535357Y-11387500D01*
X11635357Y-11173214D01*
X11635357Y-11473214D01*
X11906786Y-11473214D02*
X11906786Y-11316071D01*
X11892500Y-11287500D01*
X11863928Y-11273214D01*
X11806786Y-11273214D01*
X11778214Y-11287500D01*
X11906786Y-11458929D02*
X11878214Y-11473214D01*
X11806786Y-11473214D01*
X11778214Y-11458929D01*
X11763928Y-11430357D01*
X11763928Y-11401786D01*
X11778214Y-11373214D01*
X11806786Y-11358929D01*
X11878214Y-11358929D01*
X11906786Y-11344643D01*
X12049643Y-11273214D02*
X12049643Y-11573214D01*
X12049643Y-11287500D02*
X12078214Y-11273214D01*
X12135357Y-11273214D01*
X12163928Y-11287500D01*
X12178214Y-11301786D01*
X12192500Y-11330357D01*
X12192500Y-11416071D01*
X12178214Y-11444643D01*
X12163928Y-11458929D01*
X12135357Y-11473214D01*
X12078214Y-11473214D01*
X12049643Y-11458929D01*
X12321071Y-11444643D02*
X12335357Y-11458929D01*
X12321071Y-11473214D01*
X12306786Y-11458929D01*
X12321071Y-11444643D01*
X12321071Y-11473214D01*
X12321071Y-11287500D02*
X12335357Y-11301786D01*
X12321071Y-11316071D01*
X12306786Y-11301786D01*
X12321071Y-11287500D01*
X12321071Y-11316071D01*
X9892424Y-11917462D02*
X9992500Y-12017538D01*
X9992500Y-11917462D02*
X9892424Y-12017538D01*
X10421071Y-12103214D02*
X10249643Y-12103214D01*
X10335357Y-12103214D02*
X10335357Y-11803214D01*
X10306786Y-11846071D01*
X10278214Y-11874643D01*
X10249643Y-11888929D01*
X10549643Y-12074643D02*
X10563929Y-12088929D01*
X10549643Y-12103214D01*
X10535357Y-12088929D01*
X10549643Y-12074643D01*
X10549643Y-12103214D01*
X10749643Y-11803214D02*
X10778214Y-11803214D01*
X10806786Y-11817500D01*
X10821071Y-11831786D01*
X10835357Y-11860357D01*
X10849643Y-11917500D01*
X10849643Y-11988929D01*
X10835357Y-12046071D01*
X10821071Y-12074643D01*
X10806786Y-12088929D01*
X10778214Y-12103214D01*
X10749643Y-12103214D01*
X10721071Y-12088929D01*
X10706786Y-12074643D01*
X10692500Y-12046071D01*
X10678214Y-11988929D01*
X10678214Y-11917500D01*
X10692500Y-11860357D01*
X10706786Y-11831786D01*
X10721071Y-11817500D01*
X10749643Y-11803214D01*
X11035357Y-11803214D02*
X11063929Y-11803214D01*
X11092500Y-11817500D01*
X11106786Y-11831786D01*
X11121071Y-11860357D01*
X11135357Y-11917500D01*
X11135357Y-11988929D01*
X11121071Y-12046071D01*
X11106786Y-12074643D01*
X11092500Y-12088929D01*
X11063929Y-12103214D01*
X11035357Y-12103214D01*
X11006786Y-12088929D01*
X10992500Y-12074643D01*
X10978214Y-12046071D01*
X10963929Y-11988929D01*
X10963929Y-11917500D01*
X10978214Y-11860357D01*
X10992500Y-11831786D01*
X11006786Y-11817500D01*
X11035357Y-11803214D01*
X11263928Y-12103214D02*
X11263928Y-11903214D01*
X11263928Y-11931786D02*
X11278214Y-11917500D01*
X11306786Y-11903214D01*
X11349643Y-11903214D01*
X11378214Y-11917500D01*
X11392500Y-11946071D01*
X11392500Y-12103214D01*
X11392500Y-11946071D02*
X11406786Y-11917500D01*
X11435357Y-11903214D01*
X11478214Y-11903214D01*
X11506786Y-11917500D01*
X11521071Y-11946071D01*
X11521071Y-12103214D01*
X11663928Y-12103214D02*
X11663928Y-11903214D01*
X11663928Y-11931786D02*
X11678214Y-11917500D01*
X11706786Y-11903214D01*
X11749643Y-11903214D01*
X11778214Y-11917500D01*
X11792500Y-11946071D01*
X11792500Y-12103214D01*
X11792500Y-11946071D02*
X11806786Y-11917500D01*
X11835357Y-11903214D01*
X11878214Y-11903214D01*
X11906786Y-11917500D01*
X11921071Y-11946071D01*
X11921071Y-12103214D01*
X12506786Y-11788929D02*
X12249643Y-12174643D01*
X12892500Y-11803214D02*
X12921071Y-11803214D01*
X12949643Y-11817500D01*
X12963928Y-11831786D01*
X12978214Y-11860357D01*
X12992500Y-11917500D01*
X12992500Y-11988929D01*
X12978214Y-12046071D01*
X12963928Y-12074643D01*
X12949643Y-12088929D01*
X12921071Y-12103214D01*
X12892500Y-12103214D01*
X12863928Y-12088929D01*
X12849643Y-12074643D01*
X12835357Y-12046071D01*
X12821071Y-11988929D01*
X12821071Y-11917500D01*
X12835357Y-11860357D01*
X12849643Y-11831786D01*
X12863928Y-11817500D01*
X12892500Y-11803214D01*
X13121071Y-12074643D02*
X13135357Y-12088929D01*
X13121071Y-12103214D01*
X13106786Y-12088929D01*
X13121071Y-12074643D01*
X13121071Y-12103214D01*
X13321071Y-11803214D02*
X13349643Y-11803214D01*
X13378214Y-11817500D01*
X13392500Y-11831786D01*
X13406785Y-11860357D01*
X13421071Y-11917500D01*
X13421071Y-11988929D01*
X13406785Y-12046071D01*
X13392500Y-12074643D01*
X13378214Y-12088929D01*
X13349643Y-12103214D01*
X13321071Y-12103214D01*
X13292500Y-12088929D01*
X13278214Y-12074643D01*
X13263928Y-12046071D01*
X13249643Y-11988929D01*
X13249643Y-11917500D01*
X13263928Y-11860357D01*
X13278214Y-11831786D01*
X13292500Y-11817500D01*
X13321071Y-11803214D01*
X13521071Y-11803214D02*
X13706785Y-11803214D01*
X13606785Y-11917500D01*
X13649643Y-11917500D01*
X13678214Y-11931786D01*
X13692500Y-11946071D01*
X13706785Y-11974643D01*
X13706785Y-12046071D01*
X13692500Y-12074643D01*
X13678214Y-12088929D01*
X13649643Y-12103214D01*
X13563928Y-12103214D01*
X13535357Y-12088929D01*
X13521071Y-12074643D01*
X13849643Y-12103214D02*
X13906785Y-12103214D01*
X13935357Y-12088929D01*
X13949643Y-12074643D01*
X13978214Y-12031786D01*
X13992500Y-11974643D01*
X13992500Y-11860357D01*
X13978214Y-11831786D01*
X13963928Y-11817500D01*
X13935357Y-11803214D01*
X13878214Y-11803214D01*
X13849643Y-11817500D01*
X13835357Y-11831786D01*
X13821071Y-11860357D01*
X13821071Y-11931786D01*
X13835357Y-11960357D01*
X13849643Y-11974643D01*
X13878214Y-11988929D01*
X13935357Y-11988929D01*
X13963928Y-11974643D01*
X13978214Y-11960357D01*
X13992500Y-11931786D01*
X14106786Y-11803214D02*
X14106786Y-11860357D01*
X14221071Y-11803214D02*
X14221071Y-11860357D01*
X14663928Y-12217500D02*
X14649643Y-12203214D01*
X14621071Y-12160357D01*
X14606785Y-12131786D01*
X14592500Y-12088929D01*
X14578214Y-12017500D01*
X14578214Y-11960357D01*
X14592500Y-11888929D01*
X14606785Y-11846071D01*
X14621071Y-11817500D01*
X14649643Y-11774643D01*
X14663928Y-11760357D01*
X14906785Y-11903214D02*
X14906785Y-12103214D01*
X14835357Y-11788929D02*
X14763928Y-12003214D01*
X14949643Y-12003214D01*
X15292500Y-12103214D02*
X15292500Y-11803214D01*
X15421071Y-12103214D02*
X15421071Y-11946071D01*
X15406785Y-11917500D01*
X15378214Y-11903214D01*
X15335357Y-11903214D01*
X15306785Y-11917500D01*
X15292500Y-11931786D01*
X15606785Y-12103214D02*
X15578214Y-12088929D01*
X15563928Y-12074643D01*
X15549643Y-12046071D01*
X15549643Y-11960357D01*
X15563928Y-11931786D01*
X15578214Y-11917500D01*
X15606785Y-11903214D01*
X15649643Y-11903214D01*
X15678214Y-11917500D01*
X15692500Y-11931786D01*
X15706785Y-11960357D01*
X15706785Y-12046071D01*
X15692500Y-12074643D01*
X15678214Y-12088929D01*
X15649643Y-12103214D01*
X15606785Y-12103214D01*
X15878214Y-12103214D02*
X15849643Y-12088929D01*
X15835357Y-12060357D01*
X15835357Y-11803214D01*
X16106786Y-12088929D02*
X16078214Y-12103214D01*
X16021071Y-12103214D01*
X15992500Y-12088929D01*
X15978214Y-12060357D01*
X15978214Y-11946071D01*
X15992500Y-11917500D01*
X16021071Y-11903214D01*
X16078214Y-11903214D01*
X16106786Y-11917500D01*
X16121071Y-11946071D01*
X16121071Y-11974643D01*
X15978214Y-12003214D01*
X16235357Y-12088929D02*
X16263928Y-12103214D01*
X16321071Y-12103214D01*
X16349643Y-12088929D01*
X16363928Y-12060357D01*
X16363928Y-12046071D01*
X16349643Y-12017500D01*
X16321071Y-12003214D01*
X16278214Y-12003214D01*
X16249643Y-11988929D01*
X16235357Y-11960357D01*
X16235357Y-11946071D01*
X16249643Y-11917500D01*
X16278214Y-11903214D01*
X16321071Y-11903214D01*
X16349643Y-11917500D01*
X16463928Y-12217500D02*
X16478214Y-12203214D01*
X16506786Y-12160357D01*
X16521071Y-12131786D01*
X16535357Y-12088929D01*
X16549643Y-12017500D01*
X16549643Y-11960357D01*
X16535357Y-11888929D01*
X16521071Y-11846071D01*
X16506786Y-11817500D01*
X16478214Y-11774643D01*
X16463928Y-11760357D01*
M02*
