G04 #@! TF.FileFunction,Copper,L1,Top,Signal*
%FSLAX46Y46*%
G04 Gerber Fmt 4.6, Leading zero omitted, Abs format (unit mm)*
G04 Created by KiCad (PCBNEW 4.0.6+dfsg1-1) date Mon Jan 22 22:12:03 2018*
%MOMM*%
%LPD*%
G01*
G04 APERTURE LIST*
%ADD10C,0.100000*%
%ADD11C,0.254000*%
G04 APERTURE END LIST*
D10*
D11*
G36*
X120852266Y-50952266D02*
X120469756Y-51524731D01*
X120335437Y-52200000D01*
X120469756Y-52875269D01*
X120852266Y-53447734D01*
X121424731Y-53830244D01*
X122100000Y-53964563D01*
X122775269Y-53830244D01*
X123347734Y-53447734D01*
X123730244Y-52875269D01*
X123753847Y-52756607D01*
X124629123Y-52756607D01*
X124629123Y-53043391D01*
X124705243Y-53426074D01*
X124814990Y-53691027D01*
X125031762Y-54015451D01*
X125148748Y-54132436D01*
X125234549Y-54218237D01*
X125558973Y-54435010D01*
X125636576Y-54467154D01*
X125823926Y-54544757D01*
X126206609Y-54620877D01*
X126279000Y-54620877D01*
X126350000Y-54635000D01*
X133850000Y-54635000D01*
X133921000Y-54620877D01*
X133993391Y-54620877D01*
X134376074Y-54544757D01*
X134641027Y-54435010D01*
X134965451Y-54218238D01*
X135100641Y-54083046D01*
X135168237Y-54015451D01*
X135385010Y-53691027D01*
X135417154Y-53613424D01*
X135494757Y-53426074D01*
X135570877Y-53043391D01*
X135570877Y-52756607D01*
X135494757Y-52373926D01*
X135385010Y-52108974D01*
X135385010Y-52108973D01*
X135168237Y-51784549D01*
X135100641Y-51716954D01*
X134965451Y-51581762D01*
X134641027Y-51364990D01*
X134376074Y-51255243D01*
X133993391Y-51179123D01*
X133921000Y-51179123D01*
X133850000Y-51165000D01*
X126350000Y-51165000D01*
X126279000Y-51179123D01*
X126206609Y-51179123D01*
X125823926Y-51255243D01*
X125636576Y-51332846D01*
X125558973Y-51364990D01*
X125234549Y-51581763D01*
X125166954Y-51649359D01*
X125031762Y-51784549D01*
X124814990Y-52108973D01*
X124758668Y-52244946D01*
X124705243Y-52373926D01*
X124629123Y-52756607D01*
X123753847Y-52756607D01*
X123864563Y-52200000D01*
X123730244Y-51524731D01*
X123347734Y-50952266D01*
X122985158Y-50710000D01*
X137318892Y-50710000D01*
X136774051Y-51074051D01*
X136367564Y-51682402D01*
X136224825Y-52400000D01*
X136367564Y-53117598D01*
X136774051Y-53725949D01*
X137382402Y-54132436D01*
X138100000Y-54275175D01*
X138817598Y-54132436D01*
X139425949Y-53725949D01*
X139832436Y-53117598D01*
X139975175Y-52400000D01*
X139832436Y-51682402D01*
X139425949Y-51074051D01*
X138881108Y-50710000D01*
X149290000Y-50710000D01*
X149290000Y-109290000D01*
X100710000Y-109290000D01*
X100710000Y-88400000D01*
X120224825Y-88400000D01*
X120367564Y-89117598D01*
X120774051Y-89725949D01*
X121382402Y-90132436D01*
X122100000Y-90275175D01*
X122817598Y-90132436D01*
X123425949Y-89725949D01*
X123832436Y-89117598D01*
X123975175Y-88400000D01*
X123837251Y-87706607D01*
X124629123Y-87706607D01*
X124629123Y-87993391D01*
X124705243Y-88376074D01*
X124814990Y-88641027D01*
X125031762Y-88965451D01*
X125166954Y-89100641D01*
X125234549Y-89168237D01*
X125558973Y-89385010D01*
X125636576Y-89417154D01*
X125823926Y-89494757D01*
X126206609Y-89570877D01*
X126279000Y-89570877D01*
X126350000Y-89585000D01*
X133850000Y-89585000D01*
X133921000Y-89570877D01*
X133993391Y-89570877D01*
X134376074Y-89494757D01*
X134641027Y-89385010D01*
X134965451Y-89168238D01*
X135100641Y-89033046D01*
X135168237Y-88965451D01*
X135385010Y-88641027D01*
X135420621Y-88555054D01*
X135484846Y-88400000D01*
X136246966Y-88400000D01*
X136388020Y-89109125D01*
X136789707Y-89710293D01*
X137390875Y-90111980D01*
X138100000Y-90253034D01*
X138809125Y-90111980D01*
X139410293Y-89710293D01*
X139811980Y-89109125D01*
X139953034Y-88400000D01*
X139811980Y-87690875D01*
X139410293Y-87089707D01*
X138809125Y-86688020D01*
X138100000Y-86546966D01*
X137390875Y-86688020D01*
X136789707Y-87089707D01*
X136388020Y-87690875D01*
X136246966Y-88400000D01*
X135484846Y-88400000D01*
X135494757Y-88376074D01*
X135570877Y-87993391D01*
X135570877Y-87706607D01*
X135494757Y-87323926D01*
X135385010Y-87058974D01*
X135385010Y-87058973D01*
X135168237Y-86734549D01*
X135100641Y-86666954D01*
X134965451Y-86531762D01*
X134641027Y-86314990D01*
X134376074Y-86205243D01*
X133993391Y-86129123D01*
X133921000Y-86129123D01*
X133850000Y-86115000D01*
X126350000Y-86115000D01*
X126279000Y-86129123D01*
X126206609Y-86129123D01*
X125823926Y-86205243D01*
X125636576Y-86282846D01*
X125558973Y-86314990D01*
X125234549Y-86531763D01*
X125166954Y-86599359D01*
X125031762Y-86734549D01*
X124814990Y-87058973D01*
X124802260Y-87089707D01*
X124705243Y-87323926D01*
X124629123Y-87706607D01*
X123837251Y-87706607D01*
X123832436Y-87682402D01*
X123425949Y-87074051D01*
X122817598Y-86667564D01*
X122100000Y-86524825D01*
X121382402Y-86667564D01*
X120774051Y-87074051D01*
X120367564Y-87682402D01*
X120224825Y-88400000D01*
X100710000Y-88400000D01*
X100710000Y-84206607D01*
X121029123Y-84206607D01*
X121029123Y-84493391D01*
X121105243Y-84876074D01*
X121214990Y-85141027D01*
X121431762Y-85465451D01*
X121566954Y-85600641D01*
X121634549Y-85668237D01*
X121958973Y-85885010D01*
X122036576Y-85917154D01*
X122223926Y-85994757D01*
X122606609Y-86070877D01*
X122679000Y-86070877D01*
X122750000Y-86085000D01*
X137450000Y-86085000D01*
X137521000Y-86070877D01*
X137593391Y-86070877D01*
X137976074Y-85994757D01*
X138241027Y-85885010D01*
X138565451Y-85668238D01*
X138700641Y-85533046D01*
X138768237Y-85465451D01*
X138985010Y-85141027D01*
X139017154Y-85063424D01*
X139094757Y-84876074D01*
X139170877Y-84493391D01*
X139170877Y-84206607D01*
X139094757Y-83823926D01*
X138985010Y-83558974D01*
X138985010Y-83558973D01*
X138768237Y-83234549D01*
X138700641Y-83166954D01*
X138565451Y-83031762D01*
X138241027Y-82814990D01*
X137976074Y-82705243D01*
X137593391Y-82629123D01*
X137521000Y-82629123D01*
X137450000Y-82615000D01*
X122750000Y-82615000D01*
X122679000Y-82629123D01*
X122606609Y-82629123D01*
X122223926Y-82705243D01*
X122036576Y-82782846D01*
X121958973Y-82814990D01*
X121634549Y-83031763D01*
X121566954Y-83099359D01*
X121431762Y-83234549D01*
X121214990Y-83558973D01*
X121214990Y-83558974D01*
X121105243Y-83823926D01*
X121029123Y-84206607D01*
X100710000Y-84206607D01*
X100710000Y-80706607D01*
X119979123Y-80706607D01*
X119979123Y-80993391D01*
X120055243Y-81376074D01*
X120164990Y-81641027D01*
X120381762Y-81965451D01*
X120516954Y-82100641D01*
X120584549Y-82168237D01*
X120908973Y-82385010D01*
X120986576Y-82417154D01*
X121173926Y-82494757D01*
X121556609Y-82570877D01*
X121629000Y-82570877D01*
X121700000Y-82585000D01*
X138500000Y-82585000D01*
X138571000Y-82570877D01*
X138643391Y-82570877D01*
X139026074Y-82494757D01*
X139291027Y-82385010D01*
X139615451Y-82168238D01*
X139750641Y-82033046D01*
X139818237Y-81965451D01*
X140035010Y-81641027D01*
X140067154Y-81563424D01*
X140144757Y-81376074D01*
X140220877Y-80993391D01*
X140220877Y-80706607D01*
X140144757Y-80323926D01*
X140035010Y-80058974D01*
X140035010Y-80058973D01*
X139818237Y-79734549D01*
X139750641Y-79666954D01*
X139615451Y-79531762D01*
X139291027Y-79314990D01*
X139026074Y-79205243D01*
X138643391Y-79129123D01*
X138571000Y-79129123D01*
X138500000Y-79115000D01*
X121750000Y-79115000D01*
X121679000Y-79129123D01*
X121556609Y-79129123D01*
X121173926Y-79205243D01*
X120986576Y-79282846D01*
X120908973Y-79314990D01*
X120584549Y-79531763D01*
X120516954Y-79599359D01*
X120381762Y-79734549D01*
X120164990Y-80058973D01*
X120164990Y-80058974D01*
X120055243Y-80323926D01*
X119979123Y-80706607D01*
X100710000Y-80706607D01*
X100710000Y-77206608D01*
X119979123Y-77206608D01*
X119979123Y-77543392D01*
X119998257Y-77589585D01*
X120055243Y-77876074D01*
X120164990Y-78141027D01*
X120381762Y-78465451D01*
X120516954Y-78600641D01*
X120584549Y-78668237D01*
X120908973Y-78885010D01*
X120986576Y-78917154D01*
X121173926Y-78994757D01*
X121556609Y-79070877D01*
X121629000Y-79070877D01*
X121700000Y-79085000D01*
X138500000Y-79085000D01*
X138571000Y-79070877D01*
X138643391Y-79070877D01*
X139026074Y-78994757D01*
X139291027Y-78885010D01*
X139615451Y-78668238D01*
X139750641Y-78533046D01*
X139818237Y-78465451D01*
X140035010Y-78141027D01*
X140088815Y-78011129D01*
X140144757Y-77876074D01*
X140201743Y-77589585D01*
X140220877Y-77543392D01*
X140220877Y-77206608D01*
X140201743Y-77160415D01*
X140144757Y-76873926D01*
X140064957Y-76681272D01*
X140035010Y-76608973D01*
X139818237Y-76284549D01*
X139750641Y-76216954D01*
X139615451Y-76081762D01*
X139291027Y-75864990D01*
X139026074Y-75755243D01*
X138643391Y-75679123D01*
X138571000Y-75679123D01*
X138500000Y-75665000D01*
X121700000Y-75665000D01*
X121629000Y-75679123D01*
X121556609Y-75679123D01*
X121173926Y-75755243D01*
X120986576Y-75832846D01*
X120908973Y-75864990D01*
X120584549Y-76081763D01*
X120516954Y-76149359D01*
X120381762Y-76284549D01*
X120164990Y-76608973D01*
X120135043Y-76681272D01*
X120055243Y-76873926D01*
X119998257Y-77160415D01*
X119979123Y-77206608D01*
X100710000Y-77206608D01*
X100710000Y-73756607D01*
X119979123Y-73756607D01*
X119979123Y-74043391D01*
X120055243Y-74426074D01*
X120164990Y-74691027D01*
X120381762Y-75015451D01*
X120516954Y-75150641D01*
X120584549Y-75218237D01*
X120908973Y-75435010D01*
X120986576Y-75467154D01*
X121173926Y-75544757D01*
X121556609Y-75620877D01*
X121629000Y-75620877D01*
X121700000Y-75635000D01*
X138500000Y-75635000D01*
X138571000Y-75620877D01*
X138643391Y-75620877D01*
X139026074Y-75544757D01*
X139291027Y-75435010D01*
X139615451Y-75218238D01*
X139750641Y-75083046D01*
X139818237Y-75015451D01*
X140035010Y-74691027D01*
X140067154Y-74613424D01*
X140144757Y-74426074D01*
X140220877Y-74043391D01*
X140220877Y-73756607D01*
X140144757Y-73373926D01*
X140035010Y-73108974D01*
X140035010Y-73108973D01*
X139818237Y-72784549D01*
X139750641Y-72716954D01*
X139615451Y-72581762D01*
X139291027Y-72364990D01*
X139026074Y-72255243D01*
X138643391Y-72179123D01*
X138571000Y-72179123D01*
X138500000Y-72165000D01*
X121700000Y-72165000D01*
X121629000Y-72179123D01*
X121556609Y-72179123D01*
X121173926Y-72255243D01*
X120986576Y-72332846D01*
X120908973Y-72364990D01*
X120584549Y-72581763D01*
X120516954Y-72649359D01*
X120381762Y-72784549D01*
X120164990Y-73108973D01*
X120164990Y-73108974D01*
X120055243Y-73373926D01*
X119979123Y-73756607D01*
X100710000Y-73756607D01*
X100710000Y-70256607D01*
X119979123Y-70256607D01*
X119979123Y-70543391D01*
X120055243Y-70926074D01*
X120164990Y-71191027D01*
X120381762Y-71515451D01*
X120516954Y-71650641D01*
X120584549Y-71718237D01*
X120908973Y-71935010D01*
X120986576Y-71967154D01*
X121173926Y-72044757D01*
X121556609Y-72120877D01*
X121629000Y-72120877D01*
X121700000Y-72135000D01*
X138500000Y-72135000D01*
X138571000Y-72120877D01*
X138643391Y-72120877D01*
X139026074Y-72044757D01*
X139291027Y-71935010D01*
X139615451Y-71718238D01*
X139750641Y-71583046D01*
X139818237Y-71515451D01*
X140035010Y-71191027D01*
X140067154Y-71113424D01*
X140144757Y-70926074D01*
X140220877Y-70543391D01*
X140220877Y-70256607D01*
X140144757Y-69873926D01*
X140035010Y-69608974D01*
X140035010Y-69608973D01*
X139818237Y-69284549D01*
X139750641Y-69216954D01*
X139615451Y-69081762D01*
X139291027Y-68864990D01*
X139026074Y-68755243D01*
X138643391Y-68679123D01*
X138571000Y-68679123D01*
X138500000Y-68665000D01*
X121700000Y-68665000D01*
X121629000Y-68679123D01*
X121556609Y-68679123D01*
X121173926Y-68755243D01*
X120986576Y-68832846D01*
X120908973Y-68864990D01*
X120584549Y-69081763D01*
X120516954Y-69149359D01*
X120381762Y-69284549D01*
X120164990Y-69608973D01*
X120164990Y-69608974D01*
X120055243Y-69873926D01*
X119979123Y-70256607D01*
X100710000Y-70256607D01*
X100710000Y-66756607D01*
X119979123Y-66756607D01*
X119979123Y-67043391D01*
X120055243Y-67426074D01*
X120164990Y-67691027D01*
X120381762Y-68015451D01*
X120516954Y-68150641D01*
X120584549Y-68218237D01*
X120908973Y-68435010D01*
X120986576Y-68467154D01*
X121173926Y-68544757D01*
X121556609Y-68620877D01*
X121629000Y-68620877D01*
X121700000Y-68635000D01*
X138500000Y-68635000D01*
X138571000Y-68620877D01*
X138643391Y-68620877D01*
X139026074Y-68544757D01*
X139291027Y-68435010D01*
X139615451Y-68218238D01*
X139750641Y-68083046D01*
X139818237Y-68015451D01*
X140035010Y-67691027D01*
X140067154Y-67613424D01*
X140144757Y-67426074D01*
X140220877Y-67043391D01*
X140220877Y-66756607D01*
X140144757Y-66373926D01*
X140035010Y-66108974D01*
X140035010Y-66108973D01*
X139818237Y-65784549D01*
X139750641Y-65716954D01*
X139615451Y-65581762D01*
X139291027Y-65364990D01*
X139026074Y-65255243D01*
X138643391Y-65179123D01*
X138571000Y-65179123D01*
X138500000Y-65165000D01*
X121700000Y-65165000D01*
X121629000Y-65179123D01*
X121556609Y-65179123D01*
X121173926Y-65255243D01*
X120986576Y-65332846D01*
X120908973Y-65364990D01*
X120584549Y-65581763D01*
X120516954Y-65649359D01*
X120381762Y-65784549D01*
X120164990Y-66108973D01*
X120164990Y-66108974D01*
X120055243Y-66373926D01*
X119979123Y-66756607D01*
X100710000Y-66756607D01*
X100710000Y-63256607D01*
X119979123Y-63256607D01*
X119979123Y-63543391D01*
X120055243Y-63926074D01*
X120164990Y-64191027D01*
X120381762Y-64515451D01*
X120516954Y-64650641D01*
X120584549Y-64718237D01*
X120908973Y-64935010D01*
X120986576Y-64967154D01*
X121173926Y-65044757D01*
X121556609Y-65120877D01*
X121629000Y-65120877D01*
X121700000Y-65135000D01*
X138500000Y-65135000D01*
X138571000Y-65120877D01*
X138643391Y-65120877D01*
X139026074Y-65044757D01*
X139291027Y-64935010D01*
X139615451Y-64718238D01*
X139750641Y-64583046D01*
X139818237Y-64515451D01*
X140035010Y-64191027D01*
X140067154Y-64113424D01*
X140144757Y-63926074D01*
X140220877Y-63543391D01*
X140220877Y-63256607D01*
X140144757Y-62873926D01*
X140035010Y-62608974D01*
X140035010Y-62608973D01*
X139818237Y-62284549D01*
X139750641Y-62216954D01*
X139615451Y-62081762D01*
X139291027Y-61864990D01*
X139026074Y-61755243D01*
X138643391Y-61679123D01*
X138571000Y-61679123D01*
X138500000Y-61665000D01*
X121700000Y-61665000D01*
X121629000Y-61679123D01*
X121556609Y-61679123D01*
X121173926Y-61755243D01*
X120986576Y-61832846D01*
X120908973Y-61864990D01*
X120584549Y-62081763D01*
X120516954Y-62149359D01*
X120381762Y-62284549D01*
X120164990Y-62608973D01*
X120164990Y-62608974D01*
X120055243Y-62873926D01*
X119979123Y-63256607D01*
X100710000Y-63256607D01*
X100710000Y-59756607D01*
X119979123Y-59756607D01*
X119979123Y-60043391D01*
X120055243Y-60426074D01*
X120164990Y-60691027D01*
X120381762Y-61015451D01*
X120516954Y-61150641D01*
X120584549Y-61218237D01*
X120908973Y-61435010D01*
X120986576Y-61467154D01*
X121173926Y-61544757D01*
X121556609Y-61620877D01*
X121629000Y-61620877D01*
X121700000Y-61635000D01*
X138500000Y-61635000D01*
X138571000Y-61620877D01*
X138643391Y-61620877D01*
X139026074Y-61544757D01*
X139291027Y-61435010D01*
X139615451Y-61218238D01*
X139750641Y-61083046D01*
X139818237Y-61015451D01*
X140035010Y-60691027D01*
X140067154Y-60613424D01*
X140144757Y-60426074D01*
X140220877Y-60043391D01*
X140220877Y-59756607D01*
X140144757Y-59373926D01*
X140035010Y-59108974D01*
X140035010Y-59108973D01*
X139818237Y-58784549D01*
X139750641Y-58716954D01*
X139615451Y-58581762D01*
X139291027Y-58364990D01*
X139026074Y-58255243D01*
X138643391Y-58179123D01*
X138571000Y-58179123D01*
X138500000Y-58165000D01*
X121700000Y-58165000D01*
X121629000Y-58179123D01*
X121556609Y-58179123D01*
X121173926Y-58255243D01*
X120986576Y-58332846D01*
X120908973Y-58364990D01*
X120584549Y-58581763D01*
X120516954Y-58649359D01*
X120381762Y-58784549D01*
X120164990Y-59108973D01*
X120164990Y-59108974D01*
X120055243Y-59373926D01*
X119979123Y-59756607D01*
X100710000Y-59756607D01*
X100710000Y-56256607D01*
X121029123Y-56256607D01*
X121029123Y-56543391D01*
X121105243Y-56926074D01*
X121214990Y-57191027D01*
X121431762Y-57515451D01*
X121566954Y-57650641D01*
X121634549Y-57718237D01*
X121958973Y-57935010D01*
X122036576Y-57967154D01*
X122223926Y-58044757D01*
X122606609Y-58120877D01*
X122679000Y-58120877D01*
X122750000Y-58135000D01*
X137450000Y-58135000D01*
X137521000Y-58120877D01*
X137593391Y-58120877D01*
X137976074Y-58044757D01*
X138241027Y-57935010D01*
X138565451Y-57718238D01*
X138700641Y-57583046D01*
X138768237Y-57515451D01*
X138985010Y-57191027D01*
X139017154Y-57113424D01*
X139094757Y-56926074D01*
X139170877Y-56543391D01*
X139170877Y-56256607D01*
X139094757Y-55873926D01*
X138985010Y-55608974D01*
X138985010Y-55608973D01*
X138768237Y-55284549D01*
X138700641Y-55216954D01*
X138565451Y-55081762D01*
X138241027Y-54864990D01*
X137976074Y-54755243D01*
X137593391Y-54679123D01*
X137521000Y-54679123D01*
X137450000Y-54665000D01*
X122750000Y-54665000D01*
X122679000Y-54679123D01*
X122606609Y-54679123D01*
X122223926Y-54755243D01*
X122036576Y-54832846D01*
X121958973Y-54864990D01*
X121634549Y-55081763D01*
X121566954Y-55149359D01*
X121431762Y-55284549D01*
X121214990Y-55608973D01*
X121214990Y-55608974D01*
X121105243Y-55873926D01*
X121029123Y-56256607D01*
X100710000Y-56256607D01*
X100710000Y-50710000D01*
X121214842Y-50710000D01*
X120852266Y-50952266D01*
X120852266Y-50952266D01*
G37*
X120852266Y-50952266D02*
X120469756Y-51524731D01*
X120335437Y-52200000D01*
X120469756Y-52875269D01*
X120852266Y-53447734D01*
X121424731Y-53830244D01*
X122100000Y-53964563D01*
X122775269Y-53830244D01*
X123347734Y-53447734D01*
X123730244Y-52875269D01*
X123753847Y-52756607D01*
X124629123Y-52756607D01*
X124629123Y-53043391D01*
X124705243Y-53426074D01*
X124814990Y-53691027D01*
X125031762Y-54015451D01*
X125148748Y-54132436D01*
X125234549Y-54218237D01*
X125558973Y-54435010D01*
X125636576Y-54467154D01*
X125823926Y-54544757D01*
X126206609Y-54620877D01*
X126279000Y-54620877D01*
X126350000Y-54635000D01*
X133850000Y-54635000D01*
X133921000Y-54620877D01*
X133993391Y-54620877D01*
X134376074Y-54544757D01*
X134641027Y-54435010D01*
X134965451Y-54218238D01*
X135100641Y-54083046D01*
X135168237Y-54015451D01*
X135385010Y-53691027D01*
X135417154Y-53613424D01*
X135494757Y-53426074D01*
X135570877Y-53043391D01*
X135570877Y-52756607D01*
X135494757Y-52373926D01*
X135385010Y-52108974D01*
X135385010Y-52108973D01*
X135168237Y-51784549D01*
X135100641Y-51716954D01*
X134965451Y-51581762D01*
X134641027Y-51364990D01*
X134376074Y-51255243D01*
X133993391Y-51179123D01*
X133921000Y-51179123D01*
X133850000Y-51165000D01*
X126350000Y-51165000D01*
X126279000Y-51179123D01*
X126206609Y-51179123D01*
X125823926Y-51255243D01*
X125636576Y-51332846D01*
X125558973Y-51364990D01*
X125234549Y-51581763D01*
X125166954Y-51649359D01*
X125031762Y-51784549D01*
X124814990Y-52108973D01*
X124758668Y-52244946D01*
X124705243Y-52373926D01*
X124629123Y-52756607D01*
X123753847Y-52756607D01*
X123864563Y-52200000D01*
X123730244Y-51524731D01*
X123347734Y-50952266D01*
X122985158Y-50710000D01*
X137318892Y-50710000D01*
X136774051Y-51074051D01*
X136367564Y-51682402D01*
X136224825Y-52400000D01*
X136367564Y-53117598D01*
X136774051Y-53725949D01*
X137382402Y-54132436D01*
X138100000Y-54275175D01*
X138817598Y-54132436D01*
X139425949Y-53725949D01*
X139832436Y-53117598D01*
X139975175Y-52400000D01*
X139832436Y-51682402D01*
X139425949Y-51074051D01*
X138881108Y-50710000D01*
X149290000Y-50710000D01*
X149290000Y-109290000D01*
X100710000Y-109290000D01*
X100710000Y-88400000D01*
X120224825Y-88400000D01*
X120367564Y-89117598D01*
X120774051Y-89725949D01*
X121382402Y-90132436D01*
X122100000Y-90275175D01*
X122817598Y-90132436D01*
X123425949Y-89725949D01*
X123832436Y-89117598D01*
X123975175Y-88400000D01*
X123837251Y-87706607D01*
X124629123Y-87706607D01*
X124629123Y-87993391D01*
X124705243Y-88376074D01*
X124814990Y-88641027D01*
X125031762Y-88965451D01*
X125166954Y-89100641D01*
X125234549Y-89168237D01*
X125558973Y-89385010D01*
X125636576Y-89417154D01*
X125823926Y-89494757D01*
X126206609Y-89570877D01*
X126279000Y-89570877D01*
X126350000Y-89585000D01*
X133850000Y-89585000D01*
X133921000Y-89570877D01*
X133993391Y-89570877D01*
X134376074Y-89494757D01*
X134641027Y-89385010D01*
X134965451Y-89168238D01*
X135100641Y-89033046D01*
X135168237Y-88965451D01*
X135385010Y-88641027D01*
X135420621Y-88555054D01*
X135484846Y-88400000D01*
X136246966Y-88400000D01*
X136388020Y-89109125D01*
X136789707Y-89710293D01*
X137390875Y-90111980D01*
X138100000Y-90253034D01*
X138809125Y-90111980D01*
X139410293Y-89710293D01*
X139811980Y-89109125D01*
X139953034Y-88400000D01*
X139811980Y-87690875D01*
X139410293Y-87089707D01*
X138809125Y-86688020D01*
X138100000Y-86546966D01*
X137390875Y-86688020D01*
X136789707Y-87089707D01*
X136388020Y-87690875D01*
X136246966Y-88400000D01*
X135484846Y-88400000D01*
X135494757Y-88376074D01*
X135570877Y-87993391D01*
X135570877Y-87706607D01*
X135494757Y-87323926D01*
X135385010Y-87058974D01*
X135385010Y-87058973D01*
X135168237Y-86734549D01*
X135100641Y-86666954D01*
X134965451Y-86531762D01*
X134641027Y-86314990D01*
X134376074Y-86205243D01*
X133993391Y-86129123D01*
X133921000Y-86129123D01*
X133850000Y-86115000D01*
X126350000Y-86115000D01*
X126279000Y-86129123D01*
X126206609Y-86129123D01*
X125823926Y-86205243D01*
X125636576Y-86282846D01*
X125558973Y-86314990D01*
X125234549Y-86531763D01*
X125166954Y-86599359D01*
X125031762Y-86734549D01*
X124814990Y-87058973D01*
X124802260Y-87089707D01*
X124705243Y-87323926D01*
X124629123Y-87706607D01*
X123837251Y-87706607D01*
X123832436Y-87682402D01*
X123425949Y-87074051D01*
X122817598Y-86667564D01*
X122100000Y-86524825D01*
X121382402Y-86667564D01*
X120774051Y-87074051D01*
X120367564Y-87682402D01*
X120224825Y-88400000D01*
X100710000Y-88400000D01*
X100710000Y-84206607D01*
X121029123Y-84206607D01*
X121029123Y-84493391D01*
X121105243Y-84876074D01*
X121214990Y-85141027D01*
X121431762Y-85465451D01*
X121566954Y-85600641D01*
X121634549Y-85668237D01*
X121958973Y-85885010D01*
X122036576Y-85917154D01*
X122223926Y-85994757D01*
X122606609Y-86070877D01*
X122679000Y-86070877D01*
X122750000Y-86085000D01*
X137450000Y-86085000D01*
X137521000Y-86070877D01*
X137593391Y-86070877D01*
X137976074Y-85994757D01*
X138241027Y-85885010D01*
X138565451Y-85668238D01*
X138700641Y-85533046D01*
X138768237Y-85465451D01*
X138985010Y-85141027D01*
X139017154Y-85063424D01*
X139094757Y-84876074D01*
X139170877Y-84493391D01*
X139170877Y-84206607D01*
X139094757Y-83823926D01*
X138985010Y-83558974D01*
X138985010Y-83558973D01*
X138768237Y-83234549D01*
X138700641Y-83166954D01*
X138565451Y-83031762D01*
X138241027Y-82814990D01*
X137976074Y-82705243D01*
X137593391Y-82629123D01*
X137521000Y-82629123D01*
X137450000Y-82615000D01*
X122750000Y-82615000D01*
X122679000Y-82629123D01*
X122606609Y-82629123D01*
X122223926Y-82705243D01*
X122036576Y-82782846D01*
X121958973Y-82814990D01*
X121634549Y-83031763D01*
X121566954Y-83099359D01*
X121431762Y-83234549D01*
X121214990Y-83558973D01*
X121214990Y-83558974D01*
X121105243Y-83823926D01*
X121029123Y-84206607D01*
X100710000Y-84206607D01*
X100710000Y-80706607D01*
X119979123Y-80706607D01*
X119979123Y-80993391D01*
X120055243Y-81376074D01*
X120164990Y-81641027D01*
X120381762Y-81965451D01*
X120516954Y-82100641D01*
X120584549Y-82168237D01*
X120908973Y-82385010D01*
X120986576Y-82417154D01*
X121173926Y-82494757D01*
X121556609Y-82570877D01*
X121629000Y-82570877D01*
X121700000Y-82585000D01*
X138500000Y-82585000D01*
X138571000Y-82570877D01*
X138643391Y-82570877D01*
X139026074Y-82494757D01*
X139291027Y-82385010D01*
X139615451Y-82168238D01*
X139750641Y-82033046D01*
X139818237Y-81965451D01*
X140035010Y-81641027D01*
X140067154Y-81563424D01*
X140144757Y-81376074D01*
X140220877Y-80993391D01*
X140220877Y-80706607D01*
X140144757Y-80323926D01*
X140035010Y-80058974D01*
X140035010Y-80058973D01*
X139818237Y-79734549D01*
X139750641Y-79666954D01*
X139615451Y-79531762D01*
X139291027Y-79314990D01*
X139026074Y-79205243D01*
X138643391Y-79129123D01*
X138571000Y-79129123D01*
X138500000Y-79115000D01*
X121750000Y-79115000D01*
X121679000Y-79129123D01*
X121556609Y-79129123D01*
X121173926Y-79205243D01*
X120986576Y-79282846D01*
X120908973Y-79314990D01*
X120584549Y-79531763D01*
X120516954Y-79599359D01*
X120381762Y-79734549D01*
X120164990Y-80058973D01*
X120164990Y-80058974D01*
X120055243Y-80323926D01*
X119979123Y-80706607D01*
X100710000Y-80706607D01*
X100710000Y-77206608D01*
X119979123Y-77206608D01*
X119979123Y-77543392D01*
X119998257Y-77589585D01*
X120055243Y-77876074D01*
X120164990Y-78141027D01*
X120381762Y-78465451D01*
X120516954Y-78600641D01*
X120584549Y-78668237D01*
X120908973Y-78885010D01*
X120986576Y-78917154D01*
X121173926Y-78994757D01*
X121556609Y-79070877D01*
X121629000Y-79070877D01*
X121700000Y-79085000D01*
X138500000Y-79085000D01*
X138571000Y-79070877D01*
X138643391Y-79070877D01*
X139026074Y-78994757D01*
X139291027Y-78885010D01*
X139615451Y-78668238D01*
X139750641Y-78533046D01*
X139818237Y-78465451D01*
X140035010Y-78141027D01*
X140088815Y-78011129D01*
X140144757Y-77876074D01*
X140201743Y-77589585D01*
X140220877Y-77543392D01*
X140220877Y-77206608D01*
X140201743Y-77160415D01*
X140144757Y-76873926D01*
X140064957Y-76681272D01*
X140035010Y-76608973D01*
X139818237Y-76284549D01*
X139750641Y-76216954D01*
X139615451Y-76081762D01*
X139291027Y-75864990D01*
X139026074Y-75755243D01*
X138643391Y-75679123D01*
X138571000Y-75679123D01*
X138500000Y-75665000D01*
X121700000Y-75665000D01*
X121629000Y-75679123D01*
X121556609Y-75679123D01*
X121173926Y-75755243D01*
X120986576Y-75832846D01*
X120908973Y-75864990D01*
X120584549Y-76081763D01*
X120516954Y-76149359D01*
X120381762Y-76284549D01*
X120164990Y-76608973D01*
X120135043Y-76681272D01*
X120055243Y-76873926D01*
X119998257Y-77160415D01*
X119979123Y-77206608D01*
X100710000Y-77206608D01*
X100710000Y-73756607D01*
X119979123Y-73756607D01*
X119979123Y-74043391D01*
X120055243Y-74426074D01*
X120164990Y-74691027D01*
X120381762Y-75015451D01*
X120516954Y-75150641D01*
X120584549Y-75218237D01*
X120908973Y-75435010D01*
X120986576Y-75467154D01*
X121173926Y-75544757D01*
X121556609Y-75620877D01*
X121629000Y-75620877D01*
X121700000Y-75635000D01*
X138500000Y-75635000D01*
X138571000Y-75620877D01*
X138643391Y-75620877D01*
X139026074Y-75544757D01*
X139291027Y-75435010D01*
X139615451Y-75218238D01*
X139750641Y-75083046D01*
X139818237Y-75015451D01*
X140035010Y-74691027D01*
X140067154Y-74613424D01*
X140144757Y-74426074D01*
X140220877Y-74043391D01*
X140220877Y-73756607D01*
X140144757Y-73373926D01*
X140035010Y-73108974D01*
X140035010Y-73108973D01*
X139818237Y-72784549D01*
X139750641Y-72716954D01*
X139615451Y-72581762D01*
X139291027Y-72364990D01*
X139026074Y-72255243D01*
X138643391Y-72179123D01*
X138571000Y-72179123D01*
X138500000Y-72165000D01*
X121700000Y-72165000D01*
X121629000Y-72179123D01*
X121556609Y-72179123D01*
X121173926Y-72255243D01*
X120986576Y-72332846D01*
X120908973Y-72364990D01*
X120584549Y-72581763D01*
X120516954Y-72649359D01*
X120381762Y-72784549D01*
X120164990Y-73108973D01*
X120164990Y-73108974D01*
X120055243Y-73373926D01*
X119979123Y-73756607D01*
X100710000Y-73756607D01*
X100710000Y-70256607D01*
X119979123Y-70256607D01*
X119979123Y-70543391D01*
X120055243Y-70926074D01*
X120164990Y-71191027D01*
X120381762Y-71515451D01*
X120516954Y-71650641D01*
X120584549Y-71718237D01*
X120908973Y-71935010D01*
X120986576Y-71967154D01*
X121173926Y-72044757D01*
X121556609Y-72120877D01*
X121629000Y-72120877D01*
X121700000Y-72135000D01*
X138500000Y-72135000D01*
X138571000Y-72120877D01*
X138643391Y-72120877D01*
X139026074Y-72044757D01*
X139291027Y-71935010D01*
X139615451Y-71718238D01*
X139750641Y-71583046D01*
X139818237Y-71515451D01*
X140035010Y-71191027D01*
X140067154Y-71113424D01*
X140144757Y-70926074D01*
X140220877Y-70543391D01*
X140220877Y-70256607D01*
X140144757Y-69873926D01*
X140035010Y-69608974D01*
X140035010Y-69608973D01*
X139818237Y-69284549D01*
X139750641Y-69216954D01*
X139615451Y-69081762D01*
X139291027Y-68864990D01*
X139026074Y-68755243D01*
X138643391Y-68679123D01*
X138571000Y-68679123D01*
X138500000Y-68665000D01*
X121700000Y-68665000D01*
X121629000Y-68679123D01*
X121556609Y-68679123D01*
X121173926Y-68755243D01*
X120986576Y-68832846D01*
X120908973Y-68864990D01*
X120584549Y-69081763D01*
X120516954Y-69149359D01*
X120381762Y-69284549D01*
X120164990Y-69608973D01*
X120164990Y-69608974D01*
X120055243Y-69873926D01*
X119979123Y-70256607D01*
X100710000Y-70256607D01*
X100710000Y-66756607D01*
X119979123Y-66756607D01*
X119979123Y-67043391D01*
X120055243Y-67426074D01*
X120164990Y-67691027D01*
X120381762Y-68015451D01*
X120516954Y-68150641D01*
X120584549Y-68218237D01*
X120908973Y-68435010D01*
X120986576Y-68467154D01*
X121173926Y-68544757D01*
X121556609Y-68620877D01*
X121629000Y-68620877D01*
X121700000Y-68635000D01*
X138500000Y-68635000D01*
X138571000Y-68620877D01*
X138643391Y-68620877D01*
X139026074Y-68544757D01*
X139291027Y-68435010D01*
X139615451Y-68218238D01*
X139750641Y-68083046D01*
X139818237Y-68015451D01*
X140035010Y-67691027D01*
X140067154Y-67613424D01*
X140144757Y-67426074D01*
X140220877Y-67043391D01*
X140220877Y-66756607D01*
X140144757Y-66373926D01*
X140035010Y-66108974D01*
X140035010Y-66108973D01*
X139818237Y-65784549D01*
X139750641Y-65716954D01*
X139615451Y-65581762D01*
X139291027Y-65364990D01*
X139026074Y-65255243D01*
X138643391Y-65179123D01*
X138571000Y-65179123D01*
X138500000Y-65165000D01*
X121700000Y-65165000D01*
X121629000Y-65179123D01*
X121556609Y-65179123D01*
X121173926Y-65255243D01*
X120986576Y-65332846D01*
X120908973Y-65364990D01*
X120584549Y-65581763D01*
X120516954Y-65649359D01*
X120381762Y-65784549D01*
X120164990Y-66108973D01*
X120164990Y-66108974D01*
X120055243Y-66373926D01*
X119979123Y-66756607D01*
X100710000Y-66756607D01*
X100710000Y-63256607D01*
X119979123Y-63256607D01*
X119979123Y-63543391D01*
X120055243Y-63926074D01*
X120164990Y-64191027D01*
X120381762Y-64515451D01*
X120516954Y-64650641D01*
X120584549Y-64718237D01*
X120908973Y-64935010D01*
X120986576Y-64967154D01*
X121173926Y-65044757D01*
X121556609Y-65120877D01*
X121629000Y-65120877D01*
X121700000Y-65135000D01*
X138500000Y-65135000D01*
X138571000Y-65120877D01*
X138643391Y-65120877D01*
X139026074Y-65044757D01*
X139291027Y-64935010D01*
X139615451Y-64718238D01*
X139750641Y-64583046D01*
X139818237Y-64515451D01*
X140035010Y-64191027D01*
X140067154Y-64113424D01*
X140144757Y-63926074D01*
X140220877Y-63543391D01*
X140220877Y-63256607D01*
X140144757Y-62873926D01*
X140035010Y-62608974D01*
X140035010Y-62608973D01*
X139818237Y-62284549D01*
X139750641Y-62216954D01*
X139615451Y-62081762D01*
X139291027Y-61864990D01*
X139026074Y-61755243D01*
X138643391Y-61679123D01*
X138571000Y-61679123D01*
X138500000Y-61665000D01*
X121700000Y-61665000D01*
X121629000Y-61679123D01*
X121556609Y-61679123D01*
X121173926Y-61755243D01*
X120986576Y-61832846D01*
X120908973Y-61864990D01*
X120584549Y-62081763D01*
X120516954Y-62149359D01*
X120381762Y-62284549D01*
X120164990Y-62608973D01*
X120164990Y-62608974D01*
X120055243Y-62873926D01*
X119979123Y-63256607D01*
X100710000Y-63256607D01*
X100710000Y-59756607D01*
X119979123Y-59756607D01*
X119979123Y-60043391D01*
X120055243Y-60426074D01*
X120164990Y-60691027D01*
X120381762Y-61015451D01*
X120516954Y-61150641D01*
X120584549Y-61218237D01*
X120908973Y-61435010D01*
X120986576Y-61467154D01*
X121173926Y-61544757D01*
X121556609Y-61620877D01*
X121629000Y-61620877D01*
X121700000Y-61635000D01*
X138500000Y-61635000D01*
X138571000Y-61620877D01*
X138643391Y-61620877D01*
X139026074Y-61544757D01*
X139291027Y-61435010D01*
X139615451Y-61218238D01*
X139750641Y-61083046D01*
X139818237Y-61015451D01*
X140035010Y-60691027D01*
X140067154Y-60613424D01*
X140144757Y-60426074D01*
X140220877Y-60043391D01*
X140220877Y-59756607D01*
X140144757Y-59373926D01*
X140035010Y-59108974D01*
X140035010Y-59108973D01*
X139818237Y-58784549D01*
X139750641Y-58716954D01*
X139615451Y-58581762D01*
X139291027Y-58364990D01*
X139026074Y-58255243D01*
X138643391Y-58179123D01*
X138571000Y-58179123D01*
X138500000Y-58165000D01*
X121700000Y-58165000D01*
X121629000Y-58179123D01*
X121556609Y-58179123D01*
X121173926Y-58255243D01*
X120986576Y-58332846D01*
X120908973Y-58364990D01*
X120584549Y-58581763D01*
X120516954Y-58649359D01*
X120381762Y-58784549D01*
X120164990Y-59108973D01*
X120164990Y-59108974D01*
X120055243Y-59373926D01*
X119979123Y-59756607D01*
X100710000Y-59756607D01*
X100710000Y-56256607D01*
X121029123Y-56256607D01*
X121029123Y-56543391D01*
X121105243Y-56926074D01*
X121214990Y-57191027D01*
X121431762Y-57515451D01*
X121566954Y-57650641D01*
X121634549Y-57718237D01*
X121958973Y-57935010D01*
X122036576Y-57967154D01*
X122223926Y-58044757D01*
X122606609Y-58120877D01*
X122679000Y-58120877D01*
X122750000Y-58135000D01*
X137450000Y-58135000D01*
X137521000Y-58120877D01*
X137593391Y-58120877D01*
X137976074Y-58044757D01*
X138241027Y-57935010D01*
X138565451Y-57718238D01*
X138700641Y-57583046D01*
X138768237Y-57515451D01*
X138985010Y-57191027D01*
X139017154Y-57113424D01*
X139094757Y-56926074D01*
X139170877Y-56543391D01*
X139170877Y-56256607D01*
X139094757Y-55873926D01*
X138985010Y-55608974D01*
X138985010Y-55608973D01*
X138768237Y-55284549D01*
X138700641Y-55216954D01*
X138565451Y-55081762D01*
X138241027Y-54864990D01*
X137976074Y-54755243D01*
X137593391Y-54679123D01*
X137521000Y-54679123D01*
X137450000Y-54665000D01*
X122750000Y-54665000D01*
X122679000Y-54679123D01*
X122606609Y-54679123D01*
X122223926Y-54755243D01*
X122036576Y-54832846D01*
X121958973Y-54864990D01*
X121634549Y-55081763D01*
X121566954Y-55149359D01*
X121431762Y-55284549D01*
X121214990Y-55608973D01*
X121214990Y-55608974D01*
X121105243Y-55873926D01*
X121029123Y-56256607D01*
X100710000Y-56256607D01*
X100710000Y-50710000D01*
X121214842Y-50710000D01*
X120852266Y-50952266D01*
G36*
X122255054Y-88025667D02*
X122386502Y-88113498D01*
X122474333Y-88244946D01*
X122505175Y-88400000D01*
X122474333Y-88555054D01*
X122386502Y-88686502D01*
X122255054Y-88774333D01*
X122100000Y-88805175D01*
X121944946Y-88774333D01*
X121813498Y-88686502D01*
X121725667Y-88555054D01*
X121694825Y-88400000D01*
X121725667Y-88244946D01*
X121813498Y-88113498D01*
X121944946Y-88025667D01*
X122100000Y-87994825D01*
X122255054Y-88025667D01*
X122255054Y-88025667D01*
G37*
X122255054Y-88025667D02*
X122386502Y-88113498D01*
X122474333Y-88244946D01*
X122505175Y-88400000D01*
X122474333Y-88555054D01*
X122386502Y-88686502D01*
X122255054Y-88774333D01*
X122100000Y-88805175D01*
X121944946Y-88774333D01*
X121813498Y-88686502D01*
X121725667Y-88555054D01*
X121694825Y-88400000D01*
X121725667Y-88244946D01*
X121813498Y-88113498D01*
X121944946Y-88025667D01*
X122100000Y-87994825D01*
X122255054Y-88025667D01*
G36*
X138246581Y-88046123D02*
X138370846Y-88129154D01*
X138453877Y-88253419D01*
X138483034Y-88400000D01*
X138453877Y-88546581D01*
X138370846Y-88670846D01*
X138246581Y-88753877D01*
X138100000Y-88783034D01*
X137953419Y-88753877D01*
X137829154Y-88670846D01*
X137746123Y-88546581D01*
X137716966Y-88400000D01*
X137746123Y-88253419D01*
X137829154Y-88129154D01*
X137953419Y-88046123D01*
X138100000Y-88016966D01*
X138246581Y-88046123D01*
X138246581Y-88046123D01*
G37*
X138246581Y-88046123D02*
X138370846Y-88129154D01*
X138453877Y-88253419D01*
X138483034Y-88400000D01*
X138453877Y-88546581D01*
X138370846Y-88670846D01*
X138246581Y-88753877D01*
X138100000Y-88783034D01*
X137953419Y-88753877D01*
X137829154Y-88670846D01*
X137746123Y-88546581D01*
X137716966Y-88400000D01*
X137746123Y-88253419D01*
X137829154Y-88129154D01*
X137953419Y-88046123D01*
X138100000Y-88016966D01*
X138246581Y-88046123D01*
G36*
X133945901Y-87618475D02*
X134027201Y-87672798D01*
X134081525Y-87754101D01*
X134100601Y-87850000D01*
X134081525Y-87945899D01*
X134027201Y-88027202D01*
X133945901Y-88081525D01*
X133777610Y-88115000D01*
X126422390Y-88115000D01*
X126254101Y-88081525D01*
X126172798Y-88027201D01*
X126118475Y-87945901D01*
X126099399Y-87850000D01*
X126118475Y-87754099D01*
X126172798Y-87672799D01*
X126254101Y-87618475D01*
X126422390Y-87585000D01*
X133777610Y-87585000D01*
X133945901Y-87618475D01*
X133945901Y-87618475D01*
G37*
X133945901Y-87618475D02*
X134027201Y-87672798D01*
X134081525Y-87754101D01*
X134100601Y-87850000D01*
X134081525Y-87945899D01*
X134027201Y-88027202D01*
X133945901Y-88081525D01*
X133777610Y-88115000D01*
X126422390Y-88115000D01*
X126254101Y-88081525D01*
X126172798Y-88027201D01*
X126118475Y-87945901D01*
X126099399Y-87850000D01*
X126118475Y-87754099D01*
X126172798Y-87672799D01*
X126254101Y-87618475D01*
X126422390Y-87585000D01*
X133777610Y-87585000D01*
X133945901Y-87618475D01*
G36*
X137545901Y-84118475D02*
X137627201Y-84172798D01*
X137681525Y-84254101D01*
X137700601Y-84350000D01*
X137681525Y-84445899D01*
X137627201Y-84527202D01*
X137545901Y-84581525D01*
X137377610Y-84615000D01*
X122822390Y-84615000D01*
X122654101Y-84581525D01*
X122572798Y-84527201D01*
X122518475Y-84445901D01*
X122499399Y-84350000D01*
X122518475Y-84254099D01*
X122572798Y-84172799D01*
X122654101Y-84118475D01*
X122822390Y-84085000D01*
X137377610Y-84085000D01*
X137545901Y-84118475D01*
X137545901Y-84118475D01*
G37*
X137545901Y-84118475D02*
X137627201Y-84172798D01*
X137681525Y-84254101D01*
X137700601Y-84350000D01*
X137681525Y-84445899D01*
X137627201Y-84527202D01*
X137545901Y-84581525D01*
X137377610Y-84615000D01*
X122822390Y-84615000D01*
X122654101Y-84581525D01*
X122572798Y-84527201D01*
X122518475Y-84445901D01*
X122499399Y-84350000D01*
X122518475Y-84254099D01*
X122572798Y-84172799D01*
X122654101Y-84118475D01*
X122822390Y-84085000D01*
X137377610Y-84085000D01*
X137545901Y-84118475D01*
G36*
X138595901Y-80618475D02*
X138677201Y-80672798D01*
X138731525Y-80754101D01*
X138750601Y-80850000D01*
X138731525Y-80945899D01*
X138677201Y-81027202D01*
X138595901Y-81081525D01*
X138427610Y-81115000D01*
X121772390Y-81115000D01*
X121604101Y-81081525D01*
X121522798Y-81027201D01*
X121468475Y-80945901D01*
X121449399Y-80850000D01*
X121468475Y-80754099D01*
X121522798Y-80672799D01*
X121604101Y-80618475D01*
X121772390Y-80585000D01*
X138427610Y-80585000D01*
X138595901Y-80618475D01*
X138595901Y-80618475D01*
G37*
X138595901Y-80618475D02*
X138677201Y-80672798D01*
X138731525Y-80754101D01*
X138750601Y-80850000D01*
X138731525Y-80945899D01*
X138677201Y-81027202D01*
X138595901Y-81081525D01*
X138427610Y-81115000D01*
X121772390Y-81115000D01*
X121604101Y-81081525D01*
X121522798Y-81027201D01*
X121468475Y-80945901D01*
X121449399Y-80850000D01*
X121468475Y-80754099D01*
X121522798Y-80672799D01*
X121604101Y-80618475D01*
X121772390Y-80585000D01*
X138427610Y-80585000D01*
X138595901Y-80618475D01*
G36*
X138595901Y-77168475D02*
X138677201Y-77222798D01*
X138731525Y-77304101D01*
X138745628Y-77375000D01*
X138731525Y-77445899D01*
X138677201Y-77527202D01*
X138595901Y-77581525D01*
X138427610Y-77615000D01*
X121772390Y-77615000D01*
X121604101Y-77581525D01*
X121522798Y-77527201D01*
X121468475Y-77445901D01*
X121454372Y-77375000D01*
X121468475Y-77304099D01*
X121522798Y-77222799D01*
X121604101Y-77168475D01*
X121772390Y-77135000D01*
X138427610Y-77135000D01*
X138595901Y-77168475D01*
X138595901Y-77168475D01*
G37*
X138595901Y-77168475D02*
X138677201Y-77222798D01*
X138731525Y-77304101D01*
X138745628Y-77375000D01*
X138731525Y-77445899D01*
X138677201Y-77527202D01*
X138595901Y-77581525D01*
X138427610Y-77615000D01*
X121772390Y-77615000D01*
X121604101Y-77581525D01*
X121522798Y-77527201D01*
X121468475Y-77445901D01*
X121454372Y-77375000D01*
X121468475Y-77304099D01*
X121522798Y-77222799D01*
X121604101Y-77168475D01*
X121772390Y-77135000D01*
X138427610Y-77135000D01*
X138595901Y-77168475D01*
G36*
X138595901Y-73668475D02*
X138677201Y-73722798D01*
X138731525Y-73804101D01*
X138750601Y-73900000D01*
X138731525Y-73995899D01*
X138677201Y-74077202D01*
X138595901Y-74131525D01*
X138427610Y-74165000D01*
X121772390Y-74165000D01*
X121604101Y-74131525D01*
X121522798Y-74077201D01*
X121468475Y-73995901D01*
X121449399Y-73900000D01*
X121468475Y-73804099D01*
X121522798Y-73722799D01*
X121604101Y-73668475D01*
X121772390Y-73635000D01*
X138427610Y-73635000D01*
X138595901Y-73668475D01*
X138595901Y-73668475D01*
G37*
X138595901Y-73668475D02*
X138677201Y-73722798D01*
X138731525Y-73804101D01*
X138750601Y-73900000D01*
X138731525Y-73995899D01*
X138677201Y-74077202D01*
X138595901Y-74131525D01*
X138427610Y-74165000D01*
X121772390Y-74165000D01*
X121604101Y-74131525D01*
X121522798Y-74077201D01*
X121468475Y-73995901D01*
X121449399Y-73900000D01*
X121468475Y-73804099D01*
X121522798Y-73722799D01*
X121604101Y-73668475D01*
X121772390Y-73635000D01*
X138427610Y-73635000D01*
X138595901Y-73668475D01*
G36*
X138595901Y-70168475D02*
X138677201Y-70222798D01*
X138731525Y-70304101D01*
X138750601Y-70400000D01*
X138731525Y-70495899D01*
X138677201Y-70577202D01*
X138595901Y-70631525D01*
X138427610Y-70665000D01*
X121772390Y-70665000D01*
X121604101Y-70631525D01*
X121522798Y-70577201D01*
X121468475Y-70495901D01*
X121449399Y-70400000D01*
X121468475Y-70304099D01*
X121522798Y-70222799D01*
X121604101Y-70168475D01*
X121772390Y-70135000D01*
X138427610Y-70135000D01*
X138595901Y-70168475D01*
X138595901Y-70168475D01*
G37*
X138595901Y-70168475D02*
X138677201Y-70222798D01*
X138731525Y-70304101D01*
X138750601Y-70400000D01*
X138731525Y-70495899D01*
X138677201Y-70577202D01*
X138595901Y-70631525D01*
X138427610Y-70665000D01*
X121772390Y-70665000D01*
X121604101Y-70631525D01*
X121522798Y-70577201D01*
X121468475Y-70495901D01*
X121449399Y-70400000D01*
X121468475Y-70304099D01*
X121522798Y-70222799D01*
X121604101Y-70168475D01*
X121772390Y-70135000D01*
X138427610Y-70135000D01*
X138595901Y-70168475D01*
G36*
X138595901Y-66668475D02*
X138677201Y-66722798D01*
X138731525Y-66804101D01*
X138750601Y-66900000D01*
X138731525Y-66995899D01*
X138677201Y-67077202D01*
X138595901Y-67131525D01*
X138427610Y-67165000D01*
X121772390Y-67165000D01*
X121604101Y-67131525D01*
X121522798Y-67077201D01*
X121468475Y-66995901D01*
X121449399Y-66900000D01*
X121468475Y-66804099D01*
X121522798Y-66722799D01*
X121604101Y-66668475D01*
X121772390Y-66635000D01*
X138427610Y-66635000D01*
X138595901Y-66668475D01*
X138595901Y-66668475D01*
G37*
X138595901Y-66668475D02*
X138677201Y-66722798D01*
X138731525Y-66804101D01*
X138750601Y-66900000D01*
X138731525Y-66995899D01*
X138677201Y-67077202D01*
X138595901Y-67131525D01*
X138427610Y-67165000D01*
X121772390Y-67165000D01*
X121604101Y-67131525D01*
X121522798Y-67077201D01*
X121468475Y-66995901D01*
X121449399Y-66900000D01*
X121468475Y-66804099D01*
X121522798Y-66722799D01*
X121604101Y-66668475D01*
X121772390Y-66635000D01*
X138427610Y-66635000D01*
X138595901Y-66668475D01*
G36*
X138595901Y-63168475D02*
X138677201Y-63222798D01*
X138731525Y-63304101D01*
X138750601Y-63400000D01*
X138731525Y-63495899D01*
X138677201Y-63577202D01*
X138595901Y-63631525D01*
X138427610Y-63665000D01*
X121772390Y-63665000D01*
X121604101Y-63631525D01*
X121522798Y-63577201D01*
X121468475Y-63495901D01*
X121449399Y-63400000D01*
X121468475Y-63304099D01*
X121522798Y-63222799D01*
X121604101Y-63168475D01*
X121772390Y-63135000D01*
X138427610Y-63135000D01*
X138595901Y-63168475D01*
X138595901Y-63168475D01*
G37*
X138595901Y-63168475D02*
X138677201Y-63222798D01*
X138731525Y-63304101D01*
X138750601Y-63400000D01*
X138731525Y-63495899D01*
X138677201Y-63577202D01*
X138595901Y-63631525D01*
X138427610Y-63665000D01*
X121772390Y-63665000D01*
X121604101Y-63631525D01*
X121522798Y-63577201D01*
X121468475Y-63495901D01*
X121449399Y-63400000D01*
X121468475Y-63304099D01*
X121522798Y-63222799D01*
X121604101Y-63168475D01*
X121772390Y-63135000D01*
X138427610Y-63135000D01*
X138595901Y-63168475D01*
G36*
X138595901Y-59668475D02*
X138677201Y-59722798D01*
X138731525Y-59804101D01*
X138750601Y-59900000D01*
X138731525Y-59995899D01*
X138677201Y-60077202D01*
X138595901Y-60131525D01*
X138427610Y-60165000D01*
X121772390Y-60165000D01*
X121604101Y-60131525D01*
X121522798Y-60077201D01*
X121468475Y-59995901D01*
X121449399Y-59900000D01*
X121468475Y-59804099D01*
X121522798Y-59722799D01*
X121604101Y-59668475D01*
X121772390Y-59635000D01*
X138427610Y-59635000D01*
X138595901Y-59668475D01*
X138595901Y-59668475D01*
G37*
X138595901Y-59668475D02*
X138677201Y-59722798D01*
X138731525Y-59804101D01*
X138750601Y-59900000D01*
X138731525Y-59995899D01*
X138677201Y-60077202D01*
X138595901Y-60131525D01*
X138427610Y-60165000D01*
X121772390Y-60165000D01*
X121604101Y-60131525D01*
X121522798Y-60077201D01*
X121468475Y-59995901D01*
X121449399Y-59900000D01*
X121468475Y-59804099D01*
X121522798Y-59722799D01*
X121604101Y-59668475D01*
X121772390Y-59635000D01*
X138427610Y-59635000D01*
X138595901Y-59668475D01*
G36*
X137545901Y-56168475D02*
X137627201Y-56222798D01*
X137681525Y-56304101D01*
X137700601Y-56400000D01*
X137681525Y-56495899D01*
X137627201Y-56577202D01*
X137545901Y-56631525D01*
X137377610Y-56665000D01*
X122822390Y-56665000D01*
X122654101Y-56631525D01*
X122572798Y-56577201D01*
X122518475Y-56495901D01*
X122499399Y-56400000D01*
X122518475Y-56304099D01*
X122572798Y-56222799D01*
X122654101Y-56168475D01*
X122822390Y-56135000D01*
X137377610Y-56135000D01*
X137545901Y-56168475D01*
X137545901Y-56168475D01*
G37*
X137545901Y-56168475D02*
X137627201Y-56222798D01*
X137681525Y-56304101D01*
X137700601Y-56400000D01*
X137681525Y-56495899D01*
X137627201Y-56577202D01*
X137545901Y-56631525D01*
X137377610Y-56665000D01*
X122822390Y-56665000D01*
X122654101Y-56631525D01*
X122572798Y-56577201D01*
X122518475Y-56495901D01*
X122499399Y-56400000D01*
X122518475Y-56304099D01*
X122572798Y-56222799D01*
X122654101Y-56168475D01*
X122822390Y-56135000D01*
X137377610Y-56135000D01*
X137545901Y-56168475D01*
G36*
X133945901Y-52668475D02*
X134027201Y-52722798D01*
X134081525Y-52804101D01*
X134100601Y-52900000D01*
X134081525Y-52995899D01*
X134027201Y-53077202D01*
X133945901Y-53131525D01*
X133777610Y-53165000D01*
X126422390Y-53165000D01*
X126254101Y-53131525D01*
X126172798Y-53077201D01*
X126118475Y-52995901D01*
X126099399Y-52900000D01*
X126118475Y-52804099D01*
X126172798Y-52722799D01*
X126254101Y-52668475D01*
X126422390Y-52635000D01*
X133777610Y-52635000D01*
X133945901Y-52668475D01*
X133945901Y-52668475D01*
G37*
X133945901Y-52668475D02*
X134027201Y-52722798D01*
X134081525Y-52804101D01*
X134100601Y-52900000D01*
X134081525Y-52995899D01*
X134027201Y-53077202D01*
X133945901Y-53131525D01*
X133777610Y-53165000D01*
X126422390Y-53165000D01*
X126254101Y-53131525D01*
X126172798Y-53077201D01*
X126118475Y-52995901D01*
X126099399Y-52900000D01*
X126118475Y-52804099D01*
X126172798Y-52722799D01*
X126254101Y-52668475D01*
X126422390Y-52635000D01*
X133777610Y-52635000D01*
X133945901Y-52668475D01*
G36*
X138255054Y-52025667D02*
X138386502Y-52113498D01*
X138474333Y-52244946D01*
X138505175Y-52400000D01*
X138474333Y-52555054D01*
X138386502Y-52686502D01*
X138255054Y-52774333D01*
X138100000Y-52805175D01*
X137944946Y-52774333D01*
X137813498Y-52686502D01*
X137725667Y-52555054D01*
X137694825Y-52400000D01*
X137725667Y-52244946D01*
X137813498Y-52113498D01*
X137944946Y-52025667D01*
X138100000Y-51994825D01*
X138255054Y-52025667D01*
X138255054Y-52025667D01*
G37*
X138255054Y-52025667D02*
X138386502Y-52113498D01*
X138474333Y-52244946D01*
X138505175Y-52400000D01*
X138474333Y-52555054D01*
X138386502Y-52686502D01*
X138255054Y-52774333D01*
X138100000Y-52805175D01*
X137944946Y-52774333D01*
X137813498Y-52686502D01*
X137725667Y-52555054D01*
X137694825Y-52400000D01*
X137725667Y-52244946D01*
X137813498Y-52113498D01*
X137944946Y-52025667D01*
X138100000Y-51994825D01*
X138255054Y-52025667D01*
G36*
X122212724Y-51927859D02*
X122308287Y-51991713D01*
X122372141Y-52087276D01*
X122394563Y-52200000D01*
X122372141Y-52312724D01*
X122308287Y-52408287D01*
X122212724Y-52472141D01*
X122100000Y-52494563D01*
X121987276Y-52472141D01*
X121891713Y-52408287D01*
X121827859Y-52312724D01*
X121805437Y-52200000D01*
X121827859Y-52087276D01*
X121891713Y-51991713D01*
X121987276Y-51927859D01*
X122100000Y-51905437D01*
X122212724Y-51927859D01*
X122212724Y-51927859D01*
G37*
X122212724Y-51927859D02*
X122308287Y-51991713D01*
X122372141Y-52087276D01*
X122394563Y-52200000D01*
X122372141Y-52312724D01*
X122308287Y-52408287D01*
X122212724Y-52472141D01*
X122100000Y-52494563D01*
X121987276Y-52472141D01*
X121891713Y-52408287D01*
X121827859Y-52312724D01*
X121805437Y-52200000D01*
X121827859Y-52087276D01*
X121891713Y-51991713D01*
X121987276Y-51927859D01*
X122100000Y-51905437D01*
X122212724Y-51927859D01*
M02*
