G04 #@! TF.FileFunction,Legend,Top*
%FSLAX46Y46*%
G04 Gerber Fmt 4.6, Leading zero omitted, Abs format (unit mm)*
G04 Created by KiCad (PCBNEW 4.0.6+dfsg1-1) date Mon Mar 12 13:09:13 2018*
%MOMM*%
%LPD*%
G01*
G04 APERTURE LIST*
%ADD10C,0.100000*%
%ADD11C,0.300000*%
%ADD12C,0.010000*%
%ADD13C,0.150000*%
G04 APERTURE END LIST*
D10*
D11*
X129958036Y-97103571D02*
X130145536Y-95603571D01*
X130815179Y-97103571D01*
X131002679Y-95603571D01*
X132002679Y-95603571D02*
X132288393Y-95603571D01*
X132422322Y-95675000D01*
X132547322Y-95817857D01*
X132583036Y-96103571D01*
X132520536Y-96603571D01*
X132413393Y-96889286D01*
X132252679Y-97032143D01*
X132100893Y-97103571D01*
X131815179Y-97103571D01*
X131681250Y-97032143D01*
X131556250Y-96889286D01*
X131520536Y-96603571D01*
X131583036Y-96103571D01*
X131690179Y-95817857D01*
X131850893Y-95675000D01*
X132002679Y-95603571D01*
X133100894Y-97103571D02*
X133288394Y-95603571D01*
X133958037Y-97103571D02*
X133422322Y-96246429D01*
X134145537Y-95603571D02*
X133181251Y-96460714D01*
X135074108Y-95603571D02*
X135359822Y-95603571D01*
X135493751Y-95675000D01*
X135618751Y-95817857D01*
X135654465Y-96103571D01*
X135591965Y-96603571D01*
X135484822Y-96889286D01*
X135324108Y-97032143D01*
X135172322Y-97103571D01*
X134886608Y-97103571D01*
X134752679Y-97032143D01*
X134627679Y-96889286D01*
X134591965Y-96603571D01*
X134654465Y-96103571D01*
X134761608Y-95817857D01*
X134922322Y-95675000D01*
X135074108Y-95603571D01*
X136386609Y-97103571D02*
X136252679Y-97032143D01*
X136199108Y-96889286D01*
X136359823Y-95603571D01*
X136958037Y-97103571D02*
X137083037Y-96103571D01*
X137145537Y-95603571D02*
X137065179Y-95675000D01*
X137127679Y-95746429D01*
X137208036Y-95675000D01*
X137145537Y-95603571D01*
X137127679Y-95746429D01*
X137797323Y-96103571D02*
X137672323Y-97103571D01*
X137779465Y-96246429D02*
X137859822Y-96175000D01*
X138011609Y-96103571D01*
X138225894Y-96103571D01*
X138359822Y-96175000D01*
X138413394Y-96317857D01*
X138315180Y-97103571D01*
X139243752Y-97103571D02*
X139109822Y-97032143D01*
X139047323Y-96960714D01*
X138993751Y-96817857D01*
X139047322Y-96389286D01*
X139136608Y-96246429D01*
X139216965Y-96175000D01*
X139368752Y-96103571D01*
X139583037Y-96103571D01*
X139716965Y-96175000D01*
X139779465Y-96246429D01*
X139833037Y-96389286D01*
X139779466Y-96817857D01*
X139690180Y-96960714D01*
X139609822Y-97032143D01*
X139458037Y-97103571D01*
X139243752Y-97103571D01*
X125565179Y-99653571D02*
X125752679Y-98153571D01*
X125681250Y-98725000D02*
X125833036Y-98653571D01*
X126118750Y-98653571D01*
X126252678Y-98725000D01*
X126315178Y-98796429D01*
X126368750Y-98939286D01*
X126315179Y-99367857D01*
X126225893Y-99510714D01*
X126145535Y-99582143D01*
X125993750Y-99653571D01*
X125708036Y-99653571D01*
X125574107Y-99582143D01*
X126904465Y-98653571D02*
X127136608Y-99653571D01*
X127618750Y-98653571D02*
X127136608Y-99653571D01*
X126949107Y-100010714D01*
X126868750Y-100082143D01*
X126716965Y-100153571D01*
X129208036Y-99653571D02*
X129395536Y-98153571D01*
X130065179Y-99653571D01*
X130252679Y-98153571D01*
X130779465Y-99653571D02*
X130904465Y-98653571D01*
X130966965Y-98153571D02*
X130886607Y-98225000D01*
X130949107Y-98296429D01*
X131029464Y-98225000D01*
X130966965Y-98153571D01*
X130949107Y-98296429D01*
X131493751Y-99653571D02*
X131681251Y-98153571D01*
X131708036Y-99082143D02*
X132065179Y-99653571D01*
X132190179Y-98653571D02*
X131547322Y-99225000D01*
X132922323Y-99653571D02*
X132788393Y-99582143D01*
X132725894Y-99510714D01*
X132672322Y-99367857D01*
X132725893Y-98939286D01*
X132815179Y-98796429D01*
X132895536Y-98725000D01*
X133047323Y-98653571D01*
X133261608Y-98653571D01*
X133395536Y-98725000D01*
X133458036Y-98796429D01*
X133511608Y-98939286D01*
X133458037Y-99367857D01*
X133368751Y-99510714D01*
X133288393Y-99582143D01*
X133136608Y-99653571D01*
X132922323Y-99653571D01*
X134279466Y-99653571D02*
X134145536Y-99582143D01*
X134091965Y-99439286D01*
X134252680Y-98153571D01*
X135493751Y-99653571D02*
X135591965Y-98867857D01*
X135538393Y-98725000D01*
X135404465Y-98653571D01*
X135118751Y-98653571D01*
X134966965Y-98725000D01*
X135502679Y-99582143D02*
X135350894Y-99653571D01*
X134993751Y-99653571D01*
X134859822Y-99582143D01*
X134806250Y-99439286D01*
X134824107Y-99296429D01*
X134913394Y-99153571D01*
X135065179Y-99082143D01*
X135422322Y-99082143D01*
X135574108Y-99010714D01*
X136208037Y-99653571D02*
X136333037Y-98653571D01*
X136395537Y-98153571D02*
X136315179Y-98225000D01*
X136377679Y-98296429D01*
X136458036Y-98225000D01*
X136395537Y-98153571D01*
X136377679Y-98296429D01*
X138922323Y-99653571D02*
X138511608Y-98939286D01*
X138065180Y-99653571D02*
X138252680Y-98153571D01*
X138824108Y-98153571D01*
X138958037Y-98225000D01*
X139020536Y-98296429D01*
X139074108Y-98439286D01*
X139047323Y-98653571D01*
X138958036Y-98796429D01*
X138877680Y-98867857D01*
X138725893Y-98939286D01*
X138154465Y-98939286D01*
X140208037Y-99653571D02*
X140306251Y-98867857D01*
X140252679Y-98725000D01*
X140118751Y-98653571D01*
X139833037Y-98653571D01*
X139681251Y-98725000D01*
X140216965Y-99582143D02*
X140065180Y-99653571D01*
X139708037Y-99653571D01*
X139574108Y-99582143D01*
X139520536Y-99439286D01*
X139538393Y-99296429D01*
X139627680Y-99153571D01*
X139779465Y-99082143D01*
X140136608Y-99082143D01*
X140288394Y-99010714D01*
X141565180Y-99653571D02*
X141752680Y-98153571D01*
X141574108Y-99582143D02*
X141422323Y-99653571D01*
X141136609Y-99653571D01*
X141002679Y-99582143D01*
X140940180Y-99510714D01*
X140886608Y-99367857D01*
X140940179Y-98939286D01*
X141029465Y-98796429D01*
X141109822Y-98725000D01*
X141261609Y-98653571D01*
X141547323Y-98653571D01*
X141681251Y-98725000D01*
X142279466Y-99653571D02*
X142466966Y-98153571D01*
X142493751Y-99082143D02*
X142850894Y-99653571D01*
X142975894Y-98653571D02*
X142333037Y-99225000D01*
X144074108Y-99582143D02*
X143922323Y-99653571D01*
X143636609Y-99653571D01*
X143502680Y-99582143D01*
X143449108Y-99439286D01*
X143520537Y-98867857D01*
X143609823Y-98725000D01*
X143761609Y-98653571D01*
X144047323Y-98653571D01*
X144181251Y-98725000D01*
X144234823Y-98867857D01*
X144216966Y-99010714D01*
X143484823Y-99153571D01*
D12*
G36*
X106718140Y-79013148D02*
X107200926Y-79473323D01*
X107732166Y-80162873D01*
X108201485Y-80948432D01*
X108360564Y-81291666D01*
X108726653Y-81917596D01*
X109123814Y-82037213D01*
X109180173Y-82018907D01*
X110280797Y-81742514D01*
X111740955Y-81572170D01*
X113365193Y-81511033D01*
X114958059Y-81562258D01*
X116324098Y-81729004D01*
X116975017Y-81893006D01*
X117413446Y-82032963D01*
X117728706Y-82036738D01*
X118021805Y-81822806D01*
X118393753Y-81309641D01*
X118945559Y-80415719D01*
X119080623Y-80193551D01*
X119680801Y-79393325D01*
X120194368Y-79072534D01*
X120575876Y-79252955D01*
X120667698Y-79433040D01*
X120773643Y-79890367D01*
X120912493Y-80727316D01*
X121054017Y-81761374D01*
X121256952Y-82990353D01*
X121538691Y-84202799D01*
X121784137Y-84983333D01*
X122110553Y-86272603D01*
X122283922Y-87995931D01*
X122306183Y-88726160D01*
X122340000Y-91198987D01*
X123419553Y-90066716D01*
X124240180Y-89341575D01*
X124933094Y-88981602D01*
X125419394Y-89009698D01*
X125618993Y-89428333D01*
X125521143Y-90817049D01*
X125113178Y-92407416D01*
X124470826Y-93989114D01*
X123669817Y-95351820D01*
X123333802Y-95775062D01*
X122555879Y-96806909D01*
X122220774Y-97656800D01*
X122198888Y-97919856D01*
X122112040Y-98885384D01*
X121876038Y-100216815D01*
X121527695Y-101776632D01*
X121103823Y-103427319D01*
X120641234Y-105031359D01*
X120176743Y-106451235D01*
X119747160Y-107549432D01*
X119485747Y-108055000D01*
X118874822Y-108585911D01*
X118123138Y-108634876D01*
X117374345Y-108207505D01*
X117153172Y-107963928D01*
X116760576Y-107336787D01*
X116275528Y-106384102D01*
X115801602Y-105309640D01*
X115792133Y-105286295D01*
X115002222Y-103334733D01*
X113353022Y-103331255D01*
X112405398Y-103355554D01*
X111877401Y-103464056D01*
X111625522Y-103702546D01*
X111552712Y-103905628D01*
X111272422Y-104708118D01*
X110827811Y-105703095D01*
X110297877Y-106742669D01*
X109761619Y-107678951D01*
X109298035Y-108364052D01*
X109026223Y-108635363D01*
X108350476Y-108761452D01*
X107923654Y-108683333D01*
X107423811Y-108224223D01*
X106901992Y-107231867D01*
X106695298Y-106703411D01*
X106337897Y-105632639D01*
X105937288Y-104287943D01*
X105526121Y-102797438D01*
X105137048Y-101289238D01*
X104802719Y-99891458D01*
X104555785Y-98732213D01*
X104428897Y-97939617D01*
X104418888Y-97771278D01*
X104244661Y-97165840D01*
X103797774Y-96367088D01*
X103419241Y-95852835D01*
X102450379Y-94343635D01*
X101706750Y-92547731D01*
X101291866Y-90729584D01*
X101252585Y-90317348D01*
X101287496Y-89730377D01*
X101641493Y-89730377D01*
X101684060Y-90348633D01*
X101904625Y-91239347D01*
X102262267Y-92288206D01*
X102716066Y-93380899D01*
X103225101Y-94403115D01*
X103748452Y-95240541D01*
X103974213Y-95522696D01*
X104750901Y-96673702D01*
X105090259Y-97907220D01*
X105309506Y-99186448D01*
X105657737Y-100807621D01*
X106086468Y-102576865D01*
X106547211Y-104300304D01*
X106991484Y-105784064D01*
X107241784Y-106510350D01*
X107724350Y-107570168D01*
X108194176Y-108072569D01*
X108688669Y-108022346D01*
X109245236Y-107424295D01*
X109618667Y-106815007D01*
X110173483Y-105715183D01*
X110693733Y-104515367D01*
X110841696Y-104123285D01*
X111332245Y-102742111D01*
X113421933Y-102823278D01*
X115511621Y-102904444D01*
X115891629Y-104004606D01*
X116561260Y-105728194D01*
X117215513Y-107001252D01*
X117833849Y-107800487D01*
X118395728Y-108102610D01*
X118880611Y-107884328D01*
X119069324Y-107608048D01*
X119382121Y-106867267D01*
X119771862Y-105716718D01*
X120199639Y-104299058D01*
X120626541Y-102756947D01*
X121013658Y-101233041D01*
X121322079Y-99869999D01*
X121512894Y-98810480D01*
X121545376Y-98530000D01*
X121679334Y-97441149D01*
X121906158Y-96696426D01*
X122311316Y-96075559D01*
X122640466Y-95707778D01*
X123614508Y-94377188D01*
X124399505Y-92722916D01*
X124888388Y-90979737D01*
X124937056Y-90671877D01*
X125005443Y-89970594D01*
X124931257Y-89644141D01*
X124659043Y-89706138D01*
X124133344Y-90170209D01*
X123298704Y-91049976D01*
X123269663Y-91081469D01*
X122621671Y-91742959D01*
X122107917Y-92192701D01*
X121880722Y-92321111D01*
X121781607Y-92057948D01*
X121701557Y-91344517D01*
X121649651Y-90294909D01*
X121634444Y-89227115D01*
X121607702Y-87632796D01*
X121514379Y-86443419D01*
X121334827Y-85501439D01*
X121070000Y-84701111D01*
X120738424Y-83661549D01*
X120533434Y-82637530D01*
X120501701Y-82221219D01*
X120438421Y-81171534D01*
X120276875Y-80414461D01*
X120046702Y-80056737D01*
X119903658Y-80067591D01*
X119641627Y-80391573D01*
X119241665Y-81055149D01*
X118949315Y-81604596D01*
X118250474Y-82983691D01*
X117084754Y-82572401D01*
X116084309Y-82344945D01*
X114747991Y-82207977D01*
X113255223Y-82161723D01*
X111785426Y-82206410D01*
X110518022Y-82342264D01*
X109647720Y-82563030D01*
X109071571Y-82774785D01*
X108665865Y-82773060D01*
X108317971Y-82478444D01*
X107915256Y-81811525D01*
X107537798Y-81075429D01*
X107148116Y-80406473D01*
X106835175Y-80051734D01*
X106727534Y-80039984D01*
X106591091Y-80395203D01*
X106411098Y-81152079D01*
X106224404Y-82153579D01*
X106207850Y-82254555D01*
X105967245Y-83554674D01*
X105672171Y-84894608D01*
X105431739Y-85820949D01*
X105196879Y-86965953D01*
X105037989Y-88418119D01*
X104983333Y-89842615D01*
X104969666Y-90946315D01*
X104933118Y-91797104D01*
X104880364Y-92267495D01*
X104853531Y-92321111D01*
X104610550Y-92130738D01*
X104096565Y-91631008D01*
X103421589Y-90929005D01*
X103403800Y-90910000D01*
X102704374Y-90201018D01*
X102135382Y-89694382D01*
X101819118Y-89498904D01*
X101817845Y-89498889D01*
X101641493Y-89730377D01*
X101287496Y-89730377D01*
X101307081Y-89401112D01*
X101619851Y-88985647D01*
X102187634Y-89071527D01*
X103007167Y-89659327D01*
X103321292Y-89952778D01*
X104418888Y-91024553D01*
X104439860Y-89062276D01*
X104474485Y-87675751D01*
X104565522Y-86625078D01*
X104745993Y-85682150D01*
X105048919Y-84618859D01*
X105112051Y-84418889D01*
X105367582Y-83467413D01*
X105635644Y-82236975D01*
X105839766Y-81103694D01*
X106026630Y-80089808D01*
X106219286Y-79314166D01*
X106379306Y-78928416D01*
X106394186Y-78915715D01*
X106718140Y-79013148D01*
X106718140Y-79013148D01*
G37*
X106718140Y-79013148D02*
X107200926Y-79473323D01*
X107732166Y-80162873D01*
X108201485Y-80948432D01*
X108360564Y-81291666D01*
X108726653Y-81917596D01*
X109123814Y-82037213D01*
X109180173Y-82018907D01*
X110280797Y-81742514D01*
X111740955Y-81572170D01*
X113365193Y-81511033D01*
X114958059Y-81562258D01*
X116324098Y-81729004D01*
X116975017Y-81893006D01*
X117413446Y-82032963D01*
X117728706Y-82036738D01*
X118021805Y-81822806D01*
X118393753Y-81309641D01*
X118945559Y-80415719D01*
X119080623Y-80193551D01*
X119680801Y-79393325D01*
X120194368Y-79072534D01*
X120575876Y-79252955D01*
X120667698Y-79433040D01*
X120773643Y-79890367D01*
X120912493Y-80727316D01*
X121054017Y-81761374D01*
X121256952Y-82990353D01*
X121538691Y-84202799D01*
X121784137Y-84983333D01*
X122110553Y-86272603D01*
X122283922Y-87995931D01*
X122306183Y-88726160D01*
X122340000Y-91198987D01*
X123419553Y-90066716D01*
X124240180Y-89341575D01*
X124933094Y-88981602D01*
X125419394Y-89009698D01*
X125618993Y-89428333D01*
X125521143Y-90817049D01*
X125113178Y-92407416D01*
X124470826Y-93989114D01*
X123669817Y-95351820D01*
X123333802Y-95775062D01*
X122555879Y-96806909D01*
X122220774Y-97656800D01*
X122198888Y-97919856D01*
X122112040Y-98885384D01*
X121876038Y-100216815D01*
X121527695Y-101776632D01*
X121103823Y-103427319D01*
X120641234Y-105031359D01*
X120176743Y-106451235D01*
X119747160Y-107549432D01*
X119485747Y-108055000D01*
X118874822Y-108585911D01*
X118123138Y-108634876D01*
X117374345Y-108207505D01*
X117153172Y-107963928D01*
X116760576Y-107336787D01*
X116275528Y-106384102D01*
X115801602Y-105309640D01*
X115792133Y-105286295D01*
X115002222Y-103334733D01*
X113353022Y-103331255D01*
X112405398Y-103355554D01*
X111877401Y-103464056D01*
X111625522Y-103702546D01*
X111552712Y-103905628D01*
X111272422Y-104708118D01*
X110827811Y-105703095D01*
X110297877Y-106742669D01*
X109761619Y-107678951D01*
X109298035Y-108364052D01*
X109026223Y-108635363D01*
X108350476Y-108761452D01*
X107923654Y-108683333D01*
X107423811Y-108224223D01*
X106901992Y-107231867D01*
X106695298Y-106703411D01*
X106337897Y-105632639D01*
X105937288Y-104287943D01*
X105526121Y-102797438D01*
X105137048Y-101289238D01*
X104802719Y-99891458D01*
X104555785Y-98732213D01*
X104428897Y-97939617D01*
X104418888Y-97771278D01*
X104244661Y-97165840D01*
X103797774Y-96367088D01*
X103419241Y-95852835D01*
X102450379Y-94343635D01*
X101706750Y-92547731D01*
X101291866Y-90729584D01*
X101252585Y-90317348D01*
X101287496Y-89730377D01*
X101641493Y-89730377D01*
X101684060Y-90348633D01*
X101904625Y-91239347D01*
X102262267Y-92288206D01*
X102716066Y-93380899D01*
X103225101Y-94403115D01*
X103748452Y-95240541D01*
X103974213Y-95522696D01*
X104750901Y-96673702D01*
X105090259Y-97907220D01*
X105309506Y-99186448D01*
X105657737Y-100807621D01*
X106086468Y-102576865D01*
X106547211Y-104300304D01*
X106991484Y-105784064D01*
X107241784Y-106510350D01*
X107724350Y-107570168D01*
X108194176Y-108072569D01*
X108688669Y-108022346D01*
X109245236Y-107424295D01*
X109618667Y-106815007D01*
X110173483Y-105715183D01*
X110693733Y-104515367D01*
X110841696Y-104123285D01*
X111332245Y-102742111D01*
X113421933Y-102823278D01*
X115511621Y-102904444D01*
X115891629Y-104004606D01*
X116561260Y-105728194D01*
X117215513Y-107001252D01*
X117833849Y-107800487D01*
X118395728Y-108102610D01*
X118880611Y-107884328D01*
X119069324Y-107608048D01*
X119382121Y-106867267D01*
X119771862Y-105716718D01*
X120199639Y-104299058D01*
X120626541Y-102756947D01*
X121013658Y-101233041D01*
X121322079Y-99869999D01*
X121512894Y-98810480D01*
X121545376Y-98530000D01*
X121679334Y-97441149D01*
X121906158Y-96696426D01*
X122311316Y-96075559D01*
X122640466Y-95707778D01*
X123614508Y-94377188D01*
X124399505Y-92722916D01*
X124888388Y-90979737D01*
X124937056Y-90671877D01*
X125005443Y-89970594D01*
X124931257Y-89644141D01*
X124659043Y-89706138D01*
X124133344Y-90170209D01*
X123298704Y-91049976D01*
X123269663Y-91081469D01*
X122621671Y-91742959D01*
X122107917Y-92192701D01*
X121880722Y-92321111D01*
X121781607Y-92057948D01*
X121701557Y-91344517D01*
X121649651Y-90294909D01*
X121634444Y-89227115D01*
X121607702Y-87632796D01*
X121514379Y-86443419D01*
X121334827Y-85501439D01*
X121070000Y-84701111D01*
X120738424Y-83661549D01*
X120533434Y-82637530D01*
X120501701Y-82221219D01*
X120438421Y-81171534D01*
X120276875Y-80414461D01*
X120046702Y-80056737D01*
X119903658Y-80067591D01*
X119641627Y-80391573D01*
X119241665Y-81055149D01*
X118949315Y-81604596D01*
X118250474Y-82983691D01*
X117084754Y-82572401D01*
X116084309Y-82344945D01*
X114747991Y-82207977D01*
X113255223Y-82161723D01*
X111785426Y-82206410D01*
X110518022Y-82342264D01*
X109647720Y-82563030D01*
X109071571Y-82774785D01*
X108665865Y-82773060D01*
X108317971Y-82478444D01*
X107915256Y-81811525D01*
X107537798Y-81075429D01*
X107148116Y-80406473D01*
X106835175Y-80051734D01*
X106727534Y-80039984D01*
X106591091Y-80395203D01*
X106411098Y-81152079D01*
X106224404Y-82153579D01*
X106207850Y-82254555D01*
X105967245Y-83554674D01*
X105672171Y-84894608D01*
X105431739Y-85820949D01*
X105196879Y-86965953D01*
X105037989Y-88418119D01*
X104983333Y-89842615D01*
X104969666Y-90946315D01*
X104933118Y-91797104D01*
X104880364Y-92267495D01*
X104853531Y-92321111D01*
X104610550Y-92130738D01*
X104096565Y-91631008D01*
X103421589Y-90929005D01*
X103403800Y-90910000D01*
X102704374Y-90201018D01*
X102135382Y-89694382D01*
X101819118Y-89498904D01*
X101817845Y-89498889D01*
X101641493Y-89730377D01*
X101287496Y-89730377D01*
X101307081Y-89401112D01*
X101619851Y-88985647D01*
X102187634Y-89071527D01*
X103007167Y-89659327D01*
X103321292Y-89952778D01*
X104418888Y-91024553D01*
X104439860Y-89062276D01*
X104474485Y-87675751D01*
X104565522Y-86625078D01*
X104745993Y-85682150D01*
X105048919Y-84618859D01*
X105112051Y-84418889D01*
X105367582Y-83467413D01*
X105635644Y-82236975D01*
X105839766Y-81103694D01*
X106026630Y-80089808D01*
X106219286Y-79314166D01*
X106379306Y-78928416D01*
X106394186Y-78915715D01*
X106718140Y-79013148D01*
G36*
X114895099Y-90102925D02*
X115080537Y-90220448D01*
X115606819Y-90834393D01*
X115676477Y-91517977D01*
X115373385Y-92178184D01*
X114781420Y-92721999D01*
X113984458Y-93056407D01*
X113066375Y-93088394D01*
X112603333Y-92967559D01*
X112049637Y-92658932D01*
X111686111Y-92381655D01*
X111241156Y-91743479D01*
X111253195Y-91332170D01*
X111825675Y-91332170D01*
X112132316Y-91925559D01*
X112305313Y-92082847D01*
X112965035Y-92501631D01*
X113613519Y-92563514D01*
X114438974Y-92320656D01*
X115014798Y-91930157D01*
X115137463Y-91450394D01*
X114888575Y-90972722D01*
X114349742Y-90588497D01*
X113602568Y-90389075D01*
X112771992Y-90454534D01*
X112047809Y-90810747D01*
X111825675Y-91332170D01*
X111253195Y-91332170D01*
X111259814Y-91106064D01*
X111644594Y-90531481D01*
X112298004Y-90081804D01*
X113122552Y-89819104D01*
X114020748Y-89805454D01*
X114895099Y-90102925D01*
X114895099Y-90102925D01*
G37*
X114895099Y-90102925D02*
X115080537Y-90220448D01*
X115606819Y-90834393D01*
X115676477Y-91517977D01*
X115373385Y-92178184D01*
X114781420Y-92721999D01*
X113984458Y-93056407D01*
X113066375Y-93088394D01*
X112603333Y-92967559D01*
X112049637Y-92658932D01*
X111686111Y-92381655D01*
X111241156Y-91743479D01*
X111253195Y-91332170D01*
X111825675Y-91332170D01*
X112132316Y-91925559D01*
X112305313Y-92082847D01*
X112965035Y-92501631D01*
X113613519Y-92563514D01*
X114438974Y-92320656D01*
X115014798Y-91930157D01*
X115137463Y-91450394D01*
X114888575Y-90972722D01*
X114349742Y-90588497D01*
X113602568Y-90389075D01*
X112771992Y-90454534D01*
X112047809Y-90810747D01*
X111825675Y-91332170D01*
X111253195Y-91332170D01*
X111259814Y-91106064D01*
X111644594Y-90531481D01*
X112298004Y-90081804D01*
X113122552Y-89819104D01*
X114020748Y-89805454D01*
X114895099Y-90102925D01*
G36*
X110316903Y-85160619D02*
X111180136Y-85670262D01*
X111730565Y-86519188D01*
X111869555Y-87351920D01*
X111624664Y-88386340D01*
X110983605Y-89173544D01*
X110086797Y-89640424D01*
X109074662Y-89713871D01*
X108087777Y-89320885D01*
X107378952Y-88747233D01*
X107047763Y-88203343D01*
X106963210Y-87475860D01*
X106983235Y-87307679D01*
X107849435Y-87307679D01*
X108009685Y-88032366D01*
X108432796Y-88495108D01*
X109329888Y-88895772D01*
X110136726Y-88748521D01*
X110627777Y-88370000D01*
X111046397Y-87811260D01*
X111192222Y-87382222D01*
X110956324Y-86781143D01*
X110389786Y-86212462D01*
X109704338Y-85864881D01*
X109450555Y-85830000D01*
X108630678Y-86047264D01*
X108076702Y-86592901D01*
X107849435Y-87307679D01*
X106983235Y-87307679D01*
X107084406Y-86458027D01*
X107528181Y-85778884D01*
X108107962Y-85396229D01*
X109254850Y-85049520D01*
X110316903Y-85160619D01*
X110316903Y-85160619D01*
G37*
X110316903Y-85160619D02*
X111180136Y-85670262D01*
X111730565Y-86519188D01*
X111869555Y-87351920D01*
X111624664Y-88386340D01*
X110983605Y-89173544D01*
X110086797Y-89640424D01*
X109074662Y-89713871D01*
X108087777Y-89320885D01*
X107378952Y-88747233D01*
X107047763Y-88203343D01*
X106963210Y-87475860D01*
X106983235Y-87307679D01*
X107849435Y-87307679D01*
X108009685Y-88032366D01*
X108432796Y-88495108D01*
X109329888Y-88895772D01*
X110136726Y-88748521D01*
X110627777Y-88370000D01*
X111046397Y-87811260D01*
X111192222Y-87382222D01*
X110956324Y-86781143D01*
X110389786Y-86212462D01*
X109704338Y-85864881D01*
X109450555Y-85830000D01*
X108630678Y-86047264D01*
X108076702Y-86592901D01*
X107849435Y-87307679D01*
X106983235Y-87307679D01*
X107084406Y-86458027D01*
X107528181Y-85778884D01*
X108107962Y-85396229D01*
X109254850Y-85049520D01*
X110316903Y-85160619D01*
G36*
X118451251Y-85188987D02*
X119256213Y-85698912D01*
X119792540Y-86506335D01*
X119941111Y-87349235D01*
X119705692Y-88413359D01*
X118990577Y-89188782D01*
X118326721Y-89522525D01*
X117541525Y-89742692D01*
X116885403Y-89659833D01*
X116231600Y-89353149D01*
X115511579Y-88685416D01*
X115094383Y-87749944D01*
X115084857Y-87368397D01*
X115977414Y-87368397D01*
X116279645Y-88194743D01*
X116457074Y-88418333D01*
X117143339Y-88877301D01*
X117924239Y-88800605D01*
X118467203Y-88495108D01*
X118966593Y-87864883D01*
X119047507Y-87110013D01*
X118764427Y-86407016D01*
X118171834Y-85932408D01*
X117644620Y-85830000D01*
X116723593Y-86047206D01*
X116146627Y-86606278D01*
X115977414Y-87368397D01*
X115084857Y-87368397D01*
X115070091Y-86777027D01*
X115136519Y-86553476D01*
X115720287Y-85658804D01*
X116553714Y-85147473D01*
X117507226Y-84998021D01*
X118451251Y-85188987D01*
X118451251Y-85188987D01*
G37*
X118451251Y-85188987D02*
X119256213Y-85698912D01*
X119792540Y-86506335D01*
X119941111Y-87349235D01*
X119705692Y-88413359D01*
X118990577Y-89188782D01*
X118326721Y-89522525D01*
X117541525Y-89742692D01*
X116885403Y-89659833D01*
X116231600Y-89353149D01*
X115511579Y-88685416D01*
X115094383Y-87749944D01*
X115084857Y-87368397D01*
X115977414Y-87368397D01*
X116279645Y-88194743D01*
X116457074Y-88418333D01*
X117143339Y-88877301D01*
X117924239Y-88800605D01*
X118467203Y-88495108D01*
X118966593Y-87864883D01*
X119047507Y-87110013D01*
X118764427Y-86407016D01*
X118171834Y-85932408D01*
X117644620Y-85830000D01*
X116723593Y-86047206D01*
X116146627Y-86606278D01*
X115977414Y-87368397D01*
X115084857Y-87368397D01*
X115070091Y-86777027D01*
X115136519Y-86553476D01*
X115720287Y-85658804D01*
X116553714Y-85147473D01*
X117507226Y-84998021D01*
X118451251Y-85188987D01*
D13*
M02*
