G04 #@! TF.FileFunction,Legend,Top*
%FSLAX46Y46*%
G04 Gerber Fmt 4.6, Leading zero omitted, Abs format (unit mm)*
G04 Created by KiCad (PCBNEW 4.0.6+dfsg1-1) date Tue Jan 16 21:14:35 2018*
%MOMM*%
%LPD*%
G01*
G04 APERTURE LIST*
%ADD10C,0.100000*%
%ADD11C,0.300000*%
%ADD12C,0.250000*%
%ADD13C,0.150000*%
%ADD14C,0.120000*%
G04 APERTURE END LIST*
D10*
D11*
X179478572Y-103907143D02*
X180621429Y-103907143D01*
X180050000Y-104478571D02*
X180050000Y-103335714D01*
X176328572Y-104107143D02*
X177471429Y-104107143D01*
D12*
X173988096Y-126050000D02*
X173892858Y-126002381D01*
X173750001Y-126002381D01*
X173607143Y-126050000D01*
X173511905Y-126145238D01*
X173464286Y-126240476D01*
X173416667Y-126430952D01*
X173416667Y-126573810D01*
X173464286Y-126764286D01*
X173511905Y-126859524D01*
X173607143Y-126954762D01*
X173750001Y-127002381D01*
X173845239Y-127002381D01*
X173988096Y-126954762D01*
X174035715Y-126907143D01*
X174035715Y-126573810D01*
X173845239Y-126573810D01*
X174464286Y-127002381D02*
X174464286Y-126002381D01*
X175035715Y-127002381D01*
X175035715Y-126002381D01*
X175511905Y-127002381D02*
X175511905Y-126002381D01*
X175750000Y-126002381D01*
X175892858Y-126050000D01*
X175988096Y-126145238D01*
X176035715Y-126240476D01*
X176083334Y-126430952D01*
X176083334Y-126573810D01*
X176035715Y-126764286D01*
X175988096Y-126859524D01*
X175892858Y-126954762D01*
X175750000Y-127002381D01*
X175511905Y-127002381D01*
X173466667Y-123502381D02*
X173800000Y-124502381D01*
X174133334Y-123502381D01*
X175038096Y-124407143D02*
X174990477Y-124454762D01*
X174847620Y-124502381D01*
X174752382Y-124502381D01*
X174609524Y-124454762D01*
X174514286Y-124359524D01*
X174466667Y-124264286D01*
X174419048Y-124073810D01*
X174419048Y-123930952D01*
X174466667Y-123740476D01*
X174514286Y-123645238D01*
X174609524Y-123550000D01*
X174752382Y-123502381D01*
X174847620Y-123502381D01*
X174990477Y-123550000D01*
X175038096Y-123597619D01*
X176038096Y-124407143D02*
X175990477Y-124454762D01*
X175847620Y-124502381D01*
X175752382Y-124502381D01*
X175609524Y-124454762D01*
X175514286Y-124359524D01*
X175466667Y-124264286D01*
X175419048Y-124073810D01*
X175419048Y-123930952D01*
X175466667Y-123740476D01*
X175514286Y-123645238D01*
X175609524Y-123550000D01*
X175752382Y-123502381D01*
X175847620Y-123502381D01*
X175990477Y-123550000D01*
X176038096Y-123597619D01*
X174319048Y-121802381D02*
X174319048Y-120802381D01*
X174557143Y-120802381D01*
X174700001Y-120850000D01*
X174795239Y-120945238D01*
X174842858Y-121040476D01*
X174890477Y-121230952D01*
X174890477Y-121373810D01*
X174842858Y-121564286D01*
X174795239Y-121659524D01*
X174700001Y-121754762D01*
X174557143Y-121802381D01*
X174319048Y-121802381D01*
X175319048Y-121421429D02*
X176080953Y-121421429D01*
X174319048Y-119452381D02*
X174319048Y-118452381D01*
X174557143Y-118452381D01*
X174700001Y-118500000D01*
X174795239Y-118595238D01*
X174842858Y-118690476D01*
X174890477Y-118880952D01*
X174890477Y-119023810D01*
X174842858Y-119214286D01*
X174795239Y-119309524D01*
X174700001Y-119404762D01*
X174557143Y-119452381D01*
X174319048Y-119452381D01*
X175319048Y-119071429D02*
X176080953Y-119071429D01*
X175700001Y-119452381D02*
X175700001Y-118690476D01*
D13*
X133310000Y-125670000D02*
X151090000Y-125670000D01*
X133310000Y-97730000D02*
X151090000Y-97730000D01*
X133310000Y-125670000D02*
X133310000Y-97730000D01*
X151090000Y-97730000D02*
X151090000Y-125670000D01*
D14*
X153490000Y-93510000D02*
G75*
G02X153490000Y-91510000I0J1000000D01*
G01*
X153490000Y-91510000D02*
X153490000Y-89740000D01*
X153490000Y-89740000D02*
X143090000Y-89740000D01*
X143090000Y-89740000D02*
X143090000Y-95280000D01*
X143090000Y-95280000D02*
X153490000Y-95280000D01*
X153490000Y-95280000D02*
X153490000Y-93510000D01*
D13*
X150000000Y-128200000D02*
X150000000Y-132200000D01*
X150000000Y-132200000D02*
X155300000Y-132200000D01*
X155300000Y-132200000D02*
X155300000Y-124200000D01*
X155300000Y-124200000D02*
X150000000Y-124200000D01*
X150000000Y-124200000D02*
X150000000Y-128200000D01*
X151000000Y-137400000D02*
X151000000Y-119000000D01*
X151000000Y-119000000D02*
X173600000Y-119000000D01*
X151000000Y-137400000D02*
X173600000Y-137400000D01*
X173600000Y-137400000D02*
X173600000Y-119000000D01*
D14*
X182600000Y-108300000D02*
X182600000Y-102350000D01*
X182600000Y-102350000D02*
X175000000Y-102350000D01*
X175000000Y-102350000D02*
X175000000Y-108300000D01*
X175000000Y-108300000D02*
X182600000Y-108300000D01*
X179300000Y-108300000D02*
X179300000Y-107550000D01*
X179300000Y-107550000D02*
X178300000Y-107550000D01*
X178300000Y-107550000D02*
X178300000Y-108300000D01*
X178300000Y-108300000D02*
X179300000Y-108300000D01*
X182600000Y-108300000D02*
X182600000Y-107550000D01*
X182600000Y-107550000D02*
X180800000Y-107550000D01*
X180800000Y-107550000D02*
X180800000Y-108300000D01*
X180800000Y-108300000D02*
X182600000Y-108300000D01*
X176800000Y-108300000D02*
X176800000Y-107550000D01*
X176800000Y-107550000D02*
X175000000Y-107550000D01*
X175000000Y-107550000D02*
X175000000Y-108300000D01*
X175000000Y-108300000D02*
X176800000Y-108300000D01*
X182600000Y-106050000D02*
X181850000Y-106050000D01*
X181850000Y-106050000D02*
X181850000Y-103100000D01*
X181850000Y-103100000D02*
X178800000Y-103100000D01*
X175000000Y-106050000D02*
X175750000Y-106050000D01*
X175750000Y-106050000D02*
X175750000Y-103100000D01*
X175750000Y-103100000D02*
X178800000Y-103100000D01*
X180400000Y-108600000D02*
X182900000Y-108600000D01*
X182900000Y-108600000D02*
X182900000Y-106100000D01*
X182600000Y-101350000D02*
X182600000Y-95400000D01*
X182600000Y-95400000D02*
X175000000Y-95400000D01*
X175000000Y-95400000D02*
X175000000Y-101350000D01*
X175000000Y-101350000D02*
X182600000Y-101350000D01*
X179300000Y-101350000D02*
X179300000Y-100600000D01*
X179300000Y-100600000D02*
X178300000Y-100600000D01*
X178300000Y-100600000D02*
X178300000Y-101350000D01*
X178300000Y-101350000D02*
X179300000Y-101350000D01*
X182600000Y-101350000D02*
X182600000Y-100600000D01*
X182600000Y-100600000D02*
X180800000Y-100600000D01*
X180800000Y-100600000D02*
X180800000Y-101350000D01*
X180800000Y-101350000D02*
X182600000Y-101350000D01*
X176800000Y-101350000D02*
X176800000Y-100600000D01*
X176800000Y-100600000D02*
X175000000Y-100600000D01*
X175000000Y-100600000D02*
X175000000Y-101350000D01*
X175000000Y-101350000D02*
X176800000Y-101350000D01*
X182600000Y-99100000D02*
X181850000Y-99100000D01*
X181850000Y-99100000D02*
X181850000Y-96150000D01*
X181850000Y-96150000D02*
X178800000Y-96150000D01*
X175000000Y-99100000D02*
X175750000Y-99100000D01*
X175750000Y-99100000D02*
X175750000Y-96150000D01*
X175750000Y-96150000D02*
X178800000Y-96150000D01*
X180400000Y-101650000D02*
X182900000Y-101650000D01*
X182900000Y-101650000D02*
X182900000Y-99150000D01*
D13*
X135700000Y-94500000D02*
X140200000Y-94500000D01*
X134450000Y-90500000D02*
X134450000Y-92000000D01*
X140200000Y-88000000D02*
X135700000Y-88000000D01*
X141450000Y-92000000D02*
X141450000Y-90500000D01*
X176200000Y-94500000D02*
X180700000Y-94500000D01*
X174950000Y-90500000D02*
X174950000Y-92000000D01*
X180700000Y-88000000D02*
X176200000Y-88000000D01*
X181950000Y-92000000D02*
X181950000Y-90500000D01*
X176200000Y-137000000D02*
X180700000Y-137000000D01*
X174950000Y-133000000D02*
X174950000Y-134500000D01*
X180700000Y-130500000D02*
X176200000Y-130500000D01*
X181950000Y-134500000D02*
X181950000Y-133000000D01*
X135700000Y-137000000D02*
X140200000Y-137000000D01*
X134450000Y-133000000D02*
X134450000Y-134500000D01*
X140200000Y-130500000D02*
X135700000Y-130500000D01*
X141450000Y-134500000D02*
X141450000Y-133000000D01*
D14*
X182600000Y-115200000D02*
X182600000Y-109250000D01*
X182600000Y-109250000D02*
X175000000Y-109250000D01*
X175000000Y-109250000D02*
X175000000Y-115200000D01*
X175000000Y-115200000D02*
X182600000Y-115200000D01*
X179300000Y-115200000D02*
X179300000Y-114450000D01*
X179300000Y-114450000D02*
X178300000Y-114450000D01*
X178300000Y-114450000D02*
X178300000Y-115200000D01*
X178300000Y-115200000D02*
X179300000Y-115200000D01*
X182600000Y-115200000D02*
X182600000Y-114450000D01*
X182600000Y-114450000D02*
X180800000Y-114450000D01*
X180800000Y-114450000D02*
X180800000Y-115200000D01*
X180800000Y-115200000D02*
X182600000Y-115200000D01*
X176800000Y-115200000D02*
X176800000Y-114450000D01*
X176800000Y-114450000D02*
X175000000Y-114450000D01*
X175000000Y-114450000D02*
X175000000Y-115200000D01*
X175000000Y-115200000D02*
X176800000Y-115200000D01*
X182600000Y-112950000D02*
X181850000Y-112950000D01*
X181850000Y-112950000D02*
X181850000Y-110000000D01*
X181850000Y-110000000D02*
X178800000Y-110000000D01*
X175000000Y-112950000D02*
X175750000Y-112950000D01*
X175750000Y-112950000D02*
X175750000Y-110000000D01*
X175750000Y-110000000D02*
X178800000Y-110000000D01*
X180400000Y-115500000D02*
X182900000Y-115500000D01*
X182900000Y-115500000D02*
X182900000Y-113000000D01*
X176650000Y-129000000D02*
X182600000Y-129000000D01*
X182600000Y-129000000D02*
X182600000Y-116400000D01*
X182600000Y-116400000D02*
X176650000Y-116400000D01*
X176650000Y-116400000D02*
X176650000Y-129000000D01*
X176650000Y-125700000D02*
X177400000Y-125700000D01*
X177400000Y-125700000D02*
X177400000Y-119700000D01*
X177400000Y-119700000D02*
X176650000Y-119700000D01*
X176650000Y-119700000D02*
X176650000Y-125700000D01*
X176650000Y-129000000D02*
X177400000Y-129000000D01*
X177400000Y-129000000D02*
X177400000Y-127200000D01*
X177400000Y-127200000D02*
X176650000Y-127200000D01*
X176650000Y-127200000D02*
X176650000Y-129000000D01*
X176650000Y-118200000D02*
X177400000Y-118200000D01*
X177400000Y-118200000D02*
X177400000Y-116400000D01*
X177400000Y-116400000D02*
X176650000Y-116400000D01*
X176650000Y-116400000D02*
X176650000Y-118200000D01*
X178900000Y-129000000D02*
X178900000Y-128250000D01*
X178900000Y-128250000D02*
X181850000Y-128250000D01*
X181850000Y-128250000D02*
X181850000Y-122700000D01*
X178900000Y-116400000D02*
X178900000Y-117150000D01*
X178900000Y-117150000D02*
X181850000Y-117150000D01*
X181850000Y-117150000D02*
X181850000Y-122700000D01*
X176350000Y-126800000D02*
X176350000Y-129300000D01*
X176350000Y-129300000D02*
X178850000Y-129300000D01*
D13*
X146732381Y-112461905D02*
X147541905Y-112461905D01*
X147637143Y-112414286D01*
X147684762Y-112366667D01*
X147732381Y-112271429D01*
X147732381Y-112080952D01*
X147684762Y-111985714D01*
X147637143Y-111938095D01*
X147541905Y-111890476D01*
X146732381Y-111890476D01*
X147732381Y-110890476D02*
X147732381Y-111461905D01*
X147732381Y-111176191D02*
X146732381Y-111176191D01*
X146875238Y-111271429D01*
X146970476Y-111366667D01*
X147018095Y-111461905D01*
X137342381Y-114390476D02*
X137342381Y-113819047D01*
X138342381Y-114104762D02*
X137342381Y-114104762D01*
X138342381Y-113485714D02*
X137342381Y-113485714D01*
X137342381Y-113104761D01*
X137390000Y-113009523D01*
X137437619Y-112961904D01*
X137532857Y-112914285D01*
X137675714Y-112914285D01*
X137770952Y-112961904D01*
X137818571Y-113009523D01*
X137866190Y-113104761D01*
X137866190Y-113485714D01*
X137675714Y-112057142D02*
X138342381Y-112057142D01*
X137294762Y-112295238D02*
X138009048Y-112533333D01*
X138009048Y-111914285D01*
X137342381Y-111342857D02*
X137342381Y-111247618D01*
X137390000Y-111152380D01*
X137437619Y-111104761D01*
X137532857Y-111057142D01*
X137723333Y-111009523D01*
X137961429Y-111009523D01*
X138151905Y-111057142D01*
X138247143Y-111104761D01*
X138294762Y-111152380D01*
X138342381Y-111247618D01*
X138342381Y-111342857D01*
X138294762Y-111438095D01*
X138247143Y-111485714D01*
X138151905Y-111533333D01*
X137961429Y-111580952D01*
X137723333Y-111580952D01*
X137532857Y-111533333D01*
X137437619Y-111485714D01*
X137390000Y-111438095D01*
X137342381Y-111342857D01*
X137342381Y-110104761D02*
X137342381Y-110580952D01*
X137818571Y-110628571D01*
X137770952Y-110580952D01*
X137723333Y-110485714D01*
X137723333Y-110247618D01*
X137770952Y-110152380D01*
X137818571Y-110104761D01*
X137913810Y-110057142D01*
X138151905Y-110057142D01*
X138247143Y-110104761D01*
X138294762Y-110152380D01*
X138342381Y-110247618D01*
X138342381Y-110485714D01*
X138294762Y-110580952D01*
X138247143Y-110628571D01*
X137342381Y-109199999D02*
X137342381Y-109390476D01*
X137390000Y-109485714D01*
X137437619Y-109533333D01*
X137580476Y-109628571D01*
X137770952Y-109676190D01*
X138151905Y-109676190D01*
X138247143Y-109628571D01*
X138294762Y-109580952D01*
X138342381Y-109485714D01*
X138342381Y-109295237D01*
X138294762Y-109199999D01*
X138247143Y-109152380D01*
X138151905Y-109104761D01*
X137913810Y-109104761D01*
X137818571Y-109152380D01*
X137770952Y-109199999D01*
X137723333Y-109295237D01*
X137723333Y-109485714D01*
X137770952Y-109580952D01*
X137818571Y-109628571D01*
X137913810Y-109676190D01*
X147852381Y-104719048D02*
X147852381Y-104528571D01*
X147900000Y-104433333D01*
X147995238Y-104338095D01*
X148185714Y-104290476D01*
X148519048Y-104290476D01*
X148709524Y-104338095D01*
X148804762Y-104433333D01*
X148852381Y-104528571D01*
X148852381Y-104719048D01*
X148804762Y-104814286D01*
X148709524Y-104909524D01*
X148519048Y-104957143D01*
X148185714Y-104957143D01*
X147995238Y-104909524D01*
X147900000Y-104814286D01*
X147852381Y-104719048D01*
X147852381Y-103861905D02*
X148661905Y-103861905D01*
X148757143Y-103814286D01*
X148804762Y-103766667D01*
X148852381Y-103671429D01*
X148852381Y-103480952D01*
X148804762Y-103385714D01*
X148757143Y-103338095D01*
X148661905Y-103290476D01*
X147852381Y-103290476D01*
X147852381Y-102957143D02*
X147852381Y-102385714D01*
X148852381Y-102671429D02*
X147852381Y-102671429D01*
X148471429Y-102052381D02*
X148471429Y-101290476D01*
X145928571Y-102747618D02*
X145976190Y-102604761D01*
X146023810Y-102557142D01*
X146119048Y-102509523D01*
X146261905Y-102509523D01*
X146357143Y-102557142D01*
X146404762Y-102604761D01*
X146452381Y-102699999D01*
X146452381Y-103080952D01*
X145452381Y-103080952D01*
X145452381Y-102747618D01*
X145500000Y-102652380D01*
X145547619Y-102604761D01*
X145642857Y-102557142D01*
X145738095Y-102557142D01*
X145833333Y-102604761D01*
X145880952Y-102652380D01*
X145928571Y-102747618D01*
X145928571Y-103080952D01*
X146071429Y-102080952D02*
X146071429Y-101319047D01*
X138328571Y-102747618D02*
X138376190Y-102604761D01*
X138423810Y-102557142D01*
X138519048Y-102509523D01*
X138661905Y-102509523D01*
X138757143Y-102557142D01*
X138804762Y-102604761D01*
X138852381Y-102699999D01*
X138852381Y-103080952D01*
X137852381Y-103080952D01*
X137852381Y-102747618D01*
X137900000Y-102652380D01*
X137947619Y-102604761D01*
X138042857Y-102557142D01*
X138138095Y-102557142D01*
X138233333Y-102604761D01*
X138280952Y-102652380D01*
X138328571Y-102747618D01*
X138328571Y-103080952D01*
X138471429Y-102080952D02*
X138471429Y-101319047D01*
X138852381Y-101699999D02*
X138090476Y-101699999D01*
X135252381Y-104719048D02*
X135252381Y-104528571D01*
X135300000Y-104433333D01*
X135395238Y-104338095D01*
X135585714Y-104290476D01*
X135919048Y-104290476D01*
X136109524Y-104338095D01*
X136204762Y-104433333D01*
X136252381Y-104528571D01*
X136252381Y-104719048D01*
X136204762Y-104814286D01*
X136109524Y-104909524D01*
X135919048Y-104957143D01*
X135585714Y-104957143D01*
X135395238Y-104909524D01*
X135300000Y-104814286D01*
X135252381Y-104719048D01*
X135252381Y-103861905D02*
X136061905Y-103861905D01*
X136157143Y-103814286D01*
X136204762Y-103766667D01*
X136252381Y-103671429D01*
X136252381Y-103480952D01*
X136204762Y-103385714D01*
X136157143Y-103338095D01*
X136061905Y-103290476D01*
X135252381Y-103290476D01*
X135252381Y-102957143D02*
X135252381Y-102385714D01*
X136252381Y-102671429D02*
X135252381Y-102671429D01*
X135871429Y-102052381D02*
X135871429Y-101290476D01*
X136252381Y-101671428D02*
X135490476Y-101671428D01*
X149052381Y-121742857D02*
X148052381Y-121742857D01*
X149052381Y-121266667D02*
X148052381Y-121266667D01*
X149052381Y-120695238D01*
X148052381Y-120695238D01*
X148671429Y-120219048D02*
X148671429Y-119457143D01*
X136352381Y-121642857D02*
X135352381Y-121642857D01*
X136352381Y-121166667D02*
X135352381Y-121166667D01*
X136352381Y-120595238D01*
X135352381Y-120595238D01*
X135971429Y-120119048D02*
X135971429Y-119357143D01*
X136352381Y-119738095D02*
X135590476Y-119738095D01*
X148238095Y-93152381D02*
X148238095Y-93961905D01*
X148285714Y-94057143D01*
X148333333Y-94104762D01*
X148428571Y-94152381D01*
X148619048Y-94152381D01*
X148714286Y-94104762D01*
X148761905Y-94057143D01*
X148809524Y-93961905D01*
X148809524Y-93152381D01*
X149238095Y-93247619D02*
X149285714Y-93200000D01*
X149380952Y-93152381D01*
X149619048Y-93152381D01*
X149714286Y-93200000D01*
X149761905Y-93247619D01*
X149809524Y-93342857D01*
X149809524Y-93438095D01*
X149761905Y-93580952D01*
X149190476Y-94152381D01*
X149809524Y-94152381D01*
X143609524Y-91016667D02*
X143990476Y-91016667D01*
X143533333Y-91302381D02*
X143800000Y-90302381D01*
X144066667Y-91302381D01*
X144219047Y-90302381D02*
X144676190Y-90302381D01*
X144447619Y-91302381D02*
X144447619Y-90302381D01*
X144828571Y-90302381D02*
X145285714Y-90302381D01*
X145057143Y-91302381D02*
X145057143Y-90302381D01*
X145552381Y-91302381D02*
X145552381Y-90302381D01*
X145933333Y-91302381D02*
X145933333Y-90302381D01*
X146390476Y-91302381D01*
X146390476Y-90302381D01*
X146923809Y-90826190D02*
X146923809Y-91302381D01*
X146657142Y-90302381D02*
X146923809Y-90826190D01*
X147190476Y-90302381D01*
X147571428Y-90730952D02*
X147495237Y-90683333D01*
X147457142Y-90635714D01*
X147419047Y-90540476D01*
X147419047Y-90492857D01*
X147457142Y-90397619D01*
X147495237Y-90350000D01*
X147571428Y-90302381D01*
X147723809Y-90302381D01*
X147799999Y-90350000D01*
X147838095Y-90397619D01*
X147876190Y-90492857D01*
X147876190Y-90540476D01*
X147838095Y-90635714D01*
X147799999Y-90683333D01*
X147723809Y-90730952D01*
X147571428Y-90730952D01*
X147495237Y-90778571D01*
X147457142Y-90826190D01*
X147419047Y-90921429D01*
X147419047Y-91111905D01*
X147457142Y-91207143D01*
X147495237Y-91254762D01*
X147571428Y-91302381D01*
X147723809Y-91302381D01*
X147799999Y-91254762D01*
X147838095Y-91207143D01*
X147876190Y-91111905D01*
X147876190Y-90921429D01*
X147838095Y-90826190D01*
X147799999Y-90778571D01*
X147723809Y-90730952D01*
X148600000Y-90302381D02*
X148219047Y-90302381D01*
X148180952Y-90778571D01*
X148219047Y-90730952D01*
X148295238Y-90683333D01*
X148485714Y-90683333D01*
X148561904Y-90730952D01*
X148600000Y-90778571D01*
X148638095Y-90873810D01*
X148638095Y-91111905D01*
X148600000Y-91207143D01*
X148561904Y-91254762D01*
X148485714Y-91302381D01*
X148295238Y-91302381D01*
X148219047Y-91254762D01*
X148180952Y-91207143D01*
X148980952Y-90921429D02*
X149590476Y-90921429D01*
X149933333Y-90397619D02*
X149971428Y-90350000D01*
X150047619Y-90302381D01*
X150238095Y-90302381D01*
X150314285Y-90350000D01*
X150352381Y-90397619D01*
X150390476Y-90492857D01*
X150390476Y-90588095D01*
X150352381Y-90730952D01*
X149895238Y-91302381D01*
X150390476Y-91302381D01*
X150885714Y-90302381D02*
X150961905Y-90302381D01*
X151038095Y-90350000D01*
X151076190Y-90397619D01*
X151114286Y-90492857D01*
X151152381Y-90683333D01*
X151152381Y-90921429D01*
X151114286Y-91111905D01*
X151076190Y-91207143D01*
X151038095Y-91254762D01*
X150961905Y-91302381D01*
X150885714Y-91302381D01*
X150809524Y-91254762D01*
X150771428Y-91207143D01*
X150733333Y-91111905D01*
X150695238Y-90921429D01*
X150695238Y-90683333D01*
X150733333Y-90492857D01*
X150771428Y-90397619D01*
X150809524Y-90350000D01*
X150885714Y-90302381D01*
X151495238Y-91302381D02*
X151495238Y-90302381D01*
X151800000Y-90302381D01*
X151876191Y-90350000D01*
X151914286Y-90397619D01*
X151952381Y-90492857D01*
X151952381Y-90635714D01*
X151914286Y-90730952D01*
X151876191Y-90778571D01*
X151800000Y-90826190D01*
X151495238Y-90826190D01*
X152295238Y-90302381D02*
X152295238Y-91111905D01*
X152333333Y-91207143D01*
X152371429Y-91254762D01*
X152447619Y-91302381D01*
X152600000Y-91302381D01*
X152676191Y-91254762D01*
X152714286Y-91207143D01*
X152752381Y-91111905D01*
X152752381Y-90302381D01*
X170052381Y-129009524D02*
X169052381Y-129009524D01*
X169766667Y-128676190D01*
X169052381Y-128342857D01*
X170052381Y-128342857D01*
X170052381Y-127342857D02*
X170052381Y-127914286D01*
X170052381Y-127628572D02*
X169052381Y-127628572D01*
X169195238Y-127723810D01*
X169290476Y-127819048D01*
X169338095Y-127914286D01*
X157642381Y-130485714D02*
X158356667Y-130485714D01*
X158499524Y-130533334D01*
X158594762Y-130628572D01*
X158642381Y-130771429D01*
X158642381Y-130866667D01*
X158737619Y-129342857D02*
X158690000Y-129438095D01*
X158594762Y-129533333D01*
X158451905Y-129676190D01*
X158404286Y-129771429D01*
X158404286Y-129866667D01*
X158642381Y-129819048D02*
X158594762Y-129914286D01*
X158499524Y-130009524D01*
X158309048Y-130057143D01*
X157975714Y-130057143D01*
X157785238Y-130009524D01*
X157690000Y-129914286D01*
X157642381Y-129819048D01*
X157642381Y-129628571D01*
X157690000Y-129533333D01*
X157785238Y-129438095D01*
X157975714Y-129390476D01*
X158309048Y-129390476D01*
X158499524Y-129438095D01*
X158594762Y-129533333D01*
X158642381Y-129628571D01*
X158642381Y-129819048D01*
X157642381Y-128533333D02*
X157642381Y-128723810D01*
X157690000Y-128819048D01*
X157737619Y-128866667D01*
X157880476Y-128961905D01*
X158070952Y-129009524D01*
X158451905Y-129009524D01*
X158547143Y-128961905D01*
X158594762Y-128914286D01*
X158642381Y-128819048D01*
X158642381Y-128628571D01*
X158594762Y-128533333D01*
X158547143Y-128485714D01*
X158451905Y-128438095D01*
X158213810Y-128438095D01*
X158118571Y-128485714D01*
X158070952Y-128533333D01*
X158023333Y-128628571D01*
X158023333Y-128819048D01*
X158070952Y-128914286D01*
X158118571Y-128961905D01*
X158213810Y-129009524D01*
X157642381Y-127533333D02*
X157642381Y-128009524D01*
X158118571Y-128057143D01*
X158070952Y-128009524D01*
X158023333Y-127914286D01*
X158023333Y-127676190D01*
X158070952Y-127580952D01*
X158118571Y-127533333D01*
X158213810Y-127485714D01*
X158451905Y-127485714D01*
X158547143Y-127533333D01*
X158594762Y-127580952D01*
X158642381Y-127676190D01*
X158642381Y-127914286D01*
X158594762Y-128009524D01*
X158547143Y-128057143D01*
X157642381Y-126866667D02*
X157642381Y-126771428D01*
X157690000Y-126676190D01*
X157737619Y-126628571D01*
X157832857Y-126580952D01*
X158023333Y-126533333D01*
X158261429Y-126533333D01*
X158451905Y-126580952D01*
X158547143Y-126628571D01*
X158594762Y-126676190D01*
X158642381Y-126771428D01*
X158642381Y-126866667D01*
X158594762Y-126961905D01*
X158547143Y-127009524D01*
X158451905Y-127057143D01*
X158261429Y-127104762D01*
X158023333Y-127104762D01*
X157832857Y-127057143D01*
X157737619Y-127009524D01*
X157690000Y-126961905D01*
X157642381Y-126866667D01*
X157642381Y-125914286D02*
X157642381Y-125819047D01*
X157690000Y-125723809D01*
X157737619Y-125676190D01*
X157832857Y-125628571D01*
X158023333Y-125580952D01*
X158261429Y-125580952D01*
X158451905Y-125628571D01*
X158547143Y-125676190D01*
X158594762Y-125723809D01*
X158642381Y-125819047D01*
X158642381Y-125914286D01*
X158594762Y-126009524D01*
X158547143Y-126057143D01*
X158451905Y-126104762D01*
X158261429Y-126152381D01*
X158023333Y-126152381D01*
X157832857Y-126104762D01*
X157737619Y-126057143D01*
X157690000Y-126009524D01*
X157642381Y-125914286D01*
X148971905Y-131874762D02*
X148171905Y-131874762D01*
X148171905Y-131684286D01*
X148210000Y-131570000D01*
X148286190Y-131493809D01*
X148362381Y-131455714D01*
X148514762Y-131417619D01*
X148629048Y-131417619D01*
X148781429Y-131455714D01*
X148857619Y-131493809D01*
X148933810Y-131570000D01*
X148971905Y-131684286D01*
X148971905Y-131874762D01*
X148667143Y-131074762D02*
X148667143Y-130465238D01*
X148971905Y-130770000D02*
X148362381Y-130770000D01*
X149101905Y-125904762D02*
X148301905Y-125904762D01*
X148301905Y-125714286D01*
X148340000Y-125600000D01*
X148416190Y-125523809D01*
X148492381Y-125485714D01*
X148644762Y-125447619D01*
X148759048Y-125447619D01*
X148911429Y-125485714D01*
X148987619Y-125523809D01*
X149063810Y-125600000D01*
X149101905Y-125714286D01*
X149101905Y-125904762D01*
X148797143Y-125104762D02*
X148797143Y-124495238D01*
X152652381Y-129461905D02*
X153461905Y-129461905D01*
X153557143Y-129414286D01*
X153604762Y-129366667D01*
X153652381Y-129271429D01*
X153652381Y-129080952D01*
X153604762Y-128985714D01*
X153557143Y-128938095D01*
X153461905Y-128890476D01*
X152652381Y-128890476D01*
X153604762Y-128461905D02*
X153652381Y-128319048D01*
X153652381Y-128080952D01*
X153604762Y-127985714D01*
X153557143Y-127938095D01*
X153461905Y-127890476D01*
X153366667Y-127890476D01*
X153271429Y-127938095D01*
X153223810Y-127985714D01*
X153176190Y-128080952D01*
X153128571Y-128271429D01*
X153080952Y-128366667D01*
X153033333Y-128414286D01*
X152938095Y-128461905D01*
X152842857Y-128461905D01*
X152747619Y-128414286D01*
X152700000Y-128366667D01*
X152652381Y-128271429D01*
X152652381Y-128033333D01*
X152700000Y-127890476D01*
X153128571Y-127128571D02*
X153176190Y-126985714D01*
X153223810Y-126938095D01*
X153319048Y-126890476D01*
X153461905Y-126890476D01*
X153557143Y-126938095D01*
X153604762Y-126985714D01*
X153652381Y-127080952D01*
X153652381Y-127461905D01*
X152652381Y-127461905D01*
X152652381Y-127128571D01*
X152700000Y-127033333D01*
X152747619Y-126985714D01*
X152842857Y-126938095D01*
X152938095Y-126938095D01*
X153033333Y-126985714D01*
X153080952Y-127033333D01*
X153128571Y-127128571D01*
X153128571Y-127461905D01*
X178035714Y-104066667D02*
X178511905Y-104066667D01*
X177940476Y-104352381D02*
X178273809Y-103352381D01*
X178607143Y-104352381D01*
X179464286Y-104352381D02*
X178892857Y-104352381D01*
X179178571Y-104352381D02*
X179178571Y-103352381D01*
X179083333Y-103495238D01*
X178988095Y-103590476D01*
X178892857Y-103638095D01*
X174116667Y-106850000D02*
X174116667Y-106373809D01*
X174402381Y-106945238D02*
X173402381Y-106611905D01*
X174402381Y-106278571D01*
X174402381Y-105945238D02*
X173402381Y-105945238D01*
X174021429Y-105850000D02*
X174402381Y-105564285D01*
X173735714Y-105564285D02*
X174116667Y-105945238D01*
X174402381Y-105135714D02*
X173402381Y-105135714D01*
X174021429Y-105040476D02*
X174402381Y-104754761D01*
X173735714Y-104754761D02*
X174116667Y-105135714D01*
X173735714Y-103897618D02*
X174402381Y-103897618D01*
X173735714Y-104326190D02*
X174259524Y-104326190D01*
X174354762Y-104278571D01*
X174402381Y-104183333D01*
X174402381Y-104040475D01*
X174354762Y-103945237D01*
X174307143Y-103897618D01*
X178157143Y-97502381D02*
X177680952Y-97502381D01*
X177680952Y-96502381D01*
X178442857Y-97454762D02*
X178585714Y-97502381D01*
X178823810Y-97502381D01*
X178919048Y-97454762D01*
X178966667Y-97407143D01*
X179014286Y-97311905D01*
X179014286Y-97216667D01*
X178966667Y-97121429D01*
X178919048Y-97073810D01*
X178823810Y-97026190D01*
X178633333Y-96978571D01*
X178538095Y-96930952D01*
X178490476Y-96883333D01*
X178442857Y-96788095D01*
X178442857Y-96692857D01*
X178490476Y-96597619D01*
X178538095Y-96550000D01*
X178633333Y-96502381D01*
X178871429Y-96502381D01*
X179014286Y-96550000D01*
X179966667Y-97502381D02*
X179395238Y-97502381D01*
X179680952Y-97502381D02*
X179680952Y-96502381D01*
X179585714Y-96645238D01*
X179490476Y-96740476D01*
X179395238Y-96788095D01*
X174204762Y-101261905D02*
X174252381Y-101119048D01*
X174252381Y-100880952D01*
X174204762Y-100785714D01*
X174157143Y-100738095D01*
X174061905Y-100690476D01*
X173966667Y-100690476D01*
X173871429Y-100738095D01*
X173823810Y-100785714D01*
X173776190Y-100880952D01*
X173728571Y-101071429D01*
X173680952Y-101166667D01*
X173633333Y-101214286D01*
X173538095Y-101261905D01*
X173442857Y-101261905D01*
X173347619Y-101214286D01*
X173300000Y-101166667D01*
X173252381Y-101071429D01*
X173252381Y-100833333D01*
X173300000Y-100690476D01*
X173585714Y-100261905D02*
X174585714Y-100261905D01*
X173633333Y-100261905D02*
X173585714Y-100166667D01*
X173585714Y-99976190D01*
X173633333Y-99880952D01*
X173680952Y-99833333D01*
X173776190Y-99785714D01*
X174061905Y-99785714D01*
X174157143Y-99833333D01*
X174204762Y-99880952D01*
X174252381Y-99976190D01*
X174252381Y-100166667D01*
X174204762Y-100261905D01*
X174204762Y-98976190D02*
X174252381Y-99071428D01*
X174252381Y-99261905D01*
X174204762Y-99357143D01*
X174109524Y-99404762D01*
X173728571Y-99404762D01*
X173633333Y-99357143D01*
X173585714Y-99261905D01*
X173585714Y-99071428D01*
X173633333Y-98976190D01*
X173728571Y-98928571D01*
X173823810Y-98928571D01*
X173919048Y-99404762D01*
X174252381Y-98071428D02*
X173728571Y-98071428D01*
X173633333Y-98119047D01*
X173585714Y-98214285D01*
X173585714Y-98404762D01*
X173633333Y-98500000D01*
X174204762Y-98071428D02*
X174252381Y-98166666D01*
X174252381Y-98404762D01*
X174204762Y-98500000D01*
X174109524Y-98547619D01*
X174014286Y-98547619D01*
X173919048Y-98500000D01*
X173871429Y-98404762D01*
X173871429Y-98166666D01*
X173823810Y-98071428D01*
X174252381Y-97595238D02*
X173252381Y-97595238D01*
X173871429Y-97500000D02*
X174252381Y-97214285D01*
X173585714Y-97214285D02*
X173966667Y-97595238D01*
X174204762Y-96404761D02*
X174252381Y-96499999D01*
X174252381Y-96690476D01*
X174204762Y-96785714D01*
X174109524Y-96833333D01*
X173728571Y-96833333D01*
X173633333Y-96785714D01*
X173585714Y-96690476D01*
X173585714Y-96499999D01*
X173633333Y-96404761D01*
X173728571Y-96357142D01*
X173823810Y-96357142D01*
X173919048Y-96833333D01*
X174252381Y-95928571D02*
X173585714Y-95928571D01*
X173776190Y-95928571D02*
X173680952Y-95880952D01*
X173633333Y-95833333D01*
X173585714Y-95738095D01*
X173585714Y-95642856D01*
X136516667Y-96154762D02*
X136659524Y-96202381D01*
X136897620Y-96202381D01*
X136992858Y-96154762D01*
X137040477Y-96107143D01*
X137088096Y-96011905D01*
X137088096Y-95916667D01*
X137040477Y-95821429D01*
X136992858Y-95773810D01*
X136897620Y-95726190D01*
X136707143Y-95678571D01*
X136611905Y-95630952D01*
X136564286Y-95583333D01*
X136516667Y-95488095D01*
X136516667Y-95392857D01*
X136564286Y-95297619D01*
X136611905Y-95250000D01*
X136707143Y-95202381D01*
X136945239Y-95202381D01*
X137088096Y-95250000D01*
X137421429Y-95202381D02*
X137659524Y-96202381D01*
X137850001Y-95488095D01*
X138040477Y-96202381D01*
X138278572Y-95202381D01*
X139183334Y-96202381D02*
X138611905Y-96202381D01*
X138897619Y-96202381D02*
X138897619Y-95202381D01*
X138802381Y-95345238D01*
X138707143Y-95440476D01*
X138611905Y-95488095D01*
X173504762Y-92733333D02*
X173552381Y-92590476D01*
X173552381Y-92352380D01*
X173504762Y-92257142D01*
X173457143Y-92209523D01*
X173361905Y-92161904D01*
X173266667Y-92161904D01*
X173171429Y-92209523D01*
X173123810Y-92257142D01*
X173076190Y-92352380D01*
X173028571Y-92542857D01*
X172980952Y-92638095D01*
X172933333Y-92685714D01*
X172838095Y-92733333D01*
X172742857Y-92733333D01*
X172647619Y-92685714D01*
X172600000Y-92638095D01*
X172552381Y-92542857D01*
X172552381Y-92304761D01*
X172600000Y-92161904D01*
X172552381Y-91828571D02*
X173552381Y-91590476D01*
X172838095Y-91399999D01*
X173552381Y-91209523D01*
X172552381Y-90971428D01*
X172647619Y-90638095D02*
X172600000Y-90590476D01*
X172552381Y-90495238D01*
X172552381Y-90257142D01*
X172600000Y-90161904D01*
X172647619Y-90114285D01*
X172742857Y-90066666D01*
X172838095Y-90066666D01*
X172980952Y-90114285D01*
X173552381Y-90685714D01*
X173552381Y-90066666D01*
X176966667Y-131254762D02*
X177109524Y-131302381D01*
X177347620Y-131302381D01*
X177442858Y-131254762D01*
X177490477Y-131207143D01*
X177538096Y-131111905D01*
X177538096Y-131016667D01*
X177490477Y-130921429D01*
X177442858Y-130873810D01*
X177347620Y-130826190D01*
X177157143Y-130778571D01*
X177061905Y-130730952D01*
X177014286Y-130683333D01*
X176966667Y-130588095D01*
X176966667Y-130492857D01*
X177014286Y-130397619D01*
X177061905Y-130350000D01*
X177157143Y-130302381D01*
X177395239Y-130302381D01*
X177538096Y-130350000D01*
X177871429Y-130302381D02*
X178109524Y-131302381D01*
X178300001Y-130588095D01*
X178490477Y-131302381D01*
X178728572Y-130302381D01*
X179014286Y-130302381D02*
X179633334Y-130302381D01*
X179300000Y-130683333D01*
X179442858Y-130683333D01*
X179538096Y-130730952D01*
X179585715Y-130778571D01*
X179633334Y-130873810D01*
X179633334Y-131111905D01*
X179585715Y-131207143D01*
X179538096Y-131254762D01*
X179442858Y-131302381D01*
X179157143Y-131302381D01*
X179061905Y-131254762D01*
X179014286Y-131207143D01*
X136566667Y-129804762D02*
X136709524Y-129852381D01*
X136947620Y-129852381D01*
X137042858Y-129804762D01*
X137090477Y-129757143D01*
X137138096Y-129661905D01*
X137138096Y-129566667D01*
X137090477Y-129471429D01*
X137042858Y-129423810D01*
X136947620Y-129376190D01*
X136757143Y-129328571D01*
X136661905Y-129280952D01*
X136614286Y-129233333D01*
X136566667Y-129138095D01*
X136566667Y-129042857D01*
X136614286Y-128947619D01*
X136661905Y-128900000D01*
X136757143Y-128852381D01*
X136995239Y-128852381D01*
X137138096Y-128900000D01*
X137471429Y-128852381D02*
X137709524Y-129852381D01*
X137900001Y-129138095D01*
X138090477Y-129852381D01*
X138328572Y-128852381D01*
X139138096Y-129185714D02*
X139138096Y-129852381D01*
X138900000Y-128804762D02*
X138661905Y-129519048D01*
X139280953Y-129519048D01*
X177316667Y-111254762D02*
X177459524Y-111302381D01*
X177697620Y-111302381D01*
X177792858Y-111254762D01*
X177840477Y-111207143D01*
X177888096Y-111111905D01*
X177888096Y-111016667D01*
X177840477Y-110921429D01*
X177792858Y-110873810D01*
X177697620Y-110826190D01*
X177507143Y-110778571D01*
X177411905Y-110730952D01*
X177364286Y-110683333D01*
X177316667Y-110588095D01*
X177316667Y-110492857D01*
X177364286Y-110397619D01*
X177411905Y-110350000D01*
X177507143Y-110302381D01*
X177745239Y-110302381D01*
X177888096Y-110350000D01*
X178221429Y-110302381D02*
X178459524Y-111302381D01*
X178650001Y-110588095D01*
X178840477Y-111302381D01*
X179078572Y-110302381D01*
X179935715Y-110302381D02*
X179459524Y-110302381D01*
X179411905Y-110778571D01*
X179459524Y-110730952D01*
X179554762Y-110683333D01*
X179792858Y-110683333D01*
X179888096Y-110730952D01*
X179935715Y-110778571D01*
X179983334Y-110873810D01*
X179983334Y-111111905D01*
X179935715Y-111207143D01*
X179888096Y-111254762D01*
X179792858Y-111302381D01*
X179554762Y-111302381D01*
X179459524Y-111254762D01*
X179411905Y-111207143D01*
X173352381Y-114416667D02*
X173352381Y-114226190D01*
X173400000Y-114130952D01*
X173495238Y-114035714D01*
X173685714Y-113988095D01*
X174019048Y-113988095D01*
X174209524Y-114035714D01*
X174304762Y-114130952D01*
X174352381Y-114226190D01*
X174352381Y-114416667D01*
X174304762Y-114511905D01*
X174209524Y-114607143D01*
X174019048Y-114654762D01*
X173685714Y-114654762D01*
X173495238Y-114607143D01*
X173400000Y-114511905D01*
X173352381Y-114416667D01*
X173685714Y-113559524D02*
X174352381Y-113559524D01*
X173780952Y-113559524D02*
X173733333Y-113511905D01*
X173685714Y-113416667D01*
X173685714Y-113273809D01*
X173733333Y-113178571D01*
X173828571Y-113130952D01*
X174352381Y-113130952D01*
X173304762Y-111940476D02*
X174590476Y-112797619D01*
X173352381Y-111416667D02*
X173352381Y-111226190D01*
X173400000Y-111130952D01*
X173495238Y-111035714D01*
X173685714Y-110988095D01*
X174019048Y-110988095D01*
X174209524Y-111035714D01*
X174304762Y-111130952D01*
X174352381Y-111226190D01*
X174352381Y-111416667D01*
X174304762Y-111511905D01*
X174209524Y-111607143D01*
X174019048Y-111654762D01*
X173685714Y-111654762D01*
X173495238Y-111607143D01*
X173400000Y-111511905D01*
X173352381Y-111416667D01*
X173685714Y-110702381D02*
X173685714Y-110321429D01*
X174352381Y-110559524D02*
X173495238Y-110559524D01*
X173400000Y-110511905D01*
X173352381Y-110416667D01*
X173352381Y-110321429D01*
X173685714Y-110130952D02*
X173685714Y-109750000D01*
X174352381Y-109988095D02*
X173495238Y-109988095D01*
X173400000Y-109940476D01*
X173352381Y-109845238D01*
X173352381Y-109750000D01*
X180552381Y-122383333D02*
X181266667Y-122383333D01*
X181409524Y-122430953D01*
X181504762Y-122526191D01*
X181552381Y-122669048D01*
X181552381Y-122764286D01*
X181552381Y-121383333D02*
X181552381Y-121954762D01*
X181552381Y-121669048D02*
X180552381Y-121669048D01*
X180695238Y-121764286D01*
X180790476Y-121859524D01*
X180838095Y-121954762D01*
X173538095Y-116752381D02*
X173538095Y-117561905D01*
X173585714Y-117657143D01*
X173633333Y-117704762D01*
X173728571Y-117752381D01*
X173919048Y-117752381D01*
X174014286Y-117704762D01*
X174061905Y-117657143D01*
X174109524Y-117561905D01*
X174109524Y-116752381D01*
X174538095Y-117704762D02*
X174680952Y-117752381D01*
X174919048Y-117752381D01*
X175014286Y-117704762D01*
X175061905Y-117657143D01*
X175109524Y-117561905D01*
X175109524Y-117466667D01*
X175061905Y-117371429D01*
X175014286Y-117323810D01*
X174919048Y-117276190D01*
X174728571Y-117228571D01*
X174633333Y-117180952D01*
X174585714Y-117133333D01*
X174538095Y-117038095D01*
X174538095Y-116942857D01*
X174585714Y-116847619D01*
X174633333Y-116800000D01*
X174728571Y-116752381D01*
X174966667Y-116752381D01*
X175109524Y-116800000D01*
X175871429Y-117228571D02*
X176014286Y-117276190D01*
X176061905Y-117323810D01*
X176109524Y-117419048D01*
X176109524Y-117561905D01*
X176061905Y-117657143D01*
X176014286Y-117704762D01*
X175919048Y-117752381D01*
X175538095Y-117752381D01*
X175538095Y-116752381D01*
X175871429Y-116752381D01*
X175966667Y-116800000D01*
X176014286Y-116847619D01*
X176061905Y-116942857D01*
X176061905Y-117038095D01*
X176014286Y-117133333D01*
X175966667Y-117180952D01*
X175871429Y-117228571D01*
X175538095Y-117228571D01*
M02*
