G04 #@! TF.FileFunction,Copper,L1,Top,Signal*
%FSLAX46Y46*%
G04 Gerber Fmt 4.6, Leading zero omitted, Abs format (unit mm)*
G04 Created by KiCad (PCBNEW 4.0.6+dfsg1-1) date Sat Jan 20 11:22:17 2018*
%MOMM*%
%LPD*%
G01*
G04 APERTURE LIST*
%ADD10C,0.100000*%
%ADD11R,1.850000X1.850000*%
%ADD12C,1.850000*%
%ADD13C,1.524000*%
%ADD14R,1.600000X1.600000*%
%ADD15O,1.600000X1.600000*%
%ADD16C,2.000000*%
%ADD17C,0.250000*%
%ADD18C,0.254000*%
G04 APERTURE END LIST*
D10*
D11*
X146800000Y-95000000D03*
D12*
X149300000Y-95000000D03*
D13*
X147720000Y-142310000D03*
X147720000Y-134690000D03*
X147720000Y-132150000D03*
X147720000Y-144850000D03*
X170580000Y-132150000D03*
X170580000Y-144850000D03*
D14*
X142950000Y-138250000D03*
D15*
X135330000Y-130630000D03*
X142950000Y-135710000D03*
X135330000Y-133170000D03*
X142950000Y-133170000D03*
X135330000Y-135710000D03*
X142950000Y-130630000D03*
X135330000Y-138250000D03*
D13*
X150662000Y-126440000D03*
X150662000Y-123900000D03*
X150662000Y-121360000D03*
X150662000Y-118820000D03*
X150662000Y-116280000D03*
X150662000Y-113740000D03*
X150662000Y-111200000D03*
X150662000Y-108660000D03*
X136438000Y-126440000D03*
X136438000Y-123900000D03*
X136438000Y-121360000D03*
X136438000Y-118820000D03*
X136438000Y-116280000D03*
X136438000Y-113740000D03*
X136438000Y-111200000D03*
X136438000Y-108660000D03*
X144750000Y-103950000D03*
X142350000Y-103950000D03*
D16*
X134700000Y-93500000D03*
X134700000Y-89000000D03*
X141200000Y-93500000D03*
X141200000Y-89000000D03*
X175200000Y-93500000D03*
X175200000Y-89000000D03*
X181700000Y-93500000D03*
X181700000Y-89000000D03*
X175200000Y-146000000D03*
X175200000Y-141500000D03*
X181700000Y-146000000D03*
X181700000Y-141500000D03*
X134700000Y-146000000D03*
X134700000Y-141500000D03*
X141200000Y-146000000D03*
X141200000Y-141500000D03*
D11*
X175750000Y-103650000D03*
D12*
X175750000Y-106150000D03*
D11*
X175700000Y-117250000D03*
D12*
X175700000Y-119750000D03*
X175700000Y-122250000D03*
X175700000Y-124750000D03*
D13*
X157250000Y-122700000D03*
X169250000Y-122700000D03*
D17*
X170580000Y-122370000D02*
X170580000Y-132150000D01*
X175700000Y-117250000D02*
X170580000Y-122370000D01*
X173176900Y-122273100D02*
X175700000Y-119750000D01*
X173176900Y-142253100D02*
X173176900Y-122273100D01*
X170580000Y-144850000D02*
X173176900Y-142253100D01*
X157250000Y-115248000D02*
X150662000Y-108660000D01*
X157250000Y-122700000D02*
X157250000Y-115248000D01*
X135330000Y-135710000D02*
X135330000Y-136835300D01*
X135048600Y-134584700D02*
X135330000Y-134584700D01*
X134204700Y-133740800D02*
X135048600Y-134584700D01*
X134204700Y-93995300D02*
X134204700Y-133740800D01*
X134700000Y-93500000D02*
X134204700Y-93995300D01*
X135330000Y-135710000D02*
X135330000Y-134584700D01*
X138210600Y-146000000D02*
X136455300Y-144244700D01*
X141200000Y-146000000D02*
X138210600Y-146000000D01*
X134700000Y-146000000D02*
X136455300Y-144244700D01*
X135611400Y-136835300D02*
X135330000Y-136835300D01*
X136455300Y-137679200D02*
X135611400Y-136835300D01*
X136455300Y-144244700D02*
X136455300Y-137679200D01*
X141200000Y-93500000D02*
X175200000Y-93500000D01*
X149300000Y-119998000D02*
X150662000Y-121360000D01*
X149300000Y-95000000D02*
X149300000Y-119998000D01*
X142668700Y-131755300D02*
X142950000Y-131755300D01*
X141200000Y-133224000D02*
X142668700Y-131755300D01*
X141200000Y-141500000D02*
X141200000Y-133224000D01*
X142950000Y-130630000D02*
X142950000Y-131755300D01*
X147720000Y-97170300D02*
X146800000Y-96250300D01*
X147720000Y-132150000D02*
X147720000Y-97170300D01*
X146800000Y-95000000D02*
X146800000Y-96250300D01*
X164251500Y-115148500D02*
X175750000Y-103650000D01*
X164251500Y-125778500D02*
X164251500Y-115148500D01*
X147720000Y-142310000D02*
X164251500Y-125778500D01*
D18*
G36*
X139554092Y-88735461D02*
X139578144Y-89385460D01*
X139780613Y-89874264D01*
X140047468Y-89972927D01*
X141020395Y-89000000D01*
X141006253Y-88985858D01*
X141185858Y-88806253D01*
X141200000Y-88820395D01*
X141214143Y-88806253D01*
X141393748Y-88985858D01*
X141379605Y-89000000D01*
X142352532Y-89972927D01*
X142619387Y-89874264D01*
X142845908Y-89264539D01*
X142821856Y-88614540D01*
X142654290Y-88210000D01*
X173749308Y-88210000D01*
X173554092Y-88735461D01*
X173578144Y-89385460D01*
X173780613Y-89874264D01*
X174047468Y-89972927D01*
X175020395Y-89000000D01*
X175006253Y-88985858D01*
X175185858Y-88806253D01*
X175200000Y-88820395D01*
X175214143Y-88806253D01*
X175393748Y-88985858D01*
X175379605Y-89000000D01*
X176352532Y-89972927D01*
X176619387Y-89874264D01*
X176845908Y-89264539D01*
X176821856Y-88614540D01*
X176654290Y-88210000D01*
X180249308Y-88210000D01*
X180054092Y-88735461D01*
X180078144Y-89385460D01*
X180280613Y-89874264D01*
X180547468Y-89972927D01*
X181520395Y-89000000D01*
X181506253Y-88985858D01*
X181685858Y-88806253D01*
X181700000Y-88820395D01*
X181714143Y-88806253D01*
X181893748Y-88985858D01*
X181879605Y-89000000D01*
X181893748Y-89014143D01*
X181714143Y-89193748D01*
X181700000Y-89179605D01*
X180727073Y-90152532D01*
X180825736Y-90419387D01*
X181435461Y-90645908D01*
X182085460Y-90621856D01*
X182490000Y-90454290D01*
X182490000Y-92057684D01*
X182026648Y-91865284D01*
X181376205Y-91864716D01*
X180775057Y-92113106D01*
X180314722Y-92572637D01*
X180065284Y-93173352D01*
X180064716Y-93823795D01*
X180313106Y-94424943D01*
X180772637Y-94885278D01*
X181373352Y-95134716D01*
X182023795Y-95135284D01*
X182490000Y-94942651D01*
X182490000Y-140049308D01*
X181964539Y-139854092D01*
X181314540Y-139878144D01*
X180825736Y-140080613D01*
X180727073Y-140347468D01*
X181700000Y-141320395D01*
X181714143Y-141306253D01*
X181893748Y-141485858D01*
X181879605Y-141500000D01*
X181893748Y-141514143D01*
X181714143Y-141693748D01*
X181700000Y-141679605D01*
X180727073Y-142652532D01*
X180825736Y-142919387D01*
X181435461Y-143145908D01*
X182085460Y-143121856D01*
X182490000Y-142954290D01*
X182490000Y-144557684D01*
X182026648Y-144365284D01*
X181376205Y-144364716D01*
X180775057Y-144613106D01*
X180314722Y-145072637D01*
X180065284Y-145673352D01*
X180064716Y-146323795D01*
X180257349Y-146790000D01*
X176642316Y-146790000D01*
X176834716Y-146326648D01*
X176835284Y-145676205D01*
X176586894Y-145075057D01*
X176127363Y-144614722D01*
X175526648Y-144365284D01*
X174876205Y-144364716D01*
X174275057Y-144613106D01*
X173814722Y-145072637D01*
X173565284Y-145673352D01*
X173564716Y-146323795D01*
X173757349Y-146790000D01*
X142642316Y-146790000D01*
X142834716Y-146326648D01*
X142835284Y-145676205D01*
X142586894Y-145075057D01*
X142127363Y-144614722D01*
X141526648Y-144365284D01*
X140876205Y-144364716D01*
X140275057Y-144613106D01*
X139814722Y-145072637D01*
X139745227Y-145240000D01*
X138525402Y-145240000D01*
X137215300Y-143929898D01*
X137215300Y-142652532D01*
X140227073Y-142652532D01*
X140325736Y-142919387D01*
X140935461Y-143145908D01*
X141585460Y-143121856D01*
X142074264Y-142919387D01*
X142172927Y-142652532D01*
X142107056Y-142586661D01*
X146322758Y-142586661D01*
X146534990Y-143100303D01*
X146927630Y-143493629D01*
X147135512Y-143579949D01*
X146929697Y-143664990D01*
X146536371Y-144057630D01*
X146323243Y-144570900D01*
X146322758Y-145126661D01*
X146534990Y-145640303D01*
X146927630Y-146033629D01*
X147440900Y-146246757D01*
X147996661Y-146247242D01*
X148510303Y-146035010D01*
X148903629Y-145642370D01*
X149116757Y-145129100D01*
X149117242Y-144573339D01*
X148905010Y-144059697D01*
X148512370Y-143666371D01*
X148304488Y-143580051D01*
X148510303Y-143495010D01*
X148903629Y-143102370D01*
X149116757Y-142589100D01*
X149117242Y-142033339D01*
X149103857Y-142000945D01*
X164788902Y-126315901D01*
X164953648Y-126069339D01*
X165011500Y-125778500D01*
X165011500Y-122976661D01*
X167852758Y-122976661D01*
X168064990Y-123490303D01*
X168457630Y-123883629D01*
X168970900Y-124096757D01*
X169526661Y-124097242D01*
X169820000Y-123976037D01*
X169820000Y-130952469D01*
X169789697Y-130964990D01*
X169396371Y-131357630D01*
X169183243Y-131870900D01*
X169182758Y-132426661D01*
X169394990Y-132940303D01*
X169787630Y-133333629D01*
X170300900Y-133546757D01*
X170856661Y-133547242D01*
X171370303Y-133335010D01*
X171763629Y-132942370D01*
X171976757Y-132429100D01*
X171977242Y-131873339D01*
X171765010Y-131359697D01*
X171372370Y-130966371D01*
X171340000Y-130952930D01*
X171340000Y-122684802D01*
X174139882Y-119884920D01*
X174139730Y-120058942D01*
X174191343Y-120183855D01*
X172639499Y-121735699D01*
X172474752Y-121982261D01*
X172416900Y-122273100D01*
X172416900Y-141938298D01*
X170889381Y-143465817D01*
X170859100Y-143453243D01*
X170303339Y-143452758D01*
X169789697Y-143664990D01*
X169396371Y-144057630D01*
X169183243Y-144570900D01*
X169182758Y-145126661D01*
X169394990Y-145640303D01*
X169787630Y-146033629D01*
X170300900Y-146246757D01*
X170856661Y-146247242D01*
X171370303Y-146035010D01*
X171763629Y-145642370D01*
X171976757Y-145129100D01*
X171977242Y-144573339D01*
X171963857Y-144540945D01*
X173714301Y-142790501D01*
X173806489Y-142652532D01*
X174227073Y-142652532D01*
X174325736Y-142919387D01*
X174935461Y-143145908D01*
X175585460Y-143121856D01*
X176074264Y-142919387D01*
X176172927Y-142652532D01*
X175200000Y-141679605D01*
X174227073Y-142652532D01*
X173806489Y-142652532D01*
X173879048Y-142543940D01*
X173903743Y-142419788D01*
X174047468Y-142472927D01*
X175020395Y-141500000D01*
X175379605Y-141500000D01*
X176352532Y-142472927D01*
X176619387Y-142374264D01*
X176845908Y-141764539D01*
X176826331Y-141235461D01*
X180054092Y-141235461D01*
X180078144Y-141885460D01*
X180280613Y-142374264D01*
X180547468Y-142472927D01*
X181520395Y-141500000D01*
X180547468Y-140527073D01*
X180280613Y-140625736D01*
X180054092Y-141235461D01*
X176826331Y-141235461D01*
X176821856Y-141114540D01*
X176619387Y-140625736D01*
X176352532Y-140527073D01*
X175379605Y-141500000D01*
X175020395Y-141500000D01*
X174047468Y-140527073D01*
X173936900Y-140567953D01*
X173936900Y-140347468D01*
X174227073Y-140347468D01*
X175200000Y-141320395D01*
X176172927Y-140347468D01*
X176074264Y-140080613D01*
X175464539Y-139854092D01*
X174814540Y-139878144D01*
X174325736Y-140080613D01*
X174227073Y-140347468D01*
X173936900Y-140347468D01*
X173936900Y-122587902D01*
X174139882Y-122384920D01*
X174139730Y-122558942D01*
X174376725Y-123132514D01*
X174743826Y-123500256D01*
X174378268Y-123865177D01*
X174140272Y-124438336D01*
X174139730Y-125058942D01*
X174376725Y-125632514D01*
X174815177Y-126071732D01*
X175388336Y-126309728D01*
X176008942Y-126310270D01*
X176582514Y-126073275D01*
X177021732Y-125634823D01*
X177259728Y-125061664D01*
X177260270Y-124441058D01*
X177023275Y-123867486D01*
X176656174Y-123499744D01*
X177021732Y-123134823D01*
X177259728Y-122561664D01*
X177260270Y-121941058D01*
X177023275Y-121367486D01*
X176656174Y-120999744D01*
X177021732Y-120634823D01*
X177259728Y-120061664D01*
X177260270Y-119441058D01*
X177023275Y-118867486D01*
X176905246Y-118749251D01*
X177076441Y-118639090D01*
X177221431Y-118426890D01*
X177272440Y-118175000D01*
X177272440Y-116325000D01*
X177228162Y-116089683D01*
X177089090Y-115873559D01*
X176876890Y-115728569D01*
X176625000Y-115677560D01*
X174775000Y-115677560D01*
X174539683Y-115721838D01*
X174323559Y-115860910D01*
X174178569Y-116073110D01*
X174127560Y-116325000D01*
X174127560Y-117747638D01*
X170200460Y-121674738D01*
X170042370Y-121516371D01*
X169529100Y-121303243D01*
X168973339Y-121302758D01*
X168459697Y-121514990D01*
X168066371Y-121907630D01*
X167853243Y-122420900D01*
X167852758Y-122976661D01*
X165011500Y-122976661D01*
X165011500Y-115463302D01*
X174189882Y-106284920D01*
X174189730Y-106458942D01*
X174426725Y-107032514D01*
X174865177Y-107471732D01*
X175438336Y-107709728D01*
X176058942Y-107710270D01*
X176632514Y-107473275D01*
X177071732Y-107034823D01*
X177309728Y-106461664D01*
X177310270Y-105841058D01*
X177073275Y-105267486D01*
X176955246Y-105149251D01*
X177126441Y-105039090D01*
X177271431Y-104826890D01*
X177322440Y-104575000D01*
X177322440Y-102725000D01*
X177278162Y-102489683D01*
X177139090Y-102273559D01*
X176926890Y-102128569D01*
X176675000Y-102077560D01*
X174825000Y-102077560D01*
X174589683Y-102121838D01*
X174373559Y-102260910D01*
X174228569Y-102473110D01*
X174177560Y-102725000D01*
X174177560Y-104147638D01*
X163714099Y-114611099D01*
X163549352Y-114857661D01*
X163491500Y-115148500D01*
X163491500Y-125463697D01*
X148029381Y-140925817D01*
X147999100Y-140913243D01*
X147443339Y-140912758D01*
X146929697Y-141124990D01*
X146536371Y-141517630D01*
X146323243Y-142030900D01*
X146322758Y-142586661D01*
X142107056Y-142586661D01*
X141200000Y-141679605D01*
X140227073Y-142652532D01*
X137215300Y-142652532D01*
X137215300Y-141235461D01*
X139554092Y-141235461D01*
X139578144Y-141885460D01*
X139780613Y-142374264D01*
X140047468Y-142472927D01*
X141020395Y-141500000D01*
X141379605Y-141500000D01*
X142352532Y-142472927D01*
X142619387Y-142374264D01*
X142845908Y-141764539D01*
X142821856Y-141114540D01*
X142619387Y-140625736D01*
X142352532Y-140527073D01*
X141379605Y-141500000D01*
X141020395Y-141500000D01*
X140047468Y-140527073D01*
X139780613Y-140625736D01*
X139554092Y-141235461D01*
X137215300Y-141235461D01*
X137215300Y-140347468D01*
X140227073Y-140347468D01*
X141200000Y-141320395D01*
X142172927Y-140347468D01*
X142074264Y-140080613D01*
X141464539Y-139854092D01*
X140814540Y-139878144D01*
X140325736Y-140080613D01*
X140227073Y-140347468D01*
X137215300Y-140347468D01*
X137215300Y-137679200D01*
X137157448Y-137388361D01*
X136992701Y-137141799D01*
X136454037Y-136603135D01*
X136683880Y-136259151D01*
X136793113Y-135710000D01*
X136683880Y-135160849D01*
X136372811Y-134695302D01*
X136072022Y-134494321D01*
X136052947Y-134398424D01*
X136372811Y-134184698D01*
X136683880Y-133719151D01*
X136793113Y-133170000D01*
X141486887Y-133170000D01*
X141596120Y-133719151D01*
X141907189Y-134184698D01*
X142289275Y-134440000D01*
X141907189Y-134695302D01*
X141596120Y-135160849D01*
X141486887Y-135710000D01*
X141596120Y-136259151D01*
X141907189Y-136724698D01*
X142051465Y-136821101D01*
X141914683Y-136846838D01*
X141698559Y-136985910D01*
X141553569Y-137198110D01*
X141502560Y-137450000D01*
X141502560Y-139050000D01*
X141546838Y-139285317D01*
X141685910Y-139501441D01*
X141898110Y-139646431D01*
X142150000Y-139697440D01*
X143750000Y-139697440D01*
X143985317Y-139653162D01*
X144201441Y-139514090D01*
X144346431Y-139301890D01*
X144397440Y-139050000D01*
X144397440Y-137450000D01*
X144353162Y-137214683D01*
X144214090Y-136998559D01*
X144001890Y-136853569D01*
X143846911Y-136822185D01*
X143992811Y-136724698D01*
X144303880Y-136259151D01*
X144413113Y-135710000D01*
X144303880Y-135160849D01*
X143992811Y-134695302D01*
X143610725Y-134440000D01*
X143992811Y-134184698D01*
X144303880Y-133719151D01*
X144413113Y-133170000D01*
X144303880Y-132620849D01*
X143992811Y-132155302D01*
X143588297Y-131885014D01*
X143805134Y-131782389D01*
X144181041Y-131367423D01*
X144341904Y-130979039D01*
X144219915Y-130757000D01*
X143077000Y-130757000D01*
X143077000Y-130777000D01*
X142823000Y-130777000D01*
X142823000Y-130757000D01*
X141680085Y-130757000D01*
X141558096Y-130979039D01*
X141718959Y-131367423D01*
X142094866Y-131782389D01*
X142311703Y-131885014D01*
X141907189Y-132155302D01*
X141596120Y-132620849D01*
X141486887Y-133170000D01*
X136793113Y-133170000D01*
X136683880Y-132620849D01*
X136372811Y-132155302D01*
X135990725Y-131900000D01*
X136372811Y-131644698D01*
X136683880Y-131179151D01*
X136793113Y-130630000D01*
X136723685Y-130280961D01*
X141558096Y-130280961D01*
X141680085Y-130503000D01*
X142823000Y-130503000D01*
X142823000Y-129359371D01*
X143077000Y-129359371D01*
X143077000Y-130503000D01*
X144219915Y-130503000D01*
X144341904Y-130280961D01*
X144181041Y-129892577D01*
X143805134Y-129477611D01*
X143299041Y-129238086D01*
X143077000Y-129359371D01*
X142823000Y-129359371D01*
X142600959Y-129238086D01*
X142094866Y-129477611D01*
X141718959Y-129892577D01*
X141558096Y-130280961D01*
X136723685Y-130280961D01*
X136683880Y-130080849D01*
X136372811Y-129615302D01*
X135907264Y-129304233D01*
X135358113Y-129195000D01*
X135301887Y-129195000D01*
X134964700Y-129262071D01*
X134964700Y-124176661D01*
X135040758Y-124176661D01*
X135252990Y-124690303D01*
X135645630Y-125083629D01*
X135853512Y-125169949D01*
X135647697Y-125254990D01*
X135254371Y-125647630D01*
X135041243Y-126160900D01*
X135040758Y-126716661D01*
X135252990Y-127230303D01*
X135645630Y-127623629D01*
X136158900Y-127836757D01*
X136714661Y-127837242D01*
X137228303Y-127625010D01*
X137621629Y-127232370D01*
X137834757Y-126719100D01*
X137835242Y-126163339D01*
X137623010Y-125649697D01*
X137230370Y-125256371D01*
X137022488Y-125170051D01*
X137228303Y-125085010D01*
X137621629Y-124692370D01*
X137834757Y-124179100D01*
X137835242Y-123623339D01*
X137623010Y-123109697D01*
X137230370Y-122716371D01*
X137038273Y-122636605D01*
X137169143Y-122582397D01*
X137238608Y-122340213D01*
X136438000Y-121539605D01*
X135637392Y-122340213D01*
X135706857Y-122582397D01*
X135847318Y-122632509D01*
X135647697Y-122714990D01*
X135254371Y-123107630D01*
X135041243Y-123620900D01*
X135040758Y-124176661D01*
X134964700Y-124176661D01*
X134964700Y-121152302D01*
X135028856Y-121152302D01*
X135056638Y-121707368D01*
X135215603Y-122091143D01*
X135457787Y-122160608D01*
X136258395Y-121360000D01*
X136617605Y-121360000D01*
X137418213Y-122160608D01*
X137660397Y-122091143D01*
X137847144Y-121567698D01*
X137819362Y-121012632D01*
X137660397Y-120628857D01*
X137418213Y-120559392D01*
X136617605Y-121360000D01*
X136258395Y-121360000D01*
X135457787Y-120559392D01*
X135215603Y-120628857D01*
X135028856Y-121152302D01*
X134964700Y-121152302D01*
X134964700Y-108936661D01*
X135040758Y-108936661D01*
X135252990Y-109450303D01*
X135645630Y-109843629D01*
X135853512Y-109929949D01*
X135647697Y-110014990D01*
X135254371Y-110407630D01*
X135041243Y-110920900D01*
X135040758Y-111476661D01*
X135252990Y-111990303D01*
X135645630Y-112383629D01*
X135853512Y-112469949D01*
X135647697Y-112554990D01*
X135254371Y-112947630D01*
X135041243Y-113460900D01*
X135040758Y-114016661D01*
X135252990Y-114530303D01*
X135645630Y-114923629D01*
X135853512Y-115009949D01*
X135647697Y-115094990D01*
X135254371Y-115487630D01*
X135041243Y-116000900D01*
X135040758Y-116556661D01*
X135252990Y-117070303D01*
X135645630Y-117463629D01*
X135853512Y-117549949D01*
X135647697Y-117634990D01*
X135254371Y-118027630D01*
X135041243Y-118540900D01*
X135040758Y-119096661D01*
X135252990Y-119610303D01*
X135645630Y-120003629D01*
X135837727Y-120083395D01*
X135706857Y-120137603D01*
X135637392Y-120379787D01*
X136438000Y-121180395D01*
X137238608Y-120379787D01*
X137169143Y-120137603D01*
X137028682Y-120087491D01*
X137228303Y-120005010D01*
X137621629Y-119612370D01*
X137834757Y-119099100D01*
X137835242Y-118543339D01*
X137623010Y-118029697D01*
X137230370Y-117636371D01*
X137022488Y-117550051D01*
X137228303Y-117465010D01*
X137621629Y-117072370D01*
X137834757Y-116559100D01*
X137835242Y-116003339D01*
X137623010Y-115489697D01*
X137230370Y-115096371D01*
X137022488Y-115010051D01*
X137228303Y-114925010D01*
X137621629Y-114532370D01*
X137834757Y-114019100D01*
X137835242Y-113463339D01*
X137623010Y-112949697D01*
X137230370Y-112556371D01*
X137022488Y-112470051D01*
X137228303Y-112385010D01*
X137621629Y-111992370D01*
X137834757Y-111479100D01*
X137835242Y-110923339D01*
X137623010Y-110409697D01*
X137230370Y-110016371D01*
X137022488Y-109930051D01*
X137228303Y-109845010D01*
X137621629Y-109452370D01*
X137834757Y-108939100D01*
X137835242Y-108383339D01*
X137623010Y-107869697D01*
X137230370Y-107476371D01*
X136717100Y-107263243D01*
X136161339Y-107262758D01*
X135647697Y-107474990D01*
X135254371Y-107867630D01*
X135041243Y-108380900D01*
X135040758Y-108936661D01*
X134964700Y-108936661D01*
X134964700Y-104226661D01*
X140952758Y-104226661D01*
X141164990Y-104740303D01*
X141557630Y-105133629D01*
X142070900Y-105346757D01*
X142626661Y-105347242D01*
X143140303Y-105135010D01*
X143533629Y-104742370D01*
X143549776Y-104703483D01*
X143564990Y-104740303D01*
X143957630Y-105133629D01*
X144470900Y-105346757D01*
X145026661Y-105347242D01*
X145540303Y-105135010D01*
X145933629Y-104742370D01*
X146146757Y-104229100D01*
X146147242Y-103673339D01*
X145935010Y-103159697D01*
X145542370Y-102766371D01*
X145029100Y-102553243D01*
X144473339Y-102552758D01*
X143959697Y-102764990D01*
X143566371Y-103157630D01*
X143550224Y-103196517D01*
X143535010Y-103159697D01*
X143142370Y-102766371D01*
X142629100Y-102553243D01*
X142073339Y-102552758D01*
X141559697Y-102764990D01*
X141166371Y-103157630D01*
X140953243Y-103670900D01*
X140952758Y-104226661D01*
X134964700Y-104226661D01*
X134964700Y-95135232D01*
X135023795Y-95135284D01*
X135624943Y-94886894D01*
X136085278Y-94427363D01*
X136334716Y-93826648D01*
X136334718Y-93823795D01*
X139564716Y-93823795D01*
X139813106Y-94424943D01*
X140272637Y-94885278D01*
X140873352Y-95134716D01*
X141523795Y-95135284D01*
X142124943Y-94886894D01*
X142585278Y-94427363D01*
X142654773Y-94260000D01*
X145227560Y-94260000D01*
X145227560Y-95925000D01*
X145271838Y-96160317D01*
X145410910Y-96376441D01*
X145623110Y-96521431D01*
X145875000Y-96572440D01*
X146118767Y-96572440D01*
X146262599Y-96787701D01*
X146960000Y-97485102D01*
X146960000Y-130952469D01*
X146929697Y-130964990D01*
X146536371Y-131357630D01*
X146323243Y-131870900D01*
X146322758Y-132426661D01*
X146534990Y-132940303D01*
X146927630Y-133333629D01*
X147135512Y-133419949D01*
X146929697Y-133504990D01*
X146536371Y-133897630D01*
X146323243Y-134410900D01*
X146322758Y-134966661D01*
X146534990Y-135480303D01*
X146927630Y-135873629D01*
X147440900Y-136086757D01*
X147996661Y-136087242D01*
X148510303Y-135875010D01*
X148903629Y-135482370D01*
X149116757Y-134969100D01*
X149117242Y-134413339D01*
X148905010Y-133899697D01*
X148512370Y-133506371D01*
X148304488Y-133420051D01*
X148510303Y-133335010D01*
X148903629Y-132942370D01*
X149116757Y-132429100D01*
X149117242Y-131873339D01*
X148905010Y-131359697D01*
X148512370Y-130966371D01*
X148480000Y-130952930D01*
X148480000Y-124176661D01*
X149264758Y-124176661D01*
X149476990Y-124690303D01*
X149869630Y-125083629D01*
X150077512Y-125169949D01*
X149871697Y-125254990D01*
X149478371Y-125647630D01*
X149265243Y-126160900D01*
X149264758Y-126716661D01*
X149476990Y-127230303D01*
X149869630Y-127623629D01*
X150382900Y-127836757D01*
X150938661Y-127837242D01*
X151452303Y-127625010D01*
X151845629Y-127232370D01*
X152058757Y-126719100D01*
X152059242Y-126163339D01*
X151847010Y-125649697D01*
X151454370Y-125256371D01*
X151246488Y-125170051D01*
X151452303Y-125085010D01*
X151845629Y-124692370D01*
X152058757Y-124179100D01*
X152059242Y-123623339D01*
X151847010Y-123109697D01*
X151454370Y-122716371D01*
X151262273Y-122636605D01*
X151393143Y-122582397D01*
X151462608Y-122340213D01*
X150662000Y-121539605D01*
X149861392Y-122340213D01*
X149930857Y-122582397D01*
X150071318Y-122632509D01*
X149871697Y-122714990D01*
X149478371Y-123107630D01*
X149265243Y-123620900D01*
X149264758Y-124176661D01*
X148480000Y-124176661D01*
X148480000Y-121152302D01*
X149252856Y-121152302D01*
X149280638Y-121707368D01*
X149439603Y-122091143D01*
X149681787Y-122160608D01*
X150482395Y-121360000D01*
X150841605Y-121360000D01*
X151642213Y-122160608D01*
X151884397Y-122091143D01*
X152071144Y-121567698D01*
X152043362Y-121012632D01*
X151884397Y-120628857D01*
X151642213Y-120559392D01*
X150841605Y-121360000D01*
X150482395Y-121360000D01*
X149681787Y-120559392D01*
X149439603Y-120628857D01*
X149252856Y-121152302D01*
X148480000Y-121152302D01*
X148480000Y-108936661D01*
X149264758Y-108936661D01*
X149476990Y-109450303D01*
X149869630Y-109843629D01*
X150077512Y-109929949D01*
X149871697Y-110014990D01*
X149478371Y-110407630D01*
X149265243Y-110920900D01*
X149264758Y-111476661D01*
X149476990Y-111990303D01*
X149869630Y-112383629D01*
X150077512Y-112469949D01*
X149871697Y-112554990D01*
X149478371Y-112947630D01*
X149265243Y-113460900D01*
X149264758Y-114016661D01*
X149476990Y-114530303D01*
X149869630Y-114923629D01*
X150077512Y-115009949D01*
X149871697Y-115094990D01*
X149478371Y-115487630D01*
X149265243Y-116000900D01*
X149264758Y-116556661D01*
X149476990Y-117070303D01*
X149869630Y-117463629D01*
X150077512Y-117549949D01*
X149871697Y-117634990D01*
X149478371Y-118027630D01*
X149265243Y-118540900D01*
X149264758Y-119096661D01*
X149476990Y-119610303D01*
X149869630Y-120003629D01*
X150061727Y-120083395D01*
X149930857Y-120137603D01*
X149861392Y-120379787D01*
X150662000Y-121180395D01*
X151462608Y-120379787D01*
X151393143Y-120137603D01*
X151252682Y-120087491D01*
X151452303Y-120005010D01*
X151845629Y-119612370D01*
X152058757Y-119099100D01*
X152059242Y-118543339D01*
X151847010Y-118029697D01*
X151454370Y-117636371D01*
X151246488Y-117550051D01*
X151452303Y-117465010D01*
X151845629Y-117072370D01*
X152058757Y-116559100D01*
X152059242Y-116003339D01*
X151847010Y-115489697D01*
X151454370Y-115096371D01*
X151246488Y-115010051D01*
X151452303Y-114925010D01*
X151845629Y-114532370D01*
X152058757Y-114019100D01*
X152059242Y-113463339D01*
X151847010Y-112949697D01*
X151454370Y-112556371D01*
X151246488Y-112470051D01*
X151452303Y-112385010D01*
X151845629Y-111992370D01*
X152058757Y-111479100D01*
X152059060Y-111131862D01*
X156490000Y-115562802D01*
X156490000Y-121502469D01*
X156459697Y-121514990D01*
X156066371Y-121907630D01*
X155853243Y-122420900D01*
X155852758Y-122976661D01*
X156064990Y-123490303D01*
X156457630Y-123883629D01*
X156970900Y-124096757D01*
X157526661Y-124097242D01*
X158040303Y-123885010D01*
X158433629Y-123492370D01*
X158646757Y-122979100D01*
X158647242Y-122423339D01*
X158435010Y-121909697D01*
X158042370Y-121516371D01*
X158010000Y-121502930D01*
X158010000Y-115248000D01*
X157952148Y-114957161D01*
X157787401Y-114710599D01*
X152046183Y-108969381D01*
X152058757Y-108939100D01*
X152059242Y-108383339D01*
X151847010Y-107869697D01*
X151454370Y-107476371D01*
X150941100Y-107263243D01*
X150385339Y-107262758D01*
X149871697Y-107474990D01*
X149478371Y-107867630D01*
X149265243Y-108380900D01*
X149264758Y-108936661D01*
X148480000Y-108936661D01*
X148480000Y-97170300D01*
X148422148Y-96879461D01*
X148422148Y-96879460D01*
X148257401Y-96632899D01*
X148077353Y-96452851D01*
X148176441Y-96389090D01*
X148321431Y-96176890D01*
X148326183Y-96153425D01*
X148381350Y-96098258D01*
X148470821Y-96357332D01*
X149053368Y-96571325D01*
X149673461Y-96546097D01*
X150129179Y-96357332D01*
X150218651Y-96098256D01*
X149300000Y-95179605D01*
X149285858Y-95193748D01*
X149106253Y-95014143D01*
X149120395Y-95000000D01*
X149106253Y-94985858D01*
X149285858Y-94806253D01*
X149300000Y-94820395D01*
X149314143Y-94806253D01*
X149493748Y-94985858D01*
X149479605Y-95000000D01*
X150398256Y-95918651D01*
X150657332Y-95829179D01*
X150871325Y-95246632D01*
X150846097Y-94626539D01*
X150694271Y-94260000D01*
X173744953Y-94260000D01*
X173813106Y-94424943D01*
X174272637Y-94885278D01*
X174873352Y-95134716D01*
X175523795Y-95135284D01*
X176124943Y-94886894D01*
X176585278Y-94427363D01*
X176834716Y-93826648D01*
X176835284Y-93176205D01*
X176586894Y-92575057D01*
X176127363Y-92114722D01*
X175526648Y-91865284D01*
X174876205Y-91864716D01*
X174275057Y-92113106D01*
X173814722Y-92572637D01*
X173745227Y-92740000D01*
X142655047Y-92740000D01*
X142586894Y-92575057D01*
X142127363Y-92114722D01*
X141526648Y-91865284D01*
X140876205Y-91864716D01*
X140275057Y-92113106D01*
X139814722Y-92572637D01*
X139565284Y-93173352D01*
X139564716Y-93823795D01*
X136334718Y-93823795D01*
X136335284Y-93176205D01*
X136086894Y-92575057D01*
X135627363Y-92114722D01*
X135026648Y-91865284D01*
X134376205Y-91864716D01*
X133910000Y-92057349D01*
X133910000Y-90450692D01*
X134435461Y-90645908D01*
X135085460Y-90621856D01*
X135574264Y-90419387D01*
X135672927Y-90152532D01*
X140227073Y-90152532D01*
X140325736Y-90419387D01*
X140935461Y-90645908D01*
X141585460Y-90621856D01*
X142074264Y-90419387D01*
X142172927Y-90152532D01*
X174227073Y-90152532D01*
X174325736Y-90419387D01*
X174935461Y-90645908D01*
X175585460Y-90621856D01*
X176074264Y-90419387D01*
X176172927Y-90152532D01*
X175200000Y-89179605D01*
X174227073Y-90152532D01*
X142172927Y-90152532D01*
X141200000Y-89179605D01*
X140227073Y-90152532D01*
X135672927Y-90152532D01*
X134700000Y-89179605D01*
X134685858Y-89193748D01*
X134506253Y-89014143D01*
X134520395Y-89000000D01*
X134506253Y-88985858D01*
X134685858Y-88806253D01*
X134700000Y-88820395D01*
X134714143Y-88806253D01*
X134893748Y-88985858D01*
X134879605Y-89000000D01*
X135852532Y-89972927D01*
X136119387Y-89874264D01*
X136345908Y-89264539D01*
X136321856Y-88614540D01*
X136154290Y-88210000D01*
X139749308Y-88210000D01*
X139554092Y-88735461D01*
X139554092Y-88735461D01*
G37*
X139554092Y-88735461D02*
X139578144Y-89385460D01*
X139780613Y-89874264D01*
X140047468Y-89972927D01*
X141020395Y-89000000D01*
X141006253Y-88985858D01*
X141185858Y-88806253D01*
X141200000Y-88820395D01*
X141214143Y-88806253D01*
X141393748Y-88985858D01*
X141379605Y-89000000D01*
X142352532Y-89972927D01*
X142619387Y-89874264D01*
X142845908Y-89264539D01*
X142821856Y-88614540D01*
X142654290Y-88210000D01*
X173749308Y-88210000D01*
X173554092Y-88735461D01*
X173578144Y-89385460D01*
X173780613Y-89874264D01*
X174047468Y-89972927D01*
X175020395Y-89000000D01*
X175006253Y-88985858D01*
X175185858Y-88806253D01*
X175200000Y-88820395D01*
X175214143Y-88806253D01*
X175393748Y-88985858D01*
X175379605Y-89000000D01*
X176352532Y-89972927D01*
X176619387Y-89874264D01*
X176845908Y-89264539D01*
X176821856Y-88614540D01*
X176654290Y-88210000D01*
X180249308Y-88210000D01*
X180054092Y-88735461D01*
X180078144Y-89385460D01*
X180280613Y-89874264D01*
X180547468Y-89972927D01*
X181520395Y-89000000D01*
X181506253Y-88985858D01*
X181685858Y-88806253D01*
X181700000Y-88820395D01*
X181714143Y-88806253D01*
X181893748Y-88985858D01*
X181879605Y-89000000D01*
X181893748Y-89014143D01*
X181714143Y-89193748D01*
X181700000Y-89179605D01*
X180727073Y-90152532D01*
X180825736Y-90419387D01*
X181435461Y-90645908D01*
X182085460Y-90621856D01*
X182490000Y-90454290D01*
X182490000Y-92057684D01*
X182026648Y-91865284D01*
X181376205Y-91864716D01*
X180775057Y-92113106D01*
X180314722Y-92572637D01*
X180065284Y-93173352D01*
X180064716Y-93823795D01*
X180313106Y-94424943D01*
X180772637Y-94885278D01*
X181373352Y-95134716D01*
X182023795Y-95135284D01*
X182490000Y-94942651D01*
X182490000Y-140049308D01*
X181964539Y-139854092D01*
X181314540Y-139878144D01*
X180825736Y-140080613D01*
X180727073Y-140347468D01*
X181700000Y-141320395D01*
X181714143Y-141306253D01*
X181893748Y-141485858D01*
X181879605Y-141500000D01*
X181893748Y-141514143D01*
X181714143Y-141693748D01*
X181700000Y-141679605D01*
X180727073Y-142652532D01*
X180825736Y-142919387D01*
X181435461Y-143145908D01*
X182085460Y-143121856D01*
X182490000Y-142954290D01*
X182490000Y-144557684D01*
X182026648Y-144365284D01*
X181376205Y-144364716D01*
X180775057Y-144613106D01*
X180314722Y-145072637D01*
X180065284Y-145673352D01*
X180064716Y-146323795D01*
X180257349Y-146790000D01*
X176642316Y-146790000D01*
X176834716Y-146326648D01*
X176835284Y-145676205D01*
X176586894Y-145075057D01*
X176127363Y-144614722D01*
X175526648Y-144365284D01*
X174876205Y-144364716D01*
X174275057Y-144613106D01*
X173814722Y-145072637D01*
X173565284Y-145673352D01*
X173564716Y-146323795D01*
X173757349Y-146790000D01*
X142642316Y-146790000D01*
X142834716Y-146326648D01*
X142835284Y-145676205D01*
X142586894Y-145075057D01*
X142127363Y-144614722D01*
X141526648Y-144365284D01*
X140876205Y-144364716D01*
X140275057Y-144613106D01*
X139814722Y-145072637D01*
X139745227Y-145240000D01*
X138525402Y-145240000D01*
X137215300Y-143929898D01*
X137215300Y-142652532D01*
X140227073Y-142652532D01*
X140325736Y-142919387D01*
X140935461Y-143145908D01*
X141585460Y-143121856D01*
X142074264Y-142919387D01*
X142172927Y-142652532D01*
X142107056Y-142586661D01*
X146322758Y-142586661D01*
X146534990Y-143100303D01*
X146927630Y-143493629D01*
X147135512Y-143579949D01*
X146929697Y-143664990D01*
X146536371Y-144057630D01*
X146323243Y-144570900D01*
X146322758Y-145126661D01*
X146534990Y-145640303D01*
X146927630Y-146033629D01*
X147440900Y-146246757D01*
X147996661Y-146247242D01*
X148510303Y-146035010D01*
X148903629Y-145642370D01*
X149116757Y-145129100D01*
X149117242Y-144573339D01*
X148905010Y-144059697D01*
X148512370Y-143666371D01*
X148304488Y-143580051D01*
X148510303Y-143495010D01*
X148903629Y-143102370D01*
X149116757Y-142589100D01*
X149117242Y-142033339D01*
X149103857Y-142000945D01*
X164788902Y-126315901D01*
X164953648Y-126069339D01*
X165011500Y-125778500D01*
X165011500Y-122976661D01*
X167852758Y-122976661D01*
X168064990Y-123490303D01*
X168457630Y-123883629D01*
X168970900Y-124096757D01*
X169526661Y-124097242D01*
X169820000Y-123976037D01*
X169820000Y-130952469D01*
X169789697Y-130964990D01*
X169396371Y-131357630D01*
X169183243Y-131870900D01*
X169182758Y-132426661D01*
X169394990Y-132940303D01*
X169787630Y-133333629D01*
X170300900Y-133546757D01*
X170856661Y-133547242D01*
X171370303Y-133335010D01*
X171763629Y-132942370D01*
X171976757Y-132429100D01*
X171977242Y-131873339D01*
X171765010Y-131359697D01*
X171372370Y-130966371D01*
X171340000Y-130952930D01*
X171340000Y-122684802D01*
X174139882Y-119884920D01*
X174139730Y-120058942D01*
X174191343Y-120183855D01*
X172639499Y-121735699D01*
X172474752Y-121982261D01*
X172416900Y-122273100D01*
X172416900Y-141938298D01*
X170889381Y-143465817D01*
X170859100Y-143453243D01*
X170303339Y-143452758D01*
X169789697Y-143664990D01*
X169396371Y-144057630D01*
X169183243Y-144570900D01*
X169182758Y-145126661D01*
X169394990Y-145640303D01*
X169787630Y-146033629D01*
X170300900Y-146246757D01*
X170856661Y-146247242D01*
X171370303Y-146035010D01*
X171763629Y-145642370D01*
X171976757Y-145129100D01*
X171977242Y-144573339D01*
X171963857Y-144540945D01*
X173714301Y-142790501D01*
X173806489Y-142652532D01*
X174227073Y-142652532D01*
X174325736Y-142919387D01*
X174935461Y-143145908D01*
X175585460Y-143121856D01*
X176074264Y-142919387D01*
X176172927Y-142652532D01*
X175200000Y-141679605D01*
X174227073Y-142652532D01*
X173806489Y-142652532D01*
X173879048Y-142543940D01*
X173903743Y-142419788D01*
X174047468Y-142472927D01*
X175020395Y-141500000D01*
X175379605Y-141500000D01*
X176352532Y-142472927D01*
X176619387Y-142374264D01*
X176845908Y-141764539D01*
X176826331Y-141235461D01*
X180054092Y-141235461D01*
X180078144Y-141885460D01*
X180280613Y-142374264D01*
X180547468Y-142472927D01*
X181520395Y-141500000D01*
X180547468Y-140527073D01*
X180280613Y-140625736D01*
X180054092Y-141235461D01*
X176826331Y-141235461D01*
X176821856Y-141114540D01*
X176619387Y-140625736D01*
X176352532Y-140527073D01*
X175379605Y-141500000D01*
X175020395Y-141500000D01*
X174047468Y-140527073D01*
X173936900Y-140567953D01*
X173936900Y-140347468D01*
X174227073Y-140347468D01*
X175200000Y-141320395D01*
X176172927Y-140347468D01*
X176074264Y-140080613D01*
X175464539Y-139854092D01*
X174814540Y-139878144D01*
X174325736Y-140080613D01*
X174227073Y-140347468D01*
X173936900Y-140347468D01*
X173936900Y-122587902D01*
X174139882Y-122384920D01*
X174139730Y-122558942D01*
X174376725Y-123132514D01*
X174743826Y-123500256D01*
X174378268Y-123865177D01*
X174140272Y-124438336D01*
X174139730Y-125058942D01*
X174376725Y-125632514D01*
X174815177Y-126071732D01*
X175388336Y-126309728D01*
X176008942Y-126310270D01*
X176582514Y-126073275D01*
X177021732Y-125634823D01*
X177259728Y-125061664D01*
X177260270Y-124441058D01*
X177023275Y-123867486D01*
X176656174Y-123499744D01*
X177021732Y-123134823D01*
X177259728Y-122561664D01*
X177260270Y-121941058D01*
X177023275Y-121367486D01*
X176656174Y-120999744D01*
X177021732Y-120634823D01*
X177259728Y-120061664D01*
X177260270Y-119441058D01*
X177023275Y-118867486D01*
X176905246Y-118749251D01*
X177076441Y-118639090D01*
X177221431Y-118426890D01*
X177272440Y-118175000D01*
X177272440Y-116325000D01*
X177228162Y-116089683D01*
X177089090Y-115873559D01*
X176876890Y-115728569D01*
X176625000Y-115677560D01*
X174775000Y-115677560D01*
X174539683Y-115721838D01*
X174323559Y-115860910D01*
X174178569Y-116073110D01*
X174127560Y-116325000D01*
X174127560Y-117747638D01*
X170200460Y-121674738D01*
X170042370Y-121516371D01*
X169529100Y-121303243D01*
X168973339Y-121302758D01*
X168459697Y-121514990D01*
X168066371Y-121907630D01*
X167853243Y-122420900D01*
X167852758Y-122976661D01*
X165011500Y-122976661D01*
X165011500Y-115463302D01*
X174189882Y-106284920D01*
X174189730Y-106458942D01*
X174426725Y-107032514D01*
X174865177Y-107471732D01*
X175438336Y-107709728D01*
X176058942Y-107710270D01*
X176632514Y-107473275D01*
X177071732Y-107034823D01*
X177309728Y-106461664D01*
X177310270Y-105841058D01*
X177073275Y-105267486D01*
X176955246Y-105149251D01*
X177126441Y-105039090D01*
X177271431Y-104826890D01*
X177322440Y-104575000D01*
X177322440Y-102725000D01*
X177278162Y-102489683D01*
X177139090Y-102273559D01*
X176926890Y-102128569D01*
X176675000Y-102077560D01*
X174825000Y-102077560D01*
X174589683Y-102121838D01*
X174373559Y-102260910D01*
X174228569Y-102473110D01*
X174177560Y-102725000D01*
X174177560Y-104147638D01*
X163714099Y-114611099D01*
X163549352Y-114857661D01*
X163491500Y-115148500D01*
X163491500Y-125463697D01*
X148029381Y-140925817D01*
X147999100Y-140913243D01*
X147443339Y-140912758D01*
X146929697Y-141124990D01*
X146536371Y-141517630D01*
X146323243Y-142030900D01*
X146322758Y-142586661D01*
X142107056Y-142586661D01*
X141200000Y-141679605D01*
X140227073Y-142652532D01*
X137215300Y-142652532D01*
X137215300Y-141235461D01*
X139554092Y-141235461D01*
X139578144Y-141885460D01*
X139780613Y-142374264D01*
X140047468Y-142472927D01*
X141020395Y-141500000D01*
X141379605Y-141500000D01*
X142352532Y-142472927D01*
X142619387Y-142374264D01*
X142845908Y-141764539D01*
X142821856Y-141114540D01*
X142619387Y-140625736D01*
X142352532Y-140527073D01*
X141379605Y-141500000D01*
X141020395Y-141500000D01*
X140047468Y-140527073D01*
X139780613Y-140625736D01*
X139554092Y-141235461D01*
X137215300Y-141235461D01*
X137215300Y-140347468D01*
X140227073Y-140347468D01*
X141200000Y-141320395D01*
X142172927Y-140347468D01*
X142074264Y-140080613D01*
X141464539Y-139854092D01*
X140814540Y-139878144D01*
X140325736Y-140080613D01*
X140227073Y-140347468D01*
X137215300Y-140347468D01*
X137215300Y-137679200D01*
X137157448Y-137388361D01*
X136992701Y-137141799D01*
X136454037Y-136603135D01*
X136683880Y-136259151D01*
X136793113Y-135710000D01*
X136683880Y-135160849D01*
X136372811Y-134695302D01*
X136072022Y-134494321D01*
X136052947Y-134398424D01*
X136372811Y-134184698D01*
X136683880Y-133719151D01*
X136793113Y-133170000D01*
X141486887Y-133170000D01*
X141596120Y-133719151D01*
X141907189Y-134184698D01*
X142289275Y-134440000D01*
X141907189Y-134695302D01*
X141596120Y-135160849D01*
X141486887Y-135710000D01*
X141596120Y-136259151D01*
X141907189Y-136724698D01*
X142051465Y-136821101D01*
X141914683Y-136846838D01*
X141698559Y-136985910D01*
X141553569Y-137198110D01*
X141502560Y-137450000D01*
X141502560Y-139050000D01*
X141546838Y-139285317D01*
X141685910Y-139501441D01*
X141898110Y-139646431D01*
X142150000Y-139697440D01*
X143750000Y-139697440D01*
X143985317Y-139653162D01*
X144201441Y-139514090D01*
X144346431Y-139301890D01*
X144397440Y-139050000D01*
X144397440Y-137450000D01*
X144353162Y-137214683D01*
X144214090Y-136998559D01*
X144001890Y-136853569D01*
X143846911Y-136822185D01*
X143992811Y-136724698D01*
X144303880Y-136259151D01*
X144413113Y-135710000D01*
X144303880Y-135160849D01*
X143992811Y-134695302D01*
X143610725Y-134440000D01*
X143992811Y-134184698D01*
X144303880Y-133719151D01*
X144413113Y-133170000D01*
X144303880Y-132620849D01*
X143992811Y-132155302D01*
X143588297Y-131885014D01*
X143805134Y-131782389D01*
X144181041Y-131367423D01*
X144341904Y-130979039D01*
X144219915Y-130757000D01*
X143077000Y-130757000D01*
X143077000Y-130777000D01*
X142823000Y-130777000D01*
X142823000Y-130757000D01*
X141680085Y-130757000D01*
X141558096Y-130979039D01*
X141718959Y-131367423D01*
X142094866Y-131782389D01*
X142311703Y-131885014D01*
X141907189Y-132155302D01*
X141596120Y-132620849D01*
X141486887Y-133170000D01*
X136793113Y-133170000D01*
X136683880Y-132620849D01*
X136372811Y-132155302D01*
X135990725Y-131900000D01*
X136372811Y-131644698D01*
X136683880Y-131179151D01*
X136793113Y-130630000D01*
X136723685Y-130280961D01*
X141558096Y-130280961D01*
X141680085Y-130503000D01*
X142823000Y-130503000D01*
X142823000Y-129359371D01*
X143077000Y-129359371D01*
X143077000Y-130503000D01*
X144219915Y-130503000D01*
X144341904Y-130280961D01*
X144181041Y-129892577D01*
X143805134Y-129477611D01*
X143299041Y-129238086D01*
X143077000Y-129359371D01*
X142823000Y-129359371D01*
X142600959Y-129238086D01*
X142094866Y-129477611D01*
X141718959Y-129892577D01*
X141558096Y-130280961D01*
X136723685Y-130280961D01*
X136683880Y-130080849D01*
X136372811Y-129615302D01*
X135907264Y-129304233D01*
X135358113Y-129195000D01*
X135301887Y-129195000D01*
X134964700Y-129262071D01*
X134964700Y-124176661D01*
X135040758Y-124176661D01*
X135252990Y-124690303D01*
X135645630Y-125083629D01*
X135853512Y-125169949D01*
X135647697Y-125254990D01*
X135254371Y-125647630D01*
X135041243Y-126160900D01*
X135040758Y-126716661D01*
X135252990Y-127230303D01*
X135645630Y-127623629D01*
X136158900Y-127836757D01*
X136714661Y-127837242D01*
X137228303Y-127625010D01*
X137621629Y-127232370D01*
X137834757Y-126719100D01*
X137835242Y-126163339D01*
X137623010Y-125649697D01*
X137230370Y-125256371D01*
X137022488Y-125170051D01*
X137228303Y-125085010D01*
X137621629Y-124692370D01*
X137834757Y-124179100D01*
X137835242Y-123623339D01*
X137623010Y-123109697D01*
X137230370Y-122716371D01*
X137038273Y-122636605D01*
X137169143Y-122582397D01*
X137238608Y-122340213D01*
X136438000Y-121539605D01*
X135637392Y-122340213D01*
X135706857Y-122582397D01*
X135847318Y-122632509D01*
X135647697Y-122714990D01*
X135254371Y-123107630D01*
X135041243Y-123620900D01*
X135040758Y-124176661D01*
X134964700Y-124176661D01*
X134964700Y-121152302D01*
X135028856Y-121152302D01*
X135056638Y-121707368D01*
X135215603Y-122091143D01*
X135457787Y-122160608D01*
X136258395Y-121360000D01*
X136617605Y-121360000D01*
X137418213Y-122160608D01*
X137660397Y-122091143D01*
X137847144Y-121567698D01*
X137819362Y-121012632D01*
X137660397Y-120628857D01*
X137418213Y-120559392D01*
X136617605Y-121360000D01*
X136258395Y-121360000D01*
X135457787Y-120559392D01*
X135215603Y-120628857D01*
X135028856Y-121152302D01*
X134964700Y-121152302D01*
X134964700Y-108936661D01*
X135040758Y-108936661D01*
X135252990Y-109450303D01*
X135645630Y-109843629D01*
X135853512Y-109929949D01*
X135647697Y-110014990D01*
X135254371Y-110407630D01*
X135041243Y-110920900D01*
X135040758Y-111476661D01*
X135252990Y-111990303D01*
X135645630Y-112383629D01*
X135853512Y-112469949D01*
X135647697Y-112554990D01*
X135254371Y-112947630D01*
X135041243Y-113460900D01*
X135040758Y-114016661D01*
X135252990Y-114530303D01*
X135645630Y-114923629D01*
X135853512Y-115009949D01*
X135647697Y-115094990D01*
X135254371Y-115487630D01*
X135041243Y-116000900D01*
X135040758Y-116556661D01*
X135252990Y-117070303D01*
X135645630Y-117463629D01*
X135853512Y-117549949D01*
X135647697Y-117634990D01*
X135254371Y-118027630D01*
X135041243Y-118540900D01*
X135040758Y-119096661D01*
X135252990Y-119610303D01*
X135645630Y-120003629D01*
X135837727Y-120083395D01*
X135706857Y-120137603D01*
X135637392Y-120379787D01*
X136438000Y-121180395D01*
X137238608Y-120379787D01*
X137169143Y-120137603D01*
X137028682Y-120087491D01*
X137228303Y-120005010D01*
X137621629Y-119612370D01*
X137834757Y-119099100D01*
X137835242Y-118543339D01*
X137623010Y-118029697D01*
X137230370Y-117636371D01*
X137022488Y-117550051D01*
X137228303Y-117465010D01*
X137621629Y-117072370D01*
X137834757Y-116559100D01*
X137835242Y-116003339D01*
X137623010Y-115489697D01*
X137230370Y-115096371D01*
X137022488Y-115010051D01*
X137228303Y-114925010D01*
X137621629Y-114532370D01*
X137834757Y-114019100D01*
X137835242Y-113463339D01*
X137623010Y-112949697D01*
X137230370Y-112556371D01*
X137022488Y-112470051D01*
X137228303Y-112385010D01*
X137621629Y-111992370D01*
X137834757Y-111479100D01*
X137835242Y-110923339D01*
X137623010Y-110409697D01*
X137230370Y-110016371D01*
X137022488Y-109930051D01*
X137228303Y-109845010D01*
X137621629Y-109452370D01*
X137834757Y-108939100D01*
X137835242Y-108383339D01*
X137623010Y-107869697D01*
X137230370Y-107476371D01*
X136717100Y-107263243D01*
X136161339Y-107262758D01*
X135647697Y-107474990D01*
X135254371Y-107867630D01*
X135041243Y-108380900D01*
X135040758Y-108936661D01*
X134964700Y-108936661D01*
X134964700Y-104226661D01*
X140952758Y-104226661D01*
X141164990Y-104740303D01*
X141557630Y-105133629D01*
X142070900Y-105346757D01*
X142626661Y-105347242D01*
X143140303Y-105135010D01*
X143533629Y-104742370D01*
X143549776Y-104703483D01*
X143564990Y-104740303D01*
X143957630Y-105133629D01*
X144470900Y-105346757D01*
X145026661Y-105347242D01*
X145540303Y-105135010D01*
X145933629Y-104742370D01*
X146146757Y-104229100D01*
X146147242Y-103673339D01*
X145935010Y-103159697D01*
X145542370Y-102766371D01*
X145029100Y-102553243D01*
X144473339Y-102552758D01*
X143959697Y-102764990D01*
X143566371Y-103157630D01*
X143550224Y-103196517D01*
X143535010Y-103159697D01*
X143142370Y-102766371D01*
X142629100Y-102553243D01*
X142073339Y-102552758D01*
X141559697Y-102764990D01*
X141166371Y-103157630D01*
X140953243Y-103670900D01*
X140952758Y-104226661D01*
X134964700Y-104226661D01*
X134964700Y-95135232D01*
X135023795Y-95135284D01*
X135624943Y-94886894D01*
X136085278Y-94427363D01*
X136334716Y-93826648D01*
X136334718Y-93823795D01*
X139564716Y-93823795D01*
X139813106Y-94424943D01*
X140272637Y-94885278D01*
X140873352Y-95134716D01*
X141523795Y-95135284D01*
X142124943Y-94886894D01*
X142585278Y-94427363D01*
X142654773Y-94260000D01*
X145227560Y-94260000D01*
X145227560Y-95925000D01*
X145271838Y-96160317D01*
X145410910Y-96376441D01*
X145623110Y-96521431D01*
X145875000Y-96572440D01*
X146118767Y-96572440D01*
X146262599Y-96787701D01*
X146960000Y-97485102D01*
X146960000Y-130952469D01*
X146929697Y-130964990D01*
X146536371Y-131357630D01*
X146323243Y-131870900D01*
X146322758Y-132426661D01*
X146534990Y-132940303D01*
X146927630Y-133333629D01*
X147135512Y-133419949D01*
X146929697Y-133504990D01*
X146536371Y-133897630D01*
X146323243Y-134410900D01*
X146322758Y-134966661D01*
X146534990Y-135480303D01*
X146927630Y-135873629D01*
X147440900Y-136086757D01*
X147996661Y-136087242D01*
X148510303Y-135875010D01*
X148903629Y-135482370D01*
X149116757Y-134969100D01*
X149117242Y-134413339D01*
X148905010Y-133899697D01*
X148512370Y-133506371D01*
X148304488Y-133420051D01*
X148510303Y-133335010D01*
X148903629Y-132942370D01*
X149116757Y-132429100D01*
X149117242Y-131873339D01*
X148905010Y-131359697D01*
X148512370Y-130966371D01*
X148480000Y-130952930D01*
X148480000Y-124176661D01*
X149264758Y-124176661D01*
X149476990Y-124690303D01*
X149869630Y-125083629D01*
X150077512Y-125169949D01*
X149871697Y-125254990D01*
X149478371Y-125647630D01*
X149265243Y-126160900D01*
X149264758Y-126716661D01*
X149476990Y-127230303D01*
X149869630Y-127623629D01*
X150382900Y-127836757D01*
X150938661Y-127837242D01*
X151452303Y-127625010D01*
X151845629Y-127232370D01*
X152058757Y-126719100D01*
X152059242Y-126163339D01*
X151847010Y-125649697D01*
X151454370Y-125256371D01*
X151246488Y-125170051D01*
X151452303Y-125085010D01*
X151845629Y-124692370D01*
X152058757Y-124179100D01*
X152059242Y-123623339D01*
X151847010Y-123109697D01*
X151454370Y-122716371D01*
X151262273Y-122636605D01*
X151393143Y-122582397D01*
X151462608Y-122340213D01*
X150662000Y-121539605D01*
X149861392Y-122340213D01*
X149930857Y-122582397D01*
X150071318Y-122632509D01*
X149871697Y-122714990D01*
X149478371Y-123107630D01*
X149265243Y-123620900D01*
X149264758Y-124176661D01*
X148480000Y-124176661D01*
X148480000Y-121152302D01*
X149252856Y-121152302D01*
X149280638Y-121707368D01*
X149439603Y-122091143D01*
X149681787Y-122160608D01*
X150482395Y-121360000D01*
X150841605Y-121360000D01*
X151642213Y-122160608D01*
X151884397Y-122091143D01*
X152071144Y-121567698D01*
X152043362Y-121012632D01*
X151884397Y-120628857D01*
X151642213Y-120559392D01*
X150841605Y-121360000D01*
X150482395Y-121360000D01*
X149681787Y-120559392D01*
X149439603Y-120628857D01*
X149252856Y-121152302D01*
X148480000Y-121152302D01*
X148480000Y-108936661D01*
X149264758Y-108936661D01*
X149476990Y-109450303D01*
X149869630Y-109843629D01*
X150077512Y-109929949D01*
X149871697Y-110014990D01*
X149478371Y-110407630D01*
X149265243Y-110920900D01*
X149264758Y-111476661D01*
X149476990Y-111990303D01*
X149869630Y-112383629D01*
X150077512Y-112469949D01*
X149871697Y-112554990D01*
X149478371Y-112947630D01*
X149265243Y-113460900D01*
X149264758Y-114016661D01*
X149476990Y-114530303D01*
X149869630Y-114923629D01*
X150077512Y-115009949D01*
X149871697Y-115094990D01*
X149478371Y-115487630D01*
X149265243Y-116000900D01*
X149264758Y-116556661D01*
X149476990Y-117070303D01*
X149869630Y-117463629D01*
X150077512Y-117549949D01*
X149871697Y-117634990D01*
X149478371Y-118027630D01*
X149265243Y-118540900D01*
X149264758Y-119096661D01*
X149476990Y-119610303D01*
X149869630Y-120003629D01*
X150061727Y-120083395D01*
X149930857Y-120137603D01*
X149861392Y-120379787D01*
X150662000Y-121180395D01*
X151462608Y-120379787D01*
X151393143Y-120137603D01*
X151252682Y-120087491D01*
X151452303Y-120005010D01*
X151845629Y-119612370D01*
X152058757Y-119099100D01*
X152059242Y-118543339D01*
X151847010Y-118029697D01*
X151454370Y-117636371D01*
X151246488Y-117550051D01*
X151452303Y-117465010D01*
X151845629Y-117072370D01*
X152058757Y-116559100D01*
X152059242Y-116003339D01*
X151847010Y-115489697D01*
X151454370Y-115096371D01*
X151246488Y-115010051D01*
X151452303Y-114925010D01*
X151845629Y-114532370D01*
X152058757Y-114019100D01*
X152059242Y-113463339D01*
X151847010Y-112949697D01*
X151454370Y-112556371D01*
X151246488Y-112470051D01*
X151452303Y-112385010D01*
X151845629Y-111992370D01*
X152058757Y-111479100D01*
X152059060Y-111131862D01*
X156490000Y-115562802D01*
X156490000Y-121502469D01*
X156459697Y-121514990D01*
X156066371Y-121907630D01*
X155853243Y-122420900D01*
X155852758Y-122976661D01*
X156064990Y-123490303D01*
X156457630Y-123883629D01*
X156970900Y-124096757D01*
X157526661Y-124097242D01*
X158040303Y-123885010D01*
X158433629Y-123492370D01*
X158646757Y-122979100D01*
X158647242Y-122423339D01*
X158435010Y-121909697D01*
X158042370Y-121516371D01*
X158010000Y-121502930D01*
X158010000Y-115248000D01*
X157952148Y-114957161D01*
X157787401Y-114710599D01*
X152046183Y-108969381D01*
X152058757Y-108939100D01*
X152059242Y-108383339D01*
X151847010Y-107869697D01*
X151454370Y-107476371D01*
X150941100Y-107263243D01*
X150385339Y-107262758D01*
X149871697Y-107474990D01*
X149478371Y-107867630D01*
X149265243Y-108380900D01*
X149264758Y-108936661D01*
X148480000Y-108936661D01*
X148480000Y-97170300D01*
X148422148Y-96879461D01*
X148422148Y-96879460D01*
X148257401Y-96632899D01*
X148077353Y-96452851D01*
X148176441Y-96389090D01*
X148321431Y-96176890D01*
X148326183Y-96153425D01*
X148381350Y-96098258D01*
X148470821Y-96357332D01*
X149053368Y-96571325D01*
X149673461Y-96546097D01*
X150129179Y-96357332D01*
X150218651Y-96098256D01*
X149300000Y-95179605D01*
X149285858Y-95193748D01*
X149106253Y-95014143D01*
X149120395Y-95000000D01*
X149106253Y-94985858D01*
X149285858Y-94806253D01*
X149300000Y-94820395D01*
X149314143Y-94806253D01*
X149493748Y-94985858D01*
X149479605Y-95000000D01*
X150398256Y-95918651D01*
X150657332Y-95829179D01*
X150871325Y-95246632D01*
X150846097Y-94626539D01*
X150694271Y-94260000D01*
X173744953Y-94260000D01*
X173813106Y-94424943D01*
X174272637Y-94885278D01*
X174873352Y-95134716D01*
X175523795Y-95135284D01*
X176124943Y-94886894D01*
X176585278Y-94427363D01*
X176834716Y-93826648D01*
X176835284Y-93176205D01*
X176586894Y-92575057D01*
X176127363Y-92114722D01*
X175526648Y-91865284D01*
X174876205Y-91864716D01*
X174275057Y-92113106D01*
X173814722Y-92572637D01*
X173745227Y-92740000D01*
X142655047Y-92740000D01*
X142586894Y-92575057D01*
X142127363Y-92114722D01*
X141526648Y-91865284D01*
X140876205Y-91864716D01*
X140275057Y-92113106D01*
X139814722Y-92572637D01*
X139565284Y-93173352D01*
X139564716Y-93823795D01*
X136334718Y-93823795D01*
X136335284Y-93176205D01*
X136086894Y-92575057D01*
X135627363Y-92114722D01*
X135026648Y-91865284D01*
X134376205Y-91864716D01*
X133910000Y-92057349D01*
X133910000Y-90450692D01*
X134435461Y-90645908D01*
X135085460Y-90621856D01*
X135574264Y-90419387D01*
X135672927Y-90152532D01*
X140227073Y-90152532D01*
X140325736Y-90419387D01*
X140935461Y-90645908D01*
X141585460Y-90621856D01*
X142074264Y-90419387D01*
X142172927Y-90152532D01*
X174227073Y-90152532D01*
X174325736Y-90419387D01*
X174935461Y-90645908D01*
X175585460Y-90621856D01*
X176074264Y-90419387D01*
X176172927Y-90152532D01*
X175200000Y-89179605D01*
X174227073Y-90152532D01*
X142172927Y-90152532D01*
X141200000Y-89179605D01*
X140227073Y-90152532D01*
X135672927Y-90152532D01*
X134700000Y-89179605D01*
X134685858Y-89193748D01*
X134506253Y-89014143D01*
X134520395Y-89000000D01*
X134506253Y-88985858D01*
X134685858Y-88806253D01*
X134700000Y-88820395D01*
X134714143Y-88806253D01*
X134893748Y-88985858D01*
X134879605Y-89000000D01*
X135852532Y-89972927D01*
X136119387Y-89874264D01*
X136345908Y-89264539D01*
X136321856Y-88614540D01*
X136154290Y-88210000D01*
X139749308Y-88210000D01*
X139554092Y-88735461D01*
G36*
X134893748Y-141485858D02*
X134879605Y-141500000D01*
X134893748Y-141514143D01*
X134714143Y-141693748D01*
X134700000Y-141679605D01*
X134685858Y-141693748D01*
X134506253Y-141514143D01*
X134520395Y-141500000D01*
X134506253Y-141485858D01*
X134685858Y-141306253D01*
X134700000Y-141320395D01*
X134714143Y-141306253D01*
X134893748Y-141485858D01*
X134893748Y-141485858D01*
G37*
X134893748Y-141485858D02*
X134879605Y-141500000D01*
X134893748Y-141514143D01*
X134714143Y-141693748D01*
X134700000Y-141679605D01*
X134685858Y-141693748D01*
X134506253Y-141514143D01*
X134520395Y-141500000D01*
X134506253Y-141485858D01*
X134685858Y-141306253D01*
X134700000Y-141320395D01*
X134714143Y-141306253D01*
X134893748Y-141485858D01*
M02*
