G04 #@! TF.FileFunction,Copper,L2,Bot,Signal*
%FSLAX46Y46*%
G04 Gerber Fmt 4.6, Leading zero omitted, Abs format (unit mm)*
G04 Created by KiCad (PCBNEW 4.0.6+dfsg1-1) date Mon Jan 15 21:58:49 2018*
%MOMM*%
%LPD*%
G01*
G04 APERTURE LIST*
%ADD10C,0.100000*%
%ADD11R,1.750000X1.750000*%
%ADD12C,1.750000*%
%ADD13C,2.000000*%
%ADD14C,1.524000*%
%ADD15R,1.600000X1.600000*%
%ADD16O,1.600000X1.600000*%
%ADD17C,0.250000*%
%ADD18C,0.254000*%
G04 APERTURE END LIST*
D10*
D11*
X148500000Y-92700000D03*
D12*
X151000000Y-92700000D03*
D11*
X126000000Y-107300000D03*
D12*
X126000000Y-109800000D03*
D11*
X126000000Y-117000000D03*
D12*
X126000000Y-119500000D03*
D13*
X174200000Y-94500000D03*
X174200000Y-90000000D03*
X180700000Y-94500000D03*
X180700000Y-90000000D03*
X123700000Y-94500000D03*
X123700000Y-90000000D03*
X130200000Y-94500000D03*
X130200000Y-90000000D03*
X123700000Y-144000000D03*
X123700000Y-139500000D03*
X130200000Y-144000000D03*
X130200000Y-139500000D03*
X180700000Y-139500000D03*
X180700000Y-144000000D03*
X174200000Y-139500000D03*
X174200000Y-144000000D03*
D11*
X177600000Y-127300000D03*
D12*
X177600000Y-124800000D03*
D14*
X160290000Y-108970000D03*
X167910000Y-108970000D03*
X170450000Y-108970000D03*
X157750000Y-108970000D03*
X170450000Y-131830000D03*
X157750000Y-131830000D03*
D15*
X138700000Y-102200000D03*
D16*
X146320000Y-109820000D03*
X138700000Y-104740000D03*
X146320000Y-107280000D03*
X138700000Y-107280000D03*
X146320000Y-104740000D03*
X138700000Y-109820000D03*
X146320000Y-102200000D03*
D14*
X152130000Y-137990000D03*
X152130000Y-135450000D03*
X152130000Y-132910000D03*
X152130000Y-130370000D03*
X152130000Y-127830000D03*
X152130000Y-125290000D03*
X152130000Y-122750000D03*
X152130000Y-120210000D03*
X134670000Y-137990000D03*
X134670000Y-135450000D03*
X134670000Y-132910000D03*
X134670000Y-130370000D03*
X134670000Y-127830000D03*
X134670000Y-125290000D03*
X134670000Y-122750000D03*
X134670000Y-120210000D03*
D17*
X148500000Y-97180000D02*
X148500000Y-92700000D01*
X160290000Y-108970000D02*
X148500000Y-97180000D01*
X151640000Y-92700000D02*
X151000000Y-92700000D01*
X167910000Y-108970000D02*
X151640000Y-92700000D01*
X180700000Y-139500000D02*
X180700000Y-94500000D01*
X130200000Y-128169600D02*
X130200000Y-139500000D01*
X134349600Y-124020000D02*
X130200000Y-128169600D01*
X134946100Y-124020000D02*
X134349600Y-124020000D01*
X138700000Y-120266100D02*
X134946100Y-124020000D01*
X138700000Y-109820000D02*
X138700000Y-120266100D01*
X137057200Y-96857200D02*
X130200000Y-90000000D01*
X137057200Y-108177200D02*
X137057200Y-96857200D01*
X138700000Y-109820000D02*
X137057200Y-108177200D01*
X142026100Y-120266100D02*
X152130000Y-130370000D01*
X138700000Y-120266100D02*
X142026100Y-120266100D01*
X165760000Y-144000000D02*
X174200000Y-144000000D01*
X152130000Y-130370000D02*
X165760000Y-144000000D01*
X176900800Y-144000000D02*
X178800400Y-142100400D01*
X174200000Y-144000000D02*
X176900800Y-144000000D01*
X180700000Y-144000000D02*
X178800400Y-142100400D01*
X178800400Y-126000400D02*
X177600000Y-124800000D01*
X178800400Y-142100400D02*
X178800400Y-126000400D01*
X177300000Y-93100000D02*
X174200000Y-90000000D01*
X177600000Y-93100000D02*
X177300000Y-93100000D01*
X177600000Y-124800000D02*
X177600000Y-93100000D01*
X177600000Y-93100000D02*
X180700000Y-90000000D01*
X177149900Y-126099700D02*
X177600000Y-126099700D01*
X170450000Y-119399800D02*
X177149900Y-126099700D01*
X170450000Y-108970000D02*
X170450000Y-119399800D01*
X177600000Y-127300000D02*
X177600000Y-126099700D01*
X146601400Y-108405300D02*
X146320000Y-108405300D01*
X147445300Y-109249200D02*
X146601400Y-108405300D01*
X147445300Y-118065300D02*
X147445300Y-109249200D01*
X152130000Y-122750000D02*
X147445300Y-118065300D01*
X146320000Y-107280000D02*
X146320000Y-108405300D01*
X138981400Y-108405300D02*
X138700000Y-108405300D01*
X139825300Y-109249200D02*
X138981400Y-108405300D01*
X139825300Y-112985300D02*
X139825300Y-109249200D01*
X152130000Y-125290000D02*
X139825300Y-112985300D01*
X138700000Y-107280000D02*
X138700000Y-108405300D01*
D18*
G36*
X182490000Y-145790000D02*
X121910000Y-145790000D01*
X121910000Y-144323795D01*
X122064716Y-144323795D01*
X122313106Y-144924943D01*
X122772637Y-145385278D01*
X123373352Y-145634716D01*
X124023795Y-145635284D01*
X124624943Y-145386894D01*
X125085278Y-144927363D01*
X125334716Y-144326648D01*
X125334718Y-144323795D01*
X128564716Y-144323795D01*
X128813106Y-144924943D01*
X129272637Y-145385278D01*
X129873352Y-145634716D01*
X130523795Y-145635284D01*
X131124943Y-145386894D01*
X131359715Y-145152532D01*
X173227073Y-145152532D01*
X173325736Y-145419387D01*
X173935461Y-145645908D01*
X174585460Y-145621856D01*
X175074264Y-145419387D01*
X175172927Y-145152532D01*
X179727073Y-145152532D01*
X179825736Y-145419387D01*
X180435461Y-145645908D01*
X181085460Y-145621856D01*
X181574264Y-145419387D01*
X181672927Y-145152532D01*
X180700000Y-144179605D01*
X179727073Y-145152532D01*
X175172927Y-145152532D01*
X174200000Y-144179605D01*
X173227073Y-145152532D01*
X131359715Y-145152532D01*
X131585278Y-144927363D01*
X131834716Y-144326648D01*
X131835232Y-143735461D01*
X172554092Y-143735461D01*
X172578144Y-144385460D01*
X172780613Y-144874264D01*
X173047468Y-144972927D01*
X174020395Y-144000000D01*
X174379605Y-144000000D01*
X175352532Y-144972927D01*
X175619387Y-144874264D01*
X175845908Y-144264539D01*
X175826331Y-143735461D01*
X179054092Y-143735461D01*
X179078144Y-144385460D01*
X179280613Y-144874264D01*
X179547468Y-144972927D01*
X180520395Y-144000000D01*
X180879605Y-144000000D01*
X181852532Y-144972927D01*
X182119387Y-144874264D01*
X182345908Y-144264539D01*
X182321856Y-143614540D01*
X182119387Y-143125736D01*
X181852532Y-143027073D01*
X180879605Y-144000000D01*
X180520395Y-144000000D01*
X179547468Y-143027073D01*
X179280613Y-143125736D01*
X179054092Y-143735461D01*
X175826331Y-143735461D01*
X175821856Y-143614540D01*
X175619387Y-143125736D01*
X175352532Y-143027073D01*
X174379605Y-144000000D01*
X174020395Y-144000000D01*
X173047468Y-143027073D01*
X172780613Y-143125736D01*
X172554092Y-143735461D01*
X131835232Y-143735461D01*
X131835284Y-143676205D01*
X131586894Y-143075057D01*
X131359703Y-142847468D01*
X173227073Y-142847468D01*
X174200000Y-143820395D01*
X175172927Y-142847468D01*
X179727073Y-142847468D01*
X180700000Y-143820395D01*
X181672927Y-142847468D01*
X181574264Y-142580613D01*
X180964539Y-142354092D01*
X180314540Y-142378144D01*
X179825736Y-142580613D01*
X179727073Y-142847468D01*
X175172927Y-142847468D01*
X175074264Y-142580613D01*
X174464539Y-142354092D01*
X173814540Y-142378144D01*
X173325736Y-142580613D01*
X173227073Y-142847468D01*
X131359703Y-142847468D01*
X131127363Y-142614722D01*
X130526648Y-142365284D01*
X129876205Y-142364716D01*
X129275057Y-142613106D01*
X128814722Y-143072637D01*
X128565284Y-143673352D01*
X128564716Y-144323795D01*
X125334718Y-144323795D01*
X125335284Y-143676205D01*
X125086894Y-143075057D01*
X124627363Y-142614722D01*
X124026648Y-142365284D01*
X123376205Y-142364716D01*
X122775057Y-142613106D01*
X122314722Y-143072637D01*
X122065284Y-143673352D01*
X122064716Y-144323795D01*
X121910000Y-144323795D01*
X121910000Y-140652532D01*
X122727073Y-140652532D01*
X122825736Y-140919387D01*
X123435461Y-141145908D01*
X124085460Y-141121856D01*
X124574264Y-140919387D01*
X124672927Y-140652532D01*
X129227073Y-140652532D01*
X129325736Y-140919387D01*
X129935461Y-141145908D01*
X130585460Y-141121856D01*
X131074264Y-140919387D01*
X131172927Y-140652532D01*
X130200000Y-139679605D01*
X129227073Y-140652532D01*
X124672927Y-140652532D01*
X123700000Y-139679605D01*
X122727073Y-140652532D01*
X121910000Y-140652532D01*
X121910000Y-139235461D01*
X122054092Y-139235461D01*
X122078144Y-139885460D01*
X122280613Y-140374264D01*
X122547468Y-140472927D01*
X123520395Y-139500000D01*
X123879605Y-139500000D01*
X124852532Y-140472927D01*
X125119387Y-140374264D01*
X125345908Y-139764539D01*
X125326331Y-139235461D01*
X128554092Y-139235461D01*
X128578144Y-139885460D01*
X128780613Y-140374264D01*
X129047468Y-140472927D01*
X130020395Y-139500000D01*
X130379605Y-139500000D01*
X131352532Y-140472927D01*
X131619387Y-140374264D01*
X131823893Y-139823795D01*
X172564716Y-139823795D01*
X172813106Y-140424943D01*
X173272637Y-140885278D01*
X173873352Y-141134716D01*
X174523795Y-141135284D01*
X175124943Y-140886894D01*
X175585278Y-140427363D01*
X175834716Y-139826648D01*
X175835284Y-139176205D01*
X175586894Y-138575057D01*
X175127363Y-138114722D01*
X174526648Y-137865284D01*
X173876205Y-137864716D01*
X173275057Y-138113106D01*
X172814722Y-138572637D01*
X172565284Y-139173352D01*
X172564716Y-139823795D01*
X131823893Y-139823795D01*
X131845908Y-139764539D01*
X131821856Y-139114540D01*
X131619387Y-138625736D01*
X131352532Y-138527073D01*
X130379605Y-139500000D01*
X130020395Y-139500000D01*
X129047468Y-138527073D01*
X128780613Y-138625736D01*
X128554092Y-139235461D01*
X125326331Y-139235461D01*
X125321856Y-139114540D01*
X125119387Y-138625736D01*
X124852532Y-138527073D01*
X123879605Y-139500000D01*
X123520395Y-139500000D01*
X122547468Y-138527073D01*
X122280613Y-138625736D01*
X122054092Y-139235461D01*
X121910000Y-139235461D01*
X121910000Y-138347468D01*
X122727073Y-138347468D01*
X123700000Y-139320395D01*
X124672927Y-138347468D01*
X129227073Y-138347468D01*
X130200000Y-139320395D01*
X131172927Y-138347468D01*
X131074264Y-138080613D01*
X130464539Y-137854092D01*
X129814540Y-137878144D01*
X129325736Y-138080613D01*
X129227073Y-138347468D01*
X124672927Y-138347468D01*
X124574264Y-138080613D01*
X123964539Y-137854092D01*
X123314540Y-137878144D01*
X122825736Y-138080613D01*
X122727073Y-138347468D01*
X121910000Y-138347468D01*
X121910000Y-116125000D01*
X124477560Y-116125000D01*
X124477560Y-117875000D01*
X124521838Y-118110317D01*
X124660910Y-118326441D01*
X124873110Y-118471431D01*
X124889676Y-118474786D01*
X124720630Y-118643537D01*
X124490262Y-119198325D01*
X124489738Y-119799040D01*
X124719138Y-120354229D01*
X125143537Y-120779370D01*
X125698325Y-121009738D01*
X126299040Y-121010262D01*
X126854229Y-120780862D01*
X127148944Y-120486661D01*
X133272758Y-120486661D01*
X133484990Y-121000303D01*
X133877630Y-121393629D01*
X134085512Y-121479949D01*
X133879697Y-121564990D01*
X133486371Y-121957630D01*
X133273243Y-122470900D01*
X133272758Y-123026661D01*
X133484990Y-123540303D01*
X133877630Y-123933629D01*
X134085512Y-124019949D01*
X133879697Y-124104990D01*
X133486371Y-124497630D01*
X133273243Y-125010900D01*
X133272758Y-125566661D01*
X133484990Y-126080303D01*
X133877630Y-126473629D01*
X134085512Y-126559949D01*
X133879697Y-126644990D01*
X133486371Y-127037630D01*
X133273243Y-127550900D01*
X133272758Y-128106661D01*
X133484990Y-128620303D01*
X133877630Y-129013629D01*
X134085512Y-129099949D01*
X133879697Y-129184990D01*
X133486371Y-129577630D01*
X133273243Y-130090900D01*
X133272758Y-130646661D01*
X133484990Y-131160303D01*
X133877630Y-131553629D01*
X134085512Y-131639949D01*
X133879697Y-131724990D01*
X133486371Y-132117630D01*
X133273243Y-132630900D01*
X133272758Y-133186661D01*
X133484990Y-133700303D01*
X133877630Y-134093629D01*
X134085512Y-134179949D01*
X133879697Y-134264990D01*
X133486371Y-134657630D01*
X133273243Y-135170900D01*
X133272758Y-135726661D01*
X133484990Y-136240303D01*
X133877630Y-136633629D01*
X134085512Y-136719949D01*
X133879697Y-136804990D01*
X133486371Y-137197630D01*
X133273243Y-137710900D01*
X133272758Y-138266661D01*
X133484990Y-138780303D01*
X133877630Y-139173629D01*
X134390900Y-139386757D01*
X134946661Y-139387242D01*
X135460303Y-139175010D01*
X135853629Y-138782370D01*
X136066757Y-138269100D01*
X136067242Y-137713339D01*
X135855010Y-137199697D01*
X135462370Y-136806371D01*
X135254488Y-136720051D01*
X135460303Y-136635010D01*
X135853629Y-136242370D01*
X136066757Y-135729100D01*
X136067242Y-135173339D01*
X135855010Y-134659697D01*
X135462370Y-134266371D01*
X135254488Y-134180051D01*
X135460303Y-134095010D01*
X135853629Y-133702370D01*
X136066757Y-133189100D01*
X136066759Y-133186661D01*
X150732758Y-133186661D01*
X150944990Y-133700303D01*
X151337630Y-134093629D01*
X151545512Y-134179949D01*
X151339697Y-134264990D01*
X150946371Y-134657630D01*
X150733243Y-135170900D01*
X150732758Y-135726661D01*
X150944990Y-136240303D01*
X151337630Y-136633629D01*
X151545512Y-136719949D01*
X151339697Y-136804990D01*
X150946371Y-137197630D01*
X150733243Y-137710900D01*
X150732758Y-138266661D01*
X150944990Y-138780303D01*
X151337630Y-139173629D01*
X151850900Y-139386757D01*
X152406661Y-139387242D01*
X152920303Y-139175010D01*
X153313629Y-138782370D01*
X153526757Y-138269100D01*
X153527242Y-137713339D01*
X153315010Y-137199697D01*
X152922370Y-136806371D01*
X152714488Y-136720051D01*
X152920303Y-136635010D01*
X153313629Y-136242370D01*
X153526757Y-135729100D01*
X153527242Y-135173339D01*
X153315010Y-134659697D01*
X152922370Y-134266371D01*
X152714488Y-134180051D01*
X152920303Y-134095010D01*
X153313629Y-133702370D01*
X153526757Y-133189100D01*
X153527242Y-132633339D01*
X153315010Y-132119697D01*
X153301997Y-132106661D01*
X156352758Y-132106661D01*
X156564990Y-132620303D01*
X156957630Y-133013629D01*
X157470900Y-133226757D01*
X158026661Y-133227242D01*
X158540303Y-133015010D01*
X158933629Y-132622370D01*
X159146757Y-132109100D01*
X159146759Y-132106661D01*
X169052758Y-132106661D01*
X169264990Y-132620303D01*
X169657630Y-133013629D01*
X170170900Y-133226757D01*
X170726661Y-133227242D01*
X171240303Y-133015010D01*
X171633629Y-132622370D01*
X171846757Y-132109100D01*
X171847242Y-131553339D01*
X171635010Y-131039697D01*
X171242370Y-130646371D01*
X170729100Y-130433243D01*
X170173339Y-130432758D01*
X169659697Y-130644990D01*
X169266371Y-131037630D01*
X169053243Y-131550900D01*
X169052758Y-132106661D01*
X159146759Y-132106661D01*
X159147242Y-131553339D01*
X158935010Y-131039697D01*
X158542370Y-130646371D01*
X158029100Y-130433243D01*
X157473339Y-130432758D01*
X156959697Y-130644990D01*
X156566371Y-131037630D01*
X156353243Y-131550900D01*
X156352758Y-132106661D01*
X153301997Y-132106661D01*
X152922370Y-131726371D01*
X152730273Y-131646605D01*
X152861143Y-131592397D01*
X152930608Y-131350213D01*
X152130000Y-130549605D01*
X151329392Y-131350213D01*
X151398857Y-131592397D01*
X151539318Y-131642509D01*
X151339697Y-131724990D01*
X150946371Y-132117630D01*
X150733243Y-132630900D01*
X150732758Y-133186661D01*
X136066759Y-133186661D01*
X136067242Y-132633339D01*
X135855010Y-132119697D01*
X135462370Y-131726371D01*
X135254488Y-131640051D01*
X135460303Y-131555010D01*
X135853629Y-131162370D01*
X136066757Y-130649100D01*
X136067181Y-130162302D01*
X150720856Y-130162302D01*
X150748638Y-130717368D01*
X150907603Y-131101143D01*
X151149787Y-131170608D01*
X151950395Y-130370000D01*
X152309605Y-130370000D01*
X153110213Y-131170608D01*
X153352397Y-131101143D01*
X153539144Y-130577698D01*
X153511362Y-130022632D01*
X153352397Y-129638857D01*
X153110213Y-129569392D01*
X152309605Y-130370000D01*
X151950395Y-130370000D01*
X151149787Y-129569392D01*
X150907603Y-129638857D01*
X150720856Y-130162302D01*
X136067181Y-130162302D01*
X136067242Y-130093339D01*
X135855010Y-129579697D01*
X135462370Y-129186371D01*
X135254488Y-129100051D01*
X135460303Y-129015010D01*
X135853629Y-128622370D01*
X136066757Y-128109100D01*
X136067242Y-127553339D01*
X135855010Y-127039697D01*
X135462370Y-126646371D01*
X135254488Y-126560051D01*
X135460303Y-126475010D01*
X135853629Y-126082370D01*
X136066757Y-125569100D01*
X136067242Y-125013339D01*
X135855010Y-124499697D01*
X135462370Y-124106371D01*
X135254488Y-124020051D01*
X135460303Y-123935010D01*
X135853629Y-123542370D01*
X136066757Y-123029100D01*
X136067242Y-122473339D01*
X135855010Y-121959697D01*
X135462370Y-121566371D01*
X135254488Y-121480051D01*
X135460303Y-121395010D01*
X135853629Y-121002370D01*
X136066757Y-120489100D01*
X136067242Y-119933339D01*
X135855010Y-119419697D01*
X135462370Y-119026371D01*
X134949100Y-118813243D01*
X134393339Y-118812758D01*
X133879697Y-119024990D01*
X133486371Y-119417630D01*
X133273243Y-119930900D01*
X133272758Y-120486661D01*
X127148944Y-120486661D01*
X127279370Y-120356463D01*
X127509738Y-119801675D01*
X127510262Y-119200960D01*
X127280862Y-118645771D01*
X127112283Y-118476897D01*
X127326441Y-118339090D01*
X127471431Y-118126890D01*
X127522440Y-117875000D01*
X127522440Y-116125000D01*
X127478162Y-115889683D01*
X127339090Y-115673559D01*
X127126890Y-115528569D01*
X126875000Y-115477560D01*
X125125000Y-115477560D01*
X124889683Y-115521838D01*
X124673559Y-115660910D01*
X124528569Y-115873110D01*
X124477560Y-116125000D01*
X121910000Y-116125000D01*
X121910000Y-106425000D01*
X124477560Y-106425000D01*
X124477560Y-108175000D01*
X124521838Y-108410317D01*
X124660910Y-108626441D01*
X124873110Y-108771431D01*
X124889676Y-108774786D01*
X124720630Y-108943537D01*
X124490262Y-109498325D01*
X124489738Y-110099040D01*
X124719138Y-110654229D01*
X125143537Y-111079370D01*
X125698325Y-111309738D01*
X126299040Y-111310262D01*
X126854229Y-111080862D01*
X127279370Y-110656463D01*
X127481766Y-110169039D01*
X137308096Y-110169039D01*
X137468959Y-110557423D01*
X137844866Y-110972389D01*
X138350959Y-111211914D01*
X138573000Y-111090629D01*
X138573000Y-109947000D01*
X137430085Y-109947000D01*
X137308096Y-110169039D01*
X127481766Y-110169039D01*
X127509738Y-110101675D01*
X127510262Y-109500960D01*
X127280862Y-108945771D01*
X127112283Y-108776897D01*
X127326441Y-108639090D01*
X127471431Y-108426890D01*
X127522440Y-108175000D01*
X127522440Y-106425000D01*
X127478162Y-106189683D01*
X127339090Y-105973559D01*
X127126890Y-105828569D01*
X126875000Y-105777560D01*
X125125000Y-105777560D01*
X124889683Y-105821838D01*
X124673559Y-105960910D01*
X124528569Y-106173110D01*
X124477560Y-106425000D01*
X121910000Y-106425000D01*
X121910000Y-104740000D01*
X137236887Y-104740000D01*
X137346120Y-105289151D01*
X137657189Y-105754698D01*
X138039275Y-106010000D01*
X137657189Y-106265302D01*
X137346120Y-106730849D01*
X137236887Y-107280000D01*
X137346120Y-107829151D01*
X137657189Y-108294698D01*
X137957978Y-108495679D01*
X137979502Y-108603890D01*
X137844866Y-108667611D01*
X137468959Y-109082577D01*
X137308096Y-109470961D01*
X137430085Y-109693000D01*
X138573000Y-109693000D01*
X138573000Y-109673000D01*
X138827000Y-109673000D01*
X138827000Y-109693000D01*
X138847000Y-109693000D01*
X138847000Y-109947000D01*
X138827000Y-109947000D01*
X138827000Y-111090629D01*
X139049041Y-111211914D01*
X139065300Y-111204219D01*
X139065300Y-112985300D01*
X139123152Y-113276139D01*
X139287899Y-113522701D01*
X150745817Y-124980619D01*
X150733243Y-125010900D01*
X150732758Y-125566661D01*
X150944990Y-126080303D01*
X151337630Y-126473629D01*
X151545512Y-126559949D01*
X151339697Y-126644990D01*
X150946371Y-127037630D01*
X150733243Y-127550900D01*
X150732758Y-128106661D01*
X150944990Y-128620303D01*
X151337630Y-129013629D01*
X151529727Y-129093395D01*
X151398857Y-129147603D01*
X151329392Y-129389787D01*
X152130000Y-130190395D01*
X152930608Y-129389787D01*
X152861143Y-129147603D01*
X152720682Y-129097491D01*
X152920303Y-129015010D01*
X153313629Y-128622370D01*
X153526757Y-128109100D01*
X153527242Y-127553339D01*
X153315010Y-127039697D01*
X152922370Y-126646371D01*
X152714488Y-126560051D01*
X152920303Y-126475010D01*
X153313629Y-126082370D01*
X153526757Y-125569100D01*
X153527242Y-125013339D01*
X153315010Y-124499697D01*
X152922370Y-124106371D01*
X152714488Y-124020051D01*
X152920303Y-123935010D01*
X153313629Y-123542370D01*
X153526757Y-123029100D01*
X153527242Y-122473339D01*
X153315010Y-121959697D01*
X152922370Y-121566371D01*
X152714488Y-121480051D01*
X152920303Y-121395010D01*
X153313629Y-121002370D01*
X153526757Y-120489100D01*
X153527242Y-119933339D01*
X153315010Y-119419697D01*
X152922370Y-119026371D01*
X152409100Y-118813243D01*
X151853339Y-118812758D01*
X151339697Y-119024990D01*
X150946371Y-119417630D01*
X150733243Y-119930900D01*
X150732940Y-120278138D01*
X148205300Y-117750498D01*
X148205300Y-109249200D01*
X148147448Y-108958361D01*
X147982701Y-108711799D01*
X147444037Y-108173135D01*
X147673880Y-107829151D01*
X147783113Y-107280000D01*
X147673880Y-106730849D01*
X147362811Y-106265302D01*
X146980725Y-106010000D01*
X147362811Y-105754698D01*
X147673880Y-105289151D01*
X147783113Y-104740000D01*
X147673880Y-104190849D01*
X147362811Y-103725302D01*
X146980725Y-103470000D01*
X147362811Y-103214698D01*
X147673880Y-102749151D01*
X147783113Y-102200000D01*
X147673880Y-101650849D01*
X147362811Y-101185302D01*
X146897264Y-100874233D01*
X146348113Y-100765000D01*
X146291887Y-100765000D01*
X145742736Y-100874233D01*
X145277189Y-101185302D01*
X144966120Y-101650849D01*
X144856887Y-102200000D01*
X144966120Y-102749151D01*
X145277189Y-103214698D01*
X145659275Y-103470000D01*
X145277189Y-103725302D01*
X144966120Y-104190849D01*
X144856887Y-104740000D01*
X144966120Y-105289151D01*
X145277189Y-105754698D01*
X145659275Y-106010000D01*
X145277189Y-106265302D01*
X144966120Y-106730849D01*
X144856887Y-107280000D01*
X144966120Y-107829151D01*
X145277189Y-108294698D01*
X145577978Y-108495679D01*
X145597053Y-108591576D01*
X145277189Y-108805302D01*
X144966120Y-109270849D01*
X144856887Y-109820000D01*
X144966120Y-110369151D01*
X145277189Y-110834698D01*
X145742736Y-111145767D01*
X146291887Y-111255000D01*
X146348113Y-111255000D01*
X146685300Y-111187929D01*
X146685300Y-118065300D01*
X146743152Y-118356139D01*
X146907899Y-118602701D01*
X150745817Y-122440619D01*
X150733243Y-122470900D01*
X150732940Y-122818138D01*
X140585300Y-112670498D01*
X140585300Y-109249200D01*
X140527448Y-108958361D01*
X140362701Y-108711799D01*
X139824037Y-108173135D01*
X140053880Y-107829151D01*
X140163113Y-107280000D01*
X140053880Y-106730849D01*
X139742811Y-106265302D01*
X139360725Y-106010000D01*
X139742811Y-105754698D01*
X140053880Y-105289151D01*
X140163113Y-104740000D01*
X140053880Y-104190849D01*
X139742811Y-103725302D01*
X139598535Y-103628899D01*
X139735317Y-103603162D01*
X139951441Y-103464090D01*
X140096431Y-103251890D01*
X140147440Y-103000000D01*
X140147440Y-101400000D01*
X140103162Y-101164683D01*
X139964090Y-100948559D01*
X139751890Y-100803569D01*
X139500000Y-100752560D01*
X137900000Y-100752560D01*
X137664683Y-100796838D01*
X137448559Y-100935910D01*
X137303569Y-101148110D01*
X137252560Y-101400000D01*
X137252560Y-103000000D01*
X137296838Y-103235317D01*
X137435910Y-103451441D01*
X137648110Y-103596431D01*
X137803089Y-103627815D01*
X137657189Y-103725302D01*
X137346120Y-104190849D01*
X137236887Y-104740000D01*
X121910000Y-104740000D01*
X121910000Y-94823795D01*
X122064716Y-94823795D01*
X122313106Y-95424943D01*
X122772637Y-95885278D01*
X123373352Y-96134716D01*
X124023795Y-96135284D01*
X124624943Y-95886894D01*
X125085278Y-95427363D01*
X125334716Y-94826648D01*
X125334718Y-94823795D01*
X128564716Y-94823795D01*
X128813106Y-95424943D01*
X129272637Y-95885278D01*
X129873352Y-96134716D01*
X130523795Y-96135284D01*
X131124943Y-95886894D01*
X131585278Y-95427363D01*
X131834716Y-94826648D01*
X131835284Y-94176205D01*
X131586894Y-93575057D01*
X131127363Y-93114722D01*
X130526648Y-92865284D01*
X129876205Y-92864716D01*
X129275057Y-93113106D01*
X128814722Y-93572637D01*
X128565284Y-94173352D01*
X128564716Y-94823795D01*
X125334718Y-94823795D01*
X125335284Y-94176205D01*
X125086894Y-93575057D01*
X124627363Y-93114722D01*
X124026648Y-92865284D01*
X123376205Y-92864716D01*
X122775057Y-93113106D01*
X122314722Y-93572637D01*
X122065284Y-94173352D01*
X122064716Y-94823795D01*
X121910000Y-94823795D01*
X121910000Y-91825000D01*
X146977560Y-91825000D01*
X146977560Y-93575000D01*
X147021838Y-93810317D01*
X147160910Y-94026441D01*
X147373110Y-94171431D01*
X147625000Y-94222440D01*
X147740000Y-94222440D01*
X147740000Y-97180000D01*
X147797852Y-97470839D01*
X147962599Y-97717401D01*
X157818257Y-107573059D01*
X157473339Y-107572758D01*
X156959697Y-107784990D01*
X156566371Y-108177630D01*
X156353243Y-108690900D01*
X156352758Y-109246661D01*
X156564990Y-109760303D01*
X156957630Y-110153629D01*
X157470900Y-110366757D01*
X158026661Y-110367242D01*
X158540303Y-110155010D01*
X158933629Y-109762370D01*
X159019949Y-109554488D01*
X159104990Y-109760303D01*
X159497630Y-110153629D01*
X160010900Y-110366757D01*
X160566661Y-110367242D01*
X161080303Y-110155010D01*
X161473629Y-109762370D01*
X161686757Y-109249100D01*
X161687242Y-108693339D01*
X161475010Y-108179697D01*
X161082370Y-107786371D01*
X160569100Y-107573243D01*
X160013339Y-107572758D01*
X159980945Y-107586143D01*
X149260000Y-96865198D01*
X149260000Y-94222440D01*
X149375000Y-94222440D01*
X149610317Y-94178162D01*
X149826441Y-94039090D01*
X149971431Y-93826890D01*
X149974786Y-93810324D01*
X150143537Y-93979370D01*
X150698325Y-94209738D01*
X151299040Y-94210262D01*
X151848448Y-93983250D01*
X166525817Y-108660619D01*
X166513243Y-108690900D01*
X166512758Y-109246661D01*
X166724990Y-109760303D01*
X167117630Y-110153629D01*
X167630900Y-110366757D01*
X168186661Y-110367242D01*
X168700303Y-110155010D01*
X169093629Y-109762370D01*
X169179949Y-109554488D01*
X169264990Y-109760303D01*
X169657630Y-110153629D01*
X169690000Y-110167070D01*
X169690000Y-119399800D01*
X169747852Y-119690639D01*
X169912599Y-119937201D01*
X176136663Y-126161265D01*
X176128569Y-126173110D01*
X176077560Y-126425000D01*
X176077560Y-128175000D01*
X176121838Y-128410317D01*
X176260910Y-128626441D01*
X176473110Y-128771431D01*
X176725000Y-128822440D01*
X178475000Y-128822440D01*
X178710317Y-128778162D01*
X178926441Y-128639090D01*
X179071431Y-128426890D01*
X179122440Y-128175000D01*
X179122440Y-126425000D01*
X179078162Y-126189683D01*
X178939090Y-125973559D01*
X178737774Y-125836006D01*
X178776694Y-125797086D01*
X178662062Y-125682454D01*
X178915953Y-125599116D01*
X179121590Y-125034694D01*
X179095579Y-124434542D01*
X178915953Y-124000884D01*
X178662060Y-123917545D01*
X177779605Y-124800000D01*
X177793748Y-124814143D01*
X177614143Y-124993748D01*
X177600000Y-124979605D01*
X177585858Y-124993748D01*
X177406253Y-124814143D01*
X177420395Y-124800000D01*
X176537940Y-123917545D01*
X176284047Y-124000884D01*
X176241812Y-124116810D01*
X175862942Y-123737940D01*
X176717545Y-123737940D01*
X177600000Y-124620395D01*
X178482455Y-123737940D01*
X178399116Y-123484047D01*
X177834694Y-123278410D01*
X177234542Y-123304421D01*
X176800884Y-123484047D01*
X176717545Y-123737940D01*
X175862942Y-123737940D01*
X171210000Y-119084998D01*
X171210000Y-110167531D01*
X171240303Y-110155010D01*
X171633629Y-109762370D01*
X171846757Y-109249100D01*
X171847242Y-108693339D01*
X171635010Y-108179697D01*
X171242370Y-107786371D01*
X170729100Y-107573243D01*
X170173339Y-107572758D01*
X169659697Y-107784990D01*
X169266371Y-108177630D01*
X169180051Y-108385512D01*
X169095010Y-108179697D01*
X168702370Y-107786371D01*
X168189100Y-107573243D01*
X167633339Y-107572758D01*
X167600945Y-107586143D01*
X154838597Y-94823795D01*
X172564716Y-94823795D01*
X172813106Y-95424943D01*
X173272637Y-95885278D01*
X173873352Y-96134716D01*
X174523795Y-96135284D01*
X175124943Y-95886894D01*
X175585278Y-95427363D01*
X175834716Y-94826648D01*
X175834718Y-94823795D01*
X179064716Y-94823795D01*
X179313106Y-95424943D01*
X179772637Y-95885278D01*
X179940000Y-95954773D01*
X179940000Y-138044953D01*
X179775057Y-138113106D01*
X179314722Y-138572637D01*
X179065284Y-139173352D01*
X179064716Y-139823795D01*
X179313106Y-140424943D01*
X179772637Y-140885278D01*
X180373352Y-141134716D01*
X181023795Y-141135284D01*
X181624943Y-140886894D01*
X182085278Y-140427363D01*
X182334716Y-139826648D01*
X182335284Y-139176205D01*
X182086894Y-138575057D01*
X181627363Y-138114722D01*
X181460000Y-138045227D01*
X181460000Y-95955047D01*
X181624943Y-95886894D01*
X182085278Y-95427363D01*
X182334716Y-94826648D01*
X182335284Y-94176205D01*
X182086894Y-93575057D01*
X181627363Y-93114722D01*
X181026648Y-92865284D01*
X180376205Y-92864716D01*
X179775057Y-93113106D01*
X179314722Y-93572637D01*
X179065284Y-94173352D01*
X179064716Y-94823795D01*
X175834718Y-94823795D01*
X175835284Y-94176205D01*
X175586894Y-93575057D01*
X175127363Y-93114722D01*
X174526648Y-92865284D01*
X173876205Y-92864716D01*
X173275057Y-93113106D01*
X172814722Y-93572637D01*
X172565284Y-94173352D01*
X172564716Y-94823795D01*
X154838597Y-94823795D01*
X152510180Y-92495378D01*
X152510262Y-92400960D01*
X152280862Y-91845771D01*
X151856463Y-91420630D01*
X151301675Y-91190262D01*
X150700960Y-91189738D01*
X150145771Y-91419138D01*
X149976897Y-91587717D01*
X149839090Y-91373559D01*
X149626890Y-91228569D01*
X149375000Y-91177560D01*
X147625000Y-91177560D01*
X147389683Y-91221838D01*
X147173559Y-91360910D01*
X147028569Y-91573110D01*
X146977560Y-91825000D01*
X121910000Y-91825000D01*
X121910000Y-91152532D01*
X122727073Y-91152532D01*
X122825736Y-91419387D01*
X123435461Y-91645908D01*
X124085460Y-91621856D01*
X124574264Y-91419387D01*
X124672927Y-91152532D01*
X129227073Y-91152532D01*
X129325736Y-91419387D01*
X129935461Y-91645908D01*
X130585460Y-91621856D01*
X131074264Y-91419387D01*
X131172927Y-91152532D01*
X173227073Y-91152532D01*
X173325736Y-91419387D01*
X173935461Y-91645908D01*
X174585460Y-91621856D01*
X175074264Y-91419387D01*
X175172927Y-91152532D01*
X179727073Y-91152532D01*
X179825736Y-91419387D01*
X180435461Y-91645908D01*
X181085460Y-91621856D01*
X181574264Y-91419387D01*
X181672927Y-91152532D01*
X180700000Y-90179605D01*
X179727073Y-91152532D01*
X175172927Y-91152532D01*
X174200000Y-90179605D01*
X173227073Y-91152532D01*
X131172927Y-91152532D01*
X130200000Y-90179605D01*
X129227073Y-91152532D01*
X124672927Y-91152532D01*
X123700000Y-90179605D01*
X122727073Y-91152532D01*
X121910000Y-91152532D01*
X121910000Y-89735461D01*
X122054092Y-89735461D01*
X122078144Y-90385460D01*
X122280613Y-90874264D01*
X122547468Y-90972927D01*
X123520395Y-90000000D01*
X123879605Y-90000000D01*
X124852532Y-90972927D01*
X125119387Y-90874264D01*
X125345908Y-90264539D01*
X125326331Y-89735461D01*
X128554092Y-89735461D01*
X128578144Y-90385460D01*
X128780613Y-90874264D01*
X129047468Y-90972927D01*
X130020395Y-90000000D01*
X130379605Y-90000000D01*
X131352532Y-90972927D01*
X131619387Y-90874264D01*
X131845908Y-90264539D01*
X131826331Y-89735461D01*
X172554092Y-89735461D01*
X172578144Y-90385460D01*
X172780613Y-90874264D01*
X173047468Y-90972927D01*
X174020395Y-90000000D01*
X174379605Y-90000000D01*
X175352532Y-90972927D01*
X175619387Y-90874264D01*
X175845908Y-90264539D01*
X175826331Y-89735461D01*
X179054092Y-89735461D01*
X179078144Y-90385460D01*
X179280613Y-90874264D01*
X179547468Y-90972927D01*
X180520395Y-90000000D01*
X180879605Y-90000000D01*
X181852532Y-90972927D01*
X182119387Y-90874264D01*
X182345908Y-90264539D01*
X182321856Y-89614540D01*
X182119387Y-89125736D01*
X181852532Y-89027073D01*
X180879605Y-90000000D01*
X180520395Y-90000000D01*
X179547468Y-89027073D01*
X179280613Y-89125736D01*
X179054092Y-89735461D01*
X175826331Y-89735461D01*
X175821856Y-89614540D01*
X175619387Y-89125736D01*
X175352532Y-89027073D01*
X174379605Y-90000000D01*
X174020395Y-90000000D01*
X173047468Y-89027073D01*
X172780613Y-89125736D01*
X172554092Y-89735461D01*
X131826331Y-89735461D01*
X131821856Y-89614540D01*
X131619387Y-89125736D01*
X131352532Y-89027073D01*
X130379605Y-90000000D01*
X130020395Y-90000000D01*
X129047468Y-89027073D01*
X128780613Y-89125736D01*
X128554092Y-89735461D01*
X125326331Y-89735461D01*
X125321856Y-89614540D01*
X125119387Y-89125736D01*
X124852532Y-89027073D01*
X123879605Y-90000000D01*
X123520395Y-90000000D01*
X122547468Y-89027073D01*
X122280613Y-89125736D01*
X122054092Y-89735461D01*
X121910000Y-89735461D01*
X121910000Y-88847468D01*
X122727073Y-88847468D01*
X123700000Y-89820395D01*
X124672927Y-88847468D01*
X129227073Y-88847468D01*
X130200000Y-89820395D01*
X131172927Y-88847468D01*
X173227073Y-88847468D01*
X174200000Y-89820395D01*
X175172927Y-88847468D01*
X179727073Y-88847468D01*
X180700000Y-89820395D01*
X181672927Y-88847468D01*
X181574264Y-88580613D01*
X180964539Y-88354092D01*
X180314540Y-88378144D01*
X179825736Y-88580613D01*
X179727073Y-88847468D01*
X175172927Y-88847468D01*
X175074264Y-88580613D01*
X174464539Y-88354092D01*
X173814540Y-88378144D01*
X173325736Y-88580613D01*
X173227073Y-88847468D01*
X131172927Y-88847468D01*
X131074264Y-88580613D01*
X130464539Y-88354092D01*
X129814540Y-88378144D01*
X129325736Y-88580613D01*
X129227073Y-88847468D01*
X124672927Y-88847468D01*
X124574264Y-88580613D01*
X123964539Y-88354092D01*
X123314540Y-88378144D01*
X122825736Y-88580613D01*
X122727073Y-88847468D01*
X121910000Y-88847468D01*
X121910000Y-88210000D01*
X182490000Y-88210000D01*
X182490000Y-145790000D01*
X182490000Y-145790000D01*
G37*
X182490000Y-145790000D02*
X121910000Y-145790000D01*
X121910000Y-144323795D01*
X122064716Y-144323795D01*
X122313106Y-144924943D01*
X122772637Y-145385278D01*
X123373352Y-145634716D01*
X124023795Y-145635284D01*
X124624943Y-145386894D01*
X125085278Y-144927363D01*
X125334716Y-144326648D01*
X125334718Y-144323795D01*
X128564716Y-144323795D01*
X128813106Y-144924943D01*
X129272637Y-145385278D01*
X129873352Y-145634716D01*
X130523795Y-145635284D01*
X131124943Y-145386894D01*
X131359715Y-145152532D01*
X173227073Y-145152532D01*
X173325736Y-145419387D01*
X173935461Y-145645908D01*
X174585460Y-145621856D01*
X175074264Y-145419387D01*
X175172927Y-145152532D01*
X179727073Y-145152532D01*
X179825736Y-145419387D01*
X180435461Y-145645908D01*
X181085460Y-145621856D01*
X181574264Y-145419387D01*
X181672927Y-145152532D01*
X180700000Y-144179605D01*
X179727073Y-145152532D01*
X175172927Y-145152532D01*
X174200000Y-144179605D01*
X173227073Y-145152532D01*
X131359715Y-145152532D01*
X131585278Y-144927363D01*
X131834716Y-144326648D01*
X131835232Y-143735461D01*
X172554092Y-143735461D01*
X172578144Y-144385460D01*
X172780613Y-144874264D01*
X173047468Y-144972927D01*
X174020395Y-144000000D01*
X174379605Y-144000000D01*
X175352532Y-144972927D01*
X175619387Y-144874264D01*
X175845908Y-144264539D01*
X175826331Y-143735461D01*
X179054092Y-143735461D01*
X179078144Y-144385460D01*
X179280613Y-144874264D01*
X179547468Y-144972927D01*
X180520395Y-144000000D01*
X180879605Y-144000000D01*
X181852532Y-144972927D01*
X182119387Y-144874264D01*
X182345908Y-144264539D01*
X182321856Y-143614540D01*
X182119387Y-143125736D01*
X181852532Y-143027073D01*
X180879605Y-144000000D01*
X180520395Y-144000000D01*
X179547468Y-143027073D01*
X179280613Y-143125736D01*
X179054092Y-143735461D01*
X175826331Y-143735461D01*
X175821856Y-143614540D01*
X175619387Y-143125736D01*
X175352532Y-143027073D01*
X174379605Y-144000000D01*
X174020395Y-144000000D01*
X173047468Y-143027073D01*
X172780613Y-143125736D01*
X172554092Y-143735461D01*
X131835232Y-143735461D01*
X131835284Y-143676205D01*
X131586894Y-143075057D01*
X131359703Y-142847468D01*
X173227073Y-142847468D01*
X174200000Y-143820395D01*
X175172927Y-142847468D01*
X179727073Y-142847468D01*
X180700000Y-143820395D01*
X181672927Y-142847468D01*
X181574264Y-142580613D01*
X180964539Y-142354092D01*
X180314540Y-142378144D01*
X179825736Y-142580613D01*
X179727073Y-142847468D01*
X175172927Y-142847468D01*
X175074264Y-142580613D01*
X174464539Y-142354092D01*
X173814540Y-142378144D01*
X173325736Y-142580613D01*
X173227073Y-142847468D01*
X131359703Y-142847468D01*
X131127363Y-142614722D01*
X130526648Y-142365284D01*
X129876205Y-142364716D01*
X129275057Y-142613106D01*
X128814722Y-143072637D01*
X128565284Y-143673352D01*
X128564716Y-144323795D01*
X125334718Y-144323795D01*
X125335284Y-143676205D01*
X125086894Y-143075057D01*
X124627363Y-142614722D01*
X124026648Y-142365284D01*
X123376205Y-142364716D01*
X122775057Y-142613106D01*
X122314722Y-143072637D01*
X122065284Y-143673352D01*
X122064716Y-144323795D01*
X121910000Y-144323795D01*
X121910000Y-140652532D01*
X122727073Y-140652532D01*
X122825736Y-140919387D01*
X123435461Y-141145908D01*
X124085460Y-141121856D01*
X124574264Y-140919387D01*
X124672927Y-140652532D01*
X129227073Y-140652532D01*
X129325736Y-140919387D01*
X129935461Y-141145908D01*
X130585460Y-141121856D01*
X131074264Y-140919387D01*
X131172927Y-140652532D01*
X130200000Y-139679605D01*
X129227073Y-140652532D01*
X124672927Y-140652532D01*
X123700000Y-139679605D01*
X122727073Y-140652532D01*
X121910000Y-140652532D01*
X121910000Y-139235461D01*
X122054092Y-139235461D01*
X122078144Y-139885460D01*
X122280613Y-140374264D01*
X122547468Y-140472927D01*
X123520395Y-139500000D01*
X123879605Y-139500000D01*
X124852532Y-140472927D01*
X125119387Y-140374264D01*
X125345908Y-139764539D01*
X125326331Y-139235461D01*
X128554092Y-139235461D01*
X128578144Y-139885460D01*
X128780613Y-140374264D01*
X129047468Y-140472927D01*
X130020395Y-139500000D01*
X130379605Y-139500000D01*
X131352532Y-140472927D01*
X131619387Y-140374264D01*
X131823893Y-139823795D01*
X172564716Y-139823795D01*
X172813106Y-140424943D01*
X173272637Y-140885278D01*
X173873352Y-141134716D01*
X174523795Y-141135284D01*
X175124943Y-140886894D01*
X175585278Y-140427363D01*
X175834716Y-139826648D01*
X175835284Y-139176205D01*
X175586894Y-138575057D01*
X175127363Y-138114722D01*
X174526648Y-137865284D01*
X173876205Y-137864716D01*
X173275057Y-138113106D01*
X172814722Y-138572637D01*
X172565284Y-139173352D01*
X172564716Y-139823795D01*
X131823893Y-139823795D01*
X131845908Y-139764539D01*
X131821856Y-139114540D01*
X131619387Y-138625736D01*
X131352532Y-138527073D01*
X130379605Y-139500000D01*
X130020395Y-139500000D01*
X129047468Y-138527073D01*
X128780613Y-138625736D01*
X128554092Y-139235461D01*
X125326331Y-139235461D01*
X125321856Y-139114540D01*
X125119387Y-138625736D01*
X124852532Y-138527073D01*
X123879605Y-139500000D01*
X123520395Y-139500000D01*
X122547468Y-138527073D01*
X122280613Y-138625736D01*
X122054092Y-139235461D01*
X121910000Y-139235461D01*
X121910000Y-138347468D01*
X122727073Y-138347468D01*
X123700000Y-139320395D01*
X124672927Y-138347468D01*
X129227073Y-138347468D01*
X130200000Y-139320395D01*
X131172927Y-138347468D01*
X131074264Y-138080613D01*
X130464539Y-137854092D01*
X129814540Y-137878144D01*
X129325736Y-138080613D01*
X129227073Y-138347468D01*
X124672927Y-138347468D01*
X124574264Y-138080613D01*
X123964539Y-137854092D01*
X123314540Y-137878144D01*
X122825736Y-138080613D01*
X122727073Y-138347468D01*
X121910000Y-138347468D01*
X121910000Y-116125000D01*
X124477560Y-116125000D01*
X124477560Y-117875000D01*
X124521838Y-118110317D01*
X124660910Y-118326441D01*
X124873110Y-118471431D01*
X124889676Y-118474786D01*
X124720630Y-118643537D01*
X124490262Y-119198325D01*
X124489738Y-119799040D01*
X124719138Y-120354229D01*
X125143537Y-120779370D01*
X125698325Y-121009738D01*
X126299040Y-121010262D01*
X126854229Y-120780862D01*
X127148944Y-120486661D01*
X133272758Y-120486661D01*
X133484990Y-121000303D01*
X133877630Y-121393629D01*
X134085512Y-121479949D01*
X133879697Y-121564990D01*
X133486371Y-121957630D01*
X133273243Y-122470900D01*
X133272758Y-123026661D01*
X133484990Y-123540303D01*
X133877630Y-123933629D01*
X134085512Y-124019949D01*
X133879697Y-124104990D01*
X133486371Y-124497630D01*
X133273243Y-125010900D01*
X133272758Y-125566661D01*
X133484990Y-126080303D01*
X133877630Y-126473629D01*
X134085512Y-126559949D01*
X133879697Y-126644990D01*
X133486371Y-127037630D01*
X133273243Y-127550900D01*
X133272758Y-128106661D01*
X133484990Y-128620303D01*
X133877630Y-129013629D01*
X134085512Y-129099949D01*
X133879697Y-129184990D01*
X133486371Y-129577630D01*
X133273243Y-130090900D01*
X133272758Y-130646661D01*
X133484990Y-131160303D01*
X133877630Y-131553629D01*
X134085512Y-131639949D01*
X133879697Y-131724990D01*
X133486371Y-132117630D01*
X133273243Y-132630900D01*
X133272758Y-133186661D01*
X133484990Y-133700303D01*
X133877630Y-134093629D01*
X134085512Y-134179949D01*
X133879697Y-134264990D01*
X133486371Y-134657630D01*
X133273243Y-135170900D01*
X133272758Y-135726661D01*
X133484990Y-136240303D01*
X133877630Y-136633629D01*
X134085512Y-136719949D01*
X133879697Y-136804990D01*
X133486371Y-137197630D01*
X133273243Y-137710900D01*
X133272758Y-138266661D01*
X133484990Y-138780303D01*
X133877630Y-139173629D01*
X134390900Y-139386757D01*
X134946661Y-139387242D01*
X135460303Y-139175010D01*
X135853629Y-138782370D01*
X136066757Y-138269100D01*
X136067242Y-137713339D01*
X135855010Y-137199697D01*
X135462370Y-136806371D01*
X135254488Y-136720051D01*
X135460303Y-136635010D01*
X135853629Y-136242370D01*
X136066757Y-135729100D01*
X136067242Y-135173339D01*
X135855010Y-134659697D01*
X135462370Y-134266371D01*
X135254488Y-134180051D01*
X135460303Y-134095010D01*
X135853629Y-133702370D01*
X136066757Y-133189100D01*
X136066759Y-133186661D01*
X150732758Y-133186661D01*
X150944990Y-133700303D01*
X151337630Y-134093629D01*
X151545512Y-134179949D01*
X151339697Y-134264990D01*
X150946371Y-134657630D01*
X150733243Y-135170900D01*
X150732758Y-135726661D01*
X150944990Y-136240303D01*
X151337630Y-136633629D01*
X151545512Y-136719949D01*
X151339697Y-136804990D01*
X150946371Y-137197630D01*
X150733243Y-137710900D01*
X150732758Y-138266661D01*
X150944990Y-138780303D01*
X151337630Y-139173629D01*
X151850900Y-139386757D01*
X152406661Y-139387242D01*
X152920303Y-139175010D01*
X153313629Y-138782370D01*
X153526757Y-138269100D01*
X153527242Y-137713339D01*
X153315010Y-137199697D01*
X152922370Y-136806371D01*
X152714488Y-136720051D01*
X152920303Y-136635010D01*
X153313629Y-136242370D01*
X153526757Y-135729100D01*
X153527242Y-135173339D01*
X153315010Y-134659697D01*
X152922370Y-134266371D01*
X152714488Y-134180051D01*
X152920303Y-134095010D01*
X153313629Y-133702370D01*
X153526757Y-133189100D01*
X153527242Y-132633339D01*
X153315010Y-132119697D01*
X153301997Y-132106661D01*
X156352758Y-132106661D01*
X156564990Y-132620303D01*
X156957630Y-133013629D01*
X157470900Y-133226757D01*
X158026661Y-133227242D01*
X158540303Y-133015010D01*
X158933629Y-132622370D01*
X159146757Y-132109100D01*
X159146759Y-132106661D01*
X169052758Y-132106661D01*
X169264990Y-132620303D01*
X169657630Y-133013629D01*
X170170900Y-133226757D01*
X170726661Y-133227242D01*
X171240303Y-133015010D01*
X171633629Y-132622370D01*
X171846757Y-132109100D01*
X171847242Y-131553339D01*
X171635010Y-131039697D01*
X171242370Y-130646371D01*
X170729100Y-130433243D01*
X170173339Y-130432758D01*
X169659697Y-130644990D01*
X169266371Y-131037630D01*
X169053243Y-131550900D01*
X169052758Y-132106661D01*
X159146759Y-132106661D01*
X159147242Y-131553339D01*
X158935010Y-131039697D01*
X158542370Y-130646371D01*
X158029100Y-130433243D01*
X157473339Y-130432758D01*
X156959697Y-130644990D01*
X156566371Y-131037630D01*
X156353243Y-131550900D01*
X156352758Y-132106661D01*
X153301997Y-132106661D01*
X152922370Y-131726371D01*
X152730273Y-131646605D01*
X152861143Y-131592397D01*
X152930608Y-131350213D01*
X152130000Y-130549605D01*
X151329392Y-131350213D01*
X151398857Y-131592397D01*
X151539318Y-131642509D01*
X151339697Y-131724990D01*
X150946371Y-132117630D01*
X150733243Y-132630900D01*
X150732758Y-133186661D01*
X136066759Y-133186661D01*
X136067242Y-132633339D01*
X135855010Y-132119697D01*
X135462370Y-131726371D01*
X135254488Y-131640051D01*
X135460303Y-131555010D01*
X135853629Y-131162370D01*
X136066757Y-130649100D01*
X136067181Y-130162302D01*
X150720856Y-130162302D01*
X150748638Y-130717368D01*
X150907603Y-131101143D01*
X151149787Y-131170608D01*
X151950395Y-130370000D01*
X152309605Y-130370000D01*
X153110213Y-131170608D01*
X153352397Y-131101143D01*
X153539144Y-130577698D01*
X153511362Y-130022632D01*
X153352397Y-129638857D01*
X153110213Y-129569392D01*
X152309605Y-130370000D01*
X151950395Y-130370000D01*
X151149787Y-129569392D01*
X150907603Y-129638857D01*
X150720856Y-130162302D01*
X136067181Y-130162302D01*
X136067242Y-130093339D01*
X135855010Y-129579697D01*
X135462370Y-129186371D01*
X135254488Y-129100051D01*
X135460303Y-129015010D01*
X135853629Y-128622370D01*
X136066757Y-128109100D01*
X136067242Y-127553339D01*
X135855010Y-127039697D01*
X135462370Y-126646371D01*
X135254488Y-126560051D01*
X135460303Y-126475010D01*
X135853629Y-126082370D01*
X136066757Y-125569100D01*
X136067242Y-125013339D01*
X135855010Y-124499697D01*
X135462370Y-124106371D01*
X135254488Y-124020051D01*
X135460303Y-123935010D01*
X135853629Y-123542370D01*
X136066757Y-123029100D01*
X136067242Y-122473339D01*
X135855010Y-121959697D01*
X135462370Y-121566371D01*
X135254488Y-121480051D01*
X135460303Y-121395010D01*
X135853629Y-121002370D01*
X136066757Y-120489100D01*
X136067242Y-119933339D01*
X135855010Y-119419697D01*
X135462370Y-119026371D01*
X134949100Y-118813243D01*
X134393339Y-118812758D01*
X133879697Y-119024990D01*
X133486371Y-119417630D01*
X133273243Y-119930900D01*
X133272758Y-120486661D01*
X127148944Y-120486661D01*
X127279370Y-120356463D01*
X127509738Y-119801675D01*
X127510262Y-119200960D01*
X127280862Y-118645771D01*
X127112283Y-118476897D01*
X127326441Y-118339090D01*
X127471431Y-118126890D01*
X127522440Y-117875000D01*
X127522440Y-116125000D01*
X127478162Y-115889683D01*
X127339090Y-115673559D01*
X127126890Y-115528569D01*
X126875000Y-115477560D01*
X125125000Y-115477560D01*
X124889683Y-115521838D01*
X124673559Y-115660910D01*
X124528569Y-115873110D01*
X124477560Y-116125000D01*
X121910000Y-116125000D01*
X121910000Y-106425000D01*
X124477560Y-106425000D01*
X124477560Y-108175000D01*
X124521838Y-108410317D01*
X124660910Y-108626441D01*
X124873110Y-108771431D01*
X124889676Y-108774786D01*
X124720630Y-108943537D01*
X124490262Y-109498325D01*
X124489738Y-110099040D01*
X124719138Y-110654229D01*
X125143537Y-111079370D01*
X125698325Y-111309738D01*
X126299040Y-111310262D01*
X126854229Y-111080862D01*
X127279370Y-110656463D01*
X127481766Y-110169039D01*
X137308096Y-110169039D01*
X137468959Y-110557423D01*
X137844866Y-110972389D01*
X138350959Y-111211914D01*
X138573000Y-111090629D01*
X138573000Y-109947000D01*
X137430085Y-109947000D01*
X137308096Y-110169039D01*
X127481766Y-110169039D01*
X127509738Y-110101675D01*
X127510262Y-109500960D01*
X127280862Y-108945771D01*
X127112283Y-108776897D01*
X127326441Y-108639090D01*
X127471431Y-108426890D01*
X127522440Y-108175000D01*
X127522440Y-106425000D01*
X127478162Y-106189683D01*
X127339090Y-105973559D01*
X127126890Y-105828569D01*
X126875000Y-105777560D01*
X125125000Y-105777560D01*
X124889683Y-105821838D01*
X124673559Y-105960910D01*
X124528569Y-106173110D01*
X124477560Y-106425000D01*
X121910000Y-106425000D01*
X121910000Y-104740000D01*
X137236887Y-104740000D01*
X137346120Y-105289151D01*
X137657189Y-105754698D01*
X138039275Y-106010000D01*
X137657189Y-106265302D01*
X137346120Y-106730849D01*
X137236887Y-107280000D01*
X137346120Y-107829151D01*
X137657189Y-108294698D01*
X137957978Y-108495679D01*
X137979502Y-108603890D01*
X137844866Y-108667611D01*
X137468959Y-109082577D01*
X137308096Y-109470961D01*
X137430085Y-109693000D01*
X138573000Y-109693000D01*
X138573000Y-109673000D01*
X138827000Y-109673000D01*
X138827000Y-109693000D01*
X138847000Y-109693000D01*
X138847000Y-109947000D01*
X138827000Y-109947000D01*
X138827000Y-111090629D01*
X139049041Y-111211914D01*
X139065300Y-111204219D01*
X139065300Y-112985300D01*
X139123152Y-113276139D01*
X139287899Y-113522701D01*
X150745817Y-124980619D01*
X150733243Y-125010900D01*
X150732758Y-125566661D01*
X150944990Y-126080303D01*
X151337630Y-126473629D01*
X151545512Y-126559949D01*
X151339697Y-126644990D01*
X150946371Y-127037630D01*
X150733243Y-127550900D01*
X150732758Y-128106661D01*
X150944990Y-128620303D01*
X151337630Y-129013629D01*
X151529727Y-129093395D01*
X151398857Y-129147603D01*
X151329392Y-129389787D01*
X152130000Y-130190395D01*
X152930608Y-129389787D01*
X152861143Y-129147603D01*
X152720682Y-129097491D01*
X152920303Y-129015010D01*
X153313629Y-128622370D01*
X153526757Y-128109100D01*
X153527242Y-127553339D01*
X153315010Y-127039697D01*
X152922370Y-126646371D01*
X152714488Y-126560051D01*
X152920303Y-126475010D01*
X153313629Y-126082370D01*
X153526757Y-125569100D01*
X153527242Y-125013339D01*
X153315010Y-124499697D01*
X152922370Y-124106371D01*
X152714488Y-124020051D01*
X152920303Y-123935010D01*
X153313629Y-123542370D01*
X153526757Y-123029100D01*
X153527242Y-122473339D01*
X153315010Y-121959697D01*
X152922370Y-121566371D01*
X152714488Y-121480051D01*
X152920303Y-121395010D01*
X153313629Y-121002370D01*
X153526757Y-120489100D01*
X153527242Y-119933339D01*
X153315010Y-119419697D01*
X152922370Y-119026371D01*
X152409100Y-118813243D01*
X151853339Y-118812758D01*
X151339697Y-119024990D01*
X150946371Y-119417630D01*
X150733243Y-119930900D01*
X150732940Y-120278138D01*
X148205300Y-117750498D01*
X148205300Y-109249200D01*
X148147448Y-108958361D01*
X147982701Y-108711799D01*
X147444037Y-108173135D01*
X147673880Y-107829151D01*
X147783113Y-107280000D01*
X147673880Y-106730849D01*
X147362811Y-106265302D01*
X146980725Y-106010000D01*
X147362811Y-105754698D01*
X147673880Y-105289151D01*
X147783113Y-104740000D01*
X147673880Y-104190849D01*
X147362811Y-103725302D01*
X146980725Y-103470000D01*
X147362811Y-103214698D01*
X147673880Y-102749151D01*
X147783113Y-102200000D01*
X147673880Y-101650849D01*
X147362811Y-101185302D01*
X146897264Y-100874233D01*
X146348113Y-100765000D01*
X146291887Y-100765000D01*
X145742736Y-100874233D01*
X145277189Y-101185302D01*
X144966120Y-101650849D01*
X144856887Y-102200000D01*
X144966120Y-102749151D01*
X145277189Y-103214698D01*
X145659275Y-103470000D01*
X145277189Y-103725302D01*
X144966120Y-104190849D01*
X144856887Y-104740000D01*
X144966120Y-105289151D01*
X145277189Y-105754698D01*
X145659275Y-106010000D01*
X145277189Y-106265302D01*
X144966120Y-106730849D01*
X144856887Y-107280000D01*
X144966120Y-107829151D01*
X145277189Y-108294698D01*
X145577978Y-108495679D01*
X145597053Y-108591576D01*
X145277189Y-108805302D01*
X144966120Y-109270849D01*
X144856887Y-109820000D01*
X144966120Y-110369151D01*
X145277189Y-110834698D01*
X145742736Y-111145767D01*
X146291887Y-111255000D01*
X146348113Y-111255000D01*
X146685300Y-111187929D01*
X146685300Y-118065300D01*
X146743152Y-118356139D01*
X146907899Y-118602701D01*
X150745817Y-122440619D01*
X150733243Y-122470900D01*
X150732940Y-122818138D01*
X140585300Y-112670498D01*
X140585300Y-109249200D01*
X140527448Y-108958361D01*
X140362701Y-108711799D01*
X139824037Y-108173135D01*
X140053880Y-107829151D01*
X140163113Y-107280000D01*
X140053880Y-106730849D01*
X139742811Y-106265302D01*
X139360725Y-106010000D01*
X139742811Y-105754698D01*
X140053880Y-105289151D01*
X140163113Y-104740000D01*
X140053880Y-104190849D01*
X139742811Y-103725302D01*
X139598535Y-103628899D01*
X139735317Y-103603162D01*
X139951441Y-103464090D01*
X140096431Y-103251890D01*
X140147440Y-103000000D01*
X140147440Y-101400000D01*
X140103162Y-101164683D01*
X139964090Y-100948559D01*
X139751890Y-100803569D01*
X139500000Y-100752560D01*
X137900000Y-100752560D01*
X137664683Y-100796838D01*
X137448559Y-100935910D01*
X137303569Y-101148110D01*
X137252560Y-101400000D01*
X137252560Y-103000000D01*
X137296838Y-103235317D01*
X137435910Y-103451441D01*
X137648110Y-103596431D01*
X137803089Y-103627815D01*
X137657189Y-103725302D01*
X137346120Y-104190849D01*
X137236887Y-104740000D01*
X121910000Y-104740000D01*
X121910000Y-94823795D01*
X122064716Y-94823795D01*
X122313106Y-95424943D01*
X122772637Y-95885278D01*
X123373352Y-96134716D01*
X124023795Y-96135284D01*
X124624943Y-95886894D01*
X125085278Y-95427363D01*
X125334716Y-94826648D01*
X125334718Y-94823795D01*
X128564716Y-94823795D01*
X128813106Y-95424943D01*
X129272637Y-95885278D01*
X129873352Y-96134716D01*
X130523795Y-96135284D01*
X131124943Y-95886894D01*
X131585278Y-95427363D01*
X131834716Y-94826648D01*
X131835284Y-94176205D01*
X131586894Y-93575057D01*
X131127363Y-93114722D01*
X130526648Y-92865284D01*
X129876205Y-92864716D01*
X129275057Y-93113106D01*
X128814722Y-93572637D01*
X128565284Y-94173352D01*
X128564716Y-94823795D01*
X125334718Y-94823795D01*
X125335284Y-94176205D01*
X125086894Y-93575057D01*
X124627363Y-93114722D01*
X124026648Y-92865284D01*
X123376205Y-92864716D01*
X122775057Y-93113106D01*
X122314722Y-93572637D01*
X122065284Y-94173352D01*
X122064716Y-94823795D01*
X121910000Y-94823795D01*
X121910000Y-91825000D01*
X146977560Y-91825000D01*
X146977560Y-93575000D01*
X147021838Y-93810317D01*
X147160910Y-94026441D01*
X147373110Y-94171431D01*
X147625000Y-94222440D01*
X147740000Y-94222440D01*
X147740000Y-97180000D01*
X147797852Y-97470839D01*
X147962599Y-97717401D01*
X157818257Y-107573059D01*
X157473339Y-107572758D01*
X156959697Y-107784990D01*
X156566371Y-108177630D01*
X156353243Y-108690900D01*
X156352758Y-109246661D01*
X156564990Y-109760303D01*
X156957630Y-110153629D01*
X157470900Y-110366757D01*
X158026661Y-110367242D01*
X158540303Y-110155010D01*
X158933629Y-109762370D01*
X159019949Y-109554488D01*
X159104990Y-109760303D01*
X159497630Y-110153629D01*
X160010900Y-110366757D01*
X160566661Y-110367242D01*
X161080303Y-110155010D01*
X161473629Y-109762370D01*
X161686757Y-109249100D01*
X161687242Y-108693339D01*
X161475010Y-108179697D01*
X161082370Y-107786371D01*
X160569100Y-107573243D01*
X160013339Y-107572758D01*
X159980945Y-107586143D01*
X149260000Y-96865198D01*
X149260000Y-94222440D01*
X149375000Y-94222440D01*
X149610317Y-94178162D01*
X149826441Y-94039090D01*
X149971431Y-93826890D01*
X149974786Y-93810324D01*
X150143537Y-93979370D01*
X150698325Y-94209738D01*
X151299040Y-94210262D01*
X151848448Y-93983250D01*
X166525817Y-108660619D01*
X166513243Y-108690900D01*
X166512758Y-109246661D01*
X166724990Y-109760303D01*
X167117630Y-110153629D01*
X167630900Y-110366757D01*
X168186661Y-110367242D01*
X168700303Y-110155010D01*
X169093629Y-109762370D01*
X169179949Y-109554488D01*
X169264990Y-109760303D01*
X169657630Y-110153629D01*
X169690000Y-110167070D01*
X169690000Y-119399800D01*
X169747852Y-119690639D01*
X169912599Y-119937201D01*
X176136663Y-126161265D01*
X176128569Y-126173110D01*
X176077560Y-126425000D01*
X176077560Y-128175000D01*
X176121838Y-128410317D01*
X176260910Y-128626441D01*
X176473110Y-128771431D01*
X176725000Y-128822440D01*
X178475000Y-128822440D01*
X178710317Y-128778162D01*
X178926441Y-128639090D01*
X179071431Y-128426890D01*
X179122440Y-128175000D01*
X179122440Y-126425000D01*
X179078162Y-126189683D01*
X178939090Y-125973559D01*
X178737774Y-125836006D01*
X178776694Y-125797086D01*
X178662062Y-125682454D01*
X178915953Y-125599116D01*
X179121590Y-125034694D01*
X179095579Y-124434542D01*
X178915953Y-124000884D01*
X178662060Y-123917545D01*
X177779605Y-124800000D01*
X177793748Y-124814143D01*
X177614143Y-124993748D01*
X177600000Y-124979605D01*
X177585858Y-124993748D01*
X177406253Y-124814143D01*
X177420395Y-124800000D01*
X176537940Y-123917545D01*
X176284047Y-124000884D01*
X176241812Y-124116810D01*
X175862942Y-123737940D01*
X176717545Y-123737940D01*
X177600000Y-124620395D01*
X178482455Y-123737940D01*
X178399116Y-123484047D01*
X177834694Y-123278410D01*
X177234542Y-123304421D01*
X176800884Y-123484047D01*
X176717545Y-123737940D01*
X175862942Y-123737940D01*
X171210000Y-119084998D01*
X171210000Y-110167531D01*
X171240303Y-110155010D01*
X171633629Y-109762370D01*
X171846757Y-109249100D01*
X171847242Y-108693339D01*
X171635010Y-108179697D01*
X171242370Y-107786371D01*
X170729100Y-107573243D01*
X170173339Y-107572758D01*
X169659697Y-107784990D01*
X169266371Y-108177630D01*
X169180051Y-108385512D01*
X169095010Y-108179697D01*
X168702370Y-107786371D01*
X168189100Y-107573243D01*
X167633339Y-107572758D01*
X167600945Y-107586143D01*
X154838597Y-94823795D01*
X172564716Y-94823795D01*
X172813106Y-95424943D01*
X173272637Y-95885278D01*
X173873352Y-96134716D01*
X174523795Y-96135284D01*
X175124943Y-95886894D01*
X175585278Y-95427363D01*
X175834716Y-94826648D01*
X175834718Y-94823795D01*
X179064716Y-94823795D01*
X179313106Y-95424943D01*
X179772637Y-95885278D01*
X179940000Y-95954773D01*
X179940000Y-138044953D01*
X179775057Y-138113106D01*
X179314722Y-138572637D01*
X179065284Y-139173352D01*
X179064716Y-139823795D01*
X179313106Y-140424943D01*
X179772637Y-140885278D01*
X180373352Y-141134716D01*
X181023795Y-141135284D01*
X181624943Y-140886894D01*
X182085278Y-140427363D01*
X182334716Y-139826648D01*
X182335284Y-139176205D01*
X182086894Y-138575057D01*
X181627363Y-138114722D01*
X181460000Y-138045227D01*
X181460000Y-95955047D01*
X181624943Y-95886894D01*
X182085278Y-95427363D01*
X182334716Y-94826648D01*
X182335284Y-94176205D01*
X182086894Y-93575057D01*
X181627363Y-93114722D01*
X181026648Y-92865284D01*
X180376205Y-92864716D01*
X179775057Y-93113106D01*
X179314722Y-93572637D01*
X179065284Y-94173352D01*
X179064716Y-94823795D01*
X175834718Y-94823795D01*
X175835284Y-94176205D01*
X175586894Y-93575057D01*
X175127363Y-93114722D01*
X174526648Y-92865284D01*
X173876205Y-92864716D01*
X173275057Y-93113106D01*
X172814722Y-93572637D01*
X172565284Y-94173352D01*
X172564716Y-94823795D01*
X154838597Y-94823795D01*
X152510180Y-92495378D01*
X152510262Y-92400960D01*
X152280862Y-91845771D01*
X151856463Y-91420630D01*
X151301675Y-91190262D01*
X150700960Y-91189738D01*
X150145771Y-91419138D01*
X149976897Y-91587717D01*
X149839090Y-91373559D01*
X149626890Y-91228569D01*
X149375000Y-91177560D01*
X147625000Y-91177560D01*
X147389683Y-91221838D01*
X147173559Y-91360910D01*
X147028569Y-91573110D01*
X146977560Y-91825000D01*
X121910000Y-91825000D01*
X121910000Y-91152532D01*
X122727073Y-91152532D01*
X122825736Y-91419387D01*
X123435461Y-91645908D01*
X124085460Y-91621856D01*
X124574264Y-91419387D01*
X124672927Y-91152532D01*
X129227073Y-91152532D01*
X129325736Y-91419387D01*
X129935461Y-91645908D01*
X130585460Y-91621856D01*
X131074264Y-91419387D01*
X131172927Y-91152532D01*
X173227073Y-91152532D01*
X173325736Y-91419387D01*
X173935461Y-91645908D01*
X174585460Y-91621856D01*
X175074264Y-91419387D01*
X175172927Y-91152532D01*
X179727073Y-91152532D01*
X179825736Y-91419387D01*
X180435461Y-91645908D01*
X181085460Y-91621856D01*
X181574264Y-91419387D01*
X181672927Y-91152532D01*
X180700000Y-90179605D01*
X179727073Y-91152532D01*
X175172927Y-91152532D01*
X174200000Y-90179605D01*
X173227073Y-91152532D01*
X131172927Y-91152532D01*
X130200000Y-90179605D01*
X129227073Y-91152532D01*
X124672927Y-91152532D01*
X123700000Y-90179605D01*
X122727073Y-91152532D01*
X121910000Y-91152532D01*
X121910000Y-89735461D01*
X122054092Y-89735461D01*
X122078144Y-90385460D01*
X122280613Y-90874264D01*
X122547468Y-90972927D01*
X123520395Y-90000000D01*
X123879605Y-90000000D01*
X124852532Y-90972927D01*
X125119387Y-90874264D01*
X125345908Y-90264539D01*
X125326331Y-89735461D01*
X128554092Y-89735461D01*
X128578144Y-90385460D01*
X128780613Y-90874264D01*
X129047468Y-90972927D01*
X130020395Y-90000000D01*
X130379605Y-90000000D01*
X131352532Y-90972927D01*
X131619387Y-90874264D01*
X131845908Y-90264539D01*
X131826331Y-89735461D01*
X172554092Y-89735461D01*
X172578144Y-90385460D01*
X172780613Y-90874264D01*
X173047468Y-90972927D01*
X174020395Y-90000000D01*
X174379605Y-90000000D01*
X175352532Y-90972927D01*
X175619387Y-90874264D01*
X175845908Y-90264539D01*
X175826331Y-89735461D01*
X179054092Y-89735461D01*
X179078144Y-90385460D01*
X179280613Y-90874264D01*
X179547468Y-90972927D01*
X180520395Y-90000000D01*
X180879605Y-90000000D01*
X181852532Y-90972927D01*
X182119387Y-90874264D01*
X182345908Y-90264539D01*
X182321856Y-89614540D01*
X182119387Y-89125736D01*
X181852532Y-89027073D01*
X180879605Y-90000000D01*
X180520395Y-90000000D01*
X179547468Y-89027073D01*
X179280613Y-89125736D01*
X179054092Y-89735461D01*
X175826331Y-89735461D01*
X175821856Y-89614540D01*
X175619387Y-89125736D01*
X175352532Y-89027073D01*
X174379605Y-90000000D01*
X174020395Y-90000000D01*
X173047468Y-89027073D01*
X172780613Y-89125736D01*
X172554092Y-89735461D01*
X131826331Y-89735461D01*
X131821856Y-89614540D01*
X131619387Y-89125736D01*
X131352532Y-89027073D01*
X130379605Y-90000000D01*
X130020395Y-90000000D01*
X129047468Y-89027073D01*
X128780613Y-89125736D01*
X128554092Y-89735461D01*
X125326331Y-89735461D01*
X125321856Y-89614540D01*
X125119387Y-89125736D01*
X124852532Y-89027073D01*
X123879605Y-90000000D01*
X123520395Y-90000000D01*
X122547468Y-89027073D01*
X122280613Y-89125736D01*
X122054092Y-89735461D01*
X121910000Y-89735461D01*
X121910000Y-88847468D01*
X122727073Y-88847468D01*
X123700000Y-89820395D01*
X124672927Y-88847468D01*
X129227073Y-88847468D01*
X130200000Y-89820395D01*
X131172927Y-88847468D01*
X173227073Y-88847468D01*
X174200000Y-89820395D01*
X175172927Y-88847468D01*
X179727073Y-88847468D01*
X180700000Y-89820395D01*
X181672927Y-88847468D01*
X181574264Y-88580613D01*
X180964539Y-88354092D01*
X180314540Y-88378144D01*
X179825736Y-88580613D01*
X179727073Y-88847468D01*
X175172927Y-88847468D01*
X175074264Y-88580613D01*
X174464539Y-88354092D01*
X173814540Y-88378144D01*
X173325736Y-88580613D01*
X173227073Y-88847468D01*
X131172927Y-88847468D01*
X131074264Y-88580613D01*
X130464539Y-88354092D01*
X129814540Y-88378144D01*
X129325736Y-88580613D01*
X129227073Y-88847468D01*
X124672927Y-88847468D01*
X124574264Y-88580613D01*
X123964539Y-88354092D01*
X123314540Y-88378144D01*
X122825736Y-88580613D01*
X122727073Y-88847468D01*
X121910000Y-88847468D01*
X121910000Y-88210000D01*
X182490000Y-88210000D01*
X182490000Y-145790000D01*
M02*
