G04 #@! TF.FileFunction,Soldermask,Bot*
%FSLAX46Y46*%
G04 Gerber Fmt 4.6, Leading zero omitted, Abs format (unit mm)*
G04 Created by KiCad (PCBNEW 4.0.6+dfsg1-1) date Thu Jan 18 10:21:15 2018*
%MOMM*%
%LPD*%
G01*
G04 APERTURE LIST*
%ADD10C,0.100000*%
%ADD11C,1.924000*%
%ADD12R,2.000000X2.000000*%
%ADD13O,2.000000X2.000000*%
%ADD14R,2.150000X2.150000*%
%ADD15C,2.150000*%
%ADD16C,2.400000*%
G04 APERTURE END LIST*
D10*
D11*
X148270000Y-142310000D03*
X148270000Y-134690000D03*
X148270000Y-132150000D03*
X148270000Y-144850000D03*
X171130000Y-132150000D03*
X171130000Y-144850000D03*
D12*
X143000000Y-133550000D03*
D13*
X135380000Y-125930000D03*
X143000000Y-131010000D03*
X135380000Y-128470000D03*
X143000000Y-128470000D03*
X135380000Y-131010000D03*
X143000000Y-125930000D03*
X135380000Y-133550000D03*
D11*
X151112000Y-119190000D03*
X151112000Y-116650000D03*
X151112000Y-114110000D03*
X151112000Y-111570000D03*
X151112000Y-109030000D03*
X151112000Y-106490000D03*
X151112000Y-103950000D03*
X151112000Y-101410000D03*
X136888000Y-119190000D03*
X136888000Y-116650000D03*
X136888000Y-114110000D03*
X136888000Y-111570000D03*
X136888000Y-109030000D03*
X136888000Y-106490000D03*
X136888000Y-103950000D03*
X136888000Y-101410000D03*
X145200000Y-96700000D03*
X142800000Y-96700000D03*
D14*
X180050000Y-105850000D03*
D15*
X177550000Y-105850000D03*
D14*
X180050000Y-98900000D03*
D15*
X177550000Y-98900000D03*
D16*
X134700000Y-93500000D03*
X134700000Y-89000000D03*
X141200000Y-93500000D03*
X141200000Y-89000000D03*
X175200000Y-93500000D03*
X175200000Y-89000000D03*
X181700000Y-93500000D03*
X181700000Y-89000000D03*
X175200000Y-146000000D03*
X175200000Y-141500000D03*
X181700000Y-146000000D03*
X181700000Y-141500000D03*
X134700000Y-146000000D03*
X134700000Y-141500000D03*
X141200000Y-146000000D03*
X141200000Y-141500000D03*
D14*
X180050000Y-112750000D03*
D15*
X177550000Y-112750000D03*
D14*
X179100000Y-126450000D03*
D15*
X179100000Y-123950000D03*
X179100000Y-121450000D03*
X179100000Y-118950000D03*
M02*
