G04 #@! TF.FileFunction,Legend,Top*
%FSLAX46Y46*%
G04 Gerber Fmt 4.6, Leading zero omitted, Abs format (unit mm)*
G04 Created by KiCad (PCBNEW 4.0.6+dfsg1-1) date Sat Jan 20 11:22:17 2018*
%MOMM*%
%LPD*%
G01*
G04 APERTURE LIST*
%ADD10C,0.100000*%
%ADD11C,0.300000*%
%ADD12C,0.250000*%
%ADD13C,0.120000*%
%ADD14C,0.150000*%
G04 APERTURE END LIST*
D10*
D11*
X174728572Y-99607143D02*
X175871429Y-99607143D01*
X175300000Y-100178571D02*
X175300000Y-99035714D01*
X174978572Y-110157143D02*
X176121429Y-110157143D01*
D12*
X171988096Y-116700000D02*
X171892858Y-116652381D01*
X171750001Y-116652381D01*
X171607143Y-116700000D01*
X171511905Y-116795238D01*
X171464286Y-116890476D01*
X171416667Y-117080952D01*
X171416667Y-117223810D01*
X171464286Y-117414286D01*
X171511905Y-117509524D01*
X171607143Y-117604762D01*
X171750001Y-117652381D01*
X171845239Y-117652381D01*
X171988096Y-117604762D01*
X172035715Y-117557143D01*
X172035715Y-117223810D01*
X171845239Y-117223810D01*
X172464286Y-117652381D02*
X172464286Y-116652381D01*
X173035715Y-117652381D01*
X173035715Y-116652381D01*
X173511905Y-117652381D02*
X173511905Y-116652381D01*
X173750000Y-116652381D01*
X173892858Y-116700000D01*
X173988096Y-116795238D01*
X174035715Y-116890476D01*
X174083334Y-117080952D01*
X174083334Y-117223810D01*
X174035715Y-117414286D01*
X173988096Y-117509524D01*
X173892858Y-117604762D01*
X173750000Y-117652381D01*
X173511905Y-117652381D01*
X171916667Y-119252381D02*
X172250000Y-120252381D01*
X172583334Y-119252381D01*
X173488096Y-120157143D02*
X173440477Y-120204762D01*
X173297620Y-120252381D01*
X173202382Y-120252381D01*
X173059524Y-120204762D01*
X172964286Y-120109524D01*
X172916667Y-120014286D01*
X172869048Y-119823810D01*
X172869048Y-119680952D01*
X172916667Y-119490476D01*
X172964286Y-119395238D01*
X173059524Y-119300000D01*
X173202382Y-119252381D01*
X173297620Y-119252381D01*
X173440477Y-119300000D01*
X173488096Y-119347619D01*
X174488096Y-120157143D02*
X174440477Y-120204762D01*
X174297620Y-120252381D01*
X174202382Y-120252381D01*
X174059524Y-120204762D01*
X173964286Y-120109524D01*
X173916667Y-120014286D01*
X173869048Y-119823810D01*
X173869048Y-119680952D01*
X173916667Y-119490476D01*
X173964286Y-119395238D01*
X174059524Y-119300000D01*
X174202382Y-119252381D01*
X174297620Y-119252381D01*
X174440477Y-119300000D01*
X174488096Y-119347619D01*
X172619048Y-122652381D02*
X172619048Y-121652381D01*
X172857143Y-121652381D01*
X173000001Y-121700000D01*
X173095239Y-121795238D01*
X173142858Y-121890476D01*
X173190477Y-122080952D01*
X173190477Y-122223810D01*
X173142858Y-122414286D01*
X173095239Y-122509524D01*
X173000001Y-122604762D01*
X172857143Y-122652381D01*
X172619048Y-122652381D01*
X173619048Y-122271429D02*
X174380953Y-122271429D01*
X172619048Y-125252381D02*
X172619048Y-124252381D01*
X172857143Y-124252381D01*
X173000001Y-124300000D01*
X173095239Y-124395238D01*
X173142858Y-124490476D01*
X173190477Y-124680952D01*
X173190477Y-124823810D01*
X173142858Y-125014286D01*
X173095239Y-125109524D01*
X173000001Y-125204762D01*
X172857143Y-125252381D01*
X172619048Y-125252381D01*
X173619048Y-124871429D02*
X174380953Y-124871429D01*
X174000001Y-125252381D02*
X174000001Y-124490476D01*
D13*
X145650000Y-94450000D02*
X145650000Y-96650000D01*
X145650000Y-96650000D02*
X144150000Y-96650000D01*
X144150000Y-96650000D02*
X144150000Y-88150000D01*
X144150000Y-88150000D02*
X151950000Y-88150000D01*
X151950000Y-88150000D02*
X151950000Y-96650000D01*
X151950000Y-96650000D02*
X150450000Y-96650000D01*
X150450000Y-96650000D02*
X150450000Y-94450000D01*
X144150000Y-89650000D02*
X145650000Y-89650000D01*
X145650000Y-89650000D02*
X145650000Y-94450000D01*
X145650000Y-94450000D02*
X144150000Y-94450000D01*
X151950000Y-89650000D02*
X150450000Y-89650000D01*
X150450000Y-89650000D02*
X150450000Y-94450000D01*
X150450000Y-94450000D02*
X151950000Y-94450000D01*
X145650000Y-92500000D02*
X150450000Y-92500000D01*
X145650000Y-93500000D02*
X150450000Y-93500000D01*
X146800000Y-92500000D02*
X146480000Y-92500000D01*
X146480000Y-92500000D02*
X146480000Y-89080000D01*
X146480000Y-89080000D02*
X146800000Y-89000000D01*
X146800000Y-89000000D02*
X147120000Y-89080000D01*
X147120000Y-89080000D02*
X147120000Y-92500000D01*
X147120000Y-92500000D02*
X146800000Y-92500000D01*
X149300000Y-92500000D02*
X148980000Y-92500000D01*
X148980000Y-92500000D02*
X148980000Y-89080000D01*
X148980000Y-89080000D02*
X149300000Y-89000000D01*
X149300000Y-89000000D02*
X149620000Y-89080000D01*
X149620000Y-89080000D02*
X149620000Y-92500000D01*
X149620000Y-92500000D02*
X149300000Y-92500000D01*
X146800000Y-96500000D02*
X146500000Y-97100000D01*
X146500000Y-97100000D02*
X147100000Y-97100000D01*
X147100000Y-97100000D02*
X146800000Y-96500000D01*
D14*
X173120000Y-147390000D02*
X173120000Y-129610000D01*
X145180000Y-147390000D02*
X145180000Y-129610000D01*
X173120000Y-147390000D02*
X145180000Y-147390000D01*
X145180000Y-129610000D02*
X173120000Y-129610000D01*
D13*
X138140000Y-139640000D02*
G75*
G02X140140000Y-139640000I1000000J0D01*
G01*
X140140000Y-139640000D02*
X141910000Y-139640000D01*
X141910000Y-139640000D02*
X141910000Y-129240000D01*
X141910000Y-129240000D02*
X136370000Y-129240000D01*
X136370000Y-129240000D02*
X136370000Y-139640000D01*
X136370000Y-139640000D02*
X138140000Y-139640000D01*
D14*
X143550000Y-105250000D02*
X139550000Y-105250000D01*
X139550000Y-105250000D02*
X139550000Y-110550000D01*
X139550000Y-110550000D02*
X147550000Y-110550000D01*
X147550000Y-110550000D02*
X147550000Y-105250000D01*
X147550000Y-105250000D02*
X143550000Y-105250000D01*
X134350000Y-106250000D02*
X152750000Y-106250000D01*
X152750000Y-106250000D02*
X152750000Y-128850000D01*
X134350000Y-106250000D02*
X134350000Y-128850000D01*
X134350000Y-128850000D02*
X152750000Y-128850000D01*
X135700000Y-94500000D02*
X140200000Y-94500000D01*
X134450000Y-90500000D02*
X134450000Y-92000000D01*
X140200000Y-88000000D02*
X135700000Y-88000000D01*
X141450000Y-92000000D02*
X141450000Y-90500000D01*
X176200000Y-94500000D02*
X180700000Y-94500000D01*
X174950000Y-90500000D02*
X174950000Y-92000000D01*
X180700000Y-88000000D02*
X176200000Y-88000000D01*
X181950000Y-92000000D02*
X181950000Y-90500000D01*
X176200000Y-147000000D02*
X180700000Y-147000000D01*
X174950000Y-143000000D02*
X174950000Y-144500000D01*
X180700000Y-140500000D02*
X176200000Y-140500000D01*
X181950000Y-144500000D02*
X181950000Y-143000000D01*
X135700000Y-147000000D02*
X140200000Y-147000000D01*
X134450000Y-143000000D02*
X134450000Y-144500000D01*
X140200000Y-140500000D02*
X135700000Y-140500000D01*
X141450000Y-144500000D02*
X141450000Y-143000000D01*
D13*
X176300000Y-102500000D02*
X174100000Y-102500000D01*
X174100000Y-102500000D02*
X174100000Y-101000000D01*
X174100000Y-101000000D02*
X182600000Y-101000000D01*
X182600000Y-101000000D02*
X182600000Y-108800000D01*
X182600000Y-108800000D02*
X174100000Y-108800000D01*
X174100000Y-108800000D02*
X174100000Y-107300000D01*
X174100000Y-107300000D02*
X176300000Y-107300000D01*
X181100000Y-101000000D02*
X181100000Y-102500000D01*
X181100000Y-102500000D02*
X176300000Y-102500000D01*
X176300000Y-102500000D02*
X176300000Y-101000000D01*
X181100000Y-108800000D02*
X181100000Y-107300000D01*
X181100000Y-107300000D02*
X176300000Y-107300000D01*
X176300000Y-107300000D02*
X176300000Y-108800000D01*
X178250000Y-102500000D02*
X178250000Y-107300000D01*
X177250000Y-102500000D02*
X177250000Y-107300000D01*
X178250000Y-103650000D02*
X178250000Y-103330000D01*
X178250000Y-103330000D02*
X181670000Y-103330000D01*
X181670000Y-103330000D02*
X181750000Y-103650000D01*
X181750000Y-103650000D02*
X181670000Y-103970000D01*
X181670000Y-103970000D02*
X178250000Y-103970000D01*
X178250000Y-103970000D02*
X178250000Y-103650000D01*
X178250000Y-106150000D02*
X178250000Y-105830000D01*
X178250000Y-105830000D02*
X181670000Y-105830000D01*
X181670000Y-105830000D02*
X181750000Y-106150000D01*
X181750000Y-106150000D02*
X181670000Y-106470000D01*
X181670000Y-106470000D02*
X178250000Y-106470000D01*
X178250000Y-106470000D02*
X178250000Y-106150000D01*
X174250000Y-103650000D02*
X173650000Y-103350000D01*
X173650000Y-103350000D02*
X173650000Y-103950000D01*
X173650000Y-103950000D02*
X174250000Y-103650000D01*
X176250000Y-116100000D02*
X174050000Y-116100000D01*
X174050000Y-116100000D02*
X174050000Y-114600000D01*
X174050000Y-114600000D02*
X182550000Y-114600000D01*
X182550000Y-114600000D02*
X182550000Y-127400000D01*
X182550000Y-127400000D02*
X174050000Y-127400000D01*
X174050000Y-127400000D02*
X174050000Y-125900000D01*
X174050000Y-125900000D02*
X176250000Y-125900000D01*
X181050000Y-114600000D02*
X181050000Y-116100000D01*
X181050000Y-116100000D02*
X176250000Y-116100000D01*
X176250000Y-116100000D02*
X176250000Y-114600000D01*
X181050000Y-127400000D02*
X181050000Y-125900000D01*
X181050000Y-125900000D02*
X176250000Y-125900000D01*
X176250000Y-125900000D02*
X176250000Y-127400000D01*
X178200000Y-116100000D02*
X178200000Y-125900000D01*
X177200000Y-116100000D02*
X177200000Y-125900000D01*
X178200000Y-117250000D02*
X178200000Y-116930000D01*
X178200000Y-116930000D02*
X181620000Y-116930000D01*
X181620000Y-116930000D02*
X181700000Y-117250000D01*
X181700000Y-117250000D02*
X181620000Y-117570000D01*
X181620000Y-117570000D02*
X178200000Y-117570000D01*
X178200000Y-117570000D02*
X178200000Y-117250000D01*
X178200000Y-119750000D02*
X178200000Y-119430000D01*
X178200000Y-119430000D02*
X181620000Y-119430000D01*
X181620000Y-119430000D02*
X181700000Y-119750000D01*
X181700000Y-119750000D02*
X181620000Y-120070000D01*
X181620000Y-120070000D02*
X178200000Y-120070000D01*
X178200000Y-120070000D02*
X178200000Y-119750000D01*
X178200000Y-122250000D02*
X178200000Y-121930000D01*
X178200000Y-121930000D02*
X181620000Y-121930000D01*
X181620000Y-121930000D02*
X181700000Y-122250000D01*
X181700000Y-122250000D02*
X181620000Y-122570000D01*
X181620000Y-122570000D02*
X178200000Y-122570000D01*
X178200000Y-122570000D02*
X178200000Y-122250000D01*
X178200000Y-124750000D02*
X178200000Y-124430000D01*
X178200000Y-124430000D02*
X181620000Y-124430000D01*
X181620000Y-124430000D02*
X181700000Y-124750000D01*
X181700000Y-124750000D02*
X181620000Y-125070000D01*
X181620000Y-125070000D02*
X178200000Y-125070000D01*
X178200000Y-125070000D02*
X178200000Y-124750000D01*
X174200000Y-117250000D02*
X173600000Y-116950000D01*
X173600000Y-116950000D02*
X173600000Y-117550000D01*
X173600000Y-117550000D02*
X174200000Y-117250000D01*
D14*
X172250000Y-97900000D02*
X172250000Y-117900000D01*
X154250000Y-97900000D02*
X154250000Y-117900000D01*
X154250000Y-117900000D02*
G75*
G03X163250000Y-126900000I9000000J0D01*
G01*
X163250000Y-88900000D02*
G75*
G03X154250000Y-97900000I0J-9000000D01*
G01*
X172250000Y-97900000D02*
G75*
G03X163250000Y-88900000I-9000000J0D01*
G01*
X163250000Y-126900000D02*
G75*
G03X172250000Y-117900000I0J9000000D01*
G01*
X172350000Y-125900000D02*
G75*
G03X172350000Y-125900000I-1100000J0D01*
G01*
X156350000Y-125900000D02*
G75*
G03X156350000Y-125900000I-1100000J0D01*
G01*
X172350000Y-89900000D02*
G75*
G03X172350000Y-89900000I-1100000J0D01*
G01*
X156250000Y-89700000D02*
G75*
G03X156250000Y-89700000I-1000000J0D01*
G01*
X173250000Y-87900000D02*
X153250000Y-87900000D01*
X153250000Y-127900000D02*
X173250000Y-127900000D01*
X153250000Y-127900000D02*
X153250000Y-87900000D01*
X173250000Y-127900000D02*
X173250000Y-87900000D01*
X149466667Y-98254762D02*
X149609524Y-98302381D01*
X149847620Y-98302381D01*
X149942858Y-98254762D01*
X149990477Y-98207143D01*
X150038096Y-98111905D01*
X150038096Y-98016667D01*
X149990477Y-97921429D01*
X149942858Y-97873810D01*
X149847620Y-97826190D01*
X149657143Y-97778571D01*
X149561905Y-97730952D01*
X149514286Y-97683333D01*
X149466667Y-97588095D01*
X149466667Y-97492857D01*
X149514286Y-97397619D01*
X149561905Y-97350000D01*
X149657143Y-97302381D01*
X149895239Y-97302381D01*
X150038096Y-97350000D01*
X150371429Y-97302381D02*
X150609524Y-98302381D01*
X150800001Y-97588095D01*
X150990477Y-98302381D01*
X151228572Y-97302381D01*
X152085715Y-97302381D02*
X151609524Y-97302381D01*
X151561905Y-97778571D01*
X151609524Y-97730952D01*
X151704762Y-97683333D01*
X151942858Y-97683333D01*
X152038096Y-97730952D01*
X152085715Y-97778571D01*
X152133334Y-97873810D01*
X152133334Y-98111905D01*
X152085715Y-98207143D01*
X152038096Y-98254762D01*
X151942858Y-98302381D01*
X151704762Y-98302381D01*
X151609524Y-98254762D01*
X151561905Y-98207143D01*
X158388095Y-132872381D02*
X158388095Y-133681905D01*
X158435714Y-133777143D01*
X158483333Y-133824762D01*
X158578571Y-133872381D01*
X158769048Y-133872381D01*
X158864286Y-133824762D01*
X158911905Y-133777143D01*
X158959524Y-133681905D01*
X158959524Y-132872381D01*
X159959524Y-133872381D02*
X159388095Y-133872381D01*
X159673809Y-133872381D02*
X159673809Y-132872381D01*
X159578571Y-133015238D01*
X159483333Y-133110476D01*
X159388095Y-133158095D01*
X156459524Y-142262381D02*
X157030953Y-142262381D01*
X156745238Y-143262381D02*
X156745238Y-142262381D01*
X157364286Y-143262381D02*
X157364286Y-142262381D01*
X157745239Y-142262381D01*
X157840477Y-142310000D01*
X157888096Y-142357619D01*
X157935715Y-142452857D01*
X157935715Y-142595714D01*
X157888096Y-142690952D01*
X157840477Y-142738571D01*
X157745239Y-142786190D01*
X157364286Y-142786190D01*
X158792858Y-142595714D02*
X158792858Y-143262381D01*
X158554762Y-142214762D02*
X158316667Y-142929048D01*
X158935715Y-142929048D01*
X159507143Y-142262381D02*
X159602382Y-142262381D01*
X159697620Y-142310000D01*
X159745239Y-142357619D01*
X159792858Y-142452857D01*
X159840477Y-142643333D01*
X159840477Y-142881429D01*
X159792858Y-143071905D01*
X159745239Y-143167143D01*
X159697620Y-143214762D01*
X159602382Y-143262381D01*
X159507143Y-143262381D01*
X159411905Y-143214762D01*
X159364286Y-143167143D01*
X159316667Y-143071905D01*
X159269048Y-142881429D01*
X159269048Y-142643333D01*
X159316667Y-142452857D01*
X159364286Y-142357619D01*
X159411905Y-142310000D01*
X159507143Y-142262381D01*
X160745239Y-142262381D02*
X160269048Y-142262381D01*
X160221429Y-142738571D01*
X160269048Y-142690952D01*
X160364286Y-142643333D01*
X160602382Y-142643333D01*
X160697620Y-142690952D01*
X160745239Y-142738571D01*
X160792858Y-142833810D01*
X160792858Y-143071905D01*
X160745239Y-143167143D01*
X160697620Y-143214762D01*
X160602382Y-143262381D01*
X160364286Y-143262381D01*
X160269048Y-143214762D01*
X160221429Y-143167143D01*
X161650001Y-142262381D02*
X161459524Y-142262381D01*
X161364286Y-142310000D01*
X161316667Y-142357619D01*
X161221429Y-142500476D01*
X161173810Y-142690952D01*
X161173810Y-143071905D01*
X161221429Y-143167143D01*
X161269048Y-143214762D01*
X161364286Y-143262381D01*
X161554763Y-143262381D01*
X161650001Y-143214762D01*
X161697620Y-143167143D01*
X161745239Y-143071905D01*
X161745239Y-142833810D01*
X161697620Y-142738571D01*
X161650001Y-142690952D01*
X161554763Y-142643333D01*
X161364286Y-142643333D01*
X161269048Y-142690952D01*
X161221429Y-142738571D01*
X161173810Y-142833810D01*
X148930952Y-131752381D02*
X149121429Y-131752381D01*
X149216667Y-131800000D01*
X149311905Y-131895238D01*
X149359524Y-132085714D01*
X149359524Y-132419048D01*
X149311905Y-132609524D01*
X149216667Y-132704762D01*
X149121429Y-132752381D01*
X148930952Y-132752381D01*
X148835714Y-132704762D01*
X148740476Y-132609524D01*
X148692857Y-132419048D01*
X148692857Y-132085714D01*
X148740476Y-131895238D01*
X148835714Y-131800000D01*
X148930952Y-131752381D01*
X149788095Y-131752381D02*
X149788095Y-132561905D01*
X149835714Y-132657143D01*
X149883333Y-132704762D01*
X149978571Y-132752381D01*
X150169048Y-132752381D01*
X150264286Y-132704762D01*
X150311905Y-132657143D01*
X150359524Y-132561905D01*
X150359524Y-131752381D01*
X150692857Y-131752381D02*
X151264286Y-131752381D01*
X150978571Y-132752381D02*
X150978571Y-131752381D01*
X151597619Y-132371429D02*
X152359524Y-132371429D01*
X149102382Y-134628571D02*
X149245239Y-134676190D01*
X149292858Y-134723810D01*
X149340477Y-134819048D01*
X149340477Y-134961905D01*
X149292858Y-135057143D01*
X149245239Y-135104762D01*
X149150001Y-135152381D01*
X148769048Y-135152381D01*
X148769048Y-134152381D01*
X149102382Y-134152381D01*
X149197620Y-134200000D01*
X149245239Y-134247619D01*
X149292858Y-134342857D01*
X149292858Y-134438095D01*
X149245239Y-134533333D01*
X149197620Y-134580952D01*
X149102382Y-134628571D01*
X148769048Y-134628571D01*
X149769048Y-134771429D02*
X150530953Y-134771429D01*
X149102382Y-142228571D02*
X149245239Y-142276190D01*
X149292858Y-142323810D01*
X149340477Y-142419048D01*
X149340477Y-142561905D01*
X149292858Y-142657143D01*
X149245239Y-142704762D01*
X149150001Y-142752381D01*
X148769048Y-142752381D01*
X148769048Y-141752381D01*
X149102382Y-141752381D01*
X149197620Y-141800000D01*
X149245239Y-141847619D01*
X149292858Y-141942857D01*
X149292858Y-142038095D01*
X149245239Y-142133333D01*
X149197620Y-142180952D01*
X149102382Y-142228571D01*
X148769048Y-142228571D01*
X149769048Y-142371429D02*
X150530953Y-142371429D01*
X150150001Y-142752381D02*
X150150001Y-141990476D01*
X148930952Y-144352381D02*
X149121429Y-144352381D01*
X149216667Y-144400000D01*
X149311905Y-144495238D01*
X149359524Y-144685714D01*
X149359524Y-145019048D01*
X149311905Y-145209524D01*
X149216667Y-145304762D01*
X149121429Y-145352381D01*
X148930952Y-145352381D01*
X148835714Y-145304762D01*
X148740476Y-145209524D01*
X148692857Y-145019048D01*
X148692857Y-144685714D01*
X148740476Y-144495238D01*
X148835714Y-144400000D01*
X148930952Y-144352381D01*
X149788095Y-144352381D02*
X149788095Y-145161905D01*
X149835714Y-145257143D01*
X149883333Y-145304762D01*
X149978571Y-145352381D01*
X150169048Y-145352381D01*
X150264286Y-145304762D01*
X150311905Y-145257143D01*
X150359524Y-145161905D01*
X150359524Y-144352381D01*
X150692857Y-144352381D02*
X151264286Y-144352381D01*
X150978571Y-145352381D02*
X150978571Y-144352381D01*
X151597619Y-144971429D02*
X152359524Y-144971429D01*
X151978572Y-145352381D02*
X151978572Y-144590476D01*
X166907143Y-132552381D02*
X166907143Y-131552381D01*
X167383333Y-132552381D02*
X167383333Y-131552381D01*
X167954762Y-132552381D01*
X167954762Y-131552381D01*
X168430952Y-132171429D02*
X169192857Y-132171429D01*
X166807143Y-145252381D02*
X166807143Y-144252381D01*
X167283333Y-145252381D02*
X167283333Y-144252381D01*
X167854762Y-145252381D01*
X167854762Y-144252381D01*
X168330952Y-144871429D02*
X169092857Y-144871429D01*
X168711905Y-145252381D02*
X168711905Y-144490476D01*
X137402381Y-135911905D02*
X138211905Y-135911905D01*
X138307143Y-135864286D01*
X138354762Y-135816667D01*
X138402381Y-135721429D01*
X138402381Y-135530952D01*
X138354762Y-135435714D01*
X138307143Y-135388095D01*
X138211905Y-135340476D01*
X137402381Y-135340476D01*
X137497619Y-134911905D02*
X137450000Y-134864286D01*
X137402381Y-134769048D01*
X137402381Y-134530952D01*
X137450000Y-134435714D01*
X137497619Y-134388095D01*
X137592857Y-134340476D01*
X137688095Y-134340476D01*
X137830952Y-134388095D01*
X138402381Y-134959524D01*
X138402381Y-134340476D01*
X140966667Y-138940476D02*
X140966667Y-138559524D01*
X141252381Y-139016667D02*
X140252381Y-138750000D01*
X141252381Y-138483333D01*
X140252381Y-138330953D02*
X140252381Y-137873810D01*
X141252381Y-138102381D02*
X140252381Y-138102381D01*
X140252381Y-137721429D02*
X140252381Y-137264286D01*
X141252381Y-137492857D02*
X140252381Y-137492857D01*
X141252381Y-136997619D02*
X140252381Y-136997619D01*
X141252381Y-136616667D02*
X140252381Y-136616667D01*
X141252381Y-136159524D01*
X140252381Y-136159524D01*
X140776190Y-135626191D02*
X141252381Y-135626191D01*
X140252381Y-135892858D02*
X140776190Y-135626191D01*
X140252381Y-135359524D01*
X140680952Y-134978572D02*
X140633333Y-135054763D01*
X140585714Y-135092858D01*
X140490476Y-135130953D01*
X140442857Y-135130953D01*
X140347619Y-135092858D01*
X140300000Y-135054763D01*
X140252381Y-134978572D01*
X140252381Y-134826191D01*
X140300000Y-134750001D01*
X140347619Y-134711905D01*
X140442857Y-134673810D01*
X140490476Y-134673810D01*
X140585714Y-134711905D01*
X140633333Y-134750001D01*
X140680952Y-134826191D01*
X140680952Y-134978572D01*
X140728571Y-135054763D01*
X140776190Y-135092858D01*
X140871429Y-135130953D01*
X141061905Y-135130953D01*
X141157143Y-135092858D01*
X141204762Y-135054763D01*
X141252381Y-134978572D01*
X141252381Y-134826191D01*
X141204762Y-134750001D01*
X141157143Y-134711905D01*
X141061905Y-134673810D01*
X140871429Y-134673810D01*
X140776190Y-134711905D01*
X140728571Y-134750001D01*
X140680952Y-134826191D01*
X140252381Y-133950000D02*
X140252381Y-134330953D01*
X140728571Y-134369048D01*
X140680952Y-134330953D01*
X140633333Y-134254762D01*
X140633333Y-134064286D01*
X140680952Y-133988096D01*
X140728571Y-133950000D01*
X140823810Y-133911905D01*
X141061905Y-133911905D01*
X141157143Y-133950000D01*
X141204762Y-133988096D01*
X141252381Y-134064286D01*
X141252381Y-134254762D01*
X141204762Y-134330953D01*
X141157143Y-134369048D01*
X140871429Y-133569048D02*
X140871429Y-132959524D01*
X140347619Y-132616667D02*
X140300000Y-132578572D01*
X140252381Y-132502381D01*
X140252381Y-132311905D01*
X140300000Y-132235715D01*
X140347619Y-132197619D01*
X140442857Y-132159524D01*
X140538095Y-132159524D01*
X140680952Y-132197619D01*
X141252381Y-132654762D01*
X141252381Y-132159524D01*
X140252381Y-131664286D02*
X140252381Y-131588095D01*
X140300000Y-131511905D01*
X140347619Y-131473810D01*
X140442857Y-131435714D01*
X140633333Y-131397619D01*
X140871429Y-131397619D01*
X141061905Y-131435714D01*
X141157143Y-131473810D01*
X141204762Y-131511905D01*
X141252381Y-131588095D01*
X141252381Y-131664286D01*
X141204762Y-131740476D01*
X141157143Y-131778572D01*
X141061905Y-131816667D01*
X140871429Y-131854762D01*
X140633333Y-131854762D01*
X140442857Y-131816667D01*
X140347619Y-131778572D01*
X140300000Y-131740476D01*
X140252381Y-131664286D01*
X141252381Y-131054762D02*
X140252381Y-131054762D01*
X140252381Y-130750000D01*
X140300000Y-130673809D01*
X140347619Y-130635714D01*
X140442857Y-130597619D01*
X140585714Y-130597619D01*
X140680952Y-130635714D01*
X140728571Y-130673809D01*
X140776190Y-130750000D01*
X140776190Y-131054762D01*
X140252381Y-130254762D02*
X141061905Y-130254762D01*
X141157143Y-130216667D01*
X141204762Y-130178571D01*
X141252381Y-130102381D01*
X141252381Y-129950000D01*
X141204762Y-129873809D01*
X141157143Y-129835714D01*
X141061905Y-129797619D01*
X140252381Y-129797619D01*
X142740476Y-125302381D02*
X142740476Y-124302381D01*
X143073810Y-125016667D01*
X143407143Y-124302381D01*
X143407143Y-125302381D01*
X144407143Y-125302381D02*
X143835714Y-125302381D01*
X144121428Y-125302381D02*
X144121428Y-124302381D01*
X144026190Y-124445238D01*
X143930952Y-124540476D01*
X143835714Y-124588095D01*
X141264286Y-112892381D02*
X141264286Y-113606667D01*
X141216666Y-113749524D01*
X141121428Y-113844762D01*
X140978571Y-113892381D01*
X140883333Y-113892381D01*
X142407143Y-113987619D02*
X142311905Y-113940000D01*
X142216667Y-113844762D01*
X142073810Y-113701905D01*
X141978571Y-113654286D01*
X141883333Y-113654286D01*
X141930952Y-113892381D02*
X141835714Y-113844762D01*
X141740476Y-113749524D01*
X141692857Y-113559048D01*
X141692857Y-113225714D01*
X141740476Y-113035238D01*
X141835714Y-112940000D01*
X141930952Y-112892381D01*
X142121429Y-112892381D01*
X142216667Y-112940000D01*
X142311905Y-113035238D01*
X142359524Y-113225714D01*
X142359524Y-113559048D01*
X142311905Y-113749524D01*
X142216667Y-113844762D01*
X142121429Y-113892381D01*
X141930952Y-113892381D01*
X143216667Y-112892381D02*
X143026190Y-112892381D01*
X142930952Y-112940000D01*
X142883333Y-112987619D01*
X142788095Y-113130476D01*
X142740476Y-113320952D01*
X142740476Y-113701905D01*
X142788095Y-113797143D01*
X142835714Y-113844762D01*
X142930952Y-113892381D01*
X143121429Y-113892381D01*
X143216667Y-113844762D01*
X143264286Y-113797143D01*
X143311905Y-113701905D01*
X143311905Y-113463810D01*
X143264286Y-113368571D01*
X143216667Y-113320952D01*
X143121429Y-113273333D01*
X142930952Y-113273333D01*
X142835714Y-113320952D01*
X142788095Y-113368571D01*
X142740476Y-113463810D01*
X144216667Y-112892381D02*
X143740476Y-112892381D01*
X143692857Y-113368571D01*
X143740476Y-113320952D01*
X143835714Y-113273333D01*
X144073810Y-113273333D01*
X144169048Y-113320952D01*
X144216667Y-113368571D01*
X144264286Y-113463810D01*
X144264286Y-113701905D01*
X144216667Y-113797143D01*
X144169048Y-113844762D01*
X144073810Y-113892381D01*
X143835714Y-113892381D01*
X143740476Y-113844762D01*
X143692857Y-113797143D01*
X144883333Y-112892381D02*
X144978572Y-112892381D01*
X145073810Y-112940000D01*
X145121429Y-112987619D01*
X145169048Y-113082857D01*
X145216667Y-113273333D01*
X145216667Y-113511429D01*
X145169048Y-113701905D01*
X145121429Y-113797143D01*
X145073810Y-113844762D01*
X144978572Y-113892381D01*
X144883333Y-113892381D01*
X144788095Y-113844762D01*
X144740476Y-113797143D01*
X144692857Y-113701905D01*
X144645238Y-113511429D01*
X144645238Y-113273333D01*
X144692857Y-113082857D01*
X144740476Y-112987619D01*
X144788095Y-112940000D01*
X144883333Y-112892381D01*
X145835714Y-112892381D02*
X145930953Y-112892381D01*
X146026191Y-112940000D01*
X146073810Y-112987619D01*
X146121429Y-113082857D01*
X146169048Y-113273333D01*
X146169048Y-113511429D01*
X146121429Y-113701905D01*
X146073810Y-113797143D01*
X146026191Y-113844762D01*
X145930953Y-113892381D01*
X145835714Y-113892381D01*
X145740476Y-113844762D01*
X145692857Y-113797143D01*
X145645238Y-113701905D01*
X145597619Y-113511429D01*
X145597619Y-113273333D01*
X145645238Y-113082857D01*
X145692857Y-112987619D01*
X145740476Y-112940000D01*
X145835714Y-112892381D01*
X139875238Y-104221905D02*
X139875238Y-103421905D01*
X140065714Y-103421905D01*
X140180000Y-103460000D01*
X140256191Y-103536190D01*
X140294286Y-103612381D01*
X140332381Y-103764762D01*
X140332381Y-103879048D01*
X140294286Y-104031429D01*
X140256191Y-104107619D01*
X140180000Y-104183810D01*
X140065714Y-104221905D01*
X139875238Y-104221905D01*
X140675238Y-103917143D02*
X141284762Y-103917143D01*
X140980000Y-104221905D02*
X140980000Y-103612381D01*
X145845238Y-104351905D02*
X145845238Y-103551905D01*
X146035714Y-103551905D01*
X146150000Y-103590000D01*
X146226191Y-103666190D01*
X146264286Y-103742381D01*
X146302381Y-103894762D01*
X146302381Y-104009048D01*
X146264286Y-104161429D01*
X146226191Y-104237619D01*
X146150000Y-104313810D01*
X146035714Y-104351905D01*
X145845238Y-104351905D01*
X146645238Y-104047143D02*
X147254762Y-104047143D01*
X142288095Y-107902381D02*
X142288095Y-108711905D01*
X142335714Y-108807143D01*
X142383333Y-108854762D01*
X142478571Y-108902381D01*
X142669048Y-108902381D01*
X142764286Y-108854762D01*
X142811905Y-108807143D01*
X142859524Y-108711905D01*
X142859524Y-107902381D01*
X143288095Y-108854762D02*
X143430952Y-108902381D01*
X143669048Y-108902381D01*
X143764286Y-108854762D01*
X143811905Y-108807143D01*
X143859524Y-108711905D01*
X143859524Y-108616667D01*
X143811905Y-108521429D01*
X143764286Y-108473810D01*
X143669048Y-108426190D01*
X143478571Y-108378571D01*
X143383333Y-108330952D01*
X143335714Y-108283333D01*
X143288095Y-108188095D01*
X143288095Y-108092857D01*
X143335714Y-107997619D01*
X143383333Y-107950000D01*
X143478571Y-107902381D01*
X143716667Y-107902381D01*
X143859524Y-107950000D01*
X144621429Y-108378571D02*
X144764286Y-108426190D01*
X144811905Y-108473810D01*
X144859524Y-108569048D01*
X144859524Y-108711905D01*
X144811905Y-108807143D01*
X144764286Y-108854762D01*
X144669048Y-108902381D01*
X144288095Y-108902381D01*
X144288095Y-107902381D01*
X144621429Y-107902381D01*
X144716667Y-107950000D01*
X144764286Y-107997619D01*
X144811905Y-108092857D01*
X144811905Y-108188095D01*
X144764286Y-108283333D01*
X144716667Y-108330952D01*
X144621429Y-108378571D01*
X144288095Y-108378571D01*
X136516667Y-96154762D02*
X136659524Y-96202381D01*
X136897620Y-96202381D01*
X136992858Y-96154762D01*
X137040477Y-96107143D01*
X137088096Y-96011905D01*
X137088096Y-95916667D01*
X137040477Y-95821429D01*
X136992858Y-95773810D01*
X136897620Y-95726190D01*
X136707143Y-95678571D01*
X136611905Y-95630952D01*
X136564286Y-95583333D01*
X136516667Y-95488095D01*
X136516667Y-95392857D01*
X136564286Y-95297619D01*
X136611905Y-95250000D01*
X136707143Y-95202381D01*
X136945239Y-95202381D01*
X137088096Y-95250000D01*
X137421429Y-95202381D02*
X137659524Y-96202381D01*
X137850001Y-95488095D01*
X138040477Y-96202381D01*
X138278572Y-95202381D01*
X139183334Y-96202381D02*
X138611905Y-96202381D01*
X138897619Y-96202381D02*
X138897619Y-95202381D01*
X138802381Y-95345238D01*
X138707143Y-95440476D01*
X138611905Y-95488095D01*
X176866667Y-96154762D02*
X177009524Y-96202381D01*
X177247620Y-96202381D01*
X177342858Y-96154762D01*
X177390477Y-96107143D01*
X177438096Y-96011905D01*
X177438096Y-95916667D01*
X177390477Y-95821429D01*
X177342858Y-95773810D01*
X177247620Y-95726190D01*
X177057143Y-95678571D01*
X176961905Y-95630952D01*
X176914286Y-95583333D01*
X176866667Y-95488095D01*
X176866667Y-95392857D01*
X176914286Y-95297619D01*
X176961905Y-95250000D01*
X177057143Y-95202381D01*
X177295239Y-95202381D01*
X177438096Y-95250000D01*
X177771429Y-95202381D02*
X178009524Y-96202381D01*
X178200001Y-95488095D01*
X178390477Y-96202381D01*
X178628572Y-95202381D01*
X178961905Y-95297619D02*
X179009524Y-95250000D01*
X179104762Y-95202381D01*
X179342858Y-95202381D01*
X179438096Y-95250000D01*
X179485715Y-95297619D01*
X179533334Y-95392857D01*
X179533334Y-95488095D01*
X179485715Y-95630952D01*
X178914286Y-96202381D01*
X179533334Y-96202381D01*
X176866667Y-139754762D02*
X177009524Y-139802381D01*
X177247620Y-139802381D01*
X177342858Y-139754762D01*
X177390477Y-139707143D01*
X177438096Y-139611905D01*
X177438096Y-139516667D01*
X177390477Y-139421429D01*
X177342858Y-139373810D01*
X177247620Y-139326190D01*
X177057143Y-139278571D01*
X176961905Y-139230952D01*
X176914286Y-139183333D01*
X176866667Y-139088095D01*
X176866667Y-138992857D01*
X176914286Y-138897619D01*
X176961905Y-138850000D01*
X177057143Y-138802381D01*
X177295239Y-138802381D01*
X177438096Y-138850000D01*
X177771429Y-138802381D02*
X178009524Y-139802381D01*
X178200001Y-139088095D01*
X178390477Y-139802381D01*
X178628572Y-138802381D01*
X178914286Y-138802381D02*
X179533334Y-138802381D01*
X179200000Y-139183333D01*
X179342858Y-139183333D01*
X179438096Y-139230952D01*
X179485715Y-139278571D01*
X179533334Y-139373810D01*
X179533334Y-139611905D01*
X179485715Y-139707143D01*
X179438096Y-139754762D01*
X179342858Y-139802381D01*
X179057143Y-139802381D01*
X178961905Y-139754762D01*
X178914286Y-139707143D01*
X143954762Y-145183333D02*
X144002381Y-145040476D01*
X144002381Y-144802380D01*
X143954762Y-144707142D01*
X143907143Y-144659523D01*
X143811905Y-144611904D01*
X143716667Y-144611904D01*
X143621429Y-144659523D01*
X143573810Y-144707142D01*
X143526190Y-144802380D01*
X143478571Y-144992857D01*
X143430952Y-145088095D01*
X143383333Y-145135714D01*
X143288095Y-145183333D01*
X143192857Y-145183333D01*
X143097619Y-145135714D01*
X143050000Y-145088095D01*
X143002381Y-144992857D01*
X143002381Y-144754761D01*
X143050000Y-144611904D01*
X143002381Y-144278571D02*
X144002381Y-144040476D01*
X143288095Y-143849999D01*
X144002381Y-143659523D01*
X143002381Y-143421428D01*
X143335714Y-142611904D02*
X144002381Y-142611904D01*
X142954762Y-142850000D02*
X143669048Y-143088095D01*
X143669048Y-142469047D01*
X179716667Y-105514286D02*
X179716667Y-105038095D01*
X180002381Y-105609524D02*
X179002381Y-105276191D01*
X180002381Y-104942857D01*
X180002381Y-104085714D02*
X180002381Y-104657143D01*
X180002381Y-104371429D02*
X179002381Y-104371429D01*
X179145238Y-104466667D01*
X179240476Y-104561905D01*
X179288095Y-104657143D01*
X178802381Y-121283333D02*
X179516667Y-121283333D01*
X179659524Y-121330953D01*
X179754762Y-121426191D01*
X179802381Y-121569048D01*
X179802381Y-121664286D01*
X179802381Y-120283333D02*
X179802381Y-120854762D01*
X179802381Y-120569048D02*
X178802381Y-120569048D01*
X178945238Y-120664286D01*
X179040476Y-120759524D01*
X179088095Y-120854762D01*
X162607143Y-109252381D02*
X162130952Y-109252381D01*
X162130952Y-108252381D01*
X162892857Y-109204762D02*
X163035714Y-109252381D01*
X163273810Y-109252381D01*
X163369048Y-109204762D01*
X163416667Y-109157143D01*
X163464286Y-109061905D01*
X163464286Y-108966667D01*
X163416667Y-108871429D01*
X163369048Y-108823810D01*
X163273810Y-108776190D01*
X163083333Y-108728571D01*
X162988095Y-108680952D01*
X162940476Y-108633333D01*
X162892857Y-108538095D01*
X162892857Y-108442857D01*
X162940476Y-108347619D01*
X162988095Y-108300000D01*
X163083333Y-108252381D01*
X163321429Y-108252381D01*
X163464286Y-108300000D01*
X164416667Y-109252381D02*
X163845238Y-109252381D01*
X164130952Y-109252381D02*
X164130952Y-108252381D01*
X164035714Y-108395238D01*
X163940476Y-108490476D01*
X163845238Y-108538095D01*
M02*
