M48
;DRILL file {KiCad 4.0.6+dfsg1-1} date Fri Mar 16 22:59:57 2018
;FORMAT={-:-/ absolute / metric / decimal}
FMAT,2
METRIC,TZ
T1C0.762
T2C0.800
T3C1.000
T4C1.100
%
G90
G05
M71
T1
X142.25Y-99.986
X144.65Y-99.986
X157.25Y-122.7
X169.25Y-122.7
T2
X135.33Y-130.63
X135.33Y-133.17
X135.33Y-135.71
X135.33Y-138.25
X142.95Y-130.63
X142.95Y-133.17
X142.95Y-135.71
X142.95Y-138.25
X147.72Y-131.947
X147.72Y-134.69
X147.72Y-142.31
X147.72Y-145.053
X170.58Y-131.744
X170.58Y-145.256
T3
X135.83Y-108.76
X135.83Y-111.3
X135.83Y-113.84
X135.83Y-116.38
X135.83Y-118.92
X135.83Y-121.46
X135.83Y-124.
X135.83Y-126.54
X151.07Y-108.76
X151.07Y-111.3
X151.07Y-113.84
X151.07Y-116.38
X151.07Y-118.92
X151.07Y-121.46
X151.07Y-124.
X151.07Y-126.54
X180.6Y-101.9
X180.6Y-104.44
X180.6Y-106.98
X180.6Y-109.52
X180.6Y-112.06
X180.6Y-114.6
X180.6Y-117.14
X180.6Y-119.68
T4
X134.7Y-89.
X134.7Y-93.5
X134.7Y-141.5
X134.7Y-146.
X141.2Y-89.
X141.2Y-93.5
X141.2Y-141.5
X141.2Y-146.
X175.2Y-89.
X175.2Y-93.5
X175.2Y-141.5
X175.2Y-146.
X181.7Y-89.
X181.7Y-93.5
X181.7Y-141.5
X181.7Y-146.
T0
M30
