G04 #@! TF.FileFunction,Legend,Bot*
%FSLAX46Y46*%
G04 Gerber Fmt 4.6, Leading zero omitted, Abs format (unit mm)*
G04 Created by KiCad (PCBNEW 4.0.6+dfsg1-1) date Mon Feb 19 16:16:26 2018*
%MOMM*%
%LPD*%
G01*
G04 APERTURE LIST*
%ADD10C,0.100000*%
%ADD11C,0.300000*%
%ADD12C,0.010000*%
G04 APERTURE END LIST*
D10*
D11*
X167941964Y-127103571D02*
X167754464Y-125603571D01*
X167084821Y-127103571D01*
X166897321Y-125603571D01*
X165897321Y-125603571D02*
X165611607Y-125603571D01*
X165477678Y-125675000D01*
X165352678Y-125817857D01*
X165316964Y-126103571D01*
X165379464Y-126603571D01*
X165486607Y-126889286D01*
X165647321Y-127032143D01*
X165799107Y-127103571D01*
X166084821Y-127103571D01*
X166218750Y-127032143D01*
X166343750Y-126889286D01*
X166379464Y-126603571D01*
X166316964Y-126103571D01*
X166209821Y-125817857D01*
X166049107Y-125675000D01*
X165897321Y-125603571D01*
X164799106Y-127103571D02*
X164611606Y-125603571D01*
X163941963Y-127103571D02*
X164477678Y-126246429D01*
X163754463Y-125603571D02*
X164718749Y-126460714D01*
X162825892Y-125603571D02*
X162540178Y-125603571D01*
X162406249Y-125675000D01*
X162281249Y-125817857D01*
X162245535Y-126103571D01*
X162308035Y-126603571D01*
X162415178Y-126889286D01*
X162575892Y-127032143D01*
X162727678Y-127103571D01*
X163013392Y-127103571D01*
X163147321Y-127032143D01*
X163272321Y-126889286D01*
X163308035Y-126603571D01*
X163245535Y-126103571D01*
X163138392Y-125817857D01*
X162977678Y-125675000D01*
X162825892Y-125603571D01*
X161513391Y-127103571D02*
X161647321Y-127032143D01*
X161700892Y-126889286D01*
X161540177Y-125603571D01*
X160941963Y-127103571D02*
X160816963Y-126103571D01*
X160754463Y-125603571D02*
X160834821Y-125675000D01*
X160772321Y-125746429D01*
X160691964Y-125675000D01*
X160754463Y-125603571D01*
X160772321Y-125746429D01*
X160102677Y-126103571D02*
X160227677Y-127103571D01*
X160120535Y-126246429D02*
X160040178Y-126175000D01*
X159888391Y-126103571D01*
X159674106Y-126103571D01*
X159540178Y-126175000D01*
X159486606Y-126317857D01*
X159584820Y-127103571D01*
X158656248Y-127103571D02*
X158790178Y-127032143D01*
X158852677Y-126960714D01*
X158906249Y-126817857D01*
X158852678Y-126389286D01*
X158763392Y-126246429D01*
X158683035Y-126175000D01*
X158531248Y-126103571D01*
X158316963Y-126103571D01*
X158183035Y-126175000D01*
X158120535Y-126246429D01*
X158066963Y-126389286D01*
X158120534Y-126817857D01*
X158209820Y-126960714D01*
X158290178Y-127032143D01*
X158441963Y-127103571D01*
X158656248Y-127103571D01*
X172334821Y-129653571D02*
X172147321Y-128153571D01*
X172218750Y-128725000D02*
X172066964Y-128653571D01*
X171781250Y-128653571D01*
X171647322Y-128725000D01*
X171584822Y-128796429D01*
X171531250Y-128939286D01*
X171584821Y-129367857D01*
X171674107Y-129510714D01*
X171754465Y-129582143D01*
X171906250Y-129653571D01*
X172191964Y-129653571D01*
X172325893Y-129582143D01*
X170995535Y-128653571D02*
X170763392Y-129653571D01*
X170281250Y-128653571D02*
X170763392Y-129653571D01*
X170950893Y-130010714D01*
X171031250Y-130082143D01*
X171183035Y-130153571D01*
X168691964Y-129653571D02*
X168504464Y-128153571D01*
X167834821Y-129653571D01*
X167647321Y-128153571D01*
X167120535Y-129653571D02*
X166995535Y-128653571D01*
X166933035Y-128153571D02*
X167013393Y-128225000D01*
X166950893Y-128296429D01*
X166870536Y-128225000D01*
X166933035Y-128153571D01*
X166950893Y-128296429D01*
X166406249Y-129653571D02*
X166218749Y-128153571D01*
X166191964Y-129082143D02*
X165834821Y-129653571D01*
X165709821Y-128653571D02*
X166352678Y-129225000D01*
X164977677Y-129653571D02*
X165111607Y-129582143D01*
X165174106Y-129510714D01*
X165227678Y-129367857D01*
X165174107Y-128939286D01*
X165084821Y-128796429D01*
X165004464Y-128725000D01*
X164852677Y-128653571D01*
X164638392Y-128653571D01*
X164504464Y-128725000D01*
X164441964Y-128796429D01*
X164388392Y-128939286D01*
X164441963Y-129367857D01*
X164531249Y-129510714D01*
X164611607Y-129582143D01*
X164763392Y-129653571D01*
X164977677Y-129653571D01*
X163620534Y-129653571D02*
X163754464Y-129582143D01*
X163808035Y-129439286D01*
X163647320Y-128153571D01*
X162406249Y-129653571D02*
X162308035Y-128867857D01*
X162361607Y-128725000D01*
X162495535Y-128653571D01*
X162781249Y-128653571D01*
X162933035Y-128725000D01*
X162397321Y-129582143D02*
X162549106Y-129653571D01*
X162906249Y-129653571D01*
X163040178Y-129582143D01*
X163093750Y-129439286D01*
X163075893Y-129296429D01*
X162986606Y-129153571D01*
X162834821Y-129082143D01*
X162477678Y-129082143D01*
X162325892Y-129010714D01*
X161691963Y-129653571D02*
X161566963Y-128653571D01*
X161504463Y-128153571D02*
X161584821Y-128225000D01*
X161522321Y-128296429D01*
X161441964Y-128225000D01*
X161504463Y-128153571D01*
X161522321Y-128296429D01*
X158977677Y-129653571D02*
X159388392Y-128939286D01*
X159834820Y-129653571D02*
X159647320Y-128153571D01*
X159075892Y-128153571D01*
X158941963Y-128225000D01*
X158879464Y-128296429D01*
X158825892Y-128439286D01*
X158852677Y-128653571D01*
X158941964Y-128796429D01*
X159022320Y-128867857D01*
X159174107Y-128939286D01*
X159745535Y-128939286D01*
X157691963Y-129653571D02*
X157593749Y-128867857D01*
X157647321Y-128725000D01*
X157781249Y-128653571D01*
X158066963Y-128653571D01*
X158218749Y-128725000D01*
X157683035Y-129582143D02*
X157834820Y-129653571D01*
X158191963Y-129653571D01*
X158325892Y-129582143D01*
X158379464Y-129439286D01*
X158361607Y-129296429D01*
X158272320Y-129153571D01*
X158120535Y-129082143D01*
X157763392Y-129082143D01*
X157611606Y-129010714D01*
X156334820Y-129653571D02*
X156147320Y-128153571D01*
X156325892Y-129582143D02*
X156477677Y-129653571D01*
X156763391Y-129653571D01*
X156897321Y-129582143D01*
X156959820Y-129510714D01*
X157013392Y-129367857D01*
X156959821Y-128939286D01*
X156870535Y-128796429D01*
X156790178Y-128725000D01*
X156638391Y-128653571D01*
X156352677Y-128653571D01*
X156218749Y-128725000D01*
X155620534Y-129653571D02*
X155433034Y-128153571D01*
X155406249Y-129082143D02*
X155049106Y-129653571D01*
X154924106Y-128653571D02*
X155566963Y-129225000D01*
X153825892Y-129582143D02*
X153977677Y-129653571D01*
X154263391Y-129653571D01*
X154397320Y-129582143D01*
X154450892Y-129439286D01*
X154379463Y-128867857D01*
X154290177Y-128725000D01*
X154138391Y-128653571D01*
X153852677Y-128653571D01*
X153718749Y-128725000D01*
X153665177Y-128867857D01*
X153683034Y-129010714D01*
X154415177Y-129153571D01*
D12*
G36*
X168481860Y-89813148D02*
X167999074Y-90273323D01*
X167467834Y-90962873D01*
X166998515Y-91748432D01*
X166839436Y-92091666D01*
X166473347Y-92717596D01*
X166076186Y-92837213D01*
X166019827Y-92818907D01*
X164919203Y-92542514D01*
X163459045Y-92372170D01*
X161834807Y-92311033D01*
X160241941Y-92362258D01*
X158875902Y-92529004D01*
X158224983Y-92693006D01*
X157786554Y-92832963D01*
X157471294Y-92836738D01*
X157178195Y-92622806D01*
X156806247Y-92109641D01*
X156254441Y-91215719D01*
X156119377Y-90993551D01*
X155519199Y-90193325D01*
X155005632Y-89872534D01*
X154624124Y-90052955D01*
X154532302Y-90233040D01*
X154426357Y-90690367D01*
X154287507Y-91527316D01*
X154145983Y-92561374D01*
X153943048Y-93790353D01*
X153661309Y-95002799D01*
X153415863Y-95783333D01*
X153089447Y-97072603D01*
X152916078Y-98795931D01*
X152893817Y-99526160D01*
X152860000Y-101998987D01*
X151780447Y-100866716D01*
X150959820Y-100141575D01*
X150266906Y-99781602D01*
X149780606Y-99809698D01*
X149581007Y-100228333D01*
X149678857Y-101617049D01*
X150086822Y-103207416D01*
X150729174Y-104789114D01*
X151530183Y-106151820D01*
X151866198Y-106575062D01*
X152644121Y-107606909D01*
X152979226Y-108456800D01*
X153001112Y-108719856D01*
X153087960Y-109685384D01*
X153323962Y-111016815D01*
X153672305Y-112576632D01*
X154096177Y-114227319D01*
X154558766Y-115831359D01*
X155023257Y-117251235D01*
X155452840Y-118349432D01*
X155714253Y-118855000D01*
X156325178Y-119385911D01*
X157076862Y-119434876D01*
X157825655Y-119007505D01*
X158046828Y-118763928D01*
X158439424Y-118136787D01*
X158924472Y-117184102D01*
X159398398Y-116109640D01*
X159407867Y-116086295D01*
X160197778Y-114134733D01*
X161846978Y-114131255D01*
X162794602Y-114155554D01*
X163322599Y-114264056D01*
X163574478Y-114502546D01*
X163647288Y-114705628D01*
X163927578Y-115508118D01*
X164372189Y-116503095D01*
X164902123Y-117542669D01*
X165438381Y-118478951D01*
X165901965Y-119164052D01*
X166173777Y-119435363D01*
X166849524Y-119561452D01*
X167276346Y-119483333D01*
X167776189Y-119024223D01*
X168298008Y-118031867D01*
X168504702Y-117503411D01*
X168862103Y-116432639D01*
X169262712Y-115087943D01*
X169673879Y-113597438D01*
X170062952Y-112089238D01*
X170397281Y-110691458D01*
X170644215Y-109532213D01*
X170771103Y-108739617D01*
X170781112Y-108571278D01*
X170955339Y-107965840D01*
X171402226Y-107167088D01*
X171780759Y-106652835D01*
X172749621Y-105143635D01*
X173493250Y-103347731D01*
X173908134Y-101529584D01*
X173947415Y-101117348D01*
X173912504Y-100530377D01*
X173558507Y-100530377D01*
X173515940Y-101148633D01*
X173295375Y-102039347D01*
X172937733Y-103088206D01*
X172483934Y-104180899D01*
X171974899Y-105203115D01*
X171451548Y-106040541D01*
X171225787Y-106322696D01*
X170449099Y-107473702D01*
X170109741Y-108707220D01*
X169890494Y-109986448D01*
X169542263Y-111607621D01*
X169113532Y-113376865D01*
X168652789Y-115100304D01*
X168208516Y-116584064D01*
X167958216Y-117310350D01*
X167475650Y-118370168D01*
X167005824Y-118872569D01*
X166511331Y-118822346D01*
X165954764Y-118224295D01*
X165581333Y-117615007D01*
X165026517Y-116515183D01*
X164506267Y-115315367D01*
X164358304Y-114923285D01*
X163867755Y-113542111D01*
X161778067Y-113623278D01*
X159688379Y-113704444D01*
X159308371Y-114804606D01*
X158638740Y-116528194D01*
X157984487Y-117801252D01*
X157366151Y-118600487D01*
X156804272Y-118902610D01*
X156319389Y-118684328D01*
X156130676Y-118408048D01*
X155817879Y-117667267D01*
X155428138Y-116516718D01*
X155000361Y-115099058D01*
X154573459Y-113556947D01*
X154186342Y-112033041D01*
X153877921Y-110669999D01*
X153687106Y-109610480D01*
X153654624Y-109330000D01*
X153520666Y-108241149D01*
X153293842Y-107496426D01*
X152888684Y-106875559D01*
X152559534Y-106507778D01*
X151585492Y-105177188D01*
X150800495Y-103522916D01*
X150311612Y-101779737D01*
X150262944Y-101471877D01*
X150194557Y-100770594D01*
X150268743Y-100444141D01*
X150540957Y-100506138D01*
X151066656Y-100970209D01*
X151901296Y-101849976D01*
X151930337Y-101881469D01*
X152578329Y-102542959D01*
X153092083Y-102992701D01*
X153319278Y-103121111D01*
X153418393Y-102857948D01*
X153498443Y-102144517D01*
X153550349Y-101094909D01*
X153565556Y-100027115D01*
X153592298Y-98432796D01*
X153685621Y-97243419D01*
X153865173Y-96301439D01*
X154130000Y-95501111D01*
X154461576Y-94461549D01*
X154666566Y-93437530D01*
X154698299Y-93021219D01*
X154761579Y-91971534D01*
X154923125Y-91214461D01*
X155153298Y-90856737D01*
X155296342Y-90867591D01*
X155558373Y-91191573D01*
X155958335Y-91855149D01*
X156250685Y-92404596D01*
X156949526Y-93783691D01*
X158115246Y-93372401D01*
X159115691Y-93144945D01*
X160452009Y-93007977D01*
X161944777Y-92961723D01*
X163414574Y-93006410D01*
X164681978Y-93142264D01*
X165552280Y-93363030D01*
X166128429Y-93574785D01*
X166534135Y-93573060D01*
X166882029Y-93278444D01*
X167284744Y-92611525D01*
X167662202Y-91875429D01*
X168051884Y-91206473D01*
X168364825Y-90851734D01*
X168472466Y-90839984D01*
X168608909Y-91195203D01*
X168788902Y-91952079D01*
X168975596Y-92953579D01*
X168992150Y-93054555D01*
X169232755Y-94354674D01*
X169527829Y-95694608D01*
X169768261Y-96620949D01*
X170003121Y-97765953D01*
X170162011Y-99218119D01*
X170216667Y-100642615D01*
X170230334Y-101746315D01*
X170266882Y-102597104D01*
X170319636Y-103067495D01*
X170346469Y-103121111D01*
X170589450Y-102930738D01*
X171103435Y-102431008D01*
X171778411Y-101729005D01*
X171796200Y-101710000D01*
X172495626Y-101001018D01*
X173064618Y-100494382D01*
X173380882Y-100298904D01*
X173382155Y-100298889D01*
X173558507Y-100530377D01*
X173912504Y-100530377D01*
X173892919Y-100201112D01*
X173580149Y-99785647D01*
X173012366Y-99871527D01*
X172192833Y-100459327D01*
X171878708Y-100752778D01*
X170781112Y-101824553D01*
X170760140Y-99862276D01*
X170725515Y-98475751D01*
X170634478Y-97425078D01*
X170454007Y-96482150D01*
X170151081Y-95418859D01*
X170087949Y-95218889D01*
X169832418Y-94267413D01*
X169564356Y-93036975D01*
X169360234Y-91903694D01*
X169173370Y-90889808D01*
X168980714Y-90114166D01*
X168820694Y-89728416D01*
X168805814Y-89715715D01*
X168481860Y-89813148D01*
X168481860Y-89813148D01*
G37*
X168481860Y-89813148D02*
X167999074Y-90273323D01*
X167467834Y-90962873D01*
X166998515Y-91748432D01*
X166839436Y-92091666D01*
X166473347Y-92717596D01*
X166076186Y-92837213D01*
X166019827Y-92818907D01*
X164919203Y-92542514D01*
X163459045Y-92372170D01*
X161834807Y-92311033D01*
X160241941Y-92362258D01*
X158875902Y-92529004D01*
X158224983Y-92693006D01*
X157786554Y-92832963D01*
X157471294Y-92836738D01*
X157178195Y-92622806D01*
X156806247Y-92109641D01*
X156254441Y-91215719D01*
X156119377Y-90993551D01*
X155519199Y-90193325D01*
X155005632Y-89872534D01*
X154624124Y-90052955D01*
X154532302Y-90233040D01*
X154426357Y-90690367D01*
X154287507Y-91527316D01*
X154145983Y-92561374D01*
X153943048Y-93790353D01*
X153661309Y-95002799D01*
X153415863Y-95783333D01*
X153089447Y-97072603D01*
X152916078Y-98795931D01*
X152893817Y-99526160D01*
X152860000Y-101998987D01*
X151780447Y-100866716D01*
X150959820Y-100141575D01*
X150266906Y-99781602D01*
X149780606Y-99809698D01*
X149581007Y-100228333D01*
X149678857Y-101617049D01*
X150086822Y-103207416D01*
X150729174Y-104789114D01*
X151530183Y-106151820D01*
X151866198Y-106575062D01*
X152644121Y-107606909D01*
X152979226Y-108456800D01*
X153001112Y-108719856D01*
X153087960Y-109685384D01*
X153323962Y-111016815D01*
X153672305Y-112576632D01*
X154096177Y-114227319D01*
X154558766Y-115831359D01*
X155023257Y-117251235D01*
X155452840Y-118349432D01*
X155714253Y-118855000D01*
X156325178Y-119385911D01*
X157076862Y-119434876D01*
X157825655Y-119007505D01*
X158046828Y-118763928D01*
X158439424Y-118136787D01*
X158924472Y-117184102D01*
X159398398Y-116109640D01*
X159407867Y-116086295D01*
X160197778Y-114134733D01*
X161846978Y-114131255D01*
X162794602Y-114155554D01*
X163322599Y-114264056D01*
X163574478Y-114502546D01*
X163647288Y-114705628D01*
X163927578Y-115508118D01*
X164372189Y-116503095D01*
X164902123Y-117542669D01*
X165438381Y-118478951D01*
X165901965Y-119164052D01*
X166173777Y-119435363D01*
X166849524Y-119561452D01*
X167276346Y-119483333D01*
X167776189Y-119024223D01*
X168298008Y-118031867D01*
X168504702Y-117503411D01*
X168862103Y-116432639D01*
X169262712Y-115087943D01*
X169673879Y-113597438D01*
X170062952Y-112089238D01*
X170397281Y-110691458D01*
X170644215Y-109532213D01*
X170771103Y-108739617D01*
X170781112Y-108571278D01*
X170955339Y-107965840D01*
X171402226Y-107167088D01*
X171780759Y-106652835D01*
X172749621Y-105143635D01*
X173493250Y-103347731D01*
X173908134Y-101529584D01*
X173947415Y-101117348D01*
X173912504Y-100530377D01*
X173558507Y-100530377D01*
X173515940Y-101148633D01*
X173295375Y-102039347D01*
X172937733Y-103088206D01*
X172483934Y-104180899D01*
X171974899Y-105203115D01*
X171451548Y-106040541D01*
X171225787Y-106322696D01*
X170449099Y-107473702D01*
X170109741Y-108707220D01*
X169890494Y-109986448D01*
X169542263Y-111607621D01*
X169113532Y-113376865D01*
X168652789Y-115100304D01*
X168208516Y-116584064D01*
X167958216Y-117310350D01*
X167475650Y-118370168D01*
X167005824Y-118872569D01*
X166511331Y-118822346D01*
X165954764Y-118224295D01*
X165581333Y-117615007D01*
X165026517Y-116515183D01*
X164506267Y-115315367D01*
X164358304Y-114923285D01*
X163867755Y-113542111D01*
X161778067Y-113623278D01*
X159688379Y-113704444D01*
X159308371Y-114804606D01*
X158638740Y-116528194D01*
X157984487Y-117801252D01*
X157366151Y-118600487D01*
X156804272Y-118902610D01*
X156319389Y-118684328D01*
X156130676Y-118408048D01*
X155817879Y-117667267D01*
X155428138Y-116516718D01*
X155000361Y-115099058D01*
X154573459Y-113556947D01*
X154186342Y-112033041D01*
X153877921Y-110669999D01*
X153687106Y-109610480D01*
X153654624Y-109330000D01*
X153520666Y-108241149D01*
X153293842Y-107496426D01*
X152888684Y-106875559D01*
X152559534Y-106507778D01*
X151585492Y-105177188D01*
X150800495Y-103522916D01*
X150311612Y-101779737D01*
X150262944Y-101471877D01*
X150194557Y-100770594D01*
X150268743Y-100444141D01*
X150540957Y-100506138D01*
X151066656Y-100970209D01*
X151901296Y-101849976D01*
X151930337Y-101881469D01*
X152578329Y-102542959D01*
X153092083Y-102992701D01*
X153319278Y-103121111D01*
X153418393Y-102857948D01*
X153498443Y-102144517D01*
X153550349Y-101094909D01*
X153565556Y-100027115D01*
X153592298Y-98432796D01*
X153685621Y-97243419D01*
X153865173Y-96301439D01*
X154130000Y-95501111D01*
X154461576Y-94461549D01*
X154666566Y-93437530D01*
X154698299Y-93021219D01*
X154761579Y-91971534D01*
X154923125Y-91214461D01*
X155153298Y-90856737D01*
X155296342Y-90867591D01*
X155558373Y-91191573D01*
X155958335Y-91855149D01*
X156250685Y-92404596D01*
X156949526Y-93783691D01*
X158115246Y-93372401D01*
X159115691Y-93144945D01*
X160452009Y-93007977D01*
X161944777Y-92961723D01*
X163414574Y-93006410D01*
X164681978Y-93142264D01*
X165552280Y-93363030D01*
X166128429Y-93574785D01*
X166534135Y-93573060D01*
X166882029Y-93278444D01*
X167284744Y-92611525D01*
X167662202Y-91875429D01*
X168051884Y-91206473D01*
X168364825Y-90851734D01*
X168472466Y-90839984D01*
X168608909Y-91195203D01*
X168788902Y-91952079D01*
X168975596Y-92953579D01*
X168992150Y-93054555D01*
X169232755Y-94354674D01*
X169527829Y-95694608D01*
X169768261Y-96620949D01*
X170003121Y-97765953D01*
X170162011Y-99218119D01*
X170216667Y-100642615D01*
X170230334Y-101746315D01*
X170266882Y-102597104D01*
X170319636Y-103067495D01*
X170346469Y-103121111D01*
X170589450Y-102930738D01*
X171103435Y-102431008D01*
X171778411Y-101729005D01*
X171796200Y-101710000D01*
X172495626Y-101001018D01*
X173064618Y-100494382D01*
X173380882Y-100298904D01*
X173382155Y-100298889D01*
X173558507Y-100530377D01*
X173912504Y-100530377D01*
X173892919Y-100201112D01*
X173580149Y-99785647D01*
X173012366Y-99871527D01*
X172192833Y-100459327D01*
X171878708Y-100752778D01*
X170781112Y-101824553D01*
X170760140Y-99862276D01*
X170725515Y-98475751D01*
X170634478Y-97425078D01*
X170454007Y-96482150D01*
X170151081Y-95418859D01*
X170087949Y-95218889D01*
X169832418Y-94267413D01*
X169564356Y-93036975D01*
X169360234Y-91903694D01*
X169173370Y-90889808D01*
X168980714Y-90114166D01*
X168820694Y-89728416D01*
X168805814Y-89715715D01*
X168481860Y-89813148D01*
G36*
X160304901Y-100902925D02*
X160119463Y-101020448D01*
X159593181Y-101634393D01*
X159523523Y-102317977D01*
X159826615Y-102978184D01*
X160418580Y-103521999D01*
X161215542Y-103856407D01*
X162133625Y-103888394D01*
X162596667Y-103767559D01*
X163150363Y-103458932D01*
X163513889Y-103181655D01*
X163958844Y-102543479D01*
X163946805Y-102132170D01*
X163374325Y-102132170D01*
X163067684Y-102725559D01*
X162894687Y-102882847D01*
X162234965Y-103301631D01*
X161586481Y-103363514D01*
X160761026Y-103120656D01*
X160185202Y-102730157D01*
X160062537Y-102250394D01*
X160311425Y-101772722D01*
X160850258Y-101388497D01*
X161597432Y-101189075D01*
X162428008Y-101254534D01*
X163152191Y-101610747D01*
X163374325Y-102132170D01*
X163946805Y-102132170D01*
X163940186Y-101906064D01*
X163555406Y-101331481D01*
X162901996Y-100881804D01*
X162077448Y-100619104D01*
X161179252Y-100605454D01*
X160304901Y-100902925D01*
X160304901Y-100902925D01*
G37*
X160304901Y-100902925D02*
X160119463Y-101020448D01*
X159593181Y-101634393D01*
X159523523Y-102317977D01*
X159826615Y-102978184D01*
X160418580Y-103521999D01*
X161215542Y-103856407D01*
X162133625Y-103888394D01*
X162596667Y-103767559D01*
X163150363Y-103458932D01*
X163513889Y-103181655D01*
X163958844Y-102543479D01*
X163946805Y-102132170D01*
X163374325Y-102132170D01*
X163067684Y-102725559D01*
X162894687Y-102882847D01*
X162234965Y-103301631D01*
X161586481Y-103363514D01*
X160761026Y-103120656D01*
X160185202Y-102730157D01*
X160062537Y-102250394D01*
X160311425Y-101772722D01*
X160850258Y-101388497D01*
X161597432Y-101189075D01*
X162428008Y-101254534D01*
X163152191Y-101610747D01*
X163374325Y-102132170D01*
X163946805Y-102132170D01*
X163940186Y-101906064D01*
X163555406Y-101331481D01*
X162901996Y-100881804D01*
X162077448Y-100619104D01*
X161179252Y-100605454D01*
X160304901Y-100902925D01*
G36*
X164883097Y-95960619D02*
X164019864Y-96470262D01*
X163469435Y-97319188D01*
X163330445Y-98151920D01*
X163575336Y-99186340D01*
X164216395Y-99973544D01*
X165113203Y-100440424D01*
X166125338Y-100513871D01*
X167112223Y-100120885D01*
X167821048Y-99547233D01*
X168152237Y-99003343D01*
X168236790Y-98275860D01*
X168216765Y-98107679D01*
X167350565Y-98107679D01*
X167190315Y-98832366D01*
X166767204Y-99295108D01*
X165870112Y-99695772D01*
X165063274Y-99548521D01*
X164572223Y-99170000D01*
X164153603Y-98611260D01*
X164007778Y-98182222D01*
X164243676Y-97581143D01*
X164810214Y-97012462D01*
X165495662Y-96664881D01*
X165749445Y-96630000D01*
X166569322Y-96847264D01*
X167123298Y-97392901D01*
X167350565Y-98107679D01*
X168216765Y-98107679D01*
X168115594Y-97258027D01*
X167671819Y-96578884D01*
X167092038Y-96196229D01*
X165945150Y-95849520D01*
X164883097Y-95960619D01*
X164883097Y-95960619D01*
G37*
X164883097Y-95960619D02*
X164019864Y-96470262D01*
X163469435Y-97319188D01*
X163330445Y-98151920D01*
X163575336Y-99186340D01*
X164216395Y-99973544D01*
X165113203Y-100440424D01*
X166125338Y-100513871D01*
X167112223Y-100120885D01*
X167821048Y-99547233D01*
X168152237Y-99003343D01*
X168236790Y-98275860D01*
X168216765Y-98107679D01*
X167350565Y-98107679D01*
X167190315Y-98832366D01*
X166767204Y-99295108D01*
X165870112Y-99695772D01*
X165063274Y-99548521D01*
X164572223Y-99170000D01*
X164153603Y-98611260D01*
X164007778Y-98182222D01*
X164243676Y-97581143D01*
X164810214Y-97012462D01*
X165495662Y-96664881D01*
X165749445Y-96630000D01*
X166569322Y-96847264D01*
X167123298Y-97392901D01*
X167350565Y-98107679D01*
X168216765Y-98107679D01*
X168115594Y-97258027D01*
X167671819Y-96578884D01*
X167092038Y-96196229D01*
X165945150Y-95849520D01*
X164883097Y-95960619D01*
G36*
X156748749Y-95988987D02*
X155943787Y-96498912D01*
X155407460Y-97306335D01*
X155258889Y-98149235D01*
X155494308Y-99213359D01*
X156209423Y-99988782D01*
X156873279Y-100322525D01*
X157658475Y-100542692D01*
X158314597Y-100459833D01*
X158968400Y-100153149D01*
X159688421Y-99485416D01*
X160105617Y-98549944D01*
X160115143Y-98168397D01*
X159222586Y-98168397D01*
X158920355Y-98994743D01*
X158742926Y-99218333D01*
X158056661Y-99677301D01*
X157275761Y-99600605D01*
X156732797Y-99295108D01*
X156233407Y-98664883D01*
X156152493Y-97910013D01*
X156435573Y-97207016D01*
X157028166Y-96732408D01*
X157555380Y-96630000D01*
X158476407Y-96847206D01*
X159053373Y-97406278D01*
X159222586Y-98168397D01*
X160115143Y-98168397D01*
X160129909Y-97577027D01*
X160063481Y-97353476D01*
X159479713Y-96458804D01*
X158646286Y-95947473D01*
X157692774Y-95798021D01*
X156748749Y-95988987D01*
X156748749Y-95988987D01*
G37*
X156748749Y-95988987D02*
X155943787Y-96498912D01*
X155407460Y-97306335D01*
X155258889Y-98149235D01*
X155494308Y-99213359D01*
X156209423Y-99988782D01*
X156873279Y-100322525D01*
X157658475Y-100542692D01*
X158314597Y-100459833D01*
X158968400Y-100153149D01*
X159688421Y-99485416D01*
X160105617Y-98549944D01*
X160115143Y-98168397D01*
X159222586Y-98168397D01*
X158920355Y-98994743D01*
X158742926Y-99218333D01*
X158056661Y-99677301D01*
X157275761Y-99600605D01*
X156732797Y-99295108D01*
X156233407Y-98664883D01*
X156152493Y-97910013D01*
X156435573Y-97207016D01*
X157028166Y-96732408D01*
X157555380Y-96630000D01*
X158476407Y-96847206D01*
X159053373Y-97406278D01*
X159222586Y-98168397D01*
X160115143Y-98168397D01*
X160129909Y-97577027D01*
X160063481Y-97353476D01*
X159479713Y-96458804D01*
X158646286Y-95947473D01*
X157692774Y-95798021D01*
X156748749Y-95988987D01*
M02*
