G04 #@! TF.FileFunction,Soldermask,Bot*
%FSLAX46Y46*%
G04 Gerber Fmt 4.6, Leading zero omitted, Abs format (unit mm)*
G04 Created by KiCad (PCBNEW 4.0.6+dfsg1-1) date Tue Mar 13 10:59:44 2018*
%MOMM*%
%LPD*%
G01*
G04 APERTURE LIST*
%ADD10C,0.100000*%
%ADD11C,1.924000*%
%ADD12R,2.250000X2.250000*%
%ADD13C,2.250000*%
%ADD14R,2.000000X2.000000*%
%ADD15O,2.000000X2.000000*%
%ADD16C,2.400000*%
G04 APERTURE END LIST*
D10*
D11*
X157250000Y-122700000D03*
X169250000Y-122700000D03*
D12*
X146800000Y-95000000D03*
D13*
X149300000Y-95000000D03*
D14*
X142950000Y-138250000D03*
D15*
X135330000Y-130630000D03*
X142950000Y-135710000D03*
X135330000Y-133170000D03*
X142950000Y-133170000D03*
X135330000Y-135710000D03*
X142950000Y-130630000D03*
X135330000Y-138250000D03*
D16*
X134700000Y-93500000D03*
X134700000Y-89000000D03*
X141200000Y-93500000D03*
X141200000Y-89000000D03*
X175200000Y-93500000D03*
X175200000Y-89000000D03*
X181700000Y-93500000D03*
X181700000Y-89000000D03*
X175200000Y-146000000D03*
X175200000Y-141500000D03*
X181700000Y-146000000D03*
X181700000Y-141500000D03*
X134700000Y-146000000D03*
X134700000Y-141500000D03*
X141200000Y-146000000D03*
X141200000Y-141500000D03*
D12*
X180400000Y-103450000D03*
D13*
X180400000Y-105950000D03*
D12*
X175700000Y-117250000D03*
D13*
X175700000Y-119750000D03*
X175700000Y-122250000D03*
X175700000Y-124750000D03*
D11*
X151070000Y-126540000D03*
X151070000Y-124000000D03*
X151070000Y-121460000D03*
X151070000Y-118920000D03*
X151070000Y-116380000D03*
X151070000Y-113840000D03*
X151070000Y-111300000D03*
X151070000Y-108760000D03*
X135830000Y-126540000D03*
X135830000Y-124000000D03*
X135830000Y-121460000D03*
X135830000Y-118920000D03*
X135830000Y-116380000D03*
X135830000Y-113840000D03*
X135830000Y-111300000D03*
X135830000Y-108760000D03*
X144650000Y-104050000D03*
X142250000Y-104050000D03*
X147720000Y-142310000D03*
X147720000Y-134690000D03*
X147720000Y-131946800D03*
X147720000Y-145053200D03*
X170580000Y-131743600D03*
X170580000Y-145256400D03*
M02*
