M48
;DRILL file {KiCad 4.0.6+dfsg1-1} date Tue Jan 16 20:58:07 2018
;FORMAT={-:-/ absolute / metric / decimal}
FMAT,2
METRIC,TZ
T1C0.762
T2C0.800
T3C0.900
T4C1.000
T5C1.100
%
G90
G05
M71
T1
X148.7Y-127.
X148.7Y-129.4
T2
X135.85Y-100.27
X135.85Y-123.13
X138.39Y-100.27
X144.48Y-88.7
X144.48Y-96.32
X146.01Y-100.27
X147.02Y-88.7
X147.02Y-96.32
X148.55Y-100.27
X148.55Y-123.13
X149.56Y-88.7
X149.56Y-96.32
X152.1Y-88.7
X152.1Y-96.32
T3
X179.1Y-118.95
X179.1Y-121.45
X179.1Y-123.95
X179.1Y-126.45
T4
X153.41Y-121.088
X153.41Y-135.312
X155.95Y-121.088
X155.95Y-135.312
X158.49Y-121.088
X158.49Y-135.312
X161.03Y-121.088
X161.03Y-135.312
X163.57Y-121.088
X163.57Y-135.312
X166.11Y-121.088
X166.11Y-135.312
X168.65Y-121.088
X168.65Y-135.312
X171.19Y-121.088
X171.19Y-135.312
X177.55Y-98.9
X177.55Y-105.85
X177.55Y-112.75
X180.05Y-98.9
X180.05Y-105.85
X180.05Y-112.75
T5
X134.7Y-89.
X134.7Y-93.5
X134.7Y-131.5
X134.7Y-136.
X141.2Y-89.
X141.2Y-93.5
X141.2Y-131.5
X141.2Y-136.
X175.2Y-89.
X175.2Y-93.5
X175.2Y-131.5
X175.2Y-136.
X181.7Y-89.
X181.7Y-93.5
X181.7Y-131.5
X181.7Y-136.
T0
M30
