G04 #@! TF.FileFunction,Copper,L2,Bot,Signal*
%FSLAX46Y46*%
G04 Gerber Fmt 4.6, Leading zero omitted, Abs format (unit mm)*
G04 Created by KiCad (PCBNEW 4.0.6+dfsg1-1) date Sat Jan 20 11:22:17 2018*
%MOMM*%
%LPD*%
G01*
G04 APERTURE LIST*
%ADD10C,0.100000*%
%ADD11R,1.850000X1.850000*%
%ADD12C,1.850000*%
%ADD13C,1.524000*%
%ADD14R,1.600000X1.600000*%
%ADD15O,1.600000X1.600000*%
%ADD16C,2.000000*%
%ADD17C,0.250000*%
%ADD18C,0.254000*%
G04 APERTURE END LIST*
D10*
D11*
X146800000Y-95000000D03*
D12*
X149300000Y-95000000D03*
D13*
X147720000Y-142310000D03*
X147720000Y-134690000D03*
X147720000Y-132150000D03*
X147720000Y-144850000D03*
X170580000Y-132150000D03*
X170580000Y-144850000D03*
D14*
X142950000Y-138250000D03*
D15*
X135330000Y-130630000D03*
X142950000Y-135710000D03*
X135330000Y-133170000D03*
X142950000Y-133170000D03*
X135330000Y-135710000D03*
X142950000Y-130630000D03*
X135330000Y-138250000D03*
D13*
X150662000Y-126440000D03*
X150662000Y-123900000D03*
X150662000Y-121360000D03*
X150662000Y-118820000D03*
X150662000Y-116280000D03*
X150662000Y-113740000D03*
X150662000Y-111200000D03*
X150662000Y-108660000D03*
X136438000Y-126440000D03*
X136438000Y-123900000D03*
X136438000Y-121360000D03*
X136438000Y-118820000D03*
X136438000Y-116280000D03*
X136438000Y-113740000D03*
X136438000Y-111200000D03*
X136438000Y-108660000D03*
X144750000Y-103950000D03*
X142350000Y-103950000D03*
D16*
X134700000Y-93500000D03*
X134700000Y-89000000D03*
X141200000Y-93500000D03*
X141200000Y-89000000D03*
X175200000Y-93500000D03*
X175200000Y-89000000D03*
X181700000Y-93500000D03*
X181700000Y-89000000D03*
X175200000Y-146000000D03*
X175200000Y-141500000D03*
X181700000Y-146000000D03*
X181700000Y-141500000D03*
X134700000Y-146000000D03*
X134700000Y-141500000D03*
X141200000Y-146000000D03*
X141200000Y-141500000D03*
D11*
X175750000Y-103650000D03*
D12*
X175750000Y-106150000D03*
D11*
X175700000Y-117250000D03*
D12*
X175700000Y-119750000D03*
X175700000Y-122250000D03*
X175700000Y-124750000D03*
D13*
X157250000Y-122700000D03*
X169250000Y-122700000D03*
D17*
X157750000Y-111200000D02*
X169250000Y-122700000D01*
X150662000Y-111200000D02*
X157750000Y-111200000D01*
X181700000Y-146000000D02*
X175200000Y-146000000D01*
X181700000Y-93500000D02*
X175200000Y-93500000D01*
X141200000Y-93500000D02*
X134700000Y-93500000D01*
X174806000Y-146394000D02*
X175200000Y-146000000D01*
X141594000Y-146394000D02*
X174806000Y-146394000D01*
X141200000Y-146000000D02*
X141594000Y-146394000D01*
X181700000Y-141500000D02*
X175200000Y-141500000D01*
X134700000Y-89000000D02*
X141200000Y-89000000D01*
X143300000Y-89000000D02*
X149300000Y-95000000D01*
X141200000Y-89000000D02*
X143300000Y-89000000D01*
X142950000Y-121360000D02*
X142950000Y-130630000D01*
X136438000Y-121360000D02*
X142950000Y-121360000D01*
X142950000Y-121360000D02*
X150662000Y-121360000D01*
X134700000Y-141500000D02*
X141200000Y-141500000D01*
X172287100Y-141500000D02*
X175200000Y-141500000D01*
X167843500Y-145943600D02*
X172287100Y-141500000D01*
X145643600Y-145943600D02*
X167843500Y-145943600D01*
X141200000Y-141500000D02*
X145643600Y-145943600D01*
X155300000Y-89000000D02*
X175200000Y-89000000D01*
X149300000Y-95000000D02*
X155300000Y-89000000D01*
X175200000Y-89000000D02*
X181700000Y-89000000D01*
X135330000Y-138250000D02*
X136455300Y-138250000D01*
X144407000Y-138880400D02*
X143078700Y-140208700D01*
X144407000Y-136436500D02*
X144407000Y-138880400D01*
X147423500Y-133420000D02*
X144407000Y-136436500D01*
X148020000Y-133420000D02*
X147423500Y-133420000D01*
X151793200Y-129646800D02*
X148020000Y-133420000D01*
X151793200Y-119951200D02*
X151793200Y-129646800D01*
X150662000Y-118820000D02*
X151793200Y-119951200D01*
X147720000Y-144850000D02*
X143078700Y-140208700D01*
X137580600Y-139375300D02*
X136455300Y-138250000D01*
X142245300Y-139375300D02*
X137580600Y-139375300D01*
X143078700Y-140208700D02*
X142245300Y-139375300D01*
X137580600Y-134295300D02*
X136455300Y-133170000D01*
X143462800Y-134295300D02*
X137580600Y-134295300D01*
X150662000Y-127096100D02*
X143462800Y-134295300D01*
X150662000Y-126440000D02*
X150662000Y-127096100D01*
X135330000Y-133170000D02*
X136455300Y-133170000D01*
X142042700Y-132044700D02*
X142950000Y-132044700D01*
X136438000Y-126440000D02*
X142042700Y-132044700D01*
X142950000Y-133170000D02*
X142950000Y-132044700D01*
X157400000Y-103950000D02*
X144750000Y-103950000D01*
X175700000Y-122250000D02*
X157400000Y-103950000D01*
X160880000Y-109930000D02*
X175700000Y-124750000D01*
X148330000Y-109930000D02*
X160880000Y-109930000D01*
X142350000Y-103950000D02*
X148330000Y-109930000D01*
X176950400Y-107350400D02*
X175750000Y-106150000D01*
X176950400Y-125290700D02*
X176950400Y-107350400D01*
X171690100Y-130551000D02*
X176950400Y-125290700D01*
X151859000Y-130551000D02*
X171690100Y-130551000D01*
X147720000Y-134690000D02*
X151859000Y-130551000D01*
D18*
G36*
X133976120Y-138799151D02*
X134287189Y-139264698D01*
X134752736Y-139575767D01*
X135301887Y-139685000D01*
X135358113Y-139685000D01*
X135907264Y-139575767D01*
X136372811Y-139264698D01*
X136381777Y-139251279D01*
X137043199Y-139912701D01*
X137289761Y-140077448D01*
X137580600Y-140135300D01*
X140305517Y-140135300D01*
X140227073Y-140347468D01*
X141200000Y-141320395D01*
X141214143Y-141306253D01*
X141393748Y-141485858D01*
X141379605Y-141500000D01*
X142352532Y-142472927D01*
X142619387Y-142374264D01*
X142845908Y-141764539D01*
X142821856Y-141114540D01*
X142759714Y-140964516D01*
X146335817Y-144540619D01*
X146323243Y-144570900D01*
X146322758Y-145126661D01*
X146532386Y-145634000D01*
X142817845Y-145634000D01*
X142586894Y-145075057D01*
X142127363Y-144614722D01*
X141526648Y-144365284D01*
X140876205Y-144364716D01*
X140275057Y-144613106D01*
X139814722Y-145072637D01*
X139565284Y-145673352D01*
X139564716Y-146323795D01*
X139757349Y-146790000D01*
X136142316Y-146790000D01*
X136334716Y-146326648D01*
X136335284Y-145676205D01*
X136086894Y-145075057D01*
X135627363Y-144614722D01*
X135026648Y-144365284D01*
X134376205Y-144364716D01*
X133910000Y-144557349D01*
X133910000Y-142950692D01*
X134435461Y-143145908D01*
X135085460Y-143121856D01*
X135574264Y-142919387D01*
X135672927Y-142652532D01*
X140227073Y-142652532D01*
X140325736Y-142919387D01*
X140935461Y-143145908D01*
X141585460Y-143121856D01*
X142074264Y-142919387D01*
X142172927Y-142652532D01*
X141200000Y-141679605D01*
X140227073Y-142652532D01*
X135672927Y-142652532D01*
X134700000Y-141679605D01*
X134685858Y-141693748D01*
X134506253Y-141514143D01*
X134520395Y-141500000D01*
X134879605Y-141500000D01*
X135852532Y-142472927D01*
X136119387Y-142374264D01*
X136345908Y-141764539D01*
X136326331Y-141235461D01*
X139554092Y-141235461D01*
X139578144Y-141885460D01*
X139780613Y-142374264D01*
X140047468Y-142472927D01*
X141020395Y-141500000D01*
X140047468Y-140527073D01*
X139780613Y-140625736D01*
X139554092Y-141235461D01*
X136326331Y-141235461D01*
X136321856Y-141114540D01*
X136119387Y-140625736D01*
X135852532Y-140527073D01*
X134879605Y-141500000D01*
X134520395Y-141500000D01*
X134506253Y-141485858D01*
X134685858Y-141306253D01*
X134700000Y-141320395D01*
X135672927Y-140347468D01*
X135574264Y-140080613D01*
X134964539Y-139854092D01*
X134314540Y-139878144D01*
X133910000Y-140045710D01*
X133910000Y-138466744D01*
X133976120Y-138799151D01*
X133976120Y-138799151D01*
G37*
X133976120Y-138799151D02*
X134287189Y-139264698D01*
X134752736Y-139575767D01*
X135301887Y-139685000D01*
X135358113Y-139685000D01*
X135907264Y-139575767D01*
X136372811Y-139264698D01*
X136381777Y-139251279D01*
X137043199Y-139912701D01*
X137289761Y-140077448D01*
X137580600Y-140135300D01*
X140305517Y-140135300D01*
X140227073Y-140347468D01*
X141200000Y-141320395D01*
X141214143Y-141306253D01*
X141393748Y-141485858D01*
X141379605Y-141500000D01*
X142352532Y-142472927D01*
X142619387Y-142374264D01*
X142845908Y-141764539D01*
X142821856Y-141114540D01*
X142759714Y-140964516D01*
X146335817Y-144540619D01*
X146323243Y-144570900D01*
X146322758Y-145126661D01*
X146532386Y-145634000D01*
X142817845Y-145634000D01*
X142586894Y-145075057D01*
X142127363Y-144614722D01*
X141526648Y-144365284D01*
X140876205Y-144364716D01*
X140275057Y-144613106D01*
X139814722Y-145072637D01*
X139565284Y-145673352D01*
X139564716Y-146323795D01*
X139757349Y-146790000D01*
X136142316Y-146790000D01*
X136334716Y-146326648D01*
X136335284Y-145676205D01*
X136086894Y-145075057D01*
X135627363Y-144614722D01*
X135026648Y-144365284D01*
X134376205Y-144364716D01*
X133910000Y-144557349D01*
X133910000Y-142950692D01*
X134435461Y-143145908D01*
X135085460Y-143121856D01*
X135574264Y-142919387D01*
X135672927Y-142652532D01*
X140227073Y-142652532D01*
X140325736Y-142919387D01*
X140935461Y-143145908D01*
X141585460Y-143121856D01*
X142074264Y-142919387D01*
X142172927Y-142652532D01*
X141200000Y-141679605D01*
X140227073Y-142652532D01*
X135672927Y-142652532D01*
X134700000Y-141679605D01*
X134685858Y-141693748D01*
X134506253Y-141514143D01*
X134520395Y-141500000D01*
X134879605Y-141500000D01*
X135852532Y-142472927D01*
X136119387Y-142374264D01*
X136345908Y-141764539D01*
X136326331Y-141235461D01*
X139554092Y-141235461D01*
X139578144Y-141885460D01*
X139780613Y-142374264D01*
X140047468Y-142472927D01*
X141020395Y-141500000D01*
X140047468Y-140527073D01*
X139780613Y-140625736D01*
X139554092Y-141235461D01*
X136326331Y-141235461D01*
X136321856Y-141114540D01*
X136119387Y-140625736D01*
X135852532Y-140527073D01*
X134879605Y-141500000D01*
X134520395Y-141500000D01*
X134506253Y-141485858D01*
X134685858Y-141306253D01*
X134700000Y-141320395D01*
X135672927Y-140347468D01*
X135574264Y-140080613D01*
X134964539Y-139854092D01*
X134314540Y-139878144D01*
X133910000Y-140045710D01*
X133910000Y-138466744D01*
X133976120Y-138799151D01*
G36*
X139554092Y-88735461D02*
X139578144Y-89385460D01*
X139780613Y-89874264D01*
X140047468Y-89972927D01*
X141020395Y-89000000D01*
X141006253Y-88985858D01*
X141185858Y-88806253D01*
X141200000Y-88820395D01*
X141214143Y-88806253D01*
X141393748Y-88985858D01*
X141379605Y-89000000D01*
X142352532Y-89972927D01*
X142619387Y-89874264D01*
X142845908Y-89264539D01*
X142821856Y-88614540D01*
X142654290Y-88210000D01*
X173749308Y-88210000D01*
X173554092Y-88735461D01*
X173578144Y-89385460D01*
X173780613Y-89874264D01*
X174047468Y-89972927D01*
X175020395Y-89000000D01*
X175006253Y-88985858D01*
X175185858Y-88806253D01*
X175200000Y-88820395D01*
X175214143Y-88806253D01*
X175393748Y-88985858D01*
X175379605Y-89000000D01*
X176352532Y-89972927D01*
X176619387Y-89874264D01*
X176845908Y-89264539D01*
X176821856Y-88614540D01*
X176654290Y-88210000D01*
X180249308Y-88210000D01*
X180054092Y-88735461D01*
X180078144Y-89385460D01*
X180280613Y-89874264D01*
X180547468Y-89972927D01*
X181520395Y-89000000D01*
X181506253Y-88985858D01*
X181685858Y-88806253D01*
X181700000Y-88820395D01*
X181714143Y-88806253D01*
X181893748Y-88985858D01*
X181879605Y-89000000D01*
X181893748Y-89014143D01*
X181714143Y-89193748D01*
X181700000Y-89179605D01*
X180727073Y-90152532D01*
X180825736Y-90419387D01*
X181435461Y-90645908D01*
X182085460Y-90621856D01*
X182490000Y-90454290D01*
X182490000Y-92057684D01*
X182026648Y-91865284D01*
X181376205Y-91864716D01*
X180775057Y-92113106D01*
X180314722Y-92572637D01*
X180245227Y-92740000D01*
X176655047Y-92740000D01*
X176586894Y-92575057D01*
X176127363Y-92114722D01*
X175526648Y-91865284D01*
X174876205Y-91864716D01*
X174275057Y-92113106D01*
X173814722Y-92572637D01*
X173565284Y-93173352D01*
X173564716Y-93823795D01*
X173813106Y-94424943D01*
X174272637Y-94885278D01*
X174873352Y-95134716D01*
X175523795Y-95135284D01*
X176124943Y-94886894D01*
X176585278Y-94427363D01*
X176654773Y-94260000D01*
X180244953Y-94260000D01*
X180313106Y-94424943D01*
X180772637Y-94885278D01*
X181373352Y-95134716D01*
X182023795Y-95135284D01*
X182490000Y-94942651D01*
X182490000Y-140049308D01*
X181964539Y-139854092D01*
X181314540Y-139878144D01*
X180825736Y-140080613D01*
X180727073Y-140347468D01*
X181700000Y-141320395D01*
X181714143Y-141306253D01*
X181893748Y-141485858D01*
X181879605Y-141500000D01*
X181893748Y-141514143D01*
X181714143Y-141693748D01*
X181700000Y-141679605D01*
X180727073Y-142652532D01*
X180825736Y-142919387D01*
X181435461Y-143145908D01*
X182085460Y-143121856D01*
X182490000Y-142954290D01*
X182490000Y-144557684D01*
X182026648Y-144365284D01*
X181376205Y-144364716D01*
X180775057Y-144613106D01*
X180314722Y-145072637D01*
X180245227Y-145240000D01*
X176655047Y-145240000D01*
X176586894Y-145075057D01*
X176127363Y-144614722D01*
X175526648Y-144365284D01*
X174876205Y-144364716D01*
X174275057Y-144613106D01*
X173814722Y-145072637D01*
X173581624Y-145634000D01*
X171767105Y-145634000D01*
X171976757Y-145129100D01*
X171977242Y-144573339D01*
X171765010Y-144059697D01*
X171372370Y-143666371D01*
X170859100Y-143453243D01*
X170303339Y-143452758D01*
X169789697Y-143664990D01*
X169396371Y-144057630D01*
X169183243Y-144570900D01*
X169182758Y-145126661D01*
X169392386Y-145634000D01*
X148907105Y-145634000D01*
X149116757Y-145129100D01*
X149117242Y-144573339D01*
X148905010Y-144059697D01*
X148512370Y-143666371D01*
X148304488Y-143580051D01*
X148510303Y-143495010D01*
X148903629Y-143102370D01*
X149090417Y-142652532D01*
X174227073Y-142652532D01*
X174325736Y-142919387D01*
X174935461Y-143145908D01*
X175585460Y-143121856D01*
X176074264Y-142919387D01*
X176172927Y-142652532D01*
X175200000Y-141679605D01*
X174227073Y-142652532D01*
X149090417Y-142652532D01*
X149116757Y-142589100D01*
X149117242Y-142033339D01*
X148905010Y-141519697D01*
X148621270Y-141235461D01*
X173554092Y-141235461D01*
X173578144Y-141885460D01*
X173780613Y-142374264D01*
X174047468Y-142472927D01*
X175020395Y-141500000D01*
X175379605Y-141500000D01*
X176352532Y-142472927D01*
X176619387Y-142374264D01*
X176845908Y-141764539D01*
X176826331Y-141235461D01*
X180054092Y-141235461D01*
X180078144Y-141885460D01*
X180280613Y-142374264D01*
X180547468Y-142472927D01*
X181520395Y-141500000D01*
X180547468Y-140527073D01*
X180280613Y-140625736D01*
X180054092Y-141235461D01*
X176826331Y-141235461D01*
X176821856Y-141114540D01*
X176619387Y-140625736D01*
X176352532Y-140527073D01*
X175379605Y-141500000D01*
X175020395Y-141500000D01*
X174047468Y-140527073D01*
X173780613Y-140625736D01*
X173554092Y-141235461D01*
X148621270Y-141235461D01*
X148512370Y-141126371D01*
X147999100Y-140913243D01*
X147443339Y-140912758D01*
X146929697Y-141124990D01*
X146536371Y-141517630D01*
X146323243Y-142030900D01*
X146322940Y-142378138D01*
X144292270Y-140347468D01*
X174227073Y-140347468D01*
X175200000Y-141320395D01*
X176172927Y-140347468D01*
X176074264Y-140080613D01*
X175464539Y-139854092D01*
X174814540Y-139878144D01*
X174325736Y-140080613D01*
X174227073Y-140347468D01*
X144292270Y-140347468D01*
X144153502Y-140208700D01*
X144944401Y-139417801D01*
X145109148Y-139171239D01*
X145167000Y-138880400D01*
X145167000Y-136751302D01*
X146506632Y-135411670D01*
X146534990Y-135480303D01*
X146927630Y-135873629D01*
X147440900Y-136086757D01*
X147996661Y-136087242D01*
X148510303Y-135875010D01*
X148903629Y-135482370D01*
X149116757Y-134969100D01*
X149117242Y-134413339D01*
X149103857Y-134380945D01*
X152173802Y-131311000D01*
X169443082Y-131311000D01*
X169396371Y-131357630D01*
X169183243Y-131870900D01*
X169182758Y-132426661D01*
X169394990Y-132940303D01*
X169787630Y-133333629D01*
X170300900Y-133546757D01*
X170856661Y-133547242D01*
X171370303Y-133335010D01*
X171763629Y-132942370D01*
X171976757Y-132429100D01*
X171977242Y-131873339D01*
X171765010Y-131359697D01*
X171712041Y-131306636D01*
X171980939Y-131253148D01*
X172227501Y-131088401D01*
X177487801Y-125828101D01*
X177652548Y-125581539D01*
X177710400Y-125290700D01*
X177710400Y-107350400D01*
X177652548Y-107059561D01*
X177487801Y-106812999D01*
X177258892Y-106584090D01*
X177309728Y-106461664D01*
X177310270Y-105841058D01*
X177073275Y-105267486D01*
X176955246Y-105149251D01*
X177126441Y-105039090D01*
X177271431Y-104826890D01*
X177322440Y-104575000D01*
X177322440Y-102725000D01*
X177278162Y-102489683D01*
X177139090Y-102273559D01*
X176926890Y-102128569D01*
X176675000Y-102077560D01*
X174825000Y-102077560D01*
X174589683Y-102121838D01*
X174373559Y-102260910D01*
X174228569Y-102473110D01*
X174177560Y-102725000D01*
X174177560Y-104575000D01*
X174221838Y-104810317D01*
X174360910Y-105026441D01*
X174542874Y-105150771D01*
X174428268Y-105265177D01*
X174190272Y-105838336D01*
X174189730Y-106458942D01*
X174426725Y-107032514D01*
X174865177Y-107471732D01*
X175438336Y-107709728D01*
X176058942Y-107710270D01*
X176183855Y-107658657D01*
X176190400Y-107665202D01*
X176190400Y-115677560D01*
X174775000Y-115677560D01*
X174539683Y-115721838D01*
X174323559Y-115860910D01*
X174178569Y-116073110D01*
X174127560Y-116325000D01*
X174127560Y-118175000D01*
X174171838Y-118410317D01*
X174310910Y-118626441D01*
X174492874Y-118750771D01*
X174378268Y-118865177D01*
X174140272Y-119438336D01*
X174140117Y-119615315D01*
X157937401Y-103412599D01*
X157690839Y-103247852D01*
X157400000Y-103190000D01*
X145947531Y-103190000D01*
X145935010Y-103159697D01*
X145542370Y-102766371D01*
X145029100Y-102553243D01*
X144473339Y-102552758D01*
X143959697Y-102764990D01*
X143566371Y-103157630D01*
X143550224Y-103196517D01*
X143535010Y-103159697D01*
X143142370Y-102766371D01*
X142629100Y-102553243D01*
X142073339Y-102552758D01*
X141559697Y-102764990D01*
X141166371Y-103157630D01*
X140953243Y-103670900D01*
X140952758Y-104226661D01*
X141164990Y-104740303D01*
X141557630Y-105133629D01*
X142070900Y-105346757D01*
X142626661Y-105347242D01*
X142659055Y-105333857D01*
X147792599Y-110467401D01*
X148039161Y-110632148D01*
X148330000Y-110690000D01*
X149361121Y-110690000D01*
X149265243Y-110920900D01*
X149264758Y-111476661D01*
X149476990Y-111990303D01*
X149869630Y-112383629D01*
X150077512Y-112469949D01*
X149871697Y-112554990D01*
X149478371Y-112947630D01*
X149265243Y-113460900D01*
X149264758Y-114016661D01*
X149476990Y-114530303D01*
X149869630Y-114923629D01*
X150077512Y-115009949D01*
X149871697Y-115094990D01*
X149478371Y-115487630D01*
X149265243Y-116000900D01*
X149264758Y-116556661D01*
X149476990Y-117070303D01*
X149869630Y-117463629D01*
X150077512Y-117549949D01*
X149871697Y-117634990D01*
X149478371Y-118027630D01*
X149265243Y-118540900D01*
X149264758Y-119096661D01*
X149476990Y-119610303D01*
X149869630Y-120003629D01*
X150061727Y-120083395D01*
X149930857Y-120137603D01*
X149861392Y-120379787D01*
X150662000Y-121180395D01*
X150676143Y-121166253D01*
X150855748Y-121345858D01*
X150841605Y-121360000D01*
X150855748Y-121374143D01*
X150676143Y-121553748D01*
X150662000Y-121539605D01*
X149861392Y-122340213D01*
X149930857Y-122582397D01*
X150071318Y-122632509D01*
X149871697Y-122714990D01*
X149478371Y-123107630D01*
X149265243Y-123620900D01*
X149264758Y-124176661D01*
X149476990Y-124690303D01*
X149869630Y-125083629D01*
X150077512Y-125169949D01*
X149871697Y-125254990D01*
X149478371Y-125647630D01*
X149265243Y-126160900D01*
X149264758Y-126716661D01*
X149469974Y-127213324D01*
X144207176Y-132476122D01*
X143992811Y-132155302D01*
X143692022Y-131954321D01*
X143670498Y-131846110D01*
X143805134Y-131782389D01*
X144181041Y-131367423D01*
X144341904Y-130979039D01*
X144219915Y-130757000D01*
X143077000Y-130757000D01*
X143077000Y-130777000D01*
X142823000Y-130777000D01*
X142823000Y-130757000D01*
X142803000Y-130757000D01*
X142803000Y-130503000D01*
X142823000Y-130503000D01*
X142823000Y-129359371D01*
X143077000Y-129359371D01*
X143077000Y-130503000D01*
X144219915Y-130503000D01*
X144341904Y-130280961D01*
X144181041Y-129892577D01*
X143805134Y-129477611D01*
X143299041Y-129238086D01*
X143077000Y-129359371D01*
X142823000Y-129359371D01*
X142600959Y-129238086D01*
X142094866Y-129477611D01*
X141718959Y-129892577D01*
X141558096Y-130280961D01*
X141680084Y-130502998D01*
X141575800Y-130502998D01*
X137822183Y-126749381D01*
X137834757Y-126719100D01*
X137835242Y-126163339D01*
X137623010Y-125649697D01*
X137230370Y-125256371D01*
X137022488Y-125170051D01*
X137228303Y-125085010D01*
X137621629Y-124692370D01*
X137834757Y-124179100D01*
X137835242Y-123623339D01*
X137623010Y-123109697D01*
X137230370Y-122716371D01*
X137038273Y-122636605D01*
X137169143Y-122582397D01*
X137238608Y-122340213D01*
X136438000Y-121539605D01*
X135637392Y-122340213D01*
X135706857Y-122582397D01*
X135847318Y-122632509D01*
X135647697Y-122714990D01*
X135254371Y-123107630D01*
X135041243Y-123620900D01*
X135040758Y-124176661D01*
X135252990Y-124690303D01*
X135645630Y-125083629D01*
X135853512Y-125169949D01*
X135647697Y-125254990D01*
X135254371Y-125647630D01*
X135041243Y-126160900D01*
X135040758Y-126716661D01*
X135252990Y-127230303D01*
X135645630Y-127623629D01*
X136158900Y-127836757D01*
X136714661Y-127837242D01*
X136747055Y-127823857D01*
X141505299Y-132582101D01*
X141592268Y-132640212D01*
X141486887Y-133170000D01*
X141559550Y-133535300D01*
X137895402Y-133535300D01*
X136992701Y-132632599D01*
X136746139Y-132467852D01*
X136556437Y-132430118D01*
X136372811Y-132155302D01*
X135990725Y-131900000D01*
X136372811Y-131644698D01*
X136683880Y-131179151D01*
X136793113Y-130630000D01*
X136683880Y-130080849D01*
X136372811Y-129615302D01*
X135907264Y-129304233D01*
X135358113Y-129195000D01*
X135301887Y-129195000D01*
X134752736Y-129304233D01*
X134287189Y-129615302D01*
X133976120Y-130080849D01*
X133910000Y-130413256D01*
X133910000Y-121152302D01*
X135028856Y-121152302D01*
X135056638Y-121707368D01*
X135215603Y-122091143D01*
X135457787Y-122160608D01*
X136258395Y-121360000D01*
X136617605Y-121360000D01*
X137418213Y-122160608D01*
X137660397Y-122091143D01*
X137847144Y-121567698D01*
X137826353Y-121152302D01*
X149252856Y-121152302D01*
X149280638Y-121707368D01*
X149439603Y-122091143D01*
X149681787Y-122160608D01*
X150482395Y-121360000D01*
X149681787Y-120559392D01*
X149439603Y-120628857D01*
X149252856Y-121152302D01*
X137826353Y-121152302D01*
X137819362Y-121012632D01*
X137660397Y-120628857D01*
X137418213Y-120559392D01*
X136617605Y-121360000D01*
X136258395Y-121360000D01*
X135457787Y-120559392D01*
X135215603Y-120628857D01*
X135028856Y-121152302D01*
X133910000Y-121152302D01*
X133910000Y-108936661D01*
X135040758Y-108936661D01*
X135252990Y-109450303D01*
X135645630Y-109843629D01*
X135853512Y-109929949D01*
X135647697Y-110014990D01*
X135254371Y-110407630D01*
X135041243Y-110920900D01*
X135040758Y-111476661D01*
X135252990Y-111990303D01*
X135645630Y-112383629D01*
X135853512Y-112469949D01*
X135647697Y-112554990D01*
X135254371Y-112947630D01*
X135041243Y-113460900D01*
X135040758Y-114016661D01*
X135252990Y-114530303D01*
X135645630Y-114923629D01*
X135853512Y-115009949D01*
X135647697Y-115094990D01*
X135254371Y-115487630D01*
X135041243Y-116000900D01*
X135040758Y-116556661D01*
X135252990Y-117070303D01*
X135645630Y-117463629D01*
X135853512Y-117549949D01*
X135647697Y-117634990D01*
X135254371Y-118027630D01*
X135041243Y-118540900D01*
X135040758Y-119096661D01*
X135252990Y-119610303D01*
X135645630Y-120003629D01*
X135837727Y-120083395D01*
X135706857Y-120137603D01*
X135637392Y-120379787D01*
X136438000Y-121180395D01*
X137238608Y-120379787D01*
X137169143Y-120137603D01*
X137028682Y-120087491D01*
X137228303Y-120005010D01*
X137621629Y-119612370D01*
X137834757Y-119099100D01*
X137835242Y-118543339D01*
X137623010Y-118029697D01*
X137230370Y-117636371D01*
X137022488Y-117550051D01*
X137228303Y-117465010D01*
X137621629Y-117072370D01*
X137834757Y-116559100D01*
X137835242Y-116003339D01*
X137623010Y-115489697D01*
X137230370Y-115096371D01*
X137022488Y-115010051D01*
X137228303Y-114925010D01*
X137621629Y-114532370D01*
X137834757Y-114019100D01*
X137835242Y-113463339D01*
X137623010Y-112949697D01*
X137230370Y-112556371D01*
X137022488Y-112470051D01*
X137228303Y-112385010D01*
X137621629Y-111992370D01*
X137834757Y-111479100D01*
X137835242Y-110923339D01*
X137623010Y-110409697D01*
X137230370Y-110016371D01*
X137022488Y-109930051D01*
X137228303Y-109845010D01*
X137621629Y-109452370D01*
X137834757Y-108939100D01*
X137835242Y-108383339D01*
X137623010Y-107869697D01*
X137230370Y-107476371D01*
X136717100Y-107263243D01*
X136161339Y-107262758D01*
X135647697Y-107474990D01*
X135254371Y-107867630D01*
X135041243Y-108380900D01*
X135040758Y-108936661D01*
X133910000Y-108936661D01*
X133910000Y-94942316D01*
X134373352Y-95134716D01*
X135023795Y-95135284D01*
X135624943Y-94886894D01*
X136085278Y-94427363D01*
X136154773Y-94260000D01*
X139744953Y-94260000D01*
X139813106Y-94424943D01*
X140272637Y-94885278D01*
X140873352Y-95134716D01*
X141523795Y-95135284D01*
X142124943Y-94886894D01*
X142585278Y-94427363D01*
X142731591Y-94075000D01*
X145227560Y-94075000D01*
X145227560Y-95925000D01*
X145271838Y-96160317D01*
X145410910Y-96376441D01*
X145623110Y-96521431D01*
X145875000Y-96572440D01*
X147725000Y-96572440D01*
X147960317Y-96528162D01*
X148176441Y-96389090D01*
X148321431Y-96176890D01*
X148326183Y-96153425D01*
X148381350Y-96098258D01*
X148470821Y-96357332D01*
X149053368Y-96571325D01*
X149673461Y-96546097D01*
X150129179Y-96357332D01*
X150218651Y-96098256D01*
X149300000Y-95179605D01*
X149285858Y-95193748D01*
X149106253Y-95014143D01*
X149120395Y-95000000D01*
X149479605Y-95000000D01*
X150398256Y-95918651D01*
X150657332Y-95829179D01*
X150871325Y-95246632D01*
X150846097Y-94626539D01*
X150657332Y-94170821D01*
X150398256Y-94081349D01*
X149479605Y-95000000D01*
X149120395Y-95000000D01*
X149106253Y-94985858D01*
X149285858Y-94806253D01*
X149300000Y-94820395D01*
X150218651Y-93901744D01*
X150129179Y-93642668D01*
X149546632Y-93428675D01*
X148926539Y-93453903D01*
X148470821Y-93642668D01*
X148381350Y-93901742D01*
X148330218Y-93850610D01*
X148328162Y-93839683D01*
X148189090Y-93623559D01*
X147976890Y-93478569D01*
X147725000Y-93427560D01*
X145875000Y-93427560D01*
X145639683Y-93471838D01*
X145423559Y-93610910D01*
X145278569Y-93823110D01*
X145227560Y-94075000D01*
X142731591Y-94075000D01*
X142834716Y-93826648D01*
X142835284Y-93176205D01*
X142586894Y-92575057D01*
X142127363Y-92114722D01*
X141526648Y-91865284D01*
X140876205Y-91864716D01*
X140275057Y-92113106D01*
X139814722Y-92572637D01*
X139745227Y-92740000D01*
X136155047Y-92740000D01*
X136086894Y-92575057D01*
X135627363Y-92114722D01*
X135026648Y-91865284D01*
X134376205Y-91864716D01*
X133910000Y-92057349D01*
X133910000Y-90450692D01*
X134435461Y-90645908D01*
X135085460Y-90621856D01*
X135574264Y-90419387D01*
X135672927Y-90152532D01*
X140227073Y-90152532D01*
X140325736Y-90419387D01*
X140935461Y-90645908D01*
X141585460Y-90621856D01*
X142074264Y-90419387D01*
X142172927Y-90152532D01*
X174227073Y-90152532D01*
X174325736Y-90419387D01*
X174935461Y-90645908D01*
X175585460Y-90621856D01*
X176074264Y-90419387D01*
X176172927Y-90152532D01*
X175200000Y-89179605D01*
X174227073Y-90152532D01*
X142172927Y-90152532D01*
X141200000Y-89179605D01*
X140227073Y-90152532D01*
X135672927Y-90152532D01*
X134700000Y-89179605D01*
X134685858Y-89193748D01*
X134506253Y-89014143D01*
X134520395Y-89000000D01*
X134506253Y-88985858D01*
X134685858Y-88806253D01*
X134700000Y-88820395D01*
X134714143Y-88806253D01*
X134893748Y-88985858D01*
X134879605Y-89000000D01*
X135852532Y-89972927D01*
X136119387Y-89874264D01*
X136345908Y-89264539D01*
X136321856Y-88614540D01*
X136154290Y-88210000D01*
X139749308Y-88210000D01*
X139554092Y-88735461D01*
X139554092Y-88735461D01*
G37*
X139554092Y-88735461D02*
X139578144Y-89385460D01*
X139780613Y-89874264D01*
X140047468Y-89972927D01*
X141020395Y-89000000D01*
X141006253Y-88985858D01*
X141185858Y-88806253D01*
X141200000Y-88820395D01*
X141214143Y-88806253D01*
X141393748Y-88985858D01*
X141379605Y-89000000D01*
X142352532Y-89972927D01*
X142619387Y-89874264D01*
X142845908Y-89264539D01*
X142821856Y-88614540D01*
X142654290Y-88210000D01*
X173749308Y-88210000D01*
X173554092Y-88735461D01*
X173578144Y-89385460D01*
X173780613Y-89874264D01*
X174047468Y-89972927D01*
X175020395Y-89000000D01*
X175006253Y-88985858D01*
X175185858Y-88806253D01*
X175200000Y-88820395D01*
X175214143Y-88806253D01*
X175393748Y-88985858D01*
X175379605Y-89000000D01*
X176352532Y-89972927D01*
X176619387Y-89874264D01*
X176845908Y-89264539D01*
X176821856Y-88614540D01*
X176654290Y-88210000D01*
X180249308Y-88210000D01*
X180054092Y-88735461D01*
X180078144Y-89385460D01*
X180280613Y-89874264D01*
X180547468Y-89972927D01*
X181520395Y-89000000D01*
X181506253Y-88985858D01*
X181685858Y-88806253D01*
X181700000Y-88820395D01*
X181714143Y-88806253D01*
X181893748Y-88985858D01*
X181879605Y-89000000D01*
X181893748Y-89014143D01*
X181714143Y-89193748D01*
X181700000Y-89179605D01*
X180727073Y-90152532D01*
X180825736Y-90419387D01*
X181435461Y-90645908D01*
X182085460Y-90621856D01*
X182490000Y-90454290D01*
X182490000Y-92057684D01*
X182026648Y-91865284D01*
X181376205Y-91864716D01*
X180775057Y-92113106D01*
X180314722Y-92572637D01*
X180245227Y-92740000D01*
X176655047Y-92740000D01*
X176586894Y-92575057D01*
X176127363Y-92114722D01*
X175526648Y-91865284D01*
X174876205Y-91864716D01*
X174275057Y-92113106D01*
X173814722Y-92572637D01*
X173565284Y-93173352D01*
X173564716Y-93823795D01*
X173813106Y-94424943D01*
X174272637Y-94885278D01*
X174873352Y-95134716D01*
X175523795Y-95135284D01*
X176124943Y-94886894D01*
X176585278Y-94427363D01*
X176654773Y-94260000D01*
X180244953Y-94260000D01*
X180313106Y-94424943D01*
X180772637Y-94885278D01*
X181373352Y-95134716D01*
X182023795Y-95135284D01*
X182490000Y-94942651D01*
X182490000Y-140049308D01*
X181964539Y-139854092D01*
X181314540Y-139878144D01*
X180825736Y-140080613D01*
X180727073Y-140347468D01*
X181700000Y-141320395D01*
X181714143Y-141306253D01*
X181893748Y-141485858D01*
X181879605Y-141500000D01*
X181893748Y-141514143D01*
X181714143Y-141693748D01*
X181700000Y-141679605D01*
X180727073Y-142652532D01*
X180825736Y-142919387D01*
X181435461Y-143145908D01*
X182085460Y-143121856D01*
X182490000Y-142954290D01*
X182490000Y-144557684D01*
X182026648Y-144365284D01*
X181376205Y-144364716D01*
X180775057Y-144613106D01*
X180314722Y-145072637D01*
X180245227Y-145240000D01*
X176655047Y-145240000D01*
X176586894Y-145075057D01*
X176127363Y-144614722D01*
X175526648Y-144365284D01*
X174876205Y-144364716D01*
X174275057Y-144613106D01*
X173814722Y-145072637D01*
X173581624Y-145634000D01*
X171767105Y-145634000D01*
X171976757Y-145129100D01*
X171977242Y-144573339D01*
X171765010Y-144059697D01*
X171372370Y-143666371D01*
X170859100Y-143453243D01*
X170303339Y-143452758D01*
X169789697Y-143664990D01*
X169396371Y-144057630D01*
X169183243Y-144570900D01*
X169182758Y-145126661D01*
X169392386Y-145634000D01*
X148907105Y-145634000D01*
X149116757Y-145129100D01*
X149117242Y-144573339D01*
X148905010Y-144059697D01*
X148512370Y-143666371D01*
X148304488Y-143580051D01*
X148510303Y-143495010D01*
X148903629Y-143102370D01*
X149090417Y-142652532D01*
X174227073Y-142652532D01*
X174325736Y-142919387D01*
X174935461Y-143145908D01*
X175585460Y-143121856D01*
X176074264Y-142919387D01*
X176172927Y-142652532D01*
X175200000Y-141679605D01*
X174227073Y-142652532D01*
X149090417Y-142652532D01*
X149116757Y-142589100D01*
X149117242Y-142033339D01*
X148905010Y-141519697D01*
X148621270Y-141235461D01*
X173554092Y-141235461D01*
X173578144Y-141885460D01*
X173780613Y-142374264D01*
X174047468Y-142472927D01*
X175020395Y-141500000D01*
X175379605Y-141500000D01*
X176352532Y-142472927D01*
X176619387Y-142374264D01*
X176845908Y-141764539D01*
X176826331Y-141235461D01*
X180054092Y-141235461D01*
X180078144Y-141885460D01*
X180280613Y-142374264D01*
X180547468Y-142472927D01*
X181520395Y-141500000D01*
X180547468Y-140527073D01*
X180280613Y-140625736D01*
X180054092Y-141235461D01*
X176826331Y-141235461D01*
X176821856Y-141114540D01*
X176619387Y-140625736D01*
X176352532Y-140527073D01*
X175379605Y-141500000D01*
X175020395Y-141500000D01*
X174047468Y-140527073D01*
X173780613Y-140625736D01*
X173554092Y-141235461D01*
X148621270Y-141235461D01*
X148512370Y-141126371D01*
X147999100Y-140913243D01*
X147443339Y-140912758D01*
X146929697Y-141124990D01*
X146536371Y-141517630D01*
X146323243Y-142030900D01*
X146322940Y-142378138D01*
X144292270Y-140347468D01*
X174227073Y-140347468D01*
X175200000Y-141320395D01*
X176172927Y-140347468D01*
X176074264Y-140080613D01*
X175464539Y-139854092D01*
X174814540Y-139878144D01*
X174325736Y-140080613D01*
X174227073Y-140347468D01*
X144292270Y-140347468D01*
X144153502Y-140208700D01*
X144944401Y-139417801D01*
X145109148Y-139171239D01*
X145167000Y-138880400D01*
X145167000Y-136751302D01*
X146506632Y-135411670D01*
X146534990Y-135480303D01*
X146927630Y-135873629D01*
X147440900Y-136086757D01*
X147996661Y-136087242D01*
X148510303Y-135875010D01*
X148903629Y-135482370D01*
X149116757Y-134969100D01*
X149117242Y-134413339D01*
X149103857Y-134380945D01*
X152173802Y-131311000D01*
X169443082Y-131311000D01*
X169396371Y-131357630D01*
X169183243Y-131870900D01*
X169182758Y-132426661D01*
X169394990Y-132940303D01*
X169787630Y-133333629D01*
X170300900Y-133546757D01*
X170856661Y-133547242D01*
X171370303Y-133335010D01*
X171763629Y-132942370D01*
X171976757Y-132429100D01*
X171977242Y-131873339D01*
X171765010Y-131359697D01*
X171712041Y-131306636D01*
X171980939Y-131253148D01*
X172227501Y-131088401D01*
X177487801Y-125828101D01*
X177652548Y-125581539D01*
X177710400Y-125290700D01*
X177710400Y-107350400D01*
X177652548Y-107059561D01*
X177487801Y-106812999D01*
X177258892Y-106584090D01*
X177309728Y-106461664D01*
X177310270Y-105841058D01*
X177073275Y-105267486D01*
X176955246Y-105149251D01*
X177126441Y-105039090D01*
X177271431Y-104826890D01*
X177322440Y-104575000D01*
X177322440Y-102725000D01*
X177278162Y-102489683D01*
X177139090Y-102273559D01*
X176926890Y-102128569D01*
X176675000Y-102077560D01*
X174825000Y-102077560D01*
X174589683Y-102121838D01*
X174373559Y-102260910D01*
X174228569Y-102473110D01*
X174177560Y-102725000D01*
X174177560Y-104575000D01*
X174221838Y-104810317D01*
X174360910Y-105026441D01*
X174542874Y-105150771D01*
X174428268Y-105265177D01*
X174190272Y-105838336D01*
X174189730Y-106458942D01*
X174426725Y-107032514D01*
X174865177Y-107471732D01*
X175438336Y-107709728D01*
X176058942Y-107710270D01*
X176183855Y-107658657D01*
X176190400Y-107665202D01*
X176190400Y-115677560D01*
X174775000Y-115677560D01*
X174539683Y-115721838D01*
X174323559Y-115860910D01*
X174178569Y-116073110D01*
X174127560Y-116325000D01*
X174127560Y-118175000D01*
X174171838Y-118410317D01*
X174310910Y-118626441D01*
X174492874Y-118750771D01*
X174378268Y-118865177D01*
X174140272Y-119438336D01*
X174140117Y-119615315D01*
X157937401Y-103412599D01*
X157690839Y-103247852D01*
X157400000Y-103190000D01*
X145947531Y-103190000D01*
X145935010Y-103159697D01*
X145542370Y-102766371D01*
X145029100Y-102553243D01*
X144473339Y-102552758D01*
X143959697Y-102764990D01*
X143566371Y-103157630D01*
X143550224Y-103196517D01*
X143535010Y-103159697D01*
X143142370Y-102766371D01*
X142629100Y-102553243D01*
X142073339Y-102552758D01*
X141559697Y-102764990D01*
X141166371Y-103157630D01*
X140953243Y-103670900D01*
X140952758Y-104226661D01*
X141164990Y-104740303D01*
X141557630Y-105133629D01*
X142070900Y-105346757D01*
X142626661Y-105347242D01*
X142659055Y-105333857D01*
X147792599Y-110467401D01*
X148039161Y-110632148D01*
X148330000Y-110690000D01*
X149361121Y-110690000D01*
X149265243Y-110920900D01*
X149264758Y-111476661D01*
X149476990Y-111990303D01*
X149869630Y-112383629D01*
X150077512Y-112469949D01*
X149871697Y-112554990D01*
X149478371Y-112947630D01*
X149265243Y-113460900D01*
X149264758Y-114016661D01*
X149476990Y-114530303D01*
X149869630Y-114923629D01*
X150077512Y-115009949D01*
X149871697Y-115094990D01*
X149478371Y-115487630D01*
X149265243Y-116000900D01*
X149264758Y-116556661D01*
X149476990Y-117070303D01*
X149869630Y-117463629D01*
X150077512Y-117549949D01*
X149871697Y-117634990D01*
X149478371Y-118027630D01*
X149265243Y-118540900D01*
X149264758Y-119096661D01*
X149476990Y-119610303D01*
X149869630Y-120003629D01*
X150061727Y-120083395D01*
X149930857Y-120137603D01*
X149861392Y-120379787D01*
X150662000Y-121180395D01*
X150676143Y-121166253D01*
X150855748Y-121345858D01*
X150841605Y-121360000D01*
X150855748Y-121374143D01*
X150676143Y-121553748D01*
X150662000Y-121539605D01*
X149861392Y-122340213D01*
X149930857Y-122582397D01*
X150071318Y-122632509D01*
X149871697Y-122714990D01*
X149478371Y-123107630D01*
X149265243Y-123620900D01*
X149264758Y-124176661D01*
X149476990Y-124690303D01*
X149869630Y-125083629D01*
X150077512Y-125169949D01*
X149871697Y-125254990D01*
X149478371Y-125647630D01*
X149265243Y-126160900D01*
X149264758Y-126716661D01*
X149469974Y-127213324D01*
X144207176Y-132476122D01*
X143992811Y-132155302D01*
X143692022Y-131954321D01*
X143670498Y-131846110D01*
X143805134Y-131782389D01*
X144181041Y-131367423D01*
X144341904Y-130979039D01*
X144219915Y-130757000D01*
X143077000Y-130757000D01*
X143077000Y-130777000D01*
X142823000Y-130777000D01*
X142823000Y-130757000D01*
X142803000Y-130757000D01*
X142803000Y-130503000D01*
X142823000Y-130503000D01*
X142823000Y-129359371D01*
X143077000Y-129359371D01*
X143077000Y-130503000D01*
X144219915Y-130503000D01*
X144341904Y-130280961D01*
X144181041Y-129892577D01*
X143805134Y-129477611D01*
X143299041Y-129238086D01*
X143077000Y-129359371D01*
X142823000Y-129359371D01*
X142600959Y-129238086D01*
X142094866Y-129477611D01*
X141718959Y-129892577D01*
X141558096Y-130280961D01*
X141680084Y-130502998D01*
X141575800Y-130502998D01*
X137822183Y-126749381D01*
X137834757Y-126719100D01*
X137835242Y-126163339D01*
X137623010Y-125649697D01*
X137230370Y-125256371D01*
X137022488Y-125170051D01*
X137228303Y-125085010D01*
X137621629Y-124692370D01*
X137834757Y-124179100D01*
X137835242Y-123623339D01*
X137623010Y-123109697D01*
X137230370Y-122716371D01*
X137038273Y-122636605D01*
X137169143Y-122582397D01*
X137238608Y-122340213D01*
X136438000Y-121539605D01*
X135637392Y-122340213D01*
X135706857Y-122582397D01*
X135847318Y-122632509D01*
X135647697Y-122714990D01*
X135254371Y-123107630D01*
X135041243Y-123620900D01*
X135040758Y-124176661D01*
X135252990Y-124690303D01*
X135645630Y-125083629D01*
X135853512Y-125169949D01*
X135647697Y-125254990D01*
X135254371Y-125647630D01*
X135041243Y-126160900D01*
X135040758Y-126716661D01*
X135252990Y-127230303D01*
X135645630Y-127623629D01*
X136158900Y-127836757D01*
X136714661Y-127837242D01*
X136747055Y-127823857D01*
X141505299Y-132582101D01*
X141592268Y-132640212D01*
X141486887Y-133170000D01*
X141559550Y-133535300D01*
X137895402Y-133535300D01*
X136992701Y-132632599D01*
X136746139Y-132467852D01*
X136556437Y-132430118D01*
X136372811Y-132155302D01*
X135990725Y-131900000D01*
X136372811Y-131644698D01*
X136683880Y-131179151D01*
X136793113Y-130630000D01*
X136683880Y-130080849D01*
X136372811Y-129615302D01*
X135907264Y-129304233D01*
X135358113Y-129195000D01*
X135301887Y-129195000D01*
X134752736Y-129304233D01*
X134287189Y-129615302D01*
X133976120Y-130080849D01*
X133910000Y-130413256D01*
X133910000Y-121152302D01*
X135028856Y-121152302D01*
X135056638Y-121707368D01*
X135215603Y-122091143D01*
X135457787Y-122160608D01*
X136258395Y-121360000D01*
X136617605Y-121360000D01*
X137418213Y-122160608D01*
X137660397Y-122091143D01*
X137847144Y-121567698D01*
X137826353Y-121152302D01*
X149252856Y-121152302D01*
X149280638Y-121707368D01*
X149439603Y-122091143D01*
X149681787Y-122160608D01*
X150482395Y-121360000D01*
X149681787Y-120559392D01*
X149439603Y-120628857D01*
X149252856Y-121152302D01*
X137826353Y-121152302D01*
X137819362Y-121012632D01*
X137660397Y-120628857D01*
X137418213Y-120559392D01*
X136617605Y-121360000D01*
X136258395Y-121360000D01*
X135457787Y-120559392D01*
X135215603Y-120628857D01*
X135028856Y-121152302D01*
X133910000Y-121152302D01*
X133910000Y-108936661D01*
X135040758Y-108936661D01*
X135252990Y-109450303D01*
X135645630Y-109843629D01*
X135853512Y-109929949D01*
X135647697Y-110014990D01*
X135254371Y-110407630D01*
X135041243Y-110920900D01*
X135040758Y-111476661D01*
X135252990Y-111990303D01*
X135645630Y-112383629D01*
X135853512Y-112469949D01*
X135647697Y-112554990D01*
X135254371Y-112947630D01*
X135041243Y-113460900D01*
X135040758Y-114016661D01*
X135252990Y-114530303D01*
X135645630Y-114923629D01*
X135853512Y-115009949D01*
X135647697Y-115094990D01*
X135254371Y-115487630D01*
X135041243Y-116000900D01*
X135040758Y-116556661D01*
X135252990Y-117070303D01*
X135645630Y-117463629D01*
X135853512Y-117549949D01*
X135647697Y-117634990D01*
X135254371Y-118027630D01*
X135041243Y-118540900D01*
X135040758Y-119096661D01*
X135252990Y-119610303D01*
X135645630Y-120003629D01*
X135837727Y-120083395D01*
X135706857Y-120137603D01*
X135637392Y-120379787D01*
X136438000Y-121180395D01*
X137238608Y-120379787D01*
X137169143Y-120137603D01*
X137028682Y-120087491D01*
X137228303Y-120005010D01*
X137621629Y-119612370D01*
X137834757Y-119099100D01*
X137835242Y-118543339D01*
X137623010Y-118029697D01*
X137230370Y-117636371D01*
X137022488Y-117550051D01*
X137228303Y-117465010D01*
X137621629Y-117072370D01*
X137834757Y-116559100D01*
X137835242Y-116003339D01*
X137623010Y-115489697D01*
X137230370Y-115096371D01*
X137022488Y-115010051D01*
X137228303Y-114925010D01*
X137621629Y-114532370D01*
X137834757Y-114019100D01*
X137835242Y-113463339D01*
X137623010Y-112949697D01*
X137230370Y-112556371D01*
X137022488Y-112470051D01*
X137228303Y-112385010D01*
X137621629Y-111992370D01*
X137834757Y-111479100D01*
X137835242Y-110923339D01*
X137623010Y-110409697D01*
X137230370Y-110016371D01*
X137022488Y-109930051D01*
X137228303Y-109845010D01*
X137621629Y-109452370D01*
X137834757Y-108939100D01*
X137835242Y-108383339D01*
X137623010Y-107869697D01*
X137230370Y-107476371D01*
X136717100Y-107263243D01*
X136161339Y-107262758D01*
X135647697Y-107474990D01*
X135254371Y-107867630D01*
X135041243Y-108380900D01*
X135040758Y-108936661D01*
X133910000Y-108936661D01*
X133910000Y-94942316D01*
X134373352Y-95134716D01*
X135023795Y-95135284D01*
X135624943Y-94886894D01*
X136085278Y-94427363D01*
X136154773Y-94260000D01*
X139744953Y-94260000D01*
X139813106Y-94424943D01*
X140272637Y-94885278D01*
X140873352Y-95134716D01*
X141523795Y-95135284D01*
X142124943Y-94886894D01*
X142585278Y-94427363D01*
X142731591Y-94075000D01*
X145227560Y-94075000D01*
X145227560Y-95925000D01*
X145271838Y-96160317D01*
X145410910Y-96376441D01*
X145623110Y-96521431D01*
X145875000Y-96572440D01*
X147725000Y-96572440D01*
X147960317Y-96528162D01*
X148176441Y-96389090D01*
X148321431Y-96176890D01*
X148326183Y-96153425D01*
X148381350Y-96098258D01*
X148470821Y-96357332D01*
X149053368Y-96571325D01*
X149673461Y-96546097D01*
X150129179Y-96357332D01*
X150218651Y-96098256D01*
X149300000Y-95179605D01*
X149285858Y-95193748D01*
X149106253Y-95014143D01*
X149120395Y-95000000D01*
X149479605Y-95000000D01*
X150398256Y-95918651D01*
X150657332Y-95829179D01*
X150871325Y-95246632D01*
X150846097Y-94626539D01*
X150657332Y-94170821D01*
X150398256Y-94081349D01*
X149479605Y-95000000D01*
X149120395Y-95000000D01*
X149106253Y-94985858D01*
X149285858Y-94806253D01*
X149300000Y-94820395D01*
X150218651Y-93901744D01*
X150129179Y-93642668D01*
X149546632Y-93428675D01*
X148926539Y-93453903D01*
X148470821Y-93642668D01*
X148381350Y-93901742D01*
X148330218Y-93850610D01*
X148328162Y-93839683D01*
X148189090Y-93623559D01*
X147976890Y-93478569D01*
X147725000Y-93427560D01*
X145875000Y-93427560D01*
X145639683Y-93471838D01*
X145423559Y-93610910D01*
X145278569Y-93823110D01*
X145227560Y-94075000D01*
X142731591Y-94075000D01*
X142834716Y-93826648D01*
X142835284Y-93176205D01*
X142586894Y-92575057D01*
X142127363Y-92114722D01*
X141526648Y-91865284D01*
X140876205Y-91864716D01*
X140275057Y-92113106D01*
X139814722Y-92572637D01*
X139745227Y-92740000D01*
X136155047Y-92740000D01*
X136086894Y-92575057D01*
X135627363Y-92114722D01*
X135026648Y-91865284D01*
X134376205Y-91864716D01*
X133910000Y-92057349D01*
X133910000Y-90450692D01*
X134435461Y-90645908D01*
X135085460Y-90621856D01*
X135574264Y-90419387D01*
X135672927Y-90152532D01*
X140227073Y-90152532D01*
X140325736Y-90419387D01*
X140935461Y-90645908D01*
X141585460Y-90621856D01*
X142074264Y-90419387D01*
X142172927Y-90152532D01*
X174227073Y-90152532D01*
X174325736Y-90419387D01*
X174935461Y-90645908D01*
X175585460Y-90621856D01*
X176074264Y-90419387D01*
X176172927Y-90152532D01*
X175200000Y-89179605D01*
X174227073Y-90152532D01*
X142172927Y-90152532D01*
X141200000Y-89179605D01*
X140227073Y-90152532D01*
X135672927Y-90152532D01*
X134700000Y-89179605D01*
X134685858Y-89193748D01*
X134506253Y-89014143D01*
X134520395Y-89000000D01*
X134506253Y-88985858D01*
X134685858Y-88806253D01*
X134700000Y-88820395D01*
X134714143Y-88806253D01*
X134893748Y-88985858D01*
X134879605Y-89000000D01*
X135852532Y-89972927D01*
X136119387Y-89874264D01*
X136345908Y-89264539D01*
X136321856Y-88614540D01*
X136154290Y-88210000D01*
X139749308Y-88210000D01*
X139554092Y-88735461D01*
M02*
