M48
;DRILL file {KiCad 4.0.6+dfsg1-1} date Mon Jan 15 21:58:46 2018
;FORMAT={-:-/ absolute / metric / decimal}
FMAT,2
METRIC,TZ
T1C0.800
T2C1.000
T3C1.100
%
G90
G05
M71
T1
X138.7Y-102.2
X138.7Y-104.74
X138.7Y-107.28
X138.7Y-109.82
X146.32Y-102.2
X146.32Y-104.74
X146.32Y-107.28
X146.32Y-109.82
X157.75Y-108.97
X157.75Y-131.83
X160.29Y-108.97
X167.91Y-108.97
X170.45Y-108.97
X170.45Y-131.83
T2
X126.Y-107.3
X126.Y-109.8
X126.Y-117.
X126.Y-119.5
X134.67Y-120.21
X134.67Y-122.75
X134.67Y-125.29
X134.67Y-127.83
X134.67Y-130.37
X134.67Y-132.91
X134.67Y-135.45
X134.67Y-137.99
X148.5Y-92.7
X151.Y-92.7
X152.13Y-120.21
X152.13Y-122.75
X152.13Y-125.29
X152.13Y-127.83
X152.13Y-130.37
X152.13Y-132.91
X152.13Y-135.45
X152.13Y-137.99
X177.6Y-124.8
X177.6Y-127.3
T3
X123.7Y-90.
X123.7Y-94.5
X123.7Y-139.5
X123.7Y-144.
X130.2Y-90.
X130.2Y-94.5
X130.2Y-139.5
X130.2Y-144.
X174.2Y-90.
X174.2Y-94.5
X174.2Y-139.5
X174.2Y-144.
X180.7Y-90.
X180.7Y-94.5
X180.7Y-139.5
X180.7Y-144.
T0
M30
