G04 #@! TF.FileFunction,Copper,L1,Top,Signal*
%FSLAX46Y46*%
G04 Gerber Fmt 4.6, Leading zero omitted, Abs format (unit mm)*
G04 Created by KiCad (PCBNEW 4.0.6+dfsg1-1) date Thu May  3 14:08:41 2018*
%MOMM*%
%LPD*%
G01*
G04 APERTURE LIST*
%ADD10C,0.100000*%
%ADD11C,1.524000*%
%ADD12R,1.700000X1.700000*%
%ADD13O,2.000000X1.700000*%
%ADD14C,2.000000*%
%ADD15R,2.000000X1.800000*%
%ADD16O,2.000000X1.800000*%
%ADD17C,0.250000*%
%ADD18C,0.254000*%
G04 APERTURE END LIST*
D10*
D11*
X157250000Y-122700000D03*
X169250000Y-122700000D03*
D12*
X180500000Y-102300000D03*
D13*
X180500000Y-104840000D03*
X180500000Y-107380000D03*
X180500000Y-109920000D03*
X180500000Y-112460000D03*
X180500000Y-115000000D03*
X180500000Y-117540000D03*
X180500000Y-120080000D03*
D14*
X134700000Y-93500000D03*
X134700000Y-89000000D03*
X141200000Y-93500000D03*
X141200000Y-89000000D03*
X175200000Y-93500000D03*
X175200000Y-89000000D03*
X181700000Y-93500000D03*
X181700000Y-89000000D03*
X175200000Y-146000000D03*
X175200000Y-141500000D03*
X181700000Y-146000000D03*
X181700000Y-141500000D03*
X134700000Y-146000000D03*
X134700000Y-141500000D03*
X141200000Y-146000000D03*
X141200000Y-141500000D03*
X147720000Y-142310000D03*
X147720000Y-134690000D03*
X147720000Y-131946800D03*
X147720000Y-145053200D03*
X170580000Y-131743600D03*
X170580000Y-145256400D03*
D15*
X142950000Y-138250000D03*
D16*
X135330000Y-130630000D03*
X142950000Y-135710000D03*
X135330000Y-133170000D03*
X142950000Y-133170000D03*
X135330000Y-135710000D03*
X142950000Y-130630000D03*
X135330000Y-138250000D03*
X151070000Y-126540000D03*
X151070000Y-124000000D03*
X151070000Y-121460000D03*
X151070000Y-118920000D03*
X151070000Y-116380000D03*
X151070000Y-113840000D03*
X151070000Y-111300000D03*
X151070000Y-108760000D03*
X135830000Y-126540000D03*
X135830000Y-124000000D03*
X135830000Y-121460000D03*
X135830000Y-118920000D03*
X135830000Y-116380000D03*
X135830000Y-113840000D03*
X135830000Y-111300000D03*
D15*
X135830000Y-108760000D03*
D14*
X144825000Y-99050000D03*
X142050000Y-99050000D03*
D17*
X157250000Y-115629200D02*
X157250000Y-122700000D01*
X151606100Y-109985300D02*
X157250000Y-115629200D01*
X151070000Y-109985300D02*
X151606100Y-109985300D01*
X151070000Y-108760000D02*
X151070000Y-109985300D01*
X139244700Y-144044700D02*
X136655300Y-144044700D01*
X141200000Y-146000000D02*
X139244700Y-144044700D01*
X136655300Y-144044700D02*
X134700000Y-146000000D01*
X135330000Y-135710000D02*
X134004700Y-135710000D01*
X134004700Y-94195300D02*
X134004700Y-135710000D01*
X134700000Y-93500000D02*
X134004700Y-94195300D01*
X136655300Y-141419200D02*
X136655300Y-144044700D01*
X134004700Y-138768600D02*
X136655300Y-141419200D01*
X134004700Y-135710000D02*
X134004700Y-138768600D01*
X135866100Y-137024700D02*
X135330000Y-137024700D01*
X137629600Y-135261200D02*
X135866100Y-137024700D01*
X137629600Y-133049600D02*
X137629600Y-135261200D01*
X150533900Y-120145300D02*
X137629600Y-133049600D01*
X151070000Y-120145300D02*
X150533900Y-120145300D01*
X151070000Y-118920000D02*
X151070000Y-120145300D01*
X135330000Y-138250000D02*
X135330000Y-137024700D01*
X181014200Y-103475300D02*
X180500000Y-103475300D01*
X181825300Y-104286400D02*
X181014200Y-103475300D01*
X181825300Y-105334800D02*
X181825300Y-104286400D01*
X181050100Y-106110000D02*
X181825300Y-105334800D01*
X179953000Y-106110000D02*
X181050100Y-106110000D01*
X147720000Y-138343000D02*
X179953000Y-106110000D01*
X147720000Y-142310000D02*
X147720000Y-138343000D01*
X180500000Y-102300000D02*
X180500000Y-103475300D01*
X177570000Y-104840000D02*
X180500000Y-104840000D01*
X147720000Y-134690000D02*
X177570000Y-104840000D01*
X179985800Y-108555300D02*
X180500000Y-108555300D01*
X173206300Y-115334800D02*
X179985800Y-108555300D01*
X173206300Y-129117300D02*
X173206300Y-115334800D01*
X170580000Y-131743600D02*
X173206300Y-129117300D01*
X180500000Y-107380000D02*
X180500000Y-108555300D01*
X180500000Y-109920000D02*
X180500000Y-111095300D01*
X179985800Y-111095300D02*
X180500000Y-111095300D01*
X174799900Y-116281200D02*
X179985800Y-111095300D01*
X174799900Y-129643700D02*
X174799900Y-116281200D01*
X170580000Y-133863600D02*
X174799900Y-129643700D01*
X170580000Y-145256400D02*
X170580000Y-133863600D01*
X141200000Y-133069200D02*
X141200000Y-141500000D01*
X142413900Y-131855300D02*
X141200000Y-133069200D01*
X142950000Y-131855300D02*
X142413900Y-131855300D01*
X142950000Y-130630000D02*
X142950000Y-131855300D01*
X135830000Y-121460000D02*
X135830000Y-120234700D01*
X138699300Y-91500700D02*
X141200000Y-89000000D01*
X137200700Y-91500700D02*
X138699300Y-91500700D01*
X137200700Y-119400100D02*
X137200700Y-91500700D01*
X136366100Y-120234700D02*
X137200700Y-119400100D01*
X135830000Y-120234700D02*
X136366100Y-120234700D01*
X137200700Y-91500700D02*
X134700000Y-89000000D01*
X180500000Y-117540000D02*
X180500000Y-116364700D01*
X176546400Y-90346400D02*
X175200000Y-89000000D01*
X180353600Y-90346400D02*
X176546400Y-90346400D01*
X180353600Y-95066500D02*
X180353600Y-90346400D01*
X182327900Y-97040800D02*
X180353600Y-95066500D01*
X182327900Y-115051000D02*
X182327900Y-97040800D01*
X181014200Y-116364700D02*
X182327900Y-115051000D01*
X180500000Y-116364700D02*
X181014200Y-116364700D01*
X180353600Y-90346400D02*
X181700000Y-89000000D01*
D18*
G36*
X182490000Y-140049308D02*
X181964539Y-139854092D01*
X181314540Y-139878144D01*
X180825736Y-140080613D01*
X180727073Y-140347468D01*
X181700000Y-141320395D01*
X181714143Y-141306253D01*
X181893748Y-141485858D01*
X181879605Y-141500000D01*
X181893748Y-141514143D01*
X181714143Y-141693748D01*
X181700000Y-141679605D01*
X180727073Y-142652532D01*
X180825736Y-142919387D01*
X181435461Y-143145908D01*
X182085460Y-143121856D01*
X182490000Y-142954290D01*
X182490000Y-144557684D01*
X182026648Y-144365284D01*
X181376205Y-144364716D01*
X180775057Y-144613106D01*
X180314722Y-145072637D01*
X180065284Y-145673352D01*
X180064716Y-146323795D01*
X180257349Y-146790000D01*
X176642316Y-146790000D01*
X176834716Y-146326648D01*
X176835284Y-145676205D01*
X176586894Y-145075057D01*
X176127363Y-144614722D01*
X175526648Y-144365284D01*
X174876205Y-144364716D01*
X174275057Y-144613106D01*
X173814722Y-145072637D01*
X173565284Y-145673352D01*
X173564716Y-146323795D01*
X173757349Y-146790000D01*
X171149888Y-146790000D01*
X171504943Y-146643294D01*
X171965278Y-146183763D01*
X172214716Y-145583048D01*
X172215284Y-144932605D01*
X171966894Y-144331457D01*
X171507363Y-143871122D01*
X171340000Y-143801627D01*
X171340000Y-142652532D01*
X174227073Y-142652532D01*
X174325736Y-142919387D01*
X174935461Y-143145908D01*
X175585460Y-143121856D01*
X176074264Y-142919387D01*
X176172927Y-142652532D01*
X175200000Y-141679605D01*
X174227073Y-142652532D01*
X171340000Y-142652532D01*
X171340000Y-141235461D01*
X173554092Y-141235461D01*
X173578144Y-141885460D01*
X173780613Y-142374264D01*
X174047468Y-142472927D01*
X175020395Y-141500000D01*
X175379605Y-141500000D01*
X176352532Y-142472927D01*
X176619387Y-142374264D01*
X176845908Y-141764539D01*
X176826331Y-141235461D01*
X180054092Y-141235461D01*
X180078144Y-141885460D01*
X180280613Y-142374264D01*
X180547468Y-142472927D01*
X181520395Y-141500000D01*
X180547468Y-140527073D01*
X180280613Y-140625736D01*
X180054092Y-141235461D01*
X176826331Y-141235461D01*
X176821856Y-141114540D01*
X176619387Y-140625736D01*
X176352532Y-140527073D01*
X175379605Y-141500000D01*
X175020395Y-141500000D01*
X174047468Y-140527073D01*
X173780613Y-140625736D01*
X173554092Y-141235461D01*
X171340000Y-141235461D01*
X171340000Y-140347468D01*
X174227073Y-140347468D01*
X175200000Y-141320395D01*
X176172927Y-140347468D01*
X176074264Y-140080613D01*
X175464539Y-139854092D01*
X174814540Y-139878144D01*
X174325736Y-140080613D01*
X174227073Y-140347468D01*
X171340000Y-140347468D01*
X171340000Y-134178402D01*
X175337301Y-130181101D01*
X175502048Y-129934539D01*
X175559900Y-129643700D01*
X175559900Y-128995769D01*
X176216001Y-129434162D01*
X177100000Y-129610000D01*
X177983999Y-129434162D01*
X178733417Y-128933417D01*
X179234162Y-128183999D01*
X179410000Y-127300000D01*
X179234162Y-126416001D01*
X178733417Y-125666583D01*
X177983999Y-125165838D01*
X177100000Y-124990000D01*
X176216001Y-125165838D01*
X175559900Y-125604231D01*
X175559900Y-120080000D01*
X178832968Y-120080000D01*
X178946007Y-120648285D01*
X179267914Y-121130054D01*
X179749683Y-121451961D01*
X180317968Y-121565000D01*
X180682032Y-121565000D01*
X181250317Y-121451961D01*
X181732086Y-121130054D01*
X182053993Y-120648285D01*
X182167032Y-120080000D01*
X182053993Y-119511715D01*
X181732086Y-119029946D01*
X181410915Y-118815347D01*
X181838664Y-118432045D01*
X182089553Y-117909260D01*
X182091476Y-117896890D01*
X181970155Y-117667000D01*
X180627000Y-117667000D01*
X180627000Y-117687000D01*
X180373000Y-117687000D01*
X180373000Y-117667000D01*
X179029845Y-117667000D01*
X178908524Y-117896890D01*
X178910447Y-117909260D01*
X179161336Y-118432045D01*
X179589085Y-118815347D01*
X179267914Y-119029946D01*
X178946007Y-119511715D01*
X178832968Y-120080000D01*
X175559900Y-120080000D01*
X175559900Y-116596002D01*
X179018750Y-113137152D01*
X179267914Y-113510054D01*
X179597087Y-113730000D01*
X179267914Y-113949946D01*
X178946007Y-114431715D01*
X178832968Y-115000000D01*
X178946007Y-115568285D01*
X179267914Y-116050054D01*
X179589085Y-116264653D01*
X179161336Y-116647955D01*
X178910447Y-117170740D01*
X178908524Y-117183110D01*
X179029845Y-117413000D01*
X180373000Y-117413000D01*
X180373000Y-117393000D01*
X180627000Y-117393000D01*
X180627000Y-117413000D01*
X181970155Y-117413000D01*
X182091476Y-117183110D01*
X182089553Y-117170740D01*
X181838664Y-116647955D01*
X181410915Y-116264653D01*
X181732086Y-116050054D01*
X182053993Y-115568285D01*
X182167032Y-115000000D01*
X182053993Y-114431715D01*
X181732086Y-113949946D01*
X181402913Y-113730000D01*
X181732086Y-113510054D01*
X182053993Y-113028285D01*
X182167032Y-112460000D01*
X182053993Y-111891715D01*
X181732086Y-111409946D01*
X181402913Y-111190000D01*
X181732086Y-110970054D01*
X182053993Y-110488285D01*
X182167032Y-109920000D01*
X182053993Y-109351715D01*
X181732086Y-108869946D01*
X181402913Y-108650000D01*
X181732086Y-108430054D01*
X182053993Y-107948285D01*
X182167032Y-107380000D01*
X182053993Y-106811715D01*
X181801328Y-106433574D01*
X182362701Y-105872201D01*
X182490000Y-105681685D01*
X182490000Y-140049308D01*
X182490000Y-140049308D01*
G37*
X182490000Y-140049308D02*
X181964539Y-139854092D01*
X181314540Y-139878144D01*
X180825736Y-140080613D01*
X180727073Y-140347468D01*
X181700000Y-141320395D01*
X181714143Y-141306253D01*
X181893748Y-141485858D01*
X181879605Y-141500000D01*
X181893748Y-141514143D01*
X181714143Y-141693748D01*
X181700000Y-141679605D01*
X180727073Y-142652532D01*
X180825736Y-142919387D01*
X181435461Y-143145908D01*
X182085460Y-143121856D01*
X182490000Y-142954290D01*
X182490000Y-144557684D01*
X182026648Y-144365284D01*
X181376205Y-144364716D01*
X180775057Y-144613106D01*
X180314722Y-145072637D01*
X180065284Y-145673352D01*
X180064716Y-146323795D01*
X180257349Y-146790000D01*
X176642316Y-146790000D01*
X176834716Y-146326648D01*
X176835284Y-145676205D01*
X176586894Y-145075057D01*
X176127363Y-144614722D01*
X175526648Y-144365284D01*
X174876205Y-144364716D01*
X174275057Y-144613106D01*
X173814722Y-145072637D01*
X173565284Y-145673352D01*
X173564716Y-146323795D01*
X173757349Y-146790000D01*
X171149888Y-146790000D01*
X171504943Y-146643294D01*
X171965278Y-146183763D01*
X172214716Y-145583048D01*
X172215284Y-144932605D01*
X171966894Y-144331457D01*
X171507363Y-143871122D01*
X171340000Y-143801627D01*
X171340000Y-142652532D01*
X174227073Y-142652532D01*
X174325736Y-142919387D01*
X174935461Y-143145908D01*
X175585460Y-143121856D01*
X176074264Y-142919387D01*
X176172927Y-142652532D01*
X175200000Y-141679605D01*
X174227073Y-142652532D01*
X171340000Y-142652532D01*
X171340000Y-141235461D01*
X173554092Y-141235461D01*
X173578144Y-141885460D01*
X173780613Y-142374264D01*
X174047468Y-142472927D01*
X175020395Y-141500000D01*
X175379605Y-141500000D01*
X176352532Y-142472927D01*
X176619387Y-142374264D01*
X176845908Y-141764539D01*
X176826331Y-141235461D01*
X180054092Y-141235461D01*
X180078144Y-141885460D01*
X180280613Y-142374264D01*
X180547468Y-142472927D01*
X181520395Y-141500000D01*
X180547468Y-140527073D01*
X180280613Y-140625736D01*
X180054092Y-141235461D01*
X176826331Y-141235461D01*
X176821856Y-141114540D01*
X176619387Y-140625736D01*
X176352532Y-140527073D01*
X175379605Y-141500000D01*
X175020395Y-141500000D01*
X174047468Y-140527073D01*
X173780613Y-140625736D01*
X173554092Y-141235461D01*
X171340000Y-141235461D01*
X171340000Y-140347468D01*
X174227073Y-140347468D01*
X175200000Y-141320395D01*
X176172927Y-140347468D01*
X176074264Y-140080613D01*
X175464539Y-139854092D01*
X174814540Y-139878144D01*
X174325736Y-140080613D01*
X174227073Y-140347468D01*
X171340000Y-140347468D01*
X171340000Y-134178402D01*
X175337301Y-130181101D01*
X175502048Y-129934539D01*
X175559900Y-129643700D01*
X175559900Y-128995769D01*
X176216001Y-129434162D01*
X177100000Y-129610000D01*
X177983999Y-129434162D01*
X178733417Y-128933417D01*
X179234162Y-128183999D01*
X179410000Y-127300000D01*
X179234162Y-126416001D01*
X178733417Y-125666583D01*
X177983999Y-125165838D01*
X177100000Y-124990000D01*
X176216001Y-125165838D01*
X175559900Y-125604231D01*
X175559900Y-120080000D01*
X178832968Y-120080000D01*
X178946007Y-120648285D01*
X179267914Y-121130054D01*
X179749683Y-121451961D01*
X180317968Y-121565000D01*
X180682032Y-121565000D01*
X181250317Y-121451961D01*
X181732086Y-121130054D01*
X182053993Y-120648285D01*
X182167032Y-120080000D01*
X182053993Y-119511715D01*
X181732086Y-119029946D01*
X181410915Y-118815347D01*
X181838664Y-118432045D01*
X182089553Y-117909260D01*
X182091476Y-117896890D01*
X181970155Y-117667000D01*
X180627000Y-117667000D01*
X180627000Y-117687000D01*
X180373000Y-117687000D01*
X180373000Y-117667000D01*
X179029845Y-117667000D01*
X178908524Y-117896890D01*
X178910447Y-117909260D01*
X179161336Y-118432045D01*
X179589085Y-118815347D01*
X179267914Y-119029946D01*
X178946007Y-119511715D01*
X178832968Y-120080000D01*
X175559900Y-120080000D01*
X175559900Y-116596002D01*
X179018750Y-113137152D01*
X179267914Y-113510054D01*
X179597087Y-113730000D01*
X179267914Y-113949946D01*
X178946007Y-114431715D01*
X178832968Y-115000000D01*
X178946007Y-115568285D01*
X179267914Y-116050054D01*
X179589085Y-116264653D01*
X179161336Y-116647955D01*
X178910447Y-117170740D01*
X178908524Y-117183110D01*
X179029845Y-117413000D01*
X180373000Y-117413000D01*
X180373000Y-117393000D01*
X180627000Y-117393000D01*
X180627000Y-117413000D01*
X181970155Y-117413000D01*
X182091476Y-117183110D01*
X182089553Y-117170740D01*
X181838664Y-116647955D01*
X181410915Y-116264653D01*
X181732086Y-116050054D01*
X182053993Y-115568285D01*
X182167032Y-115000000D01*
X182053993Y-114431715D01*
X181732086Y-113949946D01*
X181402913Y-113730000D01*
X181732086Y-113510054D01*
X182053993Y-113028285D01*
X182167032Y-112460000D01*
X182053993Y-111891715D01*
X181732086Y-111409946D01*
X181402913Y-111190000D01*
X181732086Y-110970054D01*
X182053993Y-110488285D01*
X182167032Y-109920000D01*
X182053993Y-109351715D01*
X181732086Y-108869946D01*
X181402913Y-108650000D01*
X181732086Y-108430054D01*
X182053993Y-107948285D01*
X182167032Y-107380000D01*
X182053993Y-106811715D01*
X181801328Y-106433574D01*
X182362701Y-105872201D01*
X182490000Y-105681685D01*
X182490000Y-140049308D01*
G36*
X179199914Y-105788284D02*
X147182599Y-137805599D01*
X147017852Y-138052161D01*
X146960000Y-138343000D01*
X146960000Y-140854953D01*
X146795057Y-140923106D01*
X146334722Y-141382637D01*
X146085284Y-141983352D01*
X146084716Y-142633795D01*
X146333106Y-143234943D01*
X146779359Y-143681977D01*
X146334722Y-144125837D01*
X146085284Y-144726552D01*
X146084716Y-145376995D01*
X146333106Y-145978143D01*
X146792637Y-146438478D01*
X147393352Y-146687916D01*
X148043795Y-146688484D01*
X148644943Y-146440094D01*
X149105278Y-145980563D01*
X149354716Y-145379848D01*
X149355284Y-144729405D01*
X149106894Y-144128257D01*
X148660641Y-143681223D01*
X149105278Y-143237363D01*
X149354716Y-142636648D01*
X149355284Y-141986205D01*
X149106894Y-141385057D01*
X148647363Y-140924722D01*
X148480000Y-140855227D01*
X148480000Y-138657802D01*
X159837802Y-127300000D01*
X167590000Y-127300000D01*
X167765838Y-128183999D01*
X168266583Y-128933417D01*
X169016001Y-129434162D01*
X169900000Y-129610000D01*
X170783999Y-129434162D01*
X171533417Y-128933417D01*
X172034162Y-128183999D01*
X172210000Y-127300000D01*
X172034162Y-126416001D01*
X171533417Y-125666583D01*
X170783999Y-125165838D01*
X169900000Y-124990000D01*
X169016001Y-125165838D01*
X168266583Y-125666583D01*
X167765838Y-126416001D01*
X167590000Y-127300000D01*
X159837802Y-127300000D01*
X164161141Y-122976661D01*
X167852758Y-122976661D01*
X168064990Y-123490303D01*
X168457630Y-123883629D01*
X168970900Y-124096757D01*
X169526661Y-124097242D01*
X170040303Y-123885010D01*
X170433629Y-123492370D01*
X170646757Y-122979100D01*
X170647242Y-122423339D01*
X170435010Y-121909697D01*
X170042370Y-121516371D01*
X169529100Y-121303243D01*
X168973339Y-121302758D01*
X168459697Y-121514990D01*
X168066371Y-121907630D01*
X167853243Y-122420900D01*
X167852758Y-122976661D01*
X164161141Y-122976661D01*
X179043543Y-108094259D01*
X179175120Y-108291178D01*
X172668899Y-114797399D01*
X172504152Y-115043961D01*
X172446300Y-115334800D01*
X172446300Y-128802498D01*
X171071473Y-130177325D01*
X170906648Y-130108884D01*
X170256205Y-130108316D01*
X169655057Y-130356706D01*
X169194722Y-130816237D01*
X168945284Y-131416952D01*
X168944716Y-132067395D01*
X169193106Y-132668543D01*
X169652637Y-133128878D01*
X170067609Y-133301189D01*
X170042599Y-133326199D01*
X169877852Y-133572761D01*
X169820000Y-133863600D01*
X169820000Y-143801353D01*
X169655057Y-143869506D01*
X169194722Y-144329037D01*
X168945284Y-144929752D01*
X168944716Y-145580195D01*
X169193106Y-146181343D01*
X169652637Y-146641678D01*
X170009837Y-146790000D01*
X142642316Y-146790000D01*
X142834716Y-146326648D01*
X142835284Y-145676205D01*
X142586894Y-145075057D01*
X142127363Y-144614722D01*
X141526648Y-144365284D01*
X140876205Y-144364716D01*
X140708721Y-144433919D01*
X139782101Y-143507299D01*
X139535539Y-143342552D01*
X139244700Y-143284700D01*
X137415300Y-143284700D01*
X137415300Y-142652532D01*
X140227073Y-142652532D01*
X140325736Y-142919387D01*
X140935461Y-143145908D01*
X141585460Y-143121856D01*
X142074264Y-142919387D01*
X142172927Y-142652532D01*
X141200000Y-141679605D01*
X140227073Y-142652532D01*
X137415300Y-142652532D01*
X137415300Y-141419200D01*
X137378752Y-141235461D01*
X139554092Y-141235461D01*
X139578144Y-141885460D01*
X139780613Y-142374264D01*
X140047468Y-142472927D01*
X141020395Y-141500000D01*
X141379605Y-141500000D01*
X142352532Y-142472927D01*
X142619387Y-142374264D01*
X142845908Y-141764539D01*
X142821856Y-141114540D01*
X142619387Y-140625736D01*
X142352532Y-140527073D01*
X141379605Y-141500000D01*
X141020395Y-141500000D01*
X140047468Y-140527073D01*
X139780613Y-140625736D01*
X139554092Y-141235461D01*
X137378752Y-141235461D01*
X137357448Y-141128361D01*
X137357448Y-141128360D01*
X137192701Y-140881799D01*
X136658370Y-140347468D01*
X140227073Y-140347468D01*
X141200000Y-141320395D01*
X142172927Y-140347468D01*
X142074264Y-140080613D01*
X141464539Y-139854092D01*
X140814540Y-139878144D01*
X140325736Y-140080613D01*
X140227073Y-140347468D01*
X136658370Y-140347468D01*
X135990736Y-139679834D01*
X136049451Y-139668155D01*
X136547441Y-139335409D01*
X136880187Y-138837419D01*
X136997032Y-138250000D01*
X136880187Y-137662581D01*
X136649007Y-137316595D01*
X138167001Y-135798601D01*
X138331748Y-135552039D01*
X138389600Y-135261200D01*
X138389600Y-133364402D01*
X138584002Y-133170000D01*
X141282968Y-133170000D01*
X141399813Y-133757419D01*
X141732559Y-134255409D01*
X142008819Y-134440000D01*
X141732559Y-134624591D01*
X141399813Y-135122581D01*
X141282968Y-135710000D01*
X141399813Y-136297419D01*
X141704488Y-136753398D01*
X141498559Y-136885910D01*
X141353569Y-137098110D01*
X141302560Y-137350000D01*
X141302560Y-139150000D01*
X141346838Y-139385317D01*
X141485910Y-139601441D01*
X141698110Y-139746431D01*
X141950000Y-139797440D01*
X143950000Y-139797440D01*
X144185317Y-139753162D01*
X144401441Y-139614090D01*
X144546431Y-139401890D01*
X144597440Y-139150000D01*
X144597440Y-137350000D01*
X144553162Y-137114683D01*
X144414090Y-136898559D01*
X144201890Y-136753569D01*
X144196171Y-136752411D01*
X144500187Y-136297419D01*
X144617032Y-135710000D01*
X144500187Y-135122581D01*
X144167441Y-134624591D01*
X143891181Y-134440000D01*
X144167441Y-134255409D01*
X144500187Y-133757419D01*
X144617032Y-133170000D01*
X144500187Y-132582581D01*
X144167441Y-132084591D01*
X143895946Y-131903184D01*
X144306809Y-131509752D01*
X144541036Y-130994740D01*
X144420378Y-130757000D01*
X143077000Y-130757000D01*
X143077000Y-130777000D01*
X142823000Y-130777000D01*
X142823000Y-130757000D01*
X141479622Y-130757000D01*
X141358964Y-130994740D01*
X141593191Y-131509752D01*
X142004054Y-131903184D01*
X141732559Y-132084591D01*
X141399813Y-132582581D01*
X141282968Y-133170000D01*
X138584002Y-133170000D01*
X141402655Y-130351347D01*
X141479622Y-130503000D01*
X142823000Y-130503000D01*
X142823000Y-129254865D01*
X143077000Y-129254865D01*
X143077000Y-130503000D01*
X144420378Y-130503000D01*
X144541036Y-130265260D01*
X144306809Y-129750248D01*
X143874474Y-129336255D01*
X143316620Y-129119223D01*
X143077000Y-129254865D01*
X142823000Y-129254865D01*
X142616200Y-129137802D01*
X149619736Y-122134266D01*
X149713191Y-122339752D01*
X150124054Y-122733184D01*
X149852559Y-122914591D01*
X149519813Y-123412581D01*
X149402968Y-124000000D01*
X149519813Y-124587419D01*
X149852559Y-125085409D01*
X150128819Y-125270000D01*
X149852559Y-125454591D01*
X149519813Y-125952581D01*
X149402968Y-126540000D01*
X149519813Y-127127419D01*
X149852559Y-127625409D01*
X150350549Y-127958155D01*
X150937968Y-128075000D01*
X151202032Y-128075000D01*
X151789451Y-127958155D01*
X152287441Y-127625409D01*
X152620187Y-127127419D01*
X152737032Y-126540000D01*
X152620187Y-125952581D01*
X152287441Y-125454591D01*
X152011181Y-125270000D01*
X152287441Y-125085409D01*
X152620187Y-124587419D01*
X152737032Y-124000000D01*
X152620187Y-123412581D01*
X152287441Y-122914591D01*
X152015946Y-122733184D01*
X152426809Y-122339752D01*
X152661036Y-121824740D01*
X152540378Y-121587000D01*
X151197000Y-121587000D01*
X151197000Y-121607000D01*
X150943000Y-121607000D01*
X150943000Y-121587000D01*
X150923000Y-121587000D01*
X150923000Y-121333000D01*
X150943000Y-121333000D01*
X150943000Y-121313000D01*
X151197000Y-121313000D01*
X151197000Y-121333000D01*
X152540378Y-121333000D01*
X152661036Y-121095260D01*
X152426809Y-120580248D01*
X152015946Y-120186816D01*
X152287441Y-120005409D01*
X152620187Y-119507419D01*
X152737032Y-118920000D01*
X152620187Y-118332581D01*
X152287441Y-117834591D01*
X152011181Y-117650000D01*
X152287441Y-117465409D01*
X152620187Y-116967419D01*
X152737032Y-116380000D01*
X152620187Y-115792581D01*
X152287441Y-115294591D01*
X152011181Y-115110000D01*
X152287441Y-114925409D01*
X152620187Y-114427419D01*
X152737032Y-113840000D01*
X152620187Y-113252581D01*
X152287441Y-112754591D01*
X152011181Y-112570000D01*
X152287441Y-112385409D01*
X152545377Y-111999379D01*
X156490000Y-115944002D01*
X156490000Y-121502469D01*
X156459697Y-121514990D01*
X156066371Y-121907630D01*
X155853243Y-122420900D01*
X155852758Y-122976661D01*
X156064990Y-123490303D01*
X156457630Y-123883629D01*
X156970900Y-124096757D01*
X157238208Y-124096990D01*
X149354972Y-131980226D01*
X149355284Y-131623005D01*
X149106894Y-131021857D01*
X148647363Y-130561522D01*
X148046648Y-130312084D01*
X147396205Y-130311516D01*
X146795057Y-130559906D01*
X146334722Y-131019437D01*
X146085284Y-131620152D01*
X146084716Y-132270595D01*
X146333106Y-132871743D01*
X146779359Y-133318777D01*
X146334722Y-133762637D01*
X146085284Y-134363352D01*
X146084716Y-135013795D01*
X146333106Y-135614943D01*
X146792637Y-136075278D01*
X147393352Y-136324716D01*
X148043795Y-136325284D01*
X148644943Y-136076894D01*
X149105278Y-135617363D01*
X149354716Y-135016648D01*
X149355284Y-134366205D01*
X149286081Y-134198721D01*
X177884802Y-105600000D01*
X179074107Y-105600000D01*
X179199914Y-105788284D01*
X179199914Y-105788284D01*
G37*
X179199914Y-105788284D02*
X147182599Y-137805599D01*
X147017852Y-138052161D01*
X146960000Y-138343000D01*
X146960000Y-140854953D01*
X146795057Y-140923106D01*
X146334722Y-141382637D01*
X146085284Y-141983352D01*
X146084716Y-142633795D01*
X146333106Y-143234943D01*
X146779359Y-143681977D01*
X146334722Y-144125837D01*
X146085284Y-144726552D01*
X146084716Y-145376995D01*
X146333106Y-145978143D01*
X146792637Y-146438478D01*
X147393352Y-146687916D01*
X148043795Y-146688484D01*
X148644943Y-146440094D01*
X149105278Y-145980563D01*
X149354716Y-145379848D01*
X149355284Y-144729405D01*
X149106894Y-144128257D01*
X148660641Y-143681223D01*
X149105278Y-143237363D01*
X149354716Y-142636648D01*
X149355284Y-141986205D01*
X149106894Y-141385057D01*
X148647363Y-140924722D01*
X148480000Y-140855227D01*
X148480000Y-138657802D01*
X159837802Y-127300000D01*
X167590000Y-127300000D01*
X167765838Y-128183999D01*
X168266583Y-128933417D01*
X169016001Y-129434162D01*
X169900000Y-129610000D01*
X170783999Y-129434162D01*
X171533417Y-128933417D01*
X172034162Y-128183999D01*
X172210000Y-127300000D01*
X172034162Y-126416001D01*
X171533417Y-125666583D01*
X170783999Y-125165838D01*
X169900000Y-124990000D01*
X169016001Y-125165838D01*
X168266583Y-125666583D01*
X167765838Y-126416001D01*
X167590000Y-127300000D01*
X159837802Y-127300000D01*
X164161141Y-122976661D01*
X167852758Y-122976661D01*
X168064990Y-123490303D01*
X168457630Y-123883629D01*
X168970900Y-124096757D01*
X169526661Y-124097242D01*
X170040303Y-123885010D01*
X170433629Y-123492370D01*
X170646757Y-122979100D01*
X170647242Y-122423339D01*
X170435010Y-121909697D01*
X170042370Y-121516371D01*
X169529100Y-121303243D01*
X168973339Y-121302758D01*
X168459697Y-121514990D01*
X168066371Y-121907630D01*
X167853243Y-122420900D01*
X167852758Y-122976661D01*
X164161141Y-122976661D01*
X179043543Y-108094259D01*
X179175120Y-108291178D01*
X172668899Y-114797399D01*
X172504152Y-115043961D01*
X172446300Y-115334800D01*
X172446300Y-128802498D01*
X171071473Y-130177325D01*
X170906648Y-130108884D01*
X170256205Y-130108316D01*
X169655057Y-130356706D01*
X169194722Y-130816237D01*
X168945284Y-131416952D01*
X168944716Y-132067395D01*
X169193106Y-132668543D01*
X169652637Y-133128878D01*
X170067609Y-133301189D01*
X170042599Y-133326199D01*
X169877852Y-133572761D01*
X169820000Y-133863600D01*
X169820000Y-143801353D01*
X169655057Y-143869506D01*
X169194722Y-144329037D01*
X168945284Y-144929752D01*
X168944716Y-145580195D01*
X169193106Y-146181343D01*
X169652637Y-146641678D01*
X170009837Y-146790000D01*
X142642316Y-146790000D01*
X142834716Y-146326648D01*
X142835284Y-145676205D01*
X142586894Y-145075057D01*
X142127363Y-144614722D01*
X141526648Y-144365284D01*
X140876205Y-144364716D01*
X140708721Y-144433919D01*
X139782101Y-143507299D01*
X139535539Y-143342552D01*
X139244700Y-143284700D01*
X137415300Y-143284700D01*
X137415300Y-142652532D01*
X140227073Y-142652532D01*
X140325736Y-142919387D01*
X140935461Y-143145908D01*
X141585460Y-143121856D01*
X142074264Y-142919387D01*
X142172927Y-142652532D01*
X141200000Y-141679605D01*
X140227073Y-142652532D01*
X137415300Y-142652532D01*
X137415300Y-141419200D01*
X137378752Y-141235461D01*
X139554092Y-141235461D01*
X139578144Y-141885460D01*
X139780613Y-142374264D01*
X140047468Y-142472927D01*
X141020395Y-141500000D01*
X141379605Y-141500000D01*
X142352532Y-142472927D01*
X142619387Y-142374264D01*
X142845908Y-141764539D01*
X142821856Y-141114540D01*
X142619387Y-140625736D01*
X142352532Y-140527073D01*
X141379605Y-141500000D01*
X141020395Y-141500000D01*
X140047468Y-140527073D01*
X139780613Y-140625736D01*
X139554092Y-141235461D01*
X137378752Y-141235461D01*
X137357448Y-141128361D01*
X137357448Y-141128360D01*
X137192701Y-140881799D01*
X136658370Y-140347468D01*
X140227073Y-140347468D01*
X141200000Y-141320395D01*
X142172927Y-140347468D01*
X142074264Y-140080613D01*
X141464539Y-139854092D01*
X140814540Y-139878144D01*
X140325736Y-140080613D01*
X140227073Y-140347468D01*
X136658370Y-140347468D01*
X135990736Y-139679834D01*
X136049451Y-139668155D01*
X136547441Y-139335409D01*
X136880187Y-138837419D01*
X136997032Y-138250000D01*
X136880187Y-137662581D01*
X136649007Y-137316595D01*
X138167001Y-135798601D01*
X138331748Y-135552039D01*
X138389600Y-135261200D01*
X138389600Y-133364402D01*
X138584002Y-133170000D01*
X141282968Y-133170000D01*
X141399813Y-133757419D01*
X141732559Y-134255409D01*
X142008819Y-134440000D01*
X141732559Y-134624591D01*
X141399813Y-135122581D01*
X141282968Y-135710000D01*
X141399813Y-136297419D01*
X141704488Y-136753398D01*
X141498559Y-136885910D01*
X141353569Y-137098110D01*
X141302560Y-137350000D01*
X141302560Y-139150000D01*
X141346838Y-139385317D01*
X141485910Y-139601441D01*
X141698110Y-139746431D01*
X141950000Y-139797440D01*
X143950000Y-139797440D01*
X144185317Y-139753162D01*
X144401441Y-139614090D01*
X144546431Y-139401890D01*
X144597440Y-139150000D01*
X144597440Y-137350000D01*
X144553162Y-137114683D01*
X144414090Y-136898559D01*
X144201890Y-136753569D01*
X144196171Y-136752411D01*
X144500187Y-136297419D01*
X144617032Y-135710000D01*
X144500187Y-135122581D01*
X144167441Y-134624591D01*
X143891181Y-134440000D01*
X144167441Y-134255409D01*
X144500187Y-133757419D01*
X144617032Y-133170000D01*
X144500187Y-132582581D01*
X144167441Y-132084591D01*
X143895946Y-131903184D01*
X144306809Y-131509752D01*
X144541036Y-130994740D01*
X144420378Y-130757000D01*
X143077000Y-130757000D01*
X143077000Y-130777000D01*
X142823000Y-130777000D01*
X142823000Y-130757000D01*
X141479622Y-130757000D01*
X141358964Y-130994740D01*
X141593191Y-131509752D01*
X142004054Y-131903184D01*
X141732559Y-132084591D01*
X141399813Y-132582581D01*
X141282968Y-133170000D01*
X138584002Y-133170000D01*
X141402655Y-130351347D01*
X141479622Y-130503000D01*
X142823000Y-130503000D01*
X142823000Y-129254865D01*
X143077000Y-129254865D01*
X143077000Y-130503000D01*
X144420378Y-130503000D01*
X144541036Y-130265260D01*
X144306809Y-129750248D01*
X143874474Y-129336255D01*
X143316620Y-129119223D01*
X143077000Y-129254865D01*
X142823000Y-129254865D01*
X142616200Y-129137802D01*
X149619736Y-122134266D01*
X149713191Y-122339752D01*
X150124054Y-122733184D01*
X149852559Y-122914591D01*
X149519813Y-123412581D01*
X149402968Y-124000000D01*
X149519813Y-124587419D01*
X149852559Y-125085409D01*
X150128819Y-125270000D01*
X149852559Y-125454591D01*
X149519813Y-125952581D01*
X149402968Y-126540000D01*
X149519813Y-127127419D01*
X149852559Y-127625409D01*
X150350549Y-127958155D01*
X150937968Y-128075000D01*
X151202032Y-128075000D01*
X151789451Y-127958155D01*
X152287441Y-127625409D01*
X152620187Y-127127419D01*
X152737032Y-126540000D01*
X152620187Y-125952581D01*
X152287441Y-125454591D01*
X152011181Y-125270000D01*
X152287441Y-125085409D01*
X152620187Y-124587419D01*
X152737032Y-124000000D01*
X152620187Y-123412581D01*
X152287441Y-122914591D01*
X152015946Y-122733184D01*
X152426809Y-122339752D01*
X152661036Y-121824740D01*
X152540378Y-121587000D01*
X151197000Y-121587000D01*
X151197000Y-121607000D01*
X150943000Y-121607000D01*
X150943000Y-121587000D01*
X150923000Y-121587000D01*
X150923000Y-121333000D01*
X150943000Y-121333000D01*
X150943000Y-121313000D01*
X151197000Y-121313000D01*
X151197000Y-121333000D01*
X152540378Y-121333000D01*
X152661036Y-121095260D01*
X152426809Y-120580248D01*
X152015946Y-120186816D01*
X152287441Y-120005409D01*
X152620187Y-119507419D01*
X152737032Y-118920000D01*
X152620187Y-118332581D01*
X152287441Y-117834591D01*
X152011181Y-117650000D01*
X152287441Y-117465409D01*
X152620187Y-116967419D01*
X152737032Y-116380000D01*
X152620187Y-115792581D01*
X152287441Y-115294591D01*
X152011181Y-115110000D01*
X152287441Y-114925409D01*
X152620187Y-114427419D01*
X152737032Y-113840000D01*
X152620187Y-113252581D01*
X152287441Y-112754591D01*
X152011181Y-112570000D01*
X152287441Y-112385409D01*
X152545377Y-111999379D01*
X156490000Y-115944002D01*
X156490000Y-121502469D01*
X156459697Y-121514990D01*
X156066371Y-121907630D01*
X155853243Y-122420900D01*
X155852758Y-122976661D01*
X156064990Y-123490303D01*
X156457630Y-123883629D01*
X156970900Y-124096757D01*
X157238208Y-124096990D01*
X149354972Y-131980226D01*
X149355284Y-131623005D01*
X149106894Y-131021857D01*
X148647363Y-130561522D01*
X148046648Y-130312084D01*
X147396205Y-130311516D01*
X146795057Y-130559906D01*
X146334722Y-131019437D01*
X146085284Y-131620152D01*
X146084716Y-132270595D01*
X146333106Y-132871743D01*
X146779359Y-133318777D01*
X146334722Y-133762637D01*
X146085284Y-134363352D01*
X146084716Y-135013795D01*
X146333106Y-135614943D01*
X146792637Y-136075278D01*
X147393352Y-136324716D01*
X148043795Y-136325284D01*
X148644943Y-136076894D01*
X149105278Y-135617363D01*
X149354716Y-135016648D01*
X149355284Y-134366205D01*
X149286081Y-134198721D01*
X177884802Y-105600000D01*
X179074107Y-105600000D01*
X179199914Y-105788284D01*
G36*
X134893748Y-141485858D02*
X134879605Y-141500000D01*
X135852532Y-142472927D01*
X135895300Y-142457115D01*
X135895300Y-143729898D01*
X135191473Y-144433725D01*
X135026648Y-144365284D01*
X134376205Y-144364716D01*
X133910000Y-144557349D01*
X133910000Y-142950692D01*
X134435461Y-143145908D01*
X135085460Y-143121856D01*
X135574264Y-142919387D01*
X135672927Y-142652532D01*
X134700000Y-141679605D01*
X134685858Y-141693748D01*
X134506253Y-141514143D01*
X134520395Y-141500000D01*
X134506253Y-141485858D01*
X134685858Y-141306253D01*
X134700000Y-141320395D01*
X134714143Y-141306253D01*
X134893748Y-141485858D01*
X134893748Y-141485858D01*
G37*
X134893748Y-141485858D02*
X134879605Y-141500000D01*
X135852532Y-142472927D01*
X135895300Y-142457115D01*
X135895300Y-143729898D01*
X135191473Y-144433725D01*
X135026648Y-144365284D01*
X134376205Y-144364716D01*
X133910000Y-144557349D01*
X133910000Y-142950692D01*
X134435461Y-143145908D01*
X135085460Y-143121856D01*
X135574264Y-142919387D01*
X135672927Y-142652532D01*
X134700000Y-141679605D01*
X134685858Y-141693748D01*
X134506253Y-141514143D01*
X134520395Y-141500000D01*
X134506253Y-141485858D01*
X134685858Y-141306253D01*
X134700000Y-141320395D01*
X134714143Y-141306253D01*
X134893748Y-141485858D01*
G36*
X139554092Y-88735461D02*
X139578144Y-89385460D01*
X139780613Y-89874264D01*
X140047468Y-89972927D01*
X141020395Y-89000000D01*
X141006253Y-88985858D01*
X141185858Y-88806253D01*
X141200000Y-88820395D01*
X141214143Y-88806253D01*
X141393748Y-88985858D01*
X141379605Y-89000000D01*
X142352532Y-89972927D01*
X142619387Y-89874264D01*
X142845908Y-89264539D01*
X142821856Y-88614540D01*
X142654290Y-88210000D01*
X173749308Y-88210000D01*
X173554092Y-88735461D01*
X173578144Y-89385460D01*
X173780613Y-89874264D01*
X174047468Y-89972927D01*
X175020395Y-89000000D01*
X175006253Y-88985858D01*
X175185858Y-88806253D01*
X175200000Y-88820395D01*
X175214143Y-88806253D01*
X175393748Y-88985858D01*
X175379605Y-89000000D01*
X176352532Y-89972927D01*
X176619387Y-89874264D01*
X176845908Y-89264539D01*
X176821856Y-88614540D01*
X176654290Y-88210000D01*
X180249308Y-88210000D01*
X180054092Y-88735461D01*
X180078144Y-89385460D01*
X180280613Y-89874264D01*
X180547468Y-89972927D01*
X181520395Y-89000000D01*
X181506253Y-88985858D01*
X181685858Y-88806253D01*
X181700000Y-88820395D01*
X181714143Y-88806253D01*
X181893748Y-88985858D01*
X181879605Y-89000000D01*
X181893748Y-89014143D01*
X181714143Y-89193748D01*
X181700000Y-89179605D01*
X180727073Y-90152532D01*
X180825736Y-90419387D01*
X181435461Y-90645908D01*
X182085460Y-90621856D01*
X182490000Y-90454290D01*
X182490000Y-92057684D01*
X182026648Y-91865284D01*
X181376205Y-91864716D01*
X180775057Y-92113106D01*
X180314722Y-92572637D01*
X180065284Y-93173352D01*
X180064716Y-93823795D01*
X180313106Y-94424943D01*
X180772637Y-94885278D01*
X181373352Y-95134716D01*
X182023795Y-95135284D01*
X182490000Y-94942651D01*
X182490000Y-103939516D01*
X182362701Y-103748999D01*
X181958078Y-103344376D01*
X181997440Y-103150000D01*
X181997440Y-101450000D01*
X181953162Y-101214683D01*
X181814090Y-100998559D01*
X181601890Y-100853569D01*
X181350000Y-100802560D01*
X179650000Y-100802560D01*
X179414683Y-100846838D01*
X179198559Y-100985910D01*
X179053569Y-101198110D01*
X179002560Y-101450000D01*
X179002560Y-103150000D01*
X179046838Y-103385317D01*
X179185910Y-103601441D01*
X179365938Y-103724449D01*
X179267914Y-103789946D01*
X179074107Y-104080000D01*
X177570000Y-104080000D01*
X177279161Y-104137852D01*
X177032599Y-104302599D01*
X158647011Y-122688187D01*
X158647242Y-122423339D01*
X158435010Y-121909697D01*
X158042370Y-121516371D01*
X158010000Y-121502930D01*
X158010000Y-115629200D01*
X157952148Y-115338361D01*
X157787401Y-115091799D01*
X152389007Y-109693405D01*
X152620187Y-109347419D01*
X152737032Y-108760000D01*
X152620187Y-108172581D01*
X152287441Y-107674591D01*
X151789451Y-107341845D01*
X151202032Y-107225000D01*
X150937968Y-107225000D01*
X150350549Y-107341845D01*
X149852559Y-107674591D01*
X149519813Y-108172581D01*
X149402968Y-108760000D01*
X149519813Y-109347419D01*
X149852559Y-109845409D01*
X150128819Y-110030000D01*
X149852559Y-110214591D01*
X149519813Y-110712581D01*
X149402968Y-111300000D01*
X149519813Y-111887419D01*
X149852559Y-112385409D01*
X150128819Y-112570000D01*
X149852559Y-112754591D01*
X149519813Y-113252581D01*
X149402968Y-113840000D01*
X149519813Y-114427419D01*
X149852559Y-114925409D01*
X150128819Y-115110000D01*
X149852559Y-115294591D01*
X149519813Y-115792581D01*
X149402968Y-116380000D01*
X149519813Y-116967419D01*
X149852559Y-117465409D01*
X150128819Y-117650000D01*
X149852559Y-117834591D01*
X149519813Y-118332581D01*
X149402968Y-118920000D01*
X149519813Y-119507419D01*
X149750993Y-119853405D01*
X137092199Y-132512199D01*
X136927452Y-132758761D01*
X136921342Y-132789479D01*
X136880187Y-132582581D01*
X136547441Y-132084591D01*
X136271181Y-131900000D01*
X136547441Y-131715409D01*
X136880187Y-131217419D01*
X136997032Y-130630000D01*
X136880187Y-130042581D01*
X136547441Y-129544591D01*
X136049451Y-129211845D01*
X135462032Y-129095000D01*
X135197968Y-129095000D01*
X134764700Y-129181182D01*
X134764700Y-127727066D01*
X135110549Y-127958155D01*
X135697968Y-128075000D01*
X135962032Y-128075000D01*
X136549451Y-127958155D01*
X137047441Y-127625409D01*
X137380187Y-127127419D01*
X137497032Y-126540000D01*
X137380187Y-125952581D01*
X137047441Y-125454591D01*
X136771181Y-125270000D01*
X137047441Y-125085409D01*
X137380187Y-124587419D01*
X137497032Y-124000000D01*
X137380187Y-123412581D01*
X137047441Y-122914591D01*
X136775946Y-122733184D01*
X137186809Y-122339752D01*
X137421036Y-121824740D01*
X137300378Y-121587000D01*
X135957000Y-121587000D01*
X135957000Y-121607000D01*
X135703000Y-121607000D01*
X135703000Y-121587000D01*
X135683000Y-121587000D01*
X135683000Y-121333000D01*
X135703000Y-121333000D01*
X135703000Y-121313000D01*
X135957000Y-121313000D01*
X135957000Y-121333000D01*
X137300378Y-121333000D01*
X137421036Y-121095260D01*
X137186809Y-120580248D01*
X136775946Y-120186816D01*
X137047441Y-120005409D01*
X137380187Y-119507419D01*
X137497032Y-118920000D01*
X137380187Y-118332581D01*
X137047441Y-117834591D01*
X136771181Y-117650000D01*
X137047441Y-117465409D01*
X137380187Y-116967419D01*
X137497032Y-116380000D01*
X137380187Y-115792581D01*
X137047441Y-115294591D01*
X136771181Y-115110000D01*
X137047441Y-114925409D01*
X137380187Y-114427419D01*
X137497032Y-113840000D01*
X137380187Y-113252581D01*
X137047441Y-112754591D01*
X136771181Y-112570000D01*
X137047441Y-112385409D01*
X137380187Y-111887419D01*
X137497032Y-111300000D01*
X137380187Y-110712581D01*
X137075512Y-110256602D01*
X137281441Y-110124090D01*
X137426431Y-109911890D01*
X137477440Y-109660000D01*
X137477440Y-107860000D01*
X137433162Y-107624683D01*
X137294090Y-107408559D01*
X137081890Y-107263569D01*
X136830000Y-107212560D01*
X134830000Y-107212560D01*
X134764700Y-107224847D01*
X134764700Y-99373795D01*
X140414716Y-99373795D01*
X140663106Y-99974943D01*
X141122637Y-100435278D01*
X141723352Y-100684716D01*
X142373795Y-100685284D01*
X142974943Y-100436894D01*
X143435278Y-99977363D01*
X143437197Y-99972742D01*
X143438106Y-99974943D01*
X143897637Y-100435278D01*
X144498352Y-100684716D01*
X145148795Y-100685284D01*
X145749943Y-100436894D01*
X146210278Y-99977363D01*
X146459716Y-99376648D01*
X146460284Y-98726205D01*
X146211894Y-98125057D01*
X145752363Y-97664722D01*
X145151648Y-97415284D01*
X144501205Y-97414716D01*
X143900057Y-97663106D01*
X143439722Y-98122637D01*
X143437803Y-98127258D01*
X143436894Y-98125057D01*
X142977363Y-97664722D01*
X142376648Y-97415284D01*
X141726205Y-97414716D01*
X141125057Y-97663106D01*
X140664722Y-98122637D01*
X140415284Y-98723352D01*
X140414716Y-99373795D01*
X134764700Y-99373795D01*
X134764700Y-95135058D01*
X135023795Y-95135284D01*
X135624943Y-94886894D01*
X136085278Y-94427363D01*
X136334716Y-93826648D01*
X136334718Y-93823795D01*
X139564716Y-93823795D01*
X139813106Y-94424943D01*
X140272637Y-94885278D01*
X140873352Y-95134716D01*
X141523795Y-95135284D01*
X142124943Y-94886894D01*
X142585278Y-94427363D01*
X142834716Y-93826648D01*
X142834718Y-93823795D01*
X173564716Y-93823795D01*
X173813106Y-94424943D01*
X174272637Y-94885278D01*
X174873352Y-95134716D01*
X175523795Y-95135284D01*
X176124943Y-94886894D01*
X176585278Y-94427363D01*
X176834716Y-93826648D01*
X176835284Y-93176205D01*
X176586894Y-92575057D01*
X176127363Y-92114722D01*
X175526648Y-91865284D01*
X174876205Y-91864716D01*
X174275057Y-92113106D01*
X173814722Y-92572637D01*
X173565284Y-93173352D01*
X173564716Y-93823795D01*
X142834718Y-93823795D01*
X142835284Y-93176205D01*
X142586894Y-92575057D01*
X142127363Y-92114722D01*
X141526648Y-91865284D01*
X140876205Y-91864716D01*
X140275057Y-92113106D01*
X139814722Y-92572637D01*
X139565284Y-93173352D01*
X139564716Y-93823795D01*
X136334718Y-93823795D01*
X136335284Y-93176205D01*
X136086894Y-92575057D01*
X135627363Y-92114722D01*
X135026648Y-91865284D01*
X134376205Y-91864716D01*
X133910000Y-92057349D01*
X133910000Y-90450692D01*
X134435461Y-90645908D01*
X135085460Y-90621856D01*
X135574264Y-90419387D01*
X135672927Y-90152532D01*
X140227073Y-90152532D01*
X140325736Y-90419387D01*
X140935461Y-90645908D01*
X141585460Y-90621856D01*
X142074264Y-90419387D01*
X142172927Y-90152532D01*
X174227073Y-90152532D01*
X174325736Y-90419387D01*
X174935461Y-90645908D01*
X175585460Y-90621856D01*
X176074264Y-90419387D01*
X176172927Y-90152532D01*
X175200000Y-89179605D01*
X174227073Y-90152532D01*
X142172927Y-90152532D01*
X141200000Y-89179605D01*
X140227073Y-90152532D01*
X135672927Y-90152532D01*
X134700000Y-89179605D01*
X134685858Y-89193748D01*
X134506253Y-89014143D01*
X134520395Y-89000000D01*
X134506253Y-88985858D01*
X134685858Y-88806253D01*
X134700000Y-88820395D01*
X134714143Y-88806253D01*
X134893748Y-88985858D01*
X134879605Y-89000000D01*
X135852532Y-89972927D01*
X136119387Y-89874264D01*
X136345908Y-89264539D01*
X136321856Y-88614540D01*
X136154290Y-88210000D01*
X139749308Y-88210000D01*
X139554092Y-88735461D01*
X139554092Y-88735461D01*
G37*
X139554092Y-88735461D02*
X139578144Y-89385460D01*
X139780613Y-89874264D01*
X140047468Y-89972927D01*
X141020395Y-89000000D01*
X141006253Y-88985858D01*
X141185858Y-88806253D01*
X141200000Y-88820395D01*
X141214143Y-88806253D01*
X141393748Y-88985858D01*
X141379605Y-89000000D01*
X142352532Y-89972927D01*
X142619387Y-89874264D01*
X142845908Y-89264539D01*
X142821856Y-88614540D01*
X142654290Y-88210000D01*
X173749308Y-88210000D01*
X173554092Y-88735461D01*
X173578144Y-89385460D01*
X173780613Y-89874264D01*
X174047468Y-89972927D01*
X175020395Y-89000000D01*
X175006253Y-88985858D01*
X175185858Y-88806253D01*
X175200000Y-88820395D01*
X175214143Y-88806253D01*
X175393748Y-88985858D01*
X175379605Y-89000000D01*
X176352532Y-89972927D01*
X176619387Y-89874264D01*
X176845908Y-89264539D01*
X176821856Y-88614540D01*
X176654290Y-88210000D01*
X180249308Y-88210000D01*
X180054092Y-88735461D01*
X180078144Y-89385460D01*
X180280613Y-89874264D01*
X180547468Y-89972927D01*
X181520395Y-89000000D01*
X181506253Y-88985858D01*
X181685858Y-88806253D01*
X181700000Y-88820395D01*
X181714143Y-88806253D01*
X181893748Y-88985858D01*
X181879605Y-89000000D01*
X181893748Y-89014143D01*
X181714143Y-89193748D01*
X181700000Y-89179605D01*
X180727073Y-90152532D01*
X180825736Y-90419387D01*
X181435461Y-90645908D01*
X182085460Y-90621856D01*
X182490000Y-90454290D01*
X182490000Y-92057684D01*
X182026648Y-91865284D01*
X181376205Y-91864716D01*
X180775057Y-92113106D01*
X180314722Y-92572637D01*
X180065284Y-93173352D01*
X180064716Y-93823795D01*
X180313106Y-94424943D01*
X180772637Y-94885278D01*
X181373352Y-95134716D01*
X182023795Y-95135284D01*
X182490000Y-94942651D01*
X182490000Y-103939516D01*
X182362701Y-103748999D01*
X181958078Y-103344376D01*
X181997440Y-103150000D01*
X181997440Y-101450000D01*
X181953162Y-101214683D01*
X181814090Y-100998559D01*
X181601890Y-100853569D01*
X181350000Y-100802560D01*
X179650000Y-100802560D01*
X179414683Y-100846838D01*
X179198559Y-100985910D01*
X179053569Y-101198110D01*
X179002560Y-101450000D01*
X179002560Y-103150000D01*
X179046838Y-103385317D01*
X179185910Y-103601441D01*
X179365938Y-103724449D01*
X179267914Y-103789946D01*
X179074107Y-104080000D01*
X177570000Y-104080000D01*
X177279161Y-104137852D01*
X177032599Y-104302599D01*
X158647011Y-122688187D01*
X158647242Y-122423339D01*
X158435010Y-121909697D01*
X158042370Y-121516371D01*
X158010000Y-121502930D01*
X158010000Y-115629200D01*
X157952148Y-115338361D01*
X157787401Y-115091799D01*
X152389007Y-109693405D01*
X152620187Y-109347419D01*
X152737032Y-108760000D01*
X152620187Y-108172581D01*
X152287441Y-107674591D01*
X151789451Y-107341845D01*
X151202032Y-107225000D01*
X150937968Y-107225000D01*
X150350549Y-107341845D01*
X149852559Y-107674591D01*
X149519813Y-108172581D01*
X149402968Y-108760000D01*
X149519813Y-109347419D01*
X149852559Y-109845409D01*
X150128819Y-110030000D01*
X149852559Y-110214591D01*
X149519813Y-110712581D01*
X149402968Y-111300000D01*
X149519813Y-111887419D01*
X149852559Y-112385409D01*
X150128819Y-112570000D01*
X149852559Y-112754591D01*
X149519813Y-113252581D01*
X149402968Y-113840000D01*
X149519813Y-114427419D01*
X149852559Y-114925409D01*
X150128819Y-115110000D01*
X149852559Y-115294591D01*
X149519813Y-115792581D01*
X149402968Y-116380000D01*
X149519813Y-116967419D01*
X149852559Y-117465409D01*
X150128819Y-117650000D01*
X149852559Y-117834591D01*
X149519813Y-118332581D01*
X149402968Y-118920000D01*
X149519813Y-119507419D01*
X149750993Y-119853405D01*
X137092199Y-132512199D01*
X136927452Y-132758761D01*
X136921342Y-132789479D01*
X136880187Y-132582581D01*
X136547441Y-132084591D01*
X136271181Y-131900000D01*
X136547441Y-131715409D01*
X136880187Y-131217419D01*
X136997032Y-130630000D01*
X136880187Y-130042581D01*
X136547441Y-129544591D01*
X136049451Y-129211845D01*
X135462032Y-129095000D01*
X135197968Y-129095000D01*
X134764700Y-129181182D01*
X134764700Y-127727066D01*
X135110549Y-127958155D01*
X135697968Y-128075000D01*
X135962032Y-128075000D01*
X136549451Y-127958155D01*
X137047441Y-127625409D01*
X137380187Y-127127419D01*
X137497032Y-126540000D01*
X137380187Y-125952581D01*
X137047441Y-125454591D01*
X136771181Y-125270000D01*
X137047441Y-125085409D01*
X137380187Y-124587419D01*
X137497032Y-124000000D01*
X137380187Y-123412581D01*
X137047441Y-122914591D01*
X136775946Y-122733184D01*
X137186809Y-122339752D01*
X137421036Y-121824740D01*
X137300378Y-121587000D01*
X135957000Y-121587000D01*
X135957000Y-121607000D01*
X135703000Y-121607000D01*
X135703000Y-121587000D01*
X135683000Y-121587000D01*
X135683000Y-121333000D01*
X135703000Y-121333000D01*
X135703000Y-121313000D01*
X135957000Y-121313000D01*
X135957000Y-121333000D01*
X137300378Y-121333000D01*
X137421036Y-121095260D01*
X137186809Y-120580248D01*
X136775946Y-120186816D01*
X137047441Y-120005409D01*
X137380187Y-119507419D01*
X137497032Y-118920000D01*
X137380187Y-118332581D01*
X137047441Y-117834591D01*
X136771181Y-117650000D01*
X137047441Y-117465409D01*
X137380187Y-116967419D01*
X137497032Y-116380000D01*
X137380187Y-115792581D01*
X137047441Y-115294591D01*
X136771181Y-115110000D01*
X137047441Y-114925409D01*
X137380187Y-114427419D01*
X137497032Y-113840000D01*
X137380187Y-113252581D01*
X137047441Y-112754591D01*
X136771181Y-112570000D01*
X137047441Y-112385409D01*
X137380187Y-111887419D01*
X137497032Y-111300000D01*
X137380187Y-110712581D01*
X137075512Y-110256602D01*
X137281441Y-110124090D01*
X137426431Y-109911890D01*
X137477440Y-109660000D01*
X137477440Y-107860000D01*
X137433162Y-107624683D01*
X137294090Y-107408559D01*
X137081890Y-107263569D01*
X136830000Y-107212560D01*
X134830000Y-107212560D01*
X134764700Y-107224847D01*
X134764700Y-99373795D01*
X140414716Y-99373795D01*
X140663106Y-99974943D01*
X141122637Y-100435278D01*
X141723352Y-100684716D01*
X142373795Y-100685284D01*
X142974943Y-100436894D01*
X143435278Y-99977363D01*
X143437197Y-99972742D01*
X143438106Y-99974943D01*
X143897637Y-100435278D01*
X144498352Y-100684716D01*
X145148795Y-100685284D01*
X145749943Y-100436894D01*
X146210278Y-99977363D01*
X146459716Y-99376648D01*
X146460284Y-98726205D01*
X146211894Y-98125057D01*
X145752363Y-97664722D01*
X145151648Y-97415284D01*
X144501205Y-97414716D01*
X143900057Y-97663106D01*
X143439722Y-98122637D01*
X143437803Y-98127258D01*
X143436894Y-98125057D01*
X142977363Y-97664722D01*
X142376648Y-97415284D01*
X141726205Y-97414716D01*
X141125057Y-97663106D01*
X140664722Y-98122637D01*
X140415284Y-98723352D01*
X140414716Y-99373795D01*
X134764700Y-99373795D01*
X134764700Y-95135058D01*
X135023795Y-95135284D01*
X135624943Y-94886894D01*
X136085278Y-94427363D01*
X136334716Y-93826648D01*
X136334718Y-93823795D01*
X139564716Y-93823795D01*
X139813106Y-94424943D01*
X140272637Y-94885278D01*
X140873352Y-95134716D01*
X141523795Y-95135284D01*
X142124943Y-94886894D01*
X142585278Y-94427363D01*
X142834716Y-93826648D01*
X142834718Y-93823795D01*
X173564716Y-93823795D01*
X173813106Y-94424943D01*
X174272637Y-94885278D01*
X174873352Y-95134716D01*
X175523795Y-95135284D01*
X176124943Y-94886894D01*
X176585278Y-94427363D01*
X176834716Y-93826648D01*
X176835284Y-93176205D01*
X176586894Y-92575057D01*
X176127363Y-92114722D01*
X175526648Y-91865284D01*
X174876205Y-91864716D01*
X174275057Y-92113106D01*
X173814722Y-92572637D01*
X173565284Y-93173352D01*
X173564716Y-93823795D01*
X142834718Y-93823795D01*
X142835284Y-93176205D01*
X142586894Y-92575057D01*
X142127363Y-92114722D01*
X141526648Y-91865284D01*
X140876205Y-91864716D01*
X140275057Y-92113106D01*
X139814722Y-92572637D01*
X139565284Y-93173352D01*
X139564716Y-93823795D01*
X136334718Y-93823795D01*
X136335284Y-93176205D01*
X136086894Y-92575057D01*
X135627363Y-92114722D01*
X135026648Y-91865284D01*
X134376205Y-91864716D01*
X133910000Y-92057349D01*
X133910000Y-90450692D01*
X134435461Y-90645908D01*
X135085460Y-90621856D01*
X135574264Y-90419387D01*
X135672927Y-90152532D01*
X140227073Y-90152532D01*
X140325736Y-90419387D01*
X140935461Y-90645908D01*
X141585460Y-90621856D01*
X142074264Y-90419387D01*
X142172927Y-90152532D01*
X174227073Y-90152532D01*
X174325736Y-90419387D01*
X174935461Y-90645908D01*
X175585460Y-90621856D01*
X176074264Y-90419387D01*
X176172927Y-90152532D01*
X175200000Y-89179605D01*
X174227073Y-90152532D01*
X142172927Y-90152532D01*
X141200000Y-89179605D01*
X140227073Y-90152532D01*
X135672927Y-90152532D01*
X134700000Y-89179605D01*
X134685858Y-89193748D01*
X134506253Y-89014143D01*
X134520395Y-89000000D01*
X134506253Y-88985858D01*
X134685858Y-88806253D01*
X134700000Y-88820395D01*
X134714143Y-88806253D01*
X134893748Y-88985858D01*
X134879605Y-89000000D01*
X135852532Y-89972927D01*
X136119387Y-89874264D01*
X136345908Y-89264539D01*
X136321856Y-88614540D01*
X136154290Y-88210000D01*
X139749308Y-88210000D01*
X139554092Y-88735461D01*
M02*
