%FSLAX45Y45*%
G04 Gerber Fmt 4.5, Leading zero omitted, Abs format (unit mm)*
G04 Created by KiCad (PCBNEW 4.0.6+dfsg1-1) date Tue Jan 16 20:58:08 2018*
%MOMM*%
%LPD*%
G01*
G04 APERTURE LIST*
%ADD10C,0.127000*%
%ADD11C,0.150000*%
%ADD12C,0.200000*%
%ADD13C,0.300000*%
G04 APERTURE END LIST*
D10*
D11*
X18320000Y-13750000D02*
X18320000Y-8750000D01*
X13320000Y-13750000D02*
X18320000Y-13750000D01*
X13320000Y-8750000D02*
X13320000Y-13750000D01*
X18320000Y-8750000D02*
X13320000Y-8750000D01*
D12*
X14831900Y-12661900D02*
X14908100Y-12738100D01*
X14908100Y-12661900D02*
X14831900Y-12738100D01*
X14831900Y-12901900D02*
X14908100Y-12978100D01*
X14908100Y-12901900D02*
X14831900Y-12978100D01*
X13625000Y-10027000D02*
G75*
G03X13625000Y-10027000I-40000J0D01*
G01*
X13625000Y-12313000D02*
G75*
G03X13625000Y-12313000I-40000J0D01*
G01*
X13879000Y-10027000D02*
G75*
G03X13879000Y-10027000I-40000J0D01*
G01*
X14488000Y-8870000D02*
G75*
G03X14488000Y-8870000I-40000J0D01*
G01*
X14488000Y-9632000D02*
G75*
G03X14488000Y-9632000I-40000J0D01*
G01*
X14641000Y-10027000D02*
G75*
G03X14641000Y-10027000I-40000J0D01*
G01*
X14742000Y-8870000D02*
G75*
G03X14742000Y-8870000I-40000J0D01*
G01*
X14742000Y-9632000D02*
G75*
G03X14742000Y-9632000I-40000J0D01*
G01*
X14895000Y-10027000D02*
G75*
G03X14895000Y-10027000I-40000J0D01*
G01*
X14895000Y-12313000D02*
G75*
G03X14895000Y-12313000I-40000J0D01*
G01*
X14996000Y-8870000D02*
G75*
G03X14996000Y-8870000I-40000J0D01*
G01*
X14996000Y-9632000D02*
G75*
G03X14996000Y-9632000I-40000J0D01*
G01*
X15250000Y-8870000D02*
G75*
G03X15250000Y-8870000I-40000J0D01*
G01*
X15250000Y-9632000D02*
G75*
G03X15250000Y-9632000I-40000J0D01*
G01*
X17910000Y-11850000D02*
X17910000Y-11940000D01*
X17865000Y-11895000D02*
X17955000Y-11895000D01*
X17910000Y-12100000D02*
X17910000Y-12190000D01*
X17865000Y-12145000D02*
X17955000Y-12145000D01*
X17910000Y-12350000D02*
X17910000Y-12440000D01*
X17865000Y-12395000D02*
X17955000Y-12395000D01*
X17910000Y-12600000D02*
X17910000Y-12690000D01*
X17865000Y-12645000D02*
X17955000Y-12645000D01*
X15376356Y-12144156D02*
X15376356Y-12073444D01*
X15305644Y-12073444D01*
X15305644Y-12144156D01*
X15376356Y-12144156D01*
X15376356Y-13566556D02*
X15376356Y-13495844D01*
X15305644Y-13495844D01*
X15305644Y-13566556D01*
X15376356Y-13566556D01*
X15630356Y-12144156D02*
X15630356Y-12073444D01*
X15559644Y-12073444D01*
X15559644Y-12144156D01*
X15630356Y-12144156D01*
X15630356Y-13566556D02*
X15630356Y-13495844D01*
X15559644Y-13495844D01*
X15559644Y-13566556D01*
X15630356Y-13566556D01*
X15884356Y-12144156D02*
X15884356Y-12073444D01*
X15813644Y-12073444D01*
X15813644Y-12144156D01*
X15884356Y-12144156D01*
X15884356Y-13566556D02*
X15884356Y-13495844D01*
X15813644Y-13495844D01*
X15813644Y-13566556D01*
X15884356Y-13566556D01*
X16138356Y-12144156D02*
X16138356Y-12073444D01*
X16067644Y-12073444D01*
X16067644Y-12144156D01*
X16138356Y-12144156D01*
X16138356Y-13566556D02*
X16138356Y-13495844D01*
X16067644Y-13495844D01*
X16067644Y-13566556D01*
X16138356Y-13566556D01*
X16392356Y-12144156D02*
X16392356Y-12073444D01*
X16321644Y-12073444D01*
X16321644Y-12144156D01*
X16392356Y-12144156D01*
X16392356Y-13566556D02*
X16392356Y-13495844D01*
X16321644Y-13495844D01*
X16321644Y-13566556D01*
X16392356Y-13566556D01*
X16646356Y-12144156D02*
X16646356Y-12073444D01*
X16575644Y-12073444D01*
X16575644Y-12144156D01*
X16646356Y-12144156D01*
X16646356Y-13566556D02*
X16646356Y-13495844D01*
X16575644Y-13495844D01*
X16575644Y-13566556D01*
X16646356Y-13566556D01*
X16900356Y-12144156D02*
X16900356Y-12073444D01*
X16829644Y-12073444D01*
X16829644Y-12144156D01*
X16900356Y-12144156D01*
X16900356Y-13566556D02*
X16900356Y-13495844D01*
X16829644Y-13495844D01*
X16829644Y-13566556D01*
X16900356Y-13566556D01*
X17154356Y-12144156D02*
X17154356Y-12073444D01*
X17083644Y-12073444D01*
X17083644Y-12144156D01*
X17154356Y-12144156D01*
X17154356Y-13566556D02*
X17154356Y-13495844D01*
X17083644Y-13495844D01*
X17083644Y-13566556D01*
X17154356Y-13566556D01*
X17790356Y-9925356D02*
X17790356Y-9854644D01*
X17719644Y-9854644D01*
X17719644Y-9925356D01*
X17790356Y-9925356D01*
X17790356Y-10620356D02*
X17790356Y-10549644D01*
X17719644Y-10549644D01*
X17719644Y-10620356D01*
X17790356Y-10620356D01*
X17790356Y-11310356D02*
X17790356Y-11239644D01*
X17719644Y-11239644D01*
X17719644Y-11310356D01*
X17790356Y-11310356D01*
X18040356Y-9925356D02*
X18040356Y-9854644D01*
X17969644Y-9854644D01*
X17969644Y-9925356D01*
X18040356Y-9925356D01*
X18040356Y-10620356D02*
X18040356Y-10549644D01*
X17969644Y-10549644D01*
X17969644Y-10620356D01*
X18040356Y-10620356D01*
X18040356Y-11310356D02*
X18040356Y-11239644D01*
X17969644Y-11239644D01*
X17969644Y-11310356D01*
X18040356Y-11310356D01*
X13470000Y-8955000D02*
X13525000Y-8900000D01*
X13470000Y-8845000D01*
X13415000Y-8900000D01*
X13470000Y-8955000D01*
X13470000Y-9405000D02*
X13525000Y-9350000D01*
X13470000Y-9295000D01*
X13415000Y-9350000D01*
X13470000Y-9405000D01*
X13470000Y-13205000D02*
X13525000Y-13150000D01*
X13470000Y-13095000D01*
X13415000Y-13150000D01*
X13470000Y-13205000D01*
X13470000Y-13655000D02*
X13525000Y-13600000D01*
X13470000Y-13545000D01*
X13415000Y-13600000D01*
X13470000Y-13655000D01*
X14120000Y-8955000D02*
X14175000Y-8900000D01*
X14120000Y-8845000D01*
X14065000Y-8900000D01*
X14120000Y-8955000D01*
X14120000Y-9405000D02*
X14175000Y-9350000D01*
X14120000Y-9295000D01*
X14065000Y-9350000D01*
X14120000Y-9405000D01*
X14120000Y-13205000D02*
X14175000Y-13150000D01*
X14120000Y-13095000D01*
X14065000Y-13150000D01*
X14120000Y-13205000D01*
X14120000Y-13655000D02*
X14175000Y-13600000D01*
X14120000Y-13545000D01*
X14065000Y-13600000D01*
X14120000Y-13655000D01*
X17520000Y-8955000D02*
X17575000Y-8900000D01*
X17520000Y-8845000D01*
X17465000Y-8900000D01*
X17520000Y-8955000D01*
X17520000Y-9405000D02*
X17575000Y-9350000D01*
X17520000Y-9295000D01*
X17465000Y-9350000D01*
X17520000Y-9405000D01*
X17520000Y-13205000D02*
X17575000Y-13150000D01*
X17520000Y-13095000D01*
X17465000Y-13150000D01*
X17520000Y-13205000D01*
X17520000Y-13655000D02*
X17575000Y-13600000D01*
X17520000Y-13545000D01*
X17465000Y-13600000D01*
X17520000Y-13655000D01*
X18170000Y-8955000D02*
X18225000Y-8900000D01*
X18170000Y-8845000D01*
X18115000Y-8900000D01*
X18170000Y-8955000D01*
X18170000Y-9405000D02*
X18225000Y-9350000D01*
X18170000Y-9295000D01*
X18115000Y-9350000D01*
X18170000Y-9405000D01*
X18170000Y-13205000D02*
X18225000Y-13150000D01*
X18170000Y-13095000D01*
X18115000Y-13150000D01*
X18170000Y-13205000D01*
X18170000Y-13655000D02*
X18225000Y-13600000D01*
X18170000Y-13545000D01*
X18115000Y-13600000D01*
X18170000Y-13655000D01*
D13*
X13583928Y-14223214D02*
X13583928Y-13923214D01*
X13655357Y-13923214D01*
X13698214Y-13937500D01*
X13726786Y-13966071D01*
X13741071Y-13994643D01*
X13755357Y-14051786D01*
X13755357Y-14094643D01*
X13741071Y-14151786D01*
X13726786Y-14180357D01*
X13698214Y-14208929D01*
X13655357Y-14223214D01*
X13583928Y-14223214D01*
X13883928Y-14223214D02*
X13883928Y-14023214D01*
X13883928Y-14080357D02*
X13898214Y-14051786D01*
X13912500Y-14037500D01*
X13941071Y-14023214D01*
X13969643Y-14023214D01*
X14069643Y-14223214D02*
X14069643Y-14023214D01*
X14069643Y-13923214D02*
X14055357Y-13937500D01*
X14069643Y-13951786D01*
X14083928Y-13937500D01*
X14069643Y-13923214D01*
X14069643Y-13951786D01*
X14255357Y-14223214D02*
X14226786Y-14208929D01*
X14212500Y-14180357D01*
X14212500Y-13923214D01*
X14412500Y-14223214D02*
X14383928Y-14208929D01*
X14369643Y-14180357D01*
X14369643Y-13923214D01*
X14755357Y-14223214D02*
X14755357Y-13923214D01*
X14855357Y-14137500D01*
X14955357Y-13923214D01*
X14955357Y-14223214D01*
X15226786Y-14223214D02*
X15226786Y-14066071D01*
X15212500Y-14037500D01*
X15183928Y-14023214D01*
X15126786Y-14023214D01*
X15098214Y-14037500D01*
X15226786Y-14208929D02*
X15198214Y-14223214D01*
X15126786Y-14223214D01*
X15098214Y-14208929D01*
X15083928Y-14180357D01*
X15083928Y-14151786D01*
X15098214Y-14123214D01*
X15126786Y-14108929D01*
X15198214Y-14108929D01*
X15226786Y-14094643D01*
X15369643Y-14023214D02*
X15369643Y-14323214D01*
X15369643Y-14037500D02*
X15398214Y-14023214D01*
X15455357Y-14023214D01*
X15483928Y-14037500D01*
X15498214Y-14051786D01*
X15512500Y-14080357D01*
X15512500Y-14166071D01*
X15498214Y-14194643D01*
X15483928Y-14208929D01*
X15455357Y-14223214D01*
X15398214Y-14223214D01*
X15369643Y-14208929D01*
X15641071Y-14194643D02*
X15655357Y-14208929D01*
X15641071Y-14223214D01*
X15626786Y-14208929D01*
X15641071Y-14194643D01*
X15641071Y-14223214D01*
X15641071Y-14037500D02*
X15655357Y-14051786D01*
X15641071Y-14066071D01*
X15626786Y-14051786D01*
X15641071Y-14037500D01*
X15641071Y-14066071D01*
X13236300Y-14679400D02*
X13312500Y-14755600D01*
X13312500Y-14679400D02*
X13236300Y-14755600D01*
X13641071Y-14553214D02*
X13669643Y-14553214D01*
X13698214Y-14567500D01*
X13712500Y-14581786D01*
X13726786Y-14610357D01*
X13741071Y-14667500D01*
X13741071Y-14738929D01*
X13726786Y-14796071D01*
X13712500Y-14824643D01*
X13698214Y-14838929D01*
X13669643Y-14853214D01*
X13641071Y-14853214D01*
X13612500Y-14838929D01*
X13598214Y-14824643D01*
X13583928Y-14796071D01*
X13569643Y-14738929D01*
X13569643Y-14667500D01*
X13583928Y-14610357D01*
X13598214Y-14581786D01*
X13612500Y-14567500D01*
X13641071Y-14553214D01*
X13869643Y-14824643D02*
X13883928Y-14838929D01*
X13869643Y-14853214D01*
X13855357Y-14838929D01*
X13869643Y-14824643D01*
X13869643Y-14853214D01*
X13983928Y-14553214D02*
X14183928Y-14553214D01*
X14055357Y-14853214D01*
X14426786Y-14553214D02*
X14369643Y-14553214D01*
X14341071Y-14567500D01*
X14326786Y-14581786D01*
X14298214Y-14624643D01*
X14283928Y-14681786D01*
X14283928Y-14796071D01*
X14298214Y-14824643D01*
X14312500Y-14838929D01*
X14341071Y-14853214D01*
X14398214Y-14853214D01*
X14426786Y-14838929D01*
X14441071Y-14824643D01*
X14455357Y-14796071D01*
X14455357Y-14724643D01*
X14441071Y-14696071D01*
X14426786Y-14681786D01*
X14398214Y-14667500D01*
X14341071Y-14667500D01*
X14312500Y-14681786D01*
X14298214Y-14696071D01*
X14283928Y-14724643D01*
X14583928Y-14853214D02*
X14583928Y-14653214D01*
X14583928Y-14681786D02*
X14598214Y-14667500D01*
X14626786Y-14653214D01*
X14669643Y-14653214D01*
X14698214Y-14667500D01*
X14712500Y-14696071D01*
X14712500Y-14853214D01*
X14712500Y-14696071D02*
X14726786Y-14667500D01*
X14755357Y-14653214D01*
X14798214Y-14653214D01*
X14826786Y-14667500D01*
X14841071Y-14696071D01*
X14841071Y-14853214D01*
X14983928Y-14853214D02*
X14983928Y-14653214D01*
X14983928Y-14681786D02*
X14998214Y-14667500D01*
X15026786Y-14653214D01*
X15069643Y-14653214D01*
X15098214Y-14667500D01*
X15112500Y-14696071D01*
X15112500Y-14853214D01*
X15112500Y-14696071D02*
X15126786Y-14667500D01*
X15155357Y-14653214D01*
X15198214Y-14653214D01*
X15226786Y-14667500D01*
X15241071Y-14696071D01*
X15241071Y-14853214D01*
X15826786Y-14538929D02*
X15569643Y-14924643D01*
X16212500Y-14553214D02*
X16241071Y-14553214D01*
X16269643Y-14567500D01*
X16283928Y-14581786D01*
X16298214Y-14610357D01*
X16312500Y-14667500D01*
X16312500Y-14738929D01*
X16298214Y-14796071D01*
X16283928Y-14824643D01*
X16269643Y-14838929D01*
X16241071Y-14853214D01*
X16212500Y-14853214D01*
X16183928Y-14838929D01*
X16169643Y-14824643D01*
X16155357Y-14796071D01*
X16141071Y-14738929D01*
X16141071Y-14667500D01*
X16155357Y-14610357D01*
X16169643Y-14581786D01*
X16183928Y-14567500D01*
X16212500Y-14553214D01*
X16441071Y-14824643D02*
X16455357Y-14838929D01*
X16441071Y-14853214D01*
X16426786Y-14838929D01*
X16441071Y-14824643D01*
X16441071Y-14853214D01*
X16641071Y-14553214D02*
X16669643Y-14553214D01*
X16698214Y-14567500D01*
X16712500Y-14581786D01*
X16726785Y-14610357D01*
X16741071Y-14667500D01*
X16741071Y-14738929D01*
X16726785Y-14796071D01*
X16712500Y-14824643D01*
X16698214Y-14838929D01*
X16669643Y-14853214D01*
X16641071Y-14853214D01*
X16612500Y-14838929D01*
X16598214Y-14824643D01*
X16583928Y-14796071D01*
X16569643Y-14738929D01*
X16569643Y-14667500D01*
X16583928Y-14610357D01*
X16598214Y-14581786D01*
X16612500Y-14567500D01*
X16641071Y-14553214D01*
X16841071Y-14553214D02*
X17026786Y-14553214D01*
X16926786Y-14667500D01*
X16969643Y-14667500D01*
X16998214Y-14681786D01*
X17012500Y-14696071D01*
X17026786Y-14724643D01*
X17026786Y-14796071D01*
X17012500Y-14824643D01*
X16998214Y-14838929D01*
X16969643Y-14853214D01*
X16883928Y-14853214D01*
X16855357Y-14838929D01*
X16841071Y-14824643D01*
X17212500Y-14553214D02*
X17241071Y-14553214D01*
X17269643Y-14567500D01*
X17283928Y-14581786D01*
X17298214Y-14610357D01*
X17312500Y-14667500D01*
X17312500Y-14738929D01*
X17298214Y-14796071D01*
X17283928Y-14824643D01*
X17269643Y-14838929D01*
X17241071Y-14853214D01*
X17212500Y-14853214D01*
X17183928Y-14838929D01*
X17169643Y-14824643D01*
X17155357Y-14796071D01*
X17141071Y-14738929D01*
X17141071Y-14667500D01*
X17155357Y-14610357D01*
X17169643Y-14581786D01*
X17183928Y-14567500D01*
X17212500Y-14553214D01*
X17426786Y-14553214D02*
X17426786Y-14610357D01*
X17541071Y-14553214D02*
X17541071Y-14610357D01*
X17983928Y-14967500D02*
X17969643Y-14953214D01*
X17941071Y-14910357D01*
X17926786Y-14881786D01*
X17912500Y-14838929D01*
X17898214Y-14767500D01*
X17898214Y-14710357D01*
X17912500Y-14638929D01*
X17926786Y-14596071D01*
X17941071Y-14567500D01*
X17969643Y-14524643D01*
X17983928Y-14510357D01*
X18083928Y-14581786D02*
X18098214Y-14567500D01*
X18126786Y-14553214D01*
X18198214Y-14553214D01*
X18226786Y-14567500D01*
X18241071Y-14581786D01*
X18255357Y-14610357D01*
X18255357Y-14638929D01*
X18241071Y-14681786D01*
X18069643Y-14853214D01*
X18255357Y-14853214D01*
X18612500Y-14853214D02*
X18612500Y-14553214D01*
X18741071Y-14853214D02*
X18741071Y-14696071D01*
X18726786Y-14667500D01*
X18698214Y-14653214D01*
X18655357Y-14653214D01*
X18626786Y-14667500D01*
X18612500Y-14681786D01*
X18926786Y-14853214D02*
X18898214Y-14838929D01*
X18883928Y-14824643D01*
X18869643Y-14796071D01*
X18869643Y-14710357D01*
X18883928Y-14681786D01*
X18898214Y-14667500D01*
X18926786Y-14653214D01*
X18969643Y-14653214D01*
X18998214Y-14667500D01*
X19012500Y-14681786D01*
X19026786Y-14710357D01*
X19026786Y-14796071D01*
X19012500Y-14824643D01*
X18998214Y-14838929D01*
X18969643Y-14853214D01*
X18926786Y-14853214D01*
X19198214Y-14853214D02*
X19169643Y-14838929D01*
X19155357Y-14810357D01*
X19155357Y-14553214D01*
X19426786Y-14838929D02*
X19398214Y-14853214D01*
X19341071Y-14853214D01*
X19312500Y-14838929D01*
X19298214Y-14810357D01*
X19298214Y-14696071D01*
X19312500Y-14667500D01*
X19341071Y-14653214D01*
X19398214Y-14653214D01*
X19426786Y-14667500D01*
X19441071Y-14696071D01*
X19441071Y-14724643D01*
X19298214Y-14753214D01*
X19555357Y-14838929D02*
X19583929Y-14853214D01*
X19641071Y-14853214D01*
X19669643Y-14838929D01*
X19683929Y-14810357D01*
X19683929Y-14796071D01*
X19669643Y-14767500D01*
X19641071Y-14753214D01*
X19598214Y-14753214D01*
X19569643Y-14738929D01*
X19555357Y-14710357D01*
X19555357Y-14696071D01*
X19569643Y-14667500D01*
X19598214Y-14653214D01*
X19641071Y-14653214D01*
X19669643Y-14667500D01*
X19783928Y-14967500D02*
X19798214Y-14953214D01*
X19826786Y-14910357D01*
X19841071Y-14881786D01*
X19855357Y-14838929D01*
X19869643Y-14767500D01*
X19869643Y-14710357D01*
X19855357Y-14638929D01*
X19841071Y-14596071D01*
X19826786Y-14567500D01*
X19798214Y-14524643D01*
X19783928Y-14510357D01*
X13312500Y-15113500D02*
G75*
G03X13312500Y-15113500I-40000J0D01*
G01*
X13641071Y-14949214D02*
X13669643Y-14949214D01*
X13698214Y-14963500D01*
X13712500Y-14977786D01*
X13726786Y-15006357D01*
X13741071Y-15063500D01*
X13741071Y-15134929D01*
X13726786Y-15192071D01*
X13712500Y-15220643D01*
X13698214Y-15234929D01*
X13669643Y-15249214D01*
X13641071Y-15249214D01*
X13612500Y-15234929D01*
X13598214Y-15220643D01*
X13583928Y-15192071D01*
X13569643Y-15134929D01*
X13569643Y-15063500D01*
X13583928Y-15006357D01*
X13598214Y-14977786D01*
X13612500Y-14963500D01*
X13641071Y-14949214D01*
X13869643Y-15220643D02*
X13883928Y-15234929D01*
X13869643Y-15249214D01*
X13855357Y-15234929D01*
X13869643Y-15220643D01*
X13869643Y-15249214D01*
X14055357Y-15077786D02*
X14026786Y-15063500D01*
X14012500Y-15049214D01*
X13998214Y-15020643D01*
X13998214Y-15006357D01*
X14012500Y-14977786D01*
X14026786Y-14963500D01*
X14055357Y-14949214D01*
X14112500Y-14949214D01*
X14141071Y-14963500D01*
X14155357Y-14977786D01*
X14169643Y-15006357D01*
X14169643Y-15020643D01*
X14155357Y-15049214D01*
X14141071Y-15063500D01*
X14112500Y-15077786D01*
X14055357Y-15077786D01*
X14026786Y-15092071D01*
X14012500Y-15106357D01*
X13998214Y-15134929D01*
X13998214Y-15192071D01*
X14012500Y-15220643D01*
X14026786Y-15234929D01*
X14055357Y-15249214D01*
X14112500Y-15249214D01*
X14141071Y-15234929D01*
X14155357Y-15220643D01*
X14169643Y-15192071D01*
X14169643Y-15134929D01*
X14155357Y-15106357D01*
X14141071Y-15092071D01*
X14112500Y-15077786D01*
X14355357Y-14949214D02*
X14383928Y-14949214D01*
X14412500Y-14963500D01*
X14426786Y-14977786D01*
X14441071Y-15006357D01*
X14455357Y-15063500D01*
X14455357Y-15134929D01*
X14441071Y-15192071D01*
X14426786Y-15220643D01*
X14412500Y-15234929D01*
X14383928Y-15249214D01*
X14355357Y-15249214D01*
X14326786Y-15234929D01*
X14312500Y-15220643D01*
X14298214Y-15192071D01*
X14283928Y-15134929D01*
X14283928Y-15063500D01*
X14298214Y-15006357D01*
X14312500Y-14977786D01*
X14326786Y-14963500D01*
X14355357Y-14949214D01*
X14583928Y-15249214D02*
X14583928Y-15049214D01*
X14583928Y-15077786D02*
X14598214Y-15063500D01*
X14626786Y-15049214D01*
X14669643Y-15049214D01*
X14698214Y-15063500D01*
X14712500Y-15092071D01*
X14712500Y-15249214D01*
X14712500Y-15092071D02*
X14726786Y-15063500D01*
X14755357Y-15049214D01*
X14798214Y-15049214D01*
X14826786Y-15063500D01*
X14841071Y-15092071D01*
X14841071Y-15249214D01*
X14983928Y-15249214D02*
X14983928Y-15049214D01*
X14983928Y-15077786D02*
X14998214Y-15063500D01*
X15026786Y-15049214D01*
X15069643Y-15049214D01*
X15098214Y-15063500D01*
X15112500Y-15092071D01*
X15112500Y-15249214D01*
X15112500Y-15092071D02*
X15126786Y-15063500D01*
X15155357Y-15049214D01*
X15198214Y-15049214D01*
X15226786Y-15063500D01*
X15241071Y-15092071D01*
X15241071Y-15249214D01*
X15826786Y-14934929D02*
X15569643Y-15320643D01*
X16212500Y-14949214D02*
X16241071Y-14949214D01*
X16269643Y-14963500D01*
X16283928Y-14977786D01*
X16298214Y-15006357D01*
X16312500Y-15063500D01*
X16312500Y-15134929D01*
X16298214Y-15192071D01*
X16283928Y-15220643D01*
X16269643Y-15234929D01*
X16241071Y-15249214D01*
X16212500Y-15249214D01*
X16183928Y-15234929D01*
X16169643Y-15220643D01*
X16155357Y-15192071D01*
X16141071Y-15134929D01*
X16141071Y-15063500D01*
X16155357Y-15006357D01*
X16169643Y-14977786D01*
X16183928Y-14963500D01*
X16212500Y-14949214D01*
X16441071Y-15220643D02*
X16455357Y-15234929D01*
X16441071Y-15249214D01*
X16426786Y-15234929D01*
X16441071Y-15220643D01*
X16441071Y-15249214D01*
X16641071Y-14949214D02*
X16669643Y-14949214D01*
X16698214Y-14963500D01*
X16712500Y-14977786D01*
X16726785Y-15006357D01*
X16741071Y-15063500D01*
X16741071Y-15134929D01*
X16726785Y-15192071D01*
X16712500Y-15220643D01*
X16698214Y-15234929D01*
X16669643Y-15249214D01*
X16641071Y-15249214D01*
X16612500Y-15234929D01*
X16598214Y-15220643D01*
X16583928Y-15192071D01*
X16569643Y-15134929D01*
X16569643Y-15063500D01*
X16583928Y-15006357D01*
X16598214Y-14977786D01*
X16612500Y-14963500D01*
X16641071Y-14949214D01*
X16841071Y-14949214D02*
X17026786Y-14949214D01*
X16926786Y-15063500D01*
X16969643Y-15063500D01*
X16998214Y-15077786D01*
X17012500Y-15092071D01*
X17026786Y-15120643D01*
X17026786Y-15192071D01*
X17012500Y-15220643D01*
X16998214Y-15234929D01*
X16969643Y-15249214D01*
X16883928Y-15249214D01*
X16855357Y-15234929D01*
X16841071Y-15220643D01*
X17312500Y-15249214D02*
X17141071Y-15249214D01*
X17226786Y-15249214D02*
X17226786Y-14949214D01*
X17198214Y-14992071D01*
X17169643Y-15020643D01*
X17141071Y-15034929D01*
X17426786Y-14949214D02*
X17426786Y-15006357D01*
X17541071Y-14949214D02*
X17541071Y-15006357D01*
X17983928Y-15363500D02*
X17969643Y-15349214D01*
X17941071Y-15306357D01*
X17926786Y-15277786D01*
X17912500Y-15234929D01*
X17898214Y-15163500D01*
X17898214Y-15106357D01*
X17912500Y-15034929D01*
X17926786Y-14992071D01*
X17941071Y-14963500D01*
X17969643Y-14920643D01*
X17983928Y-14906357D01*
X18255357Y-15249214D02*
X18083928Y-15249214D01*
X18169643Y-15249214D02*
X18169643Y-14949214D01*
X18141071Y-14992071D01*
X18112500Y-15020643D01*
X18083928Y-15034929D01*
X18512500Y-15049214D02*
X18512500Y-15249214D01*
X18441071Y-14934929D02*
X18369643Y-15149214D01*
X18555357Y-15149214D01*
X18898214Y-15249214D02*
X18898214Y-14949214D01*
X19026786Y-15249214D02*
X19026786Y-15092071D01*
X19012500Y-15063500D01*
X18983928Y-15049214D01*
X18941071Y-15049214D01*
X18912500Y-15063500D01*
X18898214Y-15077786D01*
X19212500Y-15249214D02*
X19183928Y-15234929D01*
X19169643Y-15220643D01*
X19155357Y-15192071D01*
X19155357Y-15106357D01*
X19169643Y-15077786D01*
X19183928Y-15063500D01*
X19212500Y-15049214D01*
X19255357Y-15049214D01*
X19283928Y-15063500D01*
X19298214Y-15077786D01*
X19312500Y-15106357D01*
X19312500Y-15192071D01*
X19298214Y-15220643D01*
X19283928Y-15234929D01*
X19255357Y-15249214D01*
X19212500Y-15249214D01*
X19483928Y-15249214D02*
X19455357Y-15234929D01*
X19441071Y-15206357D01*
X19441071Y-14949214D01*
X19712500Y-15234929D02*
X19683929Y-15249214D01*
X19626786Y-15249214D01*
X19598214Y-15234929D01*
X19583929Y-15206357D01*
X19583929Y-15092071D01*
X19598214Y-15063500D01*
X19626786Y-15049214D01*
X19683929Y-15049214D01*
X19712500Y-15063500D01*
X19726786Y-15092071D01*
X19726786Y-15120643D01*
X19583929Y-15149214D01*
X19841071Y-15234929D02*
X19869643Y-15249214D01*
X19926786Y-15249214D01*
X19955357Y-15234929D01*
X19969643Y-15206357D01*
X19969643Y-15192071D01*
X19955357Y-15163500D01*
X19926786Y-15149214D01*
X19883929Y-15149214D01*
X19855357Y-15134929D01*
X19841071Y-15106357D01*
X19841071Y-15092071D01*
X19855357Y-15063500D01*
X19883929Y-15049214D01*
X19926786Y-15049214D01*
X19955357Y-15063500D01*
X20069643Y-15363500D02*
X20083929Y-15349214D01*
X20112500Y-15306357D01*
X20126786Y-15277786D01*
X20141071Y-15234929D01*
X20155357Y-15163500D01*
X20155357Y-15106357D01*
X20141071Y-15034929D01*
X20126786Y-14992071D01*
X20112500Y-14963500D01*
X20083929Y-14920643D01*
X20069643Y-14906357D01*
X13267500Y-15464500D02*
X13267500Y-15554500D01*
X13222500Y-15509500D02*
X13312500Y-15509500D01*
X13641071Y-15345214D02*
X13669643Y-15345214D01*
X13698214Y-15359500D01*
X13712500Y-15373786D01*
X13726786Y-15402357D01*
X13741071Y-15459500D01*
X13741071Y-15530929D01*
X13726786Y-15588071D01*
X13712500Y-15616643D01*
X13698214Y-15630929D01*
X13669643Y-15645214D01*
X13641071Y-15645214D01*
X13612500Y-15630929D01*
X13598214Y-15616643D01*
X13583928Y-15588071D01*
X13569643Y-15530929D01*
X13569643Y-15459500D01*
X13583928Y-15402357D01*
X13598214Y-15373786D01*
X13612500Y-15359500D01*
X13641071Y-15345214D01*
X13869643Y-15616643D02*
X13883928Y-15630929D01*
X13869643Y-15645214D01*
X13855357Y-15630929D01*
X13869643Y-15616643D01*
X13869643Y-15645214D01*
X14026786Y-15645214D02*
X14083928Y-15645214D01*
X14112500Y-15630929D01*
X14126786Y-15616643D01*
X14155357Y-15573786D01*
X14169643Y-15516643D01*
X14169643Y-15402357D01*
X14155357Y-15373786D01*
X14141071Y-15359500D01*
X14112500Y-15345214D01*
X14055357Y-15345214D01*
X14026786Y-15359500D01*
X14012500Y-15373786D01*
X13998214Y-15402357D01*
X13998214Y-15473786D01*
X14012500Y-15502357D01*
X14026786Y-15516643D01*
X14055357Y-15530929D01*
X14112500Y-15530929D01*
X14141071Y-15516643D01*
X14155357Y-15502357D01*
X14169643Y-15473786D01*
X14355357Y-15345214D02*
X14383928Y-15345214D01*
X14412500Y-15359500D01*
X14426786Y-15373786D01*
X14441071Y-15402357D01*
X14455357Y-15459500D01*
X14455357Y-15530929D01*
X14441071Y-15588071D01*
X14426786Y-15616643D01*
X14412500Y-15630929D01*
X14383928Y-15645214D01*
X14355357Y-15645214D01*
X14326786Y-15630929D01*
X14312500Y-15616643D01*
X14298214Y-15588071D01*
X14283928Y-15530929D01*
X14283928Y-15459500D01*
X14298214Y-15402357D01*
X14312500Y-15373786D01*
X14326786Y-15359500D01*
X14355357Y-15345214D01*
X14583928Y-15645214D02*
X14583928Y-15445214D01*
X14583928Y-15473786D02*
X14598214Y-15459500D01*
X14626786Y-15445214D01*
X14669643Y-15445214D01*
X14698214Y-15459500D01*
X14712500Y-15488071D01*
X14712500Y-15645214D01*
X14712500Y-15488071D02*
X14726786Y-15459500D01*
X14755357Y-15445214D01*
X14798214Y-15445214D01*
X14826786Y-15459500D01*
X14841071Y-15488071D01*
X14841071Y-15645214D01*
X14983928Y-15645214D02*
X14983928Y-15445214D01*
X14983928Y-15473786D02*
X14998214Y-15459500D01*
X15026786Y-15445214D01*
X15069643Y-15445214D01*
X15098214Y-15459500D01*
X15112500Y-15488071D01*
X15112500Y-15645214D01*
X15112500Y-15488071D02*
X15126786Y-15459500D01*
X15155357Y-15445214D01*
X15198214Y-15445214D01*
X15226786Y-15459500D01*
X15241071Y-15488071D01*
X15241071Y-15645214D01*
X15826786Y-15330929D02*
X15569643Y-15716643D01*
X16212500Y-15345214D02*
X16241071Y-15345214D01*
X16269643Y-15359500D01*
X16283928Y-15373786D01*
X16298214Y-15402357D01*
X16312500Y-15459500D01*
X16312500Y-15530929D01*
X16298214Y-15588071D01*
X16283928Y-15616643D01*
X16269643Y-15630929D01*
X16241071Y-15645214D01*
X16212500Y-15645214D01*
X16183928Y-15630929D01*
X16169643Y-15616643D01*
X16155357Y-15588071D01*
X16141071Y-15530929D01*
X16141071Y-15459500D01*
X16155357Y-15402357D01*
X16169643Y-15373786D01*
X16183928Y-15359500D01*
X16212500Y-15345214D01*
X16441071Y-15616643D02*
X16455357Y-15630929D01*
X16441071Y-15645214D01*
X16426786Y-15630929D01*
X16441071Y-15616643D01*
X16441071Y-15645214D01*
X16641071Y-15345214D02*
X16669643Y-15345214D01*
X16698214Y-15359500D01*
X16712500Y-15373786D01*
X16726785Y-15402357D01*
X16741071Y-15459500D01*
X16741071Y-15530929D01*
X16726785Y-15588071D01*
X16712500Y-15616643D01*
X16698214Y-15630929D01*
X16669643Y-15645214D01*
X16641071Y-15645214D01*
X16612500Y-15630929D01*
X16598214Y-15616643D01*
X16583928Y-15588071D01*
X16569643Y-15530929D01*
X16569643Y-15459500D01*
X16583928Y-15402357D01*
X16598214Y-15373786D01*
X16612500Y-15359500D01*
X16641071Y-15345214D01*
X16841071Y-15345214D02*
X17026786Y-15345214D01*
X16926786Y-15459500D01*
X16969643Y-15459500D01*
X16998214Y-15473786D01*
X17012500Y-15488071D01*
X17026786Y-15516643D01*
X17026786Y-15588071D01*
X17012500Y-15616643D01*
X16998214Y-15630929D01*
X16969643Y-15645214D01*
X16883928Y-15645214D01*
X16855357Y-15630929D01*
X16841071Y-15616643D01*
X17298214Y-15345214D02*
X17155357Y-15345214D01*
X17141071Y-15488071D01*
X17155357Y-15473786D01*
X17183928Y-15459500D01*
X17255357Y-15459500D01*
X17283928Y-15473786D01*
X17298214Y-15488071D01*
X17312500Y-15516643D01*
X17312500Y-15588071D01*
X17298214Y-15616643D01*
X17283928Y-15630929D01*
X17255357Y-15645214D01*
X17183928Y-15645214D01*
X17155357Y-15630929D01*
X17141071Y-15616643D01*
X17426786Y-15345214D02*
X17426786Y-15402357D01*
X17541071Y-15345214D02*
X17541071Y-15402357D01*
X17983928Y-15759500D02*
X17969643Y-15745214D01*
X17941071Y-15702357D01*
X17926786Y-15673786D01*
X17912500Y-15630929D01*
X17898214Y-15559500D01*
X17898214Y-15502357D01*
X17912500Y-15430929D01*
X17926786Y-15388071D01*
X17941071Y-15359500D01*
X17969643Y-15316643D01*
X17983928Y-15302357D01*
X18226786Y-15445214D02*
X18226786Y-15645214D01*
X18155357Y-15330929D02*
X18083928Y-15545214D01*
X18269643Y-15545214D01*
X18612500Y-15645214D02*
X18612500Y-15345214D01*
X18741071Y-15645214D02*
X18741071Y-15488071D01*
X18726786Y-15459500D01*
X18698214Y-15445214D01*
X18655357Y-15445214D01*
X18626786Y-15459500D01*
X18612500Y-15473786D01*
X18926786Y-15645214D02*
X18898214Y-15630929D01*
X18883928Y-15616643D01*
X18869643Y-15588071D01*
X18869643Y-15502357D01*
X18883928Y-15473786D01*
X18898214Y-15459500D01*
X18926786Y-15445214D01*
X18969643Y-15445214D01*
X18998214Y-15459500D01*
X19012500Y-15473786D01*
X19026786Y-15502357D01*
X19026786Y-15588071D01*
X19012500Y-15616643D01*
X18998214Y-15630929D01*
X18969643Y-15645214D01*
X18926786Y-15645214D01*
X19198214Y-15645214D02*
X19169643Y-15630929D01*
X19155357Y-15602357D01*
X19155357Y-15345214D01*
X19426786Y-15630929D02*
X19398214Y-15645214D01*
X19341071Y-15645214D01*
X19312500Y-15630929D01*
X19298214Y-15602357D01*
X19298214Y-15488071D01*
X19312500Y-15459500D01*
X19341071Y-15445214D01*
X19398214Y-15445214D01*
X19426786Y-15459500D01*
X19441071Y-15488071D01*
X19441071Y-15516643D01*
X19298214Y-15545214D01*
X19555357Y-15630929D02*
X19583929Y-15645214D01*
X19641071Y-15645214D01*
X19669643Y-15630929D01*
X19683929Y-15602357D01*
X19683929Y-15588071D01*
X19669643Y-15559500D01*
X19641071Y-15545214D01*
X19598214Y-15545214D01*
X19569643Y-15530929D01*
X19555357Y-15502357D01*
X19555357Y-15488071D01*
X19569643Y-15459500D01*
X19598214Y-15445214D01*
X19641071Y-15445214D01*
X19669643Y-15459500D01*
X19783928Y-15759500D02*
X19798214Y-15745214D01*
X19826786Y-15702357D01*
X19841071Y-15673786D01*
X19855357Y-15630929D01*
X19869643Y-15559500D01*
X19869643Y-15502357D01*
X19855357Y-15430929D01*
X19841071Y-15388071D01*
X19826786Y-15359500D01*
X19798214Y-15316643D01*
X19783928Y-15302357D01*
X13297856Y-15940856D02*
X13297856Y-15870144D01*
X13227144Y-15870144D01*
X13227144Y-15940856D01*
X13297856Y-15940856D01*
X13741071Y-16041214D02*
X13569643Y-16041214D01*
X13655357Y-16041214D02*
X13655357Y-15741214D01*
X13626786Y-15784071D01*
X13598214Y-15812643D01*
X13569643Y-15826929D01*
X13869643Y-16012643D02*
X13883928Y-16026929D01*
X13869643Y-16041214D01*
X13855357Y-16026929D01*
X13869643Y-16012643D01*
X13869643Y-16041214D01*
X14069643Y-15741214D02*
X14098214Y-15741214D01*
X14126786Y-15755500D01*
X14141071Y-15769786D01*
X14155357Y-15798357D01*
X14169643Y-15855500D01*
X14169643Y-15926929D01*
X14155357Y-15984071D01*
X14141071Y-16012643D01*
X14126786Y-16026929D01*
X14098214Y-16041214D01*
X14069643Y-16041214D01*
X14041071Y-16026929D01*
X14026786Y-16012643D01*
X14012500Y-15984071D01*
X13998214Y-15926929D01*
X13998214Y-15855500D01*
X14012500Y-15798357D01*
X14026786Y-15769786D01*
X14041071Y-15755500D01*
X14069643Y-15741214D01*
X14355357Y-15741214D02*
X14383928Y-15741214D01*
X14412500Y-15755500D01*
X14426786Y-15769786D01*
X14441071Y-15798357D01*
X14455357Y-15855500D01*
X14455357Y-15926929D01*
X14441071Y-15984071D01*
X14426786Y-16012643D01*
X14412500Y-16026929D01*
X14383928Y-16041214D01*
X14355357Y-16041214D01*
X14326786Y-16026929D01*
X14312500Y-16012643D01*
X14298214Y-15984071D01*
X14283928Y-15926929D01*
X14283928Y-15855500D01*
X14298214Y-15798357D01*
X14312500Y-15769786D01*
X14326786Y-15755500D01*
X14355357Y-15741214D01*
X14583928Y-16041214D02*
X14583928Y-15841214D01*
X14583928Y-15869786D02*
X14598214Y-15855500D01*
X14626786Y-15841214D01*
X14669643Y-15841214D01*
X14698214Y-15855500D01*
X14712500Y-15884071D01*
X14712500Y-16041214D01*
X14712500Y-15884071D02*
X14726786Y-15855500D01*
X14755357Y-15841214D01*
X14798214Y-15841214D01*
X14826786Y-15855500D01*
X14841071Y-15884071D01*
X14841071Y-16041214D01*
X14983928Y-16041214D02*
X14983928Y-15841214D01*
X14983928Y-15869786D02*
X14998214Y-15855500D01*
X15026786Y-15841214D01*
X15069643Y-15841214D01*
X15098214Y-15855500D01*
X15112500Y-15884071D01*
X15112500Y-16041214D01*
X15112500Y-15884071D02*
X15126786Y-15855500D01*
X15155357Y-15841214D01*
X15198214Y-15841214D01*
X15226786Y-15855500D01*
X15241071Y-15884071D01*
X15241071Y-16041214D01*
X15826786Y-15726929D02*
X15569643Y-16112643D01*
X16212500Y-15741214D02*
X16241071Y-15741214D01*
X16269643Y-15755500D01*
X16283928Y-15769786D01*
X16298214Y-15798357D01*
X16312500Y-15855500D01*
X16312500Y-15926929D01*
X16298214Y-15984071D01*
X16283928Y-16012643D01*
X16269643Y-16026929D01*
X16241071Y-16041214D01*
X16212500Y-16041214D01*
X16183928Y-16026929D01*
X16169643Y-16012643D01*
X16155357Y-15984071D01*
X16141071Y-15926929D01*
X16141071Y-15855500D01*
X16155357Y-15798357D01*
X16169643Y-15769786D01*
X16183928Y-15755500D01*
X16212500Y-15741214D01*
X16441071Y-16012643D02*
X16455357Y-16026929D01*
X16441071Y-16041214D01*
X16426786Y-16026929D01*
X16441071Y-16012643D01*
X16441071Y-16041214D01*
X16641071Y-15741214D02*
X16669643Y-15741214D01*
X16698214Y-15755500D01*
X16712500Y-15769786D01*
X16726785Y-15798357D01*
X16741071Y-15855500D01*
X16741071Y-15926929D01*
X16726785Y-15984071D01*
X16712500Y-16012643D01*
X16698214Y-16026929D01*
X16669643Y-16041214D01*
X16641071Y-16041214D01*
X16612500Y-16026929D01*
X16598214Y-16012643D01*
X16583928Y-15984071D01*
X16569643Y-15926929D01*
X16569643Y-15855500D01*
X16583928Y-15798357D01*
X16598214Y-15769786D01*
X16612500Y-15755500D01*
X16641071Y-15741214D01*
X16841071Y-15741214D02*
X17026786Y-15741214D01*
X16926786Y-15855500D01*
X16969643Y-15855500D01*
X16998214Y-15869786D01*
X17012500Y-15884071D01*
X17026786Y-15912643D01*
X17026786Y-15984071D01*
X17012500Y-16012643D01*
X16998214Y-16026929D01*
X16969643Y-16041214D01*
X16883928Y-16041214D01*
X16855357Y-16026929D01*
X16841071Y-16012643D01*
X17169643Y-16041214D02*
X17226786Y-16041214D01*
X17255357Y-16026929D01*
X17269643Y-16012643D01*
X17298214Y-15969786D01*
X17312500Y-15912643D01*
X17312500Y-15798357D01*
X17298214Y-15769786D01*
X17283928Y-15755500D01*
X17255357Y-15741214D01*
X17198214Y-15741214D01*
X17169643Y-15755500D01*
X17155357Y-15769786D01*
X17141071Y-15798357D01*
X17141071Y-15869786D01*
X17155357Y-15898357D01*
X17169643Y-15912643D01*
X17198214Y-15926929D01*
X17255357Y-15926929D01*
X17283928Y-15912643D01*
X17298214Y-15898357D01*
X17312500Y-15869786D01*
X17426786Y-15741214D02*
X17426786Y-15798357D01*
X17541071Y-15741214D02*
X17541071Y-15798357D01*
X17983928Y-16155500D02*
X17969643Y-16141214D01*
X17941071Y-16098357D01*
X17926786Y-16069786D01*
X17912500Y-16026929D01*
X17898214Y-15955500D01*
X17898214Y-15898357D01*
X17912500Y-15826929D01*
X17926786Y-15784071D01*
X17941071Y-15755500D01*
X17969643Y-15712643D01*
X17983928Y-15698357D01*
X18083928Y-15769786D02*
X18098214Y-15755500D01*
X18126786Y-15741214D01*
X18198214Y-15741214D01*
X18226786Y-15755500D01*
X18241071Y-15769786D01*
X18255357Y-15798357D01*
X18255357Y-15826929D01*
X18241071Y-15869786D01*
X18069643Y-16041214D01*
X18255357Y-16041214D01*
X18369643Y-15769786D02*
X18383928Y-15755500D01*
X18412500Y-15741214D01*
X18483928Y-15741214D01*
X18512500Y-15755500D01*
X18526786Y-15769786D01*
X18541071Y-15798357D01*
X18541071Y-15826929D01*
X18526786Y-15869786D01*
X18355357Y-16041214D01*
X18541071Y-16041214D01*
X18898214Y-16041214D02*
X18898214Y-15741214D01*
X19026786Y-16041214D02*
X19026786Y-15884071D01*
X19012500Y-15855500D01*
X18983928Y-15841214D01*
X18941071Y-15841214D01*
X18912500Y-15855500D01*
X18898214Y-15869786D01*
X19212500Y-16041214D02*
X19183928Y-16026929D01*
X19169643Y-16012643D01*
X19155357Y-15984071D01*
X19155357Y-15898357D01*
X19169643Y-15869786D01*
X19183928Y-15855500D01*
X19212500Y-15841214D01*
X19255357Y-15841214D01*
X19283928Y-15855500D01*
X19298214Y-15869786D01*
X19312500Y-15898357D01*
X19312500Y-15984071D01*
X19298214Y-16012643D01*
X19283928Y-16026929D01*
X19255357Y-16041214D01*
X19212500Y-16041214D01*
X19483928Y-16041214D02*
X19455357Y-16026929D01*
X19441071Y-15998357D01*
X19441071Y-15741214D01*
X19712500Y-16026929D02*
X19683929Y-16041214D01*
X19626786Y-16041214D01*
X19598214Y-16026929D01*
X19583929Y-15998357D01*
X19583929Y-15884071D01*
X19598214Y-15855500D01*
X19626786Y-15841214D01*
X19683929Y-15841214D01*
X19712500Y-15855500D01*
X19726786Y-15884071D01*
X19726786Y-15912643D01*
X19583929Y-15941214D01*
X19841071Y-16026929D02*
X19869643Y-16041214D01*
X19926786Y-16041214D01*
X19955357Y-16026929D01*
X19969643Y-15998357D01*
X19969643Y-15984071D01*
X19955357Y-15955500D01*
X19926786Y-15941214D01*
X19883929Y-15941214D01*
X19855357Y-15926929D01*
X19841071Y-15898357D01*
X19841071Y-15884071D01*
X19855357Y-15855500D01*
X19883929Y-15841214D01*
X19926786Y-15841214D01*
X19955357Y-15855500D01*
X20069643Y-16155500D02*
X20083929Y-16141214D01*
X20112500Y-16098357D01*
X20126786Y-16069786D01*
X20141071Y-16026929D01*
X20155357Y-15955500D01*
X20155357Y-15898357D01*
X20141071Y-15826929D01*
X20126786Y-15784071D01*
X20112500Y-15755500D01*
X20083929Y-15712643D01*
X20069643Y-15698357D01*
X13257500Y-16356500D02*
X13312500Y-16301500D01*
X13257500Y-16246500D01*
X13202500Y-16301500D01*
X13257500Y-16356500D01*
X13741071Y-16437214D02*
X13569643Y-16437214D01*
X13655357Y-16437214D02*
X13655357Y-16137214D01*
X13626786Y-16180071D01*
X13598214Y-16208643D01*
X13569643Y-16222929D01*
X13869643Y-16408643D02*
X13883928Y-16422929D01*
X13869643Y-16437214D01*
X13855357Y-16422929D01*
X13869643Y-16408643D01*
X13869643Y-16437214D01*
X14169643Y-16437214D02*
X13998214Y-16437214D01*
X14083928Y-16437214D02*
X14083928Y-16137214D01*
X14055357Y-16180071D01*
X14026786Y-16208643D01*
X13998214Y-16222929D01*
X14355357Y-16137214D02*
X14383928Y-16137214D01*
X14412500Y-16151500D01*
X14426786Y-16165786D01*
X14441071Y-16194357D01*
X14455357Y-16251500D01*
X14455357Y-16322929D01*
X14441071Y-16380071D01*
X14426786Y-16408643D01*
X14412500Y-16422929D01*
X14383928Y-16437214D01*
X14355357Y-16437214D01*
X14326786Y-16422929D01*
X14312500Y-16408643D01*
X14298214Y-16380071D01*
X14283928Y-16322929D01*
X14283928Y-16251500D01*
X14298214Y-16194357D01*
X14312500Y-16165786D01*
X14326786Y-16151500D01*
X14355357Y-16137214D01*
X14583928Y-16437214D02*
X14583928Y-16237214D01*
X14583928Y-16265786D02*
X14598214Y-16251500D01*
X14626786Y-16237214D01*
X14669643Y-16237214D01*
X14698214Y-16251500D01*
X14712500Y-16280071D01*
X14712500Y-16437214D01*
X14712500Y-16280071D02*
X14726786Y-16251500D01*
X14755357Y-16237214D01*
X14798214Y-16237214D01*
X14826786Y-16251500D01*
X14841071Y-16280071D01*
X14841071Y-16437214D01*
X14983928Y-16437214D02*
X14983928Y-16237214D01*
X14983928Y-16265786D02*
X14998214Y-16251500D01*
X15026786Y-16237214D01*
X15069643Y-16237214D01*
X15098214Y-16251500D01*
X15112500Y-16280071D01*
X15112500Y-16437214D01*
X15112500Y-16280071D02*
X15126786Y-16251500D01*
X15155357Y-16237214D01*
X15198214Y-16237214D01*
X15226786Y-16251500D01*
X15241071Y-16280071D01*
X15241071Y-16437214D01*
X15826786Y-16122929D02*
X15569643Y-16508643D01*
X16212500Y-16137214D02*
X16241071Y-16137214D01*
X16269643Y-16151500D01*
X16283928Y-16165786D01*
X16298214Y-16194357D01*
X16312500Y-16251500D01*
X16312500Y-16322929D01*
X16298214Y-16380071D01*
X16283928Y-16408643D01*
X16269643Y-16422929D01*
X16241071Y-16437214D01*
X16212500Y-16437214D01*
X16183928Y-16422929D01*
X16169643Y-16408643D01*
X16155357Y-16380071D01*
X16141071Y-16322929D01*
X16141071Y-16251500D01*
X16155357Y-16194357D01*
X16169643Y-16165786D01*
X16183928Y-16151500D01*
X16212500Y-16137214D01*
X16441071Y-16408643D02*
X16455357Y-16422929D01*
X16441071Y-16437214D01*
X16426786Y-16422929D01*
X16441071Y-16408643D01*
X16441071Y-16437214D01*
X16641071Y-16137214D02*
X16669643Y-16137214D01*
X16698214Y-16151500D01*
X16712500Y-16165786D01*
X16726785Y-16194357D01*
X16741071Y-16251500D01*
X16741071Y-16322929D01*
X16726785Y-16380071D01*
X16712500Y-16408643D01*
X16698214Y-16422929D01*
X16669643Y-16437214D01*
X16641071Y-16437214D01*
X16612500Y-16422929D01*
X16598214Y-16408643D01*
X16583928Y-16380071D01*
X16569643Y-16322929D01*
X16569643Y-16251500D01*
X16583928Y-16194357D01*
X16598214Y-16165786D01*
X16612500Y-16151500D01*
X16641071Y-16137214D01*
X16998214Y-16237214D02*
X16998214Y-16437214D01*
X16926786Y-16122929D02*
X16855357Y-16337214D01*
X17041071Y-16337214D01*
X17126786Y-16137214D02*
X17312500Y-16137214D01*
X17212500Y-16251500D01*
X17255357Y-16251500D01*
X17283928Y-16265786D01*
X17298214Y-16280071D01*
X17312500Y-16308643D01*
X17312500Y-16380071D01*
X17298214Y-16408643D01*
X17283928Y-16422929D01*
X17255357Y-16437214D01*
X17169643Y-16437214D01*
X17141071Y-16422929D01*
X17126786Y-16408643D01*
X17426786Y-16137214D02*
X17426786Y-16194357D01*
X17541071Y-16137214D02*
X17541071Y-16194357D01*
X17983928Y-16551500D02*
X17969643Y-16537214D01*
X17941071Y-16494357D01*
X17926786Y-16465786D01*
X17912500Y-16422929D01*
X17898214Y-16351500D01*
X17898214Y-16294357D01*
X17912500Y-16222929D01*
X17926786Y-16180071D01*
X17941071Y-16151500D01*
X17969643Y-16108643D01*
X17983928Y-16094357D01*
X18255357Y-16437214D02*
X18083928Y-16437214D01*
X18169643Y-16437214D02*
X18169643Y-16137214D01*
X18141071Y-16180071D01*
X18112500Y-16208643D01*
X18083928Y-16222929D01*
X18512500Y-16137214D02*
X18455357Y-16137214D01*
X18426786Y-16151500D01*
X18412500Y-16165786D01*
X18383928Y-16208643D01*
X18369643Y-16265786D01*
X18369643Y-16380071D01*
X18383928Y-16408643D01*
X18398214Y-16422929D01*
X18426786Y-16437214D01*
X18483928Y-16437214D01*
X18512500Y-16422929D01*
X18526786Y-16408643D01*
X18541071Y-16380071D01*
X18541071Y-16308643D01*
X18526786Y-16280071D01*
X18512500Y-16265786D01*
X18483928Y-16251500D01*
X18426786Y-16251500D01*
X18398214Y-16265786D01*
X18383928Y-16280071D01*
X18369643Y-16308643D01*
X18898214Y-16437214D02*
X18898214Y-16137214D01*
X19026786Y-16437214D02*
X19026786Y-16280071D01*
X19012500Y-16251500D01*
X18983928Y-16237214D01*
X18941071Y-16237214D01*
X18912500Y-16251500D01*
X18898214Y-16265786D01*
X19212500Y-16437214D02*
X19183928Y-16422929D01*
X19169643Y-16408643D01*
X19155357Y-16380071D01*
X19155357Y-16294357D01*
X19169643Y-16265786D01*
X19183928Y-16251500D01*
X19212500Y-16237214D01*
X19255357Y-16237214D01*
X19283928Y-16251500D01*
X19298214Y-16265786D01*
X19312500Y-16294357D01*
X19312500Y-16380071D01*
X19298214Y-16408643D01*
X19283928Y-16422929D01*
X19255357Y-16437214D01*
X19212500Y-16437214D01*
X19483928Y-16437214D02*
X19455357Y-16422929D01*
X19441071Y-16394357D01*
X19441071Y-16137214D01*
X19712500Y-16422929D02*
X19683929Y-16437214D01*
X19626786Y-16437214D01*
X19598214Y-16422929D01*
X19583929Y-16394357D01*
X19583929Y-16280071D01*
X19598214Y-16251500D01*
X19626786Y-16237214D01*
X19683929Y-16237214D01*
X19712500Y-16251500D01*
X19726786Y-16280071D01*
X19726786Y-16308643D01*
X19583929Y-16337214D01*
X19841071Y-16422929D02*
X19869643Y-16437214D01*
X19926786Y-16437214D01*
X19955357Y-16422929D01*
X19969643Y-16394357D01*
X19969643Y-16380071D01*
X19955357Y-16351500D01*
X19926786Y-16337214D01*
X19883929Y-16337214D01*
X19855357Y-16322929D01*
X19841071Y-16294357D01*
X19841071Y-16280071D01*
X19855357Y-16251500D01*
X19883929Y-16237214D01*
X19926786Y-16237214D01*
X19955357Y-16251500D01*
X20069643Y-16551500D02*
X20083929Y-16537214D01*
X20112500Y-16494357D01*
X20126786Y-16465786D01*
X20141071Y-16422929D01*
X20155357Y-16351500D01*
X20155357Y-16294357D01*
X20141071Y-16222929D01*
X20126786Y-16180071D01*
X20112500Y-16151500D01*
X20083929Y-16108643D01*
X20069643Y-16094357D01*
M02*
