M48
;DRILL file {KiCad 4.0.6+dfsg1-1} date Sat Jan 20 11:22:14 2018
;FORMAT={-:-/ absolute / metric / decimal}
FMAT,2
METRIC,TZ
T1C0.762
T2C0.800
T3C0.900
T4C1.000
T5C1.100
%
G90
G05
M71
T1
X142.35Y-103.95
X144.75Y-103.95
X157.25Y-122.7
X169.25Y-122.7
T2
X135.33Y-130.63
X135.33Y-133.17
X135.33Y-135.71
X135.33Y-138.25
X142.95Y-130.63
X142.95Y-133.17
X142.95Y-135.71
X142.95Y-138.25
X147.72Y-132.15
X147.72Y-134.69
X147.72Y-142.31
X147.72Y-144.85
X170.58Y-132.15
X170.58Y-144.85
T3
X146.8Y-95.
X149.3Y-95.
X175.7Y-117.25
X175.7Y-119.75
X175.7Y-122.25
X175.7Y-124.75
X175.75Y-103.65
X175.75Y-106.15
T4
X136.438Y-108.66
X136.438Y-111.2
X136.438Y-113.74
X136.438Y-116.28
X136.438Y-118.82
X136.438Y-121.36
X136.438Y-123.9
X136.438Y-126.44
X150.662Y-108.66
X150.662Y-111.2
X150.662Y-113.74
X150.662Y-116.28
X150.662Y-118.82
X150.662Y-121.36
X150.662Y-123.9
X150.662Y-126.44
T5
X134.7Y-89.
X134.7Y-93.5
X134.7Y-141.5
X134.7Y-146.
X141.2Y-89.
X141.2Y-93.5
X141.2Y-141.5
X141.2Y-146.
X175.2Y-89.
X175.2Y-93.5
X175.2Y-141.5
X175.2Y-146.
X181.7Y-89.
X181.7Y-93.5
X181.7Y-141.5
X181.7Y-146.
T0
M30
