G04 #@! TF.FileFunction,Copper,L2,Bot,Signal*
%FSLAX46Y46*%
G04 Gerber Fmt 4.6, Leading zero omitted, Abs format (unit mm)*
G04 Created by KiCad (PCBNEW 4.0.6+dfsg1-1) date Thu May  3 14:08:41 2018*
%MOMM*%
%LPD*%
G01*
G04 APERTURE LIST*
%ADD10C,0.100000*%
%ADD11C,1.524000*%
%ADD12R,1.700000X1.700000*%
%ADD13O,2.000000X1.700000*%
%ADD14C,2.000000*%
%ADD15R,2.000000X1.800000*%
%ADD16O,2.000000X1.800000*%
%ADD17C,0.250000*%
%ADD18C,0.254000*%
G04 APERTURE END LIST*
D10*
D11*
X157250000Y-122700000D03*
X169250000Y-122700000D03*
D12*
X180500000Y-102300000D03*
D13*
X180500000Y-104840000D03*
X180500000Y-107380000D03*
X180500000Y-109920000D03*
X180500000Y-112460000D03*
X180500000Y-115000000D03*
X180500000Y-117540000D03*
X180500000Y-120080000D03*
D14*
X134700000Y-93500000D03*
X134700000Y-89000000D03*
X141200000Y-93500000D03*
X141200000Y-89000000D03*
X175200000Y-93500000D03*
X175200000Y-89000000D03*
X181700000Y-93500000D03*
X181700000Y-89000000D03*
X175200000Y-146000000D03*
X175200000Y-141500000D03*
X181700000Y-146000000D03*
X181700000Y-141500000D03*
X134700000Y-146000000D03*
X134700000Y-141500000D03*
X141200000Y-146000000D03*
X141200000Y-141500000D03*
X147720000Y-142310000D03*
X147720000Y-134690000D03*
X147720000Y-131946800D03*
X147720000Y-145053200D03*
X170580000Y-131743600D03*
X170580000Y-145256400D03*
D15*
X142950000Y-138250000D03*
D16*
X135330000Y-130630000D03*
X142950000Y-135710000D03*
X135330000Y-133170000D03*
X142950000Y-133170000D03*
X135330000Y-135710000D03*
X142950000Y-130630000D03*
X135330000Y-138250000D03*
X151070000Y-126540000D03*
X151070000Y-124000000D03*
X151070000Y-121460000D03*
X151070000Y-118920000D03*
X151070000Y-116380000D03*
X151070000Y-113840000D03*
X151070000Y-111300000D03*
X151070000Y-108760000D03*
X135830000Y-126540000D03*
X135830000Y-124000000D03*
X135830000Y-121460000D03*
X135830000Y-118920000D03*
X135830000Y-116380000D03*
X135830000Y-113840000D03*
X135830000Y-111300000D03*
D15*
X135830000Y-108760000D03*
D14*
X144825000Y-99050000D03*
X142050000Y-99050000D03*
D17*
X157850000Y-111300000D02*
X169250000Y-122700000D01*
X151070000Y-111300000D02*
X157850000Y-111300000D01*
X181700000Y-146000000D02*
X175200000Y-146000000D01*
X181700000Y-93500000D02*
X175200000Y-93500000D01*
X175200000Y-93500000D02*
X141200000Y-93500000D01*
X141200000Y-93500000D02*
X134700000Y-93500000D01*
X174554700Y-146645300D02*
X175200000Y-146000000D01*
X141845300Y-146645300D02*
X174554700Y-146645300D01*
X141200000Y-146000000D02*
X141845300Y-146645300D01*
X146632800Y-145053200D02*
X147720000Y-145053200D01*
X139829600Y-138250000D02*
X146632800Y-145053200D01*
X135330000Y-138250000D02*
X139829600Y-138250000D01*
X136555300Y-134395300D02*
X135330000Y-134395300D01*
X139127700Y-136967700D02*
X136555300Y-134395300D01*
X143535600Y-136967700D02*
X139127700Y-136967700D01*
X145657200Y-134846100D02*
X143535600Y-136967700D01*
X145657200Y-132106000D02*
X145657200Y-134846100D01*
X149997900Y-127765300D02*
X145657200Y-132106000D01*
X151070000Y-127765300D02*
X149997900Y-127765300D01*
X151070000Y-126540000D02*
X151070000Y-127765300D01*
X135330000Y-133170000D02*
X135330000Y-134395300D01*
X140009400Y-131944700D02*
X142950000Y-131944700D01*
X135830000Y-127765300D02*
X140009400Y-131944700D01*
X135830000Y-126540000D02*
X135830000Y-127765300D01*
X142950000Y-133170000D02*
X142950000Y-131944700D01*
X179324700Y-111284700D02*
X180500000Y-111284700D01*
X167090000Y-99050000D02*
X179324700Y-111284700D01*
X144825000Y-99050000D02*
X167090000Y-99050000D01*
X180500000Y-112460000D02*
X180500000Y-111284700D01*
X180500000Y-115000000D02*
X180500000Y-113824700D01*
X179324700Y-113824700D02*
X180500000Y-113824700D01*
X170464000Y-104964000D02*
X179324700Y-113824700D01*
X147964000Y-104964000D02*
X170464000Y-104964000D01*
X142050000Y-99050000D02*
X147964000Y-104964000D01*
X141200000Y-141500000D02*
X134700000Y-141500000D01*
X181700000Y-141500000D02*
X175200000Y-141500000D01*
X181837500Y-141362500D02*
X181700000Y-141500000D01*
X181837500Y-119538600D02*
X181837500Y-141362500D01*
X181014200Y-118715300D02*
X181837500Y-119538600D01*
X180500000Y-118715300D02*
X181014200Y-118715300D01*
X180500000Y-117540000D02*
X180500000Y-118715300D01*
X135830000Y-121460000D02*
X135830000Y-122685300D01*
X149533900Y-122685300D02*
X142950000Y-129269200D01*
X151070000Y-122685300D02*
X149533900Y-122685300D01*
X136366100Y-122685300D02*
X142950000Y-129269200D01*
X135830000Y-122685300D02*
X136366100Y-122685300D01*
X142950000Y-129269200D02*
X142950000Y-130630000D01*
X151070000Y-121460000D02*
X151070000Y-121972800D01*
X151070000Y-121972800D02*
X151070000Y-122685300D01*
X174772500Y-118715300D02*
X180500000Y-118715300D01*
X169663400Y-123824400D02*
X174772500Y-118715300D01*
X152921600Y-123824400D02*
X169663400Y-123824400D01*
X151070000Y-121972800D02*
X152921600Y-123824400D01*
X174044700Y-120080000D02*
X180500000Y-120080000D01*
X162177900Y-131946800D02*
X174044700Y-120080000D01*
X147720000Y-131946800D02*
X162177900Y-131946800D01*
D18*
G36*
X140509354Y-140004556D02*
X140325736Y-140080613D01*
X140227073Y-140347468D01*
X141200000Y-141320395D01*
X141214143Y-141306253D01*
X141393748Y-141485858D01*
X141379605Y-141500000D01*
X142352532Y-142472927D01*
X142619387Y-142374264D01*
X142689727Y-142184929D01*
X146095399Y-145590601D01*
X146202563Y-145662205D01*
X146294744Y-145885300D01*
X142835101Y-145885300D01*
X142835284Y-145676205D01*
X142586894Y-145075057D01*
X142127363Y-144614722D01*
X141526648Y-144365284D01*
X140876205Y-144364716D01*
X140275057Y-144613106D01*
X139814722Y-145072637D01*
X139565284Y-145673352D01*
X139564716Y-146323795D01*
X139757349Y-146790000D01*
X136142316Y-146790000D01*
X136334716Y-146326648D01*
X136335284Y-145676205D01*
X136086894Y-145075057D01*
X135627363Y-144614722D01*
X135026648Y-144365284D01*
X134376205Y-144364716D01*
X133910000Y-144557349D01*
X133910000Y-142950692D01*
X134435461Y-143145908D01*
X135085460Y-143121856D01*
X135574264Y-142919387D01*
X135672927Y-142652532D01*
X140227073Y-142652532D01*
X140325736Y-142919387D01*
X140935461Y-143145908D01*
X141585460Y-143121856D01*
X142074264Y-142919387D01*
X142172927Y-142652532D01*
X141200000Y-141679605D01*
X140227073Y-142652532D01*
X135672927Y-142652532D01*
X134700000Y-141679605D01*
X134685858Y-141693748D01*
X134506253Y-141514143D01*
X134520395Y-141500000D01*
X134879605Y-141500000D01*
X135852532Y-142472927D01*
X136119387Y-142374264D01*
X136345908Y-141764539D01*
X136326331Y-141235461D01*
X139554092Y-141235461D01*
X139578144Y-141885460D01*
X139780613Y-142374264D01*
X140047468Y-142472927D01*
X141020395Y-141500000D01*
X140047468Y-140527073D01*
X139780613Y-140625736D01*
X139554092Y-141235461D01*
X136326331Y-141235461D01*
X136321856Y-141114540D01*
X136119387Y-140625736D01*
X135852532Y-140527073D01*
X134879605Y-141500000D01*
X134520395Y-141500000D01*
X134506253Y-141485858D01*
X134685858Y-141306253D01*
X134700000Y-141320395D01*
X135672927Y-140347468D01*
X135574264Y-140080613D01*
X134964539Y-139854092D01*
X134314540Y-139878144D01*
X133910000Y-140045710D01*
X133910000Y-139032258D01*
X134112559Y-139335409D01*
X134610549Y-139668155D01*
X135197968Y-139785000D01*
X135462032Y-139785000D01*
X136049451Y-139668155D01*
X136547441Y-139335409D01*
X136764872Y-139010000D01*
X139514798Y-139010000D01*
X140509354Y-140004556D01*
X140509354Y-140004556D01*
G37*
X140509354Y-140004556D02*
X140325736Y-140080613D01*
X140227073Y-140347468D01*
X141200000Y-141320395D01*
X141214143Y-141306253D01*
X141393748Y-141485858D01*
X141379605Y-141500000D01*
X142352532Y-142472927D01*
X142619387Y-142374264D01*
X142689727Y-142184929D01*
X146095399Y-145590601D01*
X146202563Y-145662205D01*
X146294744Y-145885300D01*
X142835101Y-145885300D01*
X142835284Y-145676205D01*
X142586894Y-145075057D01*
X142127363Y-144614722D01*
X141526648Y-144365284D01*
X140876205Y-144364716D01*
X140275057Y-144613106D01*
X139814722Y-145072637D01*
X139565284Y-145673352D01*
X139564716Y-146323795D01*
X139757349Y-146790000D01*
X136142316Y-146790000D01*
X136334716Y-146326648D01*
X136335284Y-145676205D01*
X136086894Y-145075057D01*
X135627363Y-144614722D01*
X135026648Y-144365284D01*
X134376205Y-144364716D01*
X133910000Y-144557349D01*
X133910000Y-142950692D01*
X134435461Y-143145908D01*
X135085460Y-143121856D01*
X135574264Y-142919387D01*
X135672927Y-142652532D01*
X140227073Y-142652532D01*
X140325736Y-142919387D01*
X140935461Y-143145908D01*
X141585460Y-143121856D01*
X142074264Y-142919387D01*
X142172927Y-142652532D01*
X141200000Y-141679605D01*
X140227073Y-142652532D01*
X135672927Y-142652532D01*
X134700000Y-141679605D01*
X134685858Y-141693748D01*
X134506253Y-141514143D01*
X134520395Y-141500000D01*
X134879605Y-141500000D01*
X135852532Y-142472927D01*
X136119387Y-142374264D01*
X136345908Y-141764539D01*
X136326331Y-141235461D01*
X139554092Y-141235461D01*
X139578144Y-141885460D01*
X139780613Y-142374264D01*
X140047468Y-142472927D01*
X141020395Y-141500000D01*
X140047468Y-140527073D01*
X139780613Y-140625736D01*
X139554092Y-141235461D01*
X136326331Y-141235461D01*
X136321856Y-141114540D01*
X136119387Y-140625736D01*
X135852532Y-140527073D01*
X134879605Y-141500000D01*
X134520395Y-141500000D01*
X134506253Y-141485858D01*
X134685858Y-141306253D01*
X134700000Y-141320395D01*
X135672927Y-140347468D01*
X135574264Y-140080613D01*
X134964539Y-139854092D01*
X134314540Y-139878144D01*
X133910000Y-140045710D01*
X133910000Y-139032258D01*
X134112559Y-139335409D01*
X134610549Y-139668155D01*
X135197968Y-139785000D01*
X135462032Y-139785000D01*
X136049451Y-139668155D01*
X136547441Y-139335409D01*
X136764872Y-139010000D01*
X139514798Y-139010000D01*
X140509354Y-140004556D01*
G36*
X139813106Y-94424943D02*
X140272637Y-94885278D01*
X140873352Y-95134716D01*
X141523795Y-95135284D01*
X142124943Y-94886894D01*
X142585278Y-94427363D01*
X142654773Y-94260000D01*
X173744953Y-94260000D01*
X173813106Y-94424943D01*
X174272637Y-94885278D01*
X174873352Y-95134716D01*
X175523795Y-95135284D01*
X176124943Y-94886894D01*
X176585278Y-94427363D01*
X176654773Y-94260000D01*
X180244953Y-94260000D01*
X180313106Y-94424943D01*
X180772637Y-94885278D01*
X181373352Y-95134716D01*
X182023795Y-95135284D01*
X182490000Y-94942651D01*
X182490000Y-140049308D01*
X181964539Y-139854092D01*
X181314540Y-139878144D01*
X180825736Y-140080613D01*
X180727073Y-140347468D01*
X181700000Y-141320395D01*
X181714143Y-141306253D01*
X181893748Y-141485858D01*
X181879605Y-141500000D01*
X181893748Y-141514143D01*
X181714143Y-141693748D01*
X181700000Y-141679605D01*
X180727073Y-142652532D01*
X180825736Y-142919387D01*
X181435461Y-143145908D01*
X182085460Y-143121856D01*
X182490000Y-142954290D01*
X182490000Y-144557684D01*
X182026648Y-144365284D01*
X181376205Y-144364716D01*
X180775057Y-144613106D01*
X180314722Y-145072637D01*
X180245227Y-145240000D01*
X176655047Y-145240000D01*
X176586894Y-145075057D01*
X176127363Y-144614722D01*
X175526648Y-144365284D01*
X174876205Y-144364716D01*
X174275057Y-144613106D01*
X173814722Y-145072637D01*
X173565284Y-145673352D01*
X173565099Y-145885300D01*
X172089210Y-145885300D01*
X172214716Y-145583048D01*
X172215284Y-144932605D01*
X171966894Y-144331457D01*
X171507363Y-143871122D01*
X170906648Y-143621684D01*
X170256205Y-143621116D01*
X169655057Y-143869506D01*
X169194722Y-144329037D01*
X168945284Y-144929752D01*
X168944716Y-145580195D01*
X169070783Y-145885300D01*
X149144835Y-145885300D01*
X149354716Y-145379848D01*
X149355284Y-144729405D01*
X149106894Y-144128257D01*
X148660641Y-143681223D01*
X149105278Y-143237363D01*
X149348120Y-142652532D01*
X174227073Y-142652532D01*
X174325736Y-142919387D01*
X174935461Y-143145908D01*
X175585460Y-143121856D01*
X176074264Y-142919387D01*
X176172927Y-142652532D01*
X175200000Y-141679605D01*
X174227073Y-142652532D01*
X149348120Y-142652532D01*
X149354716Y-142636648D01*
X149355284Y-141986205D01*
X149106894Y-141385057D01*
X148957560Y-141235461D01*
X173554092Y-141235461D01*
X173578144Y-141885460D01*
X173780613Y-142374264D01*
X174047468Y-142472927D01*
X175020395Y-141500000D01*
X175379605Y-141500000D01*
X176352532Y-142472927D01*
X176619387Y-142374264D01*
X176845908Y-141764539D01*
X176826331Y-141235461D01*
X180054092Y-141235461D01*
X180078144Y-141885460D01*
X180280613Y-142374264D01*
X180547468Y-142472927D01*
X181520395Y-141500000D01*
X180547468Y-140527073D01*
X180280613Y-140625736D01*
X180054092Y-141235461D01*
X176826331Y-141235461D01*
X176821856Y-141114540D01*
X176619387Y-140625736D01*
X176352532Y-140527073D01*
X175379605Y-141500000D01*
X175020395Y-141500000D01*
X174047468Y-140527073D01*
X173780613Y-140625736D01*
X173554092Y-141235461D01*
X148957560Y-141235461D01*
X148647363Y-140924722D01*
X148046648Y-140675284D01*
X147396205Y-140674716D01*
X146795057Y-140923106D01*
X146334722Y-141382637D01*
X146085284Y-141983352D01*
X146084716Y-142633795D01*
X146333106Y-143234943D01*
X146779359Y-143681977D01*
X146557675Y-143903273D01*
X143001870Y-140347468D01*
X174227073Y-140347468D01*
X175200000Y-141320395D01*
X176172927Y-140347468D01*
X176074264Y-140080613D01*
X175464539Y-139854092D01*
X174814540Y-139878144D01*
X174325736Y-140080613D01*
X174227073Y-140347468D01*
X143001870Y-140347468D01*
X142451842Y-139797440D01*
X143950000Y-139797440D01*
X144185317Y-139753162D01*
X144401441Y-139614090D01*
X144546431Y-139401890D01*
X144597440Y-139150000D01*
X144597440Y-137350000D01*
X144553162Y-137114683D01*
X144518024Y-137060078D01*
X146194601Y-135383502D01*
X146221094Y-135343853D01*
X146333106Y-135614943D01*
X146792637Y-136075278D01*
X147393352Y-136324716D01*
X148043795Y-136325284D01*
X148644943Y-136076894D01*
X149105278Y-135617363D01*
X149354716Y-135016648D01*
X149355284Y-134366205D01*
X149106894Y-133765057D01*
X148660641Y-133318023D01*
X149105278Y-132874163D01*
X149174773Y-132706800D01*
X162177900Y-132706800D01*
X162468739Y-132648948D01*
X162715301Y-132484201D01*
X163132107Y-132067395D01*
X168944716Y-132067395D01*
X169193106Y-132668543D01*
X169652637Y-133128878D01*
X170253352Y-133378316D01*
X170903795Y-133378884D01*
X171504943Y-133130494D01*
X171965278Y-132670963D01*
X172214716Y-132070248D01*
X172215284Y-131419805D01*
X171966894Y-130818657D01*
X171507363Y-130358322D01*
X170906648Y-130108884D01*
X170256205Y-130108316D01*
X169655057Y-130356706D01*
X169194722Y-130816237D01*
X168945284Y-131416952D01*
X168944716Y-132067395D01*
X163132107Y-132067395D01*
X167641350Y-127558153D01*
X167765838Y-128183999D01*
X168266583Y-128933417D01*
X169016001Y-129434162D01*
X169900000Y-129610000D01*
X170783999Y-129434162D01*
X171533417Y-128933417D01*
X172034162Y-128183999D01*
X172210000Y-127300000D01*
X174790000Y-127300000D01*
X174965838Y-128183999D01*
X175466583Y-128933417D01*
X176216001Y-129434162D01*
X177100000Y-129610000D01*
X177983999Y-129434162D01*
X178733417Y-128933417D01*
X179234162Y-128183999D01*
X179410000Y-127300000D01*
X179234162Y-126416001D01*
X178733417Y-125666583D01*
X177983999Y-125165838D01*
X177100000Y-124990000D01*
X176216001Y-125165838D01*
X175466583Y-125666583D01*
X174965838Y-126416001D01*
X174790000Y-127300000D01*
X172210000Y-127300000D01*
X172034162Y-126416001D01*
X171533417Y-125666583D01*
X170783999Y-125165838D01*
X170158153Y-125041350D01*
X174359503Y-120840000D01*
X179074107Y-120840000D01*
X179267914Y-121130054D01*
X179749683Y-121451961D01*
X180317968Y-121565000D01*
X180682032Y-121565000D01*
X181250317Y-121451961D01*
X181732086Y-121130054D01*
X182053993Y-120648285D01*
X182167032Y-120080000D01*
X182053993Y-119511715D01*
X181732086Y-119029946D01*
X181410915Y-118815347D01*
X181838664Y-118432045D01*
X182089553Y-117909260D01*
X182091476Y-117896890D01*
X181970155Y-117667000D01*
X180627000Y-117667000D01*
X180627000Y-117687000D01*
X180373000Y-117687000D01*
X180373000Y-117667000D01*
X179029845Y-117667000D01*
X178908524Y-117896890D01*
X178910447Y-117909260D01*
X179161336Y-118432045D01*
X179589085Y-118815347D01*
X179267914Y-119029946D01*
X179074107Y-119320000D01*
X174044700Y-119320000D01*
X173753861Y-119377852D01*
X173507299Y-119542598D01*
X170641194Y-122408703D01*
X170435010Y-121909697D01*
X170042370Y-121516371D01*
X169529100Y-121303243D01*
X168973339Y-121302758D01*
X168940945Y-121316143D01*
X158387401Y-110762599D01*
X158140839Y-110597852D01*
X157850000Y-110540000D01*
X152504872Y-110540000D01*
X152287441Y-110214591D01*
X152011181Y-110030000D01*
X152287441Y-109845409D01*
X152620187Y-109347419D01*
X152737032Y-108760000D01*
X152620187Y-108172581D01*
X152287441Y-107674591D01*
X151789451Y-107341845D01*
X151202032Y-107225000D01*
X150937968Y-107225000D01*
X150350549Y-107341845D01*
X149852559Y-107674591D01*
X149519813Y-108172581D01*
X149402968Y-108760000D01*
X149519813Y-109347419D01*
X149852559Y-109845409D01*
X150128819Y-110030000D01*
X149852559Y-110214591D01*
X149519813Y-110712581D01*
X149402968Y-111300000D01*
X149519813Y-111887419D01*
X149852559Y-112385409D01*
X150128819Y-112570000D01*
X149852559Y-112754591D01*
X149519813Y-113252581D01*
X149402968Y-113840000D01*
X149519813Y-114427419D01*
X149852559Y-114925409D01*
X150128819Y-115110000D01*
X149852559Y-115294591D01*
X149519813Y-115792581D01*
X149402968Y-116380000D01*
X149519813Y-116967419D01*
X149852559Y-117465409D01*
X150128819Y-117650000D01*
X149852559Y-117834591D01*
X149519813Y-118332581D01*
X149402968Y-118920000D01*
X149519813Y-119507419D01*
X149852559Y-120005409D01*
X150124054Y-120186816D01*
X149713191Y-120580248D01*
X149478964Y-121095260D01*
X149599622Y-121333000D01*
X150943000Y-121333000D01*
X150943000Y-121313000D01*
X151197000Y-121313000D01*
X151197000Y-121333000D01*
X152540378Y-121333000D01*
X152661036Y-121095260D01*
X152426809Y-120580248D01*
X152015946Y-120186816D01*
X152287441Y-120005409D01*
X152620187Y-119507419D01*
X152737032Y-118920000D01*
X152620187Y-118332581D01*
X152287441Y-117834591D01*
X152011181Y-117650000D01*
X152287441Y-117465409D01*
X152620187Y-116967419D01*
X152737032Y-116380000D01*
X152620187Y-115792581D01*
X152287441Y-115294591D01*
X152011181Y-115110000D01*
X152287441Y-114925409D01*
X152620187Y-114427419D01*
X152737032Y-113840000D01*
X152620187Y-113252581D01*
X152287441Y-112754591D01*
X152011181Y-112570000D01*
X152287441Y-112385409D01*
X152504872Y-112060000D01*
X157535198Y-112060000D01*
X167865817Y-122390619D01*
X167853243Y-122420900D01*
X167852758Y-122976661D01*
X168064990Y-123490303D01*
X168457630Y-123883629D01*
X168958351Y-124091546D01*
X161863098Y-131186800D01*
X149175047Y-131186800D01*
X149106894Y-131021857D01*
X148647363Y-130561522D01*
X148385298Y-130452704D01*
X150312702Y-128525300D01*
X151070000Y-128525300D01*
X151360839Y-128467448D01*
X151607401Y-128302701D01*
X151772148Y-128056139D01*
X151791974Y-127956469D01*
X152287441Y-127625409D01*
X152620187Y-127127419D01*
X152737032Y-126540000D01*
X152620187Y-125952581D01*
X152287441Y-125454591D01*
X152011181Y-125270000D01*
X152287441Y-125085409D01*
X152620187Y-124587419D01*
X152737032Y-124000000D01*
X152620187Y-123412581D01*
X152328915Y-122976661D01*
X155852758Y-122976661D01*
X156064990Y-123490303D01*
X156457630Y-123883629D01*
X156970900Y-124096757D01*
X157526661Y-124097242D01*
X158040303Y-123885010D01*
X158433629Y-123492370D01*
X158646757Y-122979100D01*
X158647242Y-122423339D01*
X158435010Y-121909697D01*
X158042370Y-121516371D01*
X157529100Y-121303243D01*
X156973339Y-121302758D01*
X156459697Y-121514990D01*
X156066371Y-121907630D01*
X155853243Y-122420900D01*
X155852758Y-122976661D01*
X152328915Y-122976661D01*
X152287441Y-122914591D01*
X152015946Y-122733184D01*
X152426809Y-122339752D01*
X152661036Y-121824740D01*
X152540378Y-121587000D01*
X151197000Y-121587000D01*
X151197000Y-121607000D01*
X150943000Y-121607000D01*
X150943000Y-121587000D01*
X149599622Y-121587000D01*
X149478964Y-121824740D01*
X149713191Y-122339752D01*
X150124054Y-122733184D01*
X149852559Y-122914591D01*
X149519813Y-123412581D01*
X149402968Y-124000000D01*
X149519813Y-124587419D01*
X149852559Y-125085409D01*
X150128819Y-125270000D01*
X149852559Y-125454591D01*
X149519813Y-125952581D01*
X149402968Y-126540000D01*
X149519813Y-127127419D01*
X149547921Y-127169486D01*
X149460499Y-127227899D01*
X145119799Y-131568599D01*
X144955052Y-131815161D01*
X144897200Y-132106000D01*
X144897200Y-134531297D01*
X144422373Y-135006124D01*
X144167441Y-134624591D01*
X143891181Y-134440000D01*
X144167441Y-134255409D01*
X144500187Y-133757419D01*
X144617032Y-133170000D01*
X144500187Y-132582581D01*
X144167441Y-132084591D01*
X143895946Y-131903184D01*
X144306809Y-131509752D01*
X144541036Y-130994740D01*
X144420378Y-130757000D01*
X143077000Y-130757000D01*
X143077000Y-130777000D01*
X142823000Y-130777000D01*
X142823000Y-130757000D01*
X141479622Y-130757000D01*
X141358964Y-130994740D01*
X141445358Y-131184700D01*
X140324202Y-131184700D01*
X139404762Y-130265260D01*
X141358964Y-130265260D01*
X141479622Y-130503000D01*
X142823000Y-130503000D01*
X142823000Y-129254865D01*
X143077000Y-129254865D01*
X143077000Y-130503000D01*
X144420378Y-130503000D01*
X144541036Y-130265260D01*
X144306809Y-129750248D01*
X143874474Y-129336255D01*
X143316620Y-129119223D01*
X143077000Y-129254865D01*
X142823000Y-129254865D01*
X142583380Y-129119223D01*
X142025526Y-129336255D01*
X141593191Y-129750248D01*
X141358964Y-130265260D01*
X139404762Y-130265260D01*
X136878077Y-127738575D01*
X137047441Y-127625409D01*
X137380187Y-127127419D01*
X137497032Y-126540000D01*
X137380187Y-125952581D01*
X137047441Y-125454591D01*
X136771181Y-125270000D01*
X137047441Y-125085409D01*
X137380187Y-124587419D01*
X137497032Y-124000000D01*
X137380187Y-123412581D01*
X137047441Y-122914591D01*
X136775946Y-122733184D01*
X137186809Y-122339752D01*
X137421036Y-121824740D01*
X137300378Y-121587000D01*
X135957000Y-121587000D01*
X135957000Y-121607000D01*
X135703000Y-121607000D01*
X135703000Y-121587000D01*
X134359622Y-121587000D01*
X134238964Y-121824740D01*
X134473191Y-122339752D01*
X134884054Y-122733184D01*
X134612559Y-122914591D01*
X134279813Y-123412581D01*
X134162968Y-124000000D01*
X134279813Y-124587419D01*
X134612559Y-125085409D01*
X134888819Y-125270000D01*
X134612559Y-125454591D01*
X134279813Y-125952581D01*
X134162968Y-126540000D01*
X134279813Y-127127419D01*
X134612559Y-127625409D01*
X135108026Y-127956469D01*
X135127852Y-128056139D01*
X135292599Y-128302701D01*
X136508408Y-129518510D01*
X136049451Y-129211845D01*
X135462032Y-129095000D01*
X135197968Y-129095000D01*
X134610549Y-129211845D01*
X134112559Y-129544591D01*
X133910000Y-129847742D01*
X133910000Y-111300000D01*
X134162968Y-111300000D01*
X134279813Y-111887419D01*
X134612559Y-112385409D01*
X134888819Y-112570000D01*
X134612559Y-112754591D01*
X134279813Y-113252581D01*
X134162968Y-113840000D01*
X134279813Y-114427419D01*
X134612559Y-114925409D01*
X134888819Y-115110000D01*
X134612559Y-115294591D01*
X134279813Y-115792581D01*
X134162968Y-116380000D01*
X134279813Y-116967419D01*
X134612559Y-117465409D01*
X134888819Y-117650000D01*
X134612559Y-117834591D01*
X134279813Y-118332581D01*
X134162968Y-118920000D01*
X134279813Y-119507419D01*
X134612559Y-120005409D01*
X134884054Y-120186816D01*
X134473191Y-120580248D01*
X134238964Y-121095260D01*
X134359622Y-121333000D01*
X135703000Y-121333000D01*
X135703000Y-121313000D01*
X135957000Y-121313000D01*
X135957000Y-121333000D01*
X137300378Y-121333000D01*
X137421036Y-121095260D01*
X137186809Y-120580248D01*
X136775946Y-120186816D01*
X137047441Y-120005409D01*
X137380187Y-119507419D01*
X137497032Y-118920000D01*
X137380187Y-118332581D01*
X137047441Y-117834591D01*
X136771181Y-117650000D01*
X137047441Y-117465409D01*
X137380187Y-116967419D01*
X137497032Y-116380000D01*
X137380187Y-115792581D01*
X137047441Y-115294591D01*
X136771181Y-115110000D01*
X137047441Y-114925409D01*
X137380187Y-114427419D01*
X137497032Y-113840000D01*
X137380187Y-113252581D01*
X137047441Y-112754591D01*
X136771181Y-112570000D01*
X137047441Y-112385409D01*
X137380187Y-111887419D01*
X137497032Y-111300000D01*
X137380187Y-110712581D01*
X137075512Y-110256602D01*
X137281441Y-110124090D01*
X137426431Y-109911890D01*
X137477440Y-109660000D01*
X137477440Y-107860000D01*
X137433162Y-107624683D01*
X137294090Y-107408559D01*
X137081890Y-107263569D01*
X136830000Y-107212560D01*
X134830000Y-107212560D01*
X134594683Y-107256838D01*
X134378559Y-107395910D01*
X134233569Y-107608110D01*
X134182560Y-107860000D01*
X134182560Y-109660000D01*
X134226838Y-109895317D01*
X134365910Y-110111441D01*
X134578110Y-110256431D01*
X134583829Y-110257589D01*
X134279813Y-110712581D01*
X134162968Y-111300000D01*
X133910000Y-111300000D01*
X133910000Y-99373795D01*
X140414716Y-99373795D01*
X140663106Y-99974943D01*
X141122637Y-100435278D01*
X141723352Y-100684716D01*
X142373795Y-100685284D01*
X142541279Y-100616081D01*
X147426599Y-105501401D01*
X147673161Y-105666148D01*
X147964000Y-105724000D01*
X170149198Y-105724000D01*
X178787299Y-114362101D01*
X178939611Y-114463872D01*
X178832968Y-115000000D01*
X178946007Y-115568285D01*
X179267914Y-116050054D01*
X179589085Y-116264653D01*
X179161336Y-116647955D01*
X178910447Y-117170740D01*
X178908524Y-117183110D01*
X179029845Y-117413000D01*
X180373000Y-117413000D01*
X180373000Y-117393000D01*
X180627000Y-117393000D01*
X180627000Y-117413000D01*
X181970155Y-117413000D01*
X182091476Y-117183110D01*
X182089553Y-117170740D01*
X181838664Y-116647955D01*
X181410915Y-116264653D01*
X181732086Y-116050054D01*
X182053993Y-115568285D01*
X182167032Y-115000000D01*
X182053993Y-114431715D01*
X181732086Y-113949946D01*
X181402913Y-113730000D01*
X181732086Y-113510054D01*
X182053993Y-113028285D01*
X182167032Y-112460000D01*
X182053993Y-111891715D01*
X181732086Y-111409946D01*
X181402913Y-111190000D01*
X181732086Y-110970054D01*
X182053993Y-110488285D01*
X182167032Y-109920000D01*
X182053993Y-109351715D01*
X181732086Y-108869946D01*
X181402913Y-108650000D01*
X181732086Y-108430054D01*
X182053993Y-107948285D01*
X182167032Y-107380000D01*
X182053993Y-106811715D01*
X181732086Y-106329946D01*
X181402913Y-106110000D01*
X181732086Y-105890054D01*
X182053993Y-105408285D01*
X182167032Y-104840000D01*
X182053993Y-104271715D01*
X181732086Y-103789946D01*
X181632039Y-103723097D01*
X181801441Y-103614090D01*
X181946431Y-103401890D01*
X181997440Y-103150000D01*
X181997440Y-101450000D01*
X181953162Y-101214683D01*
X181814090Y-100998559D01*
X181601890Y-100853569D01*
X181350000Y-100802560D01*
X179650000Y-100802560D01*
X179414683Y-100846838D01*
X179198559Y-100985910D01*
X179053569Y-101198110D01*
X179002560Y-101450000D01*
X179002560Y-103150000D01*
X179046838Y-103385317D01*
X179185910Y-103601441D01*
X179365938Y-103724449D01*
X179267914Y-103789946D01*
X178946007Y-104271715D01*
X178832968Y-104840000D01*
X178946007Y-105408285D01*
X179267914Y-105890054D01*
X179597087Y-106110000D01*
X179267914Y-106329946D01*
X178946007Y-106811715D01*
X178832968Y-107380000D01*
X178946007Y-107948285D01*
X179267914Y-108430054D01*
X179597087Y-108650000D01*
X179267914Y-108869946D01*
X178946007Y-109351715D01*
X178866454Y-109751652D01*
X167627401Y-98512599D01*
X167380839Y-98347852D01*
X167090000Y-98290000D01*
X146280047Y-98290000D01*
X146211894Y-98125057D01*
X145752363Y-97664722D01*
X145151648Y-97415284D01*
X144501205Y-97414716D01*
X143900057Y-97663106D01*
X143439722Y-98122637D01*
X143437803Y-98127258D01*
X143436894Y-98125057D01*
X142977363Y-97664722D01*
X142376648Y-97415284D01*
X141726205Y-97414716D01*
X141125057Y-97663106D01*
X140664722Y-98122637D01*
X140415284Y-98723352D01*
X140414716Y-99373795D01*
X133910000Y-99373795D01*
X133910000Y-94942316D01*
X134373352Y-95134716D01*
X135023795Y-95135284D01*
X135624943Y-94886894D01*
X136085278Y-94427363D01*
X136154773Y-94260000D01*
X139744953Y-94260000D01*
X139813106Y-94424943D01*
X139813106Y-94424943D01*
G37*
X139813106Y-94424943D02*
X140272637Y-94885278D01*
X140873352Y-95134716D01*
X141523795Y-95135284D01*
X142124943Y-94886894D01*
X142585278Y-94427363D01*
X142654773Y-94260000D01*
X173744953Y-94260000D01*
X173813106Y-94424943D01*
X174272637Y-94885278D01*
X174873352Y-95134716D01*
X175523795Y-95135284D01*
X176124943Y-94886894D01*
X176585278Y-94427363D01*
X176654773Y-94260000D01*
X180244953Y-94260000D01*
X180313106Y-94424943D01*
X180772637Y-94885278D01*
X181373352Y-95134716D01*
X182023795Y-95135284D01*
X182490000Y-94942651D01*
X182490000Y-140049308D01*
X181964539Y-139854092D01*
X181314540Y-139878144D01*
X180825736Y-140080613D01*
X180727073Y-140347468D01*
X181700000Y-141320395D01*
X181714143Y-141306253D01*
X181893748Y-141485858D01*
X181879605Y-141500000D01*
X181893748Y-141514143D01*
X181714143Y-141693748D01*
X181700000Y-141679605D01*
X180727073Y-142652532D01*
X180825736Y-142919387D01*
X181435461Y-143145908D01*
X182085460Y-143121856D01*
X182490000Y-142954290D01*
X182490000Y-144557684D01*
X182026648Y-144365284D01*
X181376205Y-144364716D01*
X180775057Y-144613106D01*
X180314722Y-145072637D01*
X180245227Y-145240000D01*
X176655047Y-145240000D01*
X176586894Y-145075057D01*
X176127363Y-144614722D01*
X175526648Y-144365284D01*
X174876205Y-144364716D01*
X174275057Y-144613106D01*
X173814722Y-145072637D01*
X173565284Y-145673352D01*
X173565099Y-145885300D01*
X172089210Y-145885300D01*
X172214716Y-145583048D01*
X172215284Y-144932605D01*
X171966894Y-144331457D01*
X171507363Y-143871122D01*
X170906648Y-143621684D01*
X170256205Y-143621116D01*
X169655057Y-143869506D01*
X169194722Y-144329037D01*
X168945284Y-144929752D01*
X168944716Y-145580195D01*
X169070783Y-145885300D01*
X149144835Y-145885300D01*
X149354716Y-145379848D01*
X149355284Y-144729405D01*
X149106894Y-144128257D01*
X148660641Y-143681223D01*
X149105278Y-143237363D01*
X149348120Y-142652532D01*
X174227073Y-142652532D01*
X174325736Y-142919387D01*
X174935461Y-143145908D01*
X175585460Y-143121856D01*
X176074264Y-142919387D01*
X176172927Y-142652532D01*
X175200000Y-141679605D01*
X174227073Y-142652532D01*
X149348120Y-142652532D01*
X149354716Y-142636648D01*
X149355284Y-141986205D01*
X149106894Y-141385057D01*
X148957560Y-141235461D01*
X173554092Y-141235461D01*
X173578144Y-141885460D01*
X173780613Y-142374264D01*
X174047468Y-142472927D01*
X175020395Y-141500000D01*
X175379605Y-141500000D01*
X176352532Y-142472927D01*
X176619387Y-142374264D01*
X176845908Y-141764539D01*
X176826331Y-141235461D01*
X180054092Y-141235461D01*
X180078144Y-141885460D01*
X180280613Y-142374264D01*
X180547468Y-142472927D01*
X181520395Y-141500000D01*
X180547468Y-140527073D01*
X180280613Y-140625736D01*
X180054092Y-141235461D01*
X176826331Y-141235461D01*
X176821856Y-141114540D01*
X176619387Y-140625736D01*
X176352532Y-140527073D01*
X175379605Y-141500000D01*
X175020395Y-141500000D01*
X174047468Y-140527073D01*
X173780613Y-140625736D01*
X173554092Y-141235461D01*
X148957560Y-141235461D01*
X148647363Y-140924722D01*
X148046648Y-140675284D01*
X147396205Y-140674716D01*
X146795057Y-140923106D01*
X146334722Y-141382637D01*
X146085284Y-141983352D01*
X146084716Y-142633795D01*
X146333106Y-143234943D01*
X146779359Y-143681977D01*
X146557675Y-143903273D01*
X143001870Y-140347468D01*
X174227073Y-140347468D01*
X175200000Y-141320395D01*
X176172927Y-140347468D01*
X176074264Y-140080613D01*
X175464539Y-139854092D01*
X174814540Y-139878144D01*
X174325736Y-140080613D01*
X174227073Y-140347468D01*
X143001870Y-140347468D01*
X142451842Y-139797440D01*
X143950000Y-139797440D01*
X144185317Y-139753162D01*
X144401441Y-139614090D01*
X144546431Y-139401890D01*
X144597440Y-139150000D01*
X144597440Y-137350000D01*
X144553162Y-137114683D01*
X144518024Y-137060078D01*
X146194601Y-135383502D01*
X146221094Y-135343853D01*
X146333106Y-135614943D01*
X146792637Y-136075278D01*
X147393352Y-136324716D01*
X148043795Y-136325284D01*
X148644943Y-136076894D01*
X149105278Y-135617363D01*
X149354716Y-135016648D01*
X149355284Y-134366205D01*
X149106894Y-133765057D01*
X148660641Y-133318023D01*
X149105278Y-132874163D01*
X149174773Y-132706800D01*
X162177900Y-132706800D01*
X162468739Y-132648948D01*
X162715301Y-132484201D01*
X163132107Y-132067395D01*
X168944716Y-132067395D01*
X169193106Y-132668543D01*
X169652637Y-133128878D01*
X170253352Y-133378316D01*
X170903795Y-133378884D01*
X171504943Y-133130494D01*
X171965278Y-132670963D01*
X172214716Y-132070248D01*
X172215284Y-131419805D01*
X171966894Y-130818657D01*
X171507363Y-130358322D01*
X170906648Y-130108884D01*
X170256205Y-130108316D01*
X169655057Y-130356706D01*
X169194722Y-130816237D01*
X168945284Y-131416952D01*
X168944716Y-132067395D01*
X163132107Y-132067395D01*
X167641350Y-127558153D01*
X167765838Y-128183999D01*
X168266583Y-128933417D01*
X169016001Y-129434162D01*
X169900000Y-129610000D01*
X170783999Y-129434162D01*
X171533417Y-128933417D01*
X172034162Y-128183999D01*
X172210000Y-127300000D01*
X174790000Y-127300000D01*
X174965838Y-128183999D01*
X175466583Y-128933417D01*
X176216001Y-129434162D01*
X177100000Y-129610000D01*
X177983999Y-129434162D01*
X178733417Y-128933417D01*
X179234162Y-128183999D01*
X179410000Y-127300000D01*
X179234162Y-126416001D01*
X178733417Y-125666583D01*
X177983999Y-125165838D01*
X177100000Y-124990000D01*
X176216001Y-125165838D01*
X175466583Y-125666583D01*
X174965838Y-126416001D01*
X174790000Y-127300000D01*
X172210000Y-127300000D01*
X172034162Y-126416001D01*
X171533417Y-125666583D01*
X170783999Y-125165838D01*
X170158153Y-125041350D01*
X174359503Y-120840000D01*
X179074107Y-120840000D01*
X179267914Y-121130054D01*
X179749683Y-121451961D01*
X180317968Y-121565000D01*
X180682032Y-121565000D01*
X181250317Y-121451961D01*
X181732086Y-121130054D01*
X182053993Y-120648285D01*
X182167032Y-120080000D01*
X182053993Y-119511715D01*
X181732086Y-119029946D01*
X181410915Y-118815347D01*
X181838664Y-118432045D01*
X182089553Y-117909260D01*
X182091476Y-117896890D01*
X181970155Y-117667000D01*
X180627000Y-117667000D01*
X180627000Y-117687000D01*
X180373000Y-117687000D01*
X180373000Y-117667000D01*
X179029845Y-117667000D01*
X178908524Y-117896890D01*
X178910447Y-117909260D01*
X179161336Y-118432045D01*
X179589085Y-118815347D01*
X179267914Y-119029946D01*
X179074107Y-119320000D01*
X174044700Y-119320000D01*
X173753861Y-119377852D01*
X173507299Y-119542598D01*
X170641194Y-122408703D01*
X170435010Y-121909697D01*
X170042370Y-121516371D01*
X169529100Y-121303243D01*
X168973339Y-121302758D01*
X168940945Y-121316143D01*
X158387401Y-110762599D01*
X158140839Y-110597852D01*
X157850000Y-110540000D01*
X152504872Y-110540000D01*
X152287441Y-110214591D01*
X152011181Y-110030000D01*
X152287441Y-109845409D01*
X152620187Y-109347419D01*
X152737032Y-108760000D01*
X152620187Y-108172581D01*
X152287441Y-107674591D01*
X151789451Y-107341845D01*
X151202032Y-107225000D01*
X150937968Y-107225000D01*
X150350549Y-107341845D01*
X149852559Y-107674591D01*
X149519813Y-108172581D01*
X149402968Y-108760000D01*
X149519813Y-109347419D01*
X149852559Y-109845409D01*
X150128819Y-110030000D01*
X149852559Y-110214591D01*
X149519813Y-110712581D01*
X149402968Y-111300000D01*
X149519813Y-111887419D01*
X149852559Y-112385409D01*
X150128819Y-112570000D01*
X149852559Y-112754591D01*
X149519813Y-113252581D01*
X149402968Y-113840000D01*
X149519813Y-114427419D01*
X149852559Y-114925409D01*
X150128819Y-115110000D01*
X149852559Y-115294591D01*
X149519813Y-115792581D01*
X149402968Y-116380000D01*
X149519813Y-116967419D01*
X149852559Y-117465409D01*
X150128819Y-117650000D01*
X149852559Y-117834591D01*
X149519813Y-118332581D01*
X149402968Y-118920000D01*
X149519813Y-119507419D01*
X149852559Y-120005409D01*
X150124054Y-120186816D01*
X149713191Y-120580248D01*
X149478964Y-121095260D01*
X149599622Y-121333000D01*
X150943000Y-121333000D01*
X150943000Y-121313000D01*
X151197000Y-121313000D01*
X151197000Y-121333000D01*
X152540378Y-121333000D01*
X152661036Y-121095260D01*
X152426809Y-120580248D01*
X152015946Y-120186816D01*
X152287441Y-120005409D01*
X152620187Y-119507419D01*
X152737032Y-118920000D01*
X152620187Y-118332581D01*
X152287441Y-117834591D01*
X152011181Y-117650000D01*
X152287441Y-117465409D01*
X152620187Y-116967419D01*
X152737032Y-116380000D01*
X152620187Y-115792581D01*
X152287441Y-115294591D01*
X152011181Y-115110000D01*
X152287441Y-114925409D01*
X152620187Y-114427419D01*
X152737032Y-113840000D01*
X152620187Y-113252581D01*
X152287441Y-112754591D01*
X152011181Y-112570000D01*
X152287441Y-112385409D01*
X152504872Y-112060000D01*
X157535198Y-112060000D01*
X167865817Y-122390619D01*
X167853243Y-122420900D01*
X167852758Y-122976661D01*
X168064990Y-123490303D01*
X168457630Y-123883629D01*
X168958351Y-124091546D01*
X161863098Y-131186800D01*
X149175047Y-131186800D01*
X149106894Y-131021857D01*
X148647363Y-130561522D01*
X148385298Y-130452704D01*
X150312702Y-128525300D01*
X151070000Y-128525300D01*
X151360839Y-128467448D01*
X151607401Y-128302701D01*
X151772148Y-128056139D01*
X151791974Y-127956469D01*
X152287441Y-127625409D01*
X152620187Y-127127419D01*
X152737032Y-126540000D01*
X152620187Y-125952581D01*
X152287441Y-125454591D01*
X152011181Y-125270000D01*
X152287441Y-125085409D01*
X152620187Y-124587419D01*
X152737032Y-124000000D01*
X152620187Y-123412581D01*
X152328915Y-122976661D01*
X155852758Y-122976661D01*
X156064990Y-123490303D01*
X156457630Y-123883629D01*
X156970900Y-124096757D01*
X157526661Y-124097242D01*
X158040303Y-123885010D01*
X158433629Y-123492370D01*
X158646757Y-122979100D01*
X158647242Y-122423339D01*
X158435010Y-121909697D01*
X158042370Y-121516371D01*
X157529100Y-121303243D01*
X156973339Y-121302758D01*
X156459697Y-121514990D01*
X156066371Y-121907630D01*
X155853243Y-122420900D01*
X155852758Y-122976661D01*
X152328915Y-122976661D01*
X152287441Y-122914591D01*
X152015946Y-122733184D01*
X152426809Y-122339752D01*
X152661036Y-121824740D01*
X152540378Y-121587000D01*
X151197000Y-121587000D01*
X151197000Y-121607000D01*
X150943000Y-121607000D01*
X150943000Y-121587000D01*
X149599622Y-121587000D01*
X149478964Y-121824740D01*
X149713191Y-122339752D01*
X150124054Y-122733184D01*
X149852559Y-122914591D01*
X149519813Y-123412581D01*
X149402968Y-124000000D01*
X149519813Y-124587419D01*
X149852559Y-125085409D01*
X150128819Y-125270000D01*
X149852559Y-125454591D01*
X149519813Y-125952581D01*
X149402968Y-126540000D01*
X149519813Y-127127419D01*
X149547921Y-127169486D01*
X149460499Y-127227899D01*
X145119799Y-131568599D01*
X144955052Y-131815161D01*
X144897200Y-132106000D01*
X144897200Y-134531297D01*
X144422373Y-135006124D01*
X144167441Y-134624591D01*
X143891181Y-134440000D01*
X144167441Y-134255409D01*
X144500187Y-133757419D01*
X144617032Y-133170000D01*
X144500187Y-132582581D01*
X144167441Y-132084591D01*
X143895946Y-131903184D01*
X144306809Y-131509752D01*
X144541036Y-130994740D01*
X144420378Y-130757000D01*
X143077000Y-130757000D01*
X143077000Y-130777000D01*
X142823000Y-130777000D01*
X142823000Y-130757000D01*
X141479622Y-130757000D01*
X141358964Y-130994740D01*
X141445358Y-131184700D01*
X140324202Y-131184700D01*
X139404762Y-130265260D01*
X141358964Y-130265260D01*
X141479622Y-130503000D01*
X142823000Y-130503000D01*
X142823000Y-129254865D01*
X143077000Y-129254865D01*
X143077000Y-130503000D01*
X144420378Y-130503000D01*
X144541036Y-130265260D01*
X144306809Y-129750248D01*
X143874474Y-129336255D01*
X143316620Y-129119223D01*
X143077000Y-129254865D01*
X142823000Y-129254865D01*
X142583380Y-129119223D01*
X142025526Y-129336255D01*
X141593191Y-129750248D01*
X141358964Y-130265260D01*
X139404762Y-130265260D01*
X136878077Y-127738575D01*
X137047441Y-127625409D01*
X137380187Y-127127419D01*
X137497032Y-126540000D01*
X137380187Y-125952581D01*
X137047441Y-125454591D01*
X136771181Y-125270000D01*
X137047441Y-125085409D01*
X137380187Y-124587419D01*
X137497032Y-124000000D01*
X137380187Y-123412581D01*
X137047441Y-122914591D01*
X136775946Y-122733184D01*
X137186809Y-122339752D01*
X137421036Y-121824740D01*
X137300378Y-121587000D01*
X135957000Y-121587000D01*
X135957000Y-121607000D01*
X135703000Y-121607000D01*
X135703000Y-121587000D01*
X134359622Y-121587000D01*
X134238964Y-121824740D01*
X134473191Y-122339752D01*
X134884054Y-122733184D01*
X134612559Y-122914591D01*
X134279813Y-123412581D01*
X134162968Y-124000000D01*
X134279813Y-124587419D01*
X134612559Y-125085409D01*
X134888819Y-125270000D01*
X134612559Y-125454591D01*
X134279813Y-125952581D01*
X134162968Y-126540000D01*
X134279813Y-127127419D01*
X134612559Y-127625409D01*
X135108026Y-127956469D01*
X135127852Y-128056139D01*
X135292599Y-128302701D01*
X136508408Y-129518510D01*
X136049451Y-129211845D01*
X135462032Y-129095000D01*
X135197968Y-129095000D01*
X134610549Y-129211845D01*
X134112559Y-129544591D01*
X133910000Y-129847742D01*
X133910000Y-111300000D01*
X134162968Y-111300000D01*
X134279813Y-111887419D01*
X134612559Y-112385409D01*
X134888819Y-112570000D01*
X134612559Y-112754591D01*
X134279813Y-113252581D01*
X134162968Y-113840000D01*
X134279813Y-114427419D01*
X134612559Y-114925409D01*
X134888819Y-115110000D01*
X134612559Y-115294591D01*
X134279813Y-115792581D01*
X134162968Y-116380000D01*
X134279813Y-116967419D01*
X134612559Y-117465409D01*
X134888819Y-117650000D01*
X134612559Y-117834591D01*
X134279813Y-118332581D01*
X134162968Y-118920000D01*
X134279813Y-119507419D01*
X134612559Y-120005409D01*
X134884054Y-120186816D01*
X134473191Y-120580248D01*
X134238964Y-121095260D01*
X134359622Y-121333000D01*
X135703000Y-121333000D01*
X135703000Y-121313000D01*
X135957000Y-121313000D01*
X135957000Y-121333000D01*
X137300378Y-121333000D01*
X137421036Y-121095260D01*
X137186809Y-120580248D01*
X136775946Y-120186816D01*
X137047441Y-120005409D01*
X137380187Y-119507419D01*
X137497032Y-118920000D01*
X137380187Y-118332581D01*
X137047441Y-117834591D01*
X136771181Y-117650000D01*
X137047441Y-117465409D01*
X137380187Y-116967419D01*
X137497032Y-116380000D01*
X137380187Y-115792581D01*
X137047441Y-115294591D01*
X136771181Y-115110000D01*
X137047441Y-114925409D01*
X137380187Y-114427419D01*
X137497032Y-113840000D01*
X137380187Y-113252581D01*
X137047441Y-112754591D01*
X136771181Y-112570000D01*
X137047441Y-112385409D01*
X137380187Y-111887419D01*
X137497032Y-111300000D01*
X137380187Y-110712581D01*
X137075512Y-110256602D01*
X137281441Y-110124090D01*
X137426431Y-109911890D01*
X137477440Y-109660000D01*
X137477440Y-107860000D01*
X137433162Y-107624683D01*
X137294090Y-107408559D01*
X137081890Y-107263569D01*
X136830000Y-107212560D01*
X134830000Y-107212560D01*
X134594683Y-107256838D01*
X134378559Y-107395910D01*
X134233569Y-107608110D01*
X134182560Y-107860000D01*
X134182560Y-109660000D01*
X134226838Y-109895317D01*
X134365910Y-110111441D01*
X134578110Y-110256431D01*
X134583829Y-110257589D01*
X134279813Y-110712581D01*
X134162968Y-111300000D01*
X133910000Y-111300000D01*
X133910000Y-99373795D01*
X140414716Y-99373795D01*
X140663106Y-99974943D01*
X141122637Y-100435278D01*
X141723352Y-100684716D01*
X142373795Y-100685284D01*
X142541279Y-100616081D01*
X147426599Y-105501401D01*
X147673161Y-105666148D01*
X147964000Y-105724000D01*
X170149198Y-105724000D01*
X178787299Y-114362101D01*
X178939611Y-114463872D01*
X178832968Y-115000000D01*
X178946007Y-115568285D01*
X179267914Y-116050054D01*
X179589085Y-116264653D01*
X179161336Y-116647955D01*
X178910447Y-117170740D01*
X178908524Y-117183110D01*
X179029845Y-117413000D01*
X180373000Y-117413000D01*
X180373000Y-117393000D01*
X180627000Y-117393000D01*
X180627000Y-117413000D01*
X181970155Y-117413000D01*
X182091476Y-117183110D01*
X182089553Y-117170740D01*
X181838664Y-116647955D01*
X181410915Y-116264653D01*
X181732086Y-116050054D01*
X182053993Y-115568285D01*
X182167032Y-115000000D01*
X182053993Y-114431715D01*
X181732086Y-113949946D01*
X181402913Y-113730000D01*
X181732086Y-113510054D01*
X182053993Y-113028285D01*
X182167032Y-112460000D01*
X182053993Y-111891715D01*
X181732086Y-111409946D01*
X181402913Y-111190000D01*
X181732086Y-110970054D01*
X182053993Y-110488285D01*
X182167032Y-109920000D01*
X182053993Y-109351715D01*
X181732086Y-108869946D01*
X181402913Y-108650000D01*
X181732086Y-108430054D01*
X182053993Y-107948285D01*
X182167032Y-107380000D01*
X182053993Y-106811715D01*
X181732086Y-106329946D01*
X181402913Y-106110000D01*
X181732086Y-105890054D01*
X182053993Y-105408285D01*
X182167032Y-104840000D01*
X182053993Y-104271715D01*
X181732086Y-103789946D01*
X181632039Y-103723097D01*
X181801441Y-103614090D01*
X181946431Y-103401890D01*
X181997440Y-103150000D01*
X181997440Y-101450000D01*
X181953162Y-101214683D01*
X181814090Y-100998559D01*
X181601890Y-100853569D01*
X181350000Y-100802560D01*
X179650000Y-100802560D01*
X179414683Y-100846838D01*
X179198559Y-100985910D01*
X179053569Y-101198110D01*
X179002560Y-101450000D01*
X179002560Y-103150000D01*
X179046838Y-103385317D01*
X179185910Y-103601441D01*
X179365938Y-103724449D01*
X179267914Y-103789946D01*
X178946007Y-104271715D01*
X178832968Y-104840000D01*
X178946007Y-105408285D01*
X179267914Y-105890054D01*
X179597087Y-106110000D01*
X179267914Y-106329946D01*
X178946007Y-106811715D01*
X178832968Y-107380000D01*
X178946007Y-107948285D01*
X179267914Y-108430054D01*
X179597087Y-108650000D01*
X179267914Y-108869946D01*
X178946007Y-109351715D01*
X178866454Y-109751652D01*
X167627401Y-98512599D01*
X167380839Y-98347852D01*
X167090000Y-98290000D01*
X146280047Y-98290000D01*
X146211894Y-98125057D01*
X145752363Y-97664722D01*
X145151648Y-97415284D01*
X144501205Y-97414716D01*
X143900057Y-97663106D01*
X143439722Y-98122637D01*
X143437803Y-98127258D01*
X143436894Y-98125057D01*
X142977363Y-97664722D01*
X142376648Y-97415284D01*
X141726205Y-97414716D01*
X141125057Y-97663106D01*
X140664722Y-98122637D01*
X140415284Y-98723352D01*
X140414716Y-99373795D01*
X133910000Y-99373795D01*
X133910000Y-94942316D01*
X134373352Y-95134716D01*
X135023795Y-95135284D01*
X135624943Y-94886894D01*
X136085278Y-94427363D01*
X136154773Y-94260000D01*
X139744953Y-94260000D01*
X139813106Y-94424943D01*
G36*
X139554092Y-88735461D02*
X139578144Y-89385460D01*
X139780613Y-89874264D01*
X140047468Y-89972927D01*
X141020395Y-89000000D01*
X141006253Y-88985858D01*
X141185858Y-88806253D01*
X141200000Y-88820395D01*
X141214143Y-88806253D01*
X141393748Y-88985858D01*
X141379605Y-89000000D01*
X142352532Y-89972927D01*
X142619387Y-89874264D01*
X142845908Y-89264539D01*
X142821856Y-88614540D01*
X142654290Y-88210000D01*
X173749308Y-88210000D01*
X173554092Y-88735461D01*
X173578144Y-89385460D01*
X173780613Y-89874264D01*
X174047468Y-89972927D01*
X175020395Y-89000000D01*
X175006253Y-88985858D01*
X175185858Y-88806253D01*
X175200000Y-88820395D01*
X175214143Y-88806253D01*
X175393748Y-88985858D01*
X175379605Y-89000000D01*
X176352532Y-89972927D01*
X176619387Y-89874264D01*
X176845908Y-89264539D01*
X176821856Y-88614540D01*
X176654290Y-88210000D01*
X180249308Y-88210000D01*
X180054092Y-88735461D01*
X180078144Y-89385460D01*
X180280613Y-89874264D01*
X180547468Y-89972927D01*
X181520395Y-89000000D01*
X181506253Y-88985858D01*
X181685858Y-88806253D01*
X181700000Y-88820395D01*
X181714143Y-88806253D01*
X181893748Y-88985858D01*
X181879605Y-89000000D01*
X181893748Y-89014143D01*
X181714143Y-89193748D01*
X181700000Y-89179605D01*
X180727073Y-90152532D01*
X180825736Y-90419387D01*
X181435461Y-90645908D01*
X182085460Y-90621856D01*
X182490000Y-90454290D01*
X182490000Y-92057684D01*
X182026648Y-91865284D01*
X181376205Y-91864716D01*
X180775057Y-92113106D01*
X180314722Y-92572637D01*
X180245227Y-92740000D01*
X176655047Y-92740000D01*
X176586894Y-92575057D01*
X176127363Y-92114722D01*
X175526648Y-91865284D01*
X174876205Y-91864716D01*
X174275057Y-92113106D01*
X173814722Y-92572637D01*
X173745227Y-92740000D01*
X142655047Y-92740000D01*
X142586894Y-92575057D01*
X142127363Y-92114722D01*
X141526648Y-91865284D01*
X140876205Y-91864716D01*
X140275057Y-92113106D01*
X139814722Y-92572637D01*
X139745227Y-92740000D01*
X136155047Y-92740000D01*
X136086894Y-92575057D01*
X135627363Y-92114722D01*
X135026648Y-91865284D01*
X134376205Y-91864716D01*
X133910000Y-92057349D01*
X133910000Y-90450692D01*
X134435461Y-90645908D01*
X135085460Y-90621856D01*
X135574264Y-90419387D01*
X135672927Y-90152532D01*
X140227073Y-90152532D01*
X140325736Y-90419387D01*
X140935461Y-90645908D01*
X141585460Y-90621856D01*
X142074264Y-90419387D01*
X142172927Y-90152532D01*
X174227073Y-90152532D01*
X174325736Y-90419387D01*
X174935461Y-90645908D01*
X175585460Y-90621856D01*
X176074264Y-90419387D01*
X176172927Y-90152532D01*
X175200000Y-89179605D01*
X174227073Y-90152532D01*
X142172927Y-90152532D01*
X141200000Y-89179605D01*
X140227073Y-90152532D01*
X135672927Y-90152532D01*
X134700000Y-89179605D01*
X134685858Y-89193748D01*
X134506253Y-89014143D01*
X134520395Y-89000000D01*
X134506253Y-88985858D01*
X134685858Y-88806253D01*
X134700000Y-88820395D01*
X134714143Y-88806253D01*
X134893748Y-88985858D01*
X134879605Y-89000000D01*
X135852532Y-89972927D01*
X136119387Y-89874264D01*
X136345908Y-89264539D01*
X136321856Y-88614540D01*
X136154290Y-88210000D01*
X139749308Y-88210000D01*
X139554092Y-88735461D01*
X139554092Y-88735461D01*
G37*
X139554092Y-88735461D02*
X139578144Y-89385460D01*
X139780613Y-89874264D01*
X140047468Y-89972927D01*
X141020395Y-89000000D01*
X141006253Y-88985858D01*
X141185858Y-88806253D01*
X141200000Y-88820395D01*
X141214143Y-88806253D01*
X141393748Y-88985858D01*
X141379605Y-89000000D01*
X142352532Y-89972927D01*
X142619387Y-89874264D01*
X142845908Y-89264539D01*
X142821856Y-88614540D01*
X142654290Y-88210000D01*
X173749308Y-88210000D01*
X173554092Y-88735461D01*
X173578144Y-89385460D01*
X173780613Y-89874264D01*
X174047468Y-89972927D01*
X175020395Y-89000000D01*
X175006253Y-88985858D01*
X175185858Y-88806253D01*
X175200000Y-88820395D01*
X175214143Y-88806253D01*
X175393748Y-88985858D01*
X175379605Y-89000000D01*
X176352532Y-89972927D01*
X176619387Y-89874264D01*
X176845908Y-89264539D01*
X176821856Y-88614540D01*
X176654290Y-88210000D01*
X180249308Y-88210000D01*
X180054092Y-88735461D01*
X180078144Y-89385460D01*
X180280613Y-89874264D01*
X180547468Y-89972927D01*
X181520395Y-89000000D01*
X181506253Y-88985858D01*
X181685858Y-88806253D01*
X181700000Y-88820395D01*
X181714143Y-88806253D01*
X181893748Y-88985858D01*
X181879605Y-89000000D01*
X181893748Y-89014143D01*
X181714143Y-89193748D01*
X181700000Y-89179605D01*
X180727073Y-90152532D01*
X180825736Y-90419387D01*
X181435461Y-90645908D01*
X182085460Y-90621856D01*
X182490000Y-90454290D01*
X182490000Y-92057684D01*
X182026648Y-91865284D01*
X181376205Y-91864716D01*
X180775057Y-92113106D01*
X180314722Y-92572637D01*
X180245227Y-92740000D01*
X176655047Y-92740000D01*
X176586894Y-92575057D01*
X176127363Y-92114722D01*
X175526648Y-91865284D01*
X174876205Y-91864716D01*
X174275057Y-92113106D01*
X173814722Y-92572637D01*
X173745227Y-92740000D01*
X142655047Y-92740000D01*
X142586894Y-92575057D01*
X142127363Y-92114722D01*
X141526648Y-91865284D01*
X140876205Y-91864716D01*
X140275057Y-92113106D01*
X139814722Y-92572637D01*
X139745227Y-92740000D01*
X136155047Y-92740000D01*
X136086894Y-92575057D01*
X135627363Y-92114722D01*
X135026648Y-91865284D01*
X134376205Y-91864716D01*
X133910000Y-92057349D01*
X133910000Y-90450692D01*
X134435461Y-90645908D01*
X135085460Y-90621856D01*
X135574264Y-90419387D01*
X135672927Y-90152532D01*
X140227073Y-90152532D01*
X140325736Y-90419387D01*
X140935461Y-90645908D01*
X141585460Y-90621856D01*
X142074264Y-90419387D01*
X142172927Y-90152532D01*
X174227073Y-90152532D01*
X174325736Y-90419387D01*
X174935461Y-90645908D01*
X175585460Y-90621856D01*
X176074264Y-90419387D01*
X176172927Y-90152532D01*
X175200000Y-89179605D01*
X174227073Y-90152532D01*
X142172927Y-90152532D01*
X141200000Y-89179605D01*
X140227073Y-90152532D01*
X135672927Y-90152532D01*
X134700000Y-89179605D01*
X134685858Y-89193748D01*
X134506253Y-89014143D01*
X134520395Y-89000000D01*
X134506253Y-88985858D01*
X134685858Y-88806253D01*
X134700000Y-88820395D01*
X134714143Y-88806253D01*
X134893748Y-88985858D01*
X134879605Y-89000000D01*
X135852532Y-89972927D01*
X136119387Y-89874264D01*
X136345908Y-89264539D01*
X136321856Y-88614540D01*
X136154290Y-88210000D01*
X139749308Y-88210000D01*
X139554092Y-88735461D01*
M02*
