M48
;DRILL file {KiCad 4.0.6+dfsg1-1} date Thu Jan 18 10:21:18 2018
;FORMAT={-:-/ absolute / metric / decimal}
FMAT,2
METRIC,TZ
T1C0.762
T2C0.800
T3C0.900
T4C1.000
T5C1.100
%
G90
G05
M71
T1
X142.8Y-96.7
X145.2Y-96.7
T2
X135.38Y-125.93
X135.38Y-128.47
X135.38Y-131.01
X135.38Y-133.55
X143.Y-125.93
X143.Y-128.47
X143.Y-131.01
X143.Y-133.55
X148.27Y-132.15
X148.27Y-134.69
X148.27Y-142.31
X148.27Y-144.85
X171.13Y-132.15
X171.13Y-144.85
T3
X179.1Y-118.95
X179.1Y-121.45
X179.1Y-123.95
X179.1Y-126.45
T4
X136.888Y-101.41
X136.888Y-103.95
X136.888Y-106.49
X136.888Y-109.03
X136.888Y-111.57
X136.888Y-114.11
X136.888Y-116.65
X136.888Y-119.19
X151.112Y-101.41
X151.112Y-103.95
X151.112Y-106.49
X151.112Y-109.03
X151.112Y-111.57
X151.112Y-114.11
X151.112Y-116.65
X151.112Y-119.19
X177.55Y-98.9
X177.55Y-105.85
X177.55Y-112.75
X180.05Y-98.9
X180.05Y-105.85
X180.05Y-112.75
T5
X134.7Y-89.
X134.7Y-93.5
X134.7Y-141.5
X134.7Y-146.
X141.2Y-89.
X141.2Y-93.5
X141.2Y-141.5
X141.2Y-146.
X175.2Y-89.
X175.2Y-93.5
X175.2Y-141.5
X175.2Y-146.
X181.7Y-89.
X181.7Y-93.5
X181.7Y-141.5
X181.7Y-146.
T0
M30
