M48
;DRILL file {KiCad 4.0.6+dfsg1-1} date Thu May  3 14:08:28 2018
;FORMAT={-:-/ absolute / inch / decimal}
FMAT,2
INCH,TZ
T1C0.030
T2C0.031
T3C0.039
T4C0.043
%
G90
G05
M72
T1
X6.1909Y-4.8307
X6.6634Y-4.8307
T2
X5.328Y-5.1429
X5.328Y-5.2429
X5.328Y-5.3429
X5.328Y-5.4429
X5.628Y-5.1429
X5.628Y-5.2429
X5.628Y-5.3429
X5.628Y-5.4429
T3
X5.3476Y-4.2819
X5.3476Y-4.3819
X5.3476Y-4.4819
X5.3476Y-4.5819
X5.3476Y-4.6819
X5.3476Y-4.7819
X5.3476Y-4.8819
X5.3476Y-4.9819
X5.5925Y-3.8996
X5.7018Y-3.8996
X5.8157Y-5.1948
X5.8157Y-5.3028
X5.8157Y-5.6028
X5.8157Y-5.7108
X5.9476Y-4.2819
X5.9476Y-4.3819
X5.9476Y-4.4819
X5.9476Y-4.5819
X5.9476Y-4.6819
X5.9476Y-4.7819
X5.9476Y-4.8819
X5.9476Y-4.9819
X6.7157Y-5.1868
X6.7157Y-5.7188
X7.1063Y-4.0276
X7.1063Y-4.1276
X7.1063Y-4.2276
X7.1063Y-4.3276
X7.1063Y-4.4276
X7.1063Y-4.5276
X7.1063Y-4.6276
X7.1063Y-4.7276
T4
X5.3031Y-3.5039
X5.3031Y-3.6811
X5.3031Y-5.5709
X5.3031Y-5.748
X5.5591Y-3.5039
X5.5591Y-3.6811
X5.5591Y-5.5709
X5.5591Y-5.748
X6.8976Y-3.5039
X6.8976Y-3.6811
X6.8976Y-5.5709
X6.8976Y-5.748
X7.1535Y-3.5039
X7.1535Y-3.6811
X7.1535Y-5.5709
X7.1535Y-5.748
T0
M30
