G04 #@! TF.FileFunction,Copper,L1,Top,Signal*
%FSLAX46Y46*%
G04 Gerber Fmt 4.6, Leading zero omitted, Abs format (unit mm)*
G04 Created by KiCad (PCBNEW 4.0.6+dfsg1-1) date Tue Jan 16 21:14:35 2018*
%MOMM*%
%LPD*%
G01*
G04 APERTURE LIST*
%ADD10C,0.100000*%
%ADD11C,1.524000*%
%ADD12R,1.600000X1.600000*%
%ADD13O,1.600000X1.600000*%
%ADD14R,1.750000X1.750000*%
%ADD15C,1.750000*%
%ADD16C,2.000000*%
%ADD17C,0.250000*%
%ADD18C,0.254000*%
G04 APERTURE END LIST*
D10*
D11*
X138390000Y-100270000D03*
X146010000Y-100270000D03*
X148550000Y-100270000D03*
X135850000Y-100270000D03*
X148550000Y-123130000D03*
X135850000Y-123130000D03*
D12*
X152100000Y-88700000D03*
D13*
X144480000Y-96320000D03*
X149560000Y-88700000D03*
X147020000Y-96320000D03*
X147020000Y-88700000D03*
X149560000Y-96320000D03*
X144480000Y-88700000D03*
X152100000Y-96320000D03*
D11*
X171190000Y-121088000D03*
X168650000Y-121088000D03*
X166110000Y-121088000D03*
X163570000Y-121088000D03*
X161030000Y-121088000D03*
X158490000Y-121088000D03*
X155950000Y-121088000D03*
X153410000Y-121088000D03*
X171190000Y-135312000D03*
X168650000Y-135312000D03*
X166110000Y-135312000D03*
X163570000Y-135312000D03*
X161030000Y-135312000D03*
X158490000Y-135312000D03*
X155950000Y-135312000D03*
X153410000Y-135312000D03*
X148700000Y-127000000D03*
X148700000Y-129400000D03*
D14*
X180050000Y-105850000D03*
D15*
X177550000Y-105850000D03*
D14*
X180050000Y-98900000D03*
D15*
X177550000Y-98900000D03*
D16*
X134700000Y-93500000D03*
X134700000Y-89000000D03*
X141200000Y-93500000D03*
X141200000Y-89000000D03*
X175200000Y-93500000D03*
X175200000Y-89000000D03*
X181700000Y-93500000D03*
X181700000Y-89000000D03*
X175200000Y-136000000D03*
X175200000Y-131500000D03*
X181700000Y-136000000D03*
X181700000Y-131500000D03*
X134700000Y-136000000D03*
X134700000Y-131500000D03*
X141200000Y-136000000D03*
X141200000Y-131500000D03*
D14*
X180050000Y-112750000D03*
D15*
X177550000Y-112750000D03*
D14*
X179100000Y-126450000D03*
D15*
X179100000Y-123950000D03*
X179100000Y-121450000D03*
X179100000Y-118950000D03*
D17*
X143212700Y-130492700D02*
X135850000Y-123130000D01*
X172557300Y-130492700D02*
X143212700Y-130492700D01*
X179100000Y-123950000D02*
X172557300Y-130492700D01*
X154503800Y-122181800D02*
X153410000Y-121088000D01*
X166604800Y-122181800D02*
X154503800Y-122181800D01*
X167364900Y-121421700D02*
X166604800Y-122181800D01*
X167364900Y-120835300D02*
X167364900Y-121421700D01*
X169565000Y-118635200D02*
X167364900Y-120835300D01*
X176383900Y-118635200D02*
X169565000Y-118635200D01*
X181250400Y-113768700D02*
X176383900Y-118635200D01*
X181250400Y-101300700D02*
X181250400Y-113768700D01*
X180050000Y-100100300D02*
X181250400Y-101300700D01*
X180050000Y-98900000D02*
X180050000Y-100100300D01*
X149560000Y-96320000D02*
X148434700Y-96320000D01*
X134700000Y-93500000D02*
X141200000Y-93500000D01*
X148434700Y-96038700D02*
X148434700Y-96320000D01*
X145896000Y-93500000D02*
X148434700Y-96038700D01*
X141200000Y-93500000D02*
X145896000Y-93500000D01*
X181700000Y-93500000D02*
X175200000Y-93500000D01*
X150685300Y-96038700D02*
X150685300Y-96320000D01*
X153224000Y-93500000D02*
X150685300Y-96038700D01*
X175200000Y-93500000D02*
X153224000Y-93500000D01*
X149560000Y-96320000D02*
X150685300Y-96320000D01*
X141611800Y-136411800D02*
X141200000Y-136000000D01*
X174788200Y-136411800D02*
X141611800Y-136411800D01*
X175200000Y-136000000D02*
X174788200Y-136411800D01*
X141200000Y-136000000D02*
X134700000Y-136000000D01*
X143054700Y-89000000D02*
X143354700Y-88700000D01*
X141200000Y-89000000D02*
X143054700Y-89000000D01*
X144480000Y-88700000D02*
X143354700Y-88700000D01*
X134700000Y-89000000D02*
X141200000Y-89000000D01*
X174448000Y-112750000D02*
X166110000Y-121088000D01*
X177550000Y-112750000D02*
X174448000Y-112750000D01*
X145605300Y-88981400D02*
X145605300Y-88700000D01*
X146449200Y-89825300D02*
X145605300Y-88981400D01*
X174374700Y-89825300D02*
X146449200Y-89825300D01*
X175200000Y-89000000D02*
X174374700Y-89825300D01*
X144480000Y-88700000D02*
X145605300Y-88700000D01*
X134700000Y-131500000D02*
X141200000Y-131500000D01*
X162298000Y-131500000D02*
X166110000Y-135312000D01*
X141200000Y-131500000D02*
X162298000Y-131500000D01*
X169922000Y-131500000D02*
X175200000Y-131500000D01*
X166110000Y-135312000D02*
X169922000Y-131500000D01*
X175200000Y-131500000D02*
X181700000Y-131500000D01*
X166819800Y-100270000D02*
X148550000Y-100270000D01*
X178849700Y-112299900D02*
X166819800Y-100270000D01*
X178849700Y-112750000D02*
X178849700Y-112299900D01*
X180050000Y-112750000D02*
X178849700Y-112750000D01*
X147113000Y-104631000D02*
X163570000Y-121088000D01*
X141143200Y-104631000D02*
X147113000Y-104631000D01*
X136772300Y-100260000D02*
X141143200Y-104631000D01*
X136762300Y-100270000D02*
X136772300Y-100260000D01*
X135850000Y-100270000D02*
X136762300Y-100270000D01*
X150405800Y-98014200D02*
X152100000Y-96320000D01*
X139018100Y-98014200D02*
X150405800Y-98014200D01*
X136772300Y-100260000D02*
X139018100Y-98014200D01*
X173550000Y-127000000D02*
X148700000Y-127000000D01*
X179100000Y-121450000D02*
X173550000Y-127000000D01*
X147551500Y-128251500D02*
X148700000Y-129400000D01*
X147551500Y-126572200D02*
X147551500Y-128251500D01*
X148983700Y-125140000D02*
X147551500Y-126572200D01*
X172910000Y-125140000D02*
X148983700Y-125140000D01*
X179100000Y-118950000D02*
X172910000Y-125140000D01*
X139945500Y-98714500D02*
X138390000Y-100270000D01*
X172164300Y-98714500D02*
X139945500Y-98714500D01*
X178849700Y-105399900D02*
X172164300Y-98714500D01*
X178849700Y-105850000D02*
X178849700Y-105399900D01*
X180050000Y-105850000D02*
X178849700Y-105850000D01*
X170881100Y-99181100D02*
X177550000Y-105850000D01*
X147098900Y-99181100D02*
X170881100Y-99181100D01*
X146010000Y-100270000D02*
X147098900Y-99181100D01*
D18*
G36*
X139813106Y-94424943D02*
X140272637Y-94885278D01*
X140873352Y-95134716D01*
X141523795Y-95135284D01*
X142124943Y-94886894D01*
X142585278Y-94427363D01*
X142654773Y-94260000D01*
X145581198Y-94260000D01*
X146360830Y-95039632D01*
X146005302Y-95277189D01*
X145750000Y-95659275D01*
X145494698Y-95277189D01*
X145029151Y-94966120D01*
X144480000Y-94856887D01*
X143930849Y-94966120D01*
X143465302Y-95277189D01*
X143154233Y-95742736D01*
X143045000Y-96291887D01*
X143045000Y-96348113D01*
X143154233Y-96897264D01*
X143392730Y-97254200D01*
X139018100Y-97254200D01*
X138727261Y-97312052D01*
X138480699Y-97476799D01*
X136756649Y-99200849D01*
X136642370Y-99086371D01*
X136129100Y-98873243D01*
X135573339Y-98872758D01*
X135059697Y-99084990D01*
X134666371Y-99477630D01*
X134453243Y-99990900D01*
X134452758Y-100546661D01*
X134664990Y-101060303D01*
X135057630Y-101453629D01*
X135570900Y-101666757D01*
X136126661Y-101667242D01*
X136640303Y-101455010D01*
X136766509Y-101329024D01*
X140605793Y-105168395D01*
X140605797Y-105168397D01*
X140605799Y-105168401D01*
X140718995Y-105244036D01*
X140852353Y-105333145D01*
X140852358Y-105333146D01*
X140852361Y-105333148D01*
X140980428Y-105358622D01*
X141143191Y-105391000D01*
X141143196Y-105390999D01*
X141143200Y-105391000D01*
X146798198Y-105391000D01*
X161098257Y-119691059D01*
X160753339Y-119690758D01*
X160239697Y-119902990D01*
X159846371Y-120295630D01*
X159760051Y-120503512D01*
X159675010Y-120297697D01*
X159282370Y-119904371D01*
X158769100Y-119691243D01*
X158213339Y-119690758D01*
X157699697Y-119902990D01*
X157306371Y-120295630D01*
X157220051Y-120503512D01*
X157135010Y-120297697D01*
X156742370Y-119904371D01*
X156229100Y-119691243D01*
X155673339Y-119690758D01*
X155159697Y-119902990D01*
X154766371Y-120295630D01*
X154680051Y-120503512D01*
X154595010Y-120297697D01*
X154202370Y-119904371D01*
X153689100Y-119691243D01*
X153133339Y-119690758D01*
X152619697Y-119902990D01*
X152226371Y-120295630D01*
X152013243Y-120808900D01*
X152012758Y-121364661D01*
X152224990Y-121878303D01*
X152617630Y-122271629D01*
X153130900Y-122484757D01*
X153686661Y-122485242D01*
X153719055Y-122471857D01*
X153966399Y-122719201D01*
X154212961Y-122883948D01*
X154503800Y-122941800D01*
X166604800Y-122941800D01*
X166895639Y-122883948D01*
X167142201Y-122719201D01*
X167723818Y-122137584D01*
X167857630Y-122271629D01*
X168370900Y-122484757D01*
X168926661Y-122485242D01*
X169440303Y-122273010D01*
X169833629Y-121880370D01*
X169919949Y-121672488D01*
X170004990Y-121878303D01*
X170397630Y-122271629D01*
X170910900Y-122484757D01*
X171466661Y-122485242D01*
X171980303Y-122273010D01*
X172373629Y-121880370D01*
X172586757Y-121367100D01*
X172587242Y-120811339D01*
X172375010Y-120297697D01*
X171982370Y-119904371D01*
X171469100Y-119691243D01*
X170913339Y-119690758D01*
X170399697Y-119902990D01*
X170006371Y-120295630D01*
X169920051Y-120503512D01*
X169835010Y-120297697D01*
X169442370Y-119904371D01*
X169391680Y-119883322D01*
X169879802Y-119395200D01*
X176383900Y-119395200D01*
X176674739Y-119337348D01*
X176921301Y-119172601D01*
X177693002Y-118400900D01*
X177590262Y-118648325D01*
X177589738Y-119249040D01*
X177629625Y-119345573D01*
X172595198Y-124380000D01*
X149183015Y-124380000D01*
X149340303Y-124315010D01*
X149733629Y-123922370D01*
X149946757Y-123409100D01*
X149947242Y-122853339D01*
X149735010Y-122339697D01*
X149342370Y-121946371D01*
X148829100Y-121733243D01*
X148273339Y-121732758D01*
X147759697Y-121944990D01*
X147366371Y-122337630D01*
X147153243Y-122850900D01*
X147152758Y-123406661D01*
X147364990Y-123920303D01*
X147757630Y-124313629D01*
X148270900Y-124526757D01*
X148559428Y-124527009D01*
X148446299Y-124602599D01*
X147014099Y-126034799D01*
X146849352Y-126281361D01*
X146791500Y-126572200D01*
X146791500Y-128251500D01*
X146849352Y-128542339D01*
X147014099Y-128788901D01*
X147315817Y-129090619D01*
X147303243Y-129120900D01*
X147302758Y-129676661D01*
X147325913Y-129732700D01*
X143527502Y-129732700D01*
X137234183Y-123439381D01*
X137246757Y-123409100D01*
X137247242Y-122853339D01*
X137035010Y-122339697D01*
X136642370Y-121946371D01*
X136129100Y-121733243D01*
X135573339Y-121732758D01*
X135059697Y-121944990D01*
X134666371Y-122337630D01*
X134453243Y-122850900D01*
X134452758Y-123406661D01*
X134664990Y-123920303D01*
X135057630Y-124313629D01*
X135570900Y-124526757D01*
X136126661Y-124527242D01*
X136159055Y-124513857D01*
X141519832Y-129874634D01*
X141464539Y-129854092D01*
X140814540Y-129878144D01*
X140325736Y-130080613D01*
X140227073Y-130347468D01*
X141200000Y-131320395D01*
X141214143Y-131306253D01*
X141393748Y-131485858D01*
X141379605Y-131500000D01*
X142352532Y-132472927D01*
X142619387Y-132374264D01*
X142845908Y-131764539D01*
X142822368Y-131128369D01*
X142921860Y-131194848D01*
X143212700Y-131252700D01*
X172557300Y-131252700D01*
X172643965Y-131235461D01*
X173554092Y-131235461D01*
X173578144Y-131885460D01*
X173780613Y-132374264D01*
X174047468Y-132472927D01*
X175020395Y-131500000D01*
X175379605Y-131500000D01*
X176352532Y-132472927D01*
X176619387Y-132374264D01*
X176845908Y-131764539D01*
X176826331Y-131235461D01*
X180054092Y-131235461D01*
X180078144Y-131885460D01*
X180280613Y-132374264D01*
X180547468Y-132472927D01*
X181520395Y-131500000D01*
X180547468Y-130527073D01*
X180280613Y-130625736D01*
X180054092Y-131235461D01*
X176826331Y-131235461D01*
X176821856Y-131114540D01*
X176619387Y-130625736D01*
X176352532Y-130527073D01*
X175379605Y-131500000D01*
X175020395Y-131500000D01*
X174047468Y-130527073D01*
X173780613Y-130625736D01*
X173554092Y-131235461D01*
X172643965Y-131235461D01*
X172848139Y-131194848D01*
X173094701Y-131030101D01*
X173777334Y-130347468D01*
X174227073Y-130347468D01*
X175200000Y-131320395D01*
X176172927Y-130347468D01*
X176074264Y-130080613D01*
X175464539Y-129854092D01*
X174814540Y-129878144D01*
X174325736Y-130080613D01*
X174227073Y-130347468D01*
X173777334Y-130347468D01*
X177577560Y-126547242D01*
X177577560Y-127325000D01*
X177621838Y-127560317D01*
X177760910Y-127776441D01*
X177973110Y-127921431D01*
X178225000Y-127972440D01*
X179975000Y-127972440D01*
X180210317Y-127928162D01*
X180426441Y-127789090D01*
X180571431Y-127576890D01*
X180622440Y-127325000D01*
X180622440Y-125575000D01*
X180578162Y-125339683D01*
X180439090Y-125123559D01*
X180226890Y-124978569D01*
X180210324Y-124975214D01*
X180379370Y-124806463D01*
X180609738Y-124251675D01*
X180610262Y-123650960D01*
X180380862Y-123095771D01*
X179985464Y-122699682D01*
X180379370Y-122306463D01*
X180609738Y-121751675D01*
X180610262Y-121150960D01*
X180380862Y-120595771D01*
X179985464Y-120199682D01*
X180379370Y-119806463D01*
X180609738Y-119251675D01*
X180610262Y-118650960D01*
X180380862Y-118095771D01*
X179956463Y-117670630D01*
X179401675Y-117440262D01*
X178800960Y-117439738D01*
X178550800Y-117543102D01*
X181787801Y-114306101D01*
X181952548Y-114059540D01*
X182010400Y-113768700D01*
X182010400Y-101300700D01*
X181952548Y-101009861D01*
X181787801Y-100763299D01*
X181307776Y-100283274D01*
X181376441Y-100239090D01*
X181521431Y-100026890D01*
X181572440Y-99775000D01*
X181572440Y-98025000D01*
X181528162Y-97789683D01*
X181389090Y-97573559D01*
X181176890Y-97428569D01*
X180925000Y-97377560D01*
X179175000Y-97377560D01*
X178939683Y-97421838D01*
X178723559Y-97560910D01*
X178578569Y-97773110D01*
X178575214Y-97789676D01*
X178406463Y-97620630D01*
X177851675Y-97390262D01*
X177250960Y-97389738D01*
X176695771Y-97619138D01*
X176270630Y-98043537D01*
X176040262Y-98598325D01*
X176039738Y-99199040D01*
X176269138Y-99754229D01*
X176693537Y-100179370D01*
X177248325Y-100409738D01*
X177849040Y-100410262D01*
X178404229Y-100180862D01*
X178573103Y-100012283D01*
X178710910Y-100226441D01*
X178923110Y-100371431D01*
X179175000Y-100422440D01*
X179368767Y-100422440D01*
X179512599Y-100637701D01*
X180490400Y-101615502D01*
X180490400Y-104327560D01*
X179175000Y-104327560D01*
X178939683Y-104371838D01*
X178913371Y-104388769D01*
X172701701Y-98177099D01*
X172455139Y-98012352D01*
X172164300Y-97954500D01*
X151540302Y-97954500D01*
X151776114Y-97718688D01*
X152100000Y-97783113D01*
X152649151Y-97673880D01*
X153114698Y-97362811D01*
X153425767Y-96897264D01*
X153535000Y-96348113D01*
X153535000Y-96291887D01*
X153425767Y-95742736D01*
X153114698Y-95277189D01*
X152759170Y-95039632D01*
X153538802Y-94260000D01*
X173744953Y-94260000D01*
X173813106Y-94424943D01*
X174272637Y-94885278D01*
X174873352Y-95134716D01*
X175523795Y-95135284D01*
X176124943Y-94886894D01*
X176585278Y-94427363D01*
X176654773Y-94260000D01*
X180244953Y-94260000D01*
X180313106Y-94424943D01*
X180772637Y-94885278D01*
X181373352Y-95134716D01*
X182023795Y-95135284D01*
X182490000Y-94942651D01*
X182490000Y-130049308D01*
X181964539Y-129854092D01*
X181314540Y-129878144D01*
X180825736Y-130080613D01*
X180727073Y-130347468D01*
X181700000Y-131320395D01*
X181714143Y-131306253D01*
X181893748Y-131485858D01*
X181879605Y-131500000D01*
X181893748Y-131514143D01*
X181714143Y-131693748D01*
X181700000Y-131679605D01*
X180727073Y-132652532D01*
X180825736Y-132919387D01*
X181435461Y-133145908D01*
X182085460Y-133121856D01*
X182490000Y-132954290D01*
X182490000Y-134557684D01*
X182026648Y-134365284D01*
X181376205Y-134364716D01*
X180775057Y-134613106D01*
X180314722Y-135072637D01*
X180065284Y-135673352D01*
X180064716Y-136323795D01*
X180257349Y-136790000D01*
X176642316Y-136790000D01*
X176834716Y-136326648D01*
X176835284Y-135676205D01*
X176586894Y-135075057D01*
X176127363Y-134614722D01*
X175526648Y-134365284D01*
X174876205Y-134364716D01*
X174275057Y-134613106D01*
X173814722Y-135072637D01*
X173574233Y-135651800D01*
X172561552Y-135651800D01*
X172586757Y-135591100D01*
X172587242Y-135035339D01*
X172375010Y-134521697D01*
X171982370Y-134128371D01*
X171469100Y-133915243D01*
X170913339Y-133914758D01*
X170399697Y-134126990D01*
X170006371Y-134519630D01*
X169920051Y-134727512D01*
X169835010Y-134521697D01*
X169442370Y-134128371D01*
X168929100Y-133915243D01*
X168373339Y-133914758D01*
X167859697Y-134126990D01*
X167466371Y-134519630D01*
X167386605Y-134711727D01*
X167332397Y-134580857D01*
X167090213Y-134511392D01*
X166289605Y-135312000D01*
X166303748Y-135326143D01*
X166124143Y-135505748D01*
X166110000Y-135491605D01*
X166095858Y-135505748D01*
X165916253Y-135326143D01*
X165930395Y-135312000D01*
X165129787Y-134511392D01*
X164887603Y-134580857D01*
X164837491Y-134721318D01*
X164755010Y-134521697D01*
X164565432Y-134331787D01*
X165309392Y-134331787D01*
X166110000Y-135132395D01*
X166910608Y-134331787D01*
X166841143Y-134089603D01*
X166317698Y-133902856D01*
X165762632Y-133930638D01*
X165378857Y-134089603D01*
X165309392Y-134331787D01*
X164565432Y-134331787D01*
X164362370Y-134128371D01*
X163849100Y-133915243D01*
X163293339Y-133914758D01*
X162779697Y-134126990D01*
X162386371Y-134519630D01*
X162300051Y-134727512D01*
X162215010Y-134521697D01*
X161822370Y-134128371D01*
X161309100Y-133915243D01*
X160753339Y-133914758D01*
X160239697Y-134126990D01*
X159846371Y-134519630D01*
X159760051Y-134727512D01*
X159675010Y-134521697D01*
X159282370Y-134128371D01*
X158769100Y-133915243D01*
X158213339Y-133914758D01*
X157699697Y-134126990D01*
X157306371Y-134519630D01*
X157220051Y-134727512D01*
X157135010Y-134521697D01*
X156742370Y-134128371D01*
X156229100Y-133915243D01*
X155673339Y-133914758D01*
X155159697Y-134126990D01*
X154766371Y-134519630D01*
X154680051Y-134727512D01*
X154595010Y-134521697D01*
X154202370Y-134128371D01*
X153689100Y-133915243D01*
X153133339Y-133914758D01*
X152619697Y-134126990D01*
X152226371Y-134519630D01*
X152013243Y-135032900D01*
X152012758Y-135588661D01*
X152038846Y-135651800D01*
X142825200Y-135651800D01*
X142586894Y-135075057D01*
X142127363Y-134614722D01*
X141526648Y-134365284D01*
X140876205Y-134364716D01*
X140275057Y-134613106D01*
X139814722Y-135072637D01*
X139745227Y-135240000D01*
X136155047Y-135240000D01*
X136086894Y-135075057D01*
X135627363Y-134614722D01*
X135026648Y-134365284D01*
X134376205Y-134364716D01*
X133910000Y-134557349D01*
X133910000Y-132950692D01*
X134435461Y-133145908D01*
X135085460Y-133121856D01*
X135574264Y-132919387D01*
X135672927Y-132652532D01*
X140227073Y-132652532D01*
X140325736Y-132919387D01*
X140935461Y-133145908D01*
X141585460Y-133121856D01*
X142074264Y-132919387D01*
X142172927Y-132652532D01*
X174227073Y-132652532D01*
X174325736Y-132919387D01*
X174935461Y-133145908D01*
X175585460Y-133121856D01*
X176074264Y-132919387D01*
X176172927Y-132652532D01*
X175200000Y-131679605D01*
X174227073Y-132652532D01*
X142172927Y-132652532D01*
X141200000Y-131679605D01*
X140227073Y-132652532D01*
X135672927Y-132652532D01*
X134700000Y-131679605D01*
X134685858Y-131693748D01*
X134506253Y-131514143D01*
X134520395Y-131500000D01*
X134879605Y-131500000D01*
X135852532Y-132472927D01*
X136119387Y-132374264D01*
X136345908Y-131764539D01*
X136326331Y-131235461D01*
X139554092Y-131235461D01*
X139578144Y-131885460D01*
X139780613Y-132374264D01*
X140047468Y-132472927D01*
X141020395Y-131500000D01*
X140047468Y-130527073D01*
X139780613Y-130625736D01*
X139554092Y-131235461D01*
X136326331Y-131235461D01*
X136321856Y-131114540D01*
X136119387Y-130625736D01*
X135852532Y-130527073D01*
X134879605Y-131500000D01*
X134520395Y-131500000D01*
X134506253Y-131485858D01*
X134685858Y-131306253D01*
X134700000Y-131320395D01*
X135672927Y-130347468D01*
X135574264Y-130080613D01*
X134964539Y-129854092D01*
X134314540Y-129878144D01*
X133910000Y-130045710D01*
X133910000Y-94942316D01*
X134373352Y-95134716D01*
X135023795Y-95135284D01*
X135624943Y-94886894D01*
X136085278Y-94427363D01*
X136154773Y-94260000D01*
X139744953Y-94260000D01*
X139813106Y-94424943D01*
X139813106Y-94424943D01*
G37*
X139813106Y-94424943D02*
X140272637Y-94885278D01*
X140873352Y-95134716D01*
X141523795Y-95135284D01*
X142124943Y-94886894D01*
X142585278Y-94427363D01*
X142654773Y-94260000D01*
X145581198Y-94260000D01*
X146360830Y-95039632D01*
X146005302Y-95277189D01*
X145750000Y-95659275D01*
X145494698Y-95277189D01*
X145029151Y-94966120D01*
X144480000Y-94856887D01*
X143930849Y-94966120D01*
X143465302Y-95277189D01*
X143154233Y-95742736D01*
X143045000Y-96291887D01*
X143045000Y-96348113D01*
X143154233Y-96897264D01*
X143392730Y-97254200D01*
X139018100Y-97254200D01*
X138727261Y-97312052D01*
X138480699Y-97476799D01*
X136756649Y-99200849D01*
X136642370Y-99086371D01*
X136129100Y-98873243D01*
X135573339Y-98872758D01*
X135059697Y-99084990D01*
X134666371Y-99477630D01*
X134453243Y-99990900D01*
X134452758Y-100546661D01*
X134664990Y-101060303D01*
X135057630Y-101453629D01*
X135570900Y-101666757D01*
X136126661Y-101667242D01*
X136640303Y-101455010D01*
X136766509Y-101329024D01*
X140605793Y-105168395D01*
X140605797Y-105168397D01*
X140605799Y-105168401D01*
X140718995Y-105244036D01*
X140852353Y-105333145D01*
X140852358Y-105333146D01*
X140852361Y-105333148D01*
X140980428Y-105358622D01*
X141143191Y-105391000D01*
X141143196Y-105390999D01*
X141143200Y-105391000D01*
X146798198Y-105391000D01*
X161098257Y-119691059D01*
X160753339Y-119690758D01*
X160239697Y-119902990D01*
X159846371Y-120295630D01*
X159760051Y-120503512D01*
X159675010Y-120297697D01*
X159282370Y-119904371D01*
X158769100Y-119691243D01*
X158213339Y-119690758D01*
X157699697Y-119902990D01*
X157306371Y-120295630D01*
X157220051Y-120503512D01*
X157135010Y-120297697D01*
X156742370Y-119904371D01*
X156229100Y-119691243D01*
X155673339Y-119690758D01*
X155159697Y-119902990D01*
X154766371Y-120295630D01*
X154680051Y-120503512D01*
X154595010Y-120297697D01*
X154202370Y-119904371D01*
X153689100Y-119691243D01*
X153133339Y-119690758D01*
X152619697Y-119902990D01*
X152226371Y-120295630D01*
X152013243Y-120808900D01*
X152012758Y-121364661D01*
X152224990Y-121878303D01*
X152617630Y-122271629D01*
X153130900Y-122484757D01*
X153686661Y-122485242D01*
X153719055Y-122471857D01*
X153966399Y-122719201D01*
X154212961Y-122883948D01*
X154503800Y-122941800D01*
X166604800Y-122941800D01*
X166895639Y-122883948D01*
X167142201Y-122719201D01*
X167723818Y-122137584D01*
X167857630Y-122271629D01*
X168370900Y-122484757D01*
X168926661Y-122485242D01*
X169440303Y-122273010D01*
X169833629Y-121880370D01*
X169919949Y-121672488D01*
X170004990Y-121878303D01*
X170397630Y-122271629D01*
X170910900Y-122484757D01*
X171466661Y-122485242D01*
X171980303Y-122273010D01*
X172373629Y-121880370D01*
X172586757Y-121367100D01*
X172587242Y-120811339D01*
X172375010Y-120297697D01*
X171982370Y-119904371D01*
X171469100Y-119691243D01*
X170913339Y-119690758D01*
X170399697Y-119902990D01*
X170006371Y-120295630D01*
X169920051Y-120503512D01*
X169835010Y-120297697D01*
X169442370Y-119904371D01*
X169391680Y-119883322D01*
X169879802Y-119395200D01*
X176383900Y-119395200D01*
X176674739Y-119337348D01*
X176921301Y-119172601D01*
X177693002Y-118400900D01*
X177590262Y-118648325D01*
X177589738Y-119249040D01*
X177629625Y-119345573D01*
X172595198Y-124380000D01*
X149183015Y-124380000D01*
X149340303Y-124315010D01*
X149733629Y-123922370D01*
X149946757Y-123409100D01*
X149947242Y-122853339D01*
X149735010Y-122339697D01*
X149342370Y-121946371D01*
X148829100Y-121733243D01*
X148273339Y-121732758D01*
X147759697Y-121944990D01*
X147366371Y-122337630D01*
X147153243Y-122850900D01*
X147152758Y-123406661D01*
X147364990Y-123920303D01*
X147757630Y-124313629D01*
X148270900Y-124526757D01*
X148559428Y-124527009D01*
X148446299Y-124602599D01*
X147014099Y-126034799D01*
X146849352Y-126281361D01*
X146791500Y-126572200D01*
X146791500Y-128251500D01*
X146849352Y-128542339D01*
X147014099Y-128788901D01*
X147315817Y-129090619D01*
X147303243Y-129120900D01*
X147302758Y-129676661D01*
X147325913Y-129732700D01*
X143527502Y-129732700D01*
X137234183Y-123439381D01*
X137246757Y-123409100D01*
X137247242Y-122853339D01*
X137035010Y-122339697D01*
X136642370Y-121946371D01*
X136129100Y-121733243D01*
X135573339Y-121732758D01*
X135059697Y-121944990D01*
X134666371Y-122337630D01*
X134453243Y-122850900D01*
X134452758Y-123406661D01*
X134664990Y-123920303D01*
X135057630Y-124313629D01*
X135570900Y-124526757D01*
X136126661Y-124527242D01*
X136159055Y-124513857D01*
X141519832Y-129874634D01*
X141464539Y-129854092D01*
X140814540Y-129878144D01*
X140325736Y-130080613D01*
X140227073Y-130347468D01*
X141200000Y-131320395D01*
X141214143Y-131306253D01*
X141393748Y-131485858D01*
X141379605Y-131500000D01*
X142352532Y-132472927D01*
X142619387Y-132374264D01*
X142845908Y-131764539D01*
X142822368Y-131128369D01*
X142921860Y-131194848D01*
X143212700Y-131252700D01*
X172557300Y-131252700D01*
X172643965Y-131235461D01*
X173554092Y-131235461D01*
X173578144Y-131885460D01*
X173780613Y-132374264D01*
X174047468Y-132472927D01*
X175020395Y-131500000D01*
X175379605Y-131500000D01*
X176352532Y-132472927D01*
X176619387Y-132374264D01*
X176845908Y-131764539D01*
X176826331Y-131235461D01*
X180054092Y-131235461D01*
X180078144Y-131885460D01*
X180280613Y-132374264D01*
X180547468Y-132472927D01*
X181520395Y-131500000D01*
X180547468Y-130527073D01*
X180280613Y-130625736D01*
X180054092Y-131235461D01*
X176826331Y-131235461D01*
X176821856Y-131114540D01*
X176619387Y-130625736D01*
X176352532Y-130527073D01*
X175379605Y-131500000D01*
X175020395Y-131500000D01*
X174047468Y-130527073D01*
X173780613Y-130625736D01*
X173554092Y-131235461D01*
X172643965Y-131235461D01*
X172848139Y-131194848D01*
X173094701Y-131030101D01*
X173777334Y-130347468D01*
X174227073Y-130347468D01*
X175200000Y-131320395D01*
X176172927Y-130347468D01*
X176074264Y-130080613D01*
X175464539Y-129854092D01*
X174814540Y-129878144D01*
X174325736Y-130080613D01*
X174227073Y-130347468D01*
X173777334Y-130347468D01*
X177577560Y-126547242D01*
X177577560Y-127325000D01*
X177621838Y-127560317D01*
X177760910Y-127776441D01*
X177973110Y-127921431D01*
X178225000Y-127972440D01*
X179975000Y-127972440D01*
X180210317Y-127928162D01*
X180426441Y-127789090D01*
X180571431Y-127576890D01*
X180622440Y-127325000D01*
X180622440Y-125575000D01*
X180578162Y-125339683D01*
X180439090Y-125123559D01*
X180226890Y-124978569D01*
X180210324Y-124975214D01*
X180379370Y-124806463D01*
X180609738Y-124251675D01*
X180610262Y-123650960D01*
X180380862Y-123095771D01*
X179985464Y-122699682D01*
X180379370Y-122306463D01*
X180609738Y-121751675D01*
X180610262Y-121150960D01*
X180380862Y-120595771D01*
X179985464Y-120199682D01*
X180379370Y-119806463D01*
X180609738Y-119251675D01*
X180610262Y-118650960D01*
X180380862Y-118095771D01*
X179956463Y-117670630D01*
X179401675Y-117440262D01*
X178800960Y-117439738D01*
X178550800Y-117543102D01*
X181787801Y-114306101D01*
X181952548Y-114059540D01*
X182010400Y-113768700D01*
X182010400Y-101300700D01*
X181952548Y-101009861D01*
X181787801Y-100763299D01*
X181307776Y-100283274D01*
X181376441Y-100239090D01*
X181521431Y-100026890D01*
X181572440Y-99775000D01*
X181572440Y-98025000D01*
X181528162Y-97789683D01*
X181389090Y-97573559D01*
X181176890Y-97428569D01*
X180925000Y-97377560D01*
X179175000Y-97377560D01*
X178939683Y-97421838D01*
X178723559Y-97560910D01*
X178578569Y-97773110D01*
X178575214Y-97789676D01*
X178406463Y-97620630D01*
X177851675Y-97390262D01*
X177250960Y-97389738D01*
X176695771Y-97619138D01*
X176270630Y-98043537D01*
X176040262Y-98598325D01*
X176039738Y-99199040D01*
X176269138Y-99754229D01*
X176693537Y-100179370D01*
X177248325Y-100409738D01*
X177849040Y-100410262D01*
X178404229Y-100180862D01*
X178573103Y-100012283D01*
X178710910Y-100226441D01*
X178923110Y-100371431D01*
X179175000Y-100422440D01*
X179368767Y-100422440D01*
X179512599Y-100637701D01*
X180490400Y-101615502D01*
X180490400Y-104327560D01*
X179175000Y-104327560D01*
X178939683Y-104371838D01*
X178913371Y-104388769D01*
X172701701Y-98177099D01*
X172455139Y-98012352D01*
X172164300Y-97954500D01*
X151540302Y-97954500D01*
X151776114Y-97718688D01*
X152100000Y-97783113D01*
X152649151Y-97673880D01*
X153114698Y-97362811D01*
X153425767Y-96897264D01*
X153535000Y-96348113D01*
X153535000Y-96291887D01*
X153425767Y-95742736D01*
X153114698Y-95277189D01*
X152759170Y-95039632D01*
X153538802Y-94260000D01*
X173744953Y-94260000D01*
X173813106Y-94424943D01*
X174272637Y-94885278D01*
X174873352Y-95134716D01*
X175523795Y-95135284D01*
X176124943Y-94886894D01*
X176585278Y-94427363D01*
X176654773Y-94260000D01*
X180244953Y-94260000D01*
X180313106Y-94424943D01*
X180772637Y-94885278D01*
X181373352Y-95134716D01*
X182023795Y-95135284D01*
X182490000Y-94942651D01*
X182490000Y-130049308D01*
X181964539Y-129854092D01*
X181314540Y-129878144D01*
X180825736Y-130080613D01*
X180727073Y-130347468D01*
X181700000Y-131320395D01*
X181714143Y-131306253D01*
X181893748Y-131485858D01*
X181879605Y-131500000D01*
X181893748Y-131514143D01*
X181714143Y-131693748D01*
X181700000Y-131679605D01*
X180727073Y-132652532D01*
X180825736Y-132919387D01*
X181435461Y-133145908D01*
X182085460Y-133121856D01*
X182490000Y-132954290D01*
X182490000Y-134557684D01*
X182026648Y-134365284D01*
X181376205Y-134364716D01*
X180775057Y-134613106D01*
X180314722Y-135072637D01*
X180065284Y-135673352D01*
X180064716Y-136323795D01*
X180257349Y-136790000D01*
X176642316Y-136790000D01*
X176834716Y-136326648D01*
X176835284Y-135676205D01*
X176586894Y-135075057D01*
X176127363Y-134614722D01*
X175526648Y-134365284D01*
X174876205Y-134364716D01*
X174275057Y-134613106D01*
X173814722Y-135072637D01*
X173574233Y-135651800D01*
X172561552Y-135651800D01*
X172586757Y-135591100D01*
X172587242Y-135035339D01*
X172375010Y-134521697D01*
X171982370Y-134128371D01*
X171469100Y-133915243D01*
X170913339Y-133914758D01*
X170399697Y-134126990D01*
X170006371Y-134519630D01*
X169920051Y-134727512D01*
X169835010Y-134521697D01*
X169442370Y-134128371D01*
X168929100Y-133915243D01*
X168373339Y-133914758D01*
X167859697Y-134126990D01*
X167466371Y-134519630D01*
X167386605Y-134711727D01*
X167332397Y-134580857D01*
X167090213Y-134511392D01*
X166289605Y-135312000D01*
X166303748Y-135326143D01*
X166124143Y-135505748D01*
X166110000Y-135491605D01*
X166095858Y-135505748D01*
X165916253Y-135326143D01*
X165930395Y-135312000D01*
X165129787Y-134511392D01*
X164887603Y-134580857D01*
X164837491Y-134721318D01*
X164755010Y-134521697D01*
X164565432Y-134331787D01*
X165309392Y-134331787D01*
X166110000Y-135132395D01*
X166910608Y-134331787D01*
X166841143Y-134089603D01*
X166317698Y-133902856D01*
X165762632Y-133930638D01*
X165378857Y-134089603D01*
X165309392Y-134331787D01*
X164565432Y-134331787D01*
X164362370Y-134128371D01*
X163849100Y-133915243D01*
X163293339Y-133914758D01*
X162779697Y-134126990D01*
X162386371Y-134519630D01*
X162300051Y-134727512D01*
X162215010Y-134521697D01*
X161822370Y-134128371D01*
X161309100Y-133915243D01*
X160753339Y-133914758D01*
X160239697Y-134126990D01*
X159846371Y-134519630D01*
X159760051Y-134727512D01*
X159675010Y-134521697D01*
X159282370Y-134128371D01*
X158769100Y-133915243D01*
X158213339Y-133914758D01*
X157699697Y-134126990D01*
X157306371Y-134519630D01*
X157220051Y-134727512D01*
X157135010Y-134521697D01*
X156742370Y-134128371D01*
X156229100Y-133915243D01*
X155673339Y-133914758D01*
X155159697Y-134126990D01*
X154766371Y-134519630D01*
X154680051Y-134727512D01*
X154595010Y-134521697D01*
X154202370Y-134128371D01*
X153689100Y-133915243D01*
X153133339Y-133914758D01*
X152619697Y-134126990D01*
X152226371Y-134519630D01*
X152013243Y-135032900D01*
X152012758Y-135588661D01*
X152038846Y-135651800D01*
X142825200Y-135651800D01*
X142586894Y-135075057D01*
X142127363Y-134614722D01*
X141526648Y-134365284D01*
X140876205Y-134364716D01*
X140275057Y-134613106D01*
X139814722Y-135072637D01*
X139745227Y-135240000D01*
X136155047Y-135240000D01*
X136086894Y-135075057D01*
X135627363Y-134614722D01*
X135026648Y-134365284D01*
X134376205Y-134364716D01*
X133910000Y-134557349D01*
X133910000Y-132950692D01*
X134435461Y-133145908D01*
X135085460Y-133121856D01*
X135574264Y-132919387D01*
X135672927Y-132652532D01*
X140227073Y-132652532D01*
X140325736Y-132919387D01*
X140935461Y-133145908D01*
X141585460Y-133121856D01*
X142074264Y-132919387D01*
X142172927Y-132652532D01*
X174227073Y-132652532D01*
X174325736Y-132919387D01*
X174935461Y-133145908D01*
X175585460Y-133121856D01*
X176074264Y-132919387D01*
X176172927Y-132652532D01*
X175200000Y-131679605D01*
X174227073Y-132652532D01*
X142172927Y-132652532D01*
X141200000Y-131679605D01*
X140227073Y-132652532D01*
X135672927Y-132652532D01*
X134700000Y-131679605D01*
X134685858Y-131693748D01*
X134506253Y-131514143D01*
X134520395Y-131500000D01*
X134879605Y-131500000D01*
X135852532Y-132472927D01*
X136119387Y-132374264D01*
X136345908Y-131764539D01*
X136326331Y-131235461D01*
X139554092Y-131235461D01*
X139578144Y-131885460D01*
X139780613Y-132374264D01*
X140047468Y-132472927D01*
X141020395Y-131500000D01*
X140047468Y-130527073D01*
X139780613Y-130625736D01*
X139554092Y-131235461D01*
X136326331Y-131235461D01*
X136321856Y-131114540D01*
X136119387Y-130625736D01*
X135852532Y-130527073D01*
X134879605Y-131500000D01*
X134520395Y-131500000D01*
X134506253Y-131485858D01*
X134685858Y-131306253D01*
X134700000Y-131320395D01*
X135672927Y-130347468D01*
X135574264Y-130080613D01*
X134964539Y-129854092D01*
X134314540Y-129878144D01*
X133910000Y-130045710D01*
X133910000Y-94942316D01*
X134373352Y-95134716D01*
X135023795Y-95135284D01*
X135624943Y-94886894D01*
X136085278Y-94427363D01*
X136154773Y-94260000D01*
X139744953Y-94260000D01*
X139813106Y-94424943D01*
G36*
X144826371Y-99477630D02*
X144613243Y-99990900D01*
X144612758Y-100546661D01*
X144824990Y-101060303D01*
X145217630Y-101453629D01*
X145730900Y-101666757D01*
X146286661Y-101667242D01*
X146800303Y-101455010D01*
X147193629Y-101062370D01*
X147279949Y-100854488D01*
X147364990Y-101060303D01*
X147757630Y-101453629D01*
X148270900Y-101666757D01*
X148826661Y-101667242D01*
X149340303Y-101455010D01*
X149733629Y-101062370D01*
X149747070Y-101030000D01*
X166504998Y-101030000D01*
X176862721Y-111387723D01*
X176750884Y-111434047D01*
X176667545Y-111687940D01*
X177550000Y-112570395D01*
X177564143Y-112556253D01*
X177743748Y-112735858D01*
X177729605Y-112750000D01*
X177743748Y-112764143D01*
X177564143Y-112943748D01*
X177550000Y-112929605D01*
X176667545Y-113812060D01*
X176750884Y-114065953D01*
X177315306Y-114271590D01*
X177915458Y-114245579D01*
X178349116Y-114065953D01*
X178432454Y-113812062D01*
X178547086Y-113926694D01*
X178588136Y-113885644D01*
X178710910Y-114076441D01*
X178923110Y-114221431D01*
X179175000Y-114272440D01*
X179671858Y-114272440D01*
X176069098Y-117875200D01*
X169565000Y-117875200D01*
X169274160Y-117933052D01*
X169027599Y-118097799D01*
X167079121Y-120046277D01*
X167025618Y-119992774D01*
X166910607Y-120107785D01*
X166841143Y-119865603D01*
X166317698Y-119678856D01*
X165762632Y-119706638D01*
X165378857Y-119865603D01*
X165309392Y-120107787D01*
X166110000Y-120908395D01*
X166124143Y-120894253D01*
X166303748Y-121073858D01*
X166289605Y-121088000D01*
X166303748Y-121102143D01*
X166124143Y-121281748D01*
X166110000Y-121267605D01*
X166095858Y-121281748D01*
X165916253Y-121102143D01*
X165930395Y-121088000D01*
X165129787Y-120287392D01*
X164887603Y-120356857D01*
X164837491Y-120497318D01*
X164755010Y-120297697D01*
X164362370Y-119904371D01*
X163849100Y-119691243D01*
X163293339Y-119690758D01*
X163260945Y-119704143D01*
X156072108Y-112515306D01*
X176028410Y-112515306D01*
X176054421Y-113115458D01*
X176234047Y-113549116D01*
X176487940Y-113632455D01*
X177370395Y-112750000D01*
X176487940Y-111867545D01*
X176234047Y-111950884D01*
X176028410Y-112515306D01*
X156072108Y-112515306D01*
X147650401Y-104093599D01*
X147403839Y-103928852D01*
X147113000Y-103871000D01*
X141458007Y-103871000D01*
X139082488Y-101495426D01*
X139180303Y-101455010D01*
X139573629Y-101062370D01*
X139786757Y-100549100D01*
X139787242Y-99993339D01*
X139773857Y-99960945D01*
X140260302Y-99474500D01*
X144829506Y-99474500D01*
X144826371Y-99477630D01*
X144826371Y-99477630D01*
G37*
X144826371Y-99477630D02*
X144613243Y-99990900D01*
X144612758Y-100546661D01*
X144824990Y-101060303D01*
X145217630Y-101453629D01*
X145730900Y-101666757D01*
X146286661Y-101667242D01*
X146800303Y-101455010D01*
X147193629Y-101062370D01*
X147279949Y-100854488D01*
X147364990Y-101060303D01*
X147757630Y-101453629D01*
X148270900Y-101666757D01*
X148826661Y-101667242D01*
X149340303Y-101455010D01*
X149733629Y-101062370D01*
X149747070Y-101030000D01*
X166504998Y-101030000D01*
X176862721Y-111387723D01*
X176750884Y-111434047D01*
X176667545Y-111687940D01*
X177550000Y-112570395D01*
X177564143Y-112556253D01*
X177743748Y-112735858D01*
X177729605Y-112750000D01*
X177743748Y-112764143D01*
X177564143Y-112943748D01*
X177550000Y-112929605D01*
X176667545Y-113812060D01*
X176750884Y-114065953D01*
X177315306Y-114271590D01*
X177915458Y-114245579D01*
X178349116Y-114065953D01*
X178432454Y-113812062D01*
X178547086Y-113926694D01*
X178588136Y-113885644D01*
X178710910Y-114076441D01*
X178923110Y-114221431D01*
X179175000Y-114272440D01*
X179671858Y-114272440D01*
X176069098Y-117875200D01*
X169565000Y-117875200D01*
X169274160Y-117933052D01*
X169027599Y-118097799D01*
X167079121Y-120046277D01*
X167025618Y-119992774D01*
X166910607Y-120107785D01*
X166841143Y-119865603D01*
X166317698Y-119678856D01*
X165762632Y-119706638D01*
X165378857Y-119865603D01*
X165309392Y-120107787D01*
X166110000Y-120908395D01*
X166124143Y-120894253D01*
X166303748Y-121073858D01*
X166289605Y-121088000D01*
X166303748Y-121102143D01*
X166124143Y-121281748D01*
X166110000Y-121267605D01*
X166095858Y-121281748D01*
X165916253Y-121102143D01*
X165930395Y-121088000D01*
X165129787Y-120287392D01*
X164887603Y-120356857D01*
X164837491Y-120497318D01*
X164755010Y-120297697D01*
X164362370Y-119904371D01*
X163849100Y-119691243D01*
X163293339Y-119690758D01*
X163260945Y-119704143D01*
X156072108Y-112515306D01*
X176028410Y-112515306D01*
X176054421Y-113115458D01*
X176234047Y-113549116D01*
X176487940Y-113632455D01*
X177370395Y-112750000D01*
X176487940Y-111867545D01*
X176234047Y-111950884D01*
X176028410Y-112515306D01*
X156072108Y-112515306D01*
X147650401Y-104093599D01*
X147403839Y-103928852D01*
X147113000Y-103871000D01*
X141458007Y-103871000D01*
X139082488Y-101495426D01*
X139180303Y-101455010D01*
X139573629Y-101062370D01*
X139786757Y-100549100D01*
X139787242Y-99993339D01*
X139773857Y-99960945D01*
X140260302Y-99474500D01*
X144829506Y-99474500D01*
X144826371Y-99477630D01*
G36*
X139554092Y-88735461D02*
X139578144Y-89385460D01*
X139780613Y-89874264D01*
X140047468Y-89972927D01*
X141020395Y-89000000D01*
X141006253Y-88985858D01*
X141185858Y-88806253D01*
X141200000Y-88820395D01*
X141214143Y-88806253D01*
X141393748Y-88985858D01*
X141379605Y-89000000D01*
X142352532Y-89972927D01*
X142619387Y-89874264D01*
X142845908Y-89264539D01*
X142837934Y-89049041D01*
X143088086Y-89049041D01*
X143327611Y-89555134D01*
X143742577Y-89931041D01*
X144130961Y-90091904D01*
X144353000Y-89969915D01*
X144353000Y-88827000D01*
X143209371Y-88827000D01*
X143088086Y-89049041D01*
X142837934Y-89049041D01*
X142821856Y-88614540D01*
X142654290Y-88210000D01*
X143154799Y-88210000D01*
X143088086Y-88350959D01*
X143209371Y-88573000D01*
X144353000Y-88573000D01*
X144353000Y-88553000D01*
X144607000Y-88553000D01*
X144607000Y-88573000D01*
X144627000Y-88573000D01*
X144627000Y-88827000D01*
X144607000Y-88827000D01*
X144607000Y-89969915D01*
X144829039Y-90091904D01*
X145217423Y-89931041D01*
X145632389Y-89555134D01*
X145735014Y-89338297D01*
X146005302Y-89742811D01*
X146470849Y-90053880D01*
X147020000Y-90163113D01*
X147569151Y-90053880D01*
X148034698Y-89742811D01*
X148290000Y-89360725D01*
X148545302Y-89742811D01*
X149010849Y-90053880D01*
X149560000Y-90163113D01*
X149613194Y-90152532D01*
X174227073Y-90152532D01*
X174325736Y-90419387D01*
X174935461Y-90645908D01*
X175585460Y-90621856D01*
X176074264Y-90419387D01*
X176172927Y-90152532D01*
X175200000Y-89179605D01*
X174227073Y-90152532D01*
X149613194Y-90152532D01*
X150109151Y-90053880D01*
X150574698Y-89742811D01*
X150671101Y-89598535D01*
X150696838Y-89735317D01*
X150835910Y-89951441D01*
X151048110Y-90096431D01*
X151300000Y-90147440D01*
X152900000Y-90147440D01*
X153135317Y-90103162D01*
X153351441Y-89964090D01*
X153496431Y-89751890D01*
X153547440Y-89500000D01*
X153547440Y-88210000D01*
X173749308Y-88210000D01*
X173554092Y-88735461D01*
X173578144Y-89385460D01*
X173780613Y-89874264D01*
X174047468Y-89972927D01*
X175020395Y-89000000D01*
X175006253Y-88985858D01*
X175185858Y-88806253D01*
X175200000Y-88820395D01*
X175214143Y-88806253D01*
X175393748Y-88985858D01*
X175379605Y-89000000D01*
X176352532Y-89972927D01*
X176619387Y-89874264D01*
X176845908Y-89264539D01*
X176821856Y-88614540D01*
X176654290Y-88210000D01*
X180249308Y-88210000D01*
X180054092Y-88735461D01*
X180078144Y-89385460D01*
X180280613Y-89874264D01*
X180547468Y-89972927D01*
X181520395Y-89000000D01*
X181506253Y-88985858D01*
X181685858Y-88806253D01*
X181700000Y-88820395D01*
X181714143Y-88806253D01*
X181893748Y-88985858D01*
X181879605Y-89000000D01*
X181893748Y-89014143D01*
X181714143Y-89193748D01*
X181700000Y-89179605D01*
X180727073Y-90152532D01*
X180825736Y-90419387D01*
X181435461Y-90645908D01*
X182085460Y-90621856D01*
X182490000Y-90454290D01*
X182490000Y-92057684D01*
X182026648Y-91865284D01*
X181376205Y-91864716D01*
X180775057Y-92113106D01*
X180314722Y-92572637D01*
X180245227Y-92740000D01*
X176655047Y-92740000D01*
X176586894Y-92575057D01*
X176127363Y-92114722D01*
X175526648Y-91865284D01*
X174876205Y-91864716D01*
X174275057Y-92113106D01*
X173814722Y-92572637D01*
X173745227Y-92740000D01*
X153224000Y-92740000D01*
X152933161Y-92797852D01*
X152686599Y-92962599D01*
X150453195Y-95196003D01*
X150109151Y-94966120D01*
X149560000Y-94856887D01*
X149010849Y-94966120D01*
X148666805Y-95196003D01*
X146433401Y-92962599D01*
X146186839Y-92797852D01*
X145896000Y-92740000D01*
X142655047Y-92740000D01*
X142586894Y-92575057D01*
X142127363Y-92114722D01*
X141526648Y-91865284D01*
X140876205Y-91864716D01*
X140275057Y-92113106D01*
X139814722Y-92572637D01*
X139745227Y-92740000D01*
X136155047Y-92740000D01*
X136086894Y-92575057D01*
X135627363Y-92114722D01*
X135026648Y-91865284D01*
X134376205Y-91864716D01*
X133910000Y-92057349D01*
X133910000Y-90450692D01*
X134435461Y-90645908D01*
X135085460Y-90621856D01*
X135574264Y-90419387D01*
X135672927Y-90152532D01*
X140227073Y-90152532D01*
X140325736Y-90419387D01*
X140935461Y-90645908D01*
X141585460Y-90621856D01*
X142074264Y-90419387D01*
X142172927Y-90152532D01*
X141200000Y-89179605D01*
X140227073Y-90152532D01*
X135672927Y-90152532D01*
X134700000Y-89179605D01*
X134685858Y-89193748D01*
X134506253Y-89014143D01*
X134520395Y-89000000D01*
X134506253Y-88985858D01*
X134685858Y-88806253D01*
X134700000Y-88820395D01*
X134714143Y-88806253D01*
X134893748Y-88985858D01*
X134879605Y-89000000D01*
X135852532Y-89972927D01*
X136119387Y-89874264D01*
X136345908Y-89264539D01*
X136321856Y-88614540D01*
X136154290Y-88210000D01*
X139749308Y-88210000D01*
X139554092Y-88735461D01*
X139554092Y-88735461D01*
G37*
X139554092Y-88735461D02*
X139578144Y-89385460D01*
X139780613Y-89874264D01*
X140047468Y-89972927D01*
X141020395Y-89000000D01*
X141006253Y-88985858D01*
X141185858Y-88806253D01*
X141200000Y-88820395D01*
X141214143Y-88806253D01*
X141393748Y-88985858D01*
X141379605Y-89000000D01*
X142352532Y-89972927D01*
X142619387Y-89874264D01*
X142845908Y-89264539D01*
X142837934Y-89049041D01*
X143088086Y-89049041D01*
X143327611Y-89555134D01*
X143742577Y-89931041D01*
X144130961Y-90091904D01*
X144353000Y-89969915D01*
X144353000Y-88827000D01*
X143209371Y-88827000D01*
X143088086Y-89049041D01*
X142837934Y-89049041D01*
X142821856Y-88614540D01*
X142654290Y-88210000D01*
X143154799Y-88210000D01*
X143088086Y-88350959D01*
X143209371Y-88573000D01*
X144353000Y-88573000D01*
X144353000Y-88553000D01*
X144607000Y-88553000D01*
X144607000Y-88573000D01*
X144627000Y-88573000D01*
X144627000Y-88827000D01*
X144607000Y-88827000D01*
X144607000Y-89969915D01*
X144829039Y-90091904D01*
X145217423Y-89931041D01*
X145632389Y-89555134D01*
X145735014Y-89338297D01*
X146005302Y-89742811D01*
X146470849Y-90053880D01*
X147020000Y-90163113D01*
X147569151Y-90053880D01*
X148034698Y-89742811D01*
X148290000Y-89360725D01*
X148545302Y-89742811D01*
X149010849Y-90053880D01*
X149560000Y-90163113D01*
X149613194Y-90152532D01*
X174227073Y-90152532D01*
X174325736Y-90419387D01*
X174935461Y-90645908D01*
X175585460Y-90621856D01*
X176074264Y-90419387D01*
X176172927Y-90152532D01*
X175200000Y-89179605D01*
X174227073Y-90152532D01*
X149613194Y-90152532D01*
X150109151Y-90053880D01*
X150574698Y-89742811D01*
X150671101Y-89598535D01*
X150696838Y-89735317D01*
X150835910Y-89951441D01*
X151048110Y-90096431D01*
X151300000Y-90147440D01*
X152900000Y-90147440D01*
X153135317Y-90103162D01*
X153351441Y-89964090D01*
X153496431Y-89751890D01*
X153547440Y-89500000D01*
X153547440Y-88210000D01*
X173749308Y-88210000D01*
X173554092Y-88735461D01*
X173578144Y-89385460D01*
X173780613Y-89874264D01*
X174047468Y-89972927D01*
X175020395Y-89000000D01*
X175006253Y-88985858D01*
X175185858Y-88806253D01*
X175200000Y-88820395D01*
X175214143Y-88806253D01*
X175393748Y-88985858D01*
X175379605Y-89000000D01*
X176352532Y-89972927D01*
X176619387Y-89874264D01*
X176845908Y-89264539D01*
X176821856Y-88614540D01*
X176654290Y-88210000D01*
X180249308Y-88210000D01*
X180054092Y-88735461D01*
X180078144Y-89385460D01*
X180280613Y-89874264D01*
X180547468Y-89972927D01*
X181520395Y-89000000D01*
X181506253Y-88985858D01*
X181685858Y-88806253D01*
X181700000Y-88820395D01*
X181714143Y-88806253D01*
X181893748Y-88985858D01*
X181879605Y-89000000D01*
X181893748Y-89014143D01*
X181714143Y-89193748D01*
X181700000Y-89179605D01*
X180727073Y-90152532D01*
X180825736Y-90419387D01*
X181435461Y-90645908D01*
X182085460Y-90621856D01*
X182490000Y-90454290D01*
X182490000Y-92057684D01*
X182026648Y-91865284D01*
X181376205Y-91864716D01*
X180775057Y-92113106D01*
X180314722Y-92572637D01*
X180245227Y-92740000D01*
X176655047Y-92740000D01*
X176586894Y-92575057D01*
X176127363Y-92114722D01*
X175526648Y-91865284D01*
X174876205Y-91864716D01*
X174275057Y-92113106D01*
X173814722Y-92572637D01*
X173745227Y-92740000D01*
X153224000Y-92740000D01*
X152933161Y-92797852D01*
X152686599Y-92962599D01*
X150453195Y-95196003D01*
X150109151Y-94966120D01*
X149560000Y-94856887D01*
X149010849Y-94966120D01*
X148666805Y-95196003D01*
X146433401Y-92962599D01*
X146186839Y-92797852D01*
X145896000Y-92740000D01*
X142655047Y-92740000D01*
X142586894Y-92575057D01*
X142127363Y-92114722D01*
X141526648Y-91865284D01*
X140876205Y-91864716D01*
X140275057Y-92113106D01*
X139814722Y-92572637D01*
X139745227Y-92740000D01*
X136155047Y-92740000D01*
X136086894Y-92575057D01*
X135627363Y-92114722D01*
X135026648Y-91865284D01*
X134376205Y-91864716D01*
X133910000Y-92057349D01*
X133910000Y-90450692D01*
X134435461Y-90645908D01*
X135085460Y-90621856D01*
X135574264Y-90419387D01*
X135672927Y-90152532D01*
X140227073Y-90152532D01*
X140325736Y-90419387D01*
X140935461Y-90645908D01*
X141585460Y-90621856D01*
X142074264Y-90419387D01*
X142172927Y-90152532D01*
X141200000Y-89179605D01*
X140227073Y-90152532D01*
X135672927Y-90152532D01*
X134700000Y-89179605D01*
X134685858Y-89193748D01*
X134506253Y-89014143D01*
X134520395Y-89000000D01*
X134506253Y-88985858D01*
X134685858Y-88806253D01*
X134700000Y-88820395D01*
X134714143Y-88806253D01*
X134893748Y-88985858D01*
X134879605Y-89000000D01*
X135852532Y-89972927D01*
X136119387Y-89874264D01*
X136345908Y-89264539D01*
X136321856Y-88614540D01*
X136154290Y-88210000D01*
X139749308Y-88210000D01*
X139554092Y-88735461D01*
M02*
