%FSLAX45Y45*%
G04 Gerber Fmt 4.5, Leading zero omitted, Abs format (unit mm)*
G04 Created by KiCad (PCBNEW 4.0.6+dfsg1-1) date Mon Jan 15 22:55:22 2018*
%MOMM*%
%LPD*%
G01*
G04 APERTURE LIST*
%ADD10C,0.127000*%
%ADD11C,0.150000*%
%ADD12C,0.200000*%
%ADD13C,0.300000*%
G04 APERTURE END LIST*
D10*
D11*
X18320000Y-14650000D02*
X18320000Y-8750000D01*
X12120000Y-14650000D02*
X18320000Y-14650000D01*
X12120000Y-8750000D02*
X12120000Y-14650000D01*
X18320000Y-8750000D02*
X12120000Y-8750000D01*
D12*
X13830000Y-10180000D02*
X13910000Y-10260000D01*
X13910000Y-10180000D02*
X13830000Y-10260000D01*
X13830000Y-10434000D02*
X13910000Y-10514000D01*
X13910000Y-10434000D02*
X13830000Y-10514000D01*
X13830000Y-10688000D02*
X13910000Y-10768000D01*
X13910000Y-10688000D02*
X13830000Y-10768000D01*
X13830000Y-10942000D02*
X13910000Y-11022000D01*
X13910000Y-10942000D02*
X13830000Y-11022000D01*
X14592000Y-10180000D02*
X14672000Y-10260000D01*
X14672000Y-10180000D02*
X14592000Y-10260000D01*
X14592000Y-10434000D02*
X14672000Y-10514000D01*
X14672000Y-10434000D02*
X14592000Y-10514000D01*
X14592000Y-10688000D02*
X14672000Y-10768000D01*
X14672000Y-10688000D02*
X14592000Y-10768000D01*
X14592000Y-10942000D02*
X14672000Y-11022000D01*
X14672000Y-10942000D02*
X14592000Y-11022000D01*
X15735000Y-10857000D02*
X15815000Y-10937000D01*
X15815000Y-10857000D02*
X15735000Y-10937000D01*
X15735000Y-13143000D02*
X15815000Y-13223000D01*
X15815000Y-13143000D02*
X15735000Y-13223000D01*
X15989000Y-10857000D02*
X16069000Y-10937000D01*
X16069000Y-10857000D02*
X15989000Y-10937000D01*
X16751000Y-10857000D02*
X16831000Y-10937000D01*
X16831000Y-10857000D02*
X16751000Y-10937000D01*
X17005000Y-10857000D02*
X17085000Y-10937000D01*
X17085000Y-10857000D02*
X17005000Y-10937000D01*
X17005000Y-13143000D02*
X17085000Y-13223000D01*
X17085000Y-13143000D02*
X17005000Y-13223000D01*
X12650000Y-10730000D02*
G75*
G03X12650000Y-10730000I-50000J0D01*
G01*
X12650000Y-10980000D02*
G75*
G03X12650000Y-10980000I-50000J0D01*
G01*
X12650000Y-11700000D02*
G75*
G03X12650000Y-11700000I-50000J0D01*
G01*
X12650000Y-11950000D02*
G75*
G03X12650000Y-11950000I-50000J0D01*
G01*
X13678800Y-12021000D02*
G75*
G03X13678800Y-12021000I-50000J0D01*
G01*
X13678800Y-12275000D02*
G75*
G03X13678800Y-12275000I-50000J0D01*
G01*
X13678800Y-12529000D02*
G75*
G03X13678800Y-12529000I-50000J0D01*
G01*
X13678800Y-12783000D02*
G75*
G03X13678800Y-12783000I-50000J0D01*
G01*
X13678800Y-13037000D02*
G75*
G03X13678800Y-13037000I-50000J0D01*
G01*
X13678800Y-13291000D02*
G75*
G03X13678800Y-13291000I-50000J0D01*
G01*
X13678800Y-13545000D02*
G75*
G03X13678800Y-13545000I-50000J0D01*
G01*
X13678800Y-13799000D02*
G75*
G03X13678800Y-13799000I-50000J0D01*
G01*
X14900000Y-9270000D02*
G75*
G03X14900000Y-9270000I-50000J0D01*
G01*
X15101200Y-12021000D02*
G75*
G03X15101200Y-12021000I-50000J0D01*
G01*
X15101200Y-12275000D02*
G75*
G03X15101200Y-12275000I-50000J0D01*
G01*
X15101200Y-12529000D02*
G75*
G03X15101200Y-12529000I-50000J0D01*
G01*
X15101200Y-12783000D02*
G75*
G03X15101200Y-12783000I-50000J0D01*
G01*
X15101200Y-13037000D02*
G75*
G03X15101200Y-13037000I-50000J0D01*
G01*
X15101200Y-13291000D02*
G75*
G03X15101200Y-13291000I-50000J0D01*
G01*
X15101200Y-13545000D02*
G75*
G03X15101200Y-13545000I-50000J0D01*
G01*
X15101200Y-13799000D02*
G75*
G03X15101200Y-13799000I-50000J0D01*
G01*
X15150000Y-9270000D02*
G75*
G03X15150000Y-9270000I-50000J0D01*
G01*
X17810000Y-12480000D02*
G75*
G03X17810000Y-12480000I-50000J0D01*
G01*
X17810000Y-12730000D02*
G75*
G03X17810000Y-12730000I-50000J0D01*
G01*
X12370000Y-8945000D02*
X12370000Y-9055000D01*
X12315000Y-9000000D02*
X12425000Y-9000000D01*
X12370000Y-9395000D02*
X12370000Y-9505000D01*
X12315000Y-9450000D02*
X12425000Y-9450000D01*
X12370000Y-13895000D02*
X12370000Y-14005000D01*
X12315000Y-13950000D02*
X12425000Y-13950000D01*
X12370000Y-14345000D02*
X12370000Y-14455000D01*
X12315000Y-14400000D02*
X12425000Y-14400000D01*
X13020000Y-8945000D02*
X13020000Y-9055000D01*
X12965000Y-9000000D02*
X13075000Y-9000000D01*
X13020000Y-9395000D02*
X13020000Y-9505000D01*
X12965000Y-9450000D02*
X13075000Y-9450000D01*
X13020000Y-13895000D02*
X13020000Y-14005000D01*
X12965000Y-13950000D02*
X13075000Y-13950000D01*
X13020000Y-14345000D02*
X13020000Y-14455000D01*
X12965000Y-14400000D02*
X13075000Y-14400000D01*
X17420000Y-8945000D02*
X17420000Y-9055000D01*
X17365000Y-9000000D02*
X17475000Y-9000000D01*
X17420000Y-9395000D02*
X17420000Y-9505000D01*
X17365000Y-9450000D02*
X17475000Y-9450000D01*
X17420000Y-13895000D02*
X17420000Y-14005000D01*
X17365000Y-13950000D02*
X17475000Y-13950000D01*
X17420000Y-14345000D02*
X17420000Y-14455000D01*
X17365000Y-14400000D02*
X17475000Y-14400000D01*
X18070000Y-8945000D02*
X18070000Y-9055000D01*
X18015000Y-9000000D02*
X18125000Y-9000000D01*
X18070000Y-9395000D02*
X18070000Y-9505000D01*
X18015000Y-9450000D02*
X18125000Y-9450000D01*
X18070000Y-13895000D02*
X18070000Y-14005000D01*
X18015000Y-13950000D02*
X18125000Y-13950000D01*
X18070000Y-14345000D02*
X18070000Y-14455000D01*
X18015000Y-14400000D02*
X18125000Y-14400000D01*
D13*
X12383928Y-15123214D02*
X12383928Y-14823214D01*
X12455357Y-14823214D01*
X12498214Y-14837500D01*
X12526786Y-14866071D01*
X12541071Y-14894643D01*
X12555357Y-14951786D01*
X12555357Y-14994643D01*
X12541071Y-15051786D01*
X12526786Y-15080357D01*
X12498214Y-15108929D01*
X12455357Y-15123214D01*
X12383928Y-15123214D01*
X12683928Y-15123214D02*
X12683928Y-14923214D01*
X12683928Y-14980357D02*
X12698214Y-14951786D01*
X12712500Y-14937500D01*
X12741071Y-14923214D01*
X12769643Y-14923214D01*
X12869643Y-15123214D02*
X12869643Y-14923214D01*
X12869643Y-14823214D02*
X12855357Y-14837500D01*
X12869643Y-14851786D01*
X12883928Y-14837500D01*
X12869643Y-14823214D01*
X12869643Y-14851786D01*
X13055357Y-15123214D02*
X13026786Y-15108929D01*
X13012500Y-15080357D01*
X13012500Y-14823214D01*
X13212500Y-15123214D02*
X13183928Y-15108929D01*
X13169643Y-15080357D01*
X13169643Y-14823214D01*
X13555357Y-15123214D02*
X13555357Y-14823214D01*
X13655357Y-15037500D01*
X13755357Y-14823214D01*
X13755357Y-15123214D01*
X14026786Y-15123214D02*
X14026786Y-14966071D01*
X14012500Y-14937500D01*
X13983928Y-14923214D01*
X13926786Y-14923214D01*
X13898214Y-14937500D01*
X14026786Y-15108929D02*
X13998214Y-15123214D01*
X13926786Y-15123214D01*
X13898214Y-15108929D01*
X13883928Y-15080357D01*
X13883928Y-15051786D01*
X13898214Y-15023214D01*
X13926786Y-15008929D01*
X13998214Y-15008929D01*
X14026786Y-14994643D01*
X14169643Y-14923214D02*
X14169643Y-15223214D01*
X14169643Y-14937500D02*
X14198214Y-14923214D01*
X14255357Y-14923214D01*
X14283928Y-14937500D01*
X14298214Y-14951786D01*
X14312500Y-14980357D01*
X14312500Y-15066071D01*
X14298214Y-15094643D01*
X14283928Y-15108929D01*
X14255357Y-15123214D01*
X14198214Y-15123214D01*
X14169643Y-15108929D01*
X14441071Y-15094643D02*
X14455357Y-15108929D01*
X14441071Y-15123214D01*
X14426786Y-15108929D01*
X14441071Y-15094643D01*
X14441071Y-15123214D01*
X14441071Y-14937500D02*
X14455357Y-14951786D01*
X14441071Y-14966071D01*
X14426786Y-14951786D01*
X14441071Y-14937500D01*
X14441071Y-14966071D01*
X12032500Y-15577500D02*
X12112500Y-15657500D01*
X12112500Y-15577500D02*
X12032500Y-15657500D01*
X12441071Y-15453214D02*
X12469643Y-15453214D01*
X12498214Y-15467500D01*
X12512500Y-15481786D01*
X12526786Y-15510357D01*
X12541071Y-15567500D01*
X12541071Y-15638929D01*
X12526786Y-15696071D01*
X12512500Y-15724643D01*
X12498214Y-15738929D01*
X12469643Y-15753214D01*
X12441071Y-15753214D01*
X12412500Y-15738929D01*
X12398214Y-15724643D01*
X12383928Y-15696071D01*
X12369643Y-15638929D01*
X12369643Y-15567500D01*
X12383928Y-15510357D01*
X12398214Y-15481786D01*
X12412500Y-15467500D01*
X12441071Y-15453214D01*
X12669643Y-15724643D02*
X12683928Y-15738929D01*
X12669643Y-15753214D01*
X12655357Y-15738929D01*
X12669643Y-15724643D01*
X12669643Y-15753214D01*
X12855357Y-15581786D02*
X12826786Y-15567500D01*
X12812500Y-15553214D01*
X12798214Y-15524643D01*
X12798214Y-15510357D01*
X12812500Y-15481786D01*
X12826786Y-15467500D01*
X12855357Y-15453214D01*
X12912500Y-15453214D01*
X12941071Y-15467500D01*
X12955357Y-15481786D01*
X12969643Y-15510357D01*
X12969643Y-15524643D01*
X12955357Y-15553214D01*
X12941071Y-15567500D01*
X12912500Y-15581786D01*
X12855357Y-15581786D01*
X12826786Y-15596071D01*
X12812500Y-15610357D01*
X12798214Y-15638929D01*
X12798214Y-15696071D01*
X12812500Y-15724643D01*
X12826786Y-15738929D01*
X12855357Y-15753214D01*
X12912500Y-15753214D01*
X12941071Y-15738929D01*
X12955357Y-15724643D01*
X12969643Y-15696071D01*
X12969643Y-15638929D01*
X12955357Y-15610357D01*
X12941071Y-15596071D01*
X12912500Y-15581786D01*
X13155357Y-15453214D02*
X13183928Y-15453214D01*
X13212500Y-15467500D01*
X13226786Y-15481786D01*
X13241071Y-15510357D01*
X13255357Y-15567500D01*
X13255357Y-15638929D01*
X13241071Y-15696071D01*
X13226786Y-15724643D01*
X13212500Y-15738929D01*
X13183928Y-15753214D01*
X13155357Y-15753214D01*
X13126786Y-15738929D01*
X13112500Y-15724643D01*
X13098214Y-15696071D01*
X13083928Y-15638929D01*
X13083928Y-15567500D01*
X13098214Y-15510357D01*
X13112500Y-15481786D01*
X13126786Y-15467500D01*
X13155357Y-15453214D01*
X13383928Y-15753214D02*
X13383928Y-15553214D01*
X13383928Y-15581786D02*
X13398214Y-15567500D01*
X13426786Y-15553214D01*
X13469643Y-15553214D01*
X13498214Y-15567500D01*
X13512500Y-15596071D01*
X13512500Y-15753214D01*
X13512500Y-15596071D02*
X13526786Y-15567500D01*
X13555357Y-15553214D01*
X13598214Y-15553214D01*
X13626786Y-15567500D01*
X13641071Y-15596071D01*
X13641071Y-15753214D01*
X13783928Y-15753214D02*
X13783928Y-15553214D01*
X13783928Y-15581786D02*
X13798214Y-15567500D01*
X13826786Y-15553214D01*
X13869643Y-15553214D01*
X13898214Y-15567500D01*
X13912500Y-15596071D01*
X13912500Y-15753214D01*
X13912500Y-15596071D02*
X13926786Y-15567500D01*
X13955357Y-15553214D01*
X13998214Y-15553214D01*
X14026786Y-15567500D01*
X14041071Y-15596071D01*
X14041071Y-15753214D01*
X14626786Y-15438929D02*
X14369643Y-15824643D01*
X15012500Y-15453214D02*
X15041071Y-15453214D01*
X15069643Y-15467500D01*
X15083928Y-15481786D01*
X15098214Y-15510357D01*
X15112500Y-15567500D01*
X15112500Y-15638929D01*
X15098214Y-15696071D01*
X15083928Y-15724643D01*
X15069643Y-15738929D01*
X15041071Y-15753214D01*
X15012500Y-15753214D01*
X14983928Y-15738929D01*
X14969643Y-15724643D01*
X14955357Y-15696071D01*
X14941071Y-15638929D01*
X14941071Y-15567500D01*
X14955357Y-15510357D01*
X14969643Y-15481786D01*
X14983928Y-15467500D01*
X15012500Y-15453214D01*
X15241071Y-15724643D02*
X15255357Y-15738929D01*
X15241071Y-15753214D01*
X15226786Y-15738929D01*
X15241071Y-15724643D01*
X15241071Y-15753214D01*
X15441071Y-15453214D02*
X15469643Y-15453214D01*
X15498214Y-15467500D01*
X15512500Y-15481786D01*
X15526785Y-15510357D01*
X15541071Y-15567500D01*
X15541071Y-15638929D01*
X15526785Y-15696071D01*
X15512500Y-15724643D01*
X15498214Y-15738929D01*
X15469643Y-15753214D01*
X15441071Y-15753214D01*
X15412500Y-15738929D01*
X15398214Y-15724643D01*
X15383928Y-15696071D01*
X15369643Y-15638929D01*
X15369643Y-15567500D01*
X15383928Y-15510357D01*
X15398214Y-15481786D01*
X15412500Y-15467500D01*
X15441071Y-15453214D01*
X15641071Y-15453214D02*
X15826785Y-15453214D01*
X15726785Y-15567500D01*
X15769643Y-15567500D01*
X15798214Y-15581786D01*
X15812500Y-15596071D01*
X15826785Y-15624643D01*
X15826785Y-15696071D01*
X15812500Y-15724643D01*
X15798214Y-15738929D01*
X15769643Y-15753214D01*
X15683928Y-15753214D01*
X15655357Y-15738929D01*
X15641071Y-15724643D01*
X16112500Y-15753214D02*
X15941071Y-15753214D01*
X16026785Y-15753214D02*
X16026785Y-15453214D01*
X15998214Y-15496071D01*
X15969643Y-15524643D01*
X15941071Y-15538929D01*
X16226786Y-15453214D02*
X16226786Y-15510357D01*
X16341071Y-15453214D02*
X16341071Y-15510357D01*
X16783928Y-15867500D02*
X16769643Y-15853214D01*
X16741071Y-15810357D01*
X16726785Y-15781786D01*
X16712500Y-15738929D01*
X16698214Y-15667500D01*
X16698214Y-15610357D01*
X16712500Y-15538929D01*
X16726785Y-15496071D01*
X16741071Y-15467500D01*
X16769643Y-15424643D01*
X16783928Y-15410357D01*
X17055357Y-15753214D02*
X16883928Y-15753214D01*
X16969643Y-15753214D02*
X16969643Y-15453214D01*
X16941071Y-15496071D01*
X16912500Y-15524643D01*
X16883928Y-15538929D01*
X17312500Y-15553214D02*
X17312500Y-15753214D01*
X17241071Y-15438929D02*
X17169643Y-15653214D01*
X17355357Y-15653214D01*
X17698214Y-15753214D02*
X17698214Y-15453214D01*
X17826786Y-15753214D02*
X17826786Y-15596071D01*
X17812500Y-15567500D01*
X17783928Y-15553214D01*
X17741071Y-15553214D01*
X17712500Y-15567500D01*
X17698214Y-15581786D01*
X18012500Y-15753214D02*
X17983928Y-15738929D01*
X17969643Y-15724643D01*
X17955357Y-15696071D01*
X17955357Y-15610357D01*
X17969643Y-15581786D01*
X17983928Y-15567500D01*
X18012500Y-15553214D01*
X18055357Y-15553214D01*
X18083928Y-15567500D01*
X18098214Y-15581786D01*
X18112500Y-15610357D01*
X18112500Y-15696071D01*
X18098214Y-15724643D01*
X18083928Y-15738929D01*
X18055357Y-15753214D01*
X18012500Y-15753214D01*
X18283928Y-15753214D02*
X18255357Y-15738929D01*
X18241071Y-15710357D01*
X18241071Y-15453214D01*
X18512500Y-15738929D02*
X18483929Y-15753214D01*
X18426786Y-15753214D01*
X18398214Y-15738929D01*
X18383929Y-15710357D01*
X18383929Y-15596071D01*
X18398214Y-15567500D01*
X18426786Y-15553214D01*
X18483929Y-15553214D01*
X18512500Y-15567500D01*
X18526786Y-15596071D01*
X18526786Y-15624643D01*
X18383929Y-15653214D01*
X18641071Y-15738929D02*
X18669643Y-15753214D01*
X18726786Y-15753214D01*
X18755357Y-15738929D01*
X18769643Y-15710357D01*
X18769643Y-15696071D01*
X18755357Y-15667500D01*
X18726786Y-15653214D01*
X18683929Y-15653214D01*
X18655357Y-15638929D01*
X18641071Y-15610357D01*
X18641071Y-15596071D01*
X18655357Y-15567500D01*
X18683929Y-15553214D01*
X18726786Y-15553214D01*
X18755357Y-15567500D01*
X18869643Y-15867500D02*
X18883929Y-15853214D01*
X18912500Y-15810357D01*
X18926786Y-15781786D01*
X18941071Y-15738929D01*
X18955357Y-15667500D01*
X18955357Y-15610357D01*
X18941071Y-15538929D01*
X18926786Y-15496071D01*
X18912500Y-15467500D01*
X18883929Y-15424643D01*
X18869643Y-15410357D01*
X12112500Y-16013500D02*
G75*
G03X12112500Y-16013500I-50000J0D01*
G01*
X12541071Y-16149214D02*
X12369643Y-16149214D01*
X12455357Y-16149214D02*
X12455357Y-15849214D01*
X12426786Y-15892071D01*
X12398214Y-15920643D01*
X12369643Y-15934929D01*
X12669643Y-16120643D02*
X12683928Y-16134929D01*
X12669643Y-16149214D01*
X12655357Y-16134929D01*
X12669643Y-16120643D01*
X12669643Y-16149214D01*
X12869643Y-15849214D02*
X12898214Y-15849214D01*
X12926786Y-15863500D01*
X12941071Y-15877786D01*
X12955357Y-15906357D01*
X12969643Y-15963500D01*
X12969643Y-16034929D01*
X12955357Y-16092071D01*
X12941071Y-16120643D01*
X12926786Y-16134929D01*
X12898214Y-16149214D01*
X12869643Y-16149214D01*
X12841071Y-16134929D01*
X12826786Y-16120643D01*
X12812500Y-16092071D01*
X12798214Y-16034929D01*
X12798214Y-15963500D01*
X12812500Y-15906357D01*
X12826786Y-15877786D01*
X12841071Y-15863500D01*
X12869643Y-15849214D01*
X13155357Y-15849214D02*
X13183928Y-15849214D01*
X13212500Y-15863500D01*
X13226786Y-15877786D01*
X13241071Y-15906357D01*
X13255357Y-15963500D01*
X13255357Y-16034929D01*
X13241071Y-16092071D01*
X13226786Y-16120643D01*
X13212500Y-16134929D01*
X13183928Y-16149214D01*
X13155357Y-16149214D01*
X13126786Y-16134929D01*
X13112500Y-16120643D01*
X13098214Y-16092071D01*
X13083928Y-16034929D01*
X13083928Y-15963500D01*
X13098214Y-15906357D01*
X13112500Y-15877786D01*
X13126786Y-15863500D01*
X13155357Y-15849214D01*
X13383928Y-16149214D02*
X13383928Y-15949214D01*
X13383928Y-15977786D02*
X13398214Y-15963500D01*
X13426786Y-15949214D01*
X13469643Y-15949214D01*
X13498214Y-15963500D01*
X13512500Y-15992071D01*
X13512500Y-16149214D01*
X13512500Y-15992071D02*
X13526786Y-15963500D01*
X13555357Y-15949214D01*
X13598214Y-15949214D01*
X13626786Y-15963500D01*
X13641071Y-15992071D01*
X13641071Y-16149214D01*
X13783928Y-16149214D02*
X13783928Y-15949214D01*
X13783928Y-15977786D02*
X13798214Y-15963500D01*
X13826786Y-15949214D01*
X13869643Y-15949214D01*
X13898214Y-15963500D01*
X13912500Y-15992071D01*
X13912500Y-16149214D01*
X13912500Y-15992071D02*
X13926786Y-15963500D01*
X13955357Y-15949214D01*
X13998214Y-15949214D01*
X14026786Y-15963500D01*
X14041071Y-15992071D01*
X14041071Y-16149214D01*
X14626786Y-15834929D02*
X14369643Y-16220643D01*
X15012500Y-15849214D02*
X15041071Y-15849214D01*
X15069643Y-15863500D01*
X15083928Y-15877786D01*
X15098214Y-15906357D01*
X15112500Y-15963500D01*
X15112500Y-16034929D01*
X15098214Y-16092071D01*
X15083928Y-16120643D01*
X15069643Y-16134929D01*
X15041071Y-16149214D01*
X15012500Y-16149214D01*
X14983928Y-16134929D01*
X14969643Y-16120643D01*
X14955357Y-16092071D01*
X14941071Y-16034929D01*
X14941071Y-15963500D01*
X14955357Y-15906357D01*
X14969643Y-15877786D01*
X14983928Y-15863500D01*
X15012500Y-15849214D01*
X15241071Y-16120643D02*
X15255357Y-16134929D01*
X15241071Y-16149214D01*
X15226786Y-16134929D01*
X15241071Y-16120643D01*
X15241071Y-16149214D01*
X15441071Y-15849214D02*
X15469643Y-15849214D01*
X15498214Y-15863500D01*
X15512500Y-15877786D01*
X15526785Y-15906357D01*
X15541071Y-15963500D01*
X15541071Y-16034929D01*
X15526785Y-16092071D01*
X15512500Y-16120643D01*
X15498214Y-16134929D01*
X15469643Y-16149214D01*
X15441071Y-16149214D01*
X15412500Y-16134929D01*
X15398214Y-16120643D01*
X15383928Y-16092071D01*
X15369643Y-16034929D01*
X15369643Y-15963500D01*
X15383928Y-15906357D01*
X15398214Y-15877786D01*
X15412500Y-15863500D01*
X15441071Y-15849214D01*
X15641071Y-15849214D02*
X15826785Y-15849214D01*
X15726785Y-15963500D01*
X15769643Y-15963500D01*
X15798214Y-15977786D01*
X15812500Y-15992071D01*
X15826785Y-16020643D01*
X15826785Y-16092071D01*
X15812500Y-16120643D01*
X15798214Y-16134929D01*
X15769643Y-16149214D01*
X15683928Y-16149214D01*
X15655357Y-16134929D01*
X15641071Y-16120643D01*
X15969643Y-16149214D02*
X16026785Y-16149214D01*
X16055357Y-16134929D01*
X16069643Y-16120643D01*
X16098214Y-16077786D01*
X16112500Y-16020643D01*
X16112500Y-15906357D01*
X16098214Y-15877786D01*
X16083928Y-15863500D01*
X16055357Y-15849214D01*
X15998214Y-15849214D01*
X15969643Y-15863500D01*
X15955357Y-15877786D01*
X15941071Y-15906357D01*
X15941071Y-15977786D01*
X15955357Y-16006357D01*
X15969643Y-16020643D01*
X15998214Y-16034929D01*
X16055357Y-16034929D01*
X16083928Y-16020643D01*
X16098214Y-16006357D01*
X16112500Y-15977786D01*
X16226786Y-15849214D02*
X16226786Y-15906357D01*
X16341071Y-15849214D02*
X16341071Y-15906357D01*
X16783928Y-16263500D02*
X16769643Y-16249214D01*
X16741071Y-16206357D01*
X16726785Y-16177786D01*
X16712500Y-16134929D01*
X16698214Y-16063500D01*
X16698214Y-16006357D01*
X16712500Y-15934929D01*
X16726785Y-15892071D01*
X16741071Y-15863500D01*
X16769643Y-15820643D01*
X16783928Y-15806357D01*
X16883928Y-15877786D02*
X16898214Y-15863500D01*
X16926786Y-15849214D01*
X16998214Y-15849214D01*
X17026786Y-15863500D01*
X17041071Y-15877786D01*
X17055357Y-15906357D01*
X17055357Y-15934929D01*
X17041071Y-15977786D01*
X16869643Y-16149214D01*
X17055357Y-16149214D01*
X17312500Y-15949214D02*
X17312500Y-16149214D01*
X17241071Y-15834929D02*
X17169643Y-16049214D01*
X17355357Y-16049214D01*
X17698214Y-16149214D02*
X17698214Y-15849214D01*
X17826786Y-16149214D02*
X17826786Y-15992071D01*
X17812500Y-15963500D01*
X17783928Y-15949214D01*
X17741071Y-15949214D01*
X17712500Y-15963500D01*
X17698214Y-15977786D01*
X18012500Y-16149214D02*
X17983928Y-16134929D01*
X17969643Y-16120643D01*
X17955357Y-16092071D01*
X17955357Y-16006357D01*
X17969643Y-15977786D01*
X17983928Y-15963500D01*
X18012500Y-15949214D01*
X18055357Y-15949214D01*
X18083928Y-15963500D01*
X18098214Y-15977786D01*
X18112500Y-16006357D01*
X18112500Y-16092071D01*
X18098214Y-16120643D01*
X18083928Y-16134929D01*
X18055357Y-16149214D01*
X18012500Y-16149214D01*
X18283928Y-16149214D02*
X18255357Y-16134929D01*
X18241071Y-16106357D01*
X18241071Y-15849214D01*
X18512500Y-16134929D02*
X18483929Y-16149214D01*
X18426786Y-16149214D01*
X18398214Y-16134929D01*
X18383929Y-16106357D01*
X18383929Y-15992071D01*
X18398214Y-15963500D01*
X18426786Y-15949214D01*
X18483929Y-15949214D01*
X18512500Y-15963500D01*
X18526786Y-15992071D01*
X18526786Y-16020643D01*
X18383929Y-16049214D01*
X18641071Y-16134929D02*
X18669643Y-16149214D01*
X18726786Y-16149214D01*
X18755357Y-16134929D01*
X18769643Y-16106357D01*
X18769643Y-16092071D01*
X18755357Y-16063500D01*
X18726786Y-16049214D01*
X18683929Y-16049214D01*
X18655357Y-16034929D01*
X18641071Y-16006357D01*
X18641071Y-15992071D01*
X18655357Y-15963500D01*
X18683929Y-15949214D01*
X18726786Y-15949214D01*
X18755357Y-15963500D01*
X18869643Y-16263500D02*
X18883929Y-16249214D01*
X18912500Y-16206357D01*
X18926786Y-16177786D01*
X18941071Y-16134929D01*
X18955357Y-16063500D01*
X18955357Y-16006357D01*
X18941071Y-15934929D01*
X18926786Y-15892071D01*
X18912500Y-15863500D01*
X18883929Y-15820643D01*
X18869643Y-15806357D01*
X12057500Y-16354500D02*
X12057500Y-16464500D01*
X12002500Y-16409500D02*
X12112500Y-16409500D01*
X12541071Y-16545214D02*
X12369643Y-16545214D01*
X12455357Y-16545214D02*
X12455357Y-16245214D01*
X12426786Y-16288071D01*
X12398214Y-16316643D01*
X12369643Y-16330929D01*
X12669643Y-16516643D02*
X12683928Y-16530929D01*
X12669643Y-16545214D01*
X12655357Y-16530929D01*
X12669643Y-16516643D01*
X12669643Y-16545214D01*
X12969643Y-16545214D02*
X12798214Y-16545214D01*
X12883928Y-16545214D02*
X12883928Y-16245214D01*
X12855357Y-16288071D01*
X12826786Y-16316643D01*
X12798214Y-16330929D01*
X13155357Y-16245214D02*
X13183928Y-16245214D01*
X13212500Y-16259500D01*
X13226786Y-16273786D01*
X13241071Y-16302357D01*
X13255357Y-16359500D01*
X13255357Y-16430929D01*
X13241071Y-16488071D01*
X13226786Y-16516643D01*
X13212500Y-16530929D01*
X13183928Y-16545214D01*
X13155357Y-16545214D01*
X13126786Y-16530929D01*
X13112500Y-16516643D01*
X13098214Y-16488071D01*
X13083928Y-16430929D01*
X13083928Y-16359500D01*
X13098214Y-16302357D01*
X13112500Y-16273786D01*
X13126786Y-16259500D01*
X13155357Y-16245214D01*
X13383928Y-16545214D02*
X13383928Y-16345214D01*
X13383928Y-16373786D02*
X13398214Y-16359500D01*
X13426786Y-16345214D01*
X13469643Y-16345214D01*
X13498214Y-16359500D01*
X13512500Y-16388071D01*
X13512500Y-16545214D01*
X13512500Y-16388071D02*
X13526786Y-16359500D01*
X13555357Y-16345214D01*
X13598214Y-16345214D01*
X13626786Y-16359500D01*
X13641071Y-16388071D01*
X13641071Y-16545214D01*
X13783928Y-16545214D02*
X13783928Y-16345214D01*
X13783928Y-16373786D02*
X13798214Y-16359500D01*
X13826786Y-16345214D01*
X13869643Y-16345214D01*
X13898214Y-16359500D01*
X13912500Y-16388071D01*
X13912500Y-16545214D01*
X13912500Y-16388071D02*
X13926786Y-16359500D01*
X13955357Y-16345214D01*
X13998214Y-16345214D01*
X14026786Y-16359500D01*
X14041071Y-16388071D01*
X14041071Y-16545214D01*
X14626786Y-16230929D02*
X14369643Y-16616643D01*
X15012500Y-16245214D02*
X15041071Y-16245214D01*
X15069643Y-16259500D01*
X15083928Y-16273786D01*
X15098214Y-16302357D01*
X15112500Y-16359500D01*
X15112500Y-16430929D01*
X15098214Y-16488071D01*
X15083928Y-16516643D01*
X15069643Y-16530929D01*
X15041071Y-16545214D01*
X15012500Y-16545214D01*
X14983928Y-16530929D01*
X14969643Y-16516643D01*
X14955357Y-16488071D01*
X14941071Y-16430929D01*
X14941071Y-16359500D01*
X14955357Y-16302357D01*
X14969643Y-16273786D01*
X14983928Y-16259500D01*
X15012500Y-16245214D01*
X15241071Y-16516643D02*
X15255357Y-16530929D01*
X15241071Y-16545214D01*
X15226786Y-16530929D01*
X15241071Y-16516643D01*
X15241071Y-16545214D01*
X15441071Y-16245214D02*
X15469643Y-16245214D01*
X15498214Y-16259500D01*
X15512500Y-16273786D01*
X15526785Y-16302357D01*
X15541071Y-16359500D01*
X15541071Y-16430929D01*
X15526785Y-16488071D01*
X15512500Y-16516643D01*
X15498214Y-16530929D01*
X15469643Y-16545214D01*
X15441071Y-16545214D01*
X15412500Y-16530929D01*
X15398214Y-16516643D01*
X15383928Y-16488071D01*
X15369643Y-16430929D01*
X15369643Y-16359500D01*
X15383928Y-16302357D01*
X15398214Y-16273786D01*
X15412500Y-16259500D01*
X15441071Y-16245214D01*
X15798214Y-16345214D02*
X15798214Y-16545214D01*
X15726785Y-16230929D02*
X15655357Y-16445214D01*
X15841071Y-16445214D01*
X15926785Y-16245214D02*
X16112500Y-16245214D01*
X16012500Y-16359500D01*
X16055357Y-16359500D01*
X16083928Y-16373786D01*
X16098214Y-16388071D01*
X16112500Y-16416643D01*
X16112500Y-16488071D01*
X16098214Y-16516643D01*
X16083928Y-16530929D01*
X16055357Y-16545214D01*
X15969643Y-16545214D01*
X15941071Y-16530929D01*
X15926785Y-16516643D01*
X16226786Y-16245214D02*
X16226786Y-16302357D01*
X16341071Y-16245214D02*
X16341071Y-16302357D01*
X16783928Y-16659500D02*
X16769643Y-16645214D01*
X16741071Y-16602357D01*
X16726785Y-16573786D01*
X16712500Y-16530929D01*
X16698214Y-16459500D01*
X16698214Y-16402357D01*
X16712500Y-16330929D01*
X16726785Y-16288071D01*
X16741071Y-16259500D01*
X16769643Y-16216643D01*
X16783928Y-16202357D01*
X17055357Y-16545214D02*
X16883928Y-16545214D01*
X16969643Y-16545214D02*
X16969643Y-16245214D01*
X16941071Y-16288071D01*
X16912500Y-16316643D01*
X16883928Y-16330929D01*
X17312500Y-16245214D02*
X17255357Y-16245214D01*
X17226786Y-16259500D01*
X17212500Y-16273786D01*
X17183928Y-16316643D01*
X17169643Y-16373786D01*
X17169643Y-16488071D01*
X17183928Y-16516643D01*
X17198214Y-16530929D01*
X17226786Y-16545214D01*
X17283928Y-16545214D01*
X17312500Y-16530929D01*
X17326786Y-16516643D01*
X17341071Y-16488071D01*
X17341071Y-16416643D01*
X17326786Y-16388071D01*
X17312500Y-16373786D01*
X17283928Y-16359500D01*
X17226786Y-16359500D01*
X17198214Y-16373786D01*
X17183928Y-16388071D01*
X17169643Y-16416643D01*
X17698214Y-16545214D02*
X17698214Y-16245214D01*
X17826786Y-16545214D02*
X17826786Y-16388071D01*
X17812500Y-16359500D01*
X17783928Y-16345214D01*
X17741071Y-16345214D01*
X17712500Y-16359500D01*
X17698214Y-16373786D01*
X18012500Y-16545214D02*
X17983928Y-16530929D01*
X17969643Y-16516643D01*
X17955357Y-16488071D01*
X17955357Y-16402357D01*
X17969643Y-16373786D01*
X17983928Y-16359500D01*
X18012500Y-16345214D01*
X18055357Y-16345214D01*
X18083928Y-16359500D01*
X18098214Y-16373786D01*
X18112500Y-16402357D01*
X18112500Y-16488071D01*
X18098214Y-16516643D01*
X18083928Y-16530929D01*
X18055357Y-16545214D01*
X18012500Y-16545214D01*
X18283928Y-16545214D02*
X18255357Y-16530929D01*
X18241071Y-16502357D01*
X18241071Y-16245214D01*
X18512500Y-16530929D02*
X18483929Y-16545214D01*
X18426786Y-16545214D01*
X18398214Y-16530929D01*
X18383929Y-16502357D01*
X18383929Y-16388071D01*
X18398214Y-16359500D01*
X18426786Y-16345214D01*
X18483929Y-16345214D01*
X18512500Y-16359500D01*
X18526786Y-16388071D01*
X18526786Y-16416643D01*
X18383929Y-16445214D01*
X18641071Y-16530929D02*
X18669643Y-16545214D01*
X18726786Y-16545214D01*
X18755357Y-16530929D01*
X18769643Y-16502357D01*
X18769643Y-16488071D01*
X18755357Y-16459500D01*
X18726786Y-16445214D01*
X18683929Y-16445214D01*
X18655357Y-16430929D01*
X18641071Y-16402357D01*
X18641071Y-16388071D01*
X18655357Y-16359500D01*
X18683929Y-16345214D01*
X18726786Y-16345214D01*
X18755357Y-16359500D01*
X18869643Y-16659500D02*
X18883929Y-16645214D01*
X18912500Y-16602357D01*
X18926786Y-16573786D01*
X18941071Y-16530929D01*
X18955357Y-16459500D01*
X18955357Y-16402357D01*
X18941071Y-16330929D01*
X18926786Y-16288071D01*
X18912500Y-16259500D01*
X18883929Y-16216643D01*
X18869643Y-16202357D01*
M02*
