G04 #@! TF.FileFunction,Copper,L1,Top,Signal*
%FSLAX46Y46*%
G04 Gerber Fmt 4.6, Leading zero omitted, Abs format (unit mm)*
G04 Created by KiCad (PCBNEW 4.0.6+dfsg1-1) date Mon Feb 19 16:16:26 2018*
%MOMM*%
%LPD*%
G01*
G04 APERTURE LIST*
%ADD10C,0.100000*%
%ADD11C,1.524000*%
%ADD12R,1.850000X1.850000*%
%ADD13C,1.850000*%
%ADD14R,1.600000X1.600000*%
%ADD15O,1.600000X1.600000*%
%ADD16C,2.000000*%
%ADD17C,0.250000*%
%ADD18C,0.254000*%
G04 APERTURE END LIST*
D10*
D11*
X157250000Y-122700000D03*
X169250000Y-122700000D03*
D12*
X146800000Y-95000000D03*
D13*
X149300000Y-95000000D03*
D14*
X142950000Y-138250000D03*
D15*
X135330000Y-130630000D03*
X142950000Y-135710000D03*
X135330000Y-133170000D03*
X142950000Y-133170000D03*
X135330000Y-135710000D03*
X142950000Y-130630000D03*
X135330000Y-138250000D03*
D16*
X134700000Y-93500000D03*
X134700000Y-89000000D03*
X141200000Y-93500000D03*
X141200000Y-89000000D03*
X175200000Y-93500000D03*
X175200000Y-89000000D03*
X181700000Y-93500000D03*
X181700000Y-89000000D03*
X175200000Y-146000000D03*
X175200000Y-141500000D03*
X181700000Y-146000000D03*
X181700000Y-141500000D03*
X134700000Y-146000000D03*
X134700000Y-141500000D03*
X141200000Y-146000000D03*
X141200000Y-141500000D03*
D12*
X175750000Y-103650000D03*
D13*
X175750000Y-106150000D03*
D12*
X175700000Y-117250000D03*
D13*
X175700000Y-119750000D03*
X175700000Y-122250000D03*
X175700000Y-124750000D03*
D11*
X151070000Y-126540000D03*
X151070000Y-124000000D03*
X151070000Y-121460000D03*
X151070000Y-118920000D03*
X151070000Y-116380000D03*
X151070000Y-113840000D03*
X151070000Y-111300000D03*
X151070000Y-108760000D03*
X135830000Y-126540000D03*
X135830000Y-124000000D03*
X135830000Y-121460000D03*
X135830000Y-118920000D03*
X135830000Y-116380000D03*
X135830000Y-113840000D03*
X135830000Y-111300000D03*
X135830000Y-108760000D03*
X144650000Y-104050000D03*
X142250000Y-104050000D03*
X147720000Y-142310000D03*
X147720000Y-134690000D03*
X147720000Y-131946800D03*
X147720000Y-145053200D03*
X170580000Y-131743600D03*
X170580000Y-145256400D03*
D17*
X170580000Y-122370000D02*
X175700000Y-117250000D01*
X170580000Y-131743600D02*
X170580000Y-122370000D01*
X173659400Y-121790600D02*
X175700000Y-119750000D01*
X173659400Y-142177000D02*
X173659400Y-121790600D01*
X170580000Y-145256400D02*
X173659400Y-142177000D01*
X157250000Y-114940000D02*
X157250000Y-122700000D01*
X151070000Y-108760000D02*
X157250000Y-114940000D01*
X135048600Y-134584700D02*
X135330000Y-134584700D01*
X134204700Y-133740800D02*
X135048600Y-134584700D01*
X134204700Y-93995300D02*
X134204700Y-133740800D01*
X134700000Y-93500000D02*
X134204700Y-93995300D01*
X135330000Y-135710000D02*
X135330000Y-134584700D01*
X141200000Y-93500000D02*
X175200000Y-93500000D01*
X142668700Y-131755300D02*
X142950000Y-131755300D01*
X141200000Y-133224000D02*
X142668700Y-131755300D01*
X141200000Y-141500000D02*
X141200000Y-133224000D01*
X142950000Y-130630000D02*
X142950000Y-131755300D01*
X134700000Y-141500000D02*
X141200000Y-141500000D01*
X149300000Y-116199800D02*
X149300000Y-95000000D01*
X150750200Y-117650000D02*
X149300000Y-116199800D01*
X151347400Y-117650000D02*
X150750200Y-117650000D01*
X152170800Y-118473400D02*
X151347400Y-117650000D01*
X152170800Y-120359200D02*
X152170800Y-118473400D01*
X151070000Y-121460000D02*
X152170800Y-120359200D01*
X147720000Y-97170300D02*
X146800000Y-96250300D01*
X147720000Y-131946800D02*
X147720000Y-97170300D01*
X146800000Y-95000000D02*
X146800000Y-96250300D01*
X146581600Y-143914800D02*
X147720000Y-145053200D01*
X146581600Y-140870000D02*
X146581600Y-143914800D01*
X149749900Y-137701700D02*
X146581600Y-140870000D01*
X149749900Y-120240100D02*
X149749900Y-137701700D01*
X151070000Y-118920000D02*
X149749900Y-120240100D01*
X161444200Y-117955800D02*
X175750000Y-103650000D01*
X161444200Y-128585800D02*
X161444200Y-117955800D01*
X147720000Y-142310000D02*
X161444200Y-128585800D01*
D18*
G36*
X139554092Y-88735461D02*
X139578144Y-89385460D01*
X139780613Y-89874264D01*
X140047468Y-89972927D01*
X141020395Y-89000000D01*
X141006253Y-88985858D01*
X141185858Y-88806253D01*
X141200000Y-88820395D01*
X141214143Y-88806253D01*
X141393748Y-88985858D01*
X141379605Y-89000000D01*
X142352532Y-89972927D01*
X142619387Y-89874264D01*
X142845908Y-89264539D01*
X142821856Y-88614540D01*
X142654290Y-88210000D01*
X173749308Y-88210000D01*
X173554092Y-88735461D01*
X173578144Y-89385460D01*
X173780613Y-89874264D01*
X174047468Y-89972927D01*
X175020395Y-89000000D01*
X175006253Y-88985858D01*
X175185858Y-88806253D01*
X175200000Y-88820395D01*
X175214143Y-88806253D01*
X175393748Y-88985858D01*
X175379605Y-89000000D01*
X176352532Y-89972927D01*
X176619387Y-89874264D01*
X176845908Y-89264539D01*
X176821856Y-88614540D01*
X176654290Y-88210000D01*
X180249308Y-88210000D01*
X180054092Y-88735461D01*
X180078144Y-89385460D01*
X180280613Y-89874264D01*
X180547468Y-89972927D01*
X181520395Y-89000000D01*
X181506253Y-88985858D01*
X181685858Y-88806253D01*
X181700000Y-88820395D01*
X181714143Y-88806253D01*
X181893748Y-88985858D01*
X181879605Y-89000000D01*
X181893748Y-89014143D01*
X181714143Y-89193748D01*
X181700000Y-89179605D01*
X180727073Y-90152532D01*
X180825736Y-90419387D01*
X181435461Y-90645908D01*
X182085460Y-90621856D01*
X182490000Y-90454290D01*
X182490000Y-92057684D01*
X182026648Y-91865284D01*
X181376205Y-91864716D01*
X180775057Y-92113106D01*
X180314722Y-92572637D01*
X180065284Y-93173352D01*
X180064716Y-93823795D01*
X180313106Y-94424943D01*
X180772637Y-94885278D01*
X181373352Y-95134716D01*
X182023795Y-95135284D01*
X182490000Y-94942651D01*
X182490000Y-140049308D01*
X181964539Y-139854092D01*
X181314540Y-139878144D01*
X180825736Y-140080613D01*
X180727073Y-140347468D01*
X181700000Y-141320395D01*
X181714143Y-141306253D01*
X181893748Y-141485858D01*
X181879605Y-141500000D01*
X181893748Y-141514143D01*
X181714143Y-141693748D01*
X181700000Y-141679605D01*
X180727073Y-142652532D01*
X180825736Y-142919387D01*
X181435461Y-143145908D01*
X182085460Y-143121856D01*
X182490000Y-142954290D01*
X182490000Y-144557684D01*
X182026648Y-144365284D01*
X181376205Y-144364716D01*
X180775057Y-144613106D01*
X180314722Y-145072637D01*
X180065284Y-145673352D01*
X180064716Y-146323795D01*
X180257349Y-146790000D01*
X176642316Y-146790000D01*
X176834716Y-146326648D01*
X176835284Y-145676205D01*
X176586894Y-145075057D01*
X176127363Y-144614722D01*
X175526648Y-144365284D01*
X174876205Y-144364716D01*
X174275057Y-144613106D01*
X173814722Y-145072637D01*
X173565284Y-145673352D01*
X173564716Y-146323795D01*
X173757349Y-146790000D01*
X142642316Y-146790000D01*
X142834716Y-146326648D01*
X142835284Y-145676205D01*
X142586894Y-145075057D01*
X142127363Y-144614722D01*
X141526648Y-144365284D01*
X140876205Y-144364716D01*
X140275057Y-144613106D01*
X139814722Y-145072637D01*
X139565284Y-145673352D01*
X139564716Y-146323795D01*
X139757349Y-146790000D01*
X136142316Y-146790000D01*
X136334716Y-146326648D01*
X136335284Y-145676205D01*
X136086894Y-145075057D01*
X135627363Y-144614722D01*
X135026648Y-144365284D01*
X134376205Y-144364716D01*
X133910000Y-144557349D01*
X133910000Y-142950692D01*
X134435461Y-143145908D01*
X135085460Y-143121856D01*
X135574264Y-142919387D01*
X135672927Y-142652532D01*
X140227073Y-142652532D01*
X140325736Y-142919387D01*
X140935461Y-143145908D01*
X141585460Y-143121856D01*
X142074264Y-142919387D01*
X142172927Y-142652532D01*
X141200000Y-141679605D01*
X140227073Y-142652532D01*
X135672927Y-142652532D01*
X134700000Y-141679605D01*
X134685858Y-141693748D01*
X134506253Y-141514143D01*
X134520395Y-141500000D01*
X134879605Y-141500000D01*
X135852532Y-142472927D01*
X136119387Y-142374264D01*
X136345908Y-141764539D01*
X136326331Y-141235461D01*
X139554092Y-141235461D01*
X139578144Y-141885460D01*
X139780613Y-142374264D01*
X140047468Y-142472927D01*
X141020395Y-141500000D01*
X141379605Y-141500000D01*
X142352532Y-142472927D01*
X142619387Y-142374264D01*
X142845908Y-141764539D01*
X142821856Y-141114540D01*
X142619387Y-140625736D01*
X142352532Y-140527073D01*
X141379605Y-141500000D01*
X141020395Y-141500000D01*
X140047468Y-140527073D01*
X139780613Y-140625736D01*
X139554092Y-141235461D01*
X136326331Y-141235461D01*
X136321856Y-141114540D01*
X136119387Y-140625736D01*
X135852532Y-140527073D01*
X134879605Y-141500000D01*
X134520395Y-141500000D01*
X134506253Y-141485858D01*
X134685858Y-141306253D01*
X134700000Y-141320395D01*
X135672927Y-140347468D01*
X140227073Y-140347468D01*
X141200000Y-141320395D01*
X142172927Y-140347468D01*
X142074264Y-140080613D01*
X141464539Y-139854092D01*
X140814540Y-139878144D01*
X140325736Y-140080613D01*
X140227073Y-140347468D01*
X135672927Y-140347468D01*
X135574264Y-140080613D01*
X134964539Y-139854092D01*
X134314540Y-139878144D01*
X133910000Y-140045710D01*
X133910000Y-138466744D01*
X133976120Y-138799151D01*
X134287189Y-139264698D01*
X134752736Y-139575767D01*
X135301887Y-139685000D01*
X135358113Y-139685000D01*
X135907264Y-139575767D01*
X136372811Y-139264698D01*
X136683880Y-138799151D01*
X136793113Y-138250000D01*
X136683880Y-137700849D01*
X136372811Y-137235302D01*
X135990725Y-136980000D01*
X136372811Y-136724698D01*
X136683880Y-136259151D01*
X136793113Y-135710000D01*
X136683880Y-135160849D01*
X136372811Y-134695302D01*
X136072022Y-134494321D01*
X136052947Y-134398424D01*
X136372811Y-134184698D01*
X136683880Y-133719151D01*
X136793113Y-133170000D01*
X141486887Y-133170000D01*
X141596120Y-133719151D01*
X141907189Y-134184698D01*
X142289275Y-134440000D01*
X141907189Y-134695302D01*
X141596120Y-135160849D01*
X141486887Y-135710000D01*
X141596120Y-136259151D01*
X141907189Y-136724698D01*
X142051465Y-136821101D01*
X141914683Y-136846838D01*
X141698559Y-136985910D01*
X141553569Y-137198110D01*
X141502560Y-137450000D01*
X141502560Y-139050000D01*
X141546838Y-139285317D01*
X141685910Y-139501441D01*
X141898110Y-139646431D01*
X142150000Y-139697440D01*
X143750000Y-139697440D01*
X143985317Y-139653162D01*
X144201441Y-139514090D01*
X144346431Y-139301890D01*
X144397440Y-139050000D01*
X144397440Y-137450000D01*
X144353162Y-137214683D01*
X144214090Y-136998559D01*
X144001890Y-136853569D01*
X143846911Y-136822185D01*
X143992811Y-136724698D01*
X144303880Y-136259151D01*
X144413113Y-135710000D01*
X144303880Y-135160849D01*
X143992811Y-134695302D01*
X143610725Y-134440000D01*
X143992811Y-134184698D01*
X144303880Y-133719151D01*
X144413113Y-133170000D01*
X144303880Y-132620849D01*
X143992811Y-132155302D01*
X143588297Y-131885014D01*
X143805134Y-131782389D01*
X144181041Y-131367423D01*
X144341904Y-130979039D01*
X144219915Y-130757000D01*
X143077000Y-130757000D01*
X143077000Y-130777000D01*
X142823000Y-130777000D01*
X142823000Y-130757000D01*
X141680085Y-130757000D01*
X141558096Y-130979039D01*
X141718959Y-131367423D01*
X142094866Y-131782389D01*
X142311703Y-131885014D01*
X141907189Y-132155302D01*
X141596120Y-132620849D01*
X141486887Y-133170000D01*
X136793113Y-133170000D01*
X136683880Y-132620849D01*
X136372811Y-132155302D01*
X135990725Y-131900000D01*
X136372811Y-131644698D01*
X136683880Y-131179151D01*
X136793113Y-130630000D01*
X136723685Y-130280961D01*
X141558096Y-130280961D01*
X141680085Y-130503000D01*
X142823000Y-130503000D01*
X142823000Y-129359371D01*
X143077000Y-129359371D01*
X143077000Y-130503000D01*
X144219915Y-130503000D01*
X144341904Y-130280961D01*
X144181041Y-129892577D01*
X143805134Y-129477611D01*
X143299041Y-129238086D01*
X143077000Y-129359371D01*
X142823000Y-129359371D01*
X142600959Y-129238086D01*
X142094866Y-129477611D01*
X141718959Y-129892577D01*
X141558096Y-130280961D01*
X136723685Y-130280961D01*
X136683880Y-130080849D01*
X136372811Y-129615302D01*
X135907264Y-129304233D01*
X135358113Y-129195000D01*
X135301887Y-129195000D01*
X134964700Y-129262071D01*
X134964700Y-127650572D01*
X135037630Y-127723629D01*
X135550900Y-127936757D01*
X136106661Y-127937242D01*
X136620303Y-127725010D01*
X137013629Y-127332370D01*
X137226757Y-126819100D01*
X137227242Y-126263339D01*
X137015010Y-125749697D01*
X136622370Y-125356371D01*
X136414488Y-125270051D01*
X136620303Y-125185010D01*
X137013629Y-124792370D01*
X137226757Y-124279100D01*
X137227242Y-123723339D01*
X137015010Y-123209697D01*
X136622370Y-122816371D01*
X136430273Y-122736605D01*
X136561143Y-122682397D01*
X136630608Y-122440213D01*
X135830000Y-121639605D01*
X135815858Y-121653748D01*
X135636253Y-121474143D01*
X135650395Y-121460000D01*
X136009605Y-121460000D01*
X136810213Y-122260608D01*
X137052397Y-122191143D01*
X137239144Y-121667698D01*
X137211362Y-121112632D01*
X137052397Y-120728857D01*
X136810213Y-120659392D01*
X136009605Y-121460000D01*
X135650395Y-121460000D01*
X135636253Y-121445858D01*
X135815858Y-121266253D01*
X135830000Y-121280395D01*
X136630608Y-120479787D01*
X136561143Y-120237603D01*
X136420682Y-120187491D01*
X136620303Y-120105010D01*
X137013629Y-119712370D01*
X137226757Y-119199100D01*
X137227242Y-118643339D01*
X137015010Y-118129697D01*
X136622370Y-117736371D01*
X136414488Y-117650051D01*
X136620303Y-117565010D01*
X137013629Y-117172370D01*
X137226757Y-116659100D01*
X137227242Y-116103339D01*
X137015010Y-115589697D01*
X136622370Y-115196371D01*
X136414488Y-115110051D01*
X136620303Y-115025010D01*
X137013629Y-114632370D01*
X137226757Y-114119100D01*
X137227242Y-113563339D01*
X137015010Y-113049697D01*
X136622370Y-112656371D01*
X136414488Y-112570051D01*
X136620303Y-112485010D01*
X137013629Y-112092370D01*
X137226757Y-111579100D01*
X137227242Y-111023339D01*
X137015010Y-110509697D01*
X136622370Y-110116371D01*
X136414488Y-110030051D01*
X136620303Y-109945010D01*
X137013629Y-109552370D01*
X137226757Y-109039100D01*
X137227242Y-108483339D01*
X137015010Y-107969697D01*
X136622370Y-107576371D01*
X136109100Y-107363243D01*
X135553339Y-107362758D01*
X135039697Y-107574990D01*
X134964700Y-107649856D01*
X134964700Y-104326661D01*
X140852758Y-104326661D01*
X141064990Y-104840303D01*
X141457630Y-105233629D01*
X141970900Y-105446757D01*
X142526661Y-105447242D01*
X143040303Y-105235010D01*
X143433629Y-104842370D01*
X143449776Y-104803483D01*
X143464990Y-104840303D01*
X143857630Y-105233629D01*
X144370900Y-105446757D01*
X144926661Y-105447242D01*
X145440303Y-105235010D01*
X145833629Y-104842370D01*
X146046757Y-104329100D01*
X146047242Y-103773339D01*
X145835010Y-103259697D01*
X145442370Y-102866371D01*
X144929100Y-102653243D01*
X144373339Y-102652758D01*
X143859697Y-102864990D01*
X143466371Y-103257630D01*
X143450224Y-103296517D01*
X143435010Y-103259697D01*
X143042370Y-102866371D01*
X142529100Y-102653243D01*
X141973339Y-102652758D01*
X141459697Y-102864990D01*
X141066371Y-103257630D01*
X140853243Y-103770900D01*
X140852758Y-104326661D01*
X134964700Y-104326661D01*
X134964700Y-95135232D01*
X135023795Y-95135284D01*
X135624943Y-94886894D01*
X136085278Y-94427363D01*
X136334716Y-93826648D01*
X136334718Y-93823795D01*
X139564716Y-93823795D01*
X139813106Y-94424943D01*
X140272637Y-94885278D01*
X140873352Y-95134716D01*
X141523795Y-95135284D01*
X142124943Y-94886894D01*
X142585278Y-94427363D01*
X142654773Y-94260000D01*
X145227560Y-94260000D01*
X145227560Y-95925000D01*
X145271838Y-96160317D01*
X145410910Y-96376441D01*
X145623110Y-96521431D01*
X145875000Y-96572440D01*
X146118767Y-96572440D01*
X146262599Y-96787701D01*
X146960000Y-97485102D01*
X146960000Y-130749269D01*
X146929697Y-130761790D01*
X146536371Y-131154430D01*
X146323243Y-131667700D01*
X146322758Y-132223461D01*
X146534990Y-132737103D01*
X146927630Y-133130429D01*
X147380797Y-133318600D01*
X146929697Y-133504990D01*
X146536371Y-133897630D01*
X146323243Y-134410900D01*
X146322758Y-134966661D01*
X146534990Y-135480303D01*
X146927630Y-135873629D01*
X147440900Y-136086757D01*
X147996661Y-136087242D01*
X148510303Y-135875010D01*
X148903629Y-135482370D01*
X148989900Y-135274606D01*
X148989900Y-137386898D01*
X146044199Y-140332599D01*
X145879452Y-140579161D01*
X145821600Y-140870000D01*
X145821600Y-143914800D01*
X145879452Y-144205639D01*
X146044199Y-144452201D01*
X146335817Y-144743819D01*
X146323243Y-144774100D01*
X146322758Y-145329861D01*
X146534990Y-145843503D01*
X146927630Y-146236829D01*
X147440900Y-146449957D01*
X147996661Y-146450442D01*
X148510303Y-146238210D01*
X148903629Y-145845570D01*
X149116757Y-145332300D01*
X149117242Y-144776539D01*
X148905010Y-144262897D01*
X148512370Y-143869571D01*
X148059203Y-143681400D01*
X148510303Y-143495010D01*
X148903629Y-143102370D01*
X149116757Y-142589100D01*
X149117242Y-142033339D01*
X149103857Y-142000945D01*
X161981601Y-129123201D01*
X162146348Y-128876639D01*
X162204200Y-128585800D01*
X162204200Y-122976661D01*
X167852758Y-122976661D01*
X168064990Y-123490303D01*
X168457630Y-123883629D01*
X168970900Y-124096757D01*
X169526661Y-124097242D01*
X169820000Y-123976037D01*
X169820000Y-130546069D01*
X169789697Y-130558590D01*
X169396371Y-130951230D01*
X169183243Y-131464500D01*
X169182758Y-132020261D01*
X169394990Y-132533903D01*
X169787630Y-132927229D01*
X170300900Y-133140357D01*
X170856661Y-133140842D01*
X171370303Y-132928610D01*
X171763629Y-132535970D01*
X171976757Y-132022700D01*
X171977242Y-131466939D01*
X171765010Y-130953297D01*
X171372370Y-130559971D01*
X171340000Y-130546530D01*
X171340000Y-122684802D01*
X174139882Y-119884920D01*
X174139730Y-120058942D01*
X174191343Y-120183855D01*
X173121999Y-121253199D01*
X172957252Y-121499761D01*
X172899400Y-121790600D01*
X172899400Y-141862198D01*
X170889381Y-143872217D01*
X170859100Y-143859643D01*
X170303339Y-143859158D01*
X169789697Y-144071390D01*
X169396371Y-144464030D01*
X169183243Y-144977300D01*
X169182758Y-145533061D01*
X169394990Y-146046703D01*
X169787630Y-146440029D01*
X170300900Y-146653157D01*
X170856661Y-146653642D01*
X171370303Y-146441410D01*
X171763629Y-146048770D01*
X171976757Y-145535500D01*
X171977242Y-144979739D01*
X171963857Y-144947345D01*
X174196801Y-142714401D01*
X174231016Y-142663195D01*
X174325736Y-142919387D01*
X174935461Y-143145908D01*
X175585460Y-143121856D01*
X176074264Y-142919387D01*
X176172927Y-142652532D01*
X175200000Y-141679605D01*
X175185858Y-141693748D01*
X175006253Y-141514143D01*
X175020395Y-141500000D01*
X175379605Y-141500000D01*
X176352532Y-142472927D01*
X176619387Y-142374264D01*
X176845908Y-141764539D01*
X176826331Y-141235461D01*
X180054092Y-141235461D01*
X180078144Y-141885460D01*
X180280613Y-142374264D01*
X180547468Y-142472927D01*
X181520395Y-141500000D01*
X180547468Y-140527073D01*
X180280613Y-140625736D01*
X180054092Y-141235461D01*
X176826331Y-141235461D01*
X176821856Y-141114540D01*
X176619387Y-140625736D01*
X176352532Y-140527073D01*
X175379605Y-141500000D01*
X175020395Y-141500000D01*
X175006253Y-141485858D01*
X175185858Y-141306253D01*
X175200000Y-141320395D01*
X176172927Y-140347468D01*
X176074264Y-140080613D01*
X175464539Y-139854092D01*
X174814540Y-139878144D01*
X174419400Y-140041816D01*
X174419400Y-125675264D01*
X174815177Y-126071732D01*
X175388336Y-126309728D01*
X176008942Y-126310270D01*
X176582514Y-126073275D01*
X177021732Y-125634823D01*
X177259728Y-125061664D01*
X177260270Y-124441058D01*
X177023275Y-123867486D01*
X176656174Y-123499744D01*
X177021732Y-123134823D01*
X177259728Y-122561664D01*
X177260270Y-121941058D01*
X177023275Y-121367486D01*
X176656174Y-120999744D01*
X177021732Y-120634823D01*
X177259728Y-120061664D01*
X177260270Y-119441058D01*
X177023275Y-118867486D01*
X176905246Y-118749251D01*
X177076441Y-118639090D01*
X177221431Y-118426890D01*
X177272440Y-118175000D01*
X177272440Y-116325000D01*
X177228162Y-116089683D01*
X177089090Y-115873559D01*
X176876890Y-115728569D01*
X176625000Y-115677560D01*
X174775000Y-115677560D01*
X174539683Y-115721838D01*
X174323559Y-115860910D01*
X174178569Y-116073110D01*
X174127560Y-116325000D01*
X174127560Y-117747638D01*
X170200460Y-121674738D01*
X170042370Y-121516371D01*
X169529100Y-121303243D01*
X168973339Y-121302758D01*
X168459697Y-121514990D01*
X168066371Y-121907630D01*
X167853243Y-122420900D01*
X167852758Y-122976661D01*
X162204200Y-122976661D01*
X162204200Y-118270602D01*
X174189882Y-106284920D01*
X174189730Y-106458942D01*
X174426725Y-107032514D01*
X174865177Y-107471732D01*
X175438336Y-107709728D01*
X176058942Y-107710270D01*
X176632514Y-107473275D01*
X177071732Y-107034823D01*
X177309728Y-106461664D01*
X177310270Y-105841058D01*
X177073275Y-105267486D01*
X176955246Y-105149251D01*
X177126441Y-105039090D01*
X177271431Y-104826890D01*
X177322440Y-104575000D01*
X177322440Y-102725000D01*
X177278162Y-102489683D01*
X177139090Y-102273559D01*
X176926890Y-102128569D01*
X176675000Y-102077560D01*
X174825000Y-102077560D01*
X174589683Y-102121838D01*
X174373559Y-102260910D01*
X174228569Y-102473110D01*
X174177560Y-102725000D01*
X174177560Y-104147638D01*
X160906799Y-117418399D01*
X160742052Y-117664961D01*
X160684200Y-117955800D01*
X160684200Y-128270998D01*
X148029381Y-140925817D01*
X147999100Y-140913243D01*
X147613496Y-140912906D01*
X150287301Y-138239101D01*
X150452048Y-137992539D01*
X150509900Y-137701700D01*
X150509900Y-127820076D01*
X150790900Y-127936757D01*
X151346661Y-127937242D01*
X151860303Y-127725010D01*
X152253629Y-127332370D01*
X152466757Y-126819100D01*
X152467242Y-126263339D01*
X152255010Y-125749697D01*
X151862370Y-125356371D01*
X151654488Y-125270051D01*
X151860303Y-125185010D01*
X152253629Y-124792370D01*
X152466757Y-124279100D01*
X152467242Y-123723339D01*
X152255010Y-123209697D01*
X151862370Y-122816371D01*
X151670273Y-122736605D01*
X151801143Y-122682397D01*
X151870608Y-122440213D01*
X151070000Y-121639605D01*
X151055858Y-121653748D01*
X150876253Y-121474143D01*
X150890395Y-121460000D01*
X151249605Y-121460000D01*
X152050213Y-122260608D01*
X152292397Y-122191143D01*
X152479144Y-121667698D01*
X152451362Y-121112632D01*
X152292397Y-120728857D01*
X152050213Y-120659392D01*
X151249605Y-121460000D01*
X150890395Y-121460000D01*
X150876253Y-121445858D01*
X151055858Y-121266253D01*
X151070000Y-121280395D01*
X151870608Y-120479787D01*
X151801143Y-120237603D01*
X151660682Y-120187491D01*
X151860303Y-120105010D01*
X152253629Y-119712370D01*
X152466757Y-119199100D01*
X152467242Y-118643339D01*
X152255010Y-118129697D01*
X151862370Y-117736371D01*
X151654488Y-117650051D01*
X151860303Y-117565010D01*
X152253629Y-117172370D01*
X152466757Y-116659100D01*
X152467242Y-116103339D01*
X152255010Y-115589697D01*
X151862370Y-115196371D01*
X151654488Y-115110051D01*
X151860303Y-115025010D01*
X152253629Y-114632370D01*
X152466757Y-114119100D01*
X152467242Y-113563339D01*
X152255010Y-113049697D01*
X151862370Y-112656371D01*
X151654488Y-112570051D01*
X151860303Y-112485010D01*
X152253629Y-112092370D01*
X152466757Y-111579100D01*
X152467060Y-111231862D01*
X156490000Y-115254802D01*
X156490000Y-121502469D01*
X156459697Y-121514990D01*
X156066371Y-121907630D01*
X155853243Y-122420900D01*
X155852758Y-122976661D01*
X156064990Y-123490303D01*
X156457630Y-123883629D01*
X156970900Y-124096757D01*
X157526661Y-124097242D01*
X158040303Y-123885010D01*
X158433629Y-123492370D01*
X158646757Y-122979100D01*
X158647242Y-122423339D01*
X158435010Y-121909697D01*
X158042370Y-121516371D01*
X158010000Y-121502930D01*
X158010000Y-114940000D01*
X157952148Y-114649161D01*
X157787401Y-114402599D01*
X152454183Y-109069381D01*
X152466757Y-109039100D01*
X152467242Y-108483339D01*
X152255010Y-107969697D01*
X151862370Y-107576371D01*
X151349100Y-107363243D01*
X150793339Y-107362758D01*
X150279697Y-107574990D01*
X149886371Y-107967630D01*
X149673243Y-108480900D01*
X149672758Y-109036661D01*
X149884990Y-109550303D01*
X150277630Y-109943629D01*
X150485512Y-110029949D01*
X150279697Y-110114990D01*
X149886371Y-110507630D01*
X149673243Y-111020900D01*
X149672758Y-111576661D01*
X149884990Y-112090303D01*
X150277630Y-112483629D01*
X150485512Y-112569949D01*
X150279697Y-112654990D01*
X149886371Y-113047630D01*
X149673243Y-113560900D01*
X149672758Y-114116661D01*
X149884990Y-114630303D01*
X150277630Y-115023629D01*
X150485512Y-115109949D01*
X150279697Y-115194990D01*
X149886371Y-115587630D01*
X149673243Y-116100900D01*
X149672758Y-116656661D01*
X149884990Y-117170303D01*
X150277630Y-117563629D01*
X150485512Y-117649949D01*
X150279697Y-117734990D01*
X149886371Y-118127630D01*
X149673243Y-118640900D01*
X149672758Y-119196661D01*
X149686143Y-119229055D01*
X149212499Y-119702699D01*
X149047752Y-119949261D01*
X148989900Y-120240100D01*
X148989900Y-131361947D01*
X148905010Y-131156497D01*
X148512370Y-130763171D01*
X148480000Y-130749730D01*
X148480000Y-97170300D01*
X148422148Y-96879461D01*
X148422148Y-96879460D01*
X148257401Y-96632899D01*
X148077353Y-96452851D01*
X148176441Y-96389090D01*
X148321431Y-96176890D01*
X148326183Y-96153425D01*
X148381350Y-96098258D01*
X148470821Y-96357332D01*
X149053368Y-96571325D01*
X149673461Y-96546097D01*
X150129179Y-96357332D01*
X150218651Y-96098256D01*
X149300000Y-95179605D01*
X149285858Y-95193748D01*
X149106253Y-95014143D01*
X149120395Y-95000000D01*
X149106253Y-94985858D01*
X149285858Y-94806253D01*
X149300000Y-94820395D01*
X149314143Y-94806253D01*
X149493748Y-94985858D01*
X149479605Y-95000000D01*
X150398256Y-95918651D01*
X150657332Y-95829179D01*
X150871325Y-95246632D01*
X150846097Y-94626539D01*
X150694271Y-94260000D01*
X173744953Y-94260000D01*
X173813106Y-94424943D01*
X174272637Y-94885278D01*
X174873352Y-95134716D01*
X175523795Y-95135284D01*
X176124943Y-94886894D01*
X176585278Y-94427363D01*
X176834716Y-93826648D01*
X176835284Y-93176205D01*
X176586894Y-92575057D01*
X176127363Y-92114722D01*
X175526648Y-91865284D01*
X174876205Y-91864716D01*
X174275057Y-92113106D01*
X173814722Y-92572637D01*
X173745227Y-92740000D01*
X142655047Y-92740000D01*
X142586894Y-92575057D01*
X142127363Y-92114722D01*
X141526648Y-91865284D01*
X140876205Y-91864716D01*
X140275057Y-92113106D01*
X139814722Y-92572637D01*
X139565284Y-93173352D01*
X139564716Y-93823795D01*
X136334718Y-93823795D01*
X136335284Y-93176205D01*
X136086894Y-92575057D01*
X135627363Y-92114722D01*
X135026648Y-91865284D01*
X134376205Y-91864716D01*
X133910000Y-92057349D01*
X133910000Y-90450692D01*
X134435461Y-90645908D01*
X135085460Y-90621856D01*
X135574264Y-90419387D01*
X135672927Y-90152532D01*
X140227073Y-90152532D01*
X140325736Y-90419387D01*
X140935461Y-90645908D01*
X141585460Y-90621856D01*
X142074264Y-90419387D01*
X142172927Y-90152532D01*
X174227073Y-90152532D01*
X174325736Y-90419387D01*
X174935461Y-90645908D01*
X175585460Y-90621856D01*
X176074264Y-90419387D01*
X176172927Y-90152532D01*
X175200000Y-89179605D01*
X174227073Y-90152532D01*
X142172927Y-90152532D01*
X141200000Y-89179605D01*
X140227073Y-90152532D01*
X135672927Y-90152532D01*
X134700000Y-89179605D01*
X134685858Y-89193748D01*
X134506253Y-89014143D01*
X134520395Y-89000000D01*
X134506253Y-88985858D01*
X134685858Y-88806253D01*
X134700000Y-88820395D01*
X134714143Y-88806253D01*
X134893748Y-88985858D01*
X134879605Y-89000000D01*
X135852532Y-89972927D01*
X136119387Y-89874264D01*
X136345908Y-89264539D01*
X136321856Y-88614540D01*
X136154290Y-88210000D01*
X139749308Y-88210000D01*
X139554092Y-88735461D01*
X139554092Y-88735461D01*
G37*
X139554092Y-88735461D02*
X139578144Y-89385460D01*
X139780613Y-89874264D01*
X140047468Y-89972927D01*
X141020395Y-89000000D01*
X141006253Y-88985858D01*
X141185858Y-88806253D01*
X141200000Y-88820395D01*
X141214143Y-88806253D01*
X141393748Y-88985858D01*
X141379605Y-89000000D01*
X142352532Y-89972927D01*
X142619387Y-89874264D01*
X142845908Y-89264539D01*
X142821856Y-88614540D01*
X142654290Y-88210000D01*
X173749308Y-88210000D01*
X173554092Y-88735461D01*
X173578144Y-89385460D01*
X173780613Y-89874264D01*
X174047468Y-89972927D01*
X175020395Y-89000000D01*
X175006253Y-88985858D01*
X175185858Y-88806253D01*
X175200000Y-88820395D01*
X175214143Y-88806253D01*
X175393748Y-88985858D01*
X175379605Y-89000000D01*
X176352532Y-89972927D01*
X176619387Y-89874264D01*
X176845908Y-89264539D01*
X176821856Y-88614540D01*
X176654290Y-88210000D01*
X180249308Y-88210000D01*
X180054092Y-88735461D01*
X180078144Y-89385460D01*
X180280613Y-89874264D01*
X180547468Y-89972927D01*
X181520395Y-89000000D01*
X181506253Y-88985858D01*
X181685858Y-88806253D01*
X181700000Y-88820395D01*
X181714143Y-88806253D01*
X181893748Y-88985858D01*
X181879605Y-89000000D01*
X181893748Y-89014143D01*
X181714143Y-89193748D01*
X181700000Y-89179605D01*
X180727073Y-90152532D01*
X180825736Y-90419387D01*
X181435461Y-90645908D01*
X182085460Y-90621856D01*
X182490000Y-90454290D01*
X182490000Y-92057684D01*
X182026648Y-91865284D01*
X181376205Y-91864716D01*
X180775057Y-92113106D01*
X180314722Y-92572637D01*
X180065284Y-93173352D01*
X180064716Y-93823795D01*
X180313106Y-94424943D01*
X180772637Y-94885278D01*
X181373352Y-95134716D01*
X182023795Y-95135284D01*
X182490000Y-94942651D01*
X182490000Y-140049308D01*
X181964539Y-139854092D01*
X181314540Y-139878144D01*
X180825736Y-140080613D01*
X180727073Y-140347468D01*
X181700000Y-141320395D01*
X181714143Y-141306253D01*
X181893748Y-141485858D01*
X181879605Y-141500000D01*
X181893748Y-141514143D01*
X181714143Y-141693748D01*
X181700000Y-141679605D01*
X180727073Y-142652532D01*
X180825736Y-142919387D01*
X181435461Y-143145908D01*
X182085460Y-143121856D01*
X182490000Y-142954290D01*
X182490000Y-144557684D01*
X182026648Y-144365284D01*
X181376205Y-144364716D01*
X180775057Y-144613106D01*
X180314722Y-145072637D01*
X180065284Y-145673352D01*
X180064716Y-146323795D01*
X180257349Y-146790000D01*
X176642316Y-146790000D01*
X176834716Y-146326648D01*
X176835284Y-145676205D01*
X176586894Y-145075057D01*
X176127363Y-144614722D01*
X175526648Y-144365284D01*
X174876205Y-144364716D01*
X174275057Y-144613106D01*
X173814722Y-145072637D01*
X173565284Y-145673352D01*
X173564716Y-146323795D01*
X173757349Y-146790000D01*
X142642316Y-146790000D01*
X142834716Y-146326648D01*
X142835284Y-145676205D01*
X142586894Y-145075057D01*
X142127363Y-144614722D01*
X141526648Y-144365284D01*
X140876205Y-144364716D01*
X140275057Y-144613106D01*
X139814722Y-145072637D01*
X139565284Y-145673352D01*
X139564716Y-146323795D01*
X139757349Y-146790000D01*
X136142316Y-146790000D01*
X136334716Y-146326648D01*
X136335284Y-145676205D01*
X136086894Y-145075057D01*
X135627363Y-144614722D01*
X135026648Y-144365284D01*
X134376205Y-144364716D01*
X133910000Y-144557349D01*
X133910000Y-142950692D01*
X134435461Y-143145908D01*
X135085460Y-143121856D01*
X135574264Y-142919387D01*
X135672927Y-142652532D01*
X140227073Y-142652532D01*
X140325736Y-142919387D01*
X140935461Y-143145908D01*
X141585460Y-143121856D01*
X142074264Y-142919387D01*
X142172927Y-142652532D01*
X141200000Y-141679605D01*
X140227073Y-142652532D01*
X135672927Y-142652532D01*
X134700000Y-141679605D01*
X134685858Y-141693748D01*
X134506253Y-141514143D01*
X134520395Y-141500000D01*
X134879605Y-141500000D01*
X135852532Y-142472927D01*
X136119387Y-142374264D01*
X136345908Y-141764539D01*
X136326331Y-141235461D01*
X139554092Y-141235461D01*
X139578144Y-141885460D01*
X139780613Y-142374264D01*
X140047468Y-142472927D01*
X141020395Y-141500000D01*
X141379605Y-141500000D01*
X142352532Y-142472927D01*
X142619387Y-142374264D01*
X142845908Y-141764539D01*
X142821856Y-141114540D01*
X142619387Y-140625736D01*
X142352532Y-140527073D01*
X141379605Y-141500000D01*
X141020395Y-141500000D01*
X140047468Y-140527073D01*
X139780613Y-140625736D01*
X139554092Y-141235461D01*
X136326331Y-141235461D01*
X136321856Y-141114540D01*
X136119387Y-140625736D01*
X135852532Y-140527073D01*
X134879605Y-141500000D01*
X134520395Y-141500000D01*
X134506253Y-141485858D01*
X134685858Y-141306253D01*
X134700000Y-141320395D01*
X135672927Y-140347468D01*
X140227073Y-140347468D01*
X141200000Y-141320395D01*
X142172927Y-140347468D01*
X142074264Y-140080613D01*
X141464539Y-139854092D01*
X140814540Y-139878144D01*
X140325736Y-140080613D01*
X140227073Y-140347468D01*
X135672927Y-140347468D01*
X135574264Y-140080613D01*
X134964539Y-139854092D01*
X134314540Y-139878144D01*
X133910000Y-140045710D01*
X133910000Y-138466744D01*
X133976120Y-138799151D01*
X134287189Y-139264698D01*
X134752736Y-139575767D01*
X135301887Y-139685000D01*
X135358113Y-139685000D01*
X135907264Y-139575767D01*
X136372811Y-139264698D01*
X136683880Y-138799151D01*
X136793113Y-138250000D01*
X136683880Y-137700849D01*
X136372811Y-137235302D01*
X135990725Y-136980000D01*
X136372811Y-136724698D01*
X136683880Y-136259151D01*
X136793113Y-135710000D01*
X136683880Y-135160849D01*
X136372811Y-134695302D01*
X136072022Y-134494321D01*
X136052947Y-134398424D01*
X136372811Y-134184698D01*
X136683880Y-133719151D01*
X136793113Y-133170000D01*
X141486887Y-133170000D01*
X141596120Y-133719151D01*
X141907189Y-134184698D01*
X142289275Y-134440000D01*
X141907189Y-134695302D01*
X141596120Y-135160849D01*
X141486887Y-135710000D01*
X141596120Y-136259151D01*
X141907189Y-136724698D01*
X142051465Y-136821101D01*
X141914683Y-136846838D01*
X141698559Y-136985910D01*
X141553569Y-137198110D01*
X141502560Y-137450000D01*
X141502560Y-139050000D01*
X141546838Y-139285317D01*
X141685910Y-139501441D01*
X141898110Y-139646431D01*
X142150000Y-139697440D01*
X143750000Y-139697440D01*
X143985317Y-139653162D01*
X144201441Y-139514090D01*
X144346431Y-139301890D01*
X144397440Y-139050000D01*
X144397440Y-137450000D01*
X144353162Y-137214683D01*
X144214090Y-136998559D01*
X144001890Y-136853569D01*
X143846911Y-136822185D01*
X143992811Y-136724698D01*
X144303880Y-136259151D01*
X144413113Y-135710000D01*
X144303880Y-135160849D01*
X143992811Y-134695302D01*
X143610725Y-134440000D01*
X143992811Y-134184698D01*
X144303880Y-133719151D01*
X144413113Y-133170000D01*
X144303880Y-132620849D01*
X143992811Y-132155302D01*
X143588297Y-131885014D01*
X143805134Y-131782389D01*
X144181041Y-131367423D01*
X144341904Y-130979039D01*
X144219915Y-130757000D01*
X143077000Y-130757000D01*
X143077000Y-130777000D01*
X142823000Y-130777000D01*
X142823000Y-130757000D01*
X141680085Y-130757000D01*
X141558096Y-130979039D01*
X141718959Y-131367423D01*
X142094866Y-131782389D01*
X142311703Y-131885014D01*
X141907189Y-132155302D01*
X141596120Y-132620849D01*
X141486887Y-133170000D01*
X136793113Y-133170000D01*
X136683880Y-132620849D01*
X136372811Y-132155302D01*
X135990725Y-131900000D01*
X136372811Y-131644698D01*
X136683880Y-131179151D01*
X136793113Y-130630000D01*
X136723685Y-130280961D01*
X141558096Y-130280961D01*
X141680085Y-130503000D01*
X142823000Y-130503000D01*
X142823000Y-129359371D01*
X143077000Y-129359371D01*
X143077000Y-130503000D01*
X144219915Y-130503000D01*
X144341904Y-130280961D01*
X144181041Y-129892577D01*
X143805134Y-129477611D01*
X143299041Y-129238086D01*
X143077000Y-129359371D01*
X142823000Y-129359371D01*
X142600959Y-129238086D01*
X142094866Y-129477611D01*
X141718959Y-129892577D01*
X141558096Y-130280961D01*
X136723685Y-130280961D01*
X136683880Y-130080849D01*
X136372811Y-129615302D01*
X135907264Y-129304233D01*
X135358113Y-129195000D01*
X135301887Y-129195000D01*
X134964700Y-129262071D01*
X134964700Y-127650572D01*
X135037630Y-127723629D01*
X135550900Y-127936757D01*
X136106661Y-127937242D01*
X136620303Y-127725010D01*
X137013629Y-127332370D01*
X137226757Y-126819100D01*
X137227242Y-126263339D01*
X137015010Y-125749697D01*
X136622370Y-125356371D01*
X136414488Y-125270051D01*
X136620303Y-125185010D01*
X137013629Y-124792370D01*
X137226757Y-124279100D01*
X137227242Y-123723339D01*
X137015010Y-123209697D01*
X136622370Y-122816371D01*
X136430273Y-122736605D01*
X136561143Y-122682397D01*
X136630608Y-122440213D01*
X135830000Y-121639605D01*
X135815858Y-121653748D01*
X135636253Y-121474143D01*
X135650395Y-121460000D01*
X136009605Y-121460000D01*
X136810213Y-122260608D01*
X137052397Y-122191143D01*
X137239144Y-121667698D01*
X137211362Y-121112632D01*
X137052397Y-120728857D01*
X136810213Y-120659392D01*
X136009605Y-121460000D01*
X135650395Y-121460000D01*
X135636253Y-121445858D01*
X135815858Y-121266253D01*
X135830000Y-121280395D01*
X136630608Y-120479787D01*
X136561143Y-120237603D01*
X136420682Y-120187491D01*
X136620303Y-120105010D01*
X137013629Y-119712370D01*
X137226757Y-119199100D01*
X137227242Y-118643339D01*
X137015010Y-118129697D01*
X136622370Y-117736371D01*
X136414488Y-117650051D01*
X136620303Y-117565010D01*
X137013629Y-117172370D01*
X137226757Y-116659100D01*
X137227242Y-116103339D01*
X137015010Y-115589697D01*
X136622370Y-115196371D01*
X136414488Y-115110051D01*
X136620303Y-115025010D01*
X137013629Y-114632370D01*
X137226757Y-114119100D01*
X137227242Y-113563339D01*
X137015010Y-113049697D01*
X136622370Y-112656371D01*
X136414488Y-112570051D01*
X136620303Y-112485010D01*
X137013629Y-112092370D01*
X137226757Y-111579100D01*
X137227242Y-111023339D01*
X137015010Y-110509697D01*
X136622370Y-110116371D01*
X136414488Y-110030051D01*
X136620303Y-109945010D01*
X137013629Y-109552370D01*
X137226757Y-109039100D01*
X137227242Y-108483339D01*
X137015010Y-107969697D01*
X136622370Y-107576371D01*
X136109100Y-107363243D01*
X135553339Y-107362758D01*
X135039697Y-107574990D01*
X134964700Y-107649856D01*
X134964700Y-104326661D01*
X140852758Y-104326661D01*
X141064990Y-104840303D01*
X141457630Y-105233629D01*
X141970900Y-105446757D01*
X142526661Y-105447242D01*
X143040303Y-105235010D01*
X143433629Y-104842370D01*
X143449776Y-104803483D01*
X143464990Y-104840303D01*
X143857630Y-105233629D01*
X144370900Y-105446757D01*
X144926661Y-105447242D01*
X145440303Y-105235010D01*
X145833629Y-104842370D01*
X146046757Y-104329100D01*
X146047242Y-103773339D01*
X145835010Y-103259697D01*
X145442370Y-102866371D01*
X144929100Y-102653243D01*
X144373339Y-102652758D01*
X143859697Y-102864990D01*
X143466371Y-103257630D01*
X143450224Y-103296517D01*
X143435010Y-103259697D01*
X143042370Y-102866371D01*
X142529100Y-102653243D01*
X141973339Y-102652758D01*
X141459697Y-102864990D01*
X141066371Y-103257630D01*
X140853243Y-103770900D01*
X140852758Y-104326661D01*
X134964700Y-104326661D01*
X134964700Y-95135232D01*
X135023795Y-95135284D01*
X135624943Y-94886894D01*
X136085278Y-94427363D01*
X136334716Y-93826648D01*
X136334718Y-93823795D01*
X139564716Y-93823795D01*
X139813106Y-94424943D01*
X140272637Y-94885278D01*
X140873352Y-95134716D01*
X141523795Y-95135284D01*
X142124943Y-94886894D01*
X142585278Y-94427363D01*
X142654773Y-94260000D01*
X145227560Y-94260000D01*
X145227560Y-95925000D01*
X145271838Y-96160317D01*
X145410910Y-96376441D01*
X145623110Y-96521431D01*
X145875000Y-96572440D01*
X146118767Y-96572440D01*
X146262599Y-96787701D01*
X146960000Y-97485102D01*
X146960000Y-130749269D01*
X146929697Y-130761790D01*
X146536371Y-131154430D01*
X146323243Y-131667700D01*
X146322758Y-132223461D01*
X146534990Y-132737103D01*
X146927630Y-133130429D01*
X147380797Y-133318600D01*
X146929697Y-133504990D01*
X146536371Y-133897630D01*
X146323243Y-134410900D01*
X146322758Y-134966661D01*
X146534990Y-135480303D01*
X146927630Y-135873629D01*
X147440900Y-136086757D01*
X147996661Y-136087242D01*
X148510303Y-135875010D01*
X148903629Y-135482370D01*
X148989900Y-135274606D01*
X148989900Y-137386898D01*
X146044199Y-140332599D01*
X145879452Y-140579161D01*
X145821600Y-140870000D01*
X145821600Y-143914800D01*
X145879452Y-144205639D01*
X146044199Y-144452201D01*
X146335817Y-144743819D01*
X146323243Y-144774100D01*
X146322758Y-145329861D01*
X146534990Y-145843503D01*
X146927630Y-146236829D01*
X147440900Y-146449957D01*
X147996661Y-146450442D01*
X148510303Y-146238210D01*
X148903629Y-145845570D01*
X149116757Y-145332300D01*
X149117242Y-144776539D01*
X148905010Y-144262897D01*
X148512370Y-143869571D01*
X148059203Y-143681400D01*
X148510303Y-143495010D01*
X148903629Y-143102370D01*
X149116757Y-142589100D01*
X149117242Y-142033339D01*
X149103857Y-142000945D01*
X161981601Y-129123201D01*
X162146348Y-128876639D01*
X162204200Y-128585800D01*
X162204200Y-122976661D01*
X167852758Y-122976661D01*
X168064990Y-123490303D01*
X168457630Y-123883629D01*
X168970900Y-124096757D01*
X169526661Y-124097242D01*
X169820000Y-123976037D01*
X169820000Y-130546069D01*
X169789697Y-130558590D01*
X169396371Y-130951230D01*
X169183243Y-131464500D01*
X169182758Y-132020261D01*
X169394990Y-132533903D01*
X169787630Y-132927229D01*
X170300900Y-133140357D01*
X170856661Y-133140842D01*
X171370303Y-132928610D01*
X171763629Y-132535970D01*
X171976757Y-132022700D01*
X171977242Y-131466939D01*
X171765010Y-130953297D01*
X171372370Y-130559971D01*
X171340000Y-130546530D01*
X171340000Y-122684802D01*
X174139882Y-119884920D01*
X174139730Y-120058942D01*
X174191343Y-120183855D01*
X173121999Y-121253199D01*
X172957252Y-121499761D01*
X172899400Y-121790600D01*
X172899400Y-141862198D01*
X170889381Y-143872217D01*
X170859100Y-143859643D01*
X170303339Y-143859158D01*
X169789697Y-144071390D01*
X169396371Y-144464030D01*
X169183243Y-144977300D01*
X169182758Y-145533061D01*
X169394990Y-146046703D01*
X169787630Y-146440029D01*
X170300900Y-146653157D01*
X170856661Y-146653642D01*
X171370303Y-146441410D01*
X171763629Y-146048770D01*
X171976757Y-145535500D01*
X171977242Y-144979739D01*
X171963857Y-144947345D01*
X174196801Y-142714401D01*
X174231016Y-142663195D01*
X174325736Y-142919387D01*
X174935461Y-143145908D01*
X175585460Y-143121856D01*
X176074264Y-142919387D01*
X176172927Y-142652532D01*
X175200000Y-141679605D01*
X175185858Y-141693748D01*
X175006253Y-141514143D01*
X175020395Y-141500000D01*
X175379605Y-141500000D01*
X176352532Y-142472927D01*
X176619387Y-142374264D01*
X176845908Y-141764539D01*
X176826331Y-141235461D01*
X180054092Y-141235461D01*
X180078144Y-141885460D01*
X180280613Y-142374264D01*
X180547468Y-142472927D01*
X181520395Y-141500000D01*
X180547468Y-140527073D01*
X180280613Y-140625736D01*
X180054092Y-141235461D01*
X176826331Y-141235461D01*
X176821856Y-141114540D01*
X176619387Y-140625736D01*
X176352532Y-140527073D01*
X175379605Y-141500000D01*
X175020395Y-141500000D01*
X175006253Y-141485858D01*
X175185858Y-141306253D01*
X175200000Y-141320395D01*
X176172927Y-140347468D01*
X176074264Y-140080613D01*
X175464539Y-139854092D01*
X174814540Y-139878144D01*
X174419400Y-140041816D01*
X174419400Y-125675264D01*
X174815177Y-126071732D01*
X175388336Y-126309728D01*
X176008942Y-126310270D01*
X176582514Y-126073275D01*
X177021732Y-125634823D01*
X177259728Y-125061664D01*
X177260270Y-124441058D01*
X177023275Y-123867486D01*
X176656174Y-123499744D01*
X177021732Y-123134823D01*
X177259728Y-122561664D01*
X177260270Y-121941058D01*
X177023275Y-121367486D01*
X176656174Y-120999744D01*
X177021732Y-120634823D01*
X177259728Y-120061664D01*
X177260270Y-119441058D01*
X177023275Y-118867486D01*
X176905246Y-118749251D01*
X177076441Y-118639090D01*
X177221431Y-118426890D01*
X177272440Y-118175000D01*
X177272440Y-116325000D01*
X177228162Y-116089683D01*
X177089090Y-115873559D01*
X176876890Y-115728569D01*
X176625000Y-115677560D01*
X174775000Y-115677560D01*
X174539683Y-115721838D01*
X174323559Y-115860910D01*
X174178569Y-116073110D01*
X174127560Y-116325000D01*
X174127560Y-117747638D01*
X170200460Y-121674738D01*
X170042370Y-121516371D01*
X169529100Y-121303243D01*
X168973339Y-121302758D01*
X168459697Y-121514990D01*
X168066371Y-121907630D01*
X167853243Y-122420900D01*
X167852758Y-122976661D01*
X162204200Y-122976661D01*
X162204200Y-118270602D01*
X174189882Y-106284920D01*
X174189730Y-106458942D01*
X174426725Y-107032514D01*
X174865177Y-107471732D01*
X175438336Y-107709728D01*
X176058942Y-107710270D01*
X176632514Y-107473275D01*
X177071732Y-107034823D01*
X177309728Y-106461664D01*
X177310270Y-105841058D01*
X177073275Y-105267486D01*
X176955246Y-105149251D01*
X177126441Y-105039090D01*
X177271431Y-104826890D01*
X177322440Y-104575000D01*
X177322440Y-102725000D01*
X177278162Y-102489683D01*
X177139090Y-102273559D01*
X176926890Y-102128569D01*
X176675000Y-102077560D01*
X174825000Y-102077560D01*
X174589683Y-102121838D01*
X174373559Y-102260910D01*
X174228569Y-102473110D01*
X174177560Y-102725000D01*
X174177560Y-104147638D01*
X160906799Y-117418399D01*
X160742052Y-117664961D01*
X160684200Y-117955800D01*
X160684200Y-128270998D01*
X148029381Y-140925817D01*
X147999100Y-140913243D01*
X147613496Y-140912906D01*
X150287301Y-138239101D01*
X150452048Y-137992539D01*
X150509900Y-137701700D01*
X150509900Y-127820076D01*
X150790900Y-127936757D01*
X151346661Y-127937242D01*
X151860303Y-127725010D01*
X152253629Y-127332370D01*
X152466757Y-126819100D01*
X152467242Y-126263339D01*
X152255010Y-125749697D01*
X151862370Y-125356371D01*
X151654488Y-125270051D01*
X151860303Y-125185010D01*
X152253629Y-124792370D01*
X152466757Y-124279100D01*
X152467242Y-123723339D01*
X152255010Y-123209697D01*
X151862370Y-122816371D01*
X151670273Y-122736605D01*
X151801143Y-122682397D01*
X151870608Y-122440213D01*
X151070000Y-121639605D01*
X151055858Y-121653748D01*
X150876253Y-121474143D01*
X150890395Y-121460000D01*
X151249605Y-121460000D01*
X152050213Y-122260608D01*
X152292397Y-122191143D01*
X152479144Y-121667698D01*
X152451362Y-121112632D01*
X152292397Y-120728857D01*
X152050213Y-120659392D01*
X151249605Y-121460000D01*
X150890395Y-121460000D01*
X150876253Y-121445858D01*
X151055858Y-121266253D01*
X151070000Y-121280395D01*
X151870608Y-120479787D01*
X151801143Y-120237603D01*
X151660682Y-120187491D01*
X151860303Y-120105010D01*
X152253629Y-119712370D01*
X152466757Y-119199100D01*
X152467242Y-118643339D01*
X152255010Y-118129697D01*
X151862370Y-117736371D01*
X151654488Y-117650051D01*
X151860303Y-117565010D01*
X152253629Y-117172370D01*
X152466757Y-116659100D01*
X152467242Y-116103339D01*
X152255010Y-115589697D01*
X151862370Y-115196371D01*
X151654488Y-115110051D01*
X151860303Y-115025010D01*
X152253629Y-114632370D01*
X152466757Y-114119100D01*
X152467242Y-113563339D01*
X152255010Y-113049697D01*
X151862370Y-112656371D01*
X151654488Y-112570051D01*
X151860303Y-112485010D01*
X152253629Y-112092370D01*
X152466757Y-111579100D01*
X152467060Y-111231862D01*
X156490000Y-115254802D01*
X156490000Y-121502469D01*
X156459697Y-121514990D01*
X156066371Y-121907630D01*
X155853243Y-122420900D01*
X155852758Y-122976661D01*
X156064990Y-123490303D01*
X156457630Y-123883629D01*
X156970900Y-124096757D01*
X157526661Y-124097242D01*
X158040303Y-123885010D01*
X158433629Y-123492370D01*
X158646757Y-122979100D01*
X158647242Y-122423339D01*
X158435010Y-121909697D01*
X158042370Y-121516371D01*
X158010000Y-121502930D01*
X158010000Y-114940000D01*
X157952148Y-114649161D01*
X157787401Y-114402599D01*
X152454183Y-109069381D01*
X152466757Y-109039100D01*
X152467242Y-108483339D01*
X152255010Y-107969697D01*
X151862370Y-107576371D01*
X151349100Y-107363243D01*
X150793339Y-107362758D01*
X150279697Y-107574990D01*
X149886371Y-107967630D01*
X149673243Y-108480900D01*
X149672758Y-109036661D01*
X149884990Y-109550303D01*
X150277630Y-109943629D01*
X150485512Y-110029949D01*
X150279697Y-110114990D01*
X149886371Y-110507630D01*
X149673243Y-111020900D01*
X149672758Y-111576661D01*
X149884990Y-112090303D01*
X150277630Y-112483629D01*
X150485512Y-112569949D01*
X150279697Y-112654990D01*
X149886371Y-113047630D01*
X149673243Y-113560900D01*
X149672758Y-114116661D01*
X149884990Y-114630303D01*
X150277630Y-115023629D01*
X150485512Y-115109949D01*
X150279697Y-115194990D01*
X149886371Y-115587630D01*
X149673243Y-116100900D01*
X149672758Y-116656661D01*
X149884990Y-117170303D01*
X150277630Y-117563629D01*
X150485512Y-117649949D01*
X150279697Y-117734990D01*
X149886371Y-118127630D01*
X149673243Y-118640900D01*
X149672758Y-119196661D01*
X149686143Y-119229055D01*
X149212499Y-119702699D01*
X149047752Y-119949261D01*
X148989900Y-120240100D01*
X148989900Y-131361947D01*
X148905010Y-131156497D01*
X148512370Y-130763171D01*
X148480000Y-130749730D01*
X148480000Y-97170300D01*
X148422148Y-96879461D01*
X148422148Y-96879460D01*
X148257401Y-96632899D01*
X148077353Y-96452851D01*
X148176441Y-96389090D01*
X148321431Y-96176890D01*
X148326183Y-96153425D01*
X148381350Y-96098258D01*
X148470821Y-96357332D01*
X149053368Y-96571325D01*
X149673461Y-96546097D01*
X150129179Y-96357332D01*
X150218651Y-96098256D01*
X149300000Y-95179605D01*
X149285858Y-95193748D01*
X149106253Y-95014143D01*
X149120395Y-95000000D01*
X149106253Y-94985858D01*
X149285858Y-94806253D01*
X149300000Y-94820395D01*
X149314143Y-94806253D01*
X149493748Y-94985858D01*
X149479605Y-95000000D01*
X150398256Y-95918651D01*
X150657332Y-95829179D01*
X150871325Y-95246632D01*
X150846097Y-94626539D01*
X150694271Y-94260000D01*
X173744953Y-94260000D01*
X173813106Y-94424943D01*
X174272637Y-94885278D01*
X174873352Y-95134716D01*
X175523795Y-95135284D01*
X176124943Y-94886894D01*
X176585278Y-94427363D01*
X176834716Y-93826648D01*
X176835284Y-93176205D01*
X176586894Y-92575057D01*
X176127363Y-92114722D01*
X175526648Y-91865284D01*
X174876205Y-91864716D01*
X174275057Y-92113106D01*
X173814722Y-92572637D01*
X173745227Y-92740000D01*
X142655047Y-92740000D01*
X142586894Y-92575057D01*
X142127363Y-92114722D01*
X141526648Y-91865284D01*
X140876205Y-91864716D01*
X140275057Y-92113106D01*
X139814722Y-92572637D01*
X139565284Y-93173352D01*
X139564716Y-93823795D01*
X136334718Y-93823795D01*
X136335284Y-93176205D01*
X136086894Y-92575057D01*
X135627363Y-92114722D01*
X135026648Y-91865284D01*
X134376205Y-91864716D01*
X133910000Y-92057349D01*
X133910000Y-90450692D01*
X134435461Y-90645908D01*
X135085460Y-90621856D01*
X135574264Y-90419387D01*
X135672927Y-90152532D01*
X140227073Y-90152532D01*
X140325736Y-90419387D01*
X140935461Y-90645908D01*
X141585460Y-90621856D01*
X142074264Y-90419387D01*
X142172927Y-90152532D01*
X174227073Y-90152532D01*
X174325736Y-90419387D01*
X174935461Y-90645908D01*
X175585460Y-90621856D01*
X176074264Y-90419387D01*
X176172927Y-90152532D01*
X175200000Y-89179605D01*
X174227073Y-90152532D01*
X142172927Y-90152532D01*
X141200000Y-89179605D01*
X140227073Y-90152532D01*
X135672927Y-90152532D01*
X134700000Y-89179605D01*
X134685858Y-89193748D01*
X134506253Y-89014143D01*
X134520395Y-89000000D01*
X134506253Y-88985858D01*
X134685858Y-88806253D01*
X134700000Y-88820395D01*
X134714143Y-88806253D01*
X134893748Y-88985858D01*
X134879605Y-89000000D01*
X135852532Y-89972927D01*
X136119387Y-89874264D01*
X136345908Y-89264539D01*
X136321856Y-88614540D01*
X136154290Y-88210000D01*
X139749308Y-88210000D01*
X139554092Y-88735461D01*
M02*
