G04 #@! TF.FileFunction,Legend,Top*
%FSLAX46Y46*%
G04 Gerber Fmt 4.6, Leading zero omitted, Abs format (unit mm)*
G04 Created by KiCad (PCBNEW 4.0.6+dfsg1-1) date Mon Jan 15 22:55:25 2018*
%MOMM*%
%LPD*%
G01*
G04 APERTURE LIST*
%ADD10C,0.100000*%
%ADD11C,0.120000*%
%ADD12C,0.150000*%
G04 APERTURE END LIST*
D10*
D11*
X145950000Y-90250000D02*
X145950000Y-96200000D01*
X145950000Y-96200000D02*
X153550000Y-96200000D01*
X153550000Y-96200000D02*
X153550000Y-90250000D01*
X153550000Y-90250000D02*
X145950000Y-90250000D01*
X149250000Y-90250000D02*
X149250000Y-91000000D01*
X149250000Y-91000000D02*
X150250000Y-91000000D01*
X150250000Y-91000000D02*
X150250000Y-90250000D01*
X150250000Y-90250000D02*
X149250000Y-90250000D01*
X145950000Y-90250000D02*
X145950000Y-91000000D01*
X145950000Y-91000000D02*
X147750000Y-91000000D01*
X147750000Y-91000000D02*
X147750000Y-90250000D01*
X147750000Y-90250000D02*
X145950000Y-90250000D01*
X151750000Y-90250000D02*
X151750000Y-91000000D01*
X151750000Y-91000000D02*
X153550000Y-91000000D01*
X153550000Y-91000000D02*
X153550000Y-90250000D01*
X153550000Y-90250000D02*
X151750000Y-90250000D01*
X145950000Y-92500000D02*
X146700000Y-92500000D01*
X146700000Y-92500000D02*
X146700000Y-95450000D01*
X146700000Y-95450000D02*
X149750000Y-95450000D01*
X153550000Y-92500000D02*
X152800000Y-92500000D01*
X152800000Y-92500000D02*
X152800000Y-95450000D01*
X152800000Y-95450000D02*
X149750000Y-95450000D01*
X148150000Y-89950000D02*
X145650000Y-89950000D01*
X145650000Y-89950000D02*
X145650000Y-92450000D01*
X128450000Y-104750000D02*
X122500000Y-104750000D01*
X122500000Y-104750000D02*
X122500000Y-112350000D01*
X122500000Y-112350000D02*
X128450000Y-112350000D01*
X128450000Y-112350000D02*
X128450000Y-104750000D01*
X128450000Y-108050000D02*
X127700000Y-108050000D01*
X127700000Y-108050000D02*
X127700000Y-109050000D01*
X127700000Y-109050000D02*
X128450000Y-109050000D01*
X128450000Y-109050000D02*
X128450000Y-108050000D01*
X128450000Y-104750000D02*
X127700000Y-104750000D01*
X127700000Y-104750000D02*
X127700000Y-106550000D01*
X127700000Y-106550000D02*
X128450000Y-106550000D01*
X128450000Y-106550000D02*
X128450000Y-104750000D01*
X128450000Y-110550000D02*
X127700000Y-110550000D01*
X127700000Y-110550000D02*
X127700000Y-112350000D01*
X127700000Y-112350000D02*
X128450000Y-112350000D01*
X128450000Y-112350000D02*
X128450000Y-110550000D01*
X126200000Y-104750000D02*
X126200000Y-105500000D01*
X126200000Y-105500000D02*
X123250000Y-105500000D01*
X123250000Y-105500000D02*
X123250000Y-108550000D01*
X126200000Y-112350000D02*
X126200000Y-111600000D01*
X126200000Y-111600000D02*
X123250000Y-111600000D01*
X123250000Y-111600000D02*
X123250000Y-108550000D01*
X128750000Y-106950000D02*
X128750000Y-104450000D01*
X128750000Y-104450000D02*
X126250000Y-104450000D01*
X128450000Y-114450000D02*
X122500000Y-114450000D01*
X122500000Y-114450000D02*
X122500000Y-122050000D01*
X122500000Y-122050000D02*
X128450000Y-122050000D01*
X128450000Y-122050000D02*
X128450000Y-114450000D01*
X128450000Y-117750000D02*
X127700000Y-117750000D01*
X127700000Y-117750000D02*
X127700000Y-118750000D01*
X127700000Y-118750000D02*
X128450000Y-118750000D01*
X128450000Y-118750000D02*
X128450000Y-117750000D01*
X128450000Y-114450000D02*
X127700000Y-114450000D01*
X127700000Y-114450000D02*
X127700000Y-116250000D01*
X127700000Y-116250000D02*
X128450000Y-116250000D01*
X128450000Y-116250000D02*
X128450000Y-114450000D01*
X128450000Y-120250000D02*
X127700000Y-120250000D01*
X127700000Y-120250000D02*
X127700000Y-122050000D01*
X127700000Y-122050000D02*
X128450000Y-122050000D01*
X128450000Y-122050000D02*
X128450000Y-120250000D01*
X126200000Y-114450000D02*
X126200000Y-115200000D01*
X126200000Y-115200000D02*
X123250000Y-115200000D01*
X123250000Y-115200000D02*
X123250000Y-118250000D01*
X126200000Y-122050000D02*
X126200000Y-121300000D01*
X126200000Y-121300000D02*
X123250000Y-121300000D01*
X123250000Y-121300000D02*
X123250000Y-118250000D01*
X128750000Y-116650000D02*
X128750000Y-114150000D01*
X128750000Y-114150000D02*
X126250000Y-114150000D01*
D12*
X175200000Y-95500000D02*
X179700000Y-95500000D01*
X173950000Y-91500000D02*
X173950000Y-93000000D01*
X179700000Y-89000000D02*
X175200000Y-89000000D01*
X180950000Y-93000000D02*
X180950000Y-91500000D01*
X124700000Y-95500000D02*
X129200000Y-95500000D01*
X123450000Y-91500000D02*
X123450000Y-93000000D01*
X129200000Y-89000000D02*
X124700000Y-89000000D01*
X130450000Y-93000000D02*
X130450000Y-91500000D01*
X124700000Y-145000000D02*
X129200000Y-145000000D01*
X123450000Y-141000000D02*
X123450000Y-142500000D01*
X129200000Y-138500000D02*
X124700000Y-138500000D01*
X130450000Y-142500000D02*
X130450000Y-141000000D01*
X179700000Y-138500000D02*
X175200000Y-138500000D01*
X180950000Y-142500000D02*
X180950000Y-141000000D01*
X175200000Y-145000000D02*
X179700000Y-145000000D01*
X173950000Y-141000000D02*
X173950000Y-142500000D01*
D11*
X175150000Y-129850000D02*
X181100000Y-129850000D01*
X181100000Y-129850000D02*
X181100000Y-122250000D01*
X181100000Y-122250000D02*
X175150000Y-122250000D01*
X175150000Y-122250000D02*
X175150000Y-129850000D01*
X175150000Y-126550000D02*
X175900000Y-126550000D01*
X175900000Y-126550000D02*
X175900000Y-125550000D01*
X175900000Y-125550000D02*
X175150000Y-125550000D01*
X175150000Y-125550000D02*
X175150000Y-126550000D01*
X175150000Y-129850000D02*
X175900000Y-129850000D01*
X175900000Y-129850000D02*
X175900000Y-128050000D01*
X175900000Y-128050000D02*
X175150000Y-128050000D01*
X175150000Y-128050000D02*
X175150000Y-129850000D01*
X175150000Y-124050000D02*
X175900000Y-124050000D01*
X175900000Y-124050000D02*
X175900000Y-122250000D01*
X175900000Y-122250000D02*
X175150000Y-122250000D01*
X175150000Y-122250000D02*
X175150000Y-124050000D01*
X177400000Y-129850000D02*
X177400000Y-129100000D01*
X177400000Y-129100000D02*
X180350000Y-129100000D01*
X180350000Y-129100000D02*
X180350000Y-126050000D01*
X177400000Y-122250000D02*
X177400000Y-123000000D01*
X177400000Y-123000000D02*
X180350000Y-123000000D01*
X180350000Y-123000000D02*
X180350000Y-126050000D01*
X174850000Y-127650000D02*
X174850000Y-130150000D01*
X174850000Y-130150000D02*
X177350000Y-130150000D01*
D12*
X155210000Y-134370000D02*
X172990000Y-134370000D01*
X155210000Y-106430000D02*
X172990000Y-106430000D01*
X155210000Y-134370000D02*
X155210000Y-106430000D01*
X172990000Y-106430000D02*
X172990000Y-134370000D01*
D11*
X143510000Y-100810000D02*
G75*
G02X141510000Y-100810000I-1000000J0D01*
G01*
X141510000Y-100810000D02*
X139740000Y-100810000D01*
X139740000Y-100810000D02*
X139740000Y-111210000D01*
X139740000Y-111210000D02*
X145280000Y-111210000D01*
X145280000Y-111210000D02*
X145280000Y-100810000D01*
X145280000Y-100810000D02*
X143510000Y-100810000D01*
D12*
X143400000Y-116800000D02*
X139400000Y-116800000D01*
X139400000Y-116800000D02*
X139400000Y-122100000D01*
X139400000Y-122100000D02*
X147400000Y-122100000D01*
X147400000Y-122100000D02*
X147400000Y-116800000D01*
X147400000Y-116800000D02*
X143400000Y-116800000D01*
X134200000Y-117800000D02*
X152600000Y-117800000D01*
X152600000Y-117800000D02*
X152600000Y-140400000D01*
X134200000Y-117800000D02*
X134200000Y-140400000D01*
X134200000Y-140400000D02*
X152600000Y-140400000D01*
X148964286Y-89128571D02*
X149107143Y-89176190D01*
X149154762Y-89223810D01*
X149202381Y-89319048D01*
X149202381Y-89461905D01*
X149154762Y-89557143D01*
X149107143Y-89604762D01*
X149011905Y-89652381D01*
X148630952Y-89652381D01*
X148630952Y-88652381D01*
X148964286Y-88652381D01*
X149059524Y-88700000D01*
X149107143Y-88747619D01*
X149154762Y-88842857D01*
X149154762Y-88938095D01*
X149107143Y-89033333D01*
X149059524Y-89080952D01*
X148964286Y-89128571D01*
X148630952Y-89128571D01*
X149488095Y-88652381D02*
X150059524Y-88652381D01*
X149773809Y-89652381D02*
X149773809Y-88652381D01*
X150916667Y-89652381D02*
X150345238Y-89652381D01*
X150630952Y-89652381D02*
X150630952Y-88652381D01*
X150535714Y-88795238D01*
X150440476Y-88890476D01*
X150345238Y-88938095D01*
X128952381Y-108883333D02*
X129666667Y-108883333D01*
X129809524Y-108930953D01*
X129904762Y-109026191D01*
X129952381Y-109169048D01*
X129952381Y-109264286D01*
X129952381Y-107883333D02*
X129952381Y-108454762D01*
X129952381Y-108169048D02*
X128952381Y-108169048D01*
X129095238Y-108264286D01*
X129190476Y-108359524D01*
X129238095Y-108454762D01*
X129952381Y-118892857D02*
X129952381Y-119369048D01*
X128952381Y-119369048D01*
X129904762Y-118607143D02*
X129952381Y-118464286D01*
X129952381Y-118226190D01*
X129904762Y-118130952D01*
X129857143Y-118083333D01*
X129761905Y-118035714D01*
X129666667Y-118035714D01*
X129571429Y-118083333D01*
X129523810Y-118130952D01*
X129476190Y-118226190D01*
X129428571Y-118416667D01*
X129380952Y-118511905D01*
X129333333Y-118559524D01*
X129238095Y-118607143D01*
X129142857Y-118607143D01*
X129047619Y-118559524D01*
X129000000Y-118511905D01*
X128952381Y-118416667D01*
X128952381Y-118178571D01*
X129000000Y-118035714D01*
X129952381Y-117083333D02*
X129952381Y-117654762D01*
X129952381Y-117369048D02*
X128952381Y-117369048D01*
X129095238Y-117464286D01*
X129190476Y-117559524D01*
X129238095Y-117654762D01*
X176066667Y-96504762D02*
X176209524Y-96552381D01*
X176447620Y-96552381D01*
X176542858Y-96504762D01*
X176590477Y-96457143D01*
X176638096Y-96361905D01*
X176638096Y-96266667D01*
X176590477Y-96171429D01*
X176542858Y-96123810D01*
X176447620Y-96076190D01*
X176257143Y-96028571D01*
X176161905Y-95980952D01*
X176114286Y-95933333D01*
X176066667Y-95838095D01*
X176066667Y-95742857D01*
X176114286Y-95647619D01*
X176161905Y-95600000D01*
X176257143Y-95552381D01*
X176495239Y-95552381D01*
X176638096Y-95600000D01*
X176971429Y-95552381D02*
X177209524Y-96552381D01*
X177400001Y-95838095D01*
X177590477Y-96552381D01*
X177828572Y-95552381D01*
X178733334Y-96552381D02*
X178161905Y-96552381D01*
X178447619Y-96552381D02*
X178447619Y-95552381D01*
X178352381Y-95695238D01*
X178257143Y-95790476D01*
X178161905Y-95838095D01*
X125366667Y-96704762D02*
X125509524Y-96752381D01*
X125747620Y-96752381D01*
X125842858Y-96704762D01*
X125890477Y-96657143D01*
X125938096Y-96561905D01*
X125938096Y-96466667D01*
X125890477Y-96371429D01*
X125842858Y-96323810D01*
X125747620Y-96276190D01*
X125557143Y-96228571D01*
X125461905Y-96180952D01*
X125414286Y-96133333D01*
X125366667Y-96038095D01*
X125366667Y-95942857D01*
X125414286Y-95847619D01*
X125461905Y-95800000D01*
X125557143Y-95752381D01*
X125795239Y-95752381D01*
X125938096Y-95800000D01*
X126271429Y-95752381D02*
X126509524Y-96752381D01*
X126700001Y-96038095D01*
X126890477Y-96752381D01*
X127128572Y-95752381D01*
X127461905Y-95847619D02*
X127509524Y-95800000D01*
X127604762Y-95752381D01*
X127842858Y-95752381D01*
X127938096Y-95800000D01*
X127985715Y-95847619D01*
X128033334Y-95942857D01*
X128033334Y-96038095D01*
X127985715Y-96180952D01*
X127414286Y-96752381D01*
X128033334Y-96752381D01*
X125616667Y-137904762D02*
X125759524Y-137952381D01*
X125997620Y-137952381D01*
X126092858Y-137904762D01*
X126140477Y-137857143D01*
X126188096Y-137761905D01*
X126188096Y-137666667D01*
X126140477Y-137571429D01*
X126092858Y-137523810D01*
X125997620Y-137476190D01*
X125807143Y-137428571D01*
X125711905Y-137380952D01*
X125664286Y-137333333D01*
X125616667Y-137238095D01*
X125616667Y-137142857D01*
X125664286Y-137047619D01*
X125711905Y-137000000D01*
X125807143Y-136952381D01*
X126045239Y-136952381D01*
X126188096Y-137000000D01*
X126521429Y-136952381D02*
X126759524Y-137952381D01*
X126950001Y-137238095D01*
X127140477Y-137952381D01*
X127378572Y-136952381D01*
X127664286Y-136952381D02*
X128283334Y-136952381D01*
X127950000Y-137333333D01*
X128092858Y-137333333D01*
X128188096Y-137380952D01*
X128235715Y-137428571D01*
X128283334Y-137523810D01*
X128283334Y-137761905D01*
X128235715Y-137857143D01*
X128188096Y-137904762D01*
X128092858Y-137952381D01*
X127807143Y-137952381D01*
X127711905Y-137904762D01*
X127664286Y-137857143D01*
X176066667Y-138304762D02*
X176209524Y-138352381D01*
X176447620Y-138352381D01*
X176542858Y-138304762D01*
X176590477Y-138257143D01*
X176638096Y-138161905D01*
X176638096Y-138066667D01*
X176590477Y-137971429D01*
X176542858Y-137923810D01*
X176447620Y-137876190D01*
X176257143Y-137828571D01*
X176161905Y-137780952D01*
X176114286Y-137733333D01*
X176066667Y-137638095D01*
X176066667Y-137542857D01*
X176114286Y-137447619D01*
X176161905Y-137400000D01*
X176257143Y-137352381D01*
X176495239Y-137352381D01*
X176638096Y-137400000D01*
X176971429Y-137352381D02*
X177209524Y-138352381D01*
X177400001Y-137638095D01*
X177590477Y-138352381D01*
X177828572Y-137352381D01*
X178638096Y-137685714D02*
X178638096Y-138352381D01*
X178400000Y-137304762D02*
X178161905Y-138019048D01*
X178780953Y-138019048D01*
X174504762Y-127383333D02*
X174552381Y-127240476D01*
X174552381Y-127002380D01*
X174504762Y-126907142D01*
X174457143Y-126859523D01*
X174361905Y-126811904D01*
X174266667Y-126811904D01*
X174171429Y-126859523D01*
X174123810Y-126907142D01*
X174076190Y-127002380D01*
X174028571Y-127192857D01*
X173980952Y-127288095D01*
X173933333Y-127335714D01*
X173838095Y-127383333D01*
X173742857Y-127383333D01*
X173647619Y-127335714D01*
X173600000Y-127288095D01*
X173552381Y-127192857D01*
X173552381Y-126954761D01*
X173600000Y-126811904D01*
X173552381Y-126478571D02*
X174552381Y-126240476D01*
X173838095Y-126049999D01*
X174552381Y-125859523D01*
X173552381Y-125621428D01*
X173552381Y-124764285D02*
X173552381Y-125240476D01*
X174028571Y-125288095D01*
X173980952Y-125240476D01*
X173933333Y-125145238D01*
X173933333Y-124907142D01*
X173980952Y-124811904D01*
X174028571Y-124764285D01*
X174123810Y-124716666D01*
X174361905Y-124716666D01*
X174457143Y-124764285D01*
X174504762Y-124811904D01*
X174552381Y-124907142D01*
X174552381Y-125145238D01*
X174504762Y-125240476D01*
X174457143Y-125288095D01*
X168632381Y-121161905D02*
X169441905Y-121161905D01*
X169537143Y-121114286D01*
X169584762Y-121066667D01*
X169632381Y-120971429D01*
X169632381Y-120780952D01*
X169584762Y-120685714D01*
X169537143Y-120638095D01*
X169441905Y-120590476D01*
X168632381Y-120590476D01*
X169632381Y-119590476D02*
X169632381Y-120161905D01*
X169632381Y-119876191D02*
X168632381Y-119876191D01*
X168775238Y-119971429D01*
X168870476Y-120066667D01*
X168918095Y-120161905D01*
X169752381Y-113419048D02*
X169752381Y-113228571D01*
X169800000Y-113133333D01*
X169895238Y-113038095D01*
X170085714Y-112990476D01*
X170419048Y-112990476D01*
X170609524Y-113038095D01*
X170704762Y-113133333D01*
X170752381Y-113228571D01*
X170752381Y-113419048D01*
X170704762Y-113514286D01*
X170609524Y-113609524D01*
X170419048Y-113657143D01*
X170085714Y-113657143D01*
X169895238Y-113609524D01*
X169800000Y-113514286D01*
X169752381Y-113419048D01*
X169752381Y-112561905D02*
X170561905Y-112561905D01*
X170657143Y-112514286D01*
X170704762Y-112466667D01*
X170752381Y-112371429D01*
X170752381Y-112180952D01*
X170704762Y-112085714D01*
X170657143Y-112038095D01*
X170561905Y-111990476D01*
X169752381Y-111990476D01*
X169752381Y-111657143D02*
X169752381Y-111085714D01*
X170752381Y-111371429D02*
X169752381Y-111371429D01*
X170371429Y-110752381D02*
X170371429Y-109990476D01*
X167828571Y-111447618D02*
X167876190Y-111304761D01*
X167923810Y-111257142D01*
X168019048Y-111209523D01*
X168161905Y-111209523D01*
X168257143Y-111257142D01*
X168304762Y-111304761D01*
X168352381Y-111399999D01*
X168352381Y-111780952D01*
X167352381Y-111780952D01*
X167352381Y-111447618D01*
X167400000Y-111352380D01*
X167447619Y-111304761D01*
X167542857Y-111257142D01*
X167638095Y-111257142D01*
X167733333Y-111304761D01*
X167780952Y-111352380D01*
X167828571Y-111447618D01*
X167828571Y-111780952D01*
X167971429Y-110780952D02*
X167971429Y-110019047D01*
X160228571Y-111447618D02*
X160276190Y-111304761D01*
X160323810Y-111257142D01*
X160419048Y-111209523D01*
X160561905Y-111209523D01*
X160657143Y-111257142D01*
X160704762Y-111304761D01*
X160752381Y-111399999D01*
X160752381Y-111780952D01*
X159752381Y-111780952D01*
X159752381Y-111447618D01*
X159800000Y-111352380D01*
X159847619Y-111304761D01*
X159942857Y-111257142D01*
X160038095Y-111257142D01*
X160133333Y-111304761D01*
X160180952Y-111352380D01*
X160228571Y-111447618D01*
X160228571Y-111780952D01*
X160371429Y-110780952D02*
X160371429Y-110019047D01*
X160752381Y-110399999D02*
X159990476Y-110399999D01*
X157152381Y-113419048D02*
X157152381Y-113228571D01*
X157200000Y-113133333D01*
X157295238Y-113038095D01*
X157485714Y-112990476D01*
X157819048Y-112990476D01*
X158009524Y-113038095D01*
X158104762Y-113133333D01*
X158152381Y-113228571D01*
X158152381Y-113419048D01*
X158104762Y-113514286D01*
X158009524Y-113609524D01*
X157819048Y-113657143D01*
X157485714Y-113657143D01*
X157295238Y-113609524D01*
X157200000Y-113514286D01*
X157152381Y-113419048D01*
X157152381Y-112561905D02*
X157961905Y-112561905D01*
X158057143Y-112514286D01*
X158104762Y-112466667D01*
X158152381Y-112371429D01*
X158152381Y-112180952D01*
X158104762Y-112085714D01*
X158057143Y-112038095D01*
X157961905Y-111990476D01*
X157152381Y-111990476D01*
X157152381Y-111657143D02*
X157152381Y-111085714D01*
X158152381Y-111371429D02*
X157152381Y-111371429D01*
X157771429Y-110752381D02*
X157771429Y-109990476D01*
X158152381Y-110371428D02*
X157390476Y-110371428D01*
X170952381Y-130442857D02*
X169952381Y-130442857D01*
X170952381Y-129966667D02*
X169952381Y-129966667D01*
X170952381Y-129395238D01*
X169952381Y-129395238D01*
X170571429Y-128919048D02*
X170571429Y-128157143D01*
X158252381Y-130342857D02*
X157252381Y-130342857D01*
X158252381Y-129866667D02*
X157252381Y-129866667D01*
X158252381Y-129295238D01*
X157252381Y-129295238D01*
X157871429Y-128819048D02*
X157871429Y-128057143D01*
X158252381Y-128438095D02*
X157490476Y-128438095D01*
X141748095Y-99262381D02*
X141748095Y-100071905D01*
X141795714Y-100167143D01*
X141843333Y-100214762D01*
X141938571Y-100262381D01*
X142129048Y-100262381D01*
X142224286Y-100214762D01*
X142271905Y-100167143D01*
X142319524Y-100071905D01*
X142319524Y-99262381D01*
X142748095Y-99357619D02*
X142795714Y-99310000D01*
X142890952Y-99262381D01*
X143129048Y-99262381D01*
X143224286Y-99310000D01*
X143271905Y-99357619D01*
X143319524Y-99452857D01*
X143319524Y-99548095D01*
X143271905Y-99690952D01*
X142700476Y-100262381D01*
X143319524Y-100262381D01*
X142590476Y-136852381D02*
X142590476Y-135852381D01*
X142923810Y-136566667D01*
X143257143Y-135852381D01*
X143257143Y-136852381D01*
X144257143Y-136852381D02*
X143685714Y-136852381D01*
X143971428Y-136852381D02*
X143971428Y-135852381D01*
X143876190Y-135995238D01*
X143780952Y-136090476D01*
X143685714Y-136138095D01*
X142138095Y-119452381D02*
X142138095Y-120261905D01*
X142185714Y-120357143D01*
X142233333Y-120404762D01*
X142328571Y-120452381D01*
X142519048Y-120452381D01*
X142614286Y-120404762D01*
X142661905Y-120357143D01*
X142709524Y-120261905D01*
X142709524Y-119452381D01*
X143138095Y-120404762D02*
X143280952Y-120452381D01*
X143519048Y-120452381D01*
X143614286Y-120404762D01*
X143661905Y-120357143D01*
X143709524Y-120261905D01*
X143709524Y-120166667D01*
X143661905Y-120071429D01*
X143614286Y-120023810D01*
X143519048Y-119976190D01*
X143328571Y-119928571D01*
X143233333Y-119880952D01*
X143185714Y-119833333D01*
X143138095Y-119738095D01*
X143138095Y-119642857D01*
X143185714Y-119547619D01*
X143233333Y-119500000D01*
X143328571Y-119452381D01*
X143566667Y-119452381D01*
X143709524Y-119500000D01*
X144471429Y-119928571D02*
X144614286Y-119976190D01*
X144661905Y-120023810D01*
X144709524Y-120119048D01*
X144709524Y-120261905D01*
X144661905Y-120357143D01*
X144614286Y-120404762D01*
X144519048Y-120452381D01*
X144138095Y-120452381D01*
X144138095Y-119452381D01*
X144471429Y-119452381D01*
X144566667Y-119500000D01*
X144614286Y-119547619D01*
X144661905Y-119642857D01*
X144661905Y-119738095D01*
X144614286Y-119833333D01*
X144566667Y-119880952D01*
X144471429Y-119928571D01*
X144138095Y-119928571D01*
M02*
