G04 #@! TF.FileFunction,Legend,Top*
%FSLAX46Y46*%
G04 Gerber Fmt 4.6, Leading zero omitted, Abs format (unit mm)*
G04 Created by KiCad (PCBNEW 4.0.6+dfsg1-1) date Tue Mar 13 19:58:14 2018*
%MOMM*%
%LPD*%
G01*
G04 APERTURE LIST*
%ADD10C,0.100000*%
%ADD11C,0.300000*%
%ADD12C,0.250000*%
%ADD13C,0.150000*%
%ADD14C,0.120000*%
G04 APERTURE END LIST*
D10*
D11*
X176528572Y-97507143D02*
X177671429Y-97507143D01*
X177100000Y-98078571D02*
X177100000Y-96935714D01*
X176378572Y-102657143D02*
X177521429Y-102657143D01*
D12*
X171838096Y-107350000D02*
X171742858Y-107302381D01*
X171600001Y-107302381D01*
X171457143Y-107350000D01*
X171361905Y-107445238D01*
X171314286Y-107540476D01*
X171266667Y-107730952D01*
X171266667Y-107873810D01*
X171314286Y-108064286D01*
X171361905Y-108159524D01*
X171457143Y-108254762D01*
X171600001Y-108302381D01*
X171695239Y-108302381D01*
X171838096Y-108254762D01*
X171885715Y-108207143D01*
X171885715Y-107873810D01*
X171695239Y-107873810D01*
X172314286Y-108302381D02*
X172314286Y-107302381D01*
X172885715Y-108302381D01*
X172885715Y-107302381D01*
X173361905Y-108302381D02*
X173361905Y-107302381D01*
X173600000Y-107302381D01*
X173742858Y-107350000D01*
X173838096Y-107445238D01*
X173885715Y-107540476D01*
X173933334Y-107730952D01*
X173933334Y-107873810D01*
X173885715Y-108064286D01*
X173838096Y-108159524D01*
X173742858Y-108254762D01*
X173600000Y-108302381D01*
X173361905Y-108302381D01*
X171216667Y-109752381D02*
X171550000Y-110752381D01*
X171883334Y-109752381D01*
X172788096Y-110657143D02*
X172740477Y-110704762D01*
X172597620Y-110752381D01*
X172502382Y-110752381D01*
X172359524Y-110704762D01*
X172264286Y-110609524D01*
X172216667Y-110514286D01*
X172169048Y-110323810D01*
X172169048Y-110180952D01*
X172216667Y-109990476D01*
X172264286Y-109895238D01*
X172359524Y-109800000D01*
X172502382Y-109752381D01*
X172597620Y-109752381D01*
X172740477Y-109800000D01*
X172788096Y-109847619D01*
X173788096Y-110657143D02*
X173740477Y-110704762D01*
X173597620Y-110752381D01*
X173502382Y-110752381D01*
X173359524Y-110704762D01*
X173264286Y-110609524D01*
X173216667Y-110514286D01*
X173169048Y-110323810D01*
X173169048Y-110180952D01*
X173216667Y-109990476D01*
X173264286Y-109895238D01*
X173359524Y-109800000D01*
X173502382Y-109752381D01*
X173597620Y-109752381D01*
X173740477Y-109800000D01*
X173788096Y-109847619D01*
X171719048Y-113152381D02*
X171719048Y-112152381D01*
X171957143Y-112152381D01*
X172100001Y-112200000D01*
X172195239Y-112295238D01*
X172242858Y-112390476D01*
X172290477Y-112580952D01*
X172290477Y-112723810D01*
X172242858Y-112914286D01*
X172195239Y-113009524D01*
X172100001Y-113104762D01*
X171957143Y-113152381D01*
X171719048Y-113152381D01*
X172719048Y-112771429D02*
X173480953Y-112771429D01*
X171619048Y-115552381D02*
X171619048Y-114552381D01*
X171857143Y-114552381D01*
X172000001Y-114600000D01*
X172095239Y-114695238D01*
X172142858Y-114790476D01*
X172190477Y-114980952D01*
X172190477Y-115123810D01*
X172142858Y-115314286D01*
X172095239Y-115409524D01*
X172000001Y-115504762D01*
X171857143Y-115552381D01*
X171619048Y-115552381D01*
X172619048Y-115171429D02*
X173380953Y-115171429D01*
X173000001Y-115552381D02*
X173000001Y-114790476D01*
D13*
X172250000Y-97900000D02*
X172250000Y-117900000D01*
X154250000Y-97900000D02*
X154250000Y-117900000D01*
X154250000Y-117900000D02*
G75*
G03X163250000Y-126900000I9000000J0D01*
G01*
X163250000Y-88900000D02*
G75*
G03X154250000Y-97900000I0J-9000000D01*
G01*
X172250000Y-97900000D02*
G75*
G03X163250000Y-88900000I-9000000J0D01*
G01*
X163250000Y-126900000D02*
G75*
G03X172250000Y-117900000I0J9000000D01*
G01*
X172350000Y-125900000D02*
G75*
G03X172350000Y-125900000I-1100000J0D01*
G01*
X156350000Y-125900000D02*
G75*
G03X156350000Y-125900000I-1100000J0D01*
G01*
X172350000Y-89900000D02*
G75*
G03X172350000Y-89900000I-1100000J0D01*
G01*
X156250000Y-89700000D02*
G75*
G03X156250000Y-89700000I-1000000J0D01*
G01*
X173250000Y-87900000D02*
X153250000Y-87900000D01*
X153250000Y-127900000D02*
X173250000Y-127900000D01*
X153250000Y-127900000D02*
X153250000Y-87900000D01*
X173250000Y-127900000D02*
X173250000Y-87900000D01*
D14*
X176250000Y-120400000D02*
X174050000Y-120400000D01*
X174050000Y-120400000D02*
X174050000Y-118900000D01*
X174050000Y-118900000D02*
X182550000Y-118900000D01*
X182550000Y-118900000D02*
X182550000Y-126700000D01*
X182550000Y-126700000D02*
X174050000Y-126700000D01*
X174050000Y-126700000D02*
X174050000Y-125200000D01*
X174050000Y-125200000D02*
X176250000Y-125200000D01*
X181050000Y-118900000D02*
X181050000Y-120400000D01*
X181050000Y-120400000D02*
X176250000Y-120400000D01*
X176250000Y-120400000D02*
X176250000Y-118900000D01*
X181050000Y-126700000D02*
X181050000Y-125200000D01*
X181050000Y-125200000D02*
X176250000Y-125200000D01*
X176250000Y-125200000D02*
X176250000Y-126700000D01*
X178200000Y-120400000D02*
X178200000Y-125200000D01*
X177200000Y-120400000D02*
X177200000Y-125200000D01*
X178200000Y-121550000D02*
X178200000Y-121230000D01*
X178200000Y-121230000D02*
X181620000Y-121230000D01*
X181620000Y-121230000D02*
X181700000Y-121550000D01*
X181700000Y-121550000D02*
X181620000Y-121870000D01*
X181620000Y-121870000D02*
X178200000Y-121870000D01*
X178200000Y-121870000D02*
X178200000Y-121550000D01*
X178200000Y-124050000D02*
X178200000Y-123730000D01*
X178200000Y-123730000D02*
X181620000Y-123730000D01*
X181620000Y-123730000D02*
X181700000Y-124050000D01*
X181700000Y-124050000D02*
X181620000Y-124370000D01*
X181620000Y-124370000D02*
X178200000Y-124370000D01*
X178200000Y-124370000D02*
X178200000Y-124050000D01*
X174200000Y-121550000D02*
X173600000Y-121250000D01*
X173600000Y-121250000D02*
X173600000Y-121850000D01*
X173600000Y-121850000D02*
X174200000Y-121550000D01*
X138140000Y-139640000D02*
G75*
G02X140140000Y-139640000I1000000J0D01*
G01*
X140140000Y-139640000D02*
X141910000Y-139640000D01*
X141910000Y-139640000D02*
X141910000Y-129240000D01*
X141910000Y-129240000D02*
X136370000Y-129240000D01*
X136370000Y-129240000D02*
X136370000Y-139640000D01*
X136370000Y-139640000D02*
X138140000Y-139640000D01*
D13*
X135700000Y-94500000D02*
X140200000Y-94500000D01*
X134450000Y-90500000D02*
X134450000Y-92000000D01*
X140200000Y-88000000D02*
X135700000Y-88000000D01*
X141450000Y-92000000D02*
X141450000Y-90500000D01*
X176200000Y-94500000D02*
X180700000Y-94500000D01*
X174950000Y-90500000D02*
X174950000Y-92000000D01*
X180700000Y-88000000D02*
X176200000Y-88000000D01*
X181950000Y-92000000D02*
X181950000Y-90500000D01*
X176200000Y-147000000D02*
X180700000Y-147000000D01*
X174950000Y-143000000D02*
X174950000Y-144500000D01*
X180700000Y-140500000D02*
X176200000Y-140500000D01*
X181950000Y-144500000D02*
X181950000Y-143000000D01*
X135700000Y-147000000D02*
X140200000Y-147000000D01*
X134450000Y-143000000D02*
X134450000Y-144500000D01*
X140200000Y-140500000D02*
X135700000Y-140500000D01*
X141450000Y-144500000D02*
X141450000Y-143000000D01*
D14*
X180750000Y-97650000D02*
X178550000Y-97650000D01*
X178550000Y-97650000D02*
X178550000Y-96150000D01*
X178550000Y-96150000D02*
X187050000Y-96150000D01*
X187050000Y-96150000D02*
X187050000Y-103950000D01*
X187050000Y-103950000D02*
X178550000Y-103950000D01*
X178550000Y-103950000D02*
X178550000Y-102450000D01*
X178550000Y-102450000D02*
X180750000Y-102450000D01*
X185550000Y-96150000D02*
X185550000Y-97650000D01*
X185550000Y-97650000D02*
X180750000Y-97650000D01*
X180750000Y-97650000D02*
X180750000Y-96150000D01*
X185550000Y-103950000D02*
X185550000Y-102450000D01*
X185550000Y-102450000D02*
X180750000Y-102450000D01*
X180750000Y-102450000D02*
X180750000Y-103950000D01*
X182700000Y-97650000D02*
X182700000Y-102450000D01*
X181700000Y-97650000D02*
X181700000Y-102450000D01*
X182700000Y-98800000D02*
X182700000Y-98480000D01*
X182700000Y-98480000D02*
X186120000Y-98480000D01*
X186120000Y-98480000D02*
X186200000Y-98800000D01*
X186200000Y-98800000D02*
X186120000Y-99120000D01*
X186120000Y-99120000D02*
X182700000Y-99120000D01*
X182700000Y-99120000D02*
X182700000Y-98800000D01*
X182700000Y-101300000D02*
X182700000Y-100980000D01*
X182700000Y-100980000D02*
X186120000Y-100980000D01*
X186120000Y-100980000D02*
X186200000Y-101300000D01*
X186200000Y-101300000D02*
X186120000Y-101620000D01*
X186120000Y-101620000D02*
X182700000Y-101620000D01*
X182700000Y-101620000D02*
X182700000Y-101300000D01*
X178700000Y-98800000D02*
X178100000Y-98500000D01*
X178100000Y-98500000D02*
X178100000Y-99100000D01*
X178100000Y-99100000D02*
X178700000Y-98800000D01*
X176250000Y-106550000D02*
X174050000Y-106550000D01*
X174050000Y-106550000D02*
X174050000Y-105050000D01*
X174050000Y-105050000D02*
X182550000Y-105050000D01*
X182550000Y-105050000D02*
X182550000Y-117850000D01*
X182550000Y-117850000D02*
X174050000Y-117850000D01*
X174050000Y-117850000D02*
X174050000Y-116350000D01*
X174050000Y-116350000D02*
X176250000Y-116350000D01*
X181050000Y-105050000D02*
X181050000Y-106550000D01*
X181050000Y-106550000D02*
X176250000Y-106550000D01*
X176250000Y-106550000D02*
X176250000Y-105050000D01*
X181050000Y-117850000D02*
X181050000Y-116350000D01*
X181050000Y-116350000D02*
X176250000Y-116350000D01*
X176250000Y-116350000D02*
X176250000Y-117850000D01*
X178200000Y-106550000D02*
X178200000Y-116350000D01*
X177200000Y-106550000D02*
X177200000Y-116350000D01*
X178200000Y-107700000D02*
X178200000Y-107380000D01*
X178200000Y-107380000D02*
X181620000Y-107380000D01*
X181620000Y-107380000D02*
X181700000Y-107700000D01*
X181700000Y-107700000D02*
X181620000Y-108020000D01*
X181620000Y-108020000D02*
X178200000Y-108020000D01*
X178200000Y-108020000D02*
X178200000Y-107700000D01*
X178200000Y-110200000D02*
X178200000Y-109880000D01*
X178200000Y-109880000D02*
X181620000Y-109880000D01*
X181620000Y-109880000D02*
X181700000Y-110200000D01*
X181700000Y-110200000D02*
X181620000Y-110520000D01*
X181620000Y-110520000D02*
X178200000Y-110520000D01*
X178200000Y-110520000D02*
X178200000Y-110200000D01*
X178200000Y-112700000D02*
X178200000Y-112380000D01*
X178200000Y-112380000D02*
X181620000Y-112380000D01*
X181620000Y-112380000D02*
X181700000Y-112700000D01*
X181700000Y-112700000D02*
X181620000Y-113020000D01*
X181620000Y-113020000D02*
X178200000Y-113020000D01*
X178200000Y-113020000D02*
X178200000Y-112700000D01*
X178200000Y-115200000D02*
X178200000Y-114880000D01*
X178200000Y-114880000D02*
X181620000Y-114880000D01*
X181620000Y-114880000D02*
X181700000Y-115200000D01*
X181700000Y-115200000D02*
X181620000Y-115520000D01*
X181620000Y-115520000D02*
X178200000Y-115520000D01*
X178200000Y-115520000D02*
X178200000Y-115200000D01*
X174200000Y-107700000D02*
X173600000Y-107400000D01*
X173600000Y-107400000D02*
X173600000Y-108000000D01*
X173600000Y-108000000D02*
X174200000Y-107700000D01*
D13*
X134077400Y-106601000D02*
X134077400Y-128699000D01*
X139436800Y-106601000D02*
X134077400Y-106601000D01*
X139436800Y-111808000D02*
X147437800Y-111808000D01*
X147437800Y-111808000D02*
X147437800Y-106575600D01*
X147437800Y-106601000D02*
X147437800Y-105991400D01*
X147437800Y-105991400D02*
X139436800Y-105991400D01*
X139436800Y-105991400D02*
X139436800Y-111808000D01*
X134077400Y-128699000D02*
X152822600Y-128699000D01*
X152822600Y-106601000D02*
X147437800Y-106601000D01*
X152822600Y-117650000D02*
X152822600Y-106601000D01*
X152822600Y-117650000D02*
X152822600Y-128699000D01*
X173120000Y-147390000D02*
X173120000Y-129610000D01*
X145180000Y-147390000D02*
X145180000Y-129610000D01*
X173120000Y-147390000D02*
X145180000Y-147390000D01*
X145180000Y-129610000D02*
X173120000Y-129610000D01*
X162607143Y-109252381D02*
X162130952Y-109252381D01*
X162130952Y-108252381D01*
X162892857Y-109204762D02*
X163035714Y-109252381D01*
X163273810Y-109252381D01*
X163369048Y-109204762D01*
X163416667Y-109157143D01*
X163464286Y-109061905D01*
X163464286Y-108966667D01*
X163416667Y-108871429D01*
X163369048Y-108823810D01*
X163273810Y-108776190D01*
X163083333Y-108728571D01*
X162988095Y-108680952D01*
X162940476Y-108633333D01*
X162892857Y-108538095D01*
X162892857Y-108442857D01*
X162940476Y-108347619D01*
X162988095Y-108300000D01*
X163083333Y-108252381D01*
X163321429Y-108252381D01*
X163464286Y-108300000D01*
X164416667Y-109252381D02*
X163845238Y-109252381D01*
X164130952Y-109252381D02*
X164130952Y-108252381D01*
X164035714Y-108395238D01*
X163940476Y-108490476D01*
X163845238Y-108538095D01*
X176866667Y-118604762D02*
X177009524Y-118652381D01*
X177247620Y-118652381D01*
X177342858Y-118604762D01*
X177390477Y-118557143D01*
X177438096Y-118461905D01*
X177438096Y-118366667D01*
X177390477Y-118271429D01*
X177342858Y-118223810D01*
X177247620Y-118176190D01*
X177057143Y-118128571D01*
X176961905Y-118080952D01*
X176914286Y-118033333D01*
X176866667Y-117938095D01*
X176866667Y-117842857D01*
X176914286Y-117747619D01*
X176961905Y-117700000D01*
X177057143Y-117652381D01*
X177295239Y-117652381D01*
X177438096Y-117700000D01*
X177771429Y-117652381D02*
X178009524Y-118652381D01*
X178200001Y-117938095D01*
X178390477Y-118652381D01*
X178628572Y-117652381D01*
X179485715Y-117652381D02*
X179009524Y-117652381D01*
X178961905Y-118128571D01*
X179009524Y-118080952D01*
X179104762Y-118033333D01*
X179342858Y-118033333D01*
X179438096Y-118080952D01*
X179485715Y-118128571D01*
X179533334Y-118223810D01*
X179533334Y-118461905D01*
X179485715Y-118557143D01*
X179438096Y-118604762D01*
X179342858Y-118652381D01*
X179104762Y-118652381D01*
X179009524Y-118604762D01*
X178961905Y-118557143D01*
X171852381Y-125016667D02*
X171852381Y-124826190D01*
X171900000Y-124730952D01*
X171995238Y-124635714D01*
X172185714Y-124588095D01*
X172519048Y-124588095D01*
X172709524Y-124635714D01*
X172804762Y-124730952D01*
X172852381Y-124826190D01*
X172852381Y-125016667D01*
X172804762Y-125111905D01*
X172709524Y-125207143D01*
X172519048Y-125254762D01*
X172185714Y-125254762D01*
X171995238Y-125207143D01*
X171900000Y-125111905D01*
X171852381Y-125016667D01*
X172185714Y-124159524D02*
X172852381Y-124159524D01*
X172280952Y-124159524D02*
X172233333Y-124111905D01*
X172185714Y-124016667D01*
X172185714Y-123873809D01*
X172233333Y-123778571D01*
X172328571Y-123730952D01*
X172852381Y-123730952D01*
X171804762Y-122540476D02*
X173090476Y-123397619D01*
X171852381Y-122016667D02*
X171852381Y-121826190D01*
X171900000Y-121730952D01*
X171995238Y-121635714D01*
X172185714Y-121588095D01*
X172519048Y-121588095D01*
X172709524Y-121635714D01*
X172804762Y-121730952D01*
X172852381Y-121826190D01*
X172852381Y-122016667D01*
X172804762Y-122111905D01*
X172709524Y-122207143D01*
X172519048Y-122254762D01*
X172185714Y-122254762D01*
X171995238Y-122207143D01*
X171900000Y-122111905D01*
X171852381Y-122016667D01*
X172185714Y-121302381D02*
X172185714Y-120921429D01*
X172852381Y-121159524D02*
X171995238Y-121159524D01*
X171900000Y-121111905D01*
X171852381Y-121016667D01*
X171852381Y-120921429D01*
X172185714Y-120730952D02*
X172185714Y-120350000D01*
X172852381Y-120588095D02*
X171995238Y-120588095D01*
X171900000Y-120540476D01*
X171852381Y-120445238D01*
X171852381Y-120350000D01*
X137402381Y-135911905D02*
X138211905Y-135911905D01*
X138307143Y-135864286D01*
X138354762Y-135816667D01*
X138402381Y-135721429D01*
X138402381Y-135530952D01*
X138354762Y-135435714D01*
X138307143Y-135388095D01*
X138211905Y-135340476D01*
X137402381Y-135340476D01*
X137497619Y-134911905D02*
X137450000Y-134864286D01*
X137402381Y-134769048D01*
X137402381Y-134530952D01*
X137450000Y-134435714D01*
X137497619Y-134388095D01*
X137592857Y-134340476D01*
X137688095Y-134340476D01*
X137830952Y-134388095D01*
X138402381Y-134959524D01*
X138402381Y-134340476D01*
X140966667Y-138940476D02*
X140966667Y-138559524D01*
X141252381Y-139016667D02*
X140252381Y-138750000D01*
X141252381Y-138483333D01*
X140252381Y-138330953D02*
X140252381Y-137873810D01*
X141252381Y-138102381D02*
X140252381Y-138102381D01*
X140252381Y-137721429D02*
X140252381Y-137264286D01*
X141252381Y-137492857D02*
X140252381Y-137492857D01*
X141252381Y-136997619D02*
X140252381Y-136997619D01*
X141252381Y-136616667D02*
X140252381Y-136616667D01*
X141252381Y-136159524D01*
X140252381Y-136159524D01*
X140776190Y-135626191D02*
X141252381Y-135626191D01*
X140252381Y-135892858D02*
X140776190Y-135626191D01*
X140252381Y-135359524D01*
X140680952Y-134978572D02*
X140633333Y-135054763D01*
X140585714Y-135092858D01*
X140490476Y-135130953D01*
X140442857Y-135130953D01*
X140347619Y-135092858D01*
X140300000Y-135054763D01*
X140252381Y-134978572D01*
X140252381Y-134826191D01*
X140300000Y-134750001D01*
X140347619Y-134711905D01*
X140442857Y-134673810D01*
X140490476Y-134673810D01*
X140585714Y-134711905D01*
X140633333Y-134750001D01*
X140680952Y-134826191D01*
X140680952Y-134978572D01*
X140728571Y-135054763D01*
X140776190Y-135092858D01*
X140871429Y-135130953D01*
X141061905Y-135130953D01*
X141157143Y-135092858D01*
X141204762Y-135054763D01*
X141252381Y-134978572D01*
X141252381Y-134826191D01*
X141204762Y-134750001D01*
X141157143Y-134711905D01*
X141061905Y-134673810D01*
X140871429Y-134673810D01*
X140776190Y-134711905D01*
X140728571Y-134750001D01*
X140680952Y-134826191D01*
X140252381Y-133950000D02*
X140252381Y-134330953D01*
X140728571Y-134369048D01*
X140680952Y-134330953D01*
X140633333Y-134254762D01*
X140633333Y-134064286D01*
X140680952Y-133988096D01*
X140728571Y-133950000D01*
X140823810Y-133911905D01*
X141061905Y-133911905D01*
X141157143Y-133950000D01*
X141204762Y-133988096D01*
X141252381Y-134064286D01*
X141252381Y-134254762D01*
X141204762Y-134330953D01*
X141157143Y-134369048D01*
X140871429Y-133569048D02*
X140871429Y-132959524D01*
X140347619Y-132616667D02*
X140300000Y-132578572D01*
X140252381Y-132502381D01*
X140252381Y-132311905D01*
X140300000Y-132235715D01*
X140347619Y-132197619D01*
X140442857Y-132159524D01*
X140538095Y-132159524D01*
X140680952Y-132197619D01*
X141252381Y-132654762D01*
X141252381Y-132159524D01*
X140252381Y-131664286D02*
X140252381Y-131588095D01*
X140300000Y-131511905D01*
X140347619Y-131473810D01*
X140442857Y-131435714D01*
X140633333Y-131397619D01*
X140871429Y-131397619D01*
X141061905Y-131435714D01*
X141157143Y-131473810D01*
X141204762Y-131511905D01*
X141252381Y-131588095D01*
X141252381Y-131664286D01*
X141204762Y-131740476D01*
X141157143Y-131778572D01*
X141061905Y-131816667D01*
X140871429Y-131854762D01*
X140633333Y-131854762D01*
X140442857Y-131816667D01*
X140347619Y-131778572D01*
X140300000Y-131740476D01*
X140252381Y-131664286D01*
X141252381Y-131054762D02*
X140252381Y-131054762D01*
X140252381Y-130750000D01*
X140300000Y-130673809D01*
X140347619Y-130635714D01*
X140442857Y-130597619D01*
X140585714Y-130597619D01*
X140680952Y-130635714D01*
X140728571Y-130673809D01*
X140776190Y-130750000D01*
X140776190Y-131054762D01*
X140252381Y-130254762D02*
X141061905Y-130254762D01*
X141157143Y-130216667D01*
X141204762Y-130178571D01*
X141252381Y-130102381D01*
X141252381Y-129950000D01*
X141204762Y-129873809D01*
X141157143Y-129835714D01*
X141061905Y-129797619D01*
X140252381Y-129797619D01*
X136516667Y-96154762D02*
X136659524Y-96202381D01*
X136897620Y-96202381D01*
X136992858Y-96154762D01*
X137040477Y-96107143D01*
X137088096Y-96011905D01*
X137088096Y-95916667D01*
X137040477Y-95821429D01*
X136992858Y-95773810D01*
X136897620Y-95726190D01*
X136707143Y-95678571D01*
X136611905Y-95630952D01*
X136564286Y-95583333D01*
X136516667Y-95488095D01*
X136516667Y-95392857D01*
X136564286Y-95297619D01*
X136611905Y-95250000D01*
X136707143Y-95202381D01*
X136945239Y-95202381D01*
X137088096Y-95250000D01*
X137421429Y-95202381D02*
X137659524Y-96202381D01*
X137850001Y-95488095D01*
X138040477Y-96202381D01*
X138278572Y-95202381D01*
X139183334Y-96202381D02*
X138611905Y-96202381D01*
X138897619Y-96202381D02*
X138897619Y-95202381D01*
X138802381Y-95345238D01*
X138707143Y-95440476D01*
X138611905Y-95488095D01*
X174816667Y-96154762D02*
X174959524Y-96202381D01*
X175197620Y-96202381D01*
X175292858Y-96154762D01*
X175340477Y-96107143D01*
X175388096Y-96011905D01*
X175388096Y-95916667D01*
X175340477Y-95821429D01*
X175292858Y-95773810D01*
X175197620Y-95726190D01*
X175007143Y-95678571D01*
X174911905Y-95630952D01*
X174864286Y-95583333D01*
X174816667Y-95488095D01*
X174816667Y-95392857D01*
X174864286Y-95297619D01*
X174911905Y-95250000D01*
X175007143Y-95202381D01*
X175245239Y-95202381D01*
X175388096Y-95250000D01*
X175721429Y-95202381D02*
X175959524Y-96202381D01*
X176150001Y-95488095D01*
X176340477Y-96202381D01*
X176578572Y-95202381D01*
X176911905Y-95297619D02*
X176959524Y-95250000D01*
X177054762Y-95202381D01*
X177292858Y-95202381D01*
X177388096Y-95250000D01*
X177435715Y-95297619D01*
X177483334Y-95392857D01*
X177483334Y-95488095D01*
X177435715Y-95630952D01*
X176864286Y-96202381D01*
X177483334Y-96202381D01*
X176866667Y-139754762D02*
X177009524Y-139802381D01*
X177247620Y-139802381D01*
X177342858Y-139754762D01*
X177390477Y-139707143D01*
X177438096Y-139611905D01*
X177438096Y-139516667D01*
X177390477Y-139421429D01*
X177342858Y-139373810D01*
X177247620Y-139326190D01*
X177057143Y-139278571D01*
X176961905Y-139230952D01*
X176914286Y-139183333D01*
X176866667Y-139088095D01*
X176866667Y-138992857D01*
X176914286Y-138897619D01*
X176961905Y-138850000D01*
X177057143Y-138802381D01*
X177295239Y-138802381D01*
X177438096Y-138850000D01*
X177771429Y-138802381D02*
X178009524Y-139802381D01*
X178200001Y-139088095D01*
X178390477Y-139802381D01*
X178628572Y-138802381D01*
X178914286Y-138802381D02*
X179533334Y-138802381D01*
X179200000Y-139183333D01*
X179342858Y-139183333D01*
X179438096Y-139230952D01*
X179485715Y-139278571D01*
X179533334Y-139373810D01*
X179533334Y-139611905D01*
X179485715Y-139707143D01*
X179438096Y-139754762D01*
X179342858Y-139802381D01*
X179057143Y-139802381D01*
X178961905Y-139754762D01*
X178914286Y-139707143D01*
X143954762Y-145183333D02*
X144002381Y-145040476D01*
X144002381Y-144802380D01*
X143954762Y-144707142D01*
X143907143Y-144659523D01*
X143811905Y-144611904D01*
X143716667Y-144611904D01*
X143621429Y-144659523D01*
X143573810Y-144707142D01*
X143526190Y-144802380D01*
X143478571Y-144992857D01*
X143430952Y-145088095D01*
X143383333Y-145135714D01*
X143288095Y-145183333D01*
X143192857Y-145183333D01*
X143097619Y-145135714D01*
X143050000Y-145088095D01*
X143002381Y-144992857D01*
X143002381Y-144754761D01*
X143050000Y-144611904D01*
X143002381Y-144278571D02*
X144002381Y-144040476D01*
X143288095Y-143849999D01*
X144002381Y-143659523D01*
X143002381Y-143421428D01*
X143335714Y-142611904D02*
X144002381Y-142611904D01*
X142954762Y-142850000D02*
X143669048Y-143088095D01*
X143669048Y-142469047D01*
X184166667Y-100664286D02*
X184166667Y-100188095D01*
X184452381Y-100759524D02*
X183452381Y-100426191D01*
X184452381Y-100092857D01*
X184452381Y-99235714D02*
X184452381Y-99807143D01*
X184452381Y-99521429D02*
X183452381Y-99521429D01*
X183595238Y-99616667D01*
X183690476Y-99711905D01*
X183738095Y-99807143D01*
X177166667Y-101650000D02*
X177166667Y-101173809D01*
X177452381Y-101745238D02*
X176452381Y-101411905D01*
X177452381Y-101078571D01*
X177452381Y-100745238D02*
X176452381Y-100745238D01*
X177071429Y-100650000D02*
X177452381Y-100364285D01*
X176785714Y-100364285D02*
X177166667Y-100745238D01*
X177452381Y-99935714D02*
X176452381Y-99935714D01*
X177071429Y-99840476D02*
X177452381Y-99554761D01*
X176785714Y-99554761D02*
X177166667Y-99935714D01*
X176785714Y-98697618D02*
X177452381Y-98697618D01*
X176785714Y-99126190D02*
X177309524Y-99126190D01*
X177404762Y-99078571D01*
X177452381Y-98983333D01*
X177452381Y-98840475D01*
X177404762Y-98745237D01*
X177357143Y-98697618D01*
X178802381Y-111733333D02*
X179516667Y-111733333D01*
X179659524Y-111780953D01*
X179754762Y-111876191D01*
X179802381Y-112019048D01*
X179802381Y-112114286D01*
X179802381Y-110733333D02*
X179802381Y-111304762D01*
X179802381Y-111019048D02*
X178802381Y-111019048D01*
X178945238Y-111114286D01*
X179040476Y-111209524D01*
X179088095Y-111304762D01*
X142640476Y-125402381D02*
X142640476Y-124402381D01*
X142973810Y-125116667D01*
X143307143Y-124402381D01*
X143307143Y-125402381D01*
X144307143Y-125402381D02*
X143735714Y-125402381D01*
X144021428Y-125402381D02*
X144021428Y-124402381D01*
X143926190Y-124545238D01*
X143830952Y-124640476D01*
X143735714Y-124688095D01*
X139775238Y-104321905D02*
X139775238Y-103521905D01*
X139965714Y-103521905D01*
X140080000Y-103560000D01*
X140156191Y-103636190D01*
X140194286Y-103712381D01*
X140232381Y-103864762D01*
X140232381Y-103979048D01*
X140194286Y-104131429D01*
X140156191Y-104207619D01*
X140080000Y-104283810D01*
X139965714Y-104321905D01*
X139775238Y-104321905D01*
X140575238Y-104017143D02*
X141184762Y-104017143D01*
X140880000Y-104321905D02*
X140880000Y-103712381D01*
X145745238Y-104451905D02*
X145745238Y-103651905D01*
X145935714Y-103651905D01*
X146050000Y-103690000D01*
X146126191Y-103766190D01*
X146164286Y-103842381D01*
X146202381Y-103994762D01*
X146202381Y-104109048D01*
X146164286Y-104261429D01*
X146126191Y-104337619D01*
X146050000Y-104413810D01*
X145935714Y-104451905D01*
X145745238Y-104451905D01*
X146545238Y-104147143D02*
X147154762Y-104147143D01*
X142188095Y-108002381D02*
X142188095Y-108811905D01*
X142235714Y-108907143D01*
X142283333Y-108954762D01*
X142378571Y-109002381D01*
X142569048Y-109002381D01*
X142664286Y-108954762D01*
X142711905Y-108907143D01*
X142759524Y-108811905D01*
X142759524Y-108002381D01*
X143188095Y-108954762D02*
X143330952Y-109002381D01*
X143569048Y-109002381D01*
X143664286Y-108954762D01*
X143711905Y-108907143D01*
X143759524Y-108811905D01*
X143759524Y-108716667D01*
X143711905Y-108621429D01*
X143664286Y-108573810D01*
X143569048Y-108526190D01*
X143378571Y-108478571D01*
X143283333Y-108430952D01*
X143235714Y-108383333D01*
X143188095Y-108288095D01*
X143188095Y-108192857D01*
X143235714Y-108097619D01*
X143283333Y-108050000D01*
X143378571Y-108002381D01*
X143616667Y-108002381D01*
X143759524Y-108050000D01*
X144521429Y-108478571D02*
X144664286Y-108526190D01*
X144711905Y-108573810D01*
X144759524Y-108669048D01*
X144759524Y-108811905D01*
X144711905Y-108907143D01*
X144664286Y-108954762D01*
X144569048Y-109002381D01*
X144188095Y-109002381D01*
X144188095Y-108002381D01*
X144521429Y-108002381D01*
X144616667Y-108050000D01*
X144664286Y-108097619D01*
X144711905Y-108192857D01*
X144711905Y-108288095D01*
X144664286Y-108383333D01*
X144616667Y-108430952D01*
X144521429Y-108478571D01*
X144188095Y-108478571D01*
X158388095Y-132872381D02*
X158388095Y-133681905D01*
X158435714Y-133777143D01*
X158483333Y-133824762D01*
X158578571Y-133872381D01*
X158769048Y-133872381D01*
X158864286Y-133824762D01*
X158911905Y-133777143D01*
X158959524Y-133681905D01*
X158959524Y-132872381D01*
X159959524Y-133872381D02*
X159388095Y-133872381D01*
X159673809Y-133872381D02*
X159673809Y-132872381D01*
X159578571Y-133015238D01*
X159483333Y-133110476D01*
X159388095Y-133158095D01*
X148920352Y-131576981D02*
X149110829Y-131576981D01*
X149206067Y-131624600D01*
X149301305Y-131719838D01*
X149348924Y-131910314D01*
X149348924Y-132243648D01*
X149301305Y-132434124D01*
X149206067Y-132529362D01*
X149110829Y-132576981D01*
X148920352Y-132576981D01*
X148825114Y-132529362D01*
X148729876Y-132434124D01*
X148682257Y-132243648D01*
X148682257Y-131910314D01*
X148729876Y-131719838D01*
X148825114Y-131624600D01*
X148920352Y-131576981D01*
X149777495Y-131576981D02*
X149777495Y-132386505D01*
X149825114Y-132481743D01*
X149872733Y-132529362D01*
X149967971Y-132576981D01*
X150158448Y-132576981D01*
X150253686Y-132529362D01*
X150301305Y-132481743D01*
X150348924Y-132386505D01*
X150348924Y-131576981D01*
X150682257Y-131576981D02*
X151253686Y-131576981D01*
X150967971Y-132576981D02*
X150967971Y-131576981D01*
X151587019Y-132196029D02*
X152348924Y-132196029D01*
X149102382Y-134628571D02*
X149245239Y-134676190D01*
X149292858Y-134723810D01*
X149340477Y-134819048D01*
X149340477Y-134961905D01*
X149292858Y-135057143D01*
X149245239Y-135104762D01*
X149150001Y-135152381D01*
X148769048Y-135152381D01*
X148769048Y-134152381D01*
X149102382Y-134152381D01*
X149197620Y-134200000D01*
X149245239Y-134247619D01*
X149292858Y-134342857D01*
X149292858Y-134438095D01*
X149245239Y-134533333D01*
X149197620Y-134580952D01*
X149102382Y-134628571D01*
X148769048Y-134628571D01*
X149769048Y-134771429D02*
X150530953Y-134771429D01*
X149102382Y-142228571D02*
X149245239Y-142276190D01*
X149292858Y-142323810D01*
X149340477Y-142419048D01*
X149340477Y-142561905D01*
X149292858Y-142657143D01*
X149245239Y-142704762D01*
X149150001Y-142752381D01*
X148769048Y-142752381D01*
X148769048Y-141752381D01*
X149102382Y-141752381D01*
X149197620Y-141800000D01*
X149245239Y-141847619D01*
X149292858Y-141942857D01*
X149292858Y-142038095D01*
X149245239Y-142133333D01*
X149197620Y-142180952D01*
X149102382Y-142228571D01*
X148769048Y-142228571D01*
X149769048Y-142371429D02*
X150530953Y-142371429D01*
X150150001Y-142752381D02*
X150150001Y-141990476D01*
X148920352Y-144556381D02*
X149110829Y-144556381D01*
X149206067Y-144604000D01*
X149301305Y-144699238D01*
X149348924Y-144889714D01*
X149348924Y-145223048D01*
X149301305Y-145413524D01*
X149206067Y-145508762D01*
X149110829Y-145556381D01*
X148920352Y-145556381D01*
X148825114Y-145508762D01*
X148729876Y-145413524D01*
X148682257Y-145223048D01*
X148682257Y-144889714D01*
X148729876Y-144699238D01*
X148825114Y-144604000D01*
X148920352Y-144556381D01*
X149777495Y-144556381D02*
X149777495Y-145365905D01*
X149825114Y-145461143D01*
X149872733Y-145508762D01*
X149967971Y-145556381D01*
X150158448Y-145556381D01*
X150253686Y-145508762D01*
X150301305Y-145461143D01*
X150348924Y-145365905D01*
X150348924Y-144556381D01*
X150682257Y-144556381D02*
X151253686Y-144556381D01*
X150967971Y-145556381D02*
X150967971Y-144556381D01*
X151587019Y-145175429D02*
X152348924Y-145175429D01*
X151967972Y-145556381D02*
X151967972Y-144794476D01*
X166907143Y-132552381D02*
X166907143Y-131552381D01*
X167383333Y-132552381D02*
X167383333Y-131552381D01*
X167954762Y-132552381D01*
X167954762Y-131552381D01*
X168430952Y-132171429D02*
X169192857Y-132171429D01*
X166807143Y-145252381D02*
X166807143Y-144252381D01*
X167283333Y-145252381D02*
X167283333Y-144252381D01*
X167854762Y-145252381D01*
X167854762Y-144252381D01*
X168330952Y-144871429D02*
X169092857Y-144871429D01*
X168711905Y-145252381D02*
X168711905Y-144490476D01*
M02*
