G04 #@! TF.FileFunction,Soldermask,Top*
%FSLAX46Y46*%
G04 Gerber Fmt 4.6, Leading zero omitted, Abs format (unit mm)*
G04 Created by KiCad (PCBNEW 4.0.6+dfsg1-1) date Mon Jan 15 22:55:25 2018*
%MOMM*%
%LPD*%
G01*
G04 APERTURE LIST*
%ADD10C,0.100000*%
%ADD11R,2.150000X2.150000*%
%ADD12C,2.150000*%
%ADD13C,2.400000*%
%ADD14C,1.924000*%
%ADD15R,2.000000X2.000000*%
%ADD16O,2.000000X2.000000*%
G04 APERTURE END LIST*
D10*
D11*
X148500000Y-92700000D03*
D12*
X151000000Y-92700000D03*
D11*
X126000000Y-107300000D03*
D12*
X126000000Y-109800000D03*
D11*
X126000000Y-117000000D03*
D12*
X126000000Y-119500000D03*
D13*
X174200000Y-94500000D03*
X174200000Y-90000000D03*
X180700000Y-94500000D03*
X180700000Y-90000000D03*
X123700000Y-94500000D03*
X123700000Y-90000000D03*
X130200000Y-94500000D03*
X130200000Y-90000000D03*
X123700000Y-144000000D03*
X123700000Y-139500000D03*
X130200000Y-144000000D03*
X130200000Y-139500000D03*
X180700000Y-139500000D03*
X180700000Y-144000000D03*
X174200000Y-139500000D03*
X174200000Y-144000000D03*
D11*
X177600000Y-127300000D03*
D12*
X177600000Y-124800000D03*
D14*
X160290000Y-108970000D03*
X167910000Y-108970000D03*
X170450000Y-108970000D03*
X157750000Y-108970000D03*
X170450000Y-131830000D03*
X157750000Y-131830000D03*
D15*
X138700000Y-102200000D03*
D16*
X146320000Y-109820000D03*
X138700000Y-104740000D03*
X146320000Y-107280000D03*
X138700000Y-107280000D03*
X146320000Y-104740000D03*
X138700000Y-109820000D03*
X146320000Y-102200000D03*
D14*
X150512000Y-137990000D03*
X150512000Y-135450000D03*
X150512000Y-132910000D03*
X150512000Y-130370000D03*
X150512000Y-127830000D03*
X150512000Y-125290000D03*
X150512000Y-122750000D03*
X150512000Y-120210000D03*
X136288000Y-137990000D03*
X136288000Y-135450000D03*
X136288000Y-132910000D03*
X136288000Y-130370000D03*
X136288000Y-127830000D03*
X136288000Y-125290000D03*
X136288000Y-122750000D03*
X136288000Y-120210000D03*
M02*
