G04 #@! TF.FileFunction,Legend,Bot*
%FSLAX46Y46*%
G04 Gerber Fmt 4.6, Leading zero omitted, Abs format (unit mm)*
G04 Created by KiCad (PCBNEW 4.0.6+dfsg1-1) date Tue Jan 16 20:58:11 2018*
%MOMM*%
%LPD*%
G01*
G04 APERTURE LIST*
%ADD10C,0.100000*%
%ADD11C,0.300000*%
%ADD12C,0.010000*%
G04 APERTURE END LIST*
D10*
D11*
X165503571Y-98058036D02*
X164003571Y-98245536D01*
X165503571Y-98915179D01*
X164003571Y-99102679D01*
X164003571Y-100102679D02*
X164003571Y-100388393D01*
X164075000Y-100522322D01*
X164217857Y-100647322D01*
X164503571Y-100683036D01*
X165003571Y-100620536D01*
X165289286Y-100513393D01*
X165432143Y-100352679D01*
X165503571Y-100200893D01*
X165503571Y-99915179D01*
X165432143Y-99781250D01*
X165289286Y-99656250D01*
X165003571Y-99620536D01*
X164503571Y-99683036D01*
X164217857Y-99790179D01*
X164075000Y-99950893D01*
X164003571Y-100102679D01*
X165503571Y-101200894D02*
X164003571Y-101388394D01*
X165503571Y-102058037D02*
X164646429Y-101522322D01*
X164003571Y-102245537D02*
X164860714Y-101281251D01*
X164003571Y-103174108D02*
X164003571Y-103459822D01*
X164075000Y-103593751D01*
X164217857Y-103718751D01*
X164503571Y-103754465D01*
X165003571Y-103691965D01*
X165289286Y-103584822D01*
X165432143Y-103424108D01*
X165503571Y-103272322D01*
X165503571Y-102986608D01*
X165432143Y-102852679D01*
X165289286Y-102727679D01*
X165003571Y-102691965D01*
X164503571Y-102754465D01*
X164217857Y-102861608D01*
X164075000Y-103022322D01*
X164003571Y-103174108D01*
X165503571Y-104486609D02*
X165432143Y-104352679D01*
X165289286Y-104299108D01*
X164003571Y-104459823D01*
X165503571Y-105058037D02*
X164503571Y-105183037D01*
X164003571Y-105245537D02*
X164075000Y-105165179D01*
X164146429Y-105227679D01*
X164075000Y-105308036D01*
X164003571Y-105245537D01*
X164146429Y-105227679D01*
X164503571Y-105897323D02*
X165503571Y-105772323D01*
X164646429Y-105879465D02*
X164575000Y-105959822D01*
X164503571Y-106111609D01*
X164503571Y-106325894D01*
X164575000Y-106459822D01*
X164717857Y-106513394D01*
X165503571Y-106415180D01*
X165503571Y-107343752D02*
X165432143Y-107209822D01*
X165360714Y-107147323D01*
X165217857Y-107093751D01*
X164789286Y-107147322D01*
X164646429Y-107236608D01*
X164575000Y-107316965D01*
X164503571Y-107468752D01*
X164503571Y-107683037D01*
X164575000Y-107816965D01*
X164646429Y-107879465D01*
X164789286Y-107933037D01*
X165217857Y-107879466D01*
X165360714Y-107790180D01*
X165432143Y-107709822D01*
X165503571Y-107558037D01*
X165503571Y-107343752D01*
X168053571Y-93665179D02*
X166553571Y-93852679D01*
X167125000Y-93781250D02*
X167053571Y-93933036D01*
X167053571Y-94218750D01*
X167125000Y-94352678D01*
X167196429Y-94415178D01*
X167339286Y-94468750D01*
X167767857Y-94415179D01*
X167910714Y-94325893D01*
X167982143Y-94245535D01*
X168053571Y-94093750D01*
X168053571Y-93808036D01*
X167982143Y-93674107D01*
X167053571Y-95004465D02*
X168053571Y-95236608D01*
X167053571Y-95718750D02*
X168053571Y-95236608D01*
X168410714Y-95049107D01*
X168482143Y-94968750D01*
X168553571Y-94816965D01*
X168053571Y-97308036D02*
X166553571Y-97495536D01*
X168053571Y-98165179D01*
X166553571Y-98352679D01*
X168053571Y-98879465D02*
X167053571Y-99004465D01*
X166553571Y-99066965D02*
X166625000Y-98986607D01*
X166696429Y-99049107D01*
X166625000Y-99129464D01*
X166553571Y-99066965D01*
X166696429Y-99049107D01*
X168053571Y-99593751D02*
X166553571Y-99781251D01*
X167482143Y-99808036D02*
X168053571Y-100165179D01*
X167053571Y-100290179D02*
X167625000Y-99647322D01*
X168053571Y-101022323D02*
X167982143Y-100888393D01*
X167910714Y-100825894D01*
X167767857Y-100772322D01*
X167339286Y-100825893D01*
X167196429Y-100915179D01*
X167125000Y-100995536D01*
X167053571Y-101147323D01*
X167053571Y-101361608D01*
X167125000Y-101495536D01*
X167196429Y-101558036D01*
X167339286Y-101611608D01*
X167767857Y-101558037D01*
X167910714Y-101468751D01*
X167982143Y-101388393D01*
X168053571Y-101236608D01*
X168053571Y-101022323D01*
X168053571Y-102379466D02*
X167982143Y-102245536D01*
X167839286Y-102191965D01*
X166553571Y-102352680D01*
X168053571Y-103593751D02*
X167267857Y-103691965D01*
X167125000Y-103638393D01*
X167053571Y-103504465D01*
X167053571Y-103218751D01*
X167125000Y-103066965D01*
X167982143Y-103602679D02*
X168053571Y-103450894D01*
X168053571Y-103093751D01*
X167982143Y-102959822D01*
X167839286Y-102906250D01*
X167696429Y-102924107D01*
X167553571Y-103013394D01*
X167482143Y-103165179D01*
X167482143Y-103522322D01*
X167410714Y-103674108D01*
X168053571Y-104308037D02*
X167053571Y-104433037D01*
X166553571Y-104495537D02*
X166625000Y-104415179D01*
X166696429Y-104477679D01*
X166625000Y-104558036D01*
X166553571Y-104495537D01*
X166696429Y-104477679D01*
X168053571Y-107022323D02*
X167339286Y-106611608D01*
X168053571Y-106165180D02*
X166553571Y-106352680D01*
X166553571Y-106924108D01*
X166625000Y-107058037D01*
X166696429Y-107120536D01*
X166839286Y-107174108D01*
X167053571Y-107147323D01*
X167196429Y-107058036D01*
X167267857Y-106977680D01*
X167339286Y-106825893D01*
X167339286Y-106254465D01*
X168053571Y-108308037D02*
X167267857Y-108406251D01*
X167125000Y-108352679D01*
X167053571Y-108218751D01*
X167053571Y-107933037D01*
X167125000Y-107781251D01*
X167982143Y-108316965D02*
X168053571Y-108165180D01*
X168053571Y-107808037D01*
X167982143Y-107674108D01*
X167839286Y-107620536D01*
X167696429Y-107638393D01*
X167553571Y-107727680D01*
X167482143Y-107879465D01*
X167482143Y-108236608D01*
X167410714Y-108388394D01*
X168053571Y-109665180D02*
X166553571Y-109852680D01*
X167982143Y-109674108D02*
X168053571Y-109522323D01*
X168053571Y-109236609D01*
X167982143Y-109102679D01*
X167910714Y-109040180D01*
X167767857Y-108986608D01*
X167339286Y-109040179D01*
X167196429Y-109129465D01*
X167125000Y-109209822D01*
X167053571Y-109361609D01*
X167053571Y-109647323D01*
X167125000Y-109781251D01*
X168053571Y-110379466D02*
X166553571Y-110566966D01*
X167482143Y-110593751D02*
X168053571Y-110950894D01*
X167053571Y-111075894D02*
X167625000Y-110433037D01*
X167982143Y-112174108D02*
X168053571Y-112022323D01*
X168053571Y-111736609D01*
X167982143Y-111602680D01*
X167839286Y-111549108D01*
X167267857Y-111620537D01*
X167125000Y-111709823D01*
X167053571Y-111861609D01*
X167053571Y-112147323D01*
X167125000Y-112281251D01*
X167267857Y-112334823D01*
X167410714Y-112316966D01*
X167553571Y-111584823D01*
D12*
G36*
X133912356Y-117134535D02*
X134676291Y-117370673D01*
X135287222Y-117461216D01*
X136536068Y-117673916D01*
X137894403Y-117998829D01*
X138523875Y-118187080D01*
X139764844Y-118491867D01*
X141161435Y-118684738D01*
X141895349Y-118720000D01*
X143652947Y-118720000D01*
X142750918Y-119650658D01*
X142208677Y-120272618D01*
X141887044Y-120762300D01*
X141848889Y-120890463D01*
X142078982Y-121268888D01*
X142695538Y-121407522D01*
X143587971Y-121334044D01*
X144645697Y-121076134D01*
X145758130Y-120661473D01*
X146814685Y-120117740D01*
X147704777Y-119472616D01*
X147777161Y-119406594D01*
X148486948Y-118950357D01*
X149563116Y-118610142D01*
X150544067Y-118426934D01*
X151663678Y-118210000D01*
X152994613Y-117886839D01*
X154404498Y-117497494D01*
X155760959Y-117082007D01*
X156931624Y-116680420D01*
X157784120Y-116332776D01*
X158136658Y-116130211D01*
X158483659Y-115568594D01*
X158303847Y-114932379D01*
X157625067Y-114251632D01*
X156475161Y-113556421D01*
X155254444Y-113017731D01*
X154573134Y-112714064D01*
X154228380Y-112368794D01*
X154087440Y-111783004D01*
X154043693Y-111203368D01*
X153961830Y-109830000D01*
X155617679Y-109190878D01*
X157126631Y-108496819D01*
X158072414Y-107797048D01*
X158454606Y-107092008D01*
X158281715Y-106396011D01*
X157852831Y-106084597D01*
X156964093Y-105696612D01*
X155710000Y-105261744D01*
X154185051Y-104809682D01*
X152483744Y-104370113D01*
X150700577Y-103972724D01*
X150334981Y-103899455D01*
X148901409Y-103541078D01*
X147920566Y-103103153D01*
X147494035Y-102775117D01*
X146676260Y-102206140D01*
X145521988Y-101657842D01*
X144255391Y-101216079D01*
X143100641Y-100966710D01*
X142702606Y-100940000D01*
X142272222Y-101017923D01*
X142272222Y-101447564D01*
X143542222Y-101651264D01*
X144548185Y-101901763D01*
X145640428Y-102309696D01*
X146648385Y-102795656D01*
X147401493Y-103280234D01*
X147689139Y-103581911D01*
X148054988Y-103810742D01*
X148834243Y-104083659D01*
X149883284Y-104353518D01*
X150315556Y-104444037D01*
X152318724Y-104876679D01*
X154122771Y-105341269D01*
X155657028Y-105813593D01*
X156850825Y-106269436D01*
X157633492Y-106684585D01*
X157934359Y-107034825D01*
X157935556Y-107054958D01*
X157682791Y-107383068D01*
X156977234Y-107849297D01*
X155897987Y-108402863D01*
X155677778Y-108504393D01*
X153420000Y-109529998D01*
X153420000Y-111297400D01*
X153435154Y-112266524D01*
X153518889Y-112815868D01*
X153728613Y-113089986D01*
X154121733Y-113233433D01*
X154196111Y-113251663D01*
X154980611Y-113511810D01*
X155913164Y-113918808D01*
X156817426Y-114383213D01*
X157517056Y-114815579D01*
X157817588Y-115088558D01*
X157781597Y-115496041D01*
X157270503Y-115937815D01*
X156365504Y-116352652D01*
X155973037Y-116479469D01*
X154045458Y-117019652D01*
X152217104Y-117483007D01*
X150641206Y-117832563D01*
X149624912Y-118011162D01*
X148199486Y-118426555D01*
X147157639Y-119123629D01*
X146477133Y-119587168D01*
X145563326Y-120058768D01*
X144563404Y-120481839D01*
X143624552Y-120799790D01*
X142893955Y-120956030D01*
X142527540Y-120903836D01*
X142626747Y-120643084D01*
X143055004Y-120142516D01*
X143517125Y-119696877D01*
X144154319Y-119085781D01*
X144573426Y-118615907D01*
X144671111Y-118442670D01*
X144409222Y-118338834D01*
X143704147Y-118230279D01*
X142676773Y-118132756D01*
X141919444Y-118084124D01*
X140474033Y-117962200D01*
X139200463Y-117772168D01*
X138273503Y-117541715D01*
X138118509Y-117481947D01*
X137103406Y-117172223D01*
X136037034Y-117028003D01*
X135947943Y-117026666D01*
X135057552Y-116951639D01*
X134709125Y-116740041D01*
X134908456Y-116412095D01*
X135651614Y-115992421D01*
X136352927Y-115646433D01*
X136651955Y-115324639D01*
X136662990Y-114823757D01*
X136577539Y-114345555D01*
X136445147Y-113250767D01*
X136382618Y-111846977D01*
X136389100Y-110352597D01*
X136463741Y-108986038D01*
X136602386Y-107980456D01*
X136707851Y-107348482D01*
X136584064Y-106971804D01*
X136117193Y-106664710D01*
X135667927Y-106455927D01*
X134973018Y-106098345D01*
X134560410Y-105800602D01*
X134511111Y-105715223D01*
X134766083Y-105566997D01*
X135426594Y-105407919D01*
X136133889Y-105300671D01*
X137229600Y-105119373D01*
X138254155Y-104869878D01*
X138708355Y-104715919D01*
X139521519Y-104513378D01*
X140725438Y-104377185D01*
X142148384Y-104326674D01*
X142165577Y-104326666D01*
X143275807Y-104305726D01*
X144133844Y-104249685D01*
X144612909Y-104168714D01*
X144671111Y-104125682D01*
X144489315Y-103831904D01*
X144016830Y-103271177D01*
X143471667Y-102686131D01*
X142272222Y-101447564D01*
X142272222Y-101017923D01*
X142055234Y-101057210D01*
X141877497Y-101423837D01*
X142169668Y-102062373D01*
X142724792Y-102764624D01*
X143600694Y-103762222D01*
X141666458Y-103774609D01*
X140472131Y-103842565D01*
X139324722Y-104006590D01*
X138603333Y-104190500D01*
X137644752Y-104460071D01*
X136474456Y-104692533D01*
X135886220Y-104775101D01*
X134680778Y-104950004D01*
X134000570Y-105165898D01*
X133806388Y-105466220D01*
X134059029Y-105894407D01*
X134500450Y-106310433D01*
X135169656Y-106818277D01*
X135711862Y-107116204D01*
X135853794Y-107148889D01*
X136079924Y-107288528D01*
X136083460Y-107783946D01*
X136005566Y-108207222D01*
X135867050Y-109248585D01*
X135797138Y-110595765D01*
X135796742Y-112023679D01*
X135866772Y-113307244D01*
X135981662Y-114113586D01*
X136061031Y-114664695D01*
X135920751Y-115047785D01*
X135455607Y-115425361D01*
X134923328Y-115748260D01*
X134040581Y-116345482D01*
X133702021Y-116800189D01*
X133912356Y-117134535D01*
X133912356Y-117134535D01*
G37*
X133912356Y-117134535D02*
X134676291Y-117370673D01*
X135287222Y-117461216D01*
X136536068Y-117673916D01*
X137894403Y-117998829D01*
X138523875Y-118187080D01*
X139764844Y-118491867D01*
X141161435Y-118684738D01*
X141895349Y-118720000D01*
X143652947Y-118720000D01*
X142750918Y-119650658D01*
X142208677Y-120272618D01*
X141887044Y-120762300D01*
X141848889Y-120890463D01*
X142078982Y-121268888D01*
X142695538Y-121407522D01*
X143587971Y-121334044D01*
X144645697Y-121076134D01*
X145758130Y-120661473D01*
X146814685Y-120117740D01*
X147704777Y-119472616D01*
X147777161Y-119406594D01*
X148486948Y-118950357D01*
X149563116Y-118610142D01*
X150544067Y-118426934D01*
X151663678Y-118210000D01*
X152994613Y-117886839D01*
X154404498Y-117497494D01*
X155760959Y-117082007D01*
X156931624Y-116680420D01*
X157784120Y-116332776D01*
X158136658Y-116130211D01*
X158483659Y-115568594D01*
X158303847Y-114932379D01*
X157625067Y-114251632D01*
X156475161Y-113556421D01*
X155254444Y-113017731D01*
X154573134Y-112714064D01*
X154228380Y-112368794D01*
X154087440Y-111783004D01*
X154043693Y-111203368D01*
X153961830Y-109830000D01*
X155617679Y-109190878D01*
X157126631Y-108496819D01*
X158072414Y-107797048D01*
X158454606Y-107092008D01*
X158281715Y-106396011D01*
X157852831Y-106084597D01*
X156964093Y-105696612D01*
X155710000Y-105261744D01*
X154185051Y-104809682D01*
X152483744Y-104370113D01*
X150700577Y-103972724D01*
X150334981Y-103899455D01*
X148901409Y-103541078D01*
X147920566Y-103103153D01*
X147494035Y-102775117D01*
X146676260Y-102206140D01*
X145521988Y-101657842D01*
X144255391Y-101216079D01*
X143100641Y-100966710D01*
X142702606Y-100940000D01*
X142272222Y-101017923D01*
X142272222Y-101447564D01*
X143542222Y-101651264D01*
X144548185Y-101901763D01*
X145640428Y-102309696D01*
X146648385Y-102795656D01*
X147401493Y-103280234D01*
X147689139Y-103581911D01*
X148054988Y-103810742D01*
X148834243Y-104083659D01*
X149883284Y-104353518D01*
X150315556Y-104444037D01*
X152318724Y-104876679D01*
X154122771Y-105341269D01*
X155657028Y-105813593D01*
X156850825Y-106269436D01*
X157633492Y-106684585D01*
X157934359Y-107034825D01*
X157935556Y-107054958D01*
X157682791Y-107383068D01*
X156977234Y-107849297D01*
X155897987Y-108402863D01*
X155677778Y-108504393D01*
X153420000Y-109529998D01*
X153420000Y-111297400D01*
X153435154Y-112266524D01*
X153518889Y-112815868D01*
X153728613Y-113089986D01*
X154121733Y-113233433D01*
X154196111Y-113251663D01*
X154980611Y-113511810D01*
X155913164Y-113918808D01*
X156817426Y-114383213D01*
X157517056Y-114815579D01*
X157817588Y-115088558D01*
X157781597Y-115496041D01*
X157270503Y-115937815D01*
X156365504Y-116352652D01*
X155973037Y-116479469D01*
X154045458Y-117019652D01*
X152217104Y-117483007D01*
X150641206Y-117832563D01*
X149624912Y-118011162D01*
X148199486Y-118426555D01*
X147157639Y-119123629D01*
X146477133Y-119587168D01*
X145563326Y-120058768D01*
X144563404Y-120481839D01*
X143624552Y-120799790D01*
X142893955Y-120956030D01*
X142527540Y-120903836D01*
X142626747Y-120643084D01*
X143055004Y-120142516D01*
X143517125Y-119696877D01*
X144154319Y-119085781D01*
X144573426Y-118615907D01*
X144671111Y-118442670D01*
X144409222Y-118338834D01*
X143704147Y-118230279D01*
X142676773Y-118132756D01*
X141919444Y-118084124D01*
X140474033Y-117962200D01*
X139200463Y-117772168D01*
X138273503Y-117541715D01*
X138118509Y-117481947D01*
X137103406Y-117172223D01*
X136037034Y-117028003D01*
X135947943Y-117026666D01*
X135057552Y-116951639D01*
X134709125Y-116740041D01*
X134908456Y-116412095D01*
X135651614Y-115992421D01*
X136352927Y-115646433D01*
X136651955Y-115324639D01*
X136662990Y-114823757D01*
X136577539Y-114345555D01*
X136445147Y-113250767D01*
X136382618Y-111846977D01*
X136389100Y-110352597D01*
X136463741Y-108986038D01*
X136602386Y-107980456D01*
X136707851Y-107348482D01*
X136584064Y-106971804D01*
X136117193Y-106664710D01*
X135667927Y-106455927D01*
X134973018Y-106098345D01*
X134560410Y-105800602D01*
X134511111Y-105715223D01*
X134766083Y-105566997D01*
X135426594Y-105407919D01*
X136133889Y-105300671D01*
X137229600Y-105119373D01*
X138254155Y-104869878D01*
X138708355Y-104715919D01*
X139521519Y-104513378D01*
X140725438Y-104377185D01*
X142148384Y-104326674D01*
X142165577Y-104326666D01*
X143275807Y-104305726D01*
X144133844Y-104249685D01*
X144612909Y-104168714D01*
X144671111Y-104125682D01*
X144489315Y-103831904D01*
X144016830Y-103271177D01*
X143471667Y-102686131D01*
X142272222Y-101447564D01*
X142272222Y-101017923D01*
X142055234Y-101057210D01*
X141877497Y-101423837D01*
X142169668Y-102062373D01*
X142724792Y-102764624D01*
X143600694Y-103762222D01*
X141666458Y-103774609D01*
X140472131Y-103842565D01*
X139324722Y-104006590D01*
X138603333Y-104190500D01*
X137644752Y-104460071D01*
X136474456Y-104692533D01*
X135886220Y-104775101D01*
X134680778Y-104950004D01*
X134000570Y-105165898D01*
X133806388Y-105466220D01*
X134059029Y-105894407D01*
X134500450Y-106310433D01*
X135169656Y-106818277D01*
X135711862Y-107116204D01*
X135853794Y-107148889D01*
X136079924Y-107288528D01*
X136083460Y-107783946D01*
X136005566Y-108207222D01*
X135867050Y-109248585D01*
X135797138Y-110595765D01*
X135796742Y-112023679D01*
X135866772Y-113307244D01*
X135981662Y-114113586D01*
X136061031Y-114664695D01*
X135920751Y-115047785D01*
X135455607Y-115425361D01*
X134923328Y-115748260D01*
X134040581Y-116345482D01*
X133702021Y-116800189D01*
X133912356Y-117134535D01*
G36*
X152008889Y-115897778D02*
X152008889Y-106584444D01*
X148904444Y-106584444D01*
X148904444Y-106866666D01*
X151444444Y-106866666D01*
X151444444Y-115615555D01*
X148904444Y-115615555D01*
X148904444Y-106866666D01*
X148904444Y-106584444D01*
X148340000Y-106584444D01*
X148340000Y-115897778D01*
X152008889Y-115897778D01*
X152008889Y-115897778D01*
G37*
X152008889Y-115897778D02*
X152008889Y-106584444D01*
X148904444Y-106584444D01*
X148904444Y-106866666D01*
X151444444Y-106866666D01*
X151444444Y-115615555D01*
X148904444Y-115615555D01*
X148904444Y-106866666D01*
X148904444Y-106584444D01*
X148340000Y-106584444D01*
X148340000Y-115897778D01*
X152008889Y-115897778D01*
G36*
X141372592Y-112012924D02*
X141769941Y-112654891D01*
X142421268Y-113001563D01*
X143115248Y-112968101D01*
X143373523Y-112816229D01*
X143782050Y-112162847D01*
X143929337Y-111230651D01*
X143875531Y-110676666D01*
X143504536Y-109816838D01*
X142827989Y-109429985D01*
X142827640Y-109429956D01*
X142827640Y-109739199D01*
X143135165Y-110095607D01*
X143514392Y-110958028D01*
X143333849Y-111805494D01*
X143159700Y-112079692D01*
X142653601Y-112441471D01*
X142138697Y-112305834D01*
X141744440Y-111722614D01*
X141679148Y-111509741D01*
X141670814Y-110791150D01*
X142110348Y-110157101D01*
X142558075Y-109754100D01*
X142827640Y-109739199D01*
X142827640Y-109429956D01*
X142554444Y-109406666D01*
X141796073Y-109640323D01*
X141346851Y-110286967D01*
X141243730Y-111265111D01*
X141372592Y-112012924D01*
X141372592Y-112012924D01*
G37*
X141372592Y-112012924D02*
X141769941Y-112654891D01*
X142421268Y-113001563D01*
X143115248Y-112968101D01*
X143373523Y-112816229D01*
X143782050Y-112162847D01*
X143929337Y-111230651D01*
X143875531Y-110676666D01*
X143504536Y-109816838D01*
X142827989Y-109429985D01*
X142827640Y-109429956D01*
X142827640Y-109739199D01*
X143135165Y-110095607D01*
X143514392Y-110958028D01*
X143333849Y-111805494D01*
X143159700Y-112079692D01*
X142653601Y-112441471D01*
X142138697Y-112305834D01*
X141744440Y-111722614D01*
X141679148Y-111509741D01*
X141670814Y-110791150D01*
X142110348Y-110157101D01*
X142558075Y-109754100D01*
X142827640Y-109739199D01*
X142827640Y-109429956D01*
X142554444Y-109406666D01*
X141796073Y-109640323D01*
X141346851Y-110286967D01*
X141243730Y-111265111D01*
X141372592Y-112012924D01*
G36*
X139228505Y-108239622D02*
X139634605Y-108864439D01*
X140241246Y-109311709D01*
X140612671Y-109406666D01*
X141224395Y-109163515D01*
X141652067Y-108568154D01*
X141822995Y-107821727D01*
X141664487Y-107125373D01*
X141510222Y-106923111D01*
X140884364Y-106619534D01*
X140371995Y-106683225D01*
X140371995Y-107148889D01*
X141025000Y-107303086D01*
X141246546Y-107806928D01*
X141225794Y-108125053D01*
X140926865Y-108612875D01*
X140578889Y-108701111D01*
X140117163Y-108514254D01*
X139925143Y-107925000D01*
X139946609Y-107348350D01*
X140254010Y-107154468D01*
X140371995Y-107148889D01*
X140371995Y-106683225D01*
X140180706Y-106707004D01*
X139566384Y-107089087D01*
X139208534Y-107669347D01*
X139228505Y-108239622D01*
X139228505Y-108239622D01*
G37*
X139228505Y-108239622D02*
X139634605Y-108864439D01*
X140241246Y-109311709D01*
X140612671Y-109406666D01*
X141224395Y-109163515D01*
X141652067Y-108568154D01*
X141822995Y-107821727D01*
X141664487Y-107125373D01*
X141510222Y-106923111D01*
X140884364Y-106619534D01*
X140371995Y-106683225D01*
X140371995Y-107148889D01*
X141025000Y-107303086D01*
X141246546Y-107806928D01*
X141225794Y-108125053D01*
X140926865Y-108612875D01*
X140578889Y-108701111D01*
X140117163Y-108514254D01*
X139925143Y-107925000D01*
X139946609Y-107348350D01*
X140254010Y-107154468D01*
X140371995Y-107148889D01*
X140371995Y-106683225D01*
X140180706Y-106707004D01*
X139566384Y-107089087D01*
X139208534Y-107669347D01*
X139228505Y-108239622D01*
G36*
X139435313Y-115226549D02*
X139466003Y-115270537D01*
X140091353Y-115769509D01*
X140852477Y-115874683D01*
X141510222Y-115559111D01*
X141816740Y-114901755D01*
X141751447Y-114106825D01*
X141405397Y-113519047D01*
X140744002Y-113115802D01*
X140497093Y-113167379D01*
X140497093Y-113679794D01*
X140894420Y-113754841D01*
X141231169Y-114115887D01*
X141214978Y-114641310D01*
X140902469Y-115107081D01*
X140508333Y-115282406D01*
X140030524Y-115242272D01*
X139877772Y-114831880D01*
X139873333Y-114664062D01*
X140037746Y-113946928D01*
X140497093Y-113679794D01*
X140497093Y-113167379D01*
X140066456Y-113257337D01*
X139591111Y-113640000D01*
X139135629Y-114176915D01*
X139090140Y-114621782D01*
X139435313Y-115226549D01*
X139435313Y-115226549D01*
G37*
X139435313Y-115226549D02*
X139466003Y-115270537D01*
X140091353Y-115769509D01*
X140852477Y-115874683D01*
X141510222Y-115559111D01*
X141816740Y-114901755D01*
X141751447Y-114106825D01*
X141405397Y-113519047D01*
X140744002Y-113115802D01*
X140497093Y-113167379D01*
X140497093Y-113679794D01*
X140894420Y-113754841D01*
X141231169Y-114115887D01*
X141214978Y-114641310D01*
X140902469Y-115107081D01*
X140508333Y-115282406D01*
X140030524Y-115242272D01*
X139877772Y-114831880D01*
X139873333Y-114664062D01*
X140037746Y-113946928D01*
X140497093Y-113679794D01*
X140497093Y-113167379D01*
X140066456Y-113257337D01*
X139591111Y-113640000D01*
X139135629Y-114176915D01*
X139090140Y-114621782D01*
X139435313Y-115226549D01*
M02*
