G04 #@! TF.FileFunction,Soldermask,Top*
%FSLAX46Y46*%
G04 Gerber Fmt 4.6, Leading zero omitted, Abs format (unit mm)*
G04 Created by KiCad (PCBNEW 4.0.6+dfsg1-1) date Sat Jan 20 11:22:17 2018*
%MOMM*%
%LPD*%
G01*
G04 APERTURE LIST*
%ADD10C,0.100000*%
%ADD11R,2.250000X2.250000*%
%ADD12C,2.250000*%
%ADD13C,1.924000*%
%ADD14R,2.000000X2.000000*%
%ADD15O,2.000000X2.000000*%
%ADD16C,2.400000*%
G04 APERTURE END LIST*
D10*
D11*
X146800000Y-95000000D03*
D12*
X149300000Y-95000000D03*
D13*
X147720000Y-142310000D03*
X147720000Y-134690000D03*
X147720000Y-132150000D03*
X147720000Y-144850000D03*
X170580000Y-132150000D03*
X170580000Y-144850000D03*
D14*
X142950000Y-138250000D03*
D15*
X135330000Y-130630000D03*
X142950000Y-135710000D03*
X135330000Y-133170000D03*
X142950000Y-133170000D03*
X135330000Y-135710000D03*
X142950000Y-130630000D03*
X135330000Y-138250000D03*
D13*
X150662000Y-126440000D03*
X150662000Y-123900000D03*
X150662000Y-121360000D03*
X150662000Y-118820000D03*
X150662000Y-116280000D03*
X150662000Y-113740000D03*
X150662000Y-111200000D03*
X150662000Y-108660000D03*
X136438000Y-126440000D03*
X136438000Y-123900000D03*
X136438000Y-121360000D03*
X136438000Y-118820000D03*
X136438000Y-116280000D03*
X136438000Y-113740000D03*
X136438000Y-111200000D03*
X136438000Y-108660000D03*
X144750000Y-103950000D03*
X142350000Y-103950000D03*
D16*
X134700000Y-93500000D03*
X134700000Y-89000000D03*
X141200000Y-93500000D03*
X141200000Y-89000000D03*
X175200000Y-93500000D03*
X175200000Y-89000000D03*
X181700000Y-93500000D03*
X181700000Y-89000000D03*
X175200000Y-146000000D03*
X175200000Y-141500000D03*
X181700000Y-146000000D03*
X181700000Y-141500000D03*
X134700000Y-146000000D03*
X134700000Y-141500000D03*
X141200000Y-146000000D03*
X141200000Y-141500000D03*
D11*
X175750000Y-103650000D03*
D12*
X175750000Y-106150000D03*
D11*
X175700000Y-117250000D03*
D12*
X175700000Y-119750000D03*
X175700000Y-122250000D03*
X175700000Y-124750000D03*
D13*
X157250000Y-122700000D03*
X169250000Y-122700000D03*
M02*
