G04 #@! TF.FileFunction,Legend,Top*
%FSLAX46Y46*%
G04 Gerber Fmt 4.6, Leading zero omitted, Abs format (unit mm)*
G04 Created by KiCad (PCBNEW 4.0.6+dfsg1-1) date Thu Jan 18 10:21:15 2018*
%MOMM*%
%LPD*%
G01*
G04 APERTURE LIST*
%ADD10C,0.100000*%
%ADD11C,0.300000*%
%ADD12C,0.250000*%
%ADD13C,0.150000*%
%ADD14C,0.120000*%
G04 APERTURE END LIST*
D10*
D11*
X179478572Y-103907143D02*
X180621429Y-103907143D01*
X180050000Y-104478571D02*
X180050000Y-103335714D01*
X176328572Y-104107143D02*
X177471429Y-104107143D01*
D12*
X173988096Y-126050000D02*
X173892858Y-126002381D01*
X173750001Y-126002381D01*
X173607143Y-126050000D01*
X173511905Y-126145238D01*
X173464286Y-126240476D01*
X173416667Y-126430952D01*
X173416667Y-126573810D01*
X173464286Y-126764286D01*
X173511905Y-126859524D01*
X173607143Y-126954762D01*
X173750001Y-127002381D01*
X173845239Y-127002381D01*
X173988096Y-126954762D01*
X174035715Y-126907143D01*
X174035715Y-126573810D01*
X173845239Y-126573810D01*
X174464286Y-127002381D02*
X174464286Y-126002381D01*
X175035715Y-127002381D01*
X175035715Y-126002381D01*
X175511905Y-127002381D02*
X175511905Y-126002381D01*
X175750000Y-126002381D01*
X175892858Y-126050000D01*
X175988096Y-126145238D01*
X176035715Y-126240476D01*
X176083334Y-126430952D01*
X176083334Y-126573810D01*
X176035715Y-126764286D01*
X175988096Y-126859524D01*
X175892858Y-126954762D01*
X175750000Y-127002381D01*
X175511905Y-127002381D01*
X173466667Y-123502381D02*
X173800000Y-124502381D01*
X174133334Y-123502381D01*
X175038096Y-124407143D02*
X174990477Y-124454762D01*
X174847620Y-124502381D01*
X174752382Y-124502381D01*
X174609524Y-124454762D01*
X174514286Y-124359524D01*
X174466667Y-124264286D01*
X174419048Y-124073810D01*
X174419048Y-123930952D01*
X174466667Y-123740476D01*
X174514286Y-123645238D01*
X174609524Y-123550000D01*
X174752382Y-123502381D01*
X174847620Y-123502381D01*
X174990477Y-123550000D01*
X175038096Y-123597619D01*
X176038096Y-124407143D02*
X175990477Y-124454762D01*
X175847620Y-124502381D01*
X175752382Y-124502381D01*
X175609524Y-124454762D01*
X175514286Y-124359524D01*
X175466667Y-124264286D01*
X175419048Y-124073810D01*
X175419048Y-123930952D01*
X175466667Y-123740476D01*
X175514286Y-123645238D01*
X175609524Y-123550000D01*
X175752382Y-123502381D01*
X175847620Y-123502381D01*
X175990477Y-123550000D01*
X176038096Y-123597619D01*
X174319048Y-121802381D02*
X174319048Y-120802381D01*
X174557143Y-120802381D01*
X174700001Y-120850000D01*
X174795239Y-120945238D01*
X174842858Y-121040476D01*
X174890477Y-121230952D01*
X174890477Y-121373810D01*
X174842858Y-121564286D01*
X174795239Y-121659524D01*
X174700001Y-121754762D01*
X174557143Y-121802381D01*
X174319048Y-121802381D01*
X175319048Y-121421429D02*
X176080953Y-121421429D01*
X174319048Y-119452381D02*
X174319048Y-118452381D01*
X174557143Y-118452381D01*
X174700001Y-118500000D01*
X174795239Y-118595238D01*
X174842858Y-118690476D01*
X174890477Y-118880952D01*
X174890477Y-119023810D01*
X174842858Y-119214286D01*
X174795239Y-119309524D01*
X174700001Y-119404762D01*
X174557143Y-119452381D01*
X174319048Y-119452381D01*
X175319048Y-119071429D02*
X176080953Y-119071429D01*
X175700001Y-119452381D02*
X175700001Y-118690476D01*
D13*
X173670000Y-147390000D02*
X173670000Y-129610000D01*
X145730000Y-147390000D02*
X145730000Y-129610000D01*
X173670000Y-147390000D02*
X145730000Y-147390000D01*
X145730000Y-129610000D02*
X173670000Y-129610000D01*
D14*
X138190000Y-134940000D02*
G75*
G02X140190000Y-134940000I1000000J0D01*
G01*
X140190000Y-134940000D02*
X141960000Y-134940000D01*
X141960000Y-134940000D02*
X141960000Y-124540000D01*
X141960000Y-124540000D02*
X136420000Y-124540000D01*
X136420000Y-124540000D02*
X136420000Y-134940000D01*
X136420000Y-134940000D02*
X138190000Y-134940000D01*
D13*
X144000000Y-98000000D02*
X140000000Y-98000000D01*
X140000000Y-98000000D02*
X140000000Y-103300000D01*
X140000000Y-103300000D02*
X148000000Y-103300000D01*
X148000000Y-103300000D02*
X148000000Y-98000000D01*
X148000000Y-98000000D02*
X144000000Y-98000000D01*
X134800000Y-99000000D02*
X153200000Y-99000000D01*
X153200000Y-99000000D02*
X153200000Y-121600000D01*
X134800000Y-99000000D02*
X134800000Y-121600000D01*
X134800000Y-121600000D02*
X153200000Y-121600000D01*
D14*
X182600000Y-108300000D02*
X182600000Y-102350000D01*
X182600000Y-102350000D02*
X175000000Y-102350000D01*
X175000000Y-102350000D02*
X175000000Y-108300000D01*
X175000000Y-108300000D02*
X182600000Y-108300000D01*
X179300000Y-108300000D02*
X179300000Y-107550000D01*
X179300000Y-107550000D02*
X178300000Y-107550000D01*
X178300000Y-107550000D02*
X178300000Y-108300000D01*
X178300000Y-108300000D02*
X179300000Y-108300000D01*
X182600000Y-108300000D02*
X182600000Y-107550000D01*
X182600000Y-107550000D02*
X180800000Y-107550000D01*
X180800000Y-107550000D02*
X180800000Y-108300000D01*
X180800000Y-108300000D02*
X182600000Y-108300000D01*
X176800000Y-108300000D02*
X176800000Y-107550000D01*
X176800000Y-107550000D02*
X175000000Y-107550000D01*
X175000000Y-107550000D02*
X175000000Y-108300000D01*
X175000000Y-108300000D02*
X176800000Y-108300000D01*
X182600000Y-106050000D02*
X181850000Y-106050000D01*
X181850000Y-106050000D02*
X181850000Y-103100000D01*
X181850000Y-103100000D02*
X178800000Y-103100000D01*
X175000000Y-106050000D02*
X175750000Y-106050000D01*
X175750000Y-106050000D02*
X175750000Y-103100000D01*
X175750000Y-103100000D02*
X178800000Y-103100000D01*
X180400000Y-108600000D02*
X182900000Y-108600000D01*
X182900000Y-108600000D02*
X182900000Y-106100000D01*
X182600000Y-101350000D02*
X182600000Y-95400000D01*
X182600000Y-95400000D02*
X175000000Y-95400000D01*
X175000000Y-95400000D02*
X175000000Y-101350000D01*
X175000000Y-101350000D02*
X182600000Y-101350000D01*
X179300000Y-101350000D02*
X179300000Y-100600000D01*
X179300000Y-100600000D02*
X178300000Y-100600000D01*
X178300000Y-100600000D02*
X178300000Y-101350000D01*
X178300000Y-101350000D02*
X179300000Y-101350000D01*
X182600000Y-101350000D02*
X182600000Y-100600000D01*
X182600000Y-100600000D02*
X180800000Y-100600000D01*
X180800000Y-100600000D02*
X180800000Y-101350000D01*
X180800000Y-101350000D02*
X182600000Y-101350000D01*
X176800000Y-101350000D02*
X176800000Y-100600000D01*
X176800000Y-100600000D02*
X175000000Y-100600000D01*
X175000000Y-100600000D02*
X175000000Y-101350000D01*
X175000000Y-101350000D02*
X176800000Y-101350000D01*
X182600000Y-99100000D02*
X181850000Y-99100000D01*
X181850000Y-99100000D02*
X181850000Y-96150000D01*
X181850000Y-96150000D02*
X178800000Y-96150000D01*
X175000000Y-99100000D02*
X175750000Y-99100000D01*
X175750000Y-99100000D02*
X175750000Y-96150000D01*
X175750000Y-96150000D02*
X178800000Y-96150000D01*
X180400000Y-101650000D02*
X182900000Y-101650000D01*
X182900000Y-101650000D02*
X182900000Y-99150000D01*
D13*
X135700000Y-94500000D02*
X140200000Y-94500000D01*
X134450000Y-90500000D02*
X134450000Y-92000000D01*
X140200000Y-88000000D02*
X135700000Y-88000000D01*
X141450000Y-92000000D02*
X141450000Y-90500000D01*
X176200000Y-94500000D02*
X180700000Y-94500000D01*
X174950000Y-90500000D02*
X174950000Y-92000000D01*
X180700000Y-88000000D02*
X176200000Y-88000000D01*
X181950000Y-92000000D02*
X181950000Y-90500000D01*
X176200000Y-147000000D02*
X180700000Y-147000000D01*
X174950000Y-143000000D02*
X174950000Y-144500000D01*
X180700000Y-140500000D02*
X176200000Y-140500000D01*
X181950000Y-144500000D02*
X181950000Y-143000000D01*
X135700000Y-147000000D02*
X140200000Y-147000000D01*
X134450000Y-143000000D02*
X134450000Y-144500000D01*
X140200000Y-140500000D02*
X135700000Y-140500000D01*
X141450000Y-144500000D02*
X141450000Y-143000000D01*
D14*
X182600000Y-115200000D02*
X182600000Y-109250000D01*
X182600000Y-109250000D02*
X175000000Y-109250000D01*
X175000000Y-109250000D02*
X175000000Y-115200000D01*
X175000000Y-115200000D02*
X182600000Y-115200000D01*
X179300000Y-115200000D02*
X179300000Y-114450000D01*
X179300000Y-114450000D02*
X178300000Y-114450000D01*
X178300000Y-114450000D02*
X178300000Y-115200000D01*
X178300000Y-115200000D02*
X179300000Y-115200000D01*
X182600000Y-115200000D02*
X182600000Y-114450000D01*
X182600000Y-114450000D02*
X180800000Y-114450000D01*
X180800000Y-114450000D02*
X180800000Y-115200000D01*
X180800000Y-115200000D02*
X182600000Y-115200000D01*
X176800000Y-115200000D02*
X176800000Y-114450000D01*
X176800000Y-114450000D02*
X175000000Y-114450000D01*
X175000000Y-114450000D02*
X175000000Y-115200000D01*
X175000000Y-115200000D02*
X176800000Y-115200000D01*
X182600000Y-112950000D02*
X181850000Y-112950000D01*
X181850000Y-112950000D02*
X181850000Y-110000000D01*
X181850000Y-110000000D02*
X178800000Y-110000000D01*
X175000000Y-112950000D02*
X175750000Y-112950000D01*
X175750000Y-112950000D02*
X175750000Y-110000000D01*
X175750000Y-110000000D02*
X178800000Y-110000000D01*
X180400000Y-115500000D02*
X182900000Y-115500000D01*
X182900000Y-115500000D02*
X182900000Y-113000000D01*
X176650000Y-129000000D02*
X182600000Y-129000000D01*
X182600000Y-129000000D02*
X182600000Y-116400000D01*
X182600000Y-116400000D02*
X176650000Y-116400000D01*
X176650000Y-116400000D02*
X176650000Y-129000000D01*
X176650000Y-125700000D02*
X177400000Y-125700000D01*
X177400000Y-125700000D02*
X177400000Y-119700000D01*
X177400000Y-119700000D02*
X176650000Y-119700000D01*
X176650000Y-119700000D02*
X176650000Y-125700000D01*
X176650000Y-129000000D02*
X177400000Y-129000000D01*
X177400000Y-129000000D02*
X177400000Y-127200000D01*
X177400000Y-127200000D02*
X176650000Y-127200000D01*
X176650000Y-127200000D02*
X176650000Y-129000000D01*
X176650000Y-118200000D02*
X177400000Y-118200000D01*
X177400000Y-118200000D02*
X177400000Y-116400000D01*
X177400000Y-116400000D02*
X176650000Y-116400000D01*
X176650000Y-116400000D02*
X176650000Y-118200000D01*
X178900000Y-129000000D02*
X178900000Y-128250000D01*
X178900000Y-128250000D02*
X181850000Y-128250000D01*
X181850000Y-128250000D02*
X181850000Y-122700000D01*
X178900000Y-116400000D02*
X178900000Y-117150000D01*
X178900000Y-117150000D02*
X181850000Y-117150000D01*
X181850000Y-117150000D02*
X181850000Y-122700000D01*
X176350000Y-126800000D02*
X176350000Y-129300000D01*
X176350000Y-129300000D02*
X178850000Y-129300000D01*
D13*
X158938095Y-132872381D02*
X158938095Y-133681905D01*
X158985714Y-133777143D01*
X159033333Y-133824762D01*
X159128571Y-133872381D01*
X159319048Y-133872381D01*
X159414286Y-133824762D01*
X159461905Y-133777143D01*
X159509524Y-133681905D01*
X159509524Y-132872381D01*
X160509524Y-133872381D02*
X159938095Y-133872381D01*
X160223809Y-133872381D02*
X160223809Y-132872381D01*
X160128571Y-133015238D01*
X160033333Y-133110476D01*
X159938095Y-133158095D01*
X157009524Y-142262381D02*
X157580953Y-142262381D01*
X157295238Y-143262381D02*
X157295238Y-142262381D01*
X157914286Y-143262381D02*
X157914286Y-142262381D01*
X158295239Y-142262381D01*
X158390477Y-142310000D01*
X158438096Y-142357619D01*
X158485715Y-142452857D01*
X158485715Y-142595714D01*
X158438096Y-142690952D01*
X158390477Y-142738571D01*
X158295239Y-142786190D01*
X157914286Y-142786190D01*
X159342858Y-142595714D02*
X159342858Y-143262381D01*
X159104762Y-142214762D02*
X158866667Y-142929048D01*
X159485715Y-142929048D01*
X160057143Y-142262381D02*
X160152382Y-142262381D01*
X160247620Y-142310000D01*
X160295239Y-142357619D01*
X160342858Y-142452857D01*
X160390477Y-142643333D01*
X160390477Y-142881429D01*
X160342858Y-143071905D01*
X160295239Y-143167143D01*
X160247620Y-143214762D01*
X160152382Y-143262381D01*
X160057143Y-143262381D01*
X159961905Y-143214762D01*
X159914286Y-143167143D01*
X159866667Y-143071905D01*
X159819048Y-142881429D01*
X159819048Y-142643333D01*
X159866667Y-142452857D01*
X159914286Y-142357619D01*
X159961905Y-142310000D01*
X160057143Y-142262381D01*
X161295239Y-142262381D02*
X160819048Y-142262381D01*
X160771429Y-142738571D01*
X160819048Y-142690952D01*
X160914286Y-142643333D01*
X161152382Y-142643333D01*
X161247620Y-142690952D01*
X161295239Y-142738571D01*
X161342858Y-142833810D01*
X161342858Y-143071905D01*
X161295239Y-143167143D01*
X161247620Y-143214762D01*
X161152382Y-143262381D01*
X160914286Y-143262381D01*
X160819048Y-143214762D01*
X160771429Y-143167143D01*
X162200001Y-142262381D02*
X162009524Y-142262381D01*
X161914286Y-142310000D01*
X161866667Y-142357619D01*
X161771429Y-142500476D01*
X161723810Y-142690952D01*
X161723810Y-143071905D01*
X161771429Y-143167143D01*
X161819048Y-143214762D01*
X161914286Y-143262381D01*
X162104763Y-143262381D01*
X162200001Y-143214762D01*
X162247620Y-143167143D01*
X162295239Y-143071905D01*
X162295239Y-142833810D01*
X162247620Y-142738571D01*
X162200001Y-142690952D01*
X162104763Y-142643333D01*
X161914286Y-142643333D01*
X161819048Y-142690952D01*
X161771429Y-142738571D01*
X161723810Y-142833810D01*
X149480952Y-131752381D02*
X149671429Y-131752381D01*
X149766667Y-131800000D01*
X149861905Y-131895238D01*
X149909524Y-132085714D01*
X149909524Y-132419048D01*
X149861905Y-132609524D01*
X149766667Y-132704762D01*
X149671429Y-132752381D01*
X149480952Y-132752381D01*
X149385714Y-132704762D01*
X149290476Y-132609524D01*
X149242857Y-132419048D01*
X149242857Y-132085714D01*
X149290476Y-131895238D01*
X149385714Y-131800000D01*
X149480952Y-131752381D01*
X150338095Y-131752381D02*
X150338095Y-132561905D01*
X150385714Y-132657143D01*
X150433333Y-132704762D01*
X150528571Y-132752381D01*
X150719048Y-132752381D01*
X150814286Y-132704762D01*
X150861905Y-132657143D01*
X150909524Y-132561905D01*
X150909524Y-131752381D01*
X151242857Y-131752381D02*
X151814286Y-131752381D01*
X151528571Y-132752381D02*
X151528571Y-131752381D01*
X152147619Y-132371429D02*
X152909524Y-132371429D01*
X149652382Y-134628571D02*
X149795239Y-134676190D01*
X149842858Y-134723810D01*
X149890477Y-134819048D01*
X149890477Y-134961905D01*
X149842858Y-135057143D01*
X149795239Y-135104762D01*
X149700001Y-135152381D01*
X149319048Y-135152381D01*
X149319048Y-134152381D01*
X149652382Y-134152381D01*
X149747620Y-134200000D01*
X149795239Y-134247619D01*
X149842858Y-134342857D01*
X149842858Y-134438095D01*
X149795239Y-134533333D01*
X149747620Y-134580952D01*
X149652382Y-134628571D01*
X149319048Y-134628571D01*
X150319048Y-134771429D02*
X151080953Y-134771429D01*
X149652382Y-142228571D02*
X149795239Y-142276190D01*
X149842858Y-142323810D01*
X149890477Y-142419048D01*
X149890477Y-142561905D01*
X149842858Y-142657143D01*
X149795239Y-142704762D01*
X149700001Y-142752381D01*
X149319048Y-142752381D01*
X149319048Y-141752381D01*
X149652382Y-141752381D01*
X149747620Y-141800000D01*
X149795239Y-141847619D01*
X149842858Y-141942857D01*
X149842858Y-142038095D01*
X149795239Y-142133333D01*
X149747620Y-142180952D01*
X149652382Y-142228571D01*
X149319048Y-142228571D01*
X150319048Y-142371429D02*
X151080953Y-142371429D01*
X150700001Y-142752381D02*
X150700001Y-141990476D01*
X149480952Y-144352381D02*
X149671429Y-144352381D01*
X149766667Y-144400000D01*
X149861905Y-144495238D01*
X149909524Y-144685714D01*
X149909524Y-145019048D01*
X149861905Y-145209524D01*
X149766667Y-145304762D01*
X149671429Y-145352381D01*
X149480952Y-145352381D01*
X149385714Y-145304762D01*
X149290476Y-145209524D01*
X149242857Y-145019048D01*
X149242857Y-144685714D01*
X149290476Y-144495238D01*
X149385714Y-144400000D01*
X149480952Y-144352381D01*
X150338095Y-144352381D02*
X150338095Y-145161905D01*
X150385714Y-145257143D01*
X150433333Y-145304762D01*
X150528571Y-145352381D01*
X150719048Y-145352381D01*
X150814286Y-145304762D01*
X150861905Y-145257143D01*
X150909524Y-145161905D01*
X150909524Y-144352381D01*
X151242857Y-144352381D02*
X151814286Y-144352381D01*
X151528571Y-145352381D02*
X151528571Y-144352381D01*
X152147619Y-144971429D02*
X152909524Y-144971429D01*
X152528572Y-145352381D02*
X152528572Y-144590476D01*
X167457143Y-132552381D02*
X167457143Y-131552381D01*
X167933333Y-132552381D02*
X167933333Y-131552381D01*
X168504762Y-132552381D01*
X168504762Y-131552381D01*
X168980952Y-132171429D02*
X169742857Y-132171429D01*
X167357143Y-145252381D02*
X167357143Y-144252381D01*
X167833333Y-145252381D02*
X167833333Y-144252381D01*
X168404762Y-145252381D01*
X168404762Y-144252381D01*
X168880952Y-144871429D02*
X169642857Y-144871429D01*
X169261905Y-145252381D02*
X169261905Y-144490476D01*
X137452381Y-131211905D02*
X138261905Y-131211905D01*
X138357143Y-131164286D01*
X138404762Y-131116667D01*
X138452381Y-131021429D01*
X138452381Y-130830952D01*
X138404762Y-130735714D01*
X138357143Y-130688095D01*
X138261905Y-130640476D01*
X137452381Y-130640476D01*
X137547619Y-130211905D02*
X137500000Y-130164286D01*
X137452381Y-130069048D01*
X137452381Y-129830952D01*
X137500000Y-129735714D01*
X137547619Y-129688095D01*
X137642857Y-129640476D01*
X137738095Y-129640476D01*
X137880952Y-129688095D01*
X138452381Y-130259524D01*
X138452381Y-129640476D01*
X141016667Y-134240476D02*
X141016667Y-133859524D01*
X141302381Y-134316667D02*
X140302381Y-134050000D01*
X141302381Y-133783333D01*
X140302381Y-133630953D02*
X140302381Y-133173810D01*
X141302381Y-133402381D02*
X140302381Y-133402381D01*
X140302381Y-133021429D02*
X140302381Y-132564286D01*
X141302381Y-132792857D02*
X140302381Y-132792857D01*
X141302381Y-132297619D02*
X140302381Y-132297619D01*
X141302381Y-131916667D02*
X140302381Y-131916667D01*
X141302381Y-131459524D01*
X140302381Y-131459524D01*
X140826190Y-130926191D02*
X141302381Y-130926191D01*
X140302381Y-131192858D02*
X140826190Y-130926191D01*
X140302381Y-130659524D01*
X140730952Y-130278572D02*
X140683333Y-130354763D01*
X140635714Y-130392858D01*
X140540476Y-130430953D01*
X140492857Y-130430953D01*
X140397619Y-130392858D01*
X140350000Y-130354763D01*
X140302381Y-130278572D01*
X140302381Y-130126191D01*
X140350000Y-130050001D01*
X140397619Y-130011905D01*
X140492857Y-129973810D01*
X140540476Y-129973810D01*
X140635714Y-130011905D01*
X140683333Y-130050001D01*
X140730952Y-130126191D01*
X140730952Y-130278572D01*
X140778571Y-130354763D01*
X140826190Y-130392858D01*
X140921429Y-130430953D01*
X141111905Y-130430953D01*
X141207143Y-130392858D01*
X141254762Y-130354763D01*
X141302381Y-130278572D01*
X141302381Y-130126191D01*
X141254762Y-130050001D01*
X141207143Y-130011905D01*
X141111905Y-129973810D01*
X140921429Y-129973810D01*
X140826190Y-130011905D01*
X140778571Y-130050001D01*
X140730952Y-130126191D01*
X140302381Y-129250000D02*
X140302381Y-129630953D01*
X140778571Y-129669048D01*
X140730952Y-129630953D01*
X140683333Y-129554762D01*
X140683333Y-129364286D01*
X140730952Y-129288096D01*
X140778571Y-129250000D01*
X140873810Y-129211905D01*
X141111905Y-129211905D01*
X141207143Y-129250000D01*
X141254762Y-129288096D01*
X141302381Y-129364286D01*
X141302381Y-129554762D01*
X141254762Y-129630953D01*
X141207143Y-129669048D01*
X140921429Y-128869048D02*
X140921429Y-128259524D01*
X140397619Y-127916667D02*
X140350000Y-127878572D01*
X140302381Y-127802381D01*
X140302381Y-127611905D01*
X140350000Y-127535715D01*
X140397619Y-127497619D01*
X140492857Y-127459524D01*
X140588095Y-127459524D01*
X140730952Y-127497619D01*
X141302381Y-127954762D01*
X141302381Y-127459524D01*
X140302381Y-126964286D02*
X140302381Y-126888095D01*
X140350000Y-126811905D01*
X140397619Y-126773810D01*
X140492857Y-126735714D01*
X140683333Y-126697619D01*
X140921429Y-126697619D01*
X141111905Y-126735714D01*
X141207143Y-126773810D01*
X141254762Y-126811905D01*
X141302381Y-126888095D01*
X141302381Y-126964286D01*
X141254762Y-127040476D01*
X141207143Y-127078572D01*
X141111905Y-127116667D01*
X140921429Y-127154762D01*
X140683333Y-127154762D01*
X140492857Y-127116667D01*
X140397619Y-127078572D01*
X140350000Y-127040476D01*
X140302381Y-126964286D01*
X141302381Y-126354762D02*
X140302381Y-126354762D01*
X140302381Y-126050000D01*
X140350000Y-125973809D01*
X140397619Y-125935714D01*
X140492857Y-125897619D01*
X140635714Y-125897619D01*
X140730952Y-125935714D01*
X140778571Y-125973809D01*
X140826190Y-126050000D01*
X140826190Y-126354762D01*
X140302381Y-125554762D02*
X141111905Y-125554762D01*
X141207143Y-125516667D01*
X141254762Y-125478571D01*
X141302381Y-125402381D01*
X141302381Y-125250000D01*
X141254762Y-125173809D01*
X141207143Y-125135714D01*
X141111905Y-125097619D01*
X140302381Y-125097619D01*
X143190476Y-118052381D02*
X143190476Y-117052381D01*
X143523810Y-117766667D01*
X143857143Y-117052381D01*
X143857143Y-118052381D01*
X144857143Y-118052381D02*
X144285714Y-118052381D01*
X144571428Y-118052381D02*
X144571428Y-117052381D01*
X144476190Y-117195238D01*
X144380952Y-117290476D01*
X144285714Y-117338095D01*
X141714286Y-105642381D02*
X141714286Y-106356667D01*
X141666666Y-106499524D01*
X141571428Y-106594762D01*
X141428571Y-106642381D01*
X141333333Y-106642381D01*
X142857143Y-106737619D02*
X142761905Y-106690000D01*
X142666667Y-106594762D01*
X142523810Y-106451905D01*
X142428571Y-106404286D01*
X142333333Y-106404286D01*
X142380952Y-106642381D02*
X142285714Y-106594762D01*
X142190476Y-106499524D01*
X142142857Y-106309048D01*
X142142857Y-105975714D01*
X142190476Y-105785238D01*
X142285714Y-105690000D01*
X142380952Y-105642381D01*
X142571429Y-105642381D01*
X142666667Y-105690000D01*
X142761905Y-105785238D01*
X142809524Y-105975714D01*
X142809524Y-106309048D01*
X142761905Y-106499524D01*
X142666667Y-106594762D01*
X142571429Y-106642381D01*
X142380952Y-106642381D01*
X143666667Y-105642381D02*
X143476190Y-105642381D01*
X143380952Y-105690000D01*
X143333333Y-105737619D01*
X143238095Y-105880476D01*
X143190476Y-106070952D01*
X143190476Y-106451905D01*
X143238095Y-106547143D01*
X143285714Y-106594762D01*
X143380952Y-106642381D01*
X143571429Y-106642381D01*
X143666667Y-106594762D01*
X143714286Y-106547143D01*
X143761905Y-106451905D01*
X143761905Y-106213810D01*
X143714286Y-106118571D01*
X143666667Y-106070952D01*
X143571429Y-106023333D01*
X143380952Y-106023333D01*
X143285714Y-106070952D01*
X143238095Y-106118571D01*
X143190476Y-106213810D01*
X144666667Y-105642381D02*
X144190476Y-105642381D01*
X144142857Y-106118571D01*
X144190476Y-106070952D01*
X144285714Y-106023333D01*
X144523810Y-106023333D01*
X144619048Y-106070952D01*
X144666667Y-106118571D01*
X144714286Y-106213810D01*
X144714286Y-106451905D01*
X144666667Y-106547143D01*
X144619048Y-106594762D01*
X144523810Y-106642381D01*
X144285714Y-106642381D01*
X144190476Y-106594762D01*
X144142857Y-106547143D01*
X145333333Y-105642381D02*
X145428572Y-105642381D01*
X145523810Y-105690000D01*
X145571429Y-105737619D01*
X145619048Y-105832857D01*
X145666667Y-106023333D01*
X145666667Y-106261429D01*
X145619048Y-106451905D01*
X145571429Y-106547143D01*
X145523810Y-106594762D01*
X145428572Y-106642381D01*
X145333333Y-106642381D01*
X145238095Y-106594762D01*
X145190476Y-106547143D01*
X145142857Y-106451905D01*
X145095238Y-106261429D01*
X145095238Y-106023333D01*
X145142857Y-105832857D01*
X145190476Y-105737619D01*
X145238095Y-105690000D01*
X145333333Y-105642381D01*
X146285714Y-105642381D02*
X146380953Y-105642381D01*
X146476191Y-105690000D01*
X146523810Y-105737619D01*
X146571429Y-105832857D01*
X146619048Y-106023333D01*
X146619048Y-106261429D01*
X146571429Y-106451905D01*
X146523810Y-106547143D01*
X146476191Y-106594762D01*
X146380953Y-106642381D01*
X146285714Y-106642381D01*
X146190476Y-106594762D01*
X146142857Y-106547143D01*
X146095238Y-106451905D01*
X146047619Y-106261429D01*
X146047619Y-106023333D01*
X146095238Y-105832857D01*
X146142857Y-105737619D01*
X146190476Y-105690000D01*
X146285714Y-105642381D01*
X140325238Y-96971905D02*
X140325238Y-96171905D01*
X140515714Y-96171905D01*
X140630000Y-96210000D01*
X140706191Y-96286190D01*
X140744286Y-96362381D01*
X140782381Y-96514762D01*
X140782381Y-96629048D01*
X140744286Y-96781429D01*
X140706191Y-96857619D01*
X140630000Y-96933810D01*
X140515714Y-96971905D01*
X140325238Y-96971905D01*
X141125238Y-96667143D02*
X141734762Y-96667143D01*
X141430000Y-96971905D02*
X141430000Y-96362381D01*
X146295238Y-97101905D02*
X146295238Y-96301905D01*
X146485714Y-96301905D01*
X146600000Y-96340000D01*
X146676191Y-96416190D01*
X146714286Y-96492381D01*
X146752381Y-96644762D01*
X146752381Y-96759048D01*
X146714286Y-96911429D01*
X146676191Y-96987619D01*
X146600000Y-97063810D01*
X146485714Y-97101905D01*
X146295238Y-97101905D01*
X147095238Y-96797143D02*
X147704762Y-96797143D01*
X142738095Y-100652381D02*
X142738095Y-101461905D01*
X142785714Y-101557143D01*
X142833333Y-101604762D01*
X142928571Y-101652381D01*
X143119048Y-101652381D01*
X143214286Y-101604762D01*
X143261905Y-101557143D01*
X143309524Y-101461905D01*
X143309524Y-100652381D01*
X143738095Y-101604762D02*
X143880952Y-101652381D01*
X144119048Y-101652381D01*
X144214286Y-101604762D01*
X144261905Y-101557143D01*
X144309524Y-101461905D01*
X144309524Y-101366667D01*
X144261905Y-101271429D01*
X144214286Y-101223810D01*
X144119048Y-101176190D01*
X143928571Y-101128571D01*
X143833333Y-101080952D01*
X143785714Y-101033333D01*
X143738095Y-100938095D01*
X143738095Y-100842857D01*
X143785714Y-100747619D01*
X143833333Y-100700000D01*
X143928571Y-100652381D01*
X144166667Y-100652381D01*
X144309524Y-100700000D01*
X145071429Y-101128571D02*
X145214286Y-101176190D01*
X145261905Y-101223810D01*
X145309524Y-101319048D01*
X145309524Y-101461905D01*
X145261905Y-101557143D01*
X145214286Y-101604762D01*
X145119048Y-101652381D01*
X144738095Y-101652381D01*
X144738095Y-100652381D01*
X145071429Y-100652381D01*
X145166667Y-100700000D01*
X145214286Y-100747619D01*
X145261905Y-100842857D01*
X145261905Y-100938095D01*
X145214286Y-101033333D01*
X145166667Y-101080952D01*
X145071429Y-101128571D01*
X144738095Y-101128571D01*
X178035714Y-104066667D02*
X178511905Y-104066667D01*
X177940476Y-104352381D02*
X178273809Y-103352381D01*
X178607143Y-104352381D01*
X179464286Y-104352381D02*
X178892857Y-104352381D01*
X179178571Y-104352381D02*
X179178571Y-103352381D01*
X179083333Y-103495238D01*
X178988095Y-103590476D01*
X178892857Y-103638095D01*
X174116667Y-106850000D02*
X174116667Y-106373809D01*
X174402381Y-106945238D02*
X173402381Y-106611905D01*
X174402381Y-106278571D01*
X174402381Y-105945238D02*
X173402381Y-105945238D01*
X174021429Y-105850000D02*
X174402381Y-105564285D01*
X173735714Y-105564285D02*
X174116667Y-105945238D01*
X174402381Y-105135714D02*
X173402381Y-105135714D01*
X174021429Y-105040476D02*
X174402381Y-104754761D01*
X173735714Y-104754761D02*
X174116667Y-105135714D01*
X173735714Y-103897618D02*
X174402381Y-103897618D01*
X173735714Y-104326190D02*
X174259524Y-104326190D01*
X174354762Y-104278571D01*
X174402381Y-104183333D01*
X174402381Y-104040475D01*
X174354762Y-103945237D01*
X174307143Y-103897618D01*
X178157143Y-97502381D02*
X177680952Y-97502381D01*
X177680952Y-96502381D01*
X178442857Y-97454762D02*
X178585714Y-97502381D01*
X178823810Y-97502381D01*
X178919048Y-97454762D01*
X178966667Y-97407143D01*
X179014286Y-97311905D01*
X179014286Y-97216667D01*
X178966667Y-97121429D01*
X178919048Y-97073810D01*
X178823810Y-97026190D01*
X178633333Y-96978571D01*
X178538095Y-96930952D01*
X178490476Y-96883333D01*
X178442857Y-96788095D01*
X178442857Y-96692857D01*
X178490476Y-96597619D01*
X178538095Y-96550000D01*
X178633333Y-96502381D01*
X178871429Y-96502381D01*
X179014286Y-96550000D01*
X179966667Y-97502381D02*
X179395238Y-97502381D01*
X179680952Y-97502381D02*
X179680952Y-96502381D01*
X179585714Y-96645238D01*
X179490476Y-96740476D01*
X179395238Y-96788095D01*
X174204762Y-101261905D02*
X174252381Y-101119048D01*
X174252381Y-100880952D01*
X174204762Y-100785714D01*
X174157143Y-100738095D01*
X174061905Y-100690476D01*
X173966667Y-100690476D01*
X173871429Y-100738095D01*
X173823810Y-100785714D01*
X173776190Y-100880952D01*
X173728571Y-101071429D01*
X173680952Y-101166667D01*
X173633333Y-101214286D01*
X173538095Y-101261905D01*
X173442857Y-101261905D01*
X173347619Y-101214286D01*
X173300000Y-101166667D01*
X173252381Y-101071429D01*
X173252381Y-100833333D01*
X173300000Y-100690476D01*
X173585714Y-100261905D02*
X174585714Y-100261905D01*
X173633333Y-100261905D02*
X173585714Y-100166667D01*
X173585714Y-99976190D01*
X173633333Y-99880952D01*
X173680952Y-99833333D01*
X173776190Y-99785714D01*
X174061905Y-99785714D01*
X174157143Y-99833333D01*
X174204762Y-99880952D01*
X174252381Y-99976190D01*
X174252381Y-100166667D01*
X174204762Y-100261905D01*
X174204762Y-98976190D02*
X174252381Y-99071428D01*
X174252381Y-99261905D01*
X174204762Y-99357143D01*
X174109524Y-99404762D01*
X173728571Y-99404762D01*
X173633333Y-99357143D01*
X173585714Y-99261905D01*
X173585714Y-99071428D01*
X173633333Y-98976190D01*
X173728571Y-98928571D01*
X173823810Y-98928571D01*
X173919048Y-99404762D01*
X174252381Y-98071428D02*
X173728571Y-98071428D01*
X173633333Y-98119047D01*
X173585714Y-98214285D01*
X173585714Y-98404762D01*
X173633333Y-98500000D01*
X174204762Y-98071428D02*
X174252381Y-98166666D01*
X174252381Y-98404762D01*
X174204762Y-98500000D01*
X174109524Y-98547619D01*
X174014286Y-98547619D01*
X173919048Y-98500000D01*
X173871429Y-98404762D01*
X173871429Y-98166666D01*
X173823810Y-98071428D01*
X174252381Y-97595238D02*
X173252381Y-97595238D01*
X173871429Y-97500000D02*
X174252381Y-97214285D01*
X173585714Y-97214285D02*
X173966667Y-97595238D01*
X174204762Y-96404761D02*
X174252381Y-96499999D01*
X174252381Y-96690476D01*
X174204762Y-96785714D01*
X174109524Y-96833333D01*
X173728571Y-96833333D01*
X173633333Y-96785714D01*
X173585714Y-96690476D01*
X173585714Y-96499999D01*
X173633333Y-96404761D01*
X173728571Y-96357142D01*
X173823810Y-96357142D01*
X173919048Y-96833333D01*
X174252381Y-95928571D02*
X173585714Y-95928571D01*
X173776190Y-95928571D02*
X173680952Y-95880952D01*
X173633333Y-95833333D01*
X173585714Y-95738095D01*
X173585714Y-95642856D01*
X136516667Y-96154762D02*
X136659524Y-96202381D01*
X136897620Y-96202381D01*
X136992858Y-96154762D01*
X137040477Y-96107143D01*
X137088096Y-96011905D01*
X137088096Y-95916667D01*
X137040477Y-95821429D01*
X136992858Y-95773810D01*
X136897620Y-95726190D01*
X136707143Y-95678571D01*
X136611905Y-95630952D01*
X136564286Y-95583333D01*
X136516667Y-95488095D01*
X136516667Y-95392857D01*
X136564286Y-95297619D01*
X136611905Y-95250000D01*
X136707143Y-95202381D01*
X136945239Y-95202381D01*
X137088096Y-95250000D01*
X137421429Y-95202381D02*
X137659524Y-96202381D01*
X137850001Y-95488095D01*
X138040477Y-96202381D01*
X138278572Y-95202381D01*
X139183334Y-96202381D02*
X138611905Y-96202381D01*
X138897619Y-96202381D02*
X138897619Y-95202381D01*
X138802381Y-95345238D01*
X138707143Y-95440476D01*
X138611905Y-95488095D01*
X173504762Y-92733333D02*
X173552381Y-92590476D01*
X173552381Y-92352380D01*
X173504762Y-92257142D01*
X173457143Y-92209523D01*
X173361905Y-92161904D01*
X173266667Y-92161904D01*
X173171429Y-92209523D01*
X173123810Y-92257142D01*
X173076190Y-92352380D01*
X173028571Y-92542857D01*
X172980952Y-92638095D01*
X172933333Y-92685714D01*
X172838095Y-92733333D01*
X172742857Y-92733333D01*
X172647619Y-92685714D01*
X172600000Y-92638095D01*
X172552381Y-92542857D01*
X172552381Y-92304761D01*
X172600000Y-92161904D01*
X172552381Y-91828571D02*
X173552381Y-91590476D01*
X172838095Y-91399999D01*
X173552381Y-91209523D01*
X172552381Y-90971428D01*
X172647619Y-90638095D02*
X172600000Y-90590476D01*
X172552381Y-90495238D01*
X172552381Y-90257142D01*
X172600000Y-90161904D01*
X172647619Y-90114285D01*
X172742857Y-90066666D01*
X172838095Y-90066666D01*
X172980952Y-90114285D01*
X173552381Y-90685714D01*
X173552381Y-90066666D01*
X176966667Y-141254762D02*
X177109524Y-141302381D01*
X177347620Y-141302381D01*
X177442858Y-141254762D01*
X177490477Y-141207143D01*
X177538096Y-141111905D01*
X177538096Y-141016667D01*
X177490477Y-140921429D01*
X177442858Y-140873810D01*
X177347620Y-140826190D01*
X177157143Y-140778571D01*
X177061905Y-140730952D01*
X177014286Y-140683333D01*
X176966667Y-140588095D01*
X176966667Y-140492857D01*
X177014286Y-140397619D01*
X177061905Y-140350000D01*
X177157143Y-140302381D01*
X177395239Y-140302381D01*
X177538096Y-140350000D01*
X177871429Y-140302381D02*
X178109524Y-141302381D01*
X178300001Y-140588095D01*
X178490477Y-141302381D01*
X178728572Y-140302381D01*
X179014286Y-140302381D02*
X179633334Y-140302381D01*
X179300000Y-140683333D01*
X179442858Y-140683333D01*
X179538096Y-140730952D01*
X179585715Y-140778571D01*
X179633334Y-140873810D01*
X179633334Y-141111905D01*
X179585715Y-141207143D01*
X179538096Y-141254762D01*
X179442858Y-141302381D01*
X179157143Y-141302381D01*
X179061905Y-141254762D01*
X179014286Y-141207143D01*
X136566667Y-139804762D02*
X136709524Y-139852381D01*
X136947620Y-139852381D01*
X137042858Y-139804762D01*
X137090477Y-139757143D01*
X137138096Y-139661905D01*
X137138096Y-139566667D01*
X137090477Y-139471429D01*
X137042858Y-139423810D01*
X136947620Y-139376190D01*
X136757143Y-139328571D01*
X136661905Y-139280952D01*
X136614286Y-139233333D01*
X136566667Y-139138095D01*
X136566667Y-139042857D01*
X136614286Y-138947619D01*
X136661905Y-138900000D01*
X136757143Y-138852381D01*
X136995239Y-138852381D01*
X137138096Y-138900000D01*
X137471429Y-138852381D02*
X137709524Y-139852381D01*
X137900001Y-139138095D01*
X138090477Y-139852381D01*
X138328572Y-138852381D01*
X139138096Y-139185714D02*
X139138096Y-139852381D01*
X138900000Y-138804762D02*
X138661905Y-139519048D01*
X139280953Y-139519048D01*
X177316667Y-111254762D02*
X177459524Y-111302381D01*
X177697620Y-111302381D01*
X177792858Y-111254762D01*
X177840477Y-111207143D01*
X177888096Y-111111905D01*
X177888096Y-111016667D01*
X177840477Y-110921429D01*
X177792858Y-110873810D01*
X177697620Y-110826190D01*
X177507143Y-110778571D01*
X177411905Y-110730952D01*
X177364286Y-110683333D01*
X177316667Y-110588095D01*
X177316667Y-110492857D01*
X177364286Y-110397619D01*
X177411905Y-110350000D01*
X177507143Y-110302381D01*
X177745239Y-110302381D01*
X177888096Y-110350000D01*
X178221429Y-110302381D02*
X178459524Y-111302381D01*
X178650001Y-110588095D01*
X178840477Y-111302381D01*
X179078572Y-110302381D01*
X179935715Y-110302381D02*
X179459524Y-110302381D01*
X179411905Y-110778571D01*
X179459524Y-110730952D01*
X179554762Y-110683333D01*
X179792858Y-110683333D01*
X179888096Y-110730952D01*
X179935715Y-110778571D01*
X179983334Y-110873810D01*
X179983334Y-111111905D01*
X179935715Y-111207143D01*
X179888096Y-111254762D01*
X179792858Y-111302381D01*
X179554762Y-111302381D01*
X179459524Y-111254762D01*
X179411905Y-111207143D01*
X173352381Y-114416667D02*
X173352381Y-114226190D01*
X173400000Y-114130952D01*
X173495238Y-114035714D01*
X173685714Y-113988095D01*
X174019048Y-113988095D01*
X174209524Y-114035714D01*
X174304762Y-114130952D01*
X174352381Y-114226190D01*
X174352381Y-114416667D01*
X174304762Y-114511905D01*
X174209524Y-114607143D01*
X174019048Y-114654762D01*
X173685714Y-114654762D01*
X173495238Y-114607143D01*
X173400000Y-114511905D01*
X173352381Y-114416667D01*
X173685714Y-113559524D02*
X174352381Y-113559524D01*
X173780952Y-113559524D02*
X173733333Y-113511905D01*
X173685714Y-113416667D01*
X173685714Y-113273809D01*
X173733333Y-113178571D01*
X173828571Y-113130952D01*
X174352381Y-113130952D01*
X173304762Y-111940476D02*
X174590476Y-112797619D01*
X173352381Y-111416667D02*
X173352381Y-111226190D01*
X173400000Y-111130952D01*
X173495238Y-111035714D01*
X173685714Y-110988095D01*
X174019048Y-110988095D01*
X174209524Y-111035714D01*
X174304762Y-111130952D01*
X174352381Y-111226190D01*
X174352381Y-111416667D01*
X174304762Y-111511905D01*
X174209524Y-111607143D01*
X174019048Y-111654762D01*
X173685714Y-111654762D01*
X173495238Y-111607143D01*
X173400000Y-111511905D01*
X173352381Y-111416667D01*
X173685714Y-110702381D02*
X173685714Y-110321429D01*
X174352381Y-110559524D02*
X173495238Y-110559524D01*
X173400000Y-110511905D01*
X173352381Y-110416667D01*
X173352381Y-110321429D01*
X173685714Y-110130952D02*
X173685714Y-109750000D01*
X174352381Y-109988095D02*
X173495238Y-109988095D01*
X173400000Y-109940476D01*
X173352381Y-109845238D01*
X173352381Y-109750000D01*
X180552381Y-122383333D02*
X181266667Y-122383333D01*
X181409524Y-122430953D01*
X181504762Y-122526191D01*
X181552381Y-122669048D01*
X181552381Y-122764286D01*
X181552381Y-121383333D02*
X181552381Y-121954762D01*
X181552381Y-121669048D02*
X180552381Y-121669048D01*
X180695238Y-121764286D01*
X180790476Y-121859524D01*
X180838095Y-121954762D01*
X173538095Y-116752381D02*
X173538095Y-117561905D01*
X173585714Y-117657143D01*
X173633333Y-117704762D01*
X173728571Y-117752381D01*
X173919048Y-117752381D01*
X174014286Y-117704762D01*
X174061905Y-117657143D01*
X174109524Y-117561905D01*
X174109524Y-116752381D01*
X174538095Y-117704762D02*
X174680952Y-117752381D01*
X174919048Y-117752381D01*
X175014286Y-117704762D01*
X175061905Y-117657143D01*
X175109524Y-117561905D01*
X175109524Y-117466667D01*
X175061905Y-117371429D01*
X175014286Y-117323810D01*
X174919048Y-117276190D01*
X174728571Y-117228571D01*
X174633333Y-117180952D01*
X174585714Y-117133333D01*
X174538095Y-117038095D01*
X174538095Y-116942857D01*
X174585714Y-116847619D01*
X174633333Y-116800000D01*
X174728571Y-116752381D01*
X174966667Y-116752381D01*
X175109524Y-116800000D01*
X175871429Y-117228571D02*
X176014286Y-117276190D01*
X176061905Y-117323810D01*
X176109524Y-117419048D01*
X176109524Y-117561905D01*
X176061905Y-117657143D01*
X176014286Y-117704762D01*
X175919048Y-117752381D01*
X175538095Y-117752381D01*
X175538095Y-116752381D01*
X175871429Y-116752381D01*
X175966667Y-116800000D01*
X176014286Y-116847619D01*
X176061905Y-116942857D01*
X176061905Y-117038095D01*
X176014286Y-117133333D01*
X175966667Y-117180952D01*
X175871429Y-117228571D01*
X175538095Y-117228571D01*
M02*
