G04 #@! TF.FileFunction,Copper,L2,Bot,Signal*
%FSLAX46Y46*%
G04 Gerber Fmt 4.6, Leading zero omitted, Abs format (unit mm)*
G04 Created by KiCad (PCBNEW 4.0.6+dfsg1-1) date Tue Mar 13 19:58:14 2018*
%MOMM*%
%LPD*%
G01*
G04 APERTURE LIST*
%ADD10C,0.100000*%
%ADD11C,1.524000*%
%ADD12R,1.850000X1.850000*%
%ADD13C,1.850000*%
%ADD14R,1.600000X1.600000*%
%ADD15O,1.600000X1.600000*%
%ADD16C,2.000000*%
%ADD17C,0.250000*%
%ADD18C,0.254000*%
G04 APERTURE END LIST*
D10*
D11*
X157250000Y-122700000D03*
X169250000Y-122700000D03*
D12*
X175700000Y-121550000D03*
D13*
X175700000Y-124050000D03*
D14*
X142950000Y-138250000D03*
D15*
X135330000Y-130630000D03*
X142950000Y-135710000D03*
X135330000Y-133170000D03*
X142950000Y-133170000D03*
X135330000Y-135710000D03*
X142950000Y-130630000D03*
X135330000Y-138250000D03*
D16*
X134700000Y-93500000D03*
X134700000Y-89000000D03*
X141200000Y-93500000D03*
X141200000Y-89000000D03*
X175200000Y-93500000D03*
X175200000Y-89000000D03*
X181700000Y-93500000D03*
X181700000Y-89000000D03*
X175200000Y-146000000D03*
X175200000Y-141500000D03*
X181700000Y-146000000D03*
X181700000Y-141500000D03*
X134700000Y-146000000D03*
X134700000Y-141500000D03*
X141200000Y-146000000D03*
X141200000Y-141500000D03*
D12*
X180200000Y-98800000D03*
D13*
X180200000Y-101300000D03*
D12*
X175700000Y-107700000D03*
D13*
X175700000Y-110200000D03*
X175700000Y-112700000D03*
X175700000Y-115200000D03*
D11*
X151070000Y-126540000D03*
X151070000Y-124000000D03*
X151070000Y-121460000D03*
X151070000Y-118920000D03*
X151070000Y-116380000D03*
X151070000Y-113840000D03*
X151070000Y-111300000D03*
X151070000Y-108760000D03*
X135830000Y-126540000D03*
X135830000Y-124000000D03*
X135830000Y-121460000D03*
X135830000Y-118920000D03*
X135830000Y-116380000D03*
X135830000Y-113840000D03*
X135830000Y-111300000D03*
X135830000Y-108760000D03*
X144650000Y-104050000D03*
X142250000Y-104050000D03*
X147720000Y-142310000D03*
X147720000Y-134690000D03*
X147720000Y-131946800D03*
X147720000Y-145053200D03*
X170580000Y-131743600D03*
X170580000Y-145256400D03*
D17*
X157850000Y-111300000D02*
X169250000Y-122700000D01*
X151070000Y-111300000D02*
X157850000Y-111300000D01*
X135330000Y-135710000D02*
X135330000Y-136835300D01*
X135048600Y-136835300D02*
X135330000Y-136835300D01*
X134204700Y-137679200D02*
X135048600Y-136835300D01*
X134204700Y-138771700D02*
X134204700Y-137679200D01*
X136073300Y-140640300D02*
X134204700Y-138771700D01*
X136073300Y-146000000D02*
X136073300Y-140640300D01*
X141200000Y-146000000D02*
X136073300Y-146000000D01*
X136073300Y-146000000D02*
X134700000Y-146000000D01*
X181700000Y-146000000D02*
X175200000Y-146000000D01*
X141570000Y-146370000D02*
X141200000Y-146000000D01*
X174830000Y-146370000D02*
X141570000Y-146370000D01*
X175200000Y-146000000D02*
X174830000Y-146370000D01*
X181700000Y-93500000D02*
X175200000Y-93500000D01*
X134700000Y-93500000D02*
X141200000Y-93500000D01*
X141200000Y-93500000D02*
X175200000Y-93500000D01*
X181700000Y-89000000D02*
X175200000Y-89000000D01*
X175200000Y-89000000D02*
X141200000Y-89000000D01*
X142950000Y-130630000D02*
X142950000Y-129504700D01*
X135830000Y-121460000D02*
X143412400Y-129042300D01*
X143412400Y-129042300D02*
X142950000Y-129504700D01*
X143956000Y-128498700D02*
X143412400Y-129042300D01*
X144031300Y-128498700D02*
X143956000Y-128498700D01*
X151070000Y-121460000D02*
X144031300Y-128498700D01*
X153660000Y-124050000D02*
X175700000Y-124050000D01*
X151070000Y-121460000D02*
X153660000Y-124050000D01*
X177006700Y-122856700D02*
X175700000Y-121550000D01*
X177006700Y-124572500D02*
X177006700Y-122856700D01*
X175370100Y-126209100D02*
X177006700Y-124572500D01*
X153457700Y-126209100D02*
X175370100Y-126209100D01*
X147720000Y-131946800D02*
X153457700Y-126209100D01*
X136455300Y-138672000D02*
X136455300Y-138250000D01*
X142836500Y-145053200D02*
X136455300Y-138672000D01*
X147720000Y-145053200D02*
X142836500Y-145053200D01*
X135330000Y-138250000D02*
X136455300Y-138250000D01*
X140174800Y-136889500D02*
X136455300Y-133170000D01*
X143364000Y-136889500D02*
X140174800Y-136889500D01*
X144397000Y-135856500D02*
X143364000Y-136889500D01*
X144397000Y-132988400D02*
X144397000Y-135856500D01*
X150845400Y-126540000D02*
X144397000Y-132988400D01*
X151070000Y-126540000D02*
X150845400Y-126540000D01*
X135330000Y-133170000D02*
X136455300Y-133170000D01*
X141824700Y-132534700D02*
X141824700Y-133170000D01*
X135830000Y-126540000D02*
X141824700Y-132534700D01*
X142950000Y-133170000D02*
X141824700Y-133170000D01*
X167050000Y-104050000D02*
X175700000Y-112700000D01*
X144650000Y-104050000D02*
X167050000Y-104050000D01*
X167320900Y-106820900D02*
X175700000Y-115200000D01*
X145020900Y-106820900D02*
X167320900Y-106820900D01*
X142250000Y-104050000D02*
X145020900Y-106820900D01*
D18*
G36*
X139813106Y-94424943D02*
X140272637Y-94885278D01*
X140873352Y-95134716D01*
X141523795Y-95135284D01*
X142124943Y-94886894D01*
X142585278Y-94427363D01*
X142654773Y-94260000D01*
X173744953Y-94260000D01*
X173813106Y-94424943D01*
X174272637Y-94885278D01*
X174873352Y-95134716D01*
X175523795Y-95135284D01*
X176124943Y-94886894D01*
X176585278Y-94427363D01*
X176654773Y-94260000D01*
X180244953Y-94260000D01*
X180313106Y-94424943D01*
X180772637Y-94885278D01*
X181373352Y-95134716D01*
X182023795Y-95135284D01*
X182490000Y-94942651D01*
X182490000Y-140049308D01*
X181964539Y-139854092D01*
X181314540Y-139878144D01*
X180825736Y-140080613D01*
X180727073Y-140347468D01*
X181700000Y-141320395D01*
X181714143Y-141306253D01*
X181893748Y-141485858D01*
X181879605Y-141500000D01*
X181893748Y-141514143D01*
X181714143Y-141693748D01*
X181700000Y-141679605D01*
X180727073Y-142652532D01*
X180825736Y-142919387D01*
X181435461Y-143145908D01*
X182085460Y-143121856D01*
X182490000Y-142954290D01*
X182490000Y-144557684D01*
X182026648Y-144365284D01*
X181376205Y-144364716D01*
X180775057Y-144613106D01*
X180314722Y-145072637D01*
X180245227Y-145240000D01*
X176655047Y-145240000D01*
X176586894Y-145075057D01*
X176127363Y-144614722D01*
X175526648Y-144365284D01*
X174876205Y-144364716D01*
X174275057Y-144613106D01*
X173814722Y-145072637D01*
X173591590Y-145610000D01*
X171945822Y-145610000D01*
X171976757Y-145535500D01*
X171977242Y-144979739D01*
X171765010Y-144466097D01*
X171372370Y-144072771D01*
X170859100Y-143859643D01*
X170303339Y-143859158D01*
X169789697Y-144071390D01*
X169396371Y-144464030D01*
X169183243Y-144977300D01*
X169182758Y-145533061D01*
X169214548Y-145610000D01*
X149001446Y-145610000D01*
X149116757Y-145332300D01*
X149117242Y-144776539D01*
X148905010Y-144262897D01*
X148512370Y-143869571D01*
X148059203Y-143681400D01*
X148510303Y-143495010D01*
X148903629Y-143102370D01*
X149090417Y-142652532D01*
X174227073Y-142652532D01*
X174325736Y-142919387D01*
X174935461Y-143145908D01*
X175585460Y-143121856D01*
X176074264Y-142919387D01*
X176172927Y-142652532D01*
X175200000Y-141679605D01*
X174227073Y-142652532D01*
X149090417Y-142652532D01*
X149116757Y-142589100D01*
X149117242Y-142033339D01*
X148905010Y-141519697D01*
X148621270Y-141235461D01*
X173554092Y-141235461D01*
X173578144Y-141885460D01*
X173780613Y-142374264D01*
X174047468Y-142472927D01*
X175020395Y-141500000D01*
X175379605Y-141500000D01*
X176352532Y-142472927D01*
X176619387Y-142374264D01*
X176845908Y-141764539D01*
X176826331Y-141235461D01*
X180054092Y-141235461D01*
X180078144Y-141885460D01*
X180280613Y-142374264D01*
X180547468Y-142472927D01*
X181520395Y-141500000D01*
X180547468Y-140527073D01*
X180280613Y-140625736D01*
X180054092Y-141235461D01*
X176826331Y-141235461D01*
X176821856Y-141114540D01*
X176619387Y-140625736D01*
X176352532Y-140527073D01*
X175379605Y-141500000D01*
X175020395Y-141500000D01*
X174047468Y-140527073D01*
X173780613Y-140625736D01*
X173554092Y-141235461D01*
X148621270Y-141235461D01*
X148512370Y-141126371D01*
X147999100Y-140913243D01*
X147443339Y-140912758D01*
X146929697Y-141124990D01*
X146536371Y-141517630D01*
X146323243Y-142030900D01*
X146322758Y-142586661D01*
X146534990Y-143100303D01*
X146927630Y-143493629D01*
X147380797Y-143681800D01*
X146929697Y-143868190D01*
X146536371Y-144260830D01*
X146522930Y-144293200D01*
X143151302Y-144293200D01*
X141864412Y-143006310D01*
X142074264Y-142919387D01*
X142172927Y-142652532D01*
X141200000Y-141679605D01*
X141185858Y-141693748D01*
X141006253Y-141514143D01*
X141020395Y-141500000D01*
X141379605Y-141500000D01*
X142352532Y-142472927D01*
X142619387Y-142374264D01*
X142845908Y-141764539D01*
X142821856Y-141114540D01*
X142619387Y-140625736D01*
X142352532Y-140527073D01*
X141379605Y-141500000D01*
X141020395Y-141500000D01*
X140047468Y-140527073D01*
X139780613Y-140625736D01*
X139700223Y-140842121D01*
X139205570Y-140347468D01*
X140227073Y-140347468D01*
X141200000Y-141320395D01*
X142172927Y-140347468D01*
X174227073Y-140347468D01*
X175200000Y-141320395D01*
X176172927Y-140347468D01*
X176074264Y-140080613D01*
X175464539Y-139854092D01*
X174814540Y-139878144D01*
X174325736Y-140080613D01*
X174227073Y-140347468D01*
X142172927Y-140347468D01*
X142074264Y-140080613D01*
X141464539Y-139854092D01*
X140814540Y-139878144D01*
X140325736Y-140080613D01*
X140227073Y-140347468D01*
X139205570Y-140347468D01*
X137215300Y-138357198D01*
X137215300Y-138250000D01*
X137157448Y-137959161D01*
X136992701Y-137712599D01*
X136746139Y-137547852D01*
X136556437Y-137510118D01*
X136372811Y-137235302D01*
X136052947Y-137021576D01*
X136072022Y-136925679D01*
X136372811Y-136724698D01*
X136683880Y-136259151D01*
X136793113Y-135710000D01*
X136683880Y-135160849D01*
X136372811Y-134695302D01*
X135990725Y-134440000D01*
X136372811Y-134184698D01*
X136381777Y-134171279D01*
X139637399Y-137426901D01*
X139883960Y-137591648D01*
X140174800Y-137649500D01*
X141502560Y-137649500D01*
X141502560Y-139050000D01*
X141546838Y-139285317D01*
X141685910Y-139501441D01*
X141898110Y-139646431D01*
X142150000Y-139697440D01*
X143750000Y-139697440D01*
X143985317Y-139653162D01*
X144201441Y-139514090D01*
X144346431Y-139301890D01*
X144397440Y-139050000D01*
X144397440Y-137450000D01*
X144353162Y-137214683D01*
X144259372Y-137068930D01*
X144934401Y-136393901D01*
X145099148Y-136147339D01*
X145157000Y-135856500D01*
X145157000Y-133303202D01*
X146322833Y-132137369D01*
X146322758Y-132223461D01*
X146534990Y-132737103D01*
X146927630Y-133130429D01*
X147380797Y-133318600D01*
X146929697Y-133504990D01*
X146536371Y-133897630D01*
X146323243Y-134410900D01*
X146322758Y-134966661D01*
X146534990Y-135480303D01*
X146927630Y-135873629D01*
X147440900Y-136086757D01*
X147996661Y-136087242D01*
X148510303Y-135875010D01*
X148903629Y-135482370D01*
X149116757Y-134969100D01*
X149117242Y-134413339D01*
X148905010Y-133899697D01*
X148512370Y-133506371D01*
X148059203Y-133318200D01*
X148510303Y-133131810D01*
X148903629Y-132739170D01*
X149116757Y-132225900D01*
X149116936Y-132020261D01*
X169182758Y-132020261D01*
X169394990Y-132533903D01*
X169787630Y-132927229D01*
X170300900Y-133140357D01*
X170856661Y-133140842D01*
X171370303Y-132928610D01*
X171763629Y-132535970D01*
X171976757Y-132022700D01*
X171977242Y-131466939D01*
X171765010Y-130953297D01*
X171372370Y-130559971D01*
X170859100Y-130346843D01*
X170303339Y-130346358D01*
X169789697Y-130558590D01*
X169396371Y-130951230D01*
X169183243Y-131464500D01*
X169182758Y-132020261D01*
X149116936Y-132020261D01*
X149117242Y-131670139D01*
X149103857Y-131637745D01*
X153772502Y-126969100D01*
X175370100Y-126969100D01*
X175660939Y-126911248D01*
X175907501Y-126746501D01*
X177544101Y-125109901D01*
X177708848Y-124863339D01*
X177766700Y-124572500D01*
X177766700Y-122856700D01*
X177708848Y-122565861D01*
X177544101Y-122319299D01*
X177272440Y-122047638D01*
X177272440Y-120625000D01*
X177228162Y-120389683D01*
X177089090Y-120173559D01*
X176876890Y-120028569D01*
X176625000Y-119977560D01*
X174775000Y-119977560D01*
X174539683Y-120021838D01*
X174323559Y-120160910D01*
X174178569Y-120373110D01*
X174127560Y-120625000D01*
X174127560Y-122475000D01*
X174171838Y-122710317D01*
X174310910Y-122926441D01*
X174523110Y-123071431D01*
X174546575Y-123076183D01*
X174601742Y-123131350D01*
X174342668Y-123220821D01*
X174128675Y-123803368D01*
X174153903Y-124423461D01*
X174342668Y-124879179D01*
X174601744Y-124968651D01*
X175520395Y-124050000D01*
X175506253Y-124035858D01*
X175685858Y-123856253D01*
X175700000Y-123870395D01*
X175714143Y-123856253D01*
X175893748Y-124035858D01*
X175879605Y-124050000D01*
X175893748Y-124064143D01*
X175714143Y-124243748D01*
X175700000Y-124229605D01*
X174781349Y-125148256D01*
X174870821Y-125407332D01*
X174984525Y-125449100D01*
X153457700Y-125449100D01*
X153166861Y-125506952D01*
X152920299Y-125671699D01*
X152426723Y-126165275D01*
X152255010Y-125749697D01*
X151862370Y-125356371D01*
X151654488Y-125270051D01*
X151860303Y-125185010D01*
X152253629Y-124792370D01*
X152466757Y-124279100D01*
X152467242Y-123723339D01*
X152255010Y-123209697D01*
X152022381Y-122976661D01*
X155852758Y-122976661D01*
X156064990Y-123490303D01*
X156457630Y-123883629D01*
X156970900Y-124096757D01*
X157526661Y-124097242D01*
X158040303Y-123885010D01*
X158433629Y-123492370D01*
X158646757Y-122979100D01*
X158647242Y-122423339D01*
X158435010Y-121909697D01*
X158042370Y-121516371D01*
X157529100Y-121303243D01*
X156973339Y-121302758D01*
X156459697Y-121514990D01*
X156066371Y-121907630D01*
X155853243Y-122420900D01*
X155852758Y-122976661D01*
X152022381Y-122976661D01*
X151862370Y-122816371D01*
X151670273Y-122736605D01*
X151801143Y-122682397D01*
X151870608Y-122440213D01*
X151070000Y-121639605D01*
X150269392Y-122440213D01*
X150338857Y-122682397D01*
X150479318Y-122732509D01*
X150279697Y-122814990D01*
X149886371Y-123207630D01*
X149673243Y-123720900D01*
X149672758Y-124276661D01*
X149884990Y-124790303D01*
X150277630Y-125183629D01*
X150485512Y-125269949D01*
X150279697Y-125354990D01*
X149886371Y-125747630D01*
X149673243Y-126260900D01*
X149672914Y-126637684D01*
X144057893Y-132252705D01*
X143992811Y-132155302D01*
X143588297Y-131885014D01*
X143805134Y-131782389D01*
X144181041Y-131367423D01*
X144341904Y-130979039D01*
X144219915Y-130757000D01*
X143077000Y-130757000D01*
X143077000Y-130777000D01*
X142823000Y-130777000D01*
X142823000Y-130757000D01*
X141680085Y-130757000D01*
X141558096Y-130979039D01*
X141709580Y-131344778D01*
X140645763Y-130280961D01*
X141558096Y-130280961D01*
X141680085Y-130503000D01*
X142823000Y-130503000D01*
X142823000Y-129359371D01*
X143077000Y-129359371D01*
X143077000Y-130503000D01*
X144219915Y-130503000D01*
X144341904Y-130280961D01*
X144181041Y-129892577D01*
X143805134Y-129477611D01*
X143299041Y-129238086D01*
X143077000Y-129359371D01*
X142823000Y-129359371D01*
X142600959Y-129238086D01*
X142094866Y-129477611D01*
X141718959Y-129892577D01*
X141558096Y-130280961D01*
X140645763Y-130280961D01*
X137214183Y-126849381D01*
X137226757Y-126819100D01*
X137227242Y-126263339D01*
X137015010Y-125749697D01*
X136622370Y-125356371D01*
X136414488Y-125270051D01*
X136620303Y-125185010D01*
X137013629Y-124792370D01*
X137226757Y-124279100D01*
X137227242Y-123723339D01*
X137015010Y-123209697D01*
X136622370Y-122816371D01*
X136430273Y-122736605D01*
X136561143Y-122682397D01*
X136630608Y-122440213D01*
X135830000Y-121639605D01*
X135029392Y-122440213D01*
X135098857Y-122682397D01*
X135239318Y-122732509D01*
X135039697Y-122814990D01*
X134646371Y-123207630D01*
X134433243Y-123720900D01*
X134432758Y-124276661D01*
X134644990Y-124790303D01*
X135037630Y-125183629D01*
X135245512Y-125269949D01*
X135039697Y-125354990D01*
X134646371Y-125747630D01*
X134433243Y-126260900D01*
X134432758Y-126816661D01*
X134644990Y-127330303D01*
X135037630Y-127723629D01*
X135550900Y-127936757D01*
X136106661Y-127937242D01*
X136139055Y-127923857D01*
X141064700Y-132849502D01*
X141064700Y-133170000D01*
X141122552Y-133460839D01*
X141287299Y-133707401D01*
X141533861Y-133872148D01*
X141723563Y-133909882D01*
X141907189Y-134184698D01*
X142289275Y-134440000D01*
X141907189Y-134695302D01*
X141596120Y-135160849D01*
X141486887Y-135710000D01*
X141570331Y-136129500D01*
X140489602Y-136129500D01*
X136992701Y-132632599D01*
X136746139Y-132467852D01*
X136556437Y-132430118D01*
X136372811Y-132155302D01*
X135990725Y-131900000D01*
X136372811Y-131644698D01*
X136683880Y-131179151D01*
X136793113Y-130630000D01*
X136683880Y-130080849D01*
X136372811Y-129615302D01*
X135907264Y-129304233D01*
X135358113Y-129195000D01*
X135301887Y-129195000D01*
X134752736Y-129304233D01*
X134287189Y-129615302D01*
X133976120Y-130080849D01*
X133910000Y-130413256D01*
X133910000Y-121252302D01*
X134420856Y-121252302D01*
X134448638Y-121807368D01*
X134607603Y-122191143D01*
X134849787Y-122260608D01*
X135650395Y-121460000D01*
X136009605Y-121460000D01*
X136810213Y-122260608D01*
X137052397Y-122191143D01*
X137239144Y-121667698D01*
X137218353Y-121252302D01*
X149660856Y-121252302D01*
X149688638Y-121807368D01*
X149847603Y-122191143D01*
X150089787Y-122260608D01*
X150890395Y-121460000D01*
X151249605Y-121460000D01*
X152050213Y-122260608D01*
X152292397Y-122191143D01*
X152479144Y-121667698D01*
X152451362Y-121112632D01*
X152292397Y-120728857D01*
X152050213Y-120659392D01*
X151249605Y-121460000D01*
X150890395Y-121460000D01*
X150089787Y-120659392D01*
X149847603Y-120728857D01*
X149660856Y-121252302D01*
X137218353Y-121252302D01*
X137211362Y-121112632D01*
X137052397Y-120728857D01*
X136810213Y-120659392D01*
X136009605Y-121460000D01*
X135650395Y-121460000D01*
X134849787Y-120659392D01*
X134607603Y-120728857D01*
X134420856Y-121252302D01*
X133910000Y-121252302D01*
X133910000Y-109036661D01*
X134432758Y-109036661D01*
X134644990Y-109550303D01*
X135037630Y-109943629D01*
X135245512Y-110029949D01*
X135039697Y-110114990D01*
X134646371Y-110507630D01*
X134433243Y-111020900D01*
X134432758Y-111576661D01*
X134644990Y-112090303D01*
X135037630Y-112483629D01*
X135245512Y-112569949D01*
X135039697Y-112654990D01*
X134646371Y-113047630D01*
X134433243Y-113560900D01*
X134432758Y-114116661D01*
X134644990Y-114630303D01*
X135037630Y-115023629D01*
X135245512Y-115109949D01*
X135039697Y-115194990D01*
X134646371Y-115587630D01*
X134433243Y-116100900D01*
X134432758Y-116656661D01*
X134644990Y-117170303D01*
X135037630Y-117563629D01*
X135245512Y-117649949D01*
X135039697Y-117734990D01*
X134646371Y-118127630D01*
X134433243Y-118640900D01*
X134432758Y-119196661D01*
X134644990Y-119710303D01*
X135037630Y-120103629D01*
X135229727Y-120183395D01*
X135098857Y-120237603D01*
X135029392Y-120479787D01*
X135830000Y-121280395D01*
X136630608Y-120479787D01*
X136561143Y-120237603D01*
X136420682Y-120187491D01*
X136620303Y-120105010D01*
X137013629Y-119712370D01*
X137226757Y-119199100D01*
X137227242Y-118643339D01*
X137015010Y-118129697D01*
X136622370Y-117736371D01*
X136414488Y-117650051D01*
X136620303Y-117565010D01*
X137013629Y-117172370D01*
X137226757Y-116659100D01*
X137227242Y-116103339D01*
X137015010Y-115589697D01*
X136622370Y-115196371D01*
X136414488Y-115110051D01*
X136620303Y-115025010D01*
X137013629Y-114632370D01*
X137226757Y-114119100D01*
X137227242Y-113563339D01*
X137015010Y-113049697D01*
X136622370Y-112656371D01*
X136414488Y-112570051D01*
X136620303Y-112485010D01*
X137013629Y-112092370D01*
X137226757Y-111579100D01*
X137227242Y-111023339D01*
X137015010Y-110509697D01*
X136622370Y-110116371D01*
X136414488Y-110030051D01*
X136620303Y-109945010D01*
X137013629Y-109552370D01*
X137226757Y-109039100D01*
X137227242Y-108483339D01*
X137015010Y-107969697D01*
X136622370Y-107576371D01*
X136109100Y-107363243D01*
X135553339Y-107362758D01*
X135039697Y-107574990D01*
X134646371Y-107967630D01*
X134433243Y-108480900D01*
X134432758Y-109036661D01*
X133910000Y-109036661D01*
X133910000Y-104326661D01*
X140852758Y-104326661D01*
X141064990Y-104840303D01*
X141457630Y-105233629D01*
X141970900Y-105446757D01*
X142526661Y-105447242D01*
X142559055Y-105433857D01*
X144483499Y-107358301D01*
X144730060Y-107523048D01*
X145020900Y-107580900D01*
X150273777Y-107580900D01*
X149886371Y-107967630D01*
X149673243Y-108480900D01*
X149672758Y-109036661D01*
X149884990Y-109550303D01*
X150277630Y-109943629D01*
X150485512Y-110029949D01*
X150279697Y-110114990D01*
X149886371Y-110507630D01*
X149673243Y-111020900D01*
X149672758Y-111576661D01*
X149884990Y-112090303D01*
X150277630Y-112483629D01*
X150485512Y-112569949D01*
X150279697Y-112654990D01*
X149886371Y-113047630D01*
X149673243Y-113560900D01*
X149672758Y-114116661D01*
X149884990Y-114630303D01*
X150277630Y-115023629D01*
X150485512Y-115109949D01*
X150279697Y-115194990D01*
X149886371Y-115587630D01*
X149673243Y-116100900D01*
X149672758Y-116656661D01*
X149884990Y-117170303D01*
X150277630Y-117563629D01*
X150485512Y-117649949D01*
X150279697Y-117734990D01*
X149886371Y-118127630D01*
X149673243Y-118640900D01*
X149672758Y-119196661D01*
X149884990Y-119710303D01*
X150277630Y-120103629D01*
X150469727Y-120183395D01*
X150338857Y-120237603D01*
X150269392Y-120479787D01*
X151070000Y-121280395D01*
X151870608Y-120479787D01*
X151801143Y-120237603D01*
X151660682Y-120187491D01*
X151860303Y-120105010D01*
X152253629Y-119712370D01*
X152466757Y-119199100D01*
X152467242Y-118643339D01*
X152255010Y-118129697D01*
X151862370Y-117736371D01*
X151654488Y-117650051D01*
X151860303Y-117565010D01*
X152253629Y-117172370D01*
X152466757Y-116659100D01*
X152467242Y-116103339D01*
X152255010Y-115589697D01*
X151862370Y-115196371D01*
X151654488Y-115110051D01*
X151860303Y-115025010D01*
X152253629Y-114632370D01*
X152466757Y-114119100D01*
X152467242Y-113563339D01*
X152255010Y-113049697D01*
X151862370Y-112656371D01*
X151654488Y-112570051D01*
X151860303Y-112485010D01*
X152253629Y-112092370D01*
X152267070Y-112060000D01*
X157535198Y-112060000D01*
X167865817Y-122390619D01*
X167853243Y-122420900D01*
X167852758Y-122976661D01*
X168064990Y-123490303D01*
X168457630Y-123883629D01*
X168970900Y-124096757D01*
X169526661Y-124097242D01*
X170040303Y-123885010D01*
X170433629Y-123492370D01*
X170646757Y-122979100D01*
X170647242Y-122423339D01*
X170435010Y-121909697D01*
X170042370Y-121516371D01*
X169529100Y-121303243D01*
X168973339Y-121302758D01*
X168940945Y-121316143D01*
X158387401Y-110762599D01*
X158140839Y-110597852D01*
X157850000Y-110540000D01*
X152267531Y-110540000D01*
X152255010Y-110509697D01*
X151862370Y-110116371D01*
X151654488Y-110030051D01*
X151860303Y-109945010D01*
X152253629Y-109552370D01*
X152466757Y-109039100D01*
X152467242Y-108483339D01*
X152255010Y-107969697D01*
X151866891Y-107580900D01*
X167006098Y-107580900D01*
X174191108Y-114765910D01*
X174140272Y-114888336D01*
X174139730Y-115508942D01*
X174376725Y-116082514D01*
X174815177Y-116521732D01*
X175388336Y-116759728D01*
X176008942Y-116760270D01*
X176582514Y-116523275D01*
X177021732Y-116084823D01*
X177259728Y-115511664D01*
X177260270Y-114891058D01*
X177023275Y-114317486D01*
X176656174Y-113949744D01*
X177021732Y-113584823D01*
X177259728Y-113011664D01*
X177260270Y-112391058D01*
X177023275Y-111817486D01*
X176656174Y-111449744D01*
X177021732Y-111084823D01*
X177259728Y-110511664D01*
X177260270Y-109891058D01*
X177023275Y-109317486D01*
X176905246Y-109199251D01*
X177076441Y-109089090D01*
X177221431Y-108876890D01*
X177272440Y-108625000D01*
X177272440Y-106775000D01*
X177228162Y-106539683D01*
X177089090Y-106323559D01*
X176876890Y-106178569D01*
X176625000Y-106127560D01*
X174775000Y-106127560D01*
X174539683Y-106171838D01*
X174323559Y-106310910D01*
X174178569Y-106523110D01*
X174127560Y-106775000D01*
X174127560Y-108625000D01*
X174171838Y-108860317D01*
X174310910Y-109076441D01*
X174492874Y-109200771D01*
X174378268Y-109315177D01*
X174140272Y-109888336D01*
X174140117Y-110065315D01*
X167587401Y-103512599D01*
X167340839Y-103347852D01*
X167050000Y-103290000D01*
X145847531Y-103290000D01*
X145835010Y-103259697D01*
X145442370Y-102866371D01*
X144929100Y-102653243D01*
X144373339Y-102652758D01*
X143859697Y-102864990D01*
X143466371Y-103257630D01*
X143450224Y-103296517D01*
X143435010Y-103259697D01*
X143042370Y-102866371D01*
X142529100Y-102653243D01*
X141973339Y-102652758D01*
X141459697Y-102864990D01*
X141066371Y-103257630D01*
X140853243Y-103770900D01*
X140852758Y-104326661D01*
X133910000Y-104326661D01*
X133910000Y-97875000D01*
X178627560Y-97875000D01*
X178627560Y-99725000D01*
X178671838Y-99960317D01*
X178810910Y-100176441D01*
X178992874Y-100300771D01*
X178878268Y-100415177D01*
X178640272Y-100988336D01*
X178639730Y-101608942D01*
X178876725Y-102182514D01*
X179315177Y-102621732D01*
X179888336Y-102859728D01*
X180508942Y-102860270D01*
X181082514Y-102623275D01*
X181521732Y-102184823D01*
X181759728Y-101611664D01*
X181760270Y-100991058D01*
X181523275Y-100417486D01*
X181405246Y-100299251D01*
X181576441Y-100189090D01*
X181721431Y-99976890D01*
X181772440Y-99725000D01*
X181772440Y-97875000D01*
X181728162Y-97639683D01*
X181589090Y-97423559D01*
X181376890Y-97278569D01*
X181125000Y-97227560D01*
X179275000Y-97227560D01*
X179039683Y-97271838D01*
X178823559Y-97410910D01*
X178678569Y-97623110D01*
X178627560Y-97875000D01*
X133910000Y-97875000D01*
X133910000Y-94942316D01*
X134373352Y-95134716D01*
X135023795Y-95135284D01*
X135624943Y-94886894D01*
X136085278Y-94427363D01*
X136154773Y-94260000D01*
X139744953Y-94260000D01*
X139813106Y-94424943D01*
X139813106Y-94424943D01*
G37*
X139813106Y-94424943D02*
X140272637Y-94885278D01*
X140873352Y-95134716D01*
X141523795Y-95135284D01*
X142124943Y-94886894D01*
X142585278Y-94427363D01*
X142654773Y-94260000D01*
X173744953Y-94260000D01*
X173813106Y-94424943D01*
X174272637Y-94885278D01*
X174873352Y-95134716D01*
X175523795Y-95135284D01*
X176124943Y-94886894D01*
X176585278Y-94427363D01*
X176654773Y-94260000D01*
X180244953Y-94260000D01*
X180313106Y-94424943D01*
X180772637Y-94885278D01*
X181373352Y-95134716D01*
X182023795Y-95135284D01*
X182490000Y-94942651D01*
X182490000Y-140049308D01*
X181964539Y-139854092D01*
X181314540Y-139878144D01*
X180825736Y-140080613D01*
X180727073Y-140347468D01*
X181700000Y-141320395D01*
X181714143Y-141306253D01*
X181893748Y-141485858D01*
X181879605Y-141500000D01*
X181893748Y-141514143D01*
X181714143Y-141693748D01*
X181700000Y-141679605D01*
X180727073Y-142652532D01*
X180825736Y-142919387D01*
X181435461Y-143145908D01*
X182085460Y-143121856D01*
X182490000Y-142954290D01*
X182490000Y-144557684D01*
X182026648Y-144365284D01*
X181376205Y-144364716D01*
X180775057Y-144613106D01*
X180314722Y-145072637D01*
X180245227Y-145240000D01*
X176655047Y-145240000D01*
X176586894Y-145075057D01*
X176127363Y-144614722D01*
X175526648Y-144365284D01*
X174876205Y-144364716D01*
X174275057Y-144613106D01*
X173814722Y-145072637D01*
X173591590Y-145610000D01*
X171945822Y-145610000D01*
X171976757Y-145535500D01*
X171977242Y-144979739D01*
X171765010Y-144466097D01*
X171372370Y-144072771D01*
X170859100Y-143859643D01*
X170303339Y-143859158D01*
X169789697Y-144071390D01*
X169396371Y-144464030D01*
X169183243Y-144977300D01*
X169182758Y-145533061D01*
X169214548Y-145610000D01*
X149001446Y-145610000D01*
X149116757Y-145332300D01*
X149117242Y-144776539D01*
X148905010Y-144262897D01*
X148512370Y-143869571D01*
X148059203Y-143681400D01*
X148510303Y-143495010D01*
X148903629Y-143102370D01*
X149090417Y-142652532D01*
X174227073Y-142652532D01*
X174325736Y-142919387D01*
X174935461Y-143145908D01*
X175585460Y-143121856D01*
X176074264Y-142919387D01*
X176172927Y-142652532D01*
X175200000Y-141679605D01*
X174227073Y-142652532D01*
X149090417Y-142652532D01*
X149116757Y-142589100D01*
X149117242Y-142033339D01*
X148905010Y-141519697D01*
X148621270Y-141235461D01*
X173554092Y-141235461D01*
X173578144Y-141885460D01*
X173780613Y-142374264D01*
X174047468Y-142472927D01*
X175020395Y-141500000D01*
X175379605Y-141500000D01*
X176352532Y-142472927D01*
X176619387Y-142374264D01*
X176845908Y-141764539D01*
X176826331Y-141235461D01*
X180054092Y-141235461D01*
X180078144Y-141885460D01*
X180280613Y-142374264D01*
X180547468Y-142472927D01*
X181520395Y-141500000D01*
X180547468Y-140527073D01*
X180280613Y-140625736D01*
X180054092Y-141235461D01*
X176826331Y-141235461D01*
X176821856Y-141114540D01*
X176619387Y-140625736D01*
X176352532Y-140527073D01*
X175379605Y-141500000D01*
X175020395Y-141500000D01*
X174047468Y-140527073D01*
X173780613Y-140625736D01*
X173554092Y-141235461D01*
X148621270Y-141235461D01*
X148512370Y-141126371D01*
X147999100Y-140913243D01*
X147443339Y-140912758D01*
X146929697Y-141124990D01*
X146536371Y-141517630D01*
X146323243Y-142030900D01*
X146322758Y-142586661D01*
X146534990Y-143100303D01*
X146927630Y-143493629D01*
X147380797Y-143681800D01*
X146929697Y-143868190D01*
X146536371Y-144260830D01*
X146522930Y-144293200D01*
X143151302Y-144293200D01*
X141864412Y-143006310D01*
X142074264Y-142919387D01*
X142172927Y-142652532D01*
X141200000Y-141679605D01*
X141185858Y-141693748D01*
X141006253Y-141514143D01*
X141020395Y-141500000D01*
X141379605Y-141500000D01*
X142352532Y-142472927D01*
X142619387Y-142374264D01*
X142845908Y-141764539D01*
X142821856Y-141114540D01*
X142619387Y-140625736D01*
X142352532Y-140527073D01*
X141379605Y-141500000D01*
X141020395Y-141500000D01*
X140047468Y-140527073D01*
X139780613Y-140625736D01*
X139700223Y-140842121D01*
X139205570Y-140347468D01*
X140227073Y-140347468D01*
X141200000Y-141320395D01*
X142172927Y-140347468D01*
X174227073Y-140347468D01*
X175200000Y-141320395D01*
X176172927Y-140347468D01*
X176074264Y-140080613D01*
X175464539Y-139854092D01*
X174814540Y-139878144D01*
X174325736Y-140080613D01*
X174227073Y-140347468D01*
X142172927Y-140347468D01*
X142074264Y-140080613D01*
X141464539Y-139854092D01*
X140814540Y-139878144D01*
X140325736Y-140080613D01*
X140227073Y-140347468D01*
X139205570Y-140347468D01*
X137215300Y-138357198D01*
X137215300Y-138250000D01*
X137157448Y-137959161D01*
X136992701Y-137712599D01*
X136746139Y-137547852D01*
X136556437Y-137510118D01*
X136372811Y-137235302D01*
X136052947Y-137021576D01*
X136072022Y-136925679D01*
X136372811Y-136724698D01*
X136683880Y-136259151D01*
X136793113Y-135710000D01*
X136683880Y-135160849D01*
X136372811Y-134695302D01*
X135990725Y-134440000D01*
X136372811Y-134184698D01*
X136381777Y-134171279D01*
X139637399Y-137426901D01*
X139883960Y-137591648D01*
X140174800Y-137649500D01*
X141502560Y-137649500D01*
X141502560Y-139050000D01*
X141546838Y-139285317D01*
X141685910Y-139501441D01*
X141898110Y-139646431D01*
X142150000Y-139697440D01*
X143750000Y-139697440D01*
X143985317Y-139653162D01*
X144201441Y-139514090D01*
X144346431Y-139301890D01*
X144397440Y-139050000D01*
X144397440Y-137450000D01*
X144353162Y-137214683D01*
X144259372Y-137068930D01*
X144934401Y-136393901D01*
X145099148Y-136147339D01*
X145157000Y-135856500D01*
X145157000Y-133303202D01*
X146322833Y-132137369D01*
X146322758Y-132223461D01*
X146534990Y-132737103D01*
X146927630Y-133130429D01*
X147380797Y-133318600D01*
X146929697Y-133504990D01*
X146536371Y-133897630D01*
X146323243Y-134410900D01*
X146322758Y-134966661D01*
X146534990Y-135480303D01*
X146927630Y-135873629D01*
X147440900Y-136086757D01*
X147996661Y-136087242D01*
X148510303Y-135875010D01*
X148903629Y-135482370D01*
X149116757Y-134969100D01*
X149117242Y-134413339D01*
X148905010Y-133899697D01*
X148512370Y-133506371D01*
X148059203Y-133318200D01*
X148510303Y-133131810D01*
X148903629Y-132739170D01*
X149116757Y-132225900D01*
X149116936Y-132020261D01*
X169182758Y-132020261D01*
X169394990Y-132533903D01*
X169787630Y-132927229D01*
X170300900Y-133140357D01*
X170856661Y-133140842D01*
X171370303Y-132928610D01*
X171763629Y-132535970D01*
X171976757Y-132022700D01*
X171977242Y-131466939D01*
X171765010Y-130953297D01*
X171372370Y-130559971D01*
X170859100Y-130346843D01*
X170303339Y-130346358D01*
X169789697Y-130558590D01*
X169396371Y-130951230D01*
X169183243Y-131464500D01*
X169182758Y-132020261D01*
X149116936Y-132020261D01*
X149117242Y-131670139D01*
X149103857Y-131637745D01*
X153772502Y-126969100D01*
X175370100Y-126969100D01*
X175660939Y-126911248D01*
X175907501Y-126746501D01*
X177544101Y-125109901D01*
X177708848Y-124863339D01*
X177766700Y-124572500D01*
X177766700Y-122856700D01*
X177708848Y-122565861D01*
X177544101Y-122319299D01*
X177272440Y-122047638D01*
X177272440Y-120625000D01*
X177228162Y-120389683D01*
X177089090Y-120173559D01*
X176876890Y-120028569D01*
X176625000Y-119977560D01*
X174775000Y-119977560D01*
X174539683Y-120021838D01*
X174323559Y-120160910D01*
X174178569Y-120373110D01*
X174127560Y-120625000D01*
X174127560Y-122475000D01*
X174171838Y-122710317D01*
X174310910Y-122926441D01*
X174523110Y-123071431D01*
X174546575Y-123076183D01*
X174601742Y-123131350D01*
X174342668Y-123220821D01*
X174128675Y-123803368D01*
X174153903Y-124423461D01*
X174342668Y-124879179D01*
X174601744Y-124968651D01*
X175520395Y-124050000D01*
X175506253Y-124035858D01*
X175685858Y-123856253D01*
X175700000Y-123870395D01*
X175714143Y-123856253D01*
X175893748Y-124035858D01*
X175879605Y-124050000D01*
X175893748Y-124064143D01*
X175714143Y-124243748D01*
X175700000Y-124229605D01*
X174781349Y-125148256D01*
X174870821Y-125407332D01*
X174984525Y-125449100D01*
X153457700Y-125449100D01*
X153166861Y-125506952D01*
X152920299Y-125671699D01*
X152426723Y-126165275D01*
X152255010Y-125749697D01*
X151862370Y-125356371D01*
X151654488Y-125270051D01*
X151860303Y-125185010D01*
X152253629Y-124792370D01*
X152466757Y-124279100D01*
X152467242Y-123723339D01*
X152255010Y-123209697D01*
X152022381Y-122976661D01*
X155852758Y-122976661D01*
X156064990Y-123490303D01*
X156457630Y-123883629D01*
X156970900Y-124096757D01*
X157526661Y-124097242D01*
X158040303Y-123885010D01*
X158433629Y-123492370D01*
X158646757Y-122979100D01*
X158647242Y-122423339D01*
X158435010Y-121909697D01*
X158042370Y-121516371D01*
X157529100Y-121303243D01*
X156973339Y-121302758D01*
X156459697Y-121514990D01*
X156066371Y-121907630D01*
X155853243Y-122420900D01*
X155852758Y-122976661D01*
X152022381Y-122976661D01*
X151862370Y-122816371D01*
X151670273Y-122736605D01*
X151801143Y-122682397D01*
X151870608Y-122440213D01*
X151070000Y-121639605D01*
X150269392Y-122440213D01*
X150338857Y-122682397D01*
X150479318Y-122732509D01*
X150279697Y-122814990D01*
X149886371Y-123207630D01*
X149673243Y-123720900D01*
X149672758Y-124276661D01*
X149884990Y-124790303D01*
X150277630Y-125183629D01*
X150485512Y-125269949D01*
X150279697Y-125354990D01*
X149886371Y-125747630D01*
X149673243Y-126260900D01*
X149672914Y-126637684D01*
X144057893Y-132252705D01*
X143992811Y-132155302D01*
X143588297Y-131885014D01*
X143805134Y-131782389D01*
X144181041Y-131367423D01*
X144341904Y-130979039D01*
X144219915Y-130757000D01*
X143077000Y-130757000D01*
X143077000Y-130777000D01*
X142823000Y-130777000D01*
X142823000Y-130757000D01*
X141680085Y-130757000D01*
X141558096Y-130979039D01*
X141709580Y-131344778D01*
X140645763Y-130280961D01*
X141558096Y-130280961D01*
X141680085Y-130503000D01*
X142823000Y-130503000D01*
X142823000Y-129359371D01*
X143077000Y-129359371D01*
X143077000Y-130503000D01*
X144219915Y-130503000D01*
X144341904Y-130280961D01*
X144181041Y-129892577D01*
X143805134Y-129477611D01*
X143299041Y-129238086D01*
X143077000Y-129359371D01*
X142823000Y-129359371D01*
X142600959Y-129238086D01*
X142094866Y-129477611D01*
X141718959Y-129892577D01*
X141558096Y-130280961D01*
X140645763Y-130280961D01*
X137214183Y-126849381D01*
X137226757Y-126819100D01*
X137227242Y-126263339D01*
X137015010Y-125749697D01*
X136622370Y-125356371D01*
X136414488Y-125270051D01*
X136620303Y-125185010D01*
X137013629Y-124792370D01*
X137226757Y-124279100D01*
X137227242Y-123723339D01*
X137015010Y-123209697D01*
X136622370Y-122816371D01*
X136430273Y-122736605D01*
X136561143Y-122682397D01*
X136630608Y-122440213D01*
X135830000Y-121639605D01*
X135029392Y-122440213D01*
X135098857Y-122682397D01*
X135239318Y-122732509D01*
X135039697Y-122814990D01*
X134646371Y-123207630D01*
X134433243Y-123720900D01*
X134432758Y-124276661D01*
X134644990Y-124790303D01*
X135037630Y-125183629D01*
X135245512Y-125269949D01*
X135039697Y-125354990D01*
X134646371Y-125747630D01*
X134433243Y-126260900D01*
X134432758Y-126816661D01*
X134644990Y-127330303D01*
X135037630Y-127723629D01*
X135550900Y-127936757D01*
X136106661Y-127937242D01*
X136139055Y-127923857D01*
X141064700Y-132849502D01*
X141064700Y-133170000D01*
X141122552Y-133460839D01*
X141287299Y-133707401D01*
X141533861Y-133872148D01*
X141723563Y-133909882D01*
X141907189Y-134184698D01*
X142289275Y-134440000D01*
X141907189Y-134695302D01*
X141596120Y-135160849D01*
X141486887Y-135710000D01*
X141570331Y-136129500D01*
X140489602Y-136129500D01*
X136992701Y-132632599D01*
X136746139Y-132467852D01*
X136556437Y-132430118D01*
X136372811Y-132155302D01*
X135990725Y-131900000D01*
X136372811Y-131644698D01*
X136683880Y-131179151D01*
X136793113Y-130630000D01*
X136683880Y-130080849D01*
X136372811Y-129615302D01*
X135907264Y-129304233D01*
X135358113Y-129195000D01*
X135301887Y-129195000D01*
X134752736Y-129304233D01*
X134287189Y-129615302D01*
X133976120Y-130080849D01*
X133910000Y-130413256D01*
X133910000Y-121252302D01*
X134420856Y-121252302D01*
X134448638Y-121807368D01*
X134607603Y-122191143D01*
X134849787Y-122260608D01*
X135650395Y-121460000D01*
X136009605Y-121460000D01*
X136810213Y-122260608D01*
X137052397Y-122191143D01*
X137239144Y-121667698D01*
X137218353Y-121252302D01*
X149660856Y-121252302D01*
X149688638Y-121807368D01*
X149847603Y-122191143D01*
X150089787Y-122260608D01*
X150890395Y-121460000D01*
X151249605Y-121460000D01*
X152050213Y-122260608D01*
X152292397Y-122191143D01*
X152479144Y-121667698D01*
X152451362Y-121112632D01*
X152292397Y-120728857D01*
X152050213Y-120659392D01*
X151249605Y-121460000D01*
X150890395Y-121460000D01*
X150089787Y-120659392D01*
X149847603Y-120728857D01*
X149660856Y-121252302D01*
X137218353Y-121252302D01*
X137211362Y-121112632D01*
X137052397Y-120728857D01*
X136810213Y-120659392D01*
X136009605Y-121460000D01*
X135650395Y-121460000D01*
X134849787Y-120659392D01*
X134607603Y-120728857D01*
X134420856Y-121252302D01*
X133910000Y-121252302D01*
X133910000Y-109036661D01*
X134432758Y-109036661D01*
X134644990Y-109550303D01*
X135037630Y-109943629D01*
X135245512Y-110029949D01*
X135039697Y-110114990D01*
X134646371Y-110507630D01*
X134433243Y-111020900D01*
X134432758Y-111576661D01*
X134644990Y-112090303D01*
X135037630Y-112483629D01*
X135245512Y-112569949D01*
X135039697Y-112654990D01*
X134646371Y-113047630D01*
X134433243Y-113560900D01*
X134432758Y-114116661D01*
X134644990Y-114630303D01*
X135037630Y-115023629D01*
X135245512Y-115109949D01*
X135039697Y-115194990D01*
X134646371Y-115587630D01*
X134433243Y-116100900D01*
X134432758Y-116656661D01*
X134644990Y-117170303D01*
X135037630Y-117563629D01*
X135245512Y-117649949D01*
X135039697Y-117734990D01*
X134646371Y-118127630D01*
X134433243Y-118640900D01*
X134432758Y-119196661D01*
X134644990Y-119710303D01*
X135037630Y-120103629D01*
X135229727Y-120183395D01*
X135098857Y-120237603D01*
X135029392Y-120479787D01*
X135830000Y-121280395D01*
X136630608Y-120479787D01*
X136561143Y-120237603D01*
X136420682Y-120187491D01*
X136620303Y-120105010D01*
X137013629Y-119712370D01*
X137226757Y-119199100D01*
X137227242Y-118643339D01*
X137015010Y-118129697D01*
X136622370Y-117736371D01*
X136414488Y-117650051D01*
X136620303Y-117565010D01*
X137013629Y-117172370D01*
X137226757Y-116659100D01*
X137227242Y-116103339D01*
X137015010Y-115589697D01*
X136622370Y-115196371D01*
X136414488Y-115110051D01*
X136620303Y-115025010D01*
X137013629Y-114632370D01*
X137226757Y-114119100D01*
X137227242Y-113563339D01*
X137015010Y-113049697D01*
X136622370Y-112656371D01*
X136414488Y-112570051D01*
X136620303Y-112485010D01*
X137013629Y-112092370D01*
X137226757Y-111579100D01*
X137227242Y-111023339D01*
X137015010Y-110509697D01*
X136622370Y-110116371D01*
X136414488Y-110030051D01*
X136620303Y-109945010D01*
X137013629Y-109552370D01*
X137226757Y-109039100D01*
X137227242Y-108483339D01*
X137015010Y-107969697D01*
X136622370Y-107576371D01*
X136109100Y-107363243D01*
X135553339Y-107362758D01*
X135039697Y-107574990D01*
X134646371Y-107967630D01*
X134433243Y-108480900D01*
X134432758Y-109036661D01*
X133910000Y-109036661D01*
X133910000Y-104326661D01*
X140852758Y-104326661D01*
X141064990Y-104840303D01*
X141457630Y-105233629D01*
X141970900Y-105446757D01*
X142526661Y-105447242D01*
X142559055Y-105433857D01*
X144483499Y-107358301D01*
X144730060Y-107523048D01*
X145020900Y-107580900D01*
X150273777Y-107580900D01*
X149886371Y-107967630D01*
X149673243Y-108480900D01*
X149672758Y-109036661D01*
X149884990Y-109550303D01*
X150277630Y-109943629D01*
X150485512Y-110029949D01*
X150279697Y-110114990D01*
X149886371Y-110507630D01*
X149673243Y-111020900D01*
X149672758Y-111576661D01*
X149884990Y-112090303D01*
X150277630Y-112483629D01*
X150485512Y-112569949D01*
X150279697Y-112654990D01*
X149886371Y-113047630D01*
X149673243Y-113560900D01*
X149672758Y-114116661D01*
X149884990Y-114630303D01*
X150277630Y-115023629D01*
X150485512Y-115109949D01*
X150279697Y-115194990D01*
X149886371Y-115587630D01*
X149673243Y-116100900D01*
X149672758Y-116656661D01*
X149884990Y-117170303D01*
X150277630Y-117563629D01*
X150485512Y-117649949D01*
X150279697Y-117734990D01*
X149886371Y-118127630D01*
X149673243Y-118640900D01*
X149672758Y-119196661D01*
X149884990Y-119710303D01*
X150277630Y-120103629D01*
X150469727Y-120183395D01*
X150338857Y-120237603D01*
X150269392Y-120479787D01*
X151070000Y-121280395D01*
X151870608Y-120479787D01*
X151801143Y-120237603D01*
X151660682Y-120187491D01*
X151860303Y-120105010D01*
X152253629Y-119712370D01*
X152466757Y-119199100D01*
X152467242Y-118643339D01*
X152255010Y-118129697D01*
X151862370Y-117736371D01*
X151654488Y-117650051D01*
X151860303Y-117565010D01*
X152253629Y-117172370D01*
X152466757Y-116659100D01*
X152467242Y-116103339D01*
X152255010Y-115589697D01*
X151862370Y-115196371D01*
X151654488Y-115110051D01*
X151860303Y-115025010D01*
X152253629Y-114632370D01*
X152466757Y-114119100D01*
X152467242Y-113563339D01*
X152255010Y-113049697D01*
X151862370Y-112656371D01*
X151654488Y-112570051D01*
X151860303Y-112485010D01*
X152253629Y-112092370D01*
X152267070Y-112060000D01*
X157535198Y-112060000D01*
X167865817Y-122390619D01*
X167853243Y-122420900D01*
X167852758Y-122976661D01*
X168064990Y-123490303D01*
X168457630Y-123883629D01*
X168970900Y-124096757D01*
X169526661Y-124097242D01*
X170040303Y-123885010D01*
X170433629Y-123492370D01*
X170646757Y-122979100D01*
X170647242Y-122423339D01*
X170435010Y-121909697D01*
X170042370Y-121516371D01*
X169529100Y-121303243D01*
X168973339Y-121302758D01*
X168940945Y-121316143D01*
X158387401Y-110762599D01*
X158140839Y-110597852D01*
X157850000Y-110540000D01*
X152267531Y-110540000D01*
X152255010Y-110509697D01*
X151862370Y-110116371D01*
X151654488Y-110030051D01*
X151860303Y-109945010D01*
X152253629Y-109552370D01*
X152466757Y-109039100D01*
X152467242Y-108483339D01*
X152255010Y-107969697D01*
X151866891Y-107580900D01*
X167006098Y-107580900D01*
X174191108Y-114765910D01*
X174140272Y-114888336D01*
X174139730Y-115508942D01*
X174376725Y-116082514D01*
X174815177Y-116521732D01*
X175388336Y-116759728D01*
X176008942Y-116760270D01*
X176582514Y-116523275D01*
X177021732Y-116084823D01*
X177259728Y-115511664D01*
X177260270Y-114891058D01*
X177023275Y-114317486D01*
X176656174Y-113949744D01*
X177021732Y-113584823D01*
X177259728Y-113011664D01*
X177260270Y-112391058D01*
X177023275Y-111817486D01*
X176656174Y-111449744D01*
X177021732Y-111084823D01*
X177259728Y-110511664D01*
X177260270Y-109891058D01*
X177023275Y-109317486D01*
X176905246Y-109199251D01*
X177076441Y-109089090D01*
X177221431Y-108876890D01*
X177272440Y-108625000D01*
X177272440Y-106775000D01*
X177228162Y-106539683D01*
X177089090Y-106323559D01*
X176876890Y-106178569D01*
X176625000Y-106127560D01*
X174775000Y-106127560D01*
X174539683Y-106171838D01*
X174323559Y-106310910D01*
X174178569Y-106523110D01*
X174127560Y-106775000D01*
X174127560Y-108625000D01*
X174171838Y-108860317D01*
X174310910Y-109076441D01*
X174492874Y-109200771D01*
X174378268Y-109315177D01*
X174140272Y-109888336D01*
X174140117Y-110065315D01*
X167587401Y-103512599D01*
X167340839Y-103347852D01*
X167050000Y-103290000D01*
X145847531Y-103290000D01*
X145835010Y-103259697D01*
X145442370Y-102866371D01*
X144929100Y-102653243D01*
X144373339Y-102652758D01*
X143859697Y-102864990D01*
X143466371Y-103257630D01*
X143450224Y-103296517D01*
X143435010Y-103259697D01*
X143042370Y-102866371D01*
X142529100Y-102653243D01*
X141973339Y-102652758D01*
X141459697Y-102864990D01*
X141066371Y-103257630D01*
X140853243Y-103770900D01*
X140852758Y-104326661D01*
X133910000Y-104326661D01*
X133910000Y-97875000D01*
X178627560Y-97875000D01*
X178627560Y-99725000D01*
X178671838Y-99960317D01*
X178810910Y-100176441D01*
X178992874Y-100300771D01*
X178878268Y-100415177D01*
X178640272Y-100988336D01*
X178639730Y-101608942D01*
X178876725Y-102182514D01*
X179315177Y-102621732D01*
X179888336Y-102859728D01*
X180508942Y-102860270D01*
X181082514Y-102623275D01*
X181521732Y-102184823D01*
X181759728Y-101611664D01*
X181760270Y-100991058D01*
X181523275Y-100417486D01*
X181405246Y-100299251D01*
X181576441Y-100189090D01*
X181721431Y-99976890D01*
X181772440Y-99725000D01*
X181772440Y-97875000D01*
X181728162Y-97639683D01*
X181589090Y-97423559D01*
X181376890Y-97278569D01*
X181125000Y-97227560D01*
X179275000Y-97227560D01*
X179039683Y-97271838D01*
X178823559Y-97410910D01*
X178678569Y-97623110D01*
X178627560Y-97875000D01*
X133910000Y-97875000D01*
X133910000Y-94942316D01*
X134373352Y-95134716D01*
X135023795Y-95135284D01*
X135624943Y-94886894D01*
X136085278Y-94427363D01*
X136154773Y-94260000D01*
X139744953Y-94260000D01*
X139813106Y-94424943D01*
G36*
X134893748Y-141485858D02*
X134879605Y-141500000D01*
X134893748Y-141514143D01*
X134714143Y-141693748D01*
X134700000Y-141679605D01*
X134685858Y-141693748D01*
X134506253Y-141514143D01*
X134520395Y-141500000D01*
X134506253Y-141485858D01*
X134685858Y-141306253D01*
X134700000Y-141320395D01*
X134714143Y-141306253D01*
X134893748Y-141485858D01*
X134893748Y-141485858D01*
G37*
X134893748Y-141485858D02*
X134879605Y-141500000D01*
X134893748Y-141514143D01*
X134714143Y-141693748D01*
X134700000Y-141679605D01*
X134685858Y-141693748D01*
X134506253Y-141514143D01*
X134520395Y-141500000D01*
X134506253Y-141485858D01*
X134685858Y-141306253D01*
X134700000Y-141320395D01*
X134714143Y-141306253D01*
X134893748Y-141485858D01*
G36*
X139554092Y-88735461D02*
X139578144Y-89385460D01*
X139780613Y-89874264D01*
X140047468Y-89972927D01*
X141020395Y-89000000D01*
X141006253Y-88985858D01*
X141185858Y-88806253D01*
X141200000Y-88820395D01*
X141214143Y-88806253D01*
X141393748Y-88985858D01*
X141379605Y-89000000D01*
X142352532Y-89972927D01*
X142619387Y-89874264D01*
X142845908Y-89264539D01*
X142821856Y-88614540D01*
X142654290Y-88210000D01*
X173749308Y-88210000D01*
X173554092Y-88735461D01*
X173578144Y-89385460D01*
X173780613Y-89874264D01*
X174047468Y-89972927D01*
X175020395Y-89000000D01*
X175006253Y-88985858D01*
X175185858Y-88806253D01*
X175200000Y-88820395D01*
X175214143Y-88806253D01*
X175393748Y-88985858D01*
X175379605Y-89000000D01*
X176352532Y-89972927D01*
X176619387Y-89874264D01*
X176845908Y-89264539D01*
X176821856Y-88614540D01*
X176654290Y-88210000D01*
X180249308Y-88210000D01*
X180054092Y-88735461D01*
X180078144Y-89385460D01*
X180280613Y-89874264D01*
X180547468Y-89972927D01*
X181520395Y-89000000D01*
X181506253Y-88985858D01*
X181685858Y-88806253D01*
X181700000Y-88820395D01*
X181714143Y-88806253D01*
X181893748Y-88985858D01*
X181879605Y-89000000D01*
X181893748Y-89014143D01*
X181714143Y-89193748D01*
X181700000Y-89179605D01*
X180727073Y-90152532D01*
X180825736Y-90419387D01*
X181435461Y-90645908D01*
X182085460Y-90621856D01*
X182490000Y-90454290D01*
X182490000Y-92057684D01*
X182026648Y-91865284D01*
X181376205Y-91864716D01*
X180775057Y-92113106D01*
X180314722Y-92572637D01*
X180245227Y-92740000D01*
X176655047Y-92740000D01*
X176586894Y-92575057D01*
X176127363Y-92114722D01*
X175526648Y-91865284D01*
X174876205Y-91864716D01*
X174275057Y-92113106D01*
X173814722Y-92572637D01*
X173745227Y-92740000D01*
X142655047Y-92740000D01*
X142586894Y-92575057D01*
X142127363Y-92114722D01*
X141526648Y-91865284D01*
X140876205Y-91864716D01*
X140275057Y-92113106D01*
X139814722Y-92572637D01*
X139745227Y-92740000D01*
X136155047Y-92740000D01*
X136086894Y-92575057D01*
X135627363Y-92114722D01*
X135026648Y-91865284D01*
X134376205Y-91864716D01*
X133910000Y-92057349D01*
X133910000Y-90450692D01*
X134435461Y-90645908D01*
X135085460Y-90621856D01*
X135574264Y-90419387D01*
X135672927Y-90152532D01*
X140227073Y-90152532D01*
X140325736Y-90419387D01*
X140935461Y-90645908D01*
X141585460Y-90621856D01*
X142074264Y-90419387D01*
X142172927Y-90152532D01*
X174227073Y-90152532D01*
X174325736Y-90419387D01*
X174935461Y-90645908D01*
X175585460Y-90621856D01*
X176074264Y-90419387D01*
X176172927Y-90152532D01*
X175200000Y-89179605D01*
X174227073Y-90152532D01*
X142172927Y-90152532D01*
X141200000Y-89179605D01*
X140227073Y-90152532D01*
X135672927Y-90152532D01*
X134700000Y-89179605D01*
X134685858Y-89193748D01*
X134506253Y-89014143D01*
X134520395Y-89000000D01*
X134506253Y-88985858D01*
X134685858Y-88806253D01*
X134700000Y-88820395D01*
X134714143Y-88806253D01*
X134893748Y-88985858D01*
X134879605Y-89000000D01*
X135852532Y-89972927D01*
X136119387Y-89874264D01*
X136345908Y-89264539D01*
X136321856Y-88614540D01*
X136154290Y-88210000D01*
X139749308Y-88210000D01*
X139554092Y-88735461D01*
X139554092Y-88735461D01*
G37*
X139554092Y-88735461D02*
X139578144Y-89385460D01*
X139780613Y-89874264D01*
X140047468Y-89972927D01*
X141020395Y-89000000D01*
X141006253Y-88985858D01*
X141185858Y-88806253D01*
X141200000Y-88820395D01*
X141214143Y-88806253D01*
X141393748Y-88985858D01*
X141379605Y-89000000D01*
X142352532Y-89972927D01*
X142619387Y-89874264D01*
X142845908Y-89264539D01*
X142821856Y-88614540D01*
X142654290Y-88210000D01*
X173749308Y-88210000D01*
X173554092Y-88735461D01*
X173578144Y-89385460D01*
X173780613Y-89874264D01*
X174047468Y-89972927D01*
X175020395Y-89000000D01*
X175006253Y-88985858D01*
X175185858Y-88806253D01*
X175200000Y-88820395D01*
X175214143Y-88806253D01*
X175393748Y-88985858D01*
X175379605Y-89000000D01*
X176352532Y-89972927D01*
X176619387Y-89874264D01*
X176845908Y-89264539D01*
X176821856Y-88614540D01*
X176654290Y-88210000D01*
X180249308Y-88210000D01*
X180054092Y-88735461D01*
X180078144Y-89385460D01*
X180280613Y-89874264D01*
X180547468Y-89972927D01*
X181520395Y-89000000D01*
X181506253Y-88985858D01*
X181685858Y-88806253D01*
X181700000Y-88820395D01*
X181714143Y-88806253D01*
X181893748Y-88985858D01*
X181879605Y-89000000D01*
X181893748Y-89014143D01*
X181714143Y-89193748D01*
X181700000Y-89179605D01*
X180727073Y-90152532D01*
X180825736Y-90419387D01*
X181435461Y-90645908D01*
X182085460Y-90621856D01*
X182490000Y-90454290D01*
X182490000Y-92057684D01*
X182026648Y-91865284D01*
X181376205Y-91864716D01*
X180775057Y-92113106D01*
X180314722Y-92572637D01*
X180245227Y-92740000D01*
X176655047Y-92740000D01*
X176586894Y-92575057D01*
X176127363Y-92114722D01*
X175526648Y-91865284D01*
X174876205Y-91864716D01*
X174275057Y-92113106D01*
X173814722Y-92572637D01*
X173745227Y-92740000D01*
X142655047Y-92740000D01*
X142586894Y-92575057D01*
X142127363Y-92114722D01*
X141526648Y-91865284D01*
X140876205Y-91864716D01*
X140275057Y-92113106D01*
X139814722Y-92572637D01*
X139745227Y-92740000D01*
X136155047Y-92740000D01*
X136086894Y-92575057D01*
X135627363Y-92114722D01*
X135026648Y-91865284D01*
X134376205Y-91864716D01*
X133910000Y-92057349D01*
X133910000Y-90450692D01*
X134435461Y-90645908D01*
X135085460Y-90621856D01*
X135574264Y-90419387D01*
X135672927Y-90152532D01*
X140227073Y-90152532D01*
X140325736Y-90419387D01*
X140935461Y-90645908D01*
X141585460Y-90621856D01*
X142074264Y-90419387D01*
X142172927Y-90152532D01*
X174227073Y-90152532D01*
X174325736Y-90419387D01*
X174935461Y-90645908D01*
X175585460Y-90621856D01*
X176074264Y-90419387D01*
X176172927Y-90152532D01*
X175200000Y-89179605D01*
X174227073Y-90152532D01*
X142172927Y-90152532D01*
X141200000Y-89179605D01*
X140227073Y-90152532D01*
X135672927Y-90152532D01*
X134700000Y-89179605D01*
X134685858Y-89193748D01*
X134506253Y-89014143D01*
X134520395Y-89000000D01*
X134506253Y-88985858D01*
X134685858Y-88806253D01*
X134700000Y-88820395D01*
X134714143Y-88806253D01*
X134893748Y-88985858D01*
X134879605Y-89000000D01*
X135852532Y-89972927D01*
X136119387Y-89874264D01*
X136345908Y-89264539D01*
X136321856Y-88614540D01*
X136154290Y-88210000D01*
X139749308Y-88210000D01*
X139554092Y-88735461D01*
M02*
