G04 #@! TF.FileFunction,Legend,Top*
%FSLAX46Y46*%
G04 Gerber Fmt 4.6, Leading zero omitted, Abs format (unit mm)*
G04 Created by KiCad (PCBNEW 4.0.6+dfsg1-1) date Mon Jan 15 21:58:49 2018*
%MOMM*%
%LPD*%
G01*
G04 APERTURE LIST*
%ADD10C,0.100000*%
%ADD11C,0.120000*%
%ADD12C,0.150000*%
G04 APERTURE END LIST*
D10*
D11*
X145950000Y-90250000D02*
X145950000Y-96200000D01*
X145950000Y-96200000D02*
X153550000Y-96200000D01*
X153550000Y-96200000D02*
X153550000Y-90250000D01*
X153550000Y-90250000D02*
X145950000Y-90250000D01*
X149250000Y-90250000D02*
X149250000Y-91000000D01*
X149250000Y-91000000D02*
X150250000Y-91000000D01*
X150250000Y-91000000D02*
X150250000Y-90250000D01*
X150250000Y-90250000D02*
X149250000Y-90250000D01*
X145950000Y-90250000D02*
X145950000Y-91000000D01*
X145950000Y-91000000D02*
X147750000Y-91000000D01*
X147750000Y-91000000D02*
X147750000Y-90250000D01*
X147750000Y-90250000D02*
X145950000Y-90250000D01*
X151750000Y-90250000D02*
X151750000Y-91000000D01*
X151750000Y-91000000D02*
X153550000Y-91000000D01*
X153550000Y-91000000D02*
X153550000Y-90250000D01*
X153550000Y-90250000D02*
X151750000Y-90250000D01*
X145950000Y-92500000D02*
X146700000Y-92500000D01*
X146700000Y-92500000D02*
X146700000Y-95450000D01*
X146700000Y-95450000D02*
X149750000Y-95450000D01*
X153550000Y-92500000D02*
X152800000Y-92500000D01*
X152800000Y-92500000D02*
X152800000Y-95450000D01*
X152800000Y-95450000D02*
X149750000Y-95450000D01*
X148150000Y-89950000D02*
X145650000Y-89950000D01*
X145650000Y-89950000D02*
X145650000Y-92450000D01*
X128450000Y-104750000D02*
X122500000Y-104750000D01*
X122500000Y-104750000D02*
X122500000Y-112350000D01*
X122500000Y-112350000D02*
X128450000Y-112350000D01*
X128450000Y-112350000D02*
X128450000Y-104750000D01*
X128450000Y-108050000D02*
X127700000Y-108050000D01*
X127700000Y-108050000D02*
X127700000Y-109050000D01*
X127700000Y-109050000D02*
X128450000Y-109050000D01*
X128450000Y-109050000D02*
X128450000Y-108050000D01*
X128450000Y-104750000D02*
X127700000Y-104750000D01*
X127700000Y-104750000D02*
X127700000Y-106550000D01*
X127700000Y-106550000D02*
X128450000Y-106550000D01*
X128450000Y-106550000D02*
X128450000Y-104750000D01*
X128450000Y-110550000D02*
X127700000Y-110550000D01*
X127700000Y-110550000D02*
X127700000Y-112350000D01*
X127700000Y-112350000D02*
X128450000Y-112350000D01*
X128450000Y-112350000D02*
X128450000Y-110550000D01*
X126200000Y-104750000D02*
X126200000Y-105500000D01*
X126200000Y-105500000D02*
X123250000Y-105500000D01*
X123250000Y-105500000D02*
X123250000Y-108550000D01*
X126200000Y-112350000D02*
X126200000Y-111600000D01*
X126200000Y-111600000D02*
X123250000Y-111600000D01*
X123250000Y-111600000D02*
X123250000Y-108550000D01*
X128750000Y-106950000D02*
X128750000Y-104450000D01*
X128750000Y-104450000D02*
X126250000Y-104450000D01*
X128450000Y-114450000D02*
X122500000Y-114450000D01*
X122500000Y-114450000D02*
X122500000Y-122050000D01*
X122500000Y-122050000D02*
X128450000Y-122050000D01*
X128450000Y-122050000D02*
X128450000Y-114450000D01*
X128450000Y-117750000D02*
X127700000Y-117750000D01*
X127700000Y-117750000D02*
X127700000Y-118750000D01*
X127700000Y-118750000D02*
X128450000Y-118750000D01*
X128450000Y-118750000D02*
X128450000Y-117750000D01*
X128450000Y-114450000D02*
X127700000Y-114450000D01*
X127700000Y-114450000D02*
X127700000Y-116250000D01*
X127700000Y-116250000D02*
X128450000Y-116250000D01*
X128450000Y-116250000D02*
X128450000Y-114450000D01*
X128450000Y-120250000D02*
X127700000Y-120250000D01*
X127700000Y-120250000D02*
X127700000Y-122050000D01*
X127700000Y-122050000D02*
X128450000Y-122050000D01*
X128450000Y-122050000D02*
X128450000Y-120250000D01*
X126200000Y-114450000D02*
X126200000Y-115200000D01*
X126200000Y-115200000D02*
X123250000Y-115200000D01*
X123250000Y-115200000D02*
X123250000Y-118250000D01*
X126200000Y-122050000D02*
X126200000Y-121300000D01*
X126200000Y-121300000D02*
X123250000Y-121300000D01*
X123250000Y-121300000D02*
X123250000Y-118250000D01*
X128750000Y-116650000D02*
X128750000Y-114150000D01*
X128750000Y-114150000D02*
X126250000Y-114150000D01*
D12*
X175200000Y-95500000D02*
X179700000Y-95500000D01*
X173950000Y-91500000D02*
X173950000Y-93000000D01*
X179700000Y-89000000D02*
X175200000Y-89000000D01*
X180950000Y-93000000D02*
X180950000Y-91500000D01*
X124700000Y-95500000D02*
X129200000Y-95500000D01*
X123450000Y-91500000D02*
X123450000Y-93000000D01*
X129200000Y-89000000D02*
X124700000Y-89000000D01*
X130450000Y-93000000D02*
X130450000Y-91500000D01*
X124700000Y-145000000D02*
X129200000Y-145000000D01*
X123450000Y-141000000D02*
X123450000Y-142500000D01*
X129200000Y-138500000D02*
X124700000Y-138500000D01*
X130450000Y-142500000D02*
X130450000Y-141000000D01*
X179700000Y-138500000D02*
X175200000Y-138500000D01*
X180950000Y-142500000D02*
X180950000Y-141000000D01*
X175200000Y-145000000D02*
X179700000Y-145000000D01*
X173950000Y-141000000D02*
X173950000Y-142500000D01*
D11*
X175150000Y-129850000D02*
X181100000Y-129850000D01*
X181100000Y-129850000D02*
X181100000Y-122250000D01*
X181100000Y-122250000D02*
X175150000Y-122250000D01*
X175150000Y-122250000D02*
X175150000Y-129850000D01*
X175150000Y-126550000D02*
X175900000Y-126550000D01*
X175900000Y-126550000D02*
X175900000Y-125550000D01*
X175900000Y-125550000D02*
X175150000Y-125550000D01*
X175150000Y-125550000D02*
X175150000Y-126550000D01*
X175150000Y-129850000D02*
X175900000Y-129850000D01*
X175900000Y-129850000D02*
X175900000Y-128050000D01*
X175900000Y-128050000D02*
X175150000Y-128050000D01*
X175150000Y-128050000D02*
X175150000Y-129850000D01*
X175150000Y-124050000D02*
X175900000Y-124050000D01*
X175900000Y-124050000D02*
X175900000Y-122250000D01*
X175900000Y-122250000D02*
X175150000Y-122250000D01*
X175150000Y-122250000D02*
X175150000Y-124050000D01*
X177400000Y-129850000D02*
X177400000Y-129100000D01*
X177400000Y-129100000D02*
X180350000Y-129100000D01*
X180350000Y-129100000D02*
X180350000Y-126050000D01*
X177400000Y-122250000D02*
X177400000Y-123000000D01*
X177400000Y-123000000D02*
X180350000Y-123000000D01*
X180350000Y-123000000D02*
X180350000Y-126050000D01*
X174850000Y-127650000D02*
X174850000Y-130150000D01*
X174850000Y-130150000D02*
X177350000Y-130150000D01*
D12*
X155210000Y-134370000D02*
X172990000Y-134370000D01*
X155210000Y-106430000D02*
X172990000Y-106430000D01*
X155210000Y-134370000D02*
X155210000Y-106430000D01*
X172990000Y-106430000D02*
X172990000Y-134370000D01*
D11*
X143510000Y-100810000D02*
G75*
G02X141510000Y-100810000I-1000000J0D01*
G01*
X141510000Y-100810000D02*
X139740000Y-100810000D01*
X139740000Y-100810000D02*
X139740000Y-111210000D01*
X139740000Y-111210000D02*
X145280000Y-111210000D01*
X145280000Y-111210000D02*
X145280000Y-100810000D01*
X145280000Y-100810000D02*
X143510000Y-100810000D01*
D12*
X133100000Y-140400000D02*
X154100000Y-140400000D01*
X154100000Y-115900000D02*
X133100000Y-115900000D01*
X154100000Y-115900000D02*
X154100000Y-140400000D01*
X133100000Y-140400000D02*
X133100000Y-115900000D01*
X148964286Y-89128571D02*
X149107143Y-89176190D01*
X149154762Y-89223810D01*
X149202381Y-89319048D01*
X149202381Y-89461905D01*
X149154762Y-89557143D01*
X149107143Y-89604762D01*
X149011905Y-89652381D01*
X148630952Y-89652381D01*
X148630952Y-88652381D01*
X148964286Y-88652381D01*
X149059524Y-88700000D01*
X149107143Y-88747619D01*
X149154762Y-88842857D01*
X149154762Y-88938095D01*
X149107143Y-89033333D01*
X149059524Y-89080952D01*
X148964286Y-89128571D01*
X148630952Y-89128571D01*
X149488095Y-88652381D02*
X150059524Y-88652381D01*
X149773809Y-89652381D02*
X149773809Y-88652381D01*
X150916667Y-89652381D02*
X150345238Y-89652381D01*
X150630952Y-89652381D02*
X150630952Y-88652381D01*
X150535714Y-88795238D01*
X150440476Y-88890476D01*
X150345238Y-88938095D01*
X128952381Y-108883333D02*
X129666667Y-108883333D01*
X129809524Y-108930953D01*
X129904762Y-109026191D01*
X129952381Y-109169048D01*
X129952381Y-109264286D01*
X129952381Y-107883333D02*
X129952381Y-108454762D01*
X129952381Y-108169048D02*
X128952381Y-108169048D01*
X129095238Y-108264286D01*
X129190476Y-108359524D01*
X129238095Y-108454762D01*
X129952381Y-118892857D02*
X129952381Y-119369048D01*
X128952381Y-119369048D01*
X129904762Y-118607143D02*
X129952381Y-118464286D01*
X129952381Y-118226190D01*
X129904762Y-118130952D01*
X129857143Y-118083333D01*
X129761905Y-118035714D01*
X129666667Y-118035714D01*
X129571429Y-118083333D01*
X129523810Y-118130952D01*
X129476190Y-118226190D01*
X129428571Y-118416667D01*
X129380952Y-118511905D01*
X129333333Y-118559524D01*
X129238095Y-118607143D01*
X129142857Y-118607143D01*
X129047619Y-118559524D01*
X129000000Y-118511905D01*
X128952381Y-118416667D01*
X128952381Y-118178571D01*
X129000000Y-118035714D01*
X129952381Y-117083333D02*
X129952381Y-117654762D01*
X129952381Y-117369048D02*
X128952381Y-117369048D01*
X129095238Y-117464286D01*
X129190476Y-117559524D01*
X129238095Y-117654762D01*
X176116667Y-88404762D02*
X176259524Y-88452381D01*
X176497620Y-88452381D01*
X176592858Y-88404762D01*
X176640477Y-88357143D01*
X176688096Y-88261905D01*
X176688096Y-88166667D01*
X176640477Y-88071429D01*
X176592858Y-88023810D01*
X176497620Y-87976190D01*
X176307143Y-87928571D01*
X176211905Y-87880952D01*
X176164286Y-87833333D01*
X176116667Y-87738095D01*
X176116667Y-87642857D01*
X176164286Y-87547619D01*
X176211905Y-87500000D01*
X176307143Y-87452381D01*
X176545239Y-87452381D01*
X176688096Y-87500000D01*
X177021429Y-87452381D02*
X177259524Y-88452381D01*
X177450001Y-87738095D01*
X177640477Y-88452381D01*
X177878572Y-87452381D01*
X178783334Y-88452381D02*
X178211905Y-88452381D01*
X178497619Y-88452381D02*
X178497619Y-87452381D01*
X178402381Y-87595238D01*
X178307143Y-87690476D01*
X178211905Y-87738095D01*
X125616667Y-88404762D02*
X125759524Y-88452381D01*
X125997620Y-88452381D01*
X126092858Y-88404762D01*
X126140477Y-88357143D01*
X126188096Y-88261905D01*
X126188096Y-88166667D01*
X126140477Y-88071429D01*
X126092858Y-88023810D01*
X125997620Y-87976190D01*
X125807143Y-87928571D01*
X125711905Y-87880952D01*
X125664286Y-87833333D01*
X125616667Y-87738095D01*
X125616667Y-87642857D01*
X125664286Y-87547619D01*
X125711905Y-87500000D01*
X125807143Y-87452381D01*
X126045239Y-87452381D01*
X126188096Y-87500000D01*
X126521429Y-87452381D02*
X126759524Y-88452381D01*
X126950001Y-87738095D01*
X127140477Y-88452381D01*
X127378572Y-87452381D01*
X127711905Y-87547619D02*
X127759524Y-87500000D01*
X127854762Y-87452381D01*
X128092858Y-87452381D01*
X128188096Y-87500000D01*
X128235715Y-87547619D01*
X128283334Y-87642857D01*
X128283334Y-87738095D01*
X128235715Y-87880952D01*
X127664286Y-88452381D01*
X128283334Y-88452381D01*
X125616667Y-137904762D02*
X125759524Y-137952381D01*
X125997620Y-137952381D01*
X126092858Y-137904762D01*
X126140477Y-137857143D01*
X126188096Y-137761905D01*
X126188096Y-137666667D01*
X126140477Y-137571429D01*
X126092858Y-137523810D01*
X125997620Y-137476190D01*
X125807143Y-137428571D01*
X125711905Y-137380952D01*
X125664286Y-137333333D01*
X125616667Y-137238095D01*
X125616667Y-137142857D01*
X125664286Y-137047619D01*
X125711905Y-137000000D01*
X125807143Y-136952381D01*
X126045239Y-136952381D01*
X126188096Y-137000000D01*
X126521429Y-136952381D02*
X126759524Y-137952381D01*
X126950001Y-137238095D01*
X127140477Y-137952381D01*
X127378572Y-136952381D01*
X127664286Y-136952381D02*
X128283334Y-136952381D01*
X127950000Y-137333333D01*
X128092858Y-137333333D01*
X128188096Y-137380952D01*
X128235715Y-137428571D01*
X128283334Y-137523810D01*
X128283334Y-137761905D01*
X128235715Y-137857143D01*
X128188096Y-137904762D01*
X128092858Y-137952381D01*
X127807143Y-137952381D01*
X127711905Y-137904762D01*
X127664286Y-137857143D01*
X176116667Y-146404762D02*
X176259524Y-146452381D01*
X176497620Y-146452381D01*
X176592858Y-146404762D01*
X176640477Y-146357143D01*
X176688096Y-146261905D01*
X176688096Y-146166667D01*
X176640477Y-146071429D01*
X176592858Y-146023810D01*
X176497620Y-145976190D01*
X176307143Y-145928571D01*
X176211905Y-145880952D01*
X176164286Y-145833333D01*
X176116667Y-145738095D01*
X176116667Y-145642857D01*
X176164286Y-145547619D01*
X176211905Y-145500000D01*
X176307143Y-145452381D01*
X176545239Y-145452381D01*
X176688096Y-145500000D01*
X177021429Y-145452381D02*
X177259524Y-146452381D01*
X177450001Y-145738095D01*
X177640477Y-146452381D01*
X177878572Y-145452381D01*
X178688096Y-145785714D02*
X178688096Y-146452381D01*
X178450000Y-145404762D02*
X178211905Y-146119048D01*
X178830953Y-146119048D01*
X174504762Y-127383333D02*
X174552381Y-127240476D01*
X174552381Y-127002380D01*
X174504762Y-126907142D01*
X174457143Y-126859523D01*
X174361905Y-126811904D01*
X174266667Y-126811904D01*
X174171429Y-126859523D01*
X174123810Y-126907142D01*
X174076190Y-127002380D01*
X174028571Y-127192857D01*
X173980952Y-127288095D01*
X173933333Y-127335714D01*
X173838095Y-127383333D01*
X173742857Y-127383333D01*
X173647619Y-127335714D01*
X173600000Y-127288095D01*
X173552381Y-127192857D01*
X173552381Y-126954761D01*
X173600000Y-126811904D01*
X173552381Y-126478571D02*
X174552381Y-126240476D01*
X173838095Y-126049999D01*
X174552381Y-125859523D01*
X173552381Y-125621428D01*
X173552381Y-124764285D02*
X173552381Y-125240476D01*
X174028571Y-125288095D01*
X173980952Y-125240476D01*
X173933333Y-125145238D01*
X173933333Y-124907142D01*
X173980952Y-124811904D01*
X174028571Y-124764285D01*
X174123810Y-124716666D01*
X174361905Y-124716666D01*
X174457143Y-124764285D01*
X174504762Y-124811904D01*
X174552381Y-124907142D01*
X174552381Y-125145238D01*
X174504762Y-125240476D01*
X174457143Y-125288095D01*
X168632381Y-121161905D02*
X169441905Y-121161905D01*
X169537143Y-121114286D01*
X169584762Y-121066667D01*
X169632381Y-120971429D01*
X169632381Y-120780952D01*
X169584762Y-120685714D01*
X169537143Y-120638095D01*
X169441905Y-120590476D01*
X168632381Y-120590476D01*
X169632381Y-119590476D02*
X169632381Y-120161905D01*
X169632381Y-119876191D02*
X168632381Y-119876191D01*
X168775238Y-119971429D01*
X168870476Y-120066667D01*
X168918095Y-120161905D01*
X169752381Y-113419048D02*
X169752381Y-113228571D01*
X169800000Y-113133333D01*
X169895238Y-113038095D01*
X170085714Y-112990476D01*
X170419048Y-112990476D01*
X170609524Y-113038095D01*
X170704762Y-113133333D01*
X170752381Y-113228571D01*
X170752381Y-113419048D01*
X170704762Y-113514286D01*
X170609524Y-113609524D01*
X170419048Y-113657143D01*
X170085714Y-113657143D01*
X169895238Y-113609524D01*
X169800000Y-113514286D01*
X169752381Y-113419048D01*
X169752381Y-112561905D02*
X170561905Y-112561905D01*
X170657143Y-112514286D01*
X170704762Y-112466667D01*
X170752381Y-112371429D01*
X170752381Y-112180952D01*
X170704762Y-112085714D01*
X170657143Y-112038095D01*
X170561905Y-111990476D01*
X169752381Y-111990476D01*
X169752381Y-111657143D02*
X169752381Y-111085714D01*
X170752381Y-111371429D02*
X169752381Y-111371429D01*
X170371429Y-110752381D02*
X170371429Y-109990476D01*
X167828571Y-111447618D02*
X167876190Y-111304761D01*
X167923810Y-111257142D01*
X168019048Y-111209523D01*
X168161905Y-111209523D01*
X168257143Y-111257142D01*
X168304762Y-111304761D01*
X168352381Y-111399999D01*
X168352381Y-111780952D01*
X167352381Y-111780952D01*
X167352381Y-111447618D01*
X167400000Y-111352380D01*
X167447619Y-111304761D01*
X167542857Y-111257142D01*
X167638095Y-111257142D01*
X167733333Y-111304761D01*
X167780952Y-111352380D01*
X167828571Y-111447618D01*
X167828571Y-111780952D01*
X167971429Y-110780952D02*
X167971429Y-110019047D01*
X160228571Y-111447618D02*
X160276190Y-111304761D01*
X160323810Y-111257142D01*
X160419048Y-111209523D01*
X160561905Y-111209523D01*
X160657143Y-111257142D01*
X160704762Y-111304761D01*
X160752381Y-111399999D01*
X160752381Y-111780952D01*
X159752381Y-111780952D01*
X159752381Y-111447618D01*
X159800000Y-111352380D01*
X159847619Y-111304761D01*
X159942857Y-111257142D01*
X160038095Y-111257142D01*
X160133333Y-111304761D01*
X160180952Y-111352380D01*
X160228571Y-111447618D01*
X160228571Y-111780952D01*
X160371429Y-110780952D02*
X160371429Y-110019047D01*
X160752381Y-110399999D02*
X159990476Y-110399999D01*
X157152381Y-113419048D02*
X157152381Y-113228571D01*
X157200000Y-113133333D01*
X157295238Y-113038095D01*
X157485714Y-112990476D01*
X157819048Y-112990476D01*
X158009524Y-113038095D01*
X158104762Y-113133333D01*
X158152381Y-113228571D01*
X158152381Y-113419048D01*
X158104762Y-113514286D01*
X158009524Y-113609524D01*
X157819048Y-113657143D01*
X157485714Y-113657143D01*
X157295238Y-113609524D01*
X157200000Y-113514286D01*
X157152381Y-113419048D01*
X157152381Y-112561905D02*
X157961905Y-112561905D01*
X158057143Y-112514286D01*
X158104762Y-112466667D01*
X158152381Y-112371429D01*
X158152381Y-112180952D01*
X158104762Y-112085714D01*
X158057143Y-112038095D01*
X157961905Y-111990476D01*
X157152381Y-111990476D01*
X157152381Y-111657143D02*
X157152381Y-111085714D01*
X158152381Y-111371429D02*
X157152381Y-111371429D01*
X157771429Y-110752381D02*
X157771429Y-109990476D01*
X158152381Y-110371428D02*
X157390476Y-110371428D01*
X170952381Y-130442857D02*
X169952381Y-130442857D01*
X170952381Y-129966667D02*
X169952381Y-129966667D01*
X170952381Y-129395238D01*
X169952381Y-129395238D01*
X170571429Y-128919048D02*
X170571429Y-128157143D01*
X158252381Y-130342857D02*
X157252381Y-130342857D01*
X158252381Y-129866667D02*
X157252381Y-129866667D01*
X158252381Y-129295238D01*
X157252381Y-129295238D01*
X157871429Y-128819048D02*
X157871429Y-128057143D01*
X158252381Y-128438095D02*
X157490476Y-128438095D01*
X141748095Y-99262381D02*
X141748095Y-100071905D01*
X141795714Y-100167143D01*
X141843333Y-100214762D01*
X141938571Y-100262381D01*
X142129048Y-100262381D01*
X142224286Y-100214762D01*
X142271905Y-100167143D01*
X142319524Y-100071905D01*
X142319524Y-99262381D01*
X142748095Y-99357619D02*
X142795714Y-99310000D01*
X142890952Y-99262381D01*
X143129048Y-99262381D01*
X143224286Y-99310000D01*
X143271905Y-99357619D01*
X143319524Y-99452857D01*
X143319524Y-99548095D01*
X143271905Y-99690952D01*
X142700476Y-100262381D01*
X143319524Y-100262381D01*
X142590476Y-139712381D02*
X142590476Y-138712381D01*
X142923810Y-139426667D01*
X143257143Y-138712381D01*
X143257143Y-139712381D01*
X144257143Y-139712381D02*
X143685714Y-139712381D01*
X143971428Y-139712381D02*
X143971428Y-138712381D01*
X143876190Y-138855238D01*
X143780952Y-138950476D01*
X143685714Y-138998095D01*
M02*
